<svg xmlns="http://www.w3.org/2000/svg" viewBox="0 0 100 100"><defs><style>.cls-1{opacity:0.2;}.cls-2{fill:none;stroke:#000;stroke-linecap:round;stroke-linejoin:round;stroke-width:0.5px;}</style></defs><title>icons</title><g id="Info"><path d="M3.47,92.5a2.29,2.29,0,0,0,1.76,2.21,2.22,2.22,0,0,0,.51.06H9.43c.46,0,1,.09,1.57.13a87.05,87.05,0,0,0,8.84,0l4.08-.1H47.36c1,.08,1.93.21,3.08.22,1.55,0,2.62-.13,4.12-.16l2.94,0h.37a2.31,2.31,0,0,0,1.27-.4,2.33,2.33,0,0,0,1-1.44,3.44,3.44,0,0,0,0-.45v-1l0-1.39c0-.92.06-1.84.08-2.75.11-3.65.21-7.25.09-11-.14-4.58-.24-8.62-.26-13.36,0-1.64,0-3.32,0-5V37.67c0-1.3.06-2.59.1-3.83.11-4.44-.06-8.5-.1-12.44V18.51c0-.62,0-1.24,0-1.86s.06-1.52.1-2.39a2.46,2.46,0,0,0-.44-1.59,2.4,2.4,0,0,0-1.27-.91,3.05,3.05,0,0,0-.95-.09l-.79,0-1.55.06-2.62,0c-1.94-.07-2.76-.19-5.67-.11a2.6,2.6,0,0,1-.66.18h-.51l-2.73-.2-1.29.12a47.53,47.53,0,0,0-8.12-.07l-2.16,0c-1.95,0-3.47.13-5.13.22h-.71a41.28,41.28,0,0,1-5.52-.36l-1.08.09a49.08,49.08,0,0,0-8.27.26h-.19l-1.84,0c-1.12-.1-2.08-.17-3.17-.18a2.43,2.43,0,0,0-2.23,1.81,3,3,0,0,0-.08.94c0,1,0,2.1,0,3.24,0,5.31.07,10.76.11,16.38v1.53c0,1.24-.08,2.49-.08,3.78,0,.81,0,1.51,0,2.15,0,3.38,0,6.76.13,9.86v.16l-.06,2.64c0,.09-.07,0-.1.1,0,1.7.1,3.54.06,5.38,0,.22-.08,0-.09,0,.11,1.75,0,2.65-.21,2.34.06.49.1,1.68.16,2.24a94.26,94.26,0,0,0,.07,11q-.07,3.22-.11,6.46c0,3.85,0,5.44.28,5.65V92.4h.27v.1a.47.47,0,0,0,0-.1h.47v-.34l.1.07c0-3-.1-5.47-.08-8.08.17-3,.17-6.31.13-9.69V58.8c0-2.16.09-4.66,0-6.75,0-.26,0-.48,0-.71,0-4-.05-7.89-.11-11.88V36.87l.06-.75a89.91,89.91,0,0,0,.32-10.25c0-2.65,0-5.38,0-8.13V14.12c0-.1,0-.2,0-.3a1.09,1.09,0,0,1,.88-.73h2c5.54,0,11,0,16.2-.21l5.89-.23h17a25,25,0,0,0,2.75,0c.24.28,2.76.39,5.61.41h2.72a1.12,1.12,0,0,1,.85.32,1.12,1.12,0,0,1,.29.49,1.23,1.23,0,0,1,0,.29c0,.15,0,.29,0,.43,0,.57,0,1.06.05,1.45,0,.14.07,0,.11.1,0,3.38.13,10.69,0,13,.1,1.13.16,2.51.26,3.48v4.25c-.16,1.39-.39,2.35-.49,4.07.41,1.12.42,5.31.41,7.71,0,1.08,0,2.78-.06,4.4,0,.11,0,.18-.07.17,0,1.41,0,2.73,0,4.14a.9.9,0,0,1,0-.22,15.89,15.89,0,0,0,.26,4.3v1.22c-.11,2.18-.27,3.8-.28,6.22s.14,5.29.18,7.9c0,1.51.06,2.51.1,3.46v12.4a1.49,1.49,0,0,1-.74,1.08,1.36,1.36,0,0,1-.61.19c-.2,0-.53,0-.78,0l-3.26,0H47.08c-2.43,0-5.76-.06-7.95.1H5.7a1.44,1.44,0,0,1-.45-.09,1.49,1.49,0,0,1-1-1.4Zm0-31.32v3l0,.09Zm-.09,10.5v0Z"/><path d="M9.17,85.07a2.15,2.15,0,0,0,2.18,2.13h2.71c.38,0,.81.09,1.3.13a59.38,59.38,0,0,0,7.3,0L26,87.2H45.4c.83.08,1.59.21,2.54.22,1.29,0,2.17-.12,3.41-.16H52a5.92,5.92,0,0,0,.67,0A2.16,2.16,0,0,0,54,86.5a2.22,2.22,0,0,0,.55-1.38c0-.4,0-.79,0-1.18,0-1.56.09-3.08.14-4.59.1-3,.2-6,.09-9.12-.14-3.79-.25-7.12-.27-11,0-1.36,0-2.75,0-4.13V38.34c0-1.07.07-2.14.1-3.17.11-3.66-.06-7-.1-10.27V22.51c0-.51,0-1,0-1.54s.07-1.25.11-2a2.33,2.33,0,0,0-.33-1.36,2.23,2.23,0,0,0-1-.88,2.34,2.34,0,0,0-.86-.19c-.28,0-.45,0-.68,0l-1.28.06-2.16,0a45.59,45.59,0,0,0-4.69-.11c-.06.08-.37.12-.54.18h-.43c-.74-.07-1.56-.12-2.26-.2l-1.06.12a32.52,32.52,0,0,0-6.71-.06c-.57,0-1.17,0-1.79,0-1.61,0-2.86.13-4.23.21H26a28.3,28.3,0,0,1-4.56-.36l-.89.1a33.71,33.71,0,0,0-6.84.25H13.6l-1.52-.05-.68-.07a2.19,2.19,0,0,0-.83.07,2.26,2.26,0,0,0-1.34,1,2.69,2.69,0,0,0-.3,1.53c0,.41,0,.83,0,1.25,0,.86,0,1.73,0,2.68q.06,6.57.11,13.53V38C9,39,9,40.05,9,41.12c0,.67,0,1.24,0,1.77,0,2.8,0,5.59.13,8.15v.14l-.06,2.17c0,.08-.07,0-.1.09,0,1.4.1,2.92.06,4.44,0,.18-.08,0-.09,0,.11,1.45,0,2.19-.21,1.93.06.41.1,1.4.16,1.85-.28,1.13-.09,6.92.07,9.06-.05,1.78-.1,3.55-.11,5.33,0,3.19,0,4.5.28,4.67V85h.26v.09L9.48,85H10V84.7a.53.53,0,0,1,.1.06c0-2.5-.1-4.52-.08-6.68.17-2.51.17-5.21.13-8V67.37c0-3.37,0-6.76,0-10.15,0-1.78.1-3.85,0-5.57,0-.22,0-.4,0-.59,0-3.27,0-6.52-.1-9.82V39.11l.06-.63A63,63,0,0,0,10.33,30c0-2.2,0-4.45,0-6.72,0-1.14,0-2.28,0-3.43V19a.89.89,0,0,1,.1-.5.91.91,0,0,1,.72-.52l6.72,0c2.24,0,4.44-.09,6.57-.2l4.86-.23H43.42a17,17,0,0,0,2.27,0c.19.28,2.28.39,4.64.41h2.13l.23.05a1.05,1.05,0,0,1,.38.27,1.1,1.1,0,0,1,.21.4c0,.08,0,.12,0,.23s0,.24,0,.36c0,.46,0,.87,0,1.19,0,.12.06,0,.1.09,0,2.79.14,8.83,0,10.71.11.94.16,2.07.27,2.88v3.51c-.16,1.15-.4,1.94-.49,3.36.4.92.41,4.39.4,6.37,0,.9,0,2.3-.06,3.64,0,.09,0,.15-.07.13,0,1.17,0,2.26,0,3.43a1,1,0,0,1,0-.19A10.37,10.37,0,0,0,53.7,58v1c-.11,1.8-.28,3.14-.29,5.14s.15,4.37.18,6.52c0,1.25.06,2.08.11,2.86V83.79l-.06,1.37a1.31,1.31,0,0,1-.49.88,1.34,1.34,0,0,1-1,.27h-7c-2,0-4.76-.06-6.57.1H11.44a1.43,1.43,0,0,1-.75-.15,1.37,1.37,0,0,1-.74-1.2Zm0-25.88v2.47l0,.08Zm-.09,8.68v0Z"/><path d="M33.79,90.55a1.51,1.51,0,0,0,0-.3l.09-.09c.13-.18,0-.29-.15-.4l-.15-.15a2,2,0,0,0-.73-.77c0-.08,0-.19,0-.22s-.16,0-.23,0c-.36,0-.66-.52-1.06-.29-.22.13-.38.27-.57.37l-.2.12a2.15,2.15,0,0,0-.65.66l-.15.13c-.18.16-.11.4-.11.58l0,.13s0,.05,0,.08-.14.16-.13.24.07.1.1.14a.57.57,0,0,0,0,.13c0,.1-.1.17,0,.29h.14l0,0-.1.18.11,0c-.11.16-.05.37.16.37a.47.47,0,0,0,.06.09c.06.07.18.07.28.08l0,0a.44.44,0,0,1,0,.38l.09,0c0,.15.3.21.44,0h0l.06.07c0,.19.14.23.26.19l.15,0a2.42,2.42,0,0,0,.8-.11l.07,0a.25.25,0,0,0,.19,0s.06,0,.09-.07a.53.53,0,0,0,.36-.31h0l.13,0s0,0,0,0A.47.47,0,0,1,33.3,92s0,0,.05,0,.07-.11.2,0c0-.05,0-.11,0-.16.22.07.31-.34.24-.5a.73.73,0,0,0,.17-.28c.07-.19,0-.28-.15-.31a1.93,1.93,0,0,0,0-.24h-.66c0,.09.07.18,0,.26a.29.29,0,0,0-.19.26l0,.09a.93.93,0,0,1-.22.3s-.14,0-.15.13v0l-.3.24a.19.19,0,0,1-.08,0l0,0c-.17-.19-.21-.22-.33-.19a.6.6,0,0,1-.41-.1.62.62,0,0,0-.45-.09,1,1,0,0,1-.25,0,1.44,1.44,0,0,1-.28-.48s0-.07,0-.09c.39-.13.27-.31.18-.41h-.08c0-.09-.05-.34.1-.35A2.2,2.2,0,0,1,30.5,90a.67.67,0,0,1,.06-.12c.13,0,.29.09.37.1-.23-.2-.15-.31-.09-.36a1.39,1.39,0,0,0,.13-.06s0,0,0,0,.07,0,.1-.07v0c.07,0,.07-.08,0-.24l0,0c.1,0,.19.15.25.13s.12-.14.2-.18a.43.43,0,0,0,.1-.09,1.84,1.84,0,0,1,.41,0c.11.16.23.16.36.24s.12.13.25.09h0a1.39,1.39,0,0,1,.47,1Zm-.5,1.32.09-.1h0A.48.48,0,0,1,33.29,91.87Zm.34-.36Z"/><path d="M94.94,26.24l-3.49,6.3,6.6.61-2.63-6.88A.26.26,0,0,0,94.94,26.24Z"/><path d="M95.22,26.4c-.1-.06,0,0,0,0s0,0,0,0h0l-.11.06v0c-.07.28.13.43.28.65l.18.28.67,1.75c0,.1-.09.2-.07.29s.17.16.23.26c.36.55.11,1.23.49,1.73a4.47,4.47,0,0,1,.57.93l.15.37.21.54.33-.44-1-.1-.3-.1a2.76,2.76,0,0,0-1,0l-.23,0-.15-.05a1.73,1.73,0,0,0-.37-.16,2,2,0,0,0-.26.06l-.21,0c-.15-.07-.2-.16-.44-.13,0,.06,0,.09-.07.14h0l-.2-.17-.11.08a.47.47,0,0,0-.64-.11.57.57,0,0,0-.18,0,1.06,1.06,0,0,0-.42.12h-.06A.63.63,0,0,1,92,32l-.09.07A.54.54,0,0,0,91.5,32l.43.81a.45.45,0,0,0,0-.36h0l.1-.11a.45.45,0,0,0,.33-.38,1.59,1.59,0,0,0,.13-.22L93,30.53l.06-.11a.87.87,0,0,0,.2-.23.41.41,0,0,0,0-.17,1.71,1.71,0,0,0,.3-.74h0l.15-.16s0,0,.07,0a1.09,1.09,0,0,1,.16-.4s.06,0,.07,0c0-.16.08-.2.22-.09a1.41,1.41,0,0,1,0-.21c.23,0,.38-.56.38-.79s.22-.27.32-.42.21-.38,0-.49l.2-.36-.17-.1h0l-.31-.17,0,0-.06,0a5.48,5.48,0,0,1-.26.59,1.27,1.27,0,0,0-.46.63l-.12.23c-.16.29-.3.58-.48.86s-.24.29-.26.47a.16.16,0,0,0,0,.07,6.79,6.79,0,0,0-.39.87l-.1.18-.07,0a.94.94,0,0,0-.61.6c-.26.55-.68,1.05-.94,1.61l0,.07a.55.55,0,0,0,.26.75.64.64,0,0,0,.23,0,2.37,2.37,0,0,0,.75-.08l.49-.13L94,33a.22.22,0,0,0,.21,0c0,.42.78.4,1,.32,0,0,0,0,0-.08.27,0,.86,0,1,.13.1-.07.21-.1.3-.17l.33,0c.1.13.16.31.29.4.12-.3.46-.27.65-.25l.16,0a.29.29,0,0,0,.36-.24.41.41,0,0,0,0-.11l0-.11a1.49,1.49,0,0,0,0-.18s0,0,0,0a1,1,0,0,0-.11-.31h0a.25.25,0,0,0-.3-.25l0-.09a1.24,1.24,0,0,0,0-.54,3.9,3.9,0,0,0-.36-.54,1,1,0,0,0-.17-.24l-.36-.93a3.05,3.05,0,0,0-.31-1c-.07-.18-.12-.45-.29-.57h0L96,27l-.25-.68c0-.06-.14-.38-.39-.42a.51.51,0,0,0-.61.25ZM94,28.59l.12-.21h0Zm.47-.7h0v0Z"/><path d="M94.49,37.56l0-.12.1,0c.16,0,0-.11,0-.17l-.06-.09,0-.45c.06,0,.16,0,.17,0s-.09-.06-.11-.09.37-.25.21-.42a.48.48,0,0,1-.16-.28v-.1l0-.39.09-.07c.09-.08,0-.17-.06-.25V35l0,0s.14-.06.14-.09-.06,0-.08-.07a.05.05,0,0,0,0,0s.14,0,.09-.1l-.14,0h0l.15,0-.09,0c.18,0,.23-.1.06-.16a0,0,0,0,0,0,0s-.09-.08-.15-.11v0s.07-.07.28-.09l-.08,0c.11,0,0-.14-.18-.17h0l0,0c.16,0,.17-.08.11-.12a.15.15,0,0,0,0-.07,2.66,2.66,0,0,1-.08-.33v0s.06-.05.06-.08,0,0,0,0a.17.17,0,0,0-.11-.2h0l0-.06H95s-.08-.07,0-.11H95c-.09,0,0-.06.15-.07,0,0-.08,0-.12,0,.2,0,0-.2-.09-.24a.32.32,0,0,0,.06-.15c0-.1,0-.13-.24-.08l0-.12-.19.06h0l-.34.1h0l-.07,0s.09.08.08.12-.1.13-.06.19v.05a.78.78,0,0,1,0,.22s-.06.09,0,.12h0a.47.47,0,0,0,.09.22v0l0,0c-.23.06-.26.1-.24.19s-.22.4.09.61l.17.13,0,.32s-.07,0,0,0c-.42,0-.34.17-.25.24H94c0,.06.08.21,0,.24l.19.09v.08a2,2,0,0,0-.38,0c.31,0,.3.13.29.18s0,0,0,.08h0s0,0,0,.08h0s0,.07.19.1v0c-.09,0-.22,0-.23.09s.1.12.12.17a.17.17,0,0,0,.07.08l0,.24c-.14.07-.1.15-.11.25s-.06.1,0,.16h0l-.08.71Zm.35-4.73v-.06h0Zm0-.23h0Z"/><path d="M77.07,3.88l-6.35,3.4,5.21,4.1,1.53-7.21A.27.27,0,0,0,77.07,3.88Z"/><path d="M77.21,4.14s0,0,0,0h0l-.12,0,0,0c-.21.2-.13.44-.12.7v.33L76.52,7c-.07.07-.18.12-.21.21s0,.23,0,.35c0,.65-.58,1.09-.53,1.72a4.33,4.33,0,0,1,0,1.08l-.07.4-.12.56.52-.19-.82-.64-.19-.25a2.89,2.89,0,0,0-.83-.56l-.18-.14L74,9.41a1.56,1.56,0,0,0-.23-.34A1.84,1.84,0,0,0,73.53,9l-.15-.15c-.09-.13-.08-.24-.3-.34a.42.42,0,0,1-.13.07l0,0a1.83,1.83,0,0,1-.08-.25H72.7a.47.47,0,0,0-.48-.44.49.49,0,0,0-.13-.12,1,1,0,0,0-.42-.13l0,0a.56.56,0,0,1-.18-.48h-.12a.47.47,0,0,0-.27-.24L71,7.76a.45.45,0,0,0,.16-.33h0l.15,0a.42.42,0,0,0,.48-.14L72,7.14l1.12-.69.11-.06a1,1,0,0,0,.29-.09.41.41,0,0,0,.14-.12,1.73,1.73,0,0,0,.65-.45h0l.21-.06s0,0,0,.06a1,1,0,0,1,.36-.24s0,0,0,.06.18-.12.24,0c0-.06.08-.13.1-.19.19.13.62-.26.75-.46a3.53,3.53,0,0,0,.49-.17c.28-.13.39-.21.3-.4l.37-.19L77.12,4h0l0,0-.17-.31h0l0-.07a6.39,6.39,0,0,1-.55.36,1.35,1.35,0,0,0-.73.28l-.23.13c-.28.15-.56.32-.86.46s-.36.11-.48.25l0,.06c-.28.16-.54.33-.81.52L73,5.75H73a1,1,0,0,0-.84.18c-.51.32-1.14.51-1.66.84l-.07,0a.56.56,0,0,0-.18.77.52.52,0,0,0,.16.17,2.71,2.71,0,0,0,.68.34l.48.15,1.07.85a.22.22,0,0,0,.16.15c-.24.36.43.75.69.83l0-.05c.22.15.74.45.8.66.12,0,.23,0,.34,0l.27.21a1.59,1.59,0,0,0,0,.49c.26-.19.53,0,.68.14l.12.12a.31.31,0,0,0,.44,0l.06-.09,0-.1a1.13,1.13,0,0,0,.07-.18h0a.71.71,0,0,0,.07-.32l0,0a.27.27,0,0,0-.12-.38l0-.09c.12-.16.27-.26.31-.45a4.55,4.55,0,0,0,0-.64.86.86,0,0,0,0-.29l.21-1a3,3,0,0,0,.3-1,1.17,1.17,0,0,0,.06-.64h0l.3-1.42.15-.71s.09-.4-.1-.56A.52.52,0,0,0,77,3.65ZM75,5.35l.21-.11,0,0ZM75.79,5h0Z"/><path d="M70.55,13.15l.07-.1.1,0c.16.06.1-.06.09-.15a.41.41,0,0,1,0-.11l.29-.35c.06,0,.14.07.16.06s0-.1,0-.14c0-.2.45,0,.41-.23a.43.43,0,0,1,0-.32l.06-.09.25-.31H72c.12,0,.07-.16.1-.24l0,0h0s.14,0,.16,0,0-.07,0-.1l.05,0c.06,0,.14,0,.14,0l-.11-.1h0l.16,0-.06-.07c.16.06.25,0,.14-.11l0,0s0-.11-.06-.18h0c.07,0,.11,0,.29.07l-.05-.06c.11,0,.11-.1-.06-.25h.06c.15.06.18,0,.15,0a.08.08,0,0,0,0-.05c0-.11.07-.21.11-.32l0,0s.08,0,.09,0a.07.07,0,0,0,0-.06.16.16,0,0,0,0-.22h0l.07,0,.07,0c0-.05,0-.11,0-.13l.06,0c-.06-.08,0-.06.16,0a.39.39,0,0,0-.08-.1c.2.07.14-.14.06-.24a.45.45,0,0,0,.13-.1c0-.08,0-.13-.15-.2l0-.11-.19-.05h0l-.34-.1h0l-.07,0s0,.11,0,.15-.16,0-.15.11l0,.06a.66.66,0,0,1-.09.19s-.11,0-.07.11l0,0a.52.52,0,0,0,0,.23l0,0h0c-.23-.07-.28-.06-.31,0s-.4.22-.26.56l.08.2-.2.26s-.07,0-.05,0c-.34-.25-.37-.05-.34.06l.06.05c0,.06,0,.22-.17.17,0,.07.06.12.11.18l-.05.07a2.3,2.3,0,0,0-.34-.18c.23.21.18.28.15.31s-.06,0-.09,0l0,0s0,0-.06.06l0,0c-.06,0,0,.06.1.18l0,0c-.09,0-.2-.07-.24,0s0,.15,0,.2a.15.15,0,0,0,0,.11l-.16.18c-.15,0-.17.08-.23.15s-.1.06,0,.17h0l-.44.56Zm2.86-3.79,0,0h0Zm.16-.17Z"/><path d="M77.18,42.24l-4.25,2.69,3.83,2.59.7-5.09A.19.19,0,0,0,77.18,42.24Z"/><path d="M77.29,42.42s0,0,0,0h0l-.21,0,0,0c-.19.14-.08.31,0,.49l0,.24-.18,1.29c-.07,0-.17.09-.19.15s.07.16.09.25c.08.46-.45.77-.33,1.21a2.26,2.26,0,0,1,.09.77l0,.28,0,.4.5-.23-.6-.41-.13-.18c-.16-.21-.42-.23-.62-.33l-.13-.09a.27.27,0,0,1-.07-.08c0-.07-.09-.22-.16-.26s-.13,0-.19,0a.52.52,0,0,0-.11-.1c-.06-.1-.05-.2-.21-.25a.5.5,0,0,1-.11.1h0c0-.07,0-.14,0-.22l-.11,0c0-.21-.14-.36-.35-.29a.18.18,0,0,0-.09-.08c-.09-.06-.21,0-.33,0l0,0a.44.44,0,0,1-.1-.4l-.09,0a.25.25,0,0,0-.2-.17l0,.92a.33.33,0,0,0,.06-.29h0l.11,0c.19.07.28,0,.34-.09a.83.83,0,0,0,.16-.09l.73-.56.07,0a.47.47,0,0,0,.21-.06.17.17,0,0,0,.08-.09.91.91,0,0,0,.42-.38h0l.14,0,0,.07a.58.58,0,0,1,.23-.21s0,.06,0,.06.11-.09.19.07c0-.06,0-.12,0-.17.18.13.43-.19.49-.37A1.48,1.48,0,0,0,77,43c.19-.09.26-.16.16-.34l.24-.16-.11-.16h0l0,0L77,42h0L77,42a1.79,1.79,0,0,1-.35.29.69.69,0,0,0-.51.21l-.15.1c-.19.12-.38.26-.58.37s-.26.08-.32.2a.07.07,0,0,0,0,0,3,3,0,0,0-.52.42l-.13.07h-.06a.54.54,0,0,0-.61.1c-.33.26-.78.4-1.12.66l-.09.07a.54.54,0,0,0,.07.91,1.33,1.33,0,0,0,.52.17l.37,0,.79.53c0,.06,0,.11.11.11-.21.36.29.58.48.6l0-.07c.17.1.55.26.59.43.09,0,.18,0,.27,0l.2.13a1.29,1.29,0,0,0,0,.43.36.36,0,0,1,.52,0l.09.08a.29.29,0,0,0,.41,0,.22.22,0,0,0,0-.08l.07-.14a1,1,0,0,0,0-.13h.06a.45.45,0,0,0,0-.23l0,0c.06-.11,0-.21-.16-.27v-.07c.1-.1.23-.18.26-.31s-.07-.31-.08-.46a.42.42,0,0,0-.05-.2l.1-.69a1.52,1.52,0,0,0,.18-.73c0-.13.09-.31,0-.45h0l.14-1,.07-.5a.5.5,0,0,0-.12-.45A.43.43,0,0,0,77,42Zm-1.42,1,.15-.08h0Zm.54-.25h0Z"/><path d="M73.19,49.08l0-.07.1,0c.15.06.07,0,0-.11a.37.37,0,0,1,0-.09l.18-.26c.06,0,.14.07.16.06s-.06-.08-.07-.11.4,0,.31-.16-.08-.2-.05-.26l0-.06.16-.23h.09c.11,0,0-.12,0-.18l0,0h0s.13,0,.14,0l-.05-.08,0,0c.06,0,.14,0,.12,0l-.11-.08h0l.15.05-.06-.06c.16.06.23.05.1-.07s0,0,0,0-.06-.09-.1-.15h0s.08,0,.27.08l-.06,0c.11,0,.08-.07-.1-.2h.05c.15.05.17,0,.13,0a0,0,0,0,0,0,0,2.21,2.21,0,0,1,0-.25,0,0,0,0,1,0,0s.07,0,.08,0a.08.08,0,0,0,0,0s.05-.09,0-.18h0l.08,0s0-.08,0-.1l.07,0c-.07-.06,0,0,.16,0a.7.7,0,0,1-.1-.08c.2.07.12-.1,0-.18a.19.19,0,0,0,.11-.08c0-.06,0-.09-.18-.15l0-.08-.2,0h0l-.35-.08h0l-.07,0s.06.08,0,.1-.14,0-.12.08v0s0,.1-.06.14-.09,0,0,.07l0,0a.24.24,0,0,0,0,.17l0,0h0c-.22-.07-.27-.06-.27,0s-.33.14-.12.42l.1.16-.12.19s-.06,0,0,0c-.36-.23-.34-.07-.29,0l.07,0c0,.05,0,.18-.12.13l.13.15,0,.05a2.64,2.64,0,0,0-.33-.17c.24.19.21.24.19.26s0,0-.07,0l0,0s0,0,0,0l0,0s0,0,.13.16h0c-.08,0-.2-.08-.22-.05s0,.12,0,.16a.16.16,0,0,0,0,.09l-.09.13c-.14,0-.14,0-.17.11s-.09,0,0,.13h0l-.29.41ZM75,46.28l0,0h0Zm.12-.12Z"/><path d="M93.41,8l-2.66,4.26,4.58.67L93.75,8.06A.19.19,0,0,0,93.41,8Z"/><path d="M93.59,8.12s0,0,0,0h0l-.19.07,0,0c-.1.2.07.31.18.46l.14.19.4,1.25c0,.07-.11.15-.1.21s.13.11.18.19c.27.38-.07.89.23,1.24a2.26,2.26,0,0,1,.42.65l.09.26.13.38.36-.42-.72-.11-.2-.11c-.24-.12-.48,0-.7,0l-.16,0-.1,0c-.07-.05-.17-.16-.25-.16s-.13,0-.18.05l-.15,0c-.1-.07-.13-.16-.3-.13a.89.89,0,0,1-.05.13h0a.76.76,0,0,1-.13-.17l-.09.08c-.09-.18-.28-.27-.44-.11l-.12,0a.76.76,0,0,0-.3.12h0a.45.45,0,0,1-.27-.32l-.07.07a.22.22,0,0,0-.25-.06l.39.83a.33.33,0,0,0-.08-.29h0l.09-.07c.2,0,.26-.1.27-.23a.56.56,0,0,0,.1-.15c.13-.26.27-.54.42-.82l0-.07a.46.46,0,0,0,.16-.15.27.27,0,0,0,0-.12.81.81,0,0,0,.21-.52h0l.11-.1.07,0a.55.55,0,0,1,.12-.28s0,0,.06,0,.06-.14.2,0c0-.05,0-.12,0-.17.21,0,.3-.36.28-.55l.26-.26c.13-.17.16-.26,0-.38l.15-.24-.17-.11h0l0,0-.3-.19v0l-.06,0a2,2,0,0,1-.19.41.68.68,0,0,0-.37.41l-.09.16c-.12.19-.23.39-.36.58s-.2.18-.21.32a.43.43,0,0,1,0,0,5.55,5.55,0,0,0-.29.6l-.07.13h-.06a.54.54,0,0,0-.51.36c-.19.37-.53.69-.72,1.08l-.05.1a.54.54,0,0,0,.24.73.6.6,0,0,0,.22.06,1.23,1.23,0,0,0,.53-.08l.35-.12,1,.14s.09.07.14,0c0,.42.51.4.7.33,0,0,0-.05,0-.07.19,0,.6,0,.71.13a2.11,2.11,0,0,0,.22-.17l.24,0c.06.14.08.32.17.4a.37.37,0,0,1,.47-.24l.11,0a.29.29,0,0,0,.36-.19.29.29,0,0,0,0-.09v-.16a.71.71,0,0,0,0-.14l0,0a.41.41,0,0,0-.07-.22h0c0-.12-.08-.19-.26-.17l0-.06c0-.15.13-.27.1-.4s-.2-.25-.27-.38a.53.53,0,0,0-.13-.16l-.21-.66a1.48,1.48,0,0,0-.16-.74c0-.13-.06-.32-.21-.4h0l-.31-1L94,8.06s-.1-.32-.3-.36a.45.45,0,0,0-.53.18Zm-.83,1.55.09-.14h0Zm.38-.46h0Z"/><path d="M92.79,15.91v-.09h.1c.17,0,0-.07,0-.12l-.06-.07,0-.31h.17s-.08-.05-.11-.08.37-.14.22-.27a.4.4,0,0,1-.17-.22v-.07L93,14.4l.08,0c.1,0,0-.12-.05-.18v0l0,0s.14,0,.14,0-.06,0-.08-.06l0,0s.14,0,.09-.07l-.13,0h0l.16,0-.09,0c.17,0,.23-.05.06-.11a0,0,0,0,0,0,0s-.09-.06-.15-.09h0s.07,0,.28,0l-.07,0c.1,0,0-.1-.18-.14h0l0,0c.16,0,.17,0,.11-.07s0,0,0,0a2.1,2.1,0,0,1-.06-.24s0,0,0,0,.06,0,.06-.06l0,0c0-.05,0-.1-.09-.14h0l0,0h.08s-.08,0,0-.08h.07c-.09,0,0,0,.15,0l-.12,0c.21,0,.06-.15-.06-.17a.37.37,0,0,0,.07-.12c0-.07,0-.1-.23-.06v-.08l-.2,0h0l-.34.08h0l-.08,0s.09.05.08.08-.12.08-.08.12v0s0,.09,0,.14-.07.06,0,.09h0a.28.28,0,0,0,.08.15v0h0c-.23,0-.27.06-.25.12s-.23.26.08.43l.16.09,0,.23s-.06,0,0,0c-.42-.05-.34.09-.25.15h.07s.08.15,0,.16l.19.08v.06c-.12,0-.3,0-.37,0,.3.07.29.12.28.15s0,0-.05.06h0s0,0,0,0h0s0,.05.19.09h0c-.09,0-.22,0-.23,0s.1.09.12.13a.14.14,0,0,0,.07.06l0,.16c-.14,0-.1.1-.11.17s-.06.07,0,.12h0l-.08.49Zm.41-3.31v0h0Zm.06-.16Z"/><path d="M74.25,20.4l-2.66,4.26,4.58.68-1.58-4.9A.19.19,0,0,0,74.25,20.4Z"/><path d="M74.42,20.51h0l-.2.07v0c-.1.21.06.32.18.46l.13.2.41,1.25c0,.07-.12.14-.11.21s.14.11.19.18c.27.38-.07.89.23,1.24a2,2,0,0,1,.41.65l.1.26.12.39.36-.43-.72-.1-.2-.11c-.23-.12-.47,0-.7,0l-.16,0a.2.2,0,0,1-.09-.05c-.07,0-.18-.15-.26-.16s-.12.05-.18.06l-.14-.05c-.1-.06-.13-.16-.3-.13a.59.59,0,0,1-.06.14h0c0-.06-.09-.11-.13-.18a.6.6,0,0,1-.08.08.27.27,0,0,0-.44-.11.27.27,0,0,0-.12,0,.63.63,0,0,0-.31.12h0a.42.42,0,0,1-.26-.31l-.07.06a.26.26,0,0,0-.25-.06l.38.83a.33.33,0,0,0-.07-.28h0l.08-.07c.2,0,.26-.1.27-.23a.65.65,0,0,0,.1-.15l.42-.82,0-.08a.47.47,0,0,0,.17-.14.27.27,0,0,0,0-.12.92.92,0,0,0,.21-.52h0l.12-.1a.15.15,0,0,0,.07,0,.53.53,0,0,1,.12-.28l.06,0c0-.13,0-.14.2,0,0-.05,0-.12,0-.17.22,0,.31-.36.28-.54a1.64,1.64,0,0,0,.26-.27c.13-.17.16-.25,0-.38l.15-.24-.16-.1h0l-.3-.19v0L74,20.24a2.76,2.76,0,0,1-.19.42.64.64,0,0,0-.37.4l-.1.16c-.12.19-.22.4-.36.58s-.2.19-.2.32a.07.07,0,0,0,0,.05,4.85,4.85,0,0,0-.29.61l-.08.12h-.06a.53.53,0,0,0-.5.36c-.19.38-.54.7-.73,1.08l0,.1a.56.56,0,0,0,.25.74.5.5,0,0,0,.21,0,1.44,1.44,0,0,0,.54-.07l.35-.13.94.14a.13.13,0,0,0,.15.05c0,.42.51.4.7.33,0,0,0,0,0-.08.19,0,.61,0,.72.13.07-.07.15-.09.22-.16l.23,0a1.85,1.85,0,0,0,.17.4.36.36,0,0,1,.47-.24l.12,0a.28.28,0,0,0,.36-.18.34.34,0,0,0,0-.1v-.16a.83.83,0,0,0,0-.13l0,0c0-.08,0-.14-.07-.22h0c0-.12-.09-.19-.26-.16l0-.07c0-.14.13-.27.1-.4s-.2-.24-.27-.37a.45.45,0,0,0-.14-.16L75.69,23a1.56,1.56,0,0,0-.15-.74c-.05-.13-.06-.32-.21-.4h0l-.31-1-.15-.48s-.1-.31-.31-.36a.45.45,0,0,0-.52.18Zm-.82,1.55.09-.14h0ZM74,21.6Z"/><path d="M73.62,28.29v-.08h.11c.16,0,0-.07,0-.12L73.67,28l0-.32c.06,0,.15,0,.17,0s-.09-.05-.11-.07.37-.15.21-.28-.16-.14-.16-.21v-.07l0-.28.09,0c.09,0,0-.12,0-.18v0l0,0s.13,0,.13-.05-.06,0-.07-.05l0,0c.06,0,.15,0,.1-.07l-.14,0h.15l-.08,0c.17,0,.22-.06.06-.11,0,0,0,0,0,0S74,26,74,26h0a.51.51,0,0,1,.28-.05l-.07,0c.11,0,0-.1-.18-.14h0l0,0c.17,0,.18,0,.11-.08a0,0,0,0,0,0,0,2.17,2.17,0,0,1-.07-.24v0s.06,0,.06-.05l0,0c0-.05,0-.1-.1-.15h0l0,0h.08s-.07-.05,0-.08.06,0,.07,0,0,0,.16-.05a.42.42,0,0,1-.12,0c.2,0,0-.14-.07-.17,0,0,.07-.07.07-.12s0-.09-.22-.06l0-.08-.19.05h0l-.35.09h0l-.07,0s.08,0,.07.07-.11.09-.08.12v0a.76.76,0,0,1,0,.15s-.08.06,0,.08h0a.26.26,0,0,0,.07.15v0h0c-.24,0-.27.05-.25.11s-.23.27.07.43l.17.1,0,.22s-.06,0,0,0c-.42-.05-.34.09-.25.14h.08c0,.05.08.16-.06.17l.2.08v.05h-.38c.3.06.3.12.29.15l0,.05H73.1s0,0,0,.06h0s0,0,.18.09v0c-.09,0-.21,0-.23,0s.1.09.12.13a.22.22,0,0,0,.07.06l0,.17c-.14,0-.1.1-.11.16s-.06.07.06.12h0l-.08.49ZM74,25v0h0Zm.06-.17Z"/><path class="cls-2" d="M70.56,12.69c-4.52,1.58-9.44,3.06-13.5,5.61C51.81,21.6,49,25.54,46.85,31.4c-2.51,6.94-4,13.79-8.31,19.9a19.73,19.73,0,0,1-6,5.55c-2.41,1.56-8.94,4-9.81,9.06"/><path class="cls-2" d="M21.72,69.73c1.11-8.38,9.62-10.65,12.47-11.23A32.81,32.81,0,0,0,45,54.22c3.46-2.15,7.23-3.9,9.73-7.16,2.87-3.75,5.52-7.81,8.78-11.26,2.17-2.3,7.18-7.15,10.29-7.59"/><path class="cls-2" d="M73.09,48.91a23.54,23.54,0,0,1-9.36,9.9,37.47,37.47,0,0,1-14.39,5.13,111.16,111.16,0,0,1-19.23,1.11c-1.4,0-8.39,1.23-8.39,4.68"/><path class="cls-2" d="M94.12,37.15c.27,3.21-2.17,6.75-3.76,9.34-2.15,3.49-4.58,6.93-8.15,9.08-6.94,4.2-15.77,3-23.53,3.69-5.5.46-36,3.82-37,10.47"/><path class="cls-2" d="M92.31,15.89c-.54,3.92-5.08,9-7.68,11.77C79.46,33.19,71,34.24,67,40.55,52,64.39,23.2,59.14,21.72,69.73"/><ellipse class="cls-2" cx="21" cy="67.68" rx="5.31" ry="11.44"/><path d="M24,67.75c0,5.55-1.86,10-4.16,10S16,73.3,16,67.75s1.58-10,3.88-10S24,62.2,24,67.75Z"/><path d="M24.26,67.75l0-1.13c0-.08,0-.17.05-.27a4.42,4.42,0,0,0-.15-1.52L24,64.15a15.12,15.12,0,0,0-1.09-3.89,1.81,1.81,0,0,0-.14-.53,3.56,3.56,0,0,0-.43-.59,5.44,5.44,0,0,0-1.42-1.49,1.89,1.89,0,0,0-2.11,0,4.92,4.92,0,0,0-1.47,1.91,7.07,7.07,0,0,0-.36.79,15.87,15.87,0,0,0-.88,3.38c0,.21-.09.43-.14.64a10.5,10.5,0,0,0-.13,2.13c0,.17,0,.33,0,.5l0,.31a5.68,5.68,0,0,0-.09.84c0,.18.05.36.07.53s0,.31,0,.45a3.22,3.22,0,0,0,0,1s.07.07.1.11l0,.08-.06.48.09.21a2.52,2.52,0,0,0,.18,1.39,2.38,2.38,0,0,0,.06.37,4.33,4.33,0,0,0,.31.84l0,.12a3.85,3.85,0,0,1,.11,1,.91.91,0,0,0,.11.16,2.35,2.35,0,0,0,.7,1.27v0c0,.11.11.2.15.29a1.82,1.82,0,0,0,.63.92,2.06,2.06,0,0,0,.48.38,2,2,0,0,0,1.52.32,2.6,2.6,0,0,0,1.36-.74c.07-.07.14-.13.2-.2a3.1,3.1,0,0,0,.46-.5,3,3,0,0,0,.19-.33,5.24,5.24,0,0,0,.7-1.58v0l.19-.42s0,0,.05,0c.07-.29.14-.6.24-.91,0,0,0,0,0,0,0-.3.1-.44.2-.36,0-.09,0-.3,0-.4a4.68,4.68,0,0,0,.29-1.87c.06-.37.13-.73.16-1.1.06-.67.06-.94-.08-1l0-.89h-.4v.06h-.05c0,.51,0,.92,0,1.36a13.2,13.2,0,0,0-.22,1.62c0,.17-.05.35-.08.54a15.44,15.44,0,0,1-.43,2c-.12.34-.27.73-.36,1.07,0,0,0,.08,0,.12a9.65,9.65,0,0,1-.86,1.77,1.64,1.64,0,0,1-.26.33l-.1.08a4.56,4.56,0,0,1-1.36.68c-.73.18-1.45-.42-1.9-1.15a16.75,16.75,0,0,1-1.16-2.37c-.13-.32-.25-.62-.35-.93a19.27,19.27,0,0,1-.43-2.84,1.81,1.81,0,0,0,0-.46c.27-.1.13-1.7.09-2.23,0,0,0,0-.05,0a10.41,10.41,0,0,1,.13-2.17c0-.2,0-.43-.07-.6l.09-.71a3.46,3.46,0,0,0,.36-.63c-.17-.22,0-.92.08-1.3.06-.18.14-.45.24-.7a0,0,0,0,1,0,0c.1-.21.14-.43.23-.65a.13.13,0,0,0,0,.05,1.1,1.1,0,0,0,.16-.71l.09-.18c.21-.3.42-.48.65-.79a3.52,3.52,0,0,1,.84-.88,3,3,0,0,1,.49-.21,2,2,0,0,1,1.73.7,9,9,0,0,1,1.14,1.89c.17.37.34.9.52,1.23h0a20.66,20.66,0,0,1,.85,6Zm-.64,5.33.13-.5,0,0ZM24,71.31h0v0Z"/></g></svg>