<svg id="Layer_1" data-name="Layer 1" xmlns="http://www.w3.org/2000/svg" xmlns:xlink="http://www.w3.org/1999/xlink" viewBox="0 0 38.16 38.16"><defs><style>.cls-1{fill:none;}.cls-2{opacity:0.8;}.cls-3{clip-path:url(#clip-path);}.cls-4{fill:#d0d0d4;}</style><clipPath id="clip-path"><rect class="cls-1" x="0.08" y="0.08" width="38" height="38"/></clipPath></defs><title>instagram</title><g class="cls-2"><g class="cls-3"><path class="cls-4" d="M27.79.08H10.37A10.29,10.29,0,0,0,.08,10.37V27.79A10.29,10.29,0,0,0,10.37,38.08H27.79A10.29,10.29,0,0,0,38.08,27.79V10.37A10.29,10.29,0,0,0,27.79.08m8.06,27.71a8.06,8.06,0,0,1-8.06,8.06H10.37a8.06,8.06,0,0,1-8.06-8.06V10.37a8.06,8.06,0,0,1,8.06-8.06H27.79a8.06,8.06,0,0,1,8.06,8.06Z"/><path class="cls-4" d="M19.08,8.69A10.39,10.39,0,1,0,29.47,19.08,10.4,10.4,0,0,0,19.08,8.69m0,18.55a8.16,8.16,0,1,1,8.16-8.16,8.17,8.17,0,0,1-8.16,8.16"/><path class="cls-4" d="M29.72,5a3.07,3.07,0,1,0,3.07,3.07A3.08,3.08,0,0,0,29.72,5m0,4.85A1.78,1.78,0,1,1,31.5,8.07a1.79,1.79,0,0,1-1.78,1.78"/></g></g></svg>