<svg xmlns="http://www.w3.org/2000/svg" viewBox="0 0 100 100"><defs><style>.cls-1{opacity:0.2;}.cls-2{fill:none;stroke:#000;stroke-linecap:round;stroke-linejoin:round;stroke-width:0.75px;}</style></defs><title>icons</title><g id="Info"><path class="cls-2" d="M28.06,84.53c.15-.22,3.85-2.6,4.67-5.53s.81-6.41-.09-7.92-5.48-8.18-5.48-8.18-.38-1.9,1.57-1.6l3.69,3.62s.07-9.46,0-12.88,1-3.49,1.8-3.12,2.1,2.41,2.18,4.66,0,7.44,0,7.44"/><path class="cls-2" d="M40.6,61s.3-8.49,0-10.37-.9-4.27-2.93-4.65-1.39,6.57-1.39,6.57"/><path class="cls-2" d="M44.59,62.37a77.57,77.57,0,0,0,0-9.47c-.3-2.78-1.66-4.5-2.78-4.73s-1.47,1.16-1.47,1.16"/><path class="cls-2" d="M38.46,85.73a26.42,26.42,0,0,0,9.28-18,52.67,52.67,0,0,0,0-12.44c-.22-1.08-.45-2.58-3.15-2.36"/><path class="cls-2" d="M34.78,63.61a1.91,1.91,0,0,1,1-.34"/><path class="cls-2" d="M38.35,62.9c.3,0,.6,0,.9,0"/><path class="cls-2" d="M41.58,63.57h1.13"/><path class="cls-2" d="M44.62,64.47c.24,0,.48,0,.72,0"/><path class="cls-2" d="M54.17,40.2c-.64-1.53-.86-1.7-1.61-1.58-1,.16-1,.93-1.14,1.4-.79,2.55-.47,9.32-.25,10.66A39.86,39.86,0,0,0,52.61,58c.84,2.35,4.15,11.5,9.41,16.94"/><path class="cls-2" d="M57.62,36.49a1.55,1.55,0,0,0-1.54-1.66c-.94.06-1.45,1.26-1.56,2A57.08,57.08,0,0,0,54,44.14c0,1.2,0,2.39,0,3.58"/><path class="cls-2" d="M61.38,47c0-2.22-.08-4.47,0-6.69,0-1.08,0-2.19,0-3.28a8.18,8.18,0,0,0-.25-2.36c-.35-1.08-2.53-1.94-3.28-.84a2.84,2.84,0,0,0-.22,1.42c0,.89,0,1.79-.08,2.69-.07,1.61-.09,3.21-.11,4.83,0,1.39-.23,2.84-.15,4.23"/><path class="cls-2" d="M73.28,73.19a3.3,3.3,0,0,1-2.08-1.26,17.87,17.87,0,0,1-2-2.75,15.51,15.51,0,0,1-2.38-5,19.33,19.33,0,0,1-.33-4.41c.08-1.74.93-3.18,1.62-4.8s1.29-3.63,2.14-5.34c0,0,1.09-2.9-.75-3.12s-5,4.77-5,4.77,0-10.7,0-11.09c0-1.19-.68-4.55-3.16-3.87"/><path class="cls-2" d="M53.45,51.85a18,18,0,0,0,7.48-2.63"/><path class="cls-2" d="M56.79,54.48s1.36-1,2.13-1.6c.4-.3,1.85-1.59,1.85-1.59"/><path class="cls-2" d="M62.65,53.17a7.69,7.69,0,0,0-2.21,4.88"/><path class="cls-2" d="M60,73.3c-.39.33-1.49,1.58-.91,2.09.35.3,1.23,0,1.61,0a5.26,5.26,0,0,0,2-.81A12,12,0,0,0,68,67.44l2.06,3.31a8.78,8.78,0,0,1-1,2.33,11.19,11.19,0,0,1-2,2.79,20.61,20.61,0,0,1-3.3,2.32,8.78,8.78,0,0,1-1.26.73c-.37.15-.77.24-1.14.39"/><path class="cls-2" d="M59.08,75.39c.43.54,1.91,3.23,2.26,3.81"/><path class="cls-2" d="M64.38,77.79a21.85,21.85,0,0,0,2.74,2.42"/><path class="cls-2" d="M17.09,29.39c.62.55,1.32,1,1.95,1.5"/><path class="cls-2" d="M21,32.54a1.67,1.67,0,0,0,.75.76"/><path class="cls-2" d="M25.2,36.3a49.57,49.57,0,0,0,5.86,5"/><path class="cls-2" d="M28.66,19.92C30,21.78,31,24.07,32.42,25.78"/><path class="cls-2" d="M34.52,28.94l.45.6"/><line class="cls-2" x1="36.62" y1="32.24" x2="39.78" y2="36.75"/><path class="cls-2" d="M44.59,13.31c0,.73.28,1.39.3,2.11"/><path class="cls-2" d="M45.19,18.12c.12.24.52,2.61.52,2.61"/><path class="cls-2" d="M46.39,22.63s.88,5.57,1.5,8.26"/><line class="cls-2" x1="62.17" y1="13.31" x2="59.37" y2="28.15"/><line class="cls-2" x1="74.04" y1="22.33" x2="68.93" y2="28.19"/><path class="cls-2" d="M77,18.72q-.48.66-.9,1.35"/><line class="cls-2" x1="86.36" y1="28.49" x2="74.49" y2="36.75"/><path class="cls-2" d="M76,46.2a17.1,17.1,0,0,0,3.76-.45"/><line class="cls-2" x1="83.35" y1="45.32" x2="90.86" y2="44.41"/><line class="cls-2" x1="76.74" y1="54.33" x2="80.35" y2="54.48"/><line class="cls-2" x1="83.5" y1="54.78" x2="92.82" y2="54.78"/><line class="cls-2" x1="74.64" y1="61.24" x2="87.11" y2="66.65"/><path class="cls-2" d="M25.65,66.65C22.94,67.79,14,70.41,12.58,71"/><path class="cls-2" d="M20.24,58.24S14.73,58,12,57.94"/><line class="cls-2" x1="7.02" y1="42.76" x2="19.49" y2="47.87"/><line class="cls-2" x1="21.75" y1="48.47" x2="22.95" y2="49.07"/><path class="cls-2" d="M25.05,50l1.36.75"/><path d="M69.5,70.16a7,7,0,0,1-.14-.8h0a.57.57,0,0,0,0-.13.36.36,0,0,0-.28-.32.47.47,0,0,0-.38-.29.5.5,0,0,0-1-.12,11.81,11.81,0,0,1-1.2,2.38.53.53,0,0,0-.32.2,16.19,16.19,0,0,1-1.38,1.8s0,0,0,0l-.22.29a.36.36,0,0,0-.08.18,9.08,9.08,0,0,0-1.78,1.37.5.5,0,0,0-.23,0,4.93,4.93,0,0,1-2.41.74c-.64,0-.64,1,0,1a.81.81,0,0,0,.16,0,.52.52,0,0,0,0,.57,3,3,0,0,0,.39.4c-.41.3-.16,1.07.4.88l.16,0a.52.52,0,0,0,.53.79,10.66,10.66,0,0,0,5.13-2.58c1.61-1.49,2.36-3.73,3.28-5.67A.53.53,0,0,0,69.5,70.16Z"/></g></svg>