<svg id="Layer_1" data-name="Layer 1" xmlns="http://www.w3.org/2000/svg" viewBox="0 0 232.28 182.44"><defs><style>.cls-1,.cls-2,.cls-8{fill:none;}.cls-1,.cls-2,.cls-3,.cls-4,.cls-5,.cls-6,.cls-7,.cls-8{stroke:#231f20;}.cls-1,.cls-2,.cls-3,.cls-4,.cls-5{stroke-miterlimit:10;}.cls-2{fill-rule:evenodd;}.cls-3,.cls-6,.cls-7{fill:#ffcd06;}.cls-4,.cls-9{fill:#231f20;}.cls-5{fill:#feda00;}.cls-6,.cls-7,.cls-8{stroke-linejoin:round;}.cls-7{stroke-linecap:round;}</style></defs><title>s6</title><path class="cls-1" d="M217.81,156.56c0,5.1-3.33,9.22-7.45,9.22H26.26c-4.12,0-7.45-4.12-7.45-9.22V25.44c0-5.09,3.33-9.21,7.45-9.21h184.1c4.12,0,7.45,4.12,7.45,9.21Z"/><path class="cls-1" d="M25.19,154.36V29a1.21,1.21,0,0,1,1.07-1.32h184.1A1.21,1.21,0,0,1,211.43,29V154.36Z"/><path class="cls-2" d="M9.48,166.07a19.07,19.07,0,0,0-.35,3.68c0,6.73,9,12.19,13,12.19H212.24c4,0,13-5.46,13-12.19a20.81,20.81,0,0,0-.33-3.68Z"/><rect class="cls-3" x="79.72" y="53.05" width="74.93" height="68.05"/><rect class="cls-3" x="79.72" y="53.05" width="74.93" height="9.9"/><rect class="cls-3" x="79.72" y="53.05" width="20.58" height="9.9"/><path class="cls-3" d="M87,58a1.17,1.17,0,1,1-2.34,0A1.17,1.17,0,1,1,87,58Z"/><path class="cls-3" d="M91.8,58a1.17,1.17,0,1,1-1.17-1.23A1.2,1.2,0,0,1,91.8,58Z"/><path class="cls-3" d="M96.56,58a1.17,1.17,0,1,1-1.17-1.23A1.2,1.2,0,0,1,96.56,58Z"/><rect class="cls-4" x="90.37" y="71.58" width="53.64" height="10.01"/><path class="cls-3" d="M19.75,130.65C9.12,130.65.5,139.72.5,150.91a20.45,20.45,0,0,0,9.71,17.59l-2,9.87,7.91-7.57a18.75,18.75,0,0,0,3.62.36c10.63,0,19.24-9.07,19.24-20.25S30.38,130.65,19.75,130.65Z"/><path class="cls-1" d="M31,150.9c0,7.15-5.4,12.94-12.06,12.94S6.84,158.05,6.84,150.9,12.24,138,18.91,138,31,143.76,31,150.9Z"/><path class="cls-1" d="M24.9,150.9c0-5.77-2.48-10.7-6-12.76-3.52,2.06-6,7-6,12.76s2.48,10.71,6,12.76C22.42,161.61,24.9,156.67,24.9,150.9Z"/><line class="cls-5" x1="18.91" y1="138.12" x2="18.91" y2="163.69"/><line class="cls-5" x1="6.98" y1="150.9" x2="30.83" y2="150.9"/><path class="cls-1" d="M26.69,141a9.53,9.53,0,0,1-15.57,0"/><path class="cls-1" d="M11.12,160.78a9.46,9.46,0,0,1,7.79-4.39,9.46,9.46,0,0,1,7.78,4.39"/><path class="cls-6" d="M184.91,101.84a11,11,0,0,1,1.89-3.65v0l-1.18-2.53,2.13-1.82,2.11,1.72h0a9.54,9.54,0,0,1,3.78-1.19l.87-2.66,2.73.3.33,2.78a10,10,0,0,1,3.47,2l2.39-1.23,1.73,2.24L203.5,100a11,11,0,0,1,1.13,4l2.52.91-.28,2.87-2.64.35a10.71,10.71,0,0,1-1.88,3.66l1.17,2.5-2.13,1.83-2.09-1.72a9.75,9.75,0,0,1-3.79,1.19l-.86,2.65-2.73-.29-.33-2.79a10,10,0,0,1-3.47-2l-2.39,1.24L184,112.16l1.64-2.21a11,11,0,0,1-1.12-4l-2.53-.91.28-2.88Zm12.56.65a3.6,3.6,0,0,0-5.26-.56,4.08,4.08,0,0,0-.55,5.54,3.62,3.62,0,0,0,5.27.57A4.08,4.08,0,0,0,197.47,102.49Z"/><path class="cls-7" d="M199.52,110.6a7.12,7.12,0,0,1-10.41-.29,8,8,0,0,1,.28-11"/><path class="cls-7" d="M201.11,108.29a7.24,7.24,0,0,1-.71,1.24"/><path class="cls-7" d="M190.84,100.89a5.34,5.34,0,0,1,7.82.22,6,6,0,0,1-.2,8.23"/><path class="cls-7" d="M189.65,102.62a5.71,5.71,0,0,1,.53-.93"/><path class="cls-6" d="M200.85,83.9a15.09,15.09,0,0,1,2.62-5.08v0l-1.64-3.51,3-2.54,2.94,2.4,0,0A13.5,13.5,0,0,1,213,73.54l1.21-3.69,3.79.41.46,3.87a13.85,13.85,0,0,1,4.83,2.73l3.33-1.71L229,78.27l-2.27,3.08a15.29,15.29,0,0,1,1.57,5.53l3.5,1.26-.38,4-3.68.49a14.93,14.93,0,0,1-2.61,5.09l1.63,3.49-3,2.53-2.92-2.39A13.35,13.35,0,0,1,215.6,103l-1.21,3.7-3.79-.41-.46-3.88a13.93,13.93,0,0,1-4.82-2.74L202,101.38l-2.41-3.12,2.28-3.08a15.54,15.54,0,0,1-1.56-5.53l-3.51-1.26.38-4Z"/><path class="cls-7" d="M221.17,96.08a9.89,9.89,0,0,1-14.47-.4,11.18,11.18,0,0,1,.38-15.23"/><path class="cls-7" d="M223.38,92.87a10.14,10.14,0,0,1-1,1.73"/><path class="cls-7" d="M209.1,82.58a7.43,7.43,0,0,1,10.88.3,8.39,8.39,0,0,1-.29,11.45"/><path class="cls-7" d="M207.44,85a7.93,7.93,0,0,1,.74-1.3"/><path class="cls-6" d="M217.67,85.39a4.31,4.31,0,0,0-6.29-.67,4.86,4.86,0,0,0-.65,6.61A4.32,4.32,0,0,0,217,92,4.88,4.88,0,0,0,217.67,85.39Z"/><path class="cls-6" d="M197.06,103.23a2.92,2.92,0,0,0-4.25-.45,3.27,3.27,0,0,0-.43,4.46,2.91,2.91,0,0,0,4.24.47A3.3,3.3,0,0,0,197.06,103.23Z"/><line class="cls-8" x1="32.4" y1="2.69" x2="63.53" y2="2.69"/><ellipse class="cls-6" cx="32.28" cy="2.69" rx="2.08" ry="2.19"/><ellipse class="cls-6" cx="63.16" cy="2.69" rx="2.08" ry="2.19"/><path class="cls-6" d="M32.4,19.36c0-9.08,7-16.44,15.63-16.44s15.62,7.36,15.62,16.44"/><rect class="cls-7" x="46.37" y="0.82" width="3.55" height="3.74"/><rect class="cls-7" x="61.98" y="17.46" width="3.55" height="3.74"/><rect class="cls-7" x="30.6" y="17.46" width="3.55" height="3.74"/><polygon class="cls-6" points="48.11 6.53 36.1 31.68 43.82 42.64 52.03 42.64 59.75 31.93 48.11 6.53"/><path class="cls-6" d="M41.24,42.64H54.61a4.59,4.59,0,0,1,4.59,4.59V48.7a0,0,0,0,1,0,0H36.65a0,0,0,0,1,0,0V47.23A4.59,4.59,0,0,1,41.24,42.64Z"/><ellipse class="cls-6" cx="47.93" cy="33.74" rx="3.31" ry="3.48"/><line class="cls-8" x1="47.93" y1="30.13" x2="47.93" y2="18.14"/><ellipse class="cls-9" cx="47.93" cy="15.36" rx="0.88" ry="0.92"/></svg>