<svg id="Layer_1" data-name="Layer 1" xmlns="http://www.w3.org/2000/svg" viewBox="0 0 160.52 205"><defs><style>.cls-1,.cls-7,.cls-9{fill:none;}.cls-1,.cls-3,.cls-4,.cls-5,.cls-7{stroke:#010101;}.cls-1,.cls-7{stroke-miterlimit:10;}.cls-2,.cls-4,.cls-8{fill:#ffcd06;}.cls-2,.cls-8,.cls-9{stroke:#231f20;}.cls-2,.cls-3,.cls-4,.cls-5,.cls-8,.cls-9{stroke-linejoin:round;}.cls-10,.cls-3{fill:#231f20;}.cls-5{fill:#cdcdcd;}.cls-6{fill:#010101;}.cls-7,.cls-8{stroke-linecap:round;}</style></defs><title>s7</title><rect class="cls-1" x="26.68" y="17.08" width="120.68" height="187.42" rx="5.93" ry="5.93"/><rect class="cls-1" x="33.76" y="25.23" width="106.52" height="166.95" rx="3.86" ry="3.86"/><ellipse class="cls-1" cx="87.02" cy="198.3" rx="2.91" ry="2.7"/><rect class="cls-2" x="17.06" y="14.97" width="34.59" height="20.86"/><polygon class="cls-2" points="34.35 15.02 51.74 15.02 43.05 7.76 34.35 0.5 25.66 7.76 16.96 15.02 34.35 15.02"/><polygon class="cls-3" points="34.37 15.02 51.55 15.02 42.96 22.28 34.37 29.54 25.78 22.28 17.19 15.02 34.37 15.02"/><polygon class="cls-2" points="34.3 35.72 51.34 35.72 42.82 28.46 34.3 21.2 25.77 28.46 17.25 35.72 34.3 35.72"/><rect class="cls-4" x="54.72" y="59.37" width="20.52" height="19.08"/><line class="cls-4" x1="54.72" y1="59.37" x2="75.1" y2="78.19"/><line class="cls-4" x1="75.24" y1="59.37" x2="54.99" y2="78.32"/><rect class="cls-4" x="99.06" y="59.37" width="20.52" height="19.08"/><line class="cls-5" x1="99.06" y1="59.37" x2="119.44" y2="78.19"/><line class="cls-5" x1="119.57" y1="59.37" x2="99.33" y2="78.32"/><rect class="cls-4" x="99.06" y="101.51" width="20.52" height="19.08"/><rect class="cls-4" x="54.72" y="100.58" width="20.52" height="19.08"/><line class="cls-4" x1="54.72" y1="100.58" x2="75.1" y2="119.41"/><line class="cls-4" x1="75.24" y1="100.58" x2="54.99" y2="119.53"/><path class="cls-6" d="M105.51,115.79a.59.59,0,0,1-.26-.07.45.45,0,0,1-.23-.38v-7.82a.45.45,0,0,1,.23-.39.52.52,0,0,1,.47,0l8.42,3.91a.43.43,0,0,1,0,.8l-8.42,3.92A.5.5,0,0,1,105.51,115.79Z"/><path class="cls-4" d="M155,121.73H129c-2.23,0-4,1.32-4,2.93V137.2c0,1.62,1.81,2.94,4,2.94h16l6.35,4.58a.44.44,0,0,0,.27.09.45.45,0,0,0,.16,0,.28.28,0,0,0,.23-.25v-4.39h3c2.19,0,3.91-1.29,3.91-2.94V124.67C158.91,123,157.2,121.73,155,121.73Z"/><ellipse class="cls-6" cx="133.59" cy="131.5" rx="1.6" ry="1.49"/><ellipse class="cls-6" cx="141.81" cy="131.5" rx="1.6" ry="1.49"/><ellipse class="cls-6" cx="150.26" cy="131.5" rx="1.6" ry="1.49"/><line class="cls-7" x1="125.2" y1="144.77" x2="137.52" y2="144.77"/><line class="cls-7" x1="125.2" y1="148.8" x2="137.52" y2="148.8"/><line class="cls-7" x1="125.2" y1="153.21" x2="131.46" y2="153.21"/><path class="cls-8" d="M5.55,159.56A15.78,15.78,0,0,1,8.81,154l0,0-2-3.86,3.67-2.78L14.07,150l0,0a18.17,18.17,0,0,1,6.52-1.82l1.5-4.05,4.7.45.58,4.24a18,18,0,0,1,6,3L37.46,150l3,3.42-2.82,3.37a15.42,15.42,0,0,1,2,6.06l4.34,1.38-.48,4.39-4.56.53a15.8,15.8,0,0,1-3.23,5.57l2,3.83L34,181.3l-3.62-2.62a18.21,18.21,0,0,1-6.53,1.81l-1.49,4-4.71-.45-.57-4.25a17.88,17.88,0,0,1-6-3L7,178.72,4,175.3l2.83-3.38a15.34,15.34,0,0,1-1.94-6L.5,164.48,1,160.1Z"/><path class="cls-8" d="M30.76,172.91a13.38,13.38,0,0,1-18-.44,11.23,11.23,0,0,1,.47-16.69"/><path class="cls-8" d="M33.51,169.4a11.49,11.49,0,0,1-1.22,1.89"/><path class="cls-8" d="M15.79,158.11a10.07,10.07,0,0,1,13.5.34A8.43,8.43,0,0,1,28.93,171"/><path class="cls-8" d="M13.73,160.75a9.76,9.76,0,0,1,.91-1.42"/><path class="cls-8" d="M27.24,160.56a6.81,6.81,0,0,0-9.1-.87,5.72,5.72,0,0,0-.93,8.45,6.8,6.8,0,0,0,9.09.88A5.74,5.74,0,0,0,27.24,160.56Z"/><polygon class="cls-2" points="149.1 30.65 137.85 51.48 145.08 60.56 152.78 60.56 160.02 51.7 149.1 30.65"/><path class="cls-2" d="M142.42,60.56h13a4.06,4.06,0,0,1,4.06,4.06v1a0,0,0,0,1,0,0H138.36a0,0,0,0,1,0,0v-1a4.06,4.06,0,0,1,4.06-4.06Z"/><ellipse class="cls-2" cx="148.93" cy="53.19" rx="3.1" ry="2.88"/><line class="cls-9" x1="148.93" y1="50.2" x2="148.93" y2="40.27"/><ellipse class="cls-10" cx="148.93" cy="37.97" rx="0.82" ry="0.77"/></svg>