<svg id="Layer_1" data-name="Layer 1" xmlns="http://www.w3.org/2000/svg" viewBox="0 0 206.42 191.69"><defs><style>.cls-1,.cls-10,.cls-6,.cls-8{fill:none;}.cls-1,.cls-2,.cls-6,.cls-7,.cls-8{stroke:#231f20;}.cls-1,.cls-10,.cls-2,.cls-6,.cls-7,.cls-8{stroke-miterlimit:10;}.cls-2,.cls-3{fill:#ffcd06;}.cls-10,.cls-3,.cls-4{stroke:#010101;}.cls-3,.cls-4{stroke-linejoin:round;}.cls-4,.cls-5,.cls-7{fill:#231f20;}.cls-6{stroke-width:2px;}.cls-10,.cls-8{stroke-linecap:round;}.cls-9{fill:#010101;}</style></defs><title>s8</title><circle class="cls-1" cx="99.25" cy="98.03" r="65.43"/><circle class="cls-1" cx="99.25" cy="98.03" r="93.16"/><path class="cls-2" d="M98.54,94.43a10.31,10.31,0,1,0-10.31-10.3A10.31,10.31,0,0,0,98.54,94.43Z"/><path class="cls-2" d="M121.17,126.64a1.18,1.18,0,0,0,0-.59L116.48,101a4.79,4.79,0,0,0-4.74-4H85.33a4.78,4.78,0,0,0-4.73,4l-4.73,25.1a1.18,1.18,0,0,0,0,.59,5.16,5.16,0,0,0-.05.67,4.81,4.81,0,0,0,9.54.84l3-18.64,0,59.48A4.81,4.81,0,1,0,98,169V139.55h1.15V169a4.82,4.82,0,0,0,9.63,0l0-59.48,3,18.67a4.81,4.81,0,0,0,9.54-.87A3.88,3.88,0,0,0,121.17,126.64Z"/><rect class="cls-3" x="31.3" y="122.27" width="21.85" height="14.18"/><polygon class="cls-3" points="42.23 122.31 53.22 122.31 47.72 117.38 42.23 112.44 36.74 117.38 31.24 122.31 42.23 122.31"/><polygon class="cls-4" points="42.24 122.31 53.09 122.31 47.66 127.24 42.24 132.17 36.81 127.24 31.39 122.31 42.24 122.31"/><polygon class="cls-3" points="42.19 136.37 52.96 136.37 47.58 131.44 42.19 126.51 36.81 131.44 31.43 136.37 42.19 136.37"/><path class="cls-2" d="M151.65,159.71a3.9,3.9,0,1,0-3.9-3.89A3.9,3.9,0,0,0,151.65,159.71Z"/><path class="cls-2" d="M160.2,171.89a.42.42,0,0,0,0-.22l-1.79-9.48a1.81,1.81,0,0,0-1.79-1.53h-10a1.81,1.81,0,0,0-1.79,1.52l-1.79,9.49a.42.42,0,0,0,0,.22,1.1,1.1,0,0,0,0,.25,1.82,1.82,0,0,0,3.61.32l1.12-7v22.49a1.82,1.82,0,1,0,3.64,0V176.77h.43v11.14a1.82,1.82,0,1,0,3.64,0V165.42l1.13,7.05a1.82,1.82,0,0,0,3.61-.33A1.13,1.13,0,0,0,160.2,171.89Z"/><path class="cls-2" d="M9.08,55.4a3.9,3.9,0,1,0-3.9-3.9A3.91,3.91,0,0,0,9.08,55.4Z"/><path class="cls-2" d="M17.64,67.58a.44.44,0,0,0,0-.23l-1.79-9.47a1.8,1.8,0,0,0-1.79-1.53h-10A1.8,1.8,0,0,0,2.3,57.86L.51,67.35a.44.44,0,0,0,0,.23,2.11,2.11,0,0,0,0,.25,1.82,1.82,0,0,0,3.61.32L5.24,61.1l0,22.49a1.82,1.82,0,0,0,3.64,0V72.46H9.3V83.59a1.82,1.82,0,0,0,3.64,0l0-22.49,1.13,7.06a1.82,1.82,0,0,0,3.61-.33A2.11,2.11,0,0,0,17.64,67.58Z"/><path class="cls-5" d="M59.89,18.93a9,9,0,0,0,4.55,1.37c2.51,0,3.68-1.25,3.68-2.82s-1-2.55-3.53-3.49c-3.41-1.22-5-3.1-5-5.38,0-3,2.48-5.56,6.55-5.56a9.44,9.44,0,0,1,4.67,1.17l-.86,2.51a7.41,7.41,0,0,0-3.88-1.1c-2,0-3.18,1.18-3.18,2.59,0,1.57,1.14,2.28,3.61,3.22,3.29,1.25,5,2.9,5,5.72,0,3.34-2.59,5.69-7.1,5.69A10.84,10.84,0,0,1,59,21.56Z"/><line class="cls-6" x1="65.24" x2="65.24" y2="25.9"/><path class="cls-2" d="M127.48,27.26,116.85,38.93l1.57,4.9,15.92,1.63S127.44,27.24,127.48,27.26Z"/><rect class="cls-7" x="112.05" y="39.78" width="5.73" height="5.05" transform="translate(-7.43 37.1) rotate(-17.77)"/><line class="cls-8" x1="143.63" y1="32.55" x2="147.79" y2="31.22"/><line class="cls-8" x1="144.47" y1="36.77" x2="148.98" y2="37.46"/><line class="cls-8" x1="142.36" y1="28.27" x2="145.62" y2="25.08"/><ellipse class="cls-2" cx="132.89" cy="35.37" rx="6.17" ry="10.34" transform="translate(-4.45 42.25) rotate(-17.77)"/><path class="cls-2" d="M202.68,64h-21.6c-1.85,0-3.35,1.18-3.35,2.62V77.8c0,1.45,1.5,2.63,3.35,2.63h13.26l5.27,4.09a.44.44,0,0,0,.22.07.3.3,0,0,0,.13,0,.26.26,0,0,0,.2-.23V80.43h2.52c1.82,0,3.24-1.16,3.24-2.63V66.61C205.92,65.14,204.51,64,202.68,64Z"/><circle class="cls-9" cx="184.91" cy="72.71" r="1.33"/><circle class="cls-9" cx="191.73" cy="72.71" r="1.33"/><circle class="cls-9" cx="198.75" cy="72.71" r="1.33"/><line class="cls-10" x1="177.95" y1="84.56" x2="188.17" y2="84.56"/><line class="cls-10" x1="177.95" y1="88.16" x2="188.17" y2="88.16"/><line class="cls-10" x1="177.95" y1="92.09" x2="183.14" y2="92.09"/></svg>