<svg xmlns="http://www.w3.org/2000/svg" viewBox="0 0 100 100"><defs><style>.cls-1{opacity:0.2;}.cls-2{fill:none;stroke:#000;stroke-linecap:round;stroke-linejoin:round;}</style></defs><title>icons</title><g id="Info"><path d="M34.31,39.93l3.47,4.39.76,1.15a36.52,36.52,0,0,0,3.09,3.94l.15-.92L39.71,50,36.8,52c-2.84,1.89-5.65,3.81-8.43,5.79-1.39,1-2.77,2-4.12,3a36.72,36.72,0,0,0-3.93,3.36,11.1,11.1,0,0,0-1.93,2,13.16,13.16,0,0,0-1.6,3.37,11.11,11.11,0,0,0-.59,5.21,8.2,8.2,0,0,0,2.25,4.57l.94.86c.33.25.67.48,1,.72l.51.36.56.29a10.86,10.86,0,0,0,1.13.57,11.12,11.12,0,0,0,5,.9,13.88,13.88,0,0,0,5.77-1.63,12,12,0,0,0,1.28-.76l.33-.23.27-.24.54-.49,2.26-2,3.29-2.86L54.73,63.3l.63-.51-.68-.1L56,64.84c1.69,2.76,3.43,5.22,5,7.6l.07-.59L59.89,73l-1.84,1.72-1.22,1.06c-.88.75-2.31,1.89-3.24,2.73-.66.61-1.3,1.28-1.94,1.89l-1.73,1.49C48.6,83,48,83.37,46.12,85.07c0,.1-.21.35-.31.51l-.34.3c-.63.46-1.33,1-1.95,1.37l-.78.8a60.62,60.62,0,0,0-5.63,4.19l-.76.49-.8.46A19.84,19.84,0,0,1,31.6,94.9c-.2,0-.39.11-.59.15a12.86,12.86,0,0,1-4.68,0l-.91,0c-.87-.1-2.32-.32-3.69-.57l-1.91-.4a9.77,9.77,0,0,0-1.32-.24l-.15-.06-1.44-.63c-1.63-1-3-1.79-4.43-2.74a23.58,23.58,0,0,1-2.08-1.77A21.74,21.74,0,0,1,4,76.62a7.85,7.85,0,0,1-.15-1.28,28.48,28.48,0,0,1,.06-3.19c.1-.68.16-1.26.2-1.81a22.52,22.52,0,0,1,3.08-7.71l.09-.11c.5-.56,1-1.14,1.49-1.69.08,0,0,.07.14,0l1.51-1.69c.56-.55,1.13-1.11,1.71-1.64.14-.13,0,.07.08.06,1-1.12,1.68-1.56,1.63-1.21.27-.32,1-1,1.35-1.4,1.05-.59,5.64-4.57,7.34-6.05l4.54-3.3c2.7-2,3.82-2.79,3.8-3.12l1.82-1.3.92-.64.46-.32.23-.16c.07,0,0,0,0-.08v-.27l0,0h0l0-.47a1.61,1.61,0,0,0-.42.23s0-.07,0-.13c-2.18,1.54-3.85,2.84-5.71,4.17a81.91,81.91,0,0,0-6.83,5l-2.25,1.78c-2.78,2.23-5.51,4.56-8.13,7-.69.65-1.45,1.34-2.15,2.09-.35.37-.71.72-1,1.1s-.62.77-.89,1.14l-.37.52a18.77,18.77,0,0,0-2.39,4.7L3.69,68,3.4,69.32A19.13,19.13,0,0,0,3,71.93c-.06.76-.08,1.53-.09,2.29,0,.23,0,.46,0,.67,0,.39,0,.76,0,1.12s.06.7.09,1a11.67,11.67,0,0,0,.32,2,18.46,18.46,0,0,0,1.78,4.67A24.86,24.86,0,0,0,9.36,89.6a22.92,22.92,0,0,0,6.07,4.3,23.83,23.83,0,0,0,14.1,2.4,19.58,19.58,0,0,0,5-1.53,29.84,29.84,0,0,0,6.3-4c2-1.52,3.87-3.1,5.75-4.71a16.88,16.88,0,0,0,1.84-1.54c.7.18,6.9-5.49,8.8-7.45.07-.11-.05,0,0-.14l4.55-4.32a.52.52,0,0,0,.08-.66c-1.17-1.77-2.22-3.42-2.67-4.26-.64-.77-1.33-1.74-1.89-2.39l-2-3a.34.34,0,0,0-.48-.1l0,0-.09.08c-1,.67-1.81,1-3,1.94-.47,1-3.23,3.34-4.82,4.7L44,71.35c-.09,0-.15.06-.16,0-1,.77-1.81,1.55-2.73,2.36a.79.79,0,0,1,.12-.16,11.84,11.84,0,0,0-2.67,2.64l-.81.7L35.63,78.5l-1,.8-.27.22-.25.16c-.2.12-.4.24-.63.36a13.28,13.28,0,0,1-6.26,1.81c-.64,0-1.16-.08-1.63-.09l-1.26-.23a13.11,13.11,0,0,1-4.62-2.45A7.2,7.2,0,0,1,17,74.75,9.15,9.15,0,0,1,17.1,72a12.48,12.48,0,0,1,.79-2.61,15.17,15.17,0,0,1,3.23-4.76c1.45-1.46,3.82-3.15,5.25-4.41l.06-.05c5.16-3.79,10.5-7.35,15.87-10.84a.36.36,0,0,0,.11-.48l0,0c-2.62-3.24-5.3-6.46-8-9.64ZM13.1,56.51c.65-.58,1.28-1.17,1.94-1.72l.08,0C14.43,55.32,13.78,55.92,13.1,56.51Zm7-5.8h0l.19-.13Z"/><line class="cls-2" x1="26.67" y1="45.47" x2="33.18" y2="54.33"/><line class="cls-2" x1="47.53" y1="69.62" x2="54.34" y2="79.08"/><path d="M34.56,79.59l-1.19.34-.32-.05a4.42,4.42,0,0,0-1.6.39l-.73.23a10.36,10.36,0,0,1-4.27-.27c-.16-.12-.26-.31-.44-.4s-.47-.07-.73-.15a4.32,4.32,0,0,1-.87-.56,7.09,7.09,0,0,1-.61-.77c-.18-.27-.31-.57-.48-.82a5.54,5.54,0,0,0-.51-.82,5.41,5.41,0,0,1-.94-2.21,6.7,6.7,0,0,1-.11-.9,7.34,7.34,0,0,1,.13-1.82A14.26,14.26,0,0,1,22.45,70c.13-.21.25-.42.38-.61.44-.7.66-1.43,1-2.08l.3-.45a3,3,0,0,1,.24-.26c.15-.14.42-.34.58-.49l-.12.11a.62.62,0,0,0,.12-.08c.16-.12.28-.3.43-.43s.29-.17.43-.27a2.36,2.36,0,0,0,1-.53.54.54,0,0,1,0-.22l.07-.07c.18,0,.37-.1.55-.13s.09-.16.13-.24a1.91,1.91,0,0,0,1.32-.85,2.25,2.25,0,0,0,.35-.22,3.9,3.9,0,0,0,.68-.74l.11-.08A1.8,1.8,0,0,1,31.07,62c0-.07.07-.14.11-.2.41-.12,1.12-.73,1.15-1.12l0,0,.31-.17a1.62,1.62,0,0,0,1-.56,3.87,3.87,0,0,0,.51-.35l2.51-1.89.24-.17a4.94,4.94,0,0,0,.64-.35,1.73,1.73,0,0,0,.31-.28,7.61,7.61,0,0,0,1.48-1.2h0l.45-.25s0,.07.08.08a5.15,5.15,0,0,1,.8-.65s0,.07.06.08c.21-.29.4-.32.49-.09,0-.1.21-.27.26-.38.21.05.62-.23,1-.56l.12-.1a.65.65,0,0,0,.21-.61,6.31,6.31,0,0,0-.25-1c0-.42,0-.83,0-1.24,0-.74-.08-1-.36-1.06l-.08-1L42,49v0l-.05,0-.47,0v.06h-.1c.07.58.18,1,.2,1.55a5.07,5.07,0,0,0,0,1.86c0,.19,0,.4,0,.63l0,.19.2-.45c-.59.42-1.17.85-1.77,1.25a5.73,5.73,0,0,0-1.06.74.94.94,0,0,0-.09.12c-.61.44-1.21.91-1.81,1.39l-.4.29-.16,0a3.59,3.59,0,0,0-1.79.87c-1.63,1.24-3.67,2.23-5,3.72l-.8.84L26.24,64a.93.93,0,0,0-.45.28c-.3-.3-1.15.26-1.75.75l-.09.08-.05,0a3.46,3.46,0,0,0-.38.63s.06,0,.07.08c-.4.54-1,1.83-1.4,2.16,0,.25-.08.52-.06.74s-.24.5-.34.76a2.61,2.61,0,0,0-.75.59c.3.35.07,1.13,0,1.61,0,.22-.15.56-.16.89a.13.13,0,0,1-.08,0,2.69,2.69,0,0,0,0,.85l-.05,0c0,.42.07.75.33.84l0,.24a3,3,0,0,0,0,1.29,6,6,0,0,0,.75,1.44,3.36,3.36,0,0,0,.42.56,12.54,12.54,0,0,0,.73,1c.3.3.6.59.91.87a4.62,4.62,0,0,0,1.07.82,8.9,8.9,0,0,0,1.29.52,3.29,3.29,0,0,0,1.59.22h0a17,17,0,0,0,7-1ZM41,54.65l.47-.33h0ZM42.62,53h0v0Z"/><path d="M36.18,57.44l-.06-.08.09-.1c.14-.17,0-.1-.12-.09H36l-.23-.29a1.17,1.17,0,0,0,.14-.17s-.12,0-.17.05c-.22,0,.22-.47,0-.42s-.28,0-.34,0l-.06-.05-.2-.25a1.17,1.17,0,0,1,.05-.11c0-.13-.13-.07-.2-.1l0,0a.11.11,0,0,1,0-.05s.11-.15.09-.16-.09,0-.12,0a0,0,0,0,0,0,0c0-.06.12-.14,0-.14l-.15.11h0l.13-.16-.11.06c.16-.17.18-.25,0-.14,0,0,0,0,0,0s-.14,0-.22.07h0c0-.07,0-.11.23-.29l-.08,0c.09-.11,0-.11-.29.06h0v-.06c.15-.16.14-.19.06-.16a.05.05,0,0,0,0,0,1.83,1.83,0,0,1-.24-.13l0,0s0-.08,0-.1,0,0-.06,0-.06-.1-.2,0h0l0-.07.08-.06c-.05,0-.11,0-.11,0l.08-.06c-.11,0,0,0,.14-.15l-.15.07c.21-.19,0-.16-.16-.1a.25.25,0,0,0,0-.14c0-.07-.05-.07-.27.1l0-.06-.21.16h0l0,0-.38.29h0l-.08.06s.13,0,.14,0-.07.19,0,.2l0,0c0,.05.1.09.12.15s0,.12.06.09l0,0a.4.4,0,0,0,.2.08l0,0,0,0c-.21.24-.23.29-.16.33s0,.45.44.31l.24-.07.16.21s0,.07,0,.06c-.44.35-.24.39-.11.35l.08-.07c.05,0,.21.05.1.19l.24-.12,0,.05c-.11.12-.29.27-.35.35.34-.24.38-.19.4-.15s0,.06,0,.09l-.06,0s0,0,0,.06l0,0c0,.06.06,0,.25-.11v0c-.06.09-.18.22-.16.25s.16,0,.22,0l.11,0,.13.15c-.09.16,0,.17,0,.23s0,.11.16,0h0l.35.45Zm-2.35-3,0,0,0,0Zm0-.19h0Z"/><path d="M41.68,50.17c0-.45-.65-.82-1-.41l-.81,1a59.78,59.78,0,0,0-6.36,4.49.38.38,0,0,0-.14.22,1.2,1.2,0,0,0-.91.32c-.19.18-.39.34-.58.51l-.18.13a.85.85,0,0,0-.22.13c-.15.15-.33.27-.49.41a.56.56,0,0,0-.76,0,1.38,1.38,0,0,0-.47.81,3.76,3.76,0,0,0-1.27.94,37,37,0,0,0-4.17,3,1.18,1.18,0,0,0-1.16.23c-4.25,3.45-10.66,10.38-5.42,15.67.09.21.19.43.31.65a1.09,1.09,0,0,0,1.29.49,6.25,6.25,0,0,0,1.42,1.73,1.2,1.2,0,0,0,1.15.22l.3.31a.59.59,0,0,0-.06,1.13,11.88,11.88,0,0,0,2.53.48.66.66,0,0,0,.15,0H25A12.29,12.29,0,0,0,28,82.48a.49.49,0,0,0,.34-.21l.93-.14C30,82,29.72,80.9,29,81s-1.36.22-2,.3a1.07,1.07,0,0,0-1.08-1c-2.54,0-4-4.22-5-6.63A1.23,1.23,0,0,0,21,72.31a1.27,1.27,0,0,0,.18-.27c2.36-6.63,9.25-9.55,14.2-14a1,1,0,0,0,.28-.41h0c.14-.16.27-.33.41-.48a19.1,19.1,0,0,0,2.16-1.71,4.45,4.45,0,0,0,1.12-.95c.15-.1.29-.2.44-.28a6.9,6.9,0,0,0,1.53-.78C42.1,52.74,41.7,51.09,41.68,50.17Z"/><path d="M51.72,10.31c5.36-1,9.62.67,13.29,3.32,1.25.9,1.26,1.12.23,2.26A16.8,16.8,0,0,1,47,20.41c-2.77-1.06-3.19-2-1.61-4.21S49.19,10.93,51.72,10.31ZM61,13c-.87,2.22-1.51,4.31-4.22,5a5.42,5.42,0,0,1-6.14-2l-5,3c5.4,3.44,16.79.77,19.48-4.52Zm.9-.33c-7-3.86-12.47-1.29-16.28,4.57C50.64,14.65,55.41,11.45,61.86,12.63Zm-10.4,3.15c.67,1.62,2.67,2.31,5,1.72a4.14,4.14,0,0,0,3.35-4.25c-1.33-.17-1.33-.17-1.81.93a3.48,3.48,0,0,1-4.81,1.41C52.5,15.17,52,15.14,51.46,15.78Z"/><path d="M96.08,42.3c2,4.14,2.38,7.77,1,11.36-.45,1.21-.63,1.27-1.79.68a14.2,14.2,0,0,1-7.74-13.89c.25-2.5.9-3.05,3.07-2.25A9.8,9.8,0,0,1,96.08,42.3Zm.68,7.9c-2-.22-3.85-.27-5-2.33A4.59,4.59,0,0,1,92,42.42l-3.57-3.36c-1.6,5.16,3.11,13.86,8,14.88Zm.47.66c1.32-5.38-3.53-11-7.34-12.25C93.09,42.16,96.76,45.34,97.23,50.86Zm-4.87-7.77c-1.18.9-1.3,2.69-.3,4.44a3.5,3.5,0,0,0,4.21,1.79c-.16-1.12-.16-1.12-1.16-1.27a2.93,2.93,0,0,1-2.22-3.61C93.08,43.79,93,43.37,92.36,43.09Z"/><path d="M87.86,13.64C92.24,16.9,94.58,20.53,95.1,25c.18,1.53,0,1.68-1.52,1.69A16.79,16.79,0,0,1,77.91,16.3c-1.09-2.77-.7-3.69,2-4C82.81,11.9,85.7,12.18,87.86,13.64Zm5,7.94c-2.22.86-4.2,1.81-6.54.27A5.42,5.42,0,0,1,83.64,16l-5.57-1.61c1.11,6.3,10.78,12.9,16.5,11.31Zm.85.45c-1.53-6.38-9.69-9.7-14.36-8.92C84.64,15.12,90.23,16.48,93.71,22Zm-9.34-5.54c-.75,1.59.09,3.53,2.09,4.84a4.14,4.14,0,0,0,5.4-.4c-.77-1.1-.77-1.1-1.9-.71a3.48,3.48,0,0,1-4.3-2.59C85.52,16.84,85.19,16.44,84.37,16.49Z"/><path d="M71.42,31.56c3.6.66,6.08,2.16,7.73,4.7.56.87.52,1-.41,1.47a11.27,11.27,0,0,1-12.51-1.62c-1.48-1.34-1.52-2,0-3A7.86,7.86,0,0,1,71.42,31.56Zm5.36,3.3c-1.08,1.17-2,2.33-3.85,2.1a3.64,3.64,0,0,1-3.35-2.74l-3.83.69c2.54,3.45,10.31,4.55,13.28,1.9Zm.65,0c-2.81-3.38-8.71-2.95-11.28-1.1C69.92,33.41,73.69,32.57,77.43,34.87Zm-7.26-.56c0,1.18,1.1,2.1,2.69,2.29A2.78,2.78,0,0,0,76,34.76c-.79-.43-.79-.43-1.36.14a2.33,2.33,0,0,1-3.35-.29C71,34.18,70.65,34,70.17,34.31Z"/><path d="M46,46l.63-.63.25-.06c.43-.13.58-.52.82-.88L48,44l2.25-2.26a1.19,1.19,0,0,0,.46-.15c.16-.13.16-.34.28-.51.63-.9,1.74-1.11,2.3-2a9.23,9.23,0,0,1,1.1-1.47c.15-.17.31-.33.47-.5l1.94-2,.44-.3a6,6,0,0,0,1.12-1.27l.28-.28a1,1,0,0,1,.21-.15,3.53,3.53,0,0,0,.59-.35c.09-.11.14-.26.22-.38a3.23,3.23,0,0,0,.27-.23c.24-.14.4-.14.62-.47-.05-.06,0-.13-.06-.2l0-.05a2.77,2.77,0,0,1,.41-.12l0-.21a1,1,0,0,0,.83-.74,1.37,1.37,0,0,0,.22-.2,2.08,2.08,0,0,0,.34-.64l.07-.07a1.1,1.1,0,0,1,.79-.28l0-.17a1.06,1.06,0,0,0,.61-1s0,0,0,0l.21-.14a.87.87,0,0,0,.69-.5,2.24,2.24,0,0,0,.32-.3c.48-.54,1-1.1,1.5-1.66l.14-.15a1.83,1.83,0,0,0,.42-.31.89.89,0,0,0,.17-.24,3.7,3.7,0,0,0,.86-1v0l.3-.21s0,.05.08.06A2.79,2.79,0,0,1,69,23s.06.07.07.07c.09-.25.23-.28.37-.08,0-.09.09-.23.1-.33.33.06.87-.74,1-1.11a7.25,7.25,0,0,0,.7-.54c.38-.36.52-.53.34-.75l.49-.49-.19-.19h0l0,0-.33-.33,0,0-.07-.08a9,9,0,0,1-.72.84,2.82,2.82,0,0,0-1,.84l-.31.32c-.4.39-.77.81-1.18,1.19a2.51,2.51,0,0,0-.65.65.42.42,0,0,0,0,.1c-.37.39-.72.79-1.07,1.22l-.24.25-.12,0a1.93,1.93,0,0,0-1.21.76c-1,1.08-2.34,2-3,3.26-.13.26-.27.5-.4.73L59.83,31a.51.51,0,0,0-.28.24c-.45-.35-1.27.67-1.48,1.07,0,0,0,0,.06.08-.31.34-.93,1.13-1.27,1.23,0,.18-.13.35-.15.52l-.41.41a2.31,2.31,0,0,0-.74,0c.19.39-.21.8-.45,1s-.3.23-.46.38a.09.09,0,0,1-.07,0,1.69,1.69,0,0,0-.4.4s0,0,0-.06c-.23.17-.33.38-.23.6l-.11.12a2.32,2.32,0,0,0-.8.4,7.12,7.12,0,0,0-.63.89,2.07,2.07,0,0,0-.26.41l-1.2,1.2a6.29,6.29,0,0,0-1.36,1.23,2.35,2.35,0,0,0-.7.84h0l-3.47,3.49ZM69.11,22.74l.29-.29h0Zm1.08-.95h0l0,0Z"/><path d="M84.88,52.55l-.52.19-.17-.08c-.31-.11-.47.12-.69.29l-.3.21-1.86.67c-.11,0-.22-.14-.32-.12s-.16.19-.27.27c-.57.4-1.33,0-1.85.44a4.24,4.24,0,0,1-1,.63l-.4.15-1.61.59h-.34c-.39,0-.65.3-1,.45l-.23.08-.16,0a1.1,1.1,0,0,0-.44,0c-.08,0-.14.14-.21.19l-.22,0c-.18,0-.28-.09-.49.06a.62.62,0,0,1,0,.19l0,0c-.09,0-.19-.06-.29-.11l-.06.15a.43.43,0,0,0-.66.17.61.61,0,0,0-.18.05c-.15.06-.23.22-.34.35l0,0a.63.63,0,0,1-.56-.19l-.06.13a.51.51,0,0,0-.57.47H69.9a.38.38,0,0,0-.53,0,1.29,1.29,0,0,0-.26.08c-.41.19-.83.39-1.27.57l-.12,0a.85.85,0,0,0-.32,0,.5.5,0,0,0-.16.11,1.48,1.48,0,0,0-.74.41h0l-.23,0s0-.07,0-.1a1,1,0,0,1-.41.22s0-.08,0-.09c-.1.16-.2.11-.26-.13,0,.08-.1.14-.12.22-.2-.22-.7.15-.85.38a2.52,2.52,0,0,0-.55.08c-.32.09-.43.16-.35.43l-.41.14.09.25h0l0,0,.16.45h0l0,.09a5.69,5.69,0,0,1,.61-.3,1.13,1.13,0,0,0,.82-.16l.26-.09c.32-.12.64-.26,1-.36s.4,0,.54-.19a.21.21,0,0,0,0-.06,6.91,6.91,0,0,0,.91-.44l.2-.07.08,0a.89.89,0,0,0,.93,0c.82-.38,1.87-.38,2.54-1.08l.39-.38,1.35-.49a.21.21,0,0,0,.23-.05c.23.51.95.11,1.16-.1a.29.29,0,0,1,0-.1c.26-.11.8-.43,1-.33.06-.14.15-.23.19-.36l.34-.12c.16.12.32.31.49.35-.05-.42.28-.54.47-.6s.24,0,.37-.08a.16.16,0,0,1,0,.07.77.77,0,0,0,.33-.12.11.11,0,0,1,0,.05c.19,0,.29-.13.26-.37l.1,0c.21.05.39.16.59.1s.37-.29.56-.4a1,1,0,0,0,.24-.2l1-.36a2.57,2.57,0,0,0,1.11-.28c.19-.07.47-.11.59-.33h0l2.87-1ZM65.72,59.47l-.24.08,0,0Zm-.87.21Z"/><path d="M50,59.63l.44-.39h.19c.34,0,.41-.31.56-.56l.21-.31L52.91,57c.12,0,.27,0,.35,0s.09-.25.17-.36c.4-.62,1.28-.55,1.63-1.17a3.93,3.93,0,0,1,.7-1l.33-.31,1.34-1.21.32-.15c.37-.18.52-.55.76-.82l.19-.17a.53.53,0,0,1,.15-.08,1.23,1.23,0,0,0,.43-.16c.07-.07.09-.19.14-.27l.19-.13c.18-.07.31,0,.45-.26-.05-.06-.05-.12-.08-.17l0,0c.1,0,.21,0,.32,0v-.17a.47.47,0,0,0,.58-.44.42.42,0,0,0,.16-.11,1,1,0,0,0,.19-.46l.05,0a.69.69,0,0,1,.61-.06v-.13a.55.55,0,0,0,.38-.69h0l.15-.08a.41.41,0,0,0,.5-.26,1.24,1.24,0,0,0,.22-.18c.33-.35.66-.71,1-1.06l.1-.09a1.17,1.17,0,0,0,.31-.17.57.57,0,0,0,.11-.16,1.56,1.56,0,0,0,.56-.69h0l.21-.11s0,.06.08.07a1,1,0,0,1,.31-.37s0,.07.06.07c0-.18.16-.18.3,0a1.87,1.87,0,0,1,0-.25c.27.12.61-.44.68-.71a3.15,3.15,0,0,0,.5-.3c.27-.21.36-.33.19-.55l.34-.3-.18-.2h0l0,0-.32-.35,0,0-.06-.08a5.36,5.36,0,0,1-.48.54,1.22,1.22,0,0,0-.73.48L66,44c-.27.24-.52.5-.81.73s-.37.21-.45.4a.19.19,0,0,0,0,.08A6.66,6.66,0,0,0,64,46l-.18.15h-.08a1,1,0,0,0-.9.37c-.65.69-1.66,1.12-2.06,2.06l-.24.52-1.13,1c-.09,0-.17,0-.2.15-.41-.39-.95.28-1.08.56l.07.08c-.21.22-.62.74-.89.74,0,.15-.06.27,0,.41l-.28.25a2.28,2.28,0,0,0-.6-.12.59.59,0,0,1-.24.76c-.07.06-.21.13-.33.22l-.06,0a.78.78,0,0,0-.27.24.05.05,0,0,1,0,0c-.17.08-.22.24-.11.45l-.08.07c-.22.05-.44,0-.61.16s-.25.42-.39.6a1.14,1.14,0,0,0-.17.29l-.82.74a2.7,2.7,0,0,0-1,.72c-.16.14-.42.3-.46.55h0l-2.4,2.15Zm16-14.35.2-.18h0Zm.76-.56h0Z"/><path d="M41.11,38l.1-.3a.37.37,0,0,0,.15,0c.25-.06.14-.24.11-.41l0-.22L41.81,36c.09,0,.22,0,.25-.07s-.07-.16-.08-.24c0-.43.66-.53.55-1a1.49,1.49,0,0,1,0-.69l.07-.24.32-.92.15-.14c.18-.16.08-.4.1-.6l0-.13a.15.15,0,0,1,.07-.07c.06,0,.21-.1.23-.16s0-.13-.06-.18a.23.23,0,0,0,.07-.11c.1-.07.22-.07.2-.22l-.17-.09v0l.24-.06-.1-.1c.25,0,.37-.16.19-.34a.21.21,0,0,0,.06-.1c0-.09-.07-.2-.13-.3v0a.46.46,0,0,1,.43-.13L44.15,30c.16,0,.15-.3-.12-.45h0l.07-.07c.24,0,.28-.11.23-.23a.39.39,0,0,0,.06-.15c.05-.25.09-.51.16-.78l0-.07c.06,0,.12-.08.13-.14a.17.17,0,0,0,0-.12.52.52,0,0,0,0-.49h0l.09-.1.1,0c0-.09,0-.19,0-.26s.08,0,.1,0,0-.13.23,0c-.05,0-.07-.11-.12-.16.28,0,.22-.35.11-.52a.92.92,0,0,0,.2-.25c.09-.17.09-.25-.17-.35l.08-.24-.25-.08h-.05l-.44-.15h0l-.09,0c0,.14,0,.28,0,.39a.42.42,0,0,0-.28.4.88.88,0,0,1-.05.15,5.22,5.22,0,0,1-.18.56c0,.1-.17.18-.11.31s0,0,0,0a2.26,2.26,0,0,0-.09.58l0,.11-.07,0c-.35.06-.42.14-.46.36-.1.51-.62.92-.37,1.53,0,.13.08.24.12.35l-.26.77c-.07,0-.11.06-.08.12-.54-.17-.56.31-.49.5l.1,0c0,.16,0,.53-.24.57a2.43,2.43,0,0,0,.2.25l-.07.19a2.16,2.16,0,0,0-.53,0c.37.18.31.37.26.48s-.08.11-.12.18h-.07c-.07.05,0,.12-.07.18l0,0c-.08.08,0,.18.18.28v.06c-.14.06-.33.08-.37.19s0,.28,0,.41a.33.33,0,0,0,0,.2l-.19.56c-.24.15-.24.36-.32.58s-.14.24,0,.39h0l-.57,1.64Zm3.78-11,0-.13h0Zm.25-.44Z"/><path d="M85.12,28.32l-.09.09-.11-.07c-.19-.11-.11,0-.1.14l0,.13-.32.32a1.42,1.42,0,0,0-.2-.12s.05.13.06.17c0,.24-.53-.11-.46.15s0,.29,0,.37l-.06.08-.28.28-.12,0c-.14,0-.07.16-.1.24l0,0h0c-.06,0-.17-.07-.19-.05s0,.09,0,.12h-.06c-.08,0-.17-.09-.16,0l.13.14v0l-.18-.11.07.1c-.19-.13-.28-.13-.15.07h-.05s.05.14.08.22h0c-.07,0-.12,0-.33-.18l.06.09c-.13-.07-.13.06.06.29h-.06c-.18-.12-.21-.1-.18,0s0,0,0,0a2.8,2.8,0,0,1-.15.3l0,0s-.09,0-.11,0a0,0,0,0,0,0,.06c-.06,0-.11.09-.05.23h-.08l-.07-.08c0,.06,0,.12,0,.12l-.07-.06c.06.1,0,.05-.18-.12,0,.05,0,.09.09.14-.22-.17-.18.06-.11.2a.4.4,0,0,0-.16,0c-.07,0-.07.08.12.28L81.4,32l.19.19h0l0,0,.33.33h0l.07.07c0-.06,0-.14,0-.17s.21,0,.22,0l0,0a.65.65,0,0,1,.16-.17s.13,0,.1-.09l0,0a.67.67,0,0,0,.09-.24l0,0,.05,0c.27.17.33.17.37.09s.5-.11.34-.55c0-.09-.06-.17-.08-.25l.23-.23s.08,0,.06,0c.4.39.44.16.39,0L84,30.86c0-.05,0-.24.21-.14-.06-.1-.08-.15-.14-.24l.05-.06a4.13,4.13,0,0,0,.41.29c-.28-.3-.22-.36-.18-.39s.07,0,.1,0l0,.05s0,0,.06-.05l0,0c.06,0,0-.07-.13-.24l0,0c.1.05.24.15.28.12s0-.18,0-.24a.19.19,0,0,0,0-.12l.17-.17c.18.06.19,0,.26-.11s.12,0,0-.17h0l.5-.49Zm-3.29,3.29,0,0,0,0Zm-.21.07Z"/><path d="M72.7,67h-.19s0-.09,0-.14c-.09-.21-.17,0-.26,0l-.12.1h-.67c0-.09,0-.21-.09-.22s-.07.12-.11.16c-.23.18-.43-.46-.65-.22a.72.72,0,0,1-.38.26l-.14,0h-.59l-.11-.1c-.12-.12-.24.06-.35.1h-.09a.23.23,0,0,1,0,0s-.1-.17-.14-.16-.06.08-.09.11a.11.11,0,0,0-.07,0c-.06-.07-.08-.19-.17-.11a1,1,0,0,1,0,.18h0l-.08-.21a.93.93,0,0,1,0,.13c-.06-.23-.16-.3-.23-.07l-.06,0c-.06,0-.1.13-.15.22h0a.56.56,0,0,1-.16-.37l0,.1c-.06-.14-.2,0-.24.26h0l0,0c-.07-.22-.12-.23-.18-.14a.1.1,0,0,0-.09,0l-.47.11h0s-.07-.09-.11-.08,0,0-.06,0a.23.23,0,0,0-.28.13h0L66,66.93v-.11c0,.05-.11.1-.16.07v-.1c0,.12-.07,0-.07-.2a1.66,1.66,0,0,1-.06.16c0-.28-.24-.09-.31.06a.5.5,0,0,0-.19-.1c-.11,0-.16,0-.16.28h-.15v.26h0v.52h0v.1c.08,0,.15-.1.23-.08s.18.17.28.13h.09a2.08,2.08,0,0,1,.35,0c.07,0,.14.1.2,0s0,0,0,0a.88.88,0,0,0,.34-.1h.07l0,.06c.1.31.16.35.29.32.31-.08.64.28.94-.15a2.29,2.29,0,0,1,.17-.23h.49s0,.08.07,0c0,.56.29.43.38.3V68c.09,0,.3-.14.37,0,0-.11.07-.17.1-.27h.12a3.19,3.19,0,0,0,.12.49c0-.41.15-.41.22-.41a.81.81,0,0,0,.13.06V68S70,68,70,68v0c.06,0,.11,0,.13-.26h0c.06.11.11.28.18.29s.15-.15.23-.19a.32.32,0,0,0,.1-.1H71c.14.17.25.1.39.1s.17.06.23-.09h1Zm-6.92,0h-.09v0Zm-.31-.1h0Z"/><path d="M82.66,66.51h-.11l0-.13c0-.21-.09,0-.15,0l-.06.09h-.39a1.23,1.23,0,0,0,0-.22s0,.13-.07.16c-.13.19-.24-.45-.37-.22s-.14.25-.22.27h-.42l-.06-.1c-.07-.11-.14.06-.21.1h0l0,0s-.06-.17-.08-.17,0,.09-.06.11l0,0c0-.07,0-.18-.09-.11a1.34,1.34,0,0,0,0,.19h0l0-.21,0,.12c0-.22-.09-.29-.13-.06,0,0,0,0,0,0s-.06.13-.08.21h0a.76.76,0,0,1-.09-.36.3.3,0,0,1,0,.1c0-.14-.11,0-.13.25h0l0,0c0-.21-.06-.22-.1-.14a0,0,0,0,0,0,0,1.53,1.53,0,0,1-.27.11h0s0-.08-.06-.08a.11.11,0,0,0,0,0c-.06,0-.12,0-.17.13h0l0-.06v-.1s0,.1-.08.07,0-.09,0-.1,0,0,0-.21c0,.06,0,.1,0,.16,0-.27-.14-.09-.18.07a.38.38,0,0,0-.11-.11c-.06,0-.09,0-.09.28h-.09v.27h0v.52h0v.1s.09-.09.13-.08c0,.17.11.17.16.13h.06a.45.45,0,0,1,.2,0s.08.09.11,0v0a.4.4,0,0,0,.2-.11h0v.06c.06.31.1.36.17.32s.37.29.54-.15a2.29,2.29,0,0,0,.1-.23h.28c0,.06,0,.08,0,0,0,.57.16.44.22.31v-.11s.17-.13.21,0c0-.11,0-.16.06-.27h.07a4.29,4.29,0,0,0,.07.5c0-.41.08-.42.12-.41s0,.05.08.06v.07s0,0,.07,0v0s.07,0,.08-.27h0c0,.12.06.28.1.29s.09-.14.13-.18a.36.36,0,0,0,.06-.11h.2c.08.18.14.11.22.11s.1.06.14-.1h.6Zm-4,0h0v0Zm-.17-.09Z"/><path d="M7.61,79.92l-.15-.43a.64.64,0,0,0,.08-.14c.14-.27-.09-.38-.23-.57l-.16-.25a12.32,12.32,0,0,1-.35-1.6c.07-.09.18-.17.18-.25s-.14-.16-.19-.26c-.24-.55.34-1.07.11-1.57a2,2,0,0,1-.27-.94v-.35a13.37,13.37,0,0,1,.11-1.42l.12-.26a1.76,1.76,0,0,0,0-.88l0-.2A.34.34,0,0,1,7,70.68c.06-.09.22-.21.24-.3s0-.16-.06-.24A.61.61,0,0,0,7.25,70c.1-.12.23-.14.2-.36a.91.91,0,0,1-.17-.09v0a1.46,1.46,0,0,1,.25-.13l-.09-.12c.26-.08.4-.29.23-.52a.35.35,0,0,0,.06-.14.9.9,0,0,0-.09-.41v0a.55.55,0,0,1,.48-.23l-.06-.11c.18-.08.21-.43,0-.63h0l.09-.1c.26-.06.33-.17.31-.33a.64.64,0,0,0,.11-.2,6.33,6.33,0,0,1,.44-1l.05-.09a.74.74,0,0,0,.21-.18.45.45,0,0,0,0-.16,1,1,0,0,0,.28-.63h0l.16-.12s0,0,.08.06A.69.69,0,0,1,10,64s.06.05.08.06c0-.16.09-.16.26,0,0-.06,0-.15,0-.21.27.1.44-.37.44-.61a3.78,3.78,0,0,0,.4-.22c.21-.16.27-.25.09-.47l.27-.24-.17-.21h0l0,0-.3-.37,0,0-.05-.08a3.92,3.92,0,0,1-.4.47.81.81,0,0,0-.62.4l-.16.19-.6.7c-.11.13-.29.23-.31.41,0,0,0,0,0,.07a3.12,3.12,0,0,0-.41.79l-.1.16-.08,0a.73.73,0,0,0-.67.5A7.28,7.28,0,0,1,7,66.43a2.12,2.12,0,0,0-.25,1.21c0,.18,0,.33.07.49-.11.4-.26.8-.35,1.2-.07,0-.11.11-.08.19-.55-.1-.6.64-.52.89l.11,0c0,.25,0,.8-.2.94a3.3,3.3,0,0,0,.22.3L6,72c-.18.08-.42.12-.52.24a.48.48,0,0,1,.34.61c0,.08-.06.2-.07.32H5.64a.54.54,0,0,0,0,.31l0,0c-.06.15,0,.28.25.33v.09c-.11.15-.29.27-.3.45s.16.4.21.59a.58.58,0,0,0,.11.25,9.07,9.07,0,0,0,.06.91,1.7,1.7,0,0,0,0,1c0,.18,0,.44.2.57h0a14.53,14.53,0,0,0,.75,2.57ZM10,63.83l.13-.15h0Zm.55-.48h0Z"/></g></svg>