<svg xmlns="http://www.w3.org/2000/svg" viewBox="0 0 100 100"><defs><style>.cls-1{opacity:0.2;}.cls-2,.cls-3{fill:none;stroke:#000;stroke-linejoin:round;stroke-width:0.75px;}.cls-3{stroke-linecap:round;}</style></defs><title>icons</title><g id="Info"><path class="cls-2" d="M91.69,67.07a8.56,8.56,0,1,1-9.43-7.61A8.57,8.57,0,0,1,91.69,67.07Z"/><circle class="cls-2" cx="81.15" cy="41.89" r="12.13" transform="translate(-2.51 5.27) rotate(-3.66)"/><path class="cls-2" d="M67.6,15.09a6.42,6.42,0,1,0,7.07,5.7A6.41,6.41,0,0,0,67.6,15.09Z"/><path class="cls-3" d="M71.35,23.3c.08.74-.36,2.2-2.61,2.44s-3-1.09-3.07-1.83"/><path d="M65.88,18.86h0a.72.72,0,0,1,.79.64.72.72,0,1,1-.8-.64Z"/><path d="M70.3,19.82a.71.71,0,0,1-.79-.63.69.69,0,0,1,.62-.78h0a.71.71,0,0,1,.15,1.41Z"/><path d="M82.24,35.31a12.12,12.12,0,0,1-2,4.21A4.18,4.18,0,0,1,78,41.1l-.14-1.32-3.65.39.71,6.59,3.64-.39-.14-1.32,1.22-.13,1.35,2.15,5.7-.61c1.07-1.45.65-6.36-.71-7.55l-2.05.22-.43-4-1.21.13Z"/><path d="M82.45,35.56c.35,0,.67,0,1-.05h0l-.38-.3q0,.11-.06.24a3.87,3.87,0,0,0,.2,1.57l.15.72.15,1.42a.33.33,0,0,0,.36.29L86,39.24l-.25-.08.19.21.17.26a3.09,3.09,0,0,0,.07.52c.08.25.25.37.34.61.49,1.32.11,2.57.17,3.82a3.25,3.25,0,0,1-.3,1.67l.24-.15-.46.07-.89.11-3.61.38H80.9l.39.19a14.93,14.93,0,0,0-1.24-1.8l-.19-.3a.31.31,0,0,0-.31-.15h-.49c-.2,0-.51,0-.74,0a.45.45,0,0,0-.43.46v.07a.76.76,0,0,1,0,.14c0,.19.11.37.15.55s0,.32,0,.47v.16l.4-.5a2.39,2.39,0,0,0-.86,0c0,.06-.06.1-.1.15h-.09a4.42,4.42,0,0,1-.5-.1l-.22.12a2.09,2.09,0,0,0-1.45.11,2.55,2.55,0,0,0-.39,0h0l.53.43a4.85,4.85,0,0,0-.25-.86v-.13a2,2,0,0,1,.16-1l-.09-.19a2.23,2.23,0,0,0-.35-1.45V42.7a1.87,1.87,0,0,0,0-1.1c0-.19,0-.38-.06-.58s-.08-.58-.12-.9l-.41.51,2-.27.28,0a5.2,5.2,0,0,0,.68,0,1.87,1.87,0,0,0,.37-.07l.3,0-.47-.38a6.89,6.89,0,0,0,.22,1.31l0,.09a.31.31,0,0,0,.37.22l.18-.06h0a2.76,2.76,0,0,0,.51-.16s0,.05,0,.06c.3-.18.57-.42.86-.62,0,0,0,.05,0,.06.21-.28.37-.36.45-.18,0-.1.18-.28.23-.39s.46-.31.7-.69a3.59,3.59,0,0,0,.47-1,8.43,8.43,0,0,0,.59-1.06c.28-.65.35-.94.16-1l.15-.44.07-.23,0-.11,0-.06v0l0,.05-.17-.1,0,0s0,0,0,0L82,35.2l0,.09v0l-.07,0a8.09,8.09,0,0,1-.39,1.36,11.15,11.15,0,0,0-.78,1.5c-.09.15-.18.31-.29.48A5.8,5.8,0,0,1,79,40.15a10.17,10.17,0,0,1-1,.53l-.09.07-.09,0,.37.29-.18-1.31v0a.28.28,0,0,0-.31-.24h0l-.64.11-.46,0-.14,0a4.2,4.2,0,0,0-1.85,0l-.57.07h0a.54.54,0,0,0-.47.59,31.82,31.82,0,0,0,.67,5.23l.28,1,0,.3a.27.27,0,0,0,.29.23l2.74-.3a.92.92,0,0,0,.49,0c0,.12.2.18.44.21a.43.43,0,0,0,.45-.37l0-.22a5.64,5.64,0,0,0-.1-1.32l-.51.63a5.83,5.83,0,0,0,.62-.13s0-.05,0-.08l.57-.08-.39-.19a8.06,8.06,0,0,1,.89,1.5c.18.13.34.32.5.42l.09.14a.26.26,0,0,0,.25.12l.59-.06a3.33,3.33,0,0,0,.77.29c.16-.33.91-.41,1.34-.45l.79,0a.05.05,0,0,1,0,0,3.65,3.65,0,0,0,.74-.08l0,0c.37,0,.66-.09.75-.28l.22,0,.52.07a.22.22,0,0,0,.19-.06l.08-.09a1.64,1.64,0,0,0,.41-.6,4.37,4.37,0,0,0,.18-1.51,3.8,3.8,0,0,0,0-.65,12.32,12.32,0,0,0-.16-2.27,4.92,4.92,0,0,0-.71-2.41,2.67,2.67,0,0,0-.47-.6.29.29,0,0,0-.25-.08h0a2.76,2.76,0,0,0-.76.16h0l-1.28.13.28.23-.42-4a.26.26,0,0,0-.28-.23c-.46,0-.92.12-1.36.19Zm-2.64,4.85c.14-.12.27-.25.4-.38h0C80.1,40.16,80,40.29,79.81,40.41ZM81.14,39h0l0,0Z"/><path d="M86.71,66.79a2.14,2.14,0,0,0-2.08-2C84,64.9,83.29,65.9,83,66.39c-.4-.42-1.33-1.24-1.94-1.17a1.85,1.85,0,0,0-1.63,2c.27,2.58,4.12,4.28,4.12,4.28S87,69.37,86.71,66.79Z"/><path d="M86.49,66.81a4.34,4.34,0,0,1,0,.51,1,1,0,0,0-.08.11,1.59,1.59,0,0,0-.14.66l-.08.32A6.21,6.21,0,0,1,85.11,70a.74.74,0,0,0-.26.1c-.09.08-.1.2-.18.29a5,5,0,0,1-1.32.87l.36,0a1,1,0,0,0-.21-.07,4.41,4.41,0,0,1-1-.42l-.35-.22a8.47,8.47,0,0,1-1.27-1l-.18-.25c-.19-.31-.45-.51-.63-.77l-.1-.2a.78.78,0,0,1,0-.14,1.58,1.58,0,0,0,0-.38l-.11-.21a1.23,1.23,0,0,0,0-.2,1.5,1.5,0,0,0,0-.4.26.26,0,0,1-.09,0v0a1.15,1.15,0,0,1,.14-.17l0-.1a.73.73,0,0,0,.31-.47l.11-.11a3.3,3.3,0,0,0,.22-.3l0,0a.45.45,0,0,1,.42,0l.06-.06h.24a.64.64,0,0,0,.28-.06h0l.12.08a.67.67,0,0,0,.36.31l.2.16a5.57,5.57,0,0,1,.61.5v0a.28.28,0,0,0,.4,0,.21.21,0,0,0,0-.06c.08-.14.17-.29.27-.44l.07-.09a2.18,2.18,0,0,0,.22-.21.8.8,0,0,0,.09-.14l.53-.52h0l.17,0a.11.11,0,0,0,0,.05.55.55,0,0,1,.34,0s0,0,0,0,.18,0,.12.13l.16,0c0,.14.46.32.64.43a3.3,3.3,0,0,1,.23.41c.12.25.15.35.3.32a2.33,2.33,0,0,1,.08.38l.13,0h0l.24,0v0h.06a2.92,2.92,0,0,0-.25-.69,1.29,1.29,0,0,0-.44-.76,2.23,2.23,0,0,0-.22-.21,2.06,2.06,0,0,0-1-.47,1.87,1.87,0,0,0-.34,0,.72.72,0,0,0-.34.11l-.06.06a2.38,2.38,0,0,0-.78.73l-.14.17-.06,0a1.14,1.14,0,0,0-.56.53l.58-.07-.11-.1A7.09,7.09,0,0,0,82,65.1a1.7,1.7,0,0,0-.82-.27,1.43,1.43,0,0,0-.78.27,2.15,2.15,0,0,0-.41.38,2,2,0,0,0-.74,1.33.36.36,0,0,0,0,.25c-.32.06-.08,1,.12,1.21l0,0c.13.29.52.8.59,1a2.7,2.7,0,0,0,.29.15c.08.1.17.18.25.27a1.2,1.2,0,0,0,.08.42c.22-.08.48.16.64.28s.17.17.29.26,0,0,0,0a1.14,1.14,0,0,0,.28.21h0c.13.12.27.16.38.09l.08.06a1.61,1.61,0,0,0,.39.39,3.25,3.25,0,0,0,.64.24l.19.06h.08a.15.15,0,0,0,.1,0l.08-.07a10.46,10.46,0,0,0,.84-.65,3.22,3.22,0,0,0,.87-.75,1.53,1.53,0,0,0,.4-.55h0a4.15,4.15,0,0,0,1-2.91Zm-1.41-1.72a1.72,1.72,0,0,1,.21.07h0Zm.65.4h0v0Z"/><path d="M52.81,24.9l1.4,5c.08.38.17.82.26,1.31a68.72,68.72,0,0,0,1.91,6.71c.31,1,.62,2,.94,3l5,17.87c.14.8.23,1.55.46,2.43.32,1.19.69,1.95,1,3.08s.68,2.21,1,3.29l.32-.58-2.74.74L63,68A5.31,5.31,0,0,0,60.55,66a8.08,8.08,0,0,0-3.08-.49,23.52,23.52,0,0,0-5.84,1.08,105.34,105.34,0,0,1-10.25,2.83c-1.28.25-2.59.46-3.91.61a30.68,30.68,0,0,1-15.61-2.08,26.73,26.73,0,0,1-2.65-1.43,40.2,40.2,0,0,1-7.78-5.86l-.76-.83a5.4,5.4,0,0,1-.71-.87L9.15,57.7a11.32,11.32,0,0,1-.87-1.65c-.28-.62-.64-1.21-.83-1.74-.31-.74-.73-1.46-1-2.2s-.4-1.34-.59-2a16.31,16.31,0,0,1-.37-1.91c-.11-.62-.31-1.33-.48-2.45-.08-.05-.17-.33-.26-.49l-.06-.4a15.6,15.6,0,0,1,0-2.16c-.07-.34-.13-.67-.2-1,0-.84.16-1.95.15-3.09s.12-2.31,0-3.28c.08-.55.16-1.1.24-1.69.16-1.52.37-2.7.54-4,0-.19.1-.36.14-.54.27-.82.51-1.55.76-2.22a13,13,0,0,1,.95-1.78c.07-.28.13-.56.22-.82S8,23.49,8.21,23l.41-.84.48-.83c.15-.28.3-.56.45-.82l.33-.64,0-.07s0-.16,0-.18,0,0,0,0,0,0,0,0v.12c0,.52-.08,1-.12,1.49a15.33,15.33,0,0,0,.13,5,22.52,22.52,0,0,0,.48,2.6A20.07,20.07,0,0,0,13,34.91,18.36,18.36,0,0,0,15,37.61l1.24,1.18a12.8,12.8,0,0,0,1.36,1.07,9.2,9.2,0,0,0,1,.72,16.17,16.17,0,0,0,2.7,1.52c.62.26,1.15.47,1.64.65l2,.6c.33.1.66.21,1,.28l1,.19,2,.33a14.39,14.39,0,0,0,2,.07H31a19.49,19.49,0,0,0,2.16-.08c.08,0,0,.07.09.09a26.56,26.56,0,0,0,4.26-1.12c.17-.06,0,.08.05.08,1.31-.59,2-.86,1.86-.53.34-.22,1.21-.7,1.57-1A12.88,12.88,0,0,0,44.5,39.5a17.71,17.71,0,0,0,3.33-3.59,14.91,14.91,0,0,0,2.71-4.61,10.09,10.09,0,0,0,.64-3.48c0-.77-.15-1.15-.29-1.22a10.5,10.5,0,0,0-.19-1.37l-.3.51c.79-.23,1.54-.5,2.34-.81l.12-.23.08,0h-.06l.22-.42-.28.06.1-.1c-1,.22-2,.49-2.75.73h0a.39.39,0,0,0-.27.46A9.45,9.45,0,0,1,50,29.13a16.59,16.59,0,0,1-3.41,6.57,19,19,0,0,1-1.78,1.84,22.8,22.8,0,0,1-8.22,4.81,22.71,22.71,0,0,1-5.14.93l-.55.06a27.38,27.38,0,0,1-9-2.06c-.31-.14-.63-.26-.93-.41l-.88-.5L19.56,40a15.24,15.24,0,0,1-1.44-1.2,13.07,13.07,0,0,1-1.27-1.2,19.17,19.17,0,0,1-2.69-3.28c-2.28-3.41-3.1-7.85-3.1-12.14,0-.54,0-1.07,0-1.61l0-.81a1.46,1.46,0,0,0-.24-.92,1.24,1.24,0,0,0-1-.48,1.45,1.45,0,0,0-.83.29,1.62,1.62,0,0,0-.44.5l-.44.73L7.3,21.34c-.46,1-1,2-1.34,3a26.12,26.12,0,0,0-.94,3c-.18.81-.42,1.58-.53,2.36s-.25,1.54-.38,2.31a42.75,42.75,0,0,0-.17,13.64,8.94,8.94,0,0,0,.36,2.18,3,3,0,0,0,0,1.52,23.29,23.29,0,0,0,.79,3,17.73,17.73,0,0,0,.66,1.65c.25.54.45,1.09.73,1.57.56,1,1,1.81,1.4,2.33.1.08,0,0,.14,0,.41.56.91,1.3,1.51,2.07s1.36,1.54,2.13,2.22c1.5,1.4,3,2.57,3.73,3.21.83.41,1.77,1,2.5,1.32a31.42,31.42,0,0,0,3,1.58A15.75,15.75,0,0,0,23.87,70a13.27,13.27,0,0,1,2.75.37c1.19.23,2.52.4,3.48.52s2.23.22,3.55.22c.09,0,.15,0,.13.07A25.14,25.14,0,0,0,37.14,71l-.18.06a8.34,8.34,0,0,0,3.4-.71l1-.17a39.26,39.26,0,0,0,4.93-.82c2-.5,4.05-1.26,6-1.8L55,66.87A13.7,13.7,0,0,1,59,66.6a4.33,4.33,0,0,1,3.24,1.9.35.35,0,0,0,.39.15l1.47-.43,1.27-.31a.39.39,0,0,0,.28-.47h0v0c-.77-3.08-1.6-5.82-2.56-9.14-.53-1.88-1.22-4.49-1.84-6.1l0-.06-8-27.89ZM38.68,42.54a22.08,22.08,0,0,0,2.19-1.06H41A23.49,23.49,0,0,1,38.68,42.54ZM45.85,38h0l.17-.14Z"/><polygon points="50.28 25.32 62.55 68.32 65.28 67.52 53.02 24.52 50.28 25.32"/><path d="M50.66,25.53c.69-.14,1.35-.28,2-.45h.52l-.71-.39a10.87,10.87,0,0,0,.88,2.94L53.83,29l2.25,7.87a4.64,4.64,0,0,0,.08,1.1,12.14,12.14,0,0,0,.55,1.34c.94,2.63,1,5.1,1.93,7.58.58,1.5,1.06,2.82,1.54,4.41.16.55.32,1.11.49,1.67l1.94,6.8q.14.68.27,1.32a39.72,39.72,0,0,0,1.28,4.14l.28,1c0,.22.1.43.14.64s.08.56.14.88l.4-.72a5.61,5.61,0,0,0-.8.17c-.35.1-.68.28-1,.41s-.61.14-.89.22h0l.71.39a7.54,7.54,0,0,0-.42-1.89c-.09,0-.17-.11-.25-.17l-.06-.17c0-.32,0-.66-.06-1-.07-.14-.16-.27-.24-.4a5.66,5.66,0,0,0-.71-2.71q-.07-.34-.18-.72a12.33,12.33,0,0,0-.71-1.67l-.06-.24a4.86,4.86,0,0,1-.17-1.87L60,57a6.53,6.53,0,0,0-1-2.73v-.07c0-.21-.09-.41-.13-.61a5.17,5.17,0,0,0-.45-2c-.08-.34-.18-.69-.3-1.07C57.56,48.72,57,46.91,56.42,45l-.15-.51c-.08-.4-.16-.81-.29-1.24a7.48,7.48,0,0,0-.25-.72,29.08,29.08,0,0,0-1.08-3.31l0-.06-.2-.86s.08,0,.09,0c-.2-.58-.43-1.21-.58-1.81,0-.07.08,0,.09,0-.28-.61-.29-.89,0-.71-.11-.18-.26-.58-.37-.79a14.3,14.3,0,0,0-1.13-3.67c-.16-.69-.33-1.39-.53-2.1-.35-1.26-.53-1.8-.8-2l-.5-1.72-.23-.12v0l0,0L50,25.19l0,.11-.1-.07c.31,1,.61,1.89.84,2.77a22.82,22.82,0,0,0,.8,3.22c.1.34.2.7.31,1.11L53,36.49a22.28,22.28,0,0,0,.64,2.28,1.89,1.89,0,0,0,.11.25c.39,1.35.8,2.69,1.23,4l.25.88c0,.08,0,.17,0,.24a11.43,11.43,0,0,0,.66,3.44c1.09,3.61,1.86,7.62,3.28,11.09l.8,2,1.64,5.76a2.88,2.88,0,0,0,.23.93c-.17.11-.16.56,0,1.16a.67.67,0,0,0,.78.53h0l.14,0a20.9,20.9,0,0,0,2.73-.8l.1,0a.67.67,0,0,0,.4-.86h0c-.1-.25-.18-.47-.24-.64s-.07,0-.12,0a36.84,36.84,0,0,1-1.2-4.37c-.21-.35-.39-.8-.59-1.1l-.41-1.43a7.07,7.07,0,0,0,.09-1.5c-.5-.26-.91-1.67-1.13-2.47-.09-.37-.23-1-.37-1.5,0,0,0-.07.06-.07a13.91,13.91,0,0,0-.4-1.4l.07.07a2.08,2.08,0,0,0-.67-1.37L61,51.13A15.59,15.59,0,0,0,60.65,49c-.24-.86-.65-1.74-.94-2.6a10.11,10.11,0,0,0-.43-1.14l-1.19-4.17A39.24,39.24,0,0,0,56.9,36.5a16.11,16.11,0,0,0-.85-2.65l0,0-2.68-9.4a.34.34,0,0,0-.42-.24h0c-1,.28-2,.62-3,1Zm3,10.44-.29-1,0,0Zm-.93-3.46h0l0-.08Z"/><path d="M66.61,32.56l-.17.09-.09-.07c-.15-.1-.16.05-.21.14l-.08.12-.6.32c-.06,0-.12-.11-.16-.11s0,.12,0,.17c-.14.23-.54-.11-.65.15a.77.77,0,0,1-.26.36l-.12.07-.52.28-.14,0c-.15,0-.2.15-.28.24l-.08,0a.06.06,0,0,1-.06,0s-.15-.07-.19,0,0,.09,0,.12h-.08c-.07,0-.13-.08-.18,0s0,.09.05.13h0l-.15-.1v.1c-.13-.12-.25-.12-.23.07h-.06s0,.14-.06.21h0c-.08,0-.13,0-.27-.16a.22.22,0,0,1,0,.08c-.1-.07-.2.06-.13.28h-.07c-.13-.11-.18-.09-.2,0l-.09,0a4,4,0,0,1-.39.29l0,0a.17.17,0,0,0-.12,0,.09.09,0,0,0,0,.06.28.28,0,0,0-.21.22h-.09l0-.07s-.06.11-.12.12a.36.36,0,0,0,0-.07c0,.1-.06.06-.13-.1a.53.53,0,0,1,0,.13c-.13-.16-.24.06-.25.2a.48.48,0,0,0-.21,0c-.11,0-.14.07,0,.26l-.13.07.09.18h0l0,0,.16.31h0l0,.07c.07-.06.11-.14.18-.17a.22.22,0,0,0,.3,0l.08-.05a3.18,3.18,0,0,1,.32-.16c.06,0,.15,0,.17-.09a.06.06,0,0,0,0,0,1.18,1.18,0,0,0,.27-.23l.07,0,0,0c.19.15.26.16.37.07s.68-.11.79-.54a2,2,0,0,0,.07-.23L63,35.1s.07,0,.08,0c.2.37.41.16.44,0l0-.07c.08-.06.23-.24.35-.15,0-.09,0-.14,0-.23l.11,0a1.71,1.71,0,0,0,.27.27c-.11-.29,0-.35.06-.37s.09,0,.13,0l0,.05c.06,0,.08,0,.11-.05v0c.07,0,.09-.07,0-.23l0,0c.1,0,.2.13.26.11s.09-.17.14-.23a.27.27,0,0,0,.06-.12l.32-.16c.18,0,.26,0,.38-.11s.17,0,.17-.18h0l.94-.49ZM60.38,35.8l-.08,0h0Zm-.31.08Z"/><path d="M58.86,13l-.06.19h-.1c-.18,0-.09.16-.06.26s0,.1,0,.14l-.21.66c-.07,0-.16,0-.18,0s.06.1.08.15c.06.27-.46.32-.36.59a.79.79,0,0,1,.07.44l0,.14-.18.57-.1.09c-.12.1,0,.25,0,.37l0,.08,0,.05s-.16.06-.16.1,0,.08,0,.11a.18.18,0,0,0,0,.07c-.07,0-.15,0-.13.13l.13.06v0a.86.86,0,0,1-.17,0l.08.07c-.18,0-.26.09-.12.21a.07.07,0,0,0,0,.06c0,.06.06.12.1.19v0c-.07.05-.1.09-.31.08l.06.05c-.12,0-.09.19.11.29h0l0,.05c-.18,0-.2.06-.16.14a.12.12,0,0,0,0,.09c0,.16,0,.32-.07.48v.05a.16.16,0,0,0-.09.09s0,0,0,.07a.31.31,0,0,0,0,.31h0l-.06.06-.08,0c0,.06,0,.12,0,.17l-.07,0c.07.07,0,.08-.17,0,0,0,.06.07.1.1-.21,0-.14.21,0,.32a.52.52,0,0,0-.14.16c0,.1,0,.16.16.22l-.05.15.19.06h0l.34.1h0l.07,0c0-.09,0-.18,0-.25a.23.23,0,0,0,.18-.24.44.44,0,0,1,0-.1c0-.11.06-.24.11-.35s.11-.11.06-.19l0,0a1.34,1.34,0,0,0,0-.35l0-.08h0c.25,0,.3-.08.32-.21,0-.32.39-.57.18-1C58,18.09,58,18,58,18l.15-.48s.08,0,0-.07c.41.11.4-.19.33-.31l-.07,0c0-.09,0-.33.14-.35-.07-.06-.09-.11-.16-.16l0-.12a1.55,1.55,0,0,0,.38,0c-.28-.12-.25-.24-.22-.31s.06-.06.08-.11h0c.05,0,0-.07,0-.11h0c.06,0,0-.11-.15-.18v0c.1,0,.23,0,.26-.11s-.06-.19-.06-.27a.25.25,0,0,0,0-.12l.11-.35c.16-.09.15-.22.19-.36s.09-.15,0-.24h0l.32-1Zm-2.11,6.83,0,.08h0Zm-.16.27Z"/><path d="M75.1,59h-.2l-.06-.1c-.09-.16-.17,0-.27,0l-.12.07c-.25,0-.49,0-.74,0,0-.06,0-.16-.08-.17s-.09.08-.14.1c-.27.1-.41-.4-.67-.27a.77.77,0,0,1-.45.11l-.16,0-.64-.15-.1-.1c-.12-.11-.28,0-.41,0l-.1,0,0,0s-.07-.15-.12-.16-.08,0-.12.06,0,0-.08,0,0-.16-.16-.13a.89.89,0,0,1-.05.13h0a1,1,0,0,1,0-.18l-.06.08c0-.18-.14-.25-.25-.1a.11.11,0,0,0-.07,0c-.07,0-.13.07-.2.12h0a.34.34,0,0,1-.13-.3l0,.06c0-.11-.22-.08-.3.13h0l0,0c0-.17-.11-.19-.19-.14l-.1,0h-.61s-.08-.08-.12-.08a.13.13,0,0,0-.08,0,.34.34,0,0,0-.34.07h0l-.09-.05v-.08c-.06,0-.12.06-.18,0s0-.06,0-.07-.09,0-.08-.16a1.25,1.25,0,0,1-.08.12c0-.2-.29-.07-.38,0a.62.62,0,0,0-.23-.07c-.14,0-.19,0-.18.22h-.18l0,.2h0v0l0,.36h0v.07c.09,0,.16-.08.25-.07a.25.25,0,0,0,.3.08h.1a2.41,2.41,0,0,1,.38,0c.07,0,.15.08.21,0l0,0a2.58,2.58,0,0,0,.38,0h.08l0,0c.08.25.14.29.29.28.34,0,.64.33,1,.09l.23-.13.53.13s.05.07.08,0c-.08.41.25.39.37.32l0-.07c.11,0,.36,0,.41.12,0-.06.1-.09.15-.16l.14,0a2,2,0,0,0,0,.39c.1-.29.24-.26.31-.24s.08,0,.13.07v.06s.08,0,.13,0v0c.06.05.12,0,.18-.16h0c.05.1.08.24.16.26s.19-.08.28-.09a.31.31,0,0,0,.13-.06l.41.07c.13.15.27.12.43.13s.19.07.28-.05h0a8.28,8.28,0,0,0,1.22,0Zm-7.7-1.21h-.1v0ZM67,57.68Z"/><path d="M74.41,77.42l-.18-.15s0-.07,0-.11S74.11,77,74,77l-.16,0-.64-.53c0-.07,0-.17,0-.2s-.14,0-.19,0c-.31-.08-.19-.6-.5-.64a1,1,0,0,1-.49-.15l-.14-.11-.54-.47,0-.15c-.06-.17-.25-.16-.38-.23l-.07-.07a.09.09,0,0,1,0-.07c0-.06,0-.18,0-.21s-.1,0-.14,0A.56.56,0,0,0,70.6,74c0-.09,0-.17-.1-.2a.44.44,0,0,1-.11.09h0a1.35,1.35,0,0,1,0-.18l-.1,0c.06-.17,0-.3-.17-.23a.15.15,0,0,0,0-.06c-.06,0-.16,0-.24,0h0a.4.4,0,0,1,0-.34l-.07,0c0-.12-.16-.19-.35-.06h0l0-.07c0-.17,0-.22-.09-.22s0-.06-.07-.09-.32-.22-.47-.34l0,0a.29.29,0,0,0-.05-.14.11.11,0,0,0-.08,0,.38.38,0,0,0-.32-.18h0l0-.09,0-.06c-.06,0-.14,0-.17-.1s0,0,0,0-.08,0,.06-.17c0,0-.1,0-.14,0,.11-.18-.16-.26-.31-.24a.55.55,0,0,0-.1-.22c-.07-.12-.13-.14-.29,0l-.12-.14-.14.14h0l0,0-.26.24h0l-.06,0c.09.07.19.09.24.17a.33.33,0,0,0,.17.32l.09.08c.1.11.21.2.3.32s.07.16.17.17h0a1.54,1.54,0,0,0,.36.25l.06.07v0c-.08.25,0,.32.09.42.31.23.43.71.92.73l.27,0,.45.41s0,.09.06.08c-.28.33,0,.49.19.49l.06-.06c.1.08.35.18.32.34.09,0,.15,0,.23-.07l.11.1a1.84,1.84,0,0,0-.13.37c.23-.2.34-.11.4,0s.06.09.1.14,0,0,0,0,.07.07.11.1l0,0c0,.08.11.07.24,0l0,0c0,.12,0,.25,0,.31s.22,0,.31.08a.34.34,0,0,0,.14,0l.34.29c0,.2.18.25.31.36s.13.17.27.13h0l1,.81Zm-6.34-5.69L68,71.65h0Zm-.21-.32h0Z"/><path d="M12,61.92l.56-.22.19.07c.33.09.53-.14.74-.36l.28-.26A13.46,13.46,0,0,0,15.59,60c.13,0,.28.07.37,0s.1-.25.19-.37a1.8,1.8,0,0,1,.87-.56,1.56,1.56,0,0,0,.79-.64,6.63,6.63,0,0,1,.64-1.06l.29-.35c.41-.45.76-.95,1.13-1.43l.29-.21a2.68,2.68,0,0,0,.54-1l.14-.22.13-.12c.11-.07.31-.17.37-.29s0-.21.05-.3a1.33,1.33,0,0,0,.14-.19c.15-.12.29-.13.36-.39-.07,0-.09-.09-.14-.14l0,0a2.68,2.68,0,0,1,.3-.12.76.76,0,0,0-.06-.16.48.48,0,0,0,.38-.64.57.57,0,0,0,.11-.16,1.1,1.1,0,0,0,0-.51l0-.06a.69.69,0,0,1,.52-.31s0-.09,0-.13a.56.56,0,0,0,0-.79v0l.1-.13a.41.41,0,0,0,.32-.48,1,1,0,0,0,.1-.28c.12-.47.24-1,.32-1.45l0-.14a1.2,1.2,0,0,0,.16-.32.67.67,0,0,0,0-.2,1.39,1.39,0,0,0,0-.9v0l.09-.23s.07,0,.11,0a1,1,0,0,1,0-.49s.08,0,.1,0c-.09-.17,0-.25.23-.19-.06-.06-.09-.17-.15-.23.29-.1.14-.78,0-1a2,2,0,0,0,.1-.6c0-.36,0-.51-.31-.51l0-.47-.26,0H24l-.47.06v0h-.1a4.65,4.65,0,0,1,.12.68,1.33,1.33,0,0,0-.12.83c0,.08,0,.17,0,.28a7.3,7.3,0,0,1-.09,1c0,.18-.15.38-.09.57a.15.15,0,0,0,0,.07c0,.34-.06.68-.1,1l-.05.22-.07.05a.94.94,0,0,0-.54.77A10,10,0,0,1,22,49.14a2.71,2.71,0,0,0-.34,1.37,5,5,0,0,1,0,.55c-.22.44-.42.9-.67,1.33-.08,0-.15.09-.15.19-.51-.24-.79.54-.83.84,0,0,.06,0,.08.06-.14.25-.39.85-.65.91,0,.14,0,.27.06.41s-.15.19-.23.29a2,2,0,0,0-.6,0,.57.57,0,0,1-.08.78c-.06.07-.18.16-.29.26l-.06,0a.77.77,0,0,0-.24.27s0,0,0,0-.19.25,0,.45l-.07.08c-.2.07-.42.06-.56.21s-.22.42-.35.61a.86.86,0,0,0-.15.28,9.11,9.11,0,0,1-.79.73c-.42.11-.62.4-1,.64-.17.12-.44.23-.51.47h0a12.18,12.18,0,0,1-2.77,1.39ZM24.28,45l0-.27h0Zm.16-1h0v0Z"/><path d="M9.61,59.87l.54-.21.18.07c.32.1.5-.13.71-.33l.28-.25c.3-.16.61-.31.9-.49l.86-.56a.76.76,0,0,0,.36,0c.12-.07.1-.25.19-.35.42-.57,1.31-.46,1.63-1.11a6.42,6.42,0,0,1,.64-1l.29-.33c.4-.43.76-.89,1.12-1.35l.29-.2c.32-.25.37-.64.53-1l.14-.2a.69.69,0,0,1,.13-.11c.11-.07.31-.16.36-.27s0-.2,0-.29l.14-.18c.15-.11.28-.12.35-.38a.43.43,0,0,1-.13-.14v0c.1,0,.19-.08.3-.11a.94.94,0,0,0-.06-.15.46.46,0,0,0,.38-.61.86.86,0,0,0,.1-.16.91.91,0,0,0,0-.49l0-.05a.64.64,0,0,1,.52-.3,1.12,1.12,0,0,1-.05-.13.53.53,0,0,0,0-.76v0l.1-.13a.39.39,0,0,0,.31-.46,1.57,1.57,0,0,0,.1-.26c.11-.46.22-.92.3-1.41l0-.13a.94.94,0,0,0,.15-.3.45.45,0,0,0,0-.2,1.36,1.36,0,0,0,0-.87v0l.09-.22s.08,0,.11,0a1,1,0,0,1,0-.48s.08,0,.09,0c-.09-.16,0-.23.23-.18-.06,0-.09-.16-.15-.22.28-.1.13-.75,0-1a1.9,1.9,0,0,0,.09-.58c0-.34,0-.49-.31-.48l0-.46-.26,0h0l0,0-.47.05v0h-.1a3.42,3.42,0,0,1,.12.66,1.21,1.21,0,0,0-.11.79c0,.09,0,.17,0,.27a8.4,8.4,0,0,1-.07,1c0,.18-.15.37-.09.55a.16.16,0,0,0,0,.07c0,.32-.05.65-.08,1l-.05.21-.08.05a.85.85,0,0,0-.51.74,9.16,9.16,0,0,1-.48,1.25,2.57,2.57,0,0,0-.32,1.31,4.86,4.86,0,0,1,0,.54c-.22.42-.41.86-.65,1.26-.08,0-.15.09-.15.19-.51-.25-.78.49-.82.78a.47.47,0,0,0,.09.06c-.15.24-.39.81-.64.87,0,.14,0,.26.05.39l-.22.28a2.11,2.11,0,0,0-.6,0,.54.54,0,0,1-.08.76,2.59,2.59,0,0,1-.28.24l-.06,0a.78.78,0,0,0-.23.25.05.05,0,0,1,0,0c-.16.09-.19.24-.05.44l-.07.07c-.21.06-.41,0-.56.18s-.21.4-.35.58a1.17,1.17,0,0,0-.14.27,8.44,8.44,0,0,1-.78.68c-.41.09-.61.37-.95.58-.17.11-.43.21-.5.45h0a12.76,12.76,0,0,1-2.69,1.28Zm12-16,0-.26h0Zm.15-.91h0v0Z"/><path d="M13.58,64.08l.59-.23a.6.6,0,0,0,.19.06c.35.09.55-.14.77-.37l.3-.28a15.44,15.44,0,0,0,1.9-1.18c.13,0,.27.06.37,0s.11-.26.2-.38a2,2,0,0,1,.92-.58,1.64,1.64,0,0,0,.83-.66,7.29,7.29,0,0,1,.71-1.09l.31-.35c.44-.46.82-1,1.23-1.46l.31-.22c.34-.26.42-.68.61-1l.15-.22.14-.11c.12-.08.33-.17.4-.29s0-.22.06-.31a1.35,1.35,0,0,0,.16-.19c.16-.12.3-.13.38-.4a.79.79,0,0,1-.12-.15l0,0,.31-.11a1.36,1.36,0,0,0,0-.17.51.51,0,0,0,.42-.64.52.52,0,0,0,.12-.17,1.18,1.18,0,0,0,0-.53l0-.05a.72.72,0,0,1,.55-.31c0-.05,0-.09,0-.14a.6.6,0,0,0,.1-.82h0l.12-.14c.28-.1.37-.26.35-.48a1.39,1.39,0,0,0,.12-.28c.14-.5.32-1,.43-1.51l0-.14a1.32,1.32,0,0,0,.18-.33.5.5,0,0,0,0-.21,1.39,1.39,0,0,0,.09-.94v0l.1-.23s.07,0,.11,0a1.31,1.31,0,0,1,0-.52s.09,0,.1,0c-.08-.18,0-.25.25-.19-.05,0-.08-.18-.13-.24.28-.1.16-.82,0-1.07a1.76,1.76,0,0,0,.12-.63c0-.39,0-.55-.3-.55l0-.5-.26,0h0l-.05,0-.47,0v0h-.09a5,5,0,0,1,.1.72,1.65,1.65,0,0,0-.14.85c0,.09,0,.19,0,.29a4.93,4.93,0,0,1-.13,1.09,1.24,1.24,0,0,0-.12.6.21.21,0,0,0,0,.07c-.05.35-.11.71-.16,1.07l-.07.22-.08.05a1,1,0,0,0-.58.78,9,9,0,0,1-.6,1.35,3.14,3.14,0,0,0-.43,1.41c0,.21,0,.39,0,.58-.26.45-.49.92-.78,1.35-.08,0-.15.1-.16.2-.5-.26-.84.55-.9.85,0,0,0,0,.08.07-.17.25-.46.86-.72.93,0,.15,0,.28,0,.42l-.25.3a2.18,2.18,0,0,0-.62,0,.59.59,0,0,1-.12.8c-.07.08-.2.17-.31.27l-.06,0a1,1,0,0,0-.26.28s0,0,0-.05a.31.31,0,0,0-.07.47l-.08.08c-.21.07-.43.06-.59.22s-.24.43-.39.62a1.48,1.48,0,0,0-.16.3,10.12,10.12,0,0,1-.85.75,3.25,3.25,0,0,0-1,.68c-.18.12-.46.24-.54.48h0a13,13,0,0,1-2.9,1.47ZM27.05,46.7a2.36,2.36,0,0,0,0-.28h0A2.86,2.86,0,0,1,27.05,46.7Zm.2-1h0v0Z"/><path d="M13.65,63.41l.11.68a.77.77,0,0,0-.1.18c-.15.35.07.6.23.9l.2.38c.22.78.48,1.54.76,2.29a.94.94,0,0,0-.1.38c0,.15.22.2.31.33.47.69.15,1.58.67,2.19a5.08,5.08,0,0,1,.77,1.14l.21.46c.26.63.5,1.25.74,1.89,0,.14,0,.28.05.41a3.24,3.24,0,0,0,.58,1.14l.12.27c0,.06,0,.12,0,.19a1.54,1.54,0,0,0,.05.53c.05.09.17.16.24.24a2,2,0,0,0,.09.26c0,.21,0,.34.17.57a.69.69,0,0,1,.2,0l0,0c0,.11,0,.23-.05.34a1.27,1.27,0,0,0,.18.06.59.59,0,0,0,.36.76.81.81,0,0,0,.1.21,1.29,1.29,0,0,0,.47.33l0,.06a.84.84,0,0,1,0,.68l.15,0a.67.67,0,0,0,.71.54v0l.09.18a.53.53,0,0,0,.29.58,1.74,1.74,0,0,0,.22.27c.4.38.82.77,1.28,1.15l.12.11a1.14,1.14,0,0,0,.26.32.71.71,0,0,0,.21.11,1.82,1.82,0,0,0,1,.48h0a2,2,0,0,0,.23.18s0,.06,0,.1a2.48,2.48,0,0,1,.59.17s0,.08,0,.09c.22,0,.3.06.2.28.08,0,.22,0,.3-.08.1.32,1,.24,1.27,0a3.14,3.14,0,0,0,.75,0c.44-.06.61-.14.56-.41l.52-.17-.09-.25h0l0,0-.17-.45h0l0-.09a3.5,3.5,0,0,1-.72.29,1.72,1.72,0,0,0-.9,0h-.29a3.06,3.06,0,0,1-1.08-.22c-.18-.07-.34-.25-.56-.25a.09.09,0,0,0-.07,0c-.33-.17-.66-.36-1-.56l-.19-.16v-.09a1.21,1.21,0,0,0-.5-.92c-.79-.7-1.2-1.78-2.11-2.38-.19-.12-.35-.24-.51-.36-.3-.48-.59-1-.85-1.47a.27.27,0,0,0-.1-.26c.48-.3-.06-1.08-.3-1.31,0,0-.06,0-.1,0-.15-.29-.54-.92-.47-1.2-.14-.06-.24-.17-.37-.22l-.16-.4c.1-.19.29-.36.32-.55-.43,0-.58-.37-.67-.6s-.06-.28-.11-.44l.06,0a1,1,0,0,0-.16-.39h.05a.33.33,0,0,0-.41-.3l-.05-.11a1.51,1.51,0,0,0,0-.7c-.09-.24-.34-.43-.48-.66a1.15,1.15,0,0,0-.23-.28l-.48-1.16a4,4,0,0,0-.4-1.29c-.09-.23-.14-.56-.36-.72h0a17.73,17.73,0,0,1-.87-3.48Zm11.8,21.11.32.09v0Zm1.15.29Z"/><path d="M6.52,81.89,7,81.65a.49.49,0,0,0,.17.06c.31.08.43-.17.6-.35L8,81.09l.74-.53c.24-.19.45-.42.67-.62.12,0,.26,0,.34,0s.06-.23.11-.34c.24-.6,1.12-.6,1.24-1.26a4.51,4.51,0,0,1,.32-1l.16-.35a12.73,12.73,0,0,0,.66-1.4l.21-.24c.23-.27.16-.63.22-.92l.07-.21a.94.94,0,0,1,.09-.12c.08-.08.24-.2.27-.3s0-.18,0-.26a.46.46,0,0,0,.08-.19c.11-.12.24-.15.23-.38a1.12,1.12,0,0,1-.16-.1v0l.25-.15-.09-.12a.36.36,0,0,0,.2-.58.44.44,0,0,0,.06-.16.84.84,0,0,0-.12-.42v-.06a.61.61,0,0,1,.44-.33l-.08-.1a.43.43,0,0,0-.12-.66h0l.08-.13c.24-.12.27-.26.22-.43a1.55,1.55,0,0,0,.05-.23c0-.4.07-.81.1-1.23l0-.12a.68.68,0,0,0,.12-.26.31.31,0,0,0,0-.17,1.14,1.14,0,0,0,0-.75h0l.09-.19s.07,0,.11,0a.68.68,0,0,1,0-.4s.08,0,.1,0c-.1-.15,0-.2.23-.14-.06,0-.08-.14-.13-.19.28-.06.18-.6,0-.82a2.49,2.49,0,0,0,.18-.45c.07-.28.07-.4-.21-.46l.06-.37-.26-.05h0L14,63.74v0l-.1,0a3,3,0,0,1,0,.61.89.89,0,0,0-.24.69l0,.25c-.05.3-.07.6-.14.9s-.15.33-.08.5l0,.06a5.14,5.14,0,0,0,0,.88l0,.19-.06,0a.7.7,0,0,0-.44.7c-.06.78-.57,1.55-.31,2.38a3.36,3.36,0,0,1,.13.47c-.1.41-.19.82-.3,1.22-.07,0-.11.1-.08.19-.56-.12-.62.58-.57.83l.1,0c-.06.24-.13.78-.35.88.08.11.09.23.17.33l-.12.29a1.91,1.91,0,0,0-.57.08.46.46,0,0,1,.15.67c0,.07-.13.16-.19.26l-.07,0c-.09.07-.1.16-.14.26l0,0c-.12.11-.1.25.08.4l0,.08c-.17.09-.36.11-.47.24s-.08.39-.15.57A.74.74,0,0,0,10,78a7.48,7.48,0,0,1-.55.71c-.34.15-.47.4-.73.63s-.34.23-.35.46h0c-.32.29-.69.51-1,.78l-1.15.61Zm7.85-15.73,0-.22h0Zm.21-.75h0v0Z"/></g></svg>