<svg xmlns="http://www.w3.org/2000/svg" viewBox="0 0 100 100"><defs><style>.cls-1{opacity:0.2;}.cls-2,.cls-4,.cls-5{fill:none;}.cls-2,.cls-3,.cls-4,.cls-5{stroke:#000;}.cls-2,.cls-4{stroke-linecap:round;stroke-linejoin:round;}.cls-3{fill:#fecc00;}.cls-3,.cls-5{stroke-miterlimit:10;}.cls-3,.cls-4,.cls-5{stroke-width:0.75px;}</style></defs><title>icons</title><g id="Info"><circle class="cls-2" cx="48.56" cy="51.97" r="30.78"/><path class="cls-2" d="M51.05,21.21c17,0,31.16,14.94,31.16,31.94A30.77,30.77,0,0,1,51.44,83.92,31.08,31.08,0,0,1,34,78.86"/><path d="M40.57,39.62v24.8a.73.73,0,0,0,1.08.64L64.87,52.59a.73.73,0,0,0,0-1.29L41.64,39A.73.73,0,0,0,40.57,39.62Z"/><path class="cls-3" d="M67.57,76.18c-.09,1.15,1,3.08,3.92,3a6.86,6.86,0,0,0,4.13-1.46c.8,2.18,4.6,2.52,6.37.54,1.44,2,5.35,1.46,6.66-.64,2.91,2.09,6.74,1,8.77-1.22,4.19-4.51-.41-11.92-5.27-10.66C92.16,63.5,89,60,84.81,60a5.86,5.86,0,0,0-4.5,2c-2.09-2.52-7.83-2.79-8.65,1.86-2.08-.76-5.68,1.21-5.15,5a3.66,3.66,0,0,0-3.18,2.9A3.9,3.9,0,0,0,67.57,76.18Z"/><path class="cls-3" d="M5.36,32.22c-.08,1.15,1,3.08,3.92,3a6.86,6.86,0,0,0,4.13-1.46c.8,2.18,4.6,2.52,6.37.53,1.44,2,7.82,2.52,9.12.43l3.65-.31c7.67-.66,8.06-12.11.4-12.87a8.24,8.24,0,0,0-3,.24c0-2.28-3.17-5.8-7.34-5.74a5.89,5.89,0,0,0-4.5,2C16,15.6,10.27,15.33,9.46,20c-2.09-.76-5.69,1.21-5.15,5a3.66,3.66,0,0,0-3.19,2.9A3.9,3.9,0,0,0,5.36,32.22Z"/><path class="cls-4" d="M66.77,18.45h8.36l0,3.35,3.4-3.3,2.56-.05a1.14,1.14,0,0,0,1.14-1.14V10.73a1.14,1.14,0,0,0-1.14-1.14H66.77a1.15,1.15,0,0,0-1.15,1.14v6.58A1.15,1.15,0,0,0,66.77,18.45Z"/><circle cx="78.17" cy="13.92" r="1.05"/><circle cx="74.03" cy="13.92" r="1.05"/><circle cx="69.89" cy="13.92" r="1.05"/><path class="cls-4" d="M26.94,84H18.57l0-3.35L15.2,84,12.64,84a1.15,1.15,0,0,0-1.15,1.14v6.58a1.15,1.15,0,0,0,1.15,1.14h14.3a1.14,1.14,0,0,0,1.14-1.14V85.15A1.14,1.14,0,0,0,26.94,84Z"/><circle cx="15.53" cy="88.54" r="1.05"/><circle cx="19.67" cy="88.54" r="1.05"/><circle cx="23.81" cy="88.54" r="1.05"/><path class="cls-2" d="M42.56,77.92A25.62,25.62,0,0,1,21.41,48.51"/><path class="cls-5" d="M3.25,28.9c.23,2,2,2.13,3.64,2-1.25,2.56,3.07,2.66,4.32,1.64"/><path class="cls-4" d="M85.7,62.25c5.43,1,4.44,7.07,3.82,6.3,0,0,3.1-.63,4.27-.28,2.27.66,2.91,1.72,3,4.09"/></g></svg>