<svg xmlns="http://www.w3.org/2000/svg" viewBox="0 0 775.08 686.63"><defs><style>.cls-1{opacity:0.7;}.cls-2,.cls-4{fill:#fff;}.cls-10,.cls-2,.cls-6,.cls-7,.cls-8,.cls-9{fill-rule:evenodd;}.cls-11,.cls-3,.cls-5,.cls-6,.cls-7,.cls-8,.cls-9{fill:none;}.cls-10,.cls-3,.cls-5,.cls-6,.cls-7,.cls-8,.cls-9{stroke:#fff;}.cls-10,.cls-3,.cls-5,.cls-6,.cls-7,.cls-8{stroke-linecap:round;}.cls-3,.cls-8,.cls-9{stroke-miterlimit:10;}.cls-10,.cls-5,.cls-6,.cls-7{stroke-linejoin:round;}.cls-5,.cls-6{stroke-width:0.75px;}.cls-10,.cls-7{stroke-width:0.5px;}</style></defs><title>404</title><g id="Layer_1" data-name="Layer 1"><g class="cls-1"><path class="cls-2" d="M410.63,469.46a2.52,2.52,0,0,1,1.78.74h0a2.51,2.51,0,0,1,0,3.56h0a2.55,2.55,0,0,1-1.78.74H394.45a2.55,2.55,0,0,1-1.78-.74l-.05-.05a2.49,2.49,0,0,1-.69-1.73,2.55,2.55,0,0,1,.74-1.78l.05-.05a2.49,2.49,0,0,1,1.73-.69Zm-5.24,7.48v23.91c-1.25-.73-2-1.24-2.16-1.33l-.18-.1h0a1.17,1.17,0,0,0-.49-.11,1.21,1.21,0,0,0-.49.11h0l-.18.1c-.12.08-.9.6-2.16,1.33V476.94Zm-27.9-48.12a1.52,1.52,0,0,1,1-1.65,2,2,0,0,1,2.23.61c.83.93,1.29,2.73.74,5.68C378.72,431.63,377.63,430,377.49,428.82Zm30.35,68.79V476.94h2.79a5,5,0,0,0,3.51-1.46h0a4.95,4.95,0,0,0,0-7h0a5,5,0,0,0-2.8-1.41l7.17-20.18-1.34,2.28-7.58,17.94L396.35,467l-11.67-28.89-1.14-2.82c1.19-4.65.41-7.58-1-9.16a4.43,4.43,0,0,0-4.88-1.27,3.89,3.89,0,0,0-2.58,4.22c.23,2,1.91,4.55,6.21,7.13l.07.16.71,1.75,11.68,28.93A5,5,0,0,0,391,468.4a.6.6,0,0,1-.08.08,5,5,0,0,0-.07,6.93l.07.07a5,5,0,0,0,3.51,1.46h2.8v21.39l.26,3.76a62.44,62.44,0,0,1-10.8,4.51c-3.95,1.13-4.58,3.53-3.76,6.39a26.51,26.51,0,0,0,3.31,6.32,30.25,30.25,0,0,1,2.09,3.56c-1.54,1.68-5.25,6.92-5.25,18.44l.27,33.55a14.81,14.81,0,0,0,2.44.52l-.26-34.07c0-10.67,3.17-15.24,4.45-16.66a20.48,20.48,0,0,0,3.43,1.13,24,24,0,0,0-2.17,5.9,41,41,0,0,0-1,9.63c0,9.85.2,18.89.16,34.29.81,0,1.63-.05,2.43-.09.05-15.83-.14-25.66-.14-34.2a39.5,39.5,0,0,1,.95-9.07,20.83,20.83,0,0,1,2.33-6q1.56.26,3.48.39a30.89,30.89,0,0,0-1.12,4.34,54.63,54.63,0,0,0-.87,10.29l.27,33.89c.9-.05,1.72-.08,2.45-.08l-.27-33.81a53.46,53.46,0,0,1,.81-9.84,27.47,27.47,0,0,1,1.29-4.69h1.1a26.57,26.57,0,0,1,1.29,4.69,53.46,53.46,0,0,1,.81,9.84l.27,34,2.44.08-.26-34.06a55.6,55.6,0,0,0-.86-10.29,32.19,32.19,0,0,0-1.13-4.34c1.28-.09,2.45-.22,3.48-.39a20.83,20.83,0,0,1,2.33,6,38.88,38.88,0,0,1,1,9.07c0,8.54.33,18.34.38,34.18l2.44,0c-.05-15.4-.38-24.38-.38-34.21a41.55,41.55,0,0,0-1-9.63,24.42,24.42,0,0,0-2.18-5.9,20.66,20.66,0,0,0,3.44-1.13c1.27,1.42,4.44,6,4.44,16.66l.27,34.2,2.45,0L422,541.31c0-11.52-3.71-16.76-5.25-18.44a30.25,30.25,0,0,1,2.09-3.56,26.56,26.56,0,0,0,3.32-6.32c.81-2.86.18-5.26-3.77-6.39a58.52,58.52,0,0,1-10.44-4.15ZM417.7,509c2.15.62,2.51,1.88,2.09,3.37a25,25,0,0,1-3,5.67,26.18,26.18,0,0,0-2.45,4.34,19.66,19.66,0,0,1-4.7,1.41l-.23,0a42.11,42.11,0,0,1-13.69,0l-.24,0a19.66,19.66,0,0,1-4.7-1.41,26.8,26.8,0,0,0-2.44-4.34,25.08,25.08,0,0,1-3-5.67c-.42-1.49-.06-2.75,2.09-3.37A59.44,59.44,0,0,0,399,504.06l.2-.11c1.52-.84,2.7-1.55,3.39-2,.69.43,1.87,1.14,3.39,2l.2.11A59.71,59.71,0,0,0,417.7,509Z"/><path class="cls-2" d="M347.21,563.8c5.8,4.26,14.12,7.71,23.73,10.13A143.42,143.42,0,0,0,407.48,578a120,120,0,0,0,23.92-2.66c-32.46,23.39-72.89,15-81.21,12.89a1.94,1.94,0,0,0-.28-.48C342.73,578.54,345.48,568.22,347.21,563.8Zm1.59,66.47c-7.6-6.56-2.34-15.6-.75-18,49.81,20.15,98.15-13.69,107.76-21,1.74,3,5.65,11.31.78,18a2,2,0,0,0-.34,1.62c-32,36.34-96.12,22.7-106.9,20.09A2,2,0,0,0,348.8,630.27Zm53.74,41c-31.6,0-44.37-14-49.53-25.27,56.18,22.85,91.65-1.28,102.18-10.25C453.58,645.69,445.29,671.23,402.54,671.23Zm53.74-41a2,2,0,0,0-.7,1.58c0,.06,0,.14,0,.25-6.75,6.39-43.06,36.51-103.85,10.68a39.17,39.17,0,0,1-2.11-9.19c13.11,3,75.68,15.34,108-20.45C459.49,616.33,463.18,624.32,456.28,630.27Zm-1.11-42.54a2.05,2.05,0,0,0-.43,1.3c-8.27,6.41-56.46,41.07-105.93,21a1.84,1.84,0,0,0-.32-.68c-5.31-7.32-.17-16.53,1.19-18.71,9.19,2.28,53.85,11.4,87.7-16.83,1.85-.56,3.65-1.17,5.38-1.84a48.17,48.17,0,0,0,14.87-8.74C459.31,567.2,462.7,578.08,455.17,587.73ZM520.64,381c0,15.25-2.77,32-8.77,49.94-5.65,16.94-14.32,30.42-22.71,43.49-10.89,16.95-21.33,33.2-24.55,55.55-.31,2.11-.5,4.74-.7,7.65-.12,1.64-.24,3.38-.42,5.36-1,11.62-9.69,19.46-21.91,24.19a84.86,84.86,0,0,1-19.32,4.73s-12.69,1-14.34,1c0,0-6,0-7.75-.07a144.46,144.46,0,0,1-28-3.86c-10.15-2.48-18.67-6.18-23.86-10.57a2.21,2.21,0,0,0-.67-.58c-2.56-2.33-4.2-4.87-4.64-7.56-.69-4.2-1-8.71-1.29-12.69-.21-2.91-.4-5.54-.7-7.65-3.23-22.35-13.67-38.6-24.55-55.55-8.4-13.07-17.06-26.55-22.72-43.49-6-18-8.77-34.69-8.77-49.94,0-24.65,7.25-45.51,19.76-61.95s30.35-28.53,51.47-35.58l-1.29-3.85c-21.89,7.31-40.38,19.85-53.41,37s-20.6,38.83-20.6,64.42c0,15.65,2.84,32.78,9,51.23,5.82,17.43,14.62,31.13,23.14,44.4C323.7,493.15,333.91,509,337,530.52c.28,2,.47,4.52.67,7.36.28,4,.61,8.62,1.34,13a16.65,16.65,0,0,0,5.22,9.12c-1.81,4.11-6.12,16.59,1.9,28-1.95,3.36-6.55,13-1.46,21.42-2.23,3.52-7.64,14,1.08,22.25.38,6.23,4.79,42.56,57.06,42.56s56.69-36.33,57.06-42.56c8.73-8.24,3.32-18.73,1.08-22.25,5.09-8.46.49-18.06-1.46-21.42,8.84-12.6,2.7-26.47,1.45-29a27.66,27.66,0,0,0,6.6-15.77c.15-1.72.29-3.62.42-5.42.2-2.84.38-5.41.66-7.36,3.1-21.48,13.31-37.37,23.95-53.93,8.52-13.27,17.32-27,23.14-44.4,6.16-18.45,10.24-39.1,9.07-57.76Z"/><path class="cls-2" d="M378.69,595.8c-.33-.15.47-.24-.51-.15s-1.07,1.92-.18,2.68C378.94,598.06,378.9,596.9,378.69,595.8Z"/><path class="cls-2" d="M419,645.66c-.34.75-.64,2.53.75,2.05C420.24,646.88,420.31,645.6,419,645.66Z"/><path class="cls-2" d="M408.62,669.73c1.32.24,1.57-.78,1-1.69h-.72A2.9,2.9,0,0,0,408.62,669.73Z"/><path class="cls-2" d="M363.32,632c-.05.37,0,.51.26.66,1,.65,1-.68,1-1.19C363.9,631.33,363.42,631.21,363.32,632Z"/><path class="cls-2" d="M414.91,557.74c-.42,1.23-.89,1.59-.76,3.13,1.14-.41,2.46-3.49,3.14-4.71.56-1,2.59-4.19,2.4-5.36-.75,0-.6,0-1.23.78l-.45.49c.53-1.44,2.46-3.76,2.35-5.13-1-.07-1.4.91-2.37,2.45-.7,1.11-1.22,2-1.85,3.06s-1.25,2-1.86,3C413,557.6,413.52,558.83,414.91,557.74Z"/><path class="cls-2" d="M386.56,670.33h.68l.21-.28.1-.13.63-.89c.35-.66.72-1.62-.34-1.42A2.59,2.59,0,0,0,386.56,670.33Z"/><path class="cls-2" d="M414.45,670.33h.33a2.91,2.91,0,0,0,.8-2.2C414.31,667.68,413.55,669.37,414.45,670.33Z"/><path class="cls-2" d="M370.28,650.25a17.61,17.61,0,0,1,2.12-3.18l4.73-5.51c1.25-1.4,2.22-2,2-2.95-2,.23-7.64,7.13-8.91,9.31a9.86,9.86,0,0,0-1.28,3.39c-.31,1.07-6.44,5.87-4.9,8.13.5-.27,1.46-2.09,1.86-2.62.76-1,1.32-1.52,2.08-2.4,1.7-2,4-3.66,4-5A2.87,2.87,0,0,0,370.28,650.25Z"/><path class="cls-2" d="M358.94,656.29c1.73,0,1.52-1,2.16-2.16l5.41-6.76c1.52-1.31,2.77-2.66,4.3-4,1.2-1.06,3.91-3.13,3.63-4.3-1.29,0-5.46,4.25-6.69,5.49-2.79,2.81-1.75,1.22-4,4.33C362.75,650.26,359,653.32,358.94,656.29Z"/><path class="cls-2" d="M405.89,525.3c1.06-.08,2.06-2.67,2.83-4.17s1.66-3.21,2.52-4.73,1.65-3.1,2.45-4.59c.66-1.22,2.29-3.68,2.31-5.06-1.31.23-2.54,2.87-3.25,4.12-.9,1.61-1.71,3.15-2.56,4.7C409.46,516.9,405.42,524.1,405.89,525.3Z"/><path class="cls-2" d="M400.59,524.48c1.24.1,1.76-1.5,3-3.59,1-1.69,7.38-12.45,6.79-13.05s-2.27,2.5-2.79,3.4C406.24,513.53,400.54,523,400.59,524.48Z"/><path class="cls-2" d="M398.21,509c-.82.19-1.8,2.43-2.45,3.67l-4.57,7.8c-.33.54-2.53,3.34-1.86,3.64C390.7,524.71,399.17,510.55,398.21,509Z"/><path class="cls-2" d="M438.47,662.51c.85-.37.78-.89,1-1.9L441,654c.42-1.8,1.87-7.42,1.37-8.83-.88.24-.82.69-1.07,1.68C440.43,650.48,438.07,659.82,438.47,662.51Z"/><path class="cls-2" d="M393.23,525c.73-.23.34.36,1.22-1.67l2.93-5.82c.68-1.24,1.3-2.44,2-3.73.49-.84,2-2.95,1.9-3.86-1.06-.2-1.9,1.55-2.74,2.81C396.87,515.24,393.08,522.27,393.23,525Z"/><path class="cls-2" d="M450.74,652.56c1.64-.44,3.45-10,3.82-11.85l.19-4.57c-1.09.68-1.92,6.43-2.3,8S450.37,651.21,450.74,652.56Z"/><path class="cls-2" d="M396.28,524.94c1-.17,1-.63,1.41-1.4,1.58-2.91,7.44-11,7.07-12.84-1.15.18-1.75,2-2.42,3C400.77,516.06,396.14,522.7,396.28,524.94Z"/><path class="cls-2" d="M365.46,663.19c1.39.12,1.69-1.35,2-1.89a5.07,5.07,0,0,1,.53-.76c1.13-1.4,7-7.76,7-9-1.72.22-4.42,4-5.62,5.23-.38.4-.85,1-1.28,1.49C366.93,659.66,364.55,661.8,365.46,663.19Z"/><path class="cls-2" d="M443.87,657.72c1-.44,1.61-5.42,2-7.34.33-1.54,1.58-6.65,1.23-7.78-1.06.21-1.13,1.39-1.59,3.36C445,648.12,442.81,656.73,443.87,657.72Z"/><path class="cls-2" d="M459.86,608.65c2.94-.89,1.3-11.26.53-14.16-.23-.88-.26-1.13-.95-1.45-.55,1,.05,2.79.2,3.92a52.78,52.78,0,0,1,.6,7.88C460.22,606.17,459.77,607.64,459.86,608.65Z"/><path class="cls-2" d="M378.28,661.05c.85-1.07,4.74-5.17,4.44-6.37-.94-.09-1.16.48-1.64,1.07-1.19,1.46-2.31,2.46-3.83,4.49-.7.94-5,5.5-4,7Z"/><path class="cls-2" d="M353.57,645.21c.71-.21.38.16.87-.75l1.67-2.58a29.92,29.92,0,0,1,4.27-4c.77-.6,4.25-3,4.21-3.8l-.16,0c-.83-.11-1,.15-1.86.69a40.35,40.35,0,0,0-4.71,3.61C356.6,639.29,353.4,642.42,353.57,645.21Z"/><path class="cls-2" d="M447.49,655.24c.61-.42.43-.93.61-1.8l1.28-5.76c.37-1.77,1.62-6.26.67-7.64-.94.47-1.68,6.09-2,7.42l-1.06,6C446.88,655.24,447.2,655,447.49,655.24Z"/><path class="cls-2" d="M411.05,524.06c1.74-.28,8.05-12.13,7.9-13.83-1.24.45-3.6,5.18-4.33,6.56S411.18,522.66,411.05,524.06Z"/><path class="cls-2" d="M369.32,636.5c-1.53-.13-11.58,9.11-10.76,9.92.59.58,2.37-1.55,2.89-2l5.6-5.07C367.7,638.83,369.42,637.36,369.32,636.5Z"/><path class="cls-2" d="M398.5,546.19c1,.11,1.05-.48,2.29-2.26,1-1.42,5.88-7.37,5.67-8.68-.87,0-1,.28-1.38.8C403.54,538.07,398.14,544.29,398.5,546.19Z"/><path class="cls-2" d="M398.53,550.19c1-.28,3.41-3.92,4.26-5.11s3.37-4.43,3.68-6.38c-1,.15-1,.37-1.5,1.09l-3.12,4.34c-.68,1-1.37,1.85-2.06,2.85C399.27,547.74,397.79,549.28,398.53,550.19Z"/><path class="cls-2" d="M376.72,666.85c1.54-.33,3.95-3.6,5.06-4.85.79-.87,4.08-4.55,3.94-5.63-1,0-2.16,1.55-2.69,2.18C381.91,659.87,376.57,665.44,376.72,666.85Z"/><path class="cls-2" d="M398.3,540.12c1-.08,1.59-1.65,2.06-2.39.68-1.07,1.26-1.82,1.94-2.75.79-1.09,3.61-4.58,3.57-5.77-1.11,0-1.87,1.31-2.51,2.13l-3.95,5.45C398.88,537.59,397.67,539,398.3,540.12Z"/><path class="cls-2" d="M371.32,664.18c1-.07,1.12-.4,1.59-1l3.19-3.85c.54-.66,4-4.45,3.58-5.47-1.06-.31-3.93,3.84-4.6,4.65C374.17,659.6,371.58,662.59,371.32,664.18Z"/><path class="cls-2" d="M398.9,554.08c.57-.23.39-.5.8-1.22.69-1.23,4.9-6.47,6.11-8,.36-.44,1-1.13.25-1.48s-3.84,3.88-4.41,4.58S397.71,552.7,398.9,554.08Z"/><path class="cls-2" d="M414,575.23c1-.23,2.7-4.23,3.22-5.28.74-1.48,2.44-4.33,2.17-6-1.15.21-.83.62-1.8,2.55l-3,5.73C414,573.33,413.31,574.31,414,575.23Z"/><path class="cls-2" d="M368.28,662.92c1.27-.31,3.24-3.28,4.68-4.63.27-.25,4.22-4.3,3.69-4.82s-2.11,1.33-2.52,1.74C372.55,656.79,368.39,660.68,368.28,662.92Z"/><path class="cls-2" d="M352.09,642.57c.85-.09.78-.26,1.24-.92.34-.47.48-.65.93-1.21.58-.72,1.27-1.63,1.82-2.22s3.57-3.78,3.37-4.6c-.2-.08-.06-.1-.43-.07-.88.06-3.58,3.36-4.06,4C353.65,639.13,351.24,641.34,352.09,642.57Z"/><path class="cls-2" d="M355.74,646.06c1.1-.13.83-.3,1.41-1a12.9,12.9,0,0,1,1-1.13c.56-.57,1.52-1.49,2.21-2,1.09-.9,4.19-3.23,4.33-4.44-1.42-.09-4.29,2.73-5.24,3.52S355.87,644,355.74,646.06Z"/><path class="cls-2" d="M399.91,574c1.17-.35,1.24-1.25,1.84-2.45a30,30,0,0,1,1.57-2.69c1.09-1.65,3.32-4,3.58-4.88-1.48-.08-3.8,2.94-4.57,4.09C401.42,569.41,399.26,572.15,399.91,574Z"/><path class="cls-2" d="M398.64,561.16c1.25-.36,6.71-9.09,6.57-10.17-.91-.07-.91.19-1.31.74C402.74,553.34,398,559.93,398.64,561.16Z"/><path class="cls-2" d="M398.43,564.19c1-.3,3-3.33,3.79-4.33s3.19-3.78,3-5c-1.45,0-4.85,5.22-5.72,6.52C399,562.19,398,563.31,398.43,564.19Z"/><path class="cls-2" d="M354.27,588.29c.87-.5,1.09-1.77,1.52-2.63,1.15-2.36,4.14-6.62,4.18-7.67-1.83-.12-5.37,6.76-5.82,8.59-.33,1.34-.09,1.07,0,1.34Z"/><path class="cls-2" d="M382.18,664.66c1.49-.32,3.2-3.22,4.1-4.56.63-.93,1.23-1.72,1.81-2.46s1.55-1.61,1.51-2.59C387.38,655.35,382.39,663.08,382.18,664.66Z"/><path class="cls-2" d="M413.22,538.92c1,.1.63-.07,1.83-1.85l3.07-4.61c.48-.7,1.35-1.61,1.11-2.53-1.14-.3-2.58,2.44-3.67,4C414.89,534.9,412.47,537.81,413.22,538.92Z"/><path class="cls-2" d="M364.42,644.8a5.53,5.53,0,0,0,2.67-1.76l4.27-3.83c.43-.46,1.92-1.65,1.43-2.14s-2,1-2.44,1.33C368.89,639.55,364.68,643.07,364.42,644.8Z"/><path class="cls-2" d="M413.79,542.37c.95-.23.61-.56,1.52-2.26,1.06-2,4.81-6.8,4-7.19S412.7,540.32,413.79,542.37Z"/><path class="cls-2" d="M415,568.08c1.11-.29,2.08-2.78,3-4.43a23.81,23.81,0,0,0,2-4.21c.05-.59.09.3,0-.36-.06-.47,0-.26-.19-.56-.8.26-.5.07-1,.86l-1.88,3.45C416.16,564.2,414.94,566.3,415,568.08Z"/><path class="cls-2" d="M403.33,587.44c.82-.23.49,0,.91-.91.19-.4.31-.72.53-1.17.92-1.91,3.17-5.46,3.11-7-1.57.24-4.2,5.94-4.67,7.62-.37,1.34,0,1.1,0,1.12Z"/><path class="cls-2" d="M408,586.56c.59-.29.49-.2.78-1,.92-2.53,3.54-7.26,2.84-8.46-.76.2-.48,0-.88.82C409.88,579.62,407,585,408,586.56Z"/><path class="cls-2" d="M399.37,587.88c.81-.16,1.47-2.51,2.36-4.28.61-1.22,1.92-3.29,1.81-4.78-1,.08-1.26.95-1.76,1.84C400.9,582.18,398.48,586.47,399.37,587.88Z"/><path class="cls-2" d="M453,628.4c.26-.29.14,0,.36-.59a3,3,0,0,0,.13-.78v-7.71c-.13-1.37-.47-1.17-.81-1.28C452.27,619.44,451.77,627.48,453,628.4Z"/><path class="cls-2" d="M447.71,597.35c-.48.4-.36.15-.48,1.07-.2,1.65-.4,8.19,1,8.46.51-.93.17-5.22.17-6.32C448.43,598.52,448.62,597.68,447.71,597.35Z"/><path class="cls-2" d="M357.55,589.6c.9-.13.91-1,1.47-2a23.19,23.19,0,0,1,1.35-2.07c.64-.87,2.57-3.11,2.59-4.14-1.15-.11-1.59.77-2.11,1.43C359.64,584.36,356.86,587.4,357.55,589.6Z"/><path class="cls-2" d="M446.51,543.3c.82,0,7.66-4.26,7.89-6.17-1.32,0-3.53,1.94-4.53,2.66-.79.57-1.27,1-1.94,1.49a4.6,4.6,0,0,0-.88.81C446.5,542.67,446.46,542.4,446.51,543.3Z"/><path class="cls-2" d="M390.82,566.79a30.3,30.3,0,0,0-4.5,5.33c-.4.59-.87,2.28.4,1.71.28-.13,2.35-3.18,2.84-3.8.28-.35,2.66-2.86,1.71-3.31C390.53,566.37,391,566.7,390.82,566.79Z"/><path class="cls-2" d="M412.35,585.33c.95-.4,4.63-7.85,3.91-8.78C414.87,576.73,411.78,584.1,412.35,585.33Z"/><path class="cls-2" d="M363.12,588.72c.73-.07,1-1,1.44-1.76,1.06-1.87,3.62-5.14,3.63-6.48C366.49,580.61,362.55,586.82,363.12,588.72Z"/><path class="cls-2" d="M418.72,576.66c-1.11,0-1,.45-1.49,1.53-.6,1.25-2.91,5.78-1.5,6.16,1.59.43,1.43-2.63,1.43-2.64C417.27,581.08,419,578,418.72,576.66Z"/><path class="cls-2" d="M445.61,533c1.15.43,3.65-.7,4.83-1.14a16.66,16.66,0,0,1,2.47-.74c1-.23,1.88-.06,2.26-1C452.69,529.18,446.09,531.71,445.61,533Z"/><path class="cls-2" d="M400,488.81c1.64-.2,5.32-6.6,5.33-7.88-1.17.06-1.12.55-1.78,1.48C402.58,483.7,399.69,487.58,400,488.81Z"/><path class="cls-2" d="M348.85,621.52c1.07-.19,1.37-.93,2-1.52s5.35-4.22,4.64-4.93S349,619.31,348.85,621.52Z"/><path class="cls-2" d="M355.62,622.86c1-.33,2.38-3.11,4.78-5.07.21-.18,1.76-1.16,1-1.52C359.88,615.53,354.57,621.28,355.62,622.86Z"/><path class="cls-2" d="M373.69,589.73c-.15-1.63-.35.16-.31-1.08,0-1,4.11-6.42,2.09-6.07C374.18,582.8,369.83,592.63,373.69,589.73Z"/><path class="cls-2" d="M386.92,662.48c1.12,0,1.61-.73,2.13-1.32s1-1.18,1.5-1.7c1.63-1.78,2.89-2.5,2.93-3.6C391.15,656,387.16,661.1,386.92,662.48Z"/><path class="cls-2" d="M393.36,589.61c.93-.11.93-.72,1.4-1.68.77-1.6,2.91-4.79,2.74-6.07-1-.12-1.06.48-1.65,1.4C395,584.53,392.67,588.35,393.36,589.61Z"/><path class="cls-2" d="M399.39,493.87c.94,0,1.61-1.74,2.7-3.27.63-.9,2.32-3,2.27-4-1.13-.05-2.46,2-3.13,3S398.9,492.56,399.39,493.87Z"/><path class="cls-2" d="M356,655.13c.79-.2,1.25-1.92,2.47-3.67.59-.85,2.35-2.69,2.32-3.64-1.16-.18-2.79,2-3.36,2.82S355.14,654,356,655.13Z"/><path class="cls-2" d="M385.57,566.58c1.31-.1,4.05-3.28,5-4.25.6-.59,1.33-.87,1.14-1.92-.91,0-3,1.93-3.6,2.45C387.2,563.71,385.6,565,385.57,566.58Z"/><path class="cls-2" d="M407.87,576.27c1.38,0,2.46-1.83,3.35-2.71.6-.57,2.46-2.68,2.22-3.84C412.21,569.94,407.77,575,407.87,576.27Z"/><path class="cls-2" d="M484.27,451.64c.74.53,3-.84,4.05-1.36.73-.35,1.2-.64,2-1.11s1.5-.51,1.49-1.61c-1.11-.12-3.18,1.09-4.13,1.56S484.13,450.7,484.27,451.64Z"/><path class="cls-2" d="M385.31,555.75c.82,0,1.32-1.34,2.89-2.87.87-.84,2.54-2.21,2.57-3.44C389,549.34,384.86,553.92,385.31,555.75Z"/><path class="cls-2" d="M384.42,560.49c.82-.09,1-.74,1.44-1.42s.91-1.2,1.39-1.81c1.09-1.37,2.49-2.51,2.4-3.72C387.92,553.48,384.07,558.73,384.42,560.49Z"/><path class="cls-2" d="M494,427.93c.92.05,1.52-.85,3.72-1.53l3.11-.84c.82-.29.5.06.88-.7-.28-.28,0-.14-.5-.31C500.34,424.27,494.3,425.16,494,427.93Z"/><path class="cls-2" d="M398.44,499.07c1.1-.06,1.35-1.21,2.66-3.05.59-.83,2.19-2.78,1.94-3.87-1,0-1.1.54-1.52,1.09C400.46,494.63,398.23,497.28,398.44,499.07Z"/><path class="cls-2" d="M349.72,641.35c1-.2,1-.65,1.53-1.56.76-1.26,3.57-4.72,3-5.29s-1.28.66-1.54,1C351.58,637,349.55,639,349.72,641.35Z"/><path class="cls-2" d="M350.64,586c1,0,1.46-1.42,2.68-3.29.55-.84,2.11-2.83,1.38-4C353.74,579.1,350.22,584.79,350.64,586Z"/><path class="cls-2" d="M347.11,621c.9.13,1.2-.56,1.66-1.14,1.19-1.49,4.37-4.14,3.76-4.75C351.76,614.31,347,619.06,347.11,621Z"/><path class="cls-2" d="M448.24,522.48c.66.39,1.25.13,2-.2.63-.27,1.29-.58,1.92-.86a11.29,11.29,0,0,1,2.92-.92c1-.28.57,0,.88-.58C454.57,518.43,448.93,521.16,448.24,522.48Z"/><path class="cls-2" d="M386.7,569.72c1,0,1-.5,1.51-1.26l2.3-3.24c.42-.53,1-.89.79-1.81C389.9,563.34,386.12,568.29,386.7,569.72Z"/><path class="cls-2" d="M352.78,622.31c.94-.1.42-.07,1.36-1.4.39-.55.82-1,1.24-1.53s2.72-2.62,1.78-3.09C356.43,615.92,351.86,620.61,352.78,622.31Z"/><path class="cls-2" d="M423.29,581c1.49-.07,4-5.39,4-6.55C425.66,574.62,422.92,580.13,423.29,581Z"/><path class="cls-2" d="M378.26,651.66c1.09-.06,1.68-2.1,2.17-3s1.63-2.39,1.51-3.48C380.47,645.1,377.71,650.11,378.26,651.66Z"/><path class="cls-2" d="M444.27,575.41c-1.42-1.23-2.69-3.56-4.21-3.62-.16.85.43,1.37.84,1.88.86,1.08,3.15,3.86,4.67,3.21C445.5,576,444.9,576,444.27,575.41Z"/><path class="cls-2" d="M436.54,577.38c-2.35-1.52-1.59-2.31-3.07-2.4.27,3.14,5,5.21,5.84,5C438.94,578.58,437.77,578.17,436.54,577.38Z"/><path class="cls-2" d="M368.93,588c1-.36.8-1.11,2.17-3,.5-.68,1.87-2.21,1.81-3.05-.93-.41-1.27.34-1.69.82C370.18,583.91,368.19,586.21,368.93,588Z"/><path class="cls-2" d="M473.69,473.64c1.19.18,5.68-2.95,6.06-4.39a2.18,2.18,0,0,0-1.88.57C476.8,470.51,473.68,472.28,473.69,473.64Z"/><path class="cls-2" d="M358.9,622.43c1.31-.14,5.49-4.07,5.79-5.25C363,617,359.13,620.85,358.9,622.43Z"/><path class="cls-2" d="M433,580.67c-.92-.59-1.24-1.82-2.59-1.87,0,1.72,1.67,3.54,4.25,3.58,2,0,1.74-.3,1.91-.59C435.79,580.92,434.29,581.49,433,580.67Z"/><path class="cls-2" d="M362.18,656.86c1-.16,1.86-1.84,2.48-2.6,1-1.19,1.91-2.07,1.73-3.08-.93-.08-1.11.39-1.57.9C363.71,653.3,361.92,655.12,362.18,656.86Z"/><path class="cls-2" d="M390,587.89c.73-.28,1.12-2.3,1.52-3s1.44-2.14,1.26-2.87c-.26-.13-.29-.29-.81.09,0,0-.58.64-.62.68C390.34,584,388.85,586.59,390,587.89Z"/><path class="cls-2" d="M458.72,567.36c-1.35-1.42-2.41-3.59-3.65-3.14-.29.7,2.6,4.75,4.43,4.84C459.48,568,459.31,568,458.72,567.36Z"/><path class="cls-2" d="M352.64,625s-.09-.61-.89.08c0,0-3.07,4.25-2.38,4.93s1.64-1.22,2.08-2C352,627.05,353,625.89,352.64,625Z"/><path class="cls-2" d="M477.66,464.6c.79-.15.45-.25,1-1.18a3.74,3.74,0,0,1,1.19-1.19c.74-.51,2.05-1,2.2-2.24C480.55,459.78,476.08,462.62,477.66,464.6Z"/><path class="cls-2" d="M450.34,571.05c-1-.72-1.45-1.71-2.56-1.77-.41,1.45,3.25,4.5,4.52,4.3C452.35,572.58,451,571.54,450.34,571.05Z"/><path class="cls-2" d="M455.6,569.63c.48.45.55.67,1.4.54.13-.81-.14-1-.67-1.49s-3-3.15-3.7-2.43c-.55.54.18,1,.54,1.33Z"/><path class="cls-2" d="M385.58,588.71c.94,0,1.23-1.62,1.59-2.4.26-.57,1.42-2.34.7-2.74-1-.54-2.24,2.86-2.47,3.76C385,588.71,385.53,588.67,385.58,588.71Z"/><path class="cls-2" d="M352.68,598.24c.91-.2.72-.15.95-1.3.47-2.31,1.54-3.48,1-4.42C353.17,592.89,352,596.26,352.68,598.24Z"/><path class="cls-2" d="M445,571.92c1,.85,2.4,2.33,3.76,2.23-.09-1.45-3.42-3.95-4.41-3.64C444.16,571.35,444.56,571.55,445,571.92Z"/><path class="cls-2" d="M355.7,597.79c1.28-.2.43-.12,1.37-2.53.18-.46.39-.84.59-1.35.53-1.33.12-1.19,0-1.28C356.52,592.35,355,595.93,355.7,597.79Z"/><path class="cls-2" d="M381.05,588.29c1.11-.1.72.12,1.22-.92.8-1.65,2-2.51,1.83-3.84C382.7,583.47,380.84,586.59,381.05,588.29Z"/><path class="cls-2" d="M454.41,571.41c.15-1.09-2.34-3.75-3.64-3.42C450.44,569.08,453.32,571.78,454.41,571.41Z"/><path class="cls-2" d="M399.84,499.8c.05,0,.14,0,.16.06l.46,0s.59-.41.63-.45a14.66,14.66,0,0,0,2.39-2.8C404,494.49,399.59,498.34,399.84,499.8Z"/><path class="cls-2" d="M385.9,633.56c1-.1,1.07-1.14,1.54-2s1.12-1.33.93-2.39c-.92,0-1.4.58-2.06,1.7A2.94,2.94,0,0,0,385.9,633.56Z"/><path class="cls-2" d="M354.48,631.49c.71-.24.38-.06.85-.85.64-1.08,1.44-2.19,1.18-3.09C355.27,627.24,353.11,630.85,354.48,631.49Z"/><path class="cls-2" d="M405,658.18a2.73,2.73,0,0,0,2.21-1.22c.46-.55,1.21-1.33.9-2.33C407.27,654.7,405.11,657,405,658.18Z"/><path class="cls-2" d="M346.8,627.49c.82,0,.65,0,1-.5s1.35-2.27,1-3.26C347.84,623.56,346.28,626.55,346.8,627.49Z"/><path class="cls-2" d="M377.18,634c1.69.09,1.8-3.14,1.41-3.81-.78.05-.61-.09-.92.63A6,6,0,0,0,377.18,634Z"/><path class="cls-2" d="M387.55,649.42c.36-1-.06-1.78-.84-.86-1.93,2.32-1.38,4-.27,2.75A7.47,7.47,0,0,0,387.55,649.42Z"/><path class="cls-2" d="M365.15,621.54c.52,0,1.11-.69,1.51-1.11a3.27,3.27,0,0,0,1.06-2C366.45,618.43,364.28,620.27,365.15,621.54Z"/><path class="cls-2" d="M395.5,633.18c.18-.39.3-1,.52-1.53.58-1.37.2-1,.18-1.34,0-.09-.05-.12-.07-.17-1-.19-1.92,1.64-1.63,3Z"/><path class="cls-2" d="M370.91,621.45c1.35.06,1.71-1.75,1.63-2.46-1-.28-1.09.08-1.45.75S370.53,620.76,370.91,621.45Z"/><path class="cls-2" d="M348.36,580.88c1.05.18.85.08,1.37-.86a1.86,1.86,0,0,0,.39-1.55C348.84,578.11,348.2,579.65,348.36,580.88Z"/><path class="cls-2" d="M384.11,597.34c.79-.07.82-.14,1-1a2.07,2.07,0,0,0-.11-1.55C383.51,594.85,383.75,596.53,384.11,597.34Z"/><path class="cls-2" d="M411.24,655.61c-1.12-.63-2.38,1.12-1.75,1.71S411.64,656.63,411.24,655.61Z"/><path class="cls-2" d="M413.16,630.07c1,.26,1.28-1,1.3-1.35,0-.88-.1-.57-.18-.73-.54-.11-.77,0-1.09.56C412.32,630,413.15,630.07,413.16,630.07Z"/><path class="cls-2" d="M414.45,604.81c-.64-.56-.3-.64-1.23-.55-.26,1.35.77,2.59,1.66,1.65C415.44,605.33,414.8,605.11,414.45,604.81Z"/><path class="cls-2" d="M419.5,625.8a1.09,1.09,0,0,0-.38,2.15c.17-.16.37-.15.48-.93A2.18,2.18,0,0,0,419.5,625.8Z"/><path class="cls-2" d="M390,597.44c.17-.87-.09-1.73-1.22-1.81a2.57,2.57,0,0,0-.11,1.78Z"/><path class="cls-2" d="M425.17,600c-.29-.26-.8-.49-1.14-.11s.25,1.76,1.34,1.35C425.38,601.27,426.06,600.84,425.17,600Z"/><path class="cls-2" d="M455.47,592.6c-1,.23-.86.47-.9,1.56-.09,2.3-.58,13.76,1.46,14.47C456.2,608.08,455.72,593.7,455.47,592.6Z"/><path class="cls-2" d="M457.09,615.93c-.89.07-.77.2-.83,1.26l-.17,6.2c0,2-.4,6.9,1.11,6.93.58-.69.2-2.1.2-3.29C457.4,624.82,457.7,616.84,457.09,615.93Z"/><path class="cls-2" d="M450.16,600.77c0,1.41-.2,5.27,1.13,5.7.44-1.08.18-7.6.13-9.54s.19-2-.51-2.61c-.7.32-.23-.27-.56.55A49.59,49.59,0,0,0,450.16,600.77Z"/><path class="cls-2" d="M461.82,620.19c0-1,.21-3.28-.67-3.87-.55.59-.49,1-.54,2.16-.06,1.4-.2,8.66.11,9.6.39,1.22-.14.44.82.76Z"/><path class="cls-2" d="M377.94,645.78c.77-.81,3.5-3.41,3.57-4.43-1.07-.2-2.91,1.78-3.68,2.62-1.3,1.44-4.46,4.21-3.85,6Z"/><path class="cls-2" d="M443.68,603.76c0,1.45-.16,4,.64,4.83.71-.5.67-1.76.67-2.91,0-1.75.38-6.44-.7-7C443.53,599.46,443.68,602.43,443.68,603.76Z"/><path class="cls-2" d="M448.77,620.64c-1.18.56-.78,5.74-.68,7.46.05,1.07,0,1.67.66,2C449.53,629.17,449.75,621.79,448.77,620.64Z"/><path class="cls-2" d="M443.11,553.75c1.12.24,3.16-.6,4.18-1,1.61-.58,3.32-.94,3.56-1.91-1.46-.57-4.68.89-6.25,1.57C443.76,552.8,443.13,552.84,443.11,553.75Z"/><path class="cls-2" d="M436.46,657.24c1.13,0,1.39-1.77,1.79-3.41.31-1.29.85-3.27.21-4.33-.74.16-.72.56-.93,1.47C437.17,652.59,436.17,656.16,436.46,657.24Z"/><path class="cls-2" d="M491.76,437.31c1.18.11,7.13-2.1,7.59-3.23-.88-.67-3.11.4-4.09.81C494.12,435.36,492.05,436.11,491.76,437.31Z"/><path class="cls-2" d="M345.52,619.78c.83-.23.84-.69,1.46-1.33,1.11-1.17,3.82-3,4-4.13-.8-.58-1-.08-1.82.52C348,615.68,344.69,618.28,345.52,619.78Z"/><path class="cls-2" d="M450.8,514.73c.84.64,2.72-.24,3.73-.57,1.18-.39,3.27-.37,4.06-1.07-.73-1-3.31-.59-4.28-.23A9.22,9.22,0,0,0,450.8,514.73Z"/><path class="cls-2" d="M419.51,582.28c1.16-.18,1.48-1.32,2.3-3.13s1.72-2.72.89-3.47C421.53,576,419.45,580.56,419.51,582.28Z"/><path class="cls-2" d="M437.85,573.79c-.37.72,3.32,5.82,5.25,4.58-.28-.75-.76-.89-1.43-1.43a8.07,8.07,0,0,1-1.3-1.25C440,575.31,438.28,573,437.85,573.79Z"/><path class="cls-2" d="M393.68,660.74c.93-.1.91-.31,1.52-1.1s3.48-3.65,2.51-4.11C397.09,655.24,393.4,658.86,393.68,660.74Z"/><path class="cls-2" d="M377.81,588.74c.75-.17.6-.41.91-1.27.78-2.11,2.34-2.74,2.37-4.35C379.69,583.07,376.69,586.66,377.81,588.74Z"/><path class="cls-2" d="M351.57,631.41c.95-.14,3.32-4.81,3.18-5-.34-.51-.87,0-.88,0s-.49.5-.54.55C352.44,627.88,350.94,630.17,351.57,631.41Z"/><path class="cls-2" d="M350.86,596.92c.73-.67.46-1.84.85-3s1.08-1.58.81-2.71c-1.46.31-2.38,2.4-2.3,4.22C350.26,596.4,350.3,596.65,350.86,596.92Z"/><path class="cls-2" d="M461.34,566c.09-2.42-1.19-3.87-2.81-3.7.15,1.43,1,1.17,1.42,2.32a29.81,29.81,0,0,1,.46,3C461.32,567.37,461.3,567.15,461.34,566Z"/><path class="cls-2" d="M440.63,608.16c.59-.62.5-1.82.5-2.9,0-2,.11-2.41-.68-2.75-.74.43-.65,1.56-.64,3C439.82,606.63,439.73,607.84,440.63,608.16Z"/><path class="cls-2" d="M381.69,651.64c.91.08,1.06-.63,2-2,.32-.45,1.72-2.1,1.24-2.59C384.14,646.21,381.22,650.29,381.69,651.64Z"/><path class="cls-2" d="M400.83,659.18c1.5,0,3.59-3.44,3.14-4C403.1,654.14,400.71,658.2,400.83,659.18Z"/><path class="cls-2" d="M381.17,634.86c1.06-.15,1-1.16,1.39-2.17s.94-1.59.65-2.6C381.84,630.14,380.48,633.36,381.17,634.86Z"/><path class="cls-2" d="M366,598.63c1,0,.76-.09,1.67-2,.8-1.63.9-1.81.36-2.4-.82.08-1.18,1-1.56,1.83A3.44,3.44,0,0,0,366,598.63Z"/><path class="cls-2" d="M360.24,598.64c.77-.47,1.27-3.84,1.14-4.75-.82.15-.71.09-1.06.78C359.74,595.77,359.28,597.73,360.24,598.64Z"/><path class="cls-2" d="M430.65,656.85c1.12-.07,1-.69,1.38-1.78.24-.6.94-1.76.22-2.13C431.28,652.46,430.23,655.55,430.65,656.85Z"/><path class="cls-2" d="M410.31,608.41c-.06-1.07-.64-.64-1.29-1.58-.47-.67-.56-1.52-1.45-1.18C406.88,607,408.76,609.2,410.31,608.41Z"/><path class="cls-2" d="M409.09,631.07c1-.12,1.12-.88,1.39-1.81.33-1.13.53-1.6-.59-1.77a5.25,5.25,0,0,0-.83,1.84C408.75,630.22,408.48,630.43,409.09,631.07Z"/><path class="cls-2" d="M390.7,650.79c1,0,1.83-2.68,1.59-3.32-.1-.05.3-.37-.58-.08C391.11,647.58,389.88,649.82,390.7,650.79Z"/><path class="cls-2" d="M373.94,594.34c-1.11,0-1.05.27-1.31,1.33-.14.53-.52,1.79.06,2.09C373.82,598.34,374.08,595,373.94,594.34Z"/><path class="cls-2" d="M390.32,633.12c.82-.19.72-.79,1.17-1.72.26-.54.89-1.63.11-1.73S389.17,631.91,390.32,633.12Z"/><path class="cls-2" d="M442,628.83c-.85.14-.95,1-.9,2s.44,1.56,1.37,1.36c.09-.19.13-.1.14-.48A7.82,7.82,0,0,0,442,628.83Z"/><path class="cls-2" d="M402.49,670.33h.7c.46-.47,1.9-1.28,1.6-3.16-.91,0-1,.53-1.49,1.2S402.44,669.36,402.49,670.33Z"/><path class="cls-2" d="M376.29,621c1,0,1.1-.47,1.57-1.12.35-.48,1.13-1.28.54-1.83S376.14,619.58,376.29,621Z"/><path class="cls-2" d="M399.28,652.65c.72-.37.24.18.6-.71.62-1.55.9-1.55.59-2.43-.85-.15-1.25.43-1.57,1.24C398.18,652.62,399.28,652.65,399.28,652.65Z"/><path class="cls-2" d="M394.28,575.79c.87.05.86-.34,1.33-1s.94-1,.76-1.73c0,0,0-.52-.94,0a3,3,0,0,0-.66.66A1.72,1.72,0,0,0,394.28,575.79Z"/><path class="cls-2" d="M445.85,625.43c-1.58-.23-1.75,3.9-.14,3.85Z"/><path class="cls-2" d="M397.69,669.35c.92,0,1.8-1.48,1.52-2.57-.84-.11-1.13.3-1.47.94S397.24,668.8,397.69,669.35Z"/><path class="cls-2" d="M401.2,632.33a4.07,4.07,0,0,0,.55-2.66c-.82-.11-.34-.26-.89.2C400.48,630.2,399.52,632.06,401.2,632.33Z"/><path class="cls-2" d="M427.56,582.52c-.53-.43-.46-.73-1.43-.75-.12,1.52,1.38,2.82,2.18,2C428.85,583.15,427.79,582.7,427.56,582.52Z"/><path class="cls-2" d="M424.63,626c.72-1.27-1.05-1.87-1.72.19-.18.55-.05,1.27.7.91A9,9,0,0,0,424.63,626Z"/><path class="cls-2" d="M395.21,652c1-2-.95-1.21-1.53,0S394.29,653.89,395.21,652Z"/><path class="cls-2" d="M436.29,608.14c.77,0,.86,0,1.09-.83C438.27,604.17,435.06,606,436.29,608.14Z"/><path class="cls-2" d="M435.31,623.19c1.07.06,1.09-.12,1.08-1.3,0-1,0-1.14-.84-1.26C434.87,621.36,435,622.21,435.31,623.19Z"/><path class="cls-2" d="M405.59,632c.91-.31.91-.07,1.35-1,.26-.56.5-1.06-.08-1.38C405.77,629.05,405.47,631.3,405.59,632Z"/><path class="cls-2" d="M401.89,606.83c-.74,1-.47,2.39,1,2.49a3.49,3.49,0,0,0-.12-1.61C402.62,606.93,402.63,606.86,401.89,606.83Z"/><path class="cls-2" d="M437.24,640.47c-1,0-.7.07-1.21.91-.2.35-.66.84-.28,1.23C436.46,643.34,437.49,642,437.24,640.47Z"/><path class="cls-2" d="M397.81,610.26c-.06-.84.07-.45-.36-1C395.84,607,395.12,611.34,397.81,610.26Z"/><path class="cls-2" d="M424.2,585.55c.67-.2.31-.81.07-1.21-.4-.66-.36-.74-1.18-.84C422.53,584.43,423.27,585.83,424.2,585.55Z"/><path class="cls-2" d="M429.75,599.66c.47.17,2.45-.37.51-1.27l-1.38-.22C428.55,598.77,429.3,599.27,429.75,599.66Z"/><path class="cls-2" d="M438.4,631.84c-1.15,0-1.36,1.26-.81,2.11.69.12.72.16.93-.55A1.64,1.64,0,0,0,438.4,631.84Z"/><path class="cls-2" d="M436.57,595.87a1.38,1.38,0,0,0-1.45-1.47c-.51.93-.14,1.37.46,1.9Z"/><path class="cls-2" d="M429.72,625.36c1.19,0,1.35-1,1-2.08C429.5,623.06,429.41,624.34,429.72,625.36Z"/><path class="cls-2" d="M432.14,609.79c1.21.37,1.66-1.88.12-1.65a1.17,1.17,0,0,0-.41.75C431.72,609.9,432,609.65,432.14,609.79Z"/><path class="cls-2" d="M381,597.79c0,.73,1.64,1,1.24-1.26C381.13,596.42,381,596.76,381,597.79Z"/><path class="cls-2" d="M392.07,610.83c0-.25.55-.46.39-1.08-.12-.45-.39-.61-.92-.32C390.85,609.82,390.66,610.77,392.07,610.83Z"/><path class="cls-2" d="M419.62,603.19c.67-.41.19-1.54-1.07-1.28A.87.87,0,0,0,419.62,603.19Z"/><path class="cls-2" d="M429.36,643.42c1.67.31,1.38-1,.81-1.23C429.09,641.82,429.29,643,429.36,643.42Z"/><path class="cls-2" d="M358,631.4c-1.11,1.38,1.07,2.3.92.09Z"/><path class="cls-2" d="M391.66,670.33h.47c1-1.72,1.36-1.27,1.43-2.41C392.14,667.71,390.88,668.89,391.66,670.33Z"/><path class="cls-3" d="M353.44,280.64s27.81-10.88,64.95-1.72l-11.73,37.92L426,310.15l4.15,1.64,6.71,17.89-11.51,11.91L433.67,365l14.57-22.6,17.95-1.85,12.37,15.86,20.57-5-12-17.41,10.61-4.28-4.88-19.82s31.55,23.77,31.44,69.1"/><polygon class="cls-4" points="434.11 365.23 425.48 380.66 425.24 380.07 434.56 382.94 434.83 383.02 434.75 383.29 429.14 401.35 434.22 383.13 434.4 383.48 425.01 380.85 424.52 380.72 424.76 380.27 433.23 364.74 434.11 365.23"/><polygon class="cls-4" points="407.07 316.77 395.8 329.86 395.71 329.96 395.58 329.96 381.25 329.68 395.58 329.4 395.37 329.5 406.31 316.13 407.07 316.77"/><path class="cls-4" d="M382.91,435.35a96.35,96.35,0,0,0,28-9,69.28,69.28,0,0,0,22.61-18.51,90.76,90.76,0,0,0,14-25.76,198.53,198.53,0,0,0,7.8-28.43c2-9.64,3.57-19.37,5.28-29.08s3.55-19.41,6.21-28.92,6.11-18.86,11.52-27.17a62.14,62.14,0,0,1,9.51-11.33c3.48-3.48,6.83-7.1,10.07-10.8,6.49-7.41,12.52-15.21,19.06-22.62s13.79-14.28,22.25-19.5a89.35,89.35,0,0,1,13.18-6.82c4.57-1.93,9.28-3.41,13.87-5.16a259.55,259.55,0,0,0,27.13-11.59,154.27,154.27,0,0,0,25-15.6c7.71-6,15.16-12.68,20.47-21a42.24,42.24,0,0,0,5.74-13.42,43.45,43.45,0,0,0,.68-14.61c-1.14-9.77-4.54-19.14-8.21-28.25l.09,0c1.91,4.54,3.74,9.12,5.26,13.82a74.19,74.19,0,0,1,3.35,14.42,43.76,43.76,0,0,1-.58,14.79,42.57,42.57,0,0,1-5.72,13.68c-5.32,8.43-12.78,15.17-20.49,21.31a149,149,0,0,1-25.1,15.72,259.86,259.86,0,0,1-27.24,11.6c-4.62,1.75-9.33,3.24-13.84,5.14A88.54,88.54,0,0,0,539.69,205c-8.35,5.17-15.59,11.94-22.16,19.24s-12.67,15.09-19.22,22.47c-3.27,3.69-6.64,7.3-10.15,10.77a62.1,62.1,0,0,0-9.52,11.21c-5.42,8.23-8.9,17.58-11.48,27.06s-4.34,19.21-6,28.92-3.17,19.46-5.11,29.13a185.07,185.07,0,0,1-7.73,28.58,91.62,91.62,0,0,1-14.27,25.89,70,70,0,0,1-22.92,18.53,94.35,94.35,0,0,1-28.21,8.63Z"/><path class="cls-4" d="M604.88,16.52c.07,1.91.13,3.93.27,5.78,0,.4,0,.84,0,1.35a62.37,62.37,0,0,0,.67,7.55c.15,1.16.28,2.32.45,3.47a158.11,158.11,0,0,0,3.5,19.78c.15.84.27,1.63.51,2.59.34,1.3.73,2.14,1.11,3.37,1.1,3.25,2.14,6.25,3.38,9.15a38.91,38.91,0,0,0,4.67,8.31,32.83,32.83,0,0,0,3.84,4.26A25,25,0,0,0,628,85.62a19.68,19.68,0,0,0,20.84-.9,21.54,21.54,0,0,0,2.67-2,29,29,0,0,0,6.43-8.56c.42-.72.75-1.48,1.12-2.23.25-.47.46-1,.69-1.45.5-1,1.22-2.69,1.63-3.86.27-.85.51-1.73.75-2.57s.44-1.47.64-2.16.41-1.38.6-2a26.42,26.42,0,0,0,.6-2.68,3.22,3.22,0,0,1,0-.58l.09-.44c.21-.74.38-1.57.57-2.28,0-.38.07-.75.1-1.1.23-.9.45-2.09.65-3.33s.28-2.52.32-3.58c.07-.59.13-1.2.18-1.85.16-1.66.15-3,.18-4.39l0-.61c.16-1.86.22-3.35.48-4.72l0-.93a39.63,39.63,0,0,0-.13-7.09v-.16c0-.55,0-1.06,0-1.58a32.86,32.86,0,0,0,0-5.26c0-.83-.06-1.69-.09-2.62v-.14l-.08-.1-.1-.15a13,13,0,0,0-2.61-2.42,24.46,24.46,0,0,0-3-1.86,35.67,35.67,0,0,0-6.72-2.54l-1.28-.32a30.78,30.78,0,0,0-3.18-.73,15.66,15.66,0,0,0-1.83-.24l-2.17-.29-2.15-.16a38.82,38.82,0,0,0-4.15-.09h-.14c-.75,0-1.5-.08-2.26-.05-.08,0,0,0-.09-.08l-2.27.13c-.78.08-1.57.15-2.35.21-.19,0,0-.06,0-.07-1.49.23-2.26.33-2,.1-.41.11-1.43.27-1.89.4a24.85,24.85,0,0,0-4.26.79c-1,.22-1.91.5-2.77.77s-1.61.52-2.13.72c-1.78.51-3.54,1.08-5.27,1.76-3.09,1.19-4.32,1.83-4.4,2.08-.66.31-1.33.62-2,1l-1,.5-.49.26-.25.13a3,3,0,0,0-.32.2l.14.13-.1.07.13,0,.26.24s.1,0,.19-.09,0,.06,0,.09a60.66,60.66,0,0,1,6.19-3c2.44-.87,5.05-1.84,7.8-2.7.83-.25,1.71-.49,2.69-.76a62.62,62.62,0,0,1,10.27-1.84c.91-.08,1.9-.16,2.89-.16s1.95-.08,2.84-.07l.61,0,2.52.06,2.52.17c.84,0,1.68.13,2.51.24s1.69.17,2.52.34l2.16.41c.22,0,.43.13.62.19l2,.64,1.8.64a43.07,43.07,0,0,1,4.31,1.82c.5.28,1,.55,1.52.85s1,.61,1.45,1A11.73,11.73,0,0,1,665.27,17l-.09-.28c.29,7,.25,14.13.17,20.65,0,1.76-.08,3.38-.14,5a118.42,118.42,0,0,1-2,14.4c-.2.72-.35,1.47-.52,2.28-.26.15-.81,2.23-1.52,4.54s-1.59,4.87-2.09,6.1c0,.11,0,0,0,.1a46,46,0,0,1-2.55,5.26,26.22,26.22,0,0,1-3,4.17c-.53.81-1.31,1.66-1.83,2.31A24.19,24.19,0,0,1,649,83.85a32.07,32.07,0,0,1-3.11,1.42,4.67,4.67,0,0,1-.94.63,16.72,16.72,0,0,1-1.58.67,16.55,16.55,0,0,1-3.55.78,12.87,12.87,0,0,1-1.68.11,19.54,19.54,0,0,1-2,0c-.09,0-.15,0-.14-.06l-1.72-.23c-.55-.13-1.12-.21-1.69-.37l.19,0c-1.64-.51-2.91-1-3.43-1.09l-.92-.47a30.64,30.64,0,0,1-4.1-3.26,34.64,34.64,0,0,1-4.45-5c-.77-1-1.21-1.76-1.68-2.42A59.24,59.24,0,0,1,613.65,65c-1.25-3.71-2.28-6.92-3.3-11-.5-2-1.06-4.79-1.53-6.61l0-.07c-1-5.06-1.7-10.17-2.24-15.29-.27-2.56-.49-5.13-.68-7.7l-.49-7.58Zm25.58-8.47-2.55.38h-.08C628.7,8.28,629.58,8.18,630.46,8.05Zm-8.87,1.71h0l-.22.06Z"/><path class="cls-4" d="M666.05,21.22c-1-.19-2-.42-3-.57-.2-.07-.44-.13-.71-.2a13.57,13.57,0,0,0-4.1-.28c-.64.06-1.27,0-1.9.15a15.46,15.46,0,0,0-9.91,4.22,11.42,11.42,0,0,0-1.1,1,11.66,11.66,0,0,0-1,1.66A22.36,22.36,0,0,0,641.05,37a44.57,44.57,0,0,0,.13,6.21c0,.36.06.71.11,1.08V54.82c0,.6-.06,1.19-.08,1.76,0,1,0,2,0,2.94v.64h0c0,.07.33-.61.18-.32h0l0,0a6.65,6.65,0,0,1-.56.36,7.87,7.87,0,0,1-1.18.55,7.69,7.69,0,0,1-1.24.29,5.56,5.56,0,0,1-.82,0,8.91,8.91,0,0,1-2.07-.36,8.37,8.37,0,0,1-1.29-.4,8.13,8.13,0,0,1-.77-.44l.2.36V60a17.91,17.91,0,0,0,.09-2.61c-.06,0-.1-.2-.14-.3v-.24c0-.41.1-.86.16-1.26,0-.2-.07-.39-.1-.59a13.23,13.23,0,0,0,0-3.73c0-.32,0-.65,0-1,0-.9-.1-1.6-.16-2.36V47.6a13.16,13.16,0,0,1,.26-2.54c0-.17-.07-.34-.1-.5a14.69,14.69,0,0,0,0-2.05,7.17,7.17,0,0,0-.37-1.76v-.09c0-.3,0-.57,0-.85a10.15,10.15,0,0,0-.3-2.84c-.07-.47-.19-.95-.31-1.47a25,25,0,0,0-2.76-7.12c-.12-.2-.25-.4-.38-.6a8.38,8.38,0,0,0-1-1.49,4.58,4.58,0,0,0-.68-.75,11.41,11.41,0,0,0-3.69-2.8l-.07,0a9.58,9.58,0,0,0-1.09-.59s0,0,0-.09c-.75-.3-1.59-.53-2.42-.77-.1,0,0-.06,0-.07-.82-.09-1.23-.24-1-.38-.24,0-.81,0-1.07,0a2.65,2.65,0,0,0-.9-.18,9.63,9.63,0,0,0-1.46-.05,14.8,14.8,0,0,0-2.78.32,21.78,21.78,0,0,0-3,.44c-1.75.4-2.45.69-2.48.91a23.38,23.38,0,0,0-2.24.85l.08.18h0l.06,0,.15.32.14-.06v.08a22.25,22.25,0,0,1,3.45-1.24c1.36-.24,2.81-.54,4.33-.73.46-.06.95-.09,1.48-.11a17.14,17.14,0,0,1,5.48.56,19.3,19.3,0,0,1,2.81,1.1l.3.12a14.58,14.58,0,0,1,4.1,3.37c.23.31.49.61.71.93l.14.31c.33.72.61,1.28.87,1.93l.46,1,.51,1.29a30.87,30.87,0,0,1,1.64,7.22c.26,2.51.4,5,.55,7.36.06.95.11,1.82.17,2.7v7.83a6.59,6.59,0,0,0,0,1.26c-.17.09-.25.81-.29,1.75a.51.51,0,0,0,.22.45l0,0a6.93,6.93,0,0,0,2.33,1,6.62,6.62,0,0,0,2.07.2c.06,0,0-.05.05-.08a8.12,8.12,0,0,0,3.23-.73c.28-.12.54-.27.8-.41l.36-.22.08,0h0c0,.07.33-.62.18-.33h0V59.9c0-.49,0-.9.06-1.16-.08-.52-.12-1.15-.2-1.6v-2a14.9,14.9,0,0,0,.37-1.86,11.42,11.42,0,0,1-.3-3.55c0-.5,0-1.27,0-2,0,0,0-.08,0-.08,0-.65,0-1.25,0-1.9l0,.1a7.38,7.38,0,0,0-.07-1.59v-.05a1.49,1.49,0,0,0-.18-.36l-.05-.55c0-1,.1-1.74.1-2.84s0-2.4.06-3.58c0-.69.09-1.15.13-1.58a23,23,0,0,1,1.53-5.42,17.87,17.87,0,0,1,3.4-5,21.34,21.34,0,0,1,2.83-2.17l0,0a17,17,0,0,1,7.88-1.89,34.62,34.62,0,0,1,8.17.95Zm-46.26,0A13,13,0,0,0,618.4,21l0,0A13.79,13.79,0,0,1,619.79,21.18Zm-4.89-.39h0Z"/><polygon class="cls-2" points="645.22 71.27 641.03 68.69 637.38 71.27 633.81 68.69 629.64 71.27 645.22 71.27"/><path class="cls-2" d="M630.81,73s.51,3,6.19,3c5.25,0,7.06-3,7.06-3Z"/><path class="cls-4" d="M424.49,110.37l1.42,2.75c.09.2.18.42.29.68a30,30,0,0,0,2,3.54c.33.54.68,1.06,1,1.57a69.46,69.46,0,0,0,6.33,8.72c.28.38.51.74.86,1.14a13.09,13.09,0,0,0,1.37,1.32c2.66,2.51,5,4.79,8.3,6.14a18.5,18.5,0,0,0,2.95.91,15.35,15.35,0,0,0,3.14.21,10.78,10.78,0,0,0,2.31-.31,12.55,12.55,0,0,0,7.44-5.45c.31-.52.59-1.06.88-1.56a15.9,15.9,0,0,0,1.35-5.6c0-.44.1-.88.12-1.33l0-.86a16.78,16.78,0,0,0,0-2.25c-.05-.48-.13-1-.19-1.43a9.34,9.34,0,0,0-.13-1.21c-.12-.89-.12-1.27-.39-2.59,0,0-.1-.19-.15-.28l-.07-.23c-.06-.41-.13-.85-.2-1.24l-.2-.57a14.54,14.54,0,0,0-1-3.59c-.1-.31-.19-.63-.29-1-.32-.84-.62-1.48-.93-2.17l-.12-.31c-.3-1-.6-1.7-.78-2.42-.08-.16-.16-.3-.24-.44A16,16,0,0,0,458,99.13l0-.07-.35-.78a16.86,16.86,0,0,0-1-2.18l-.05-.1-.08,0a2.07,2.07,0,0,0-.45-.17,7.07,7.07,0,0,0-1.49-.38A20.32,20.32,0,0,0,447,96l-.68.18a15.76,15.76,0,0,0-1.69.46c-.35.11-.66.21-.93.32a34.4,34.4,0,0,0-4.2,1.76l-.07,0-1.11.5s0,0-.06,0c-.69.38-1.43.81-2.17,1.23-.09,0,0,0,0,0-.66.47-1,.65-1,.47-.18.14-.62.47-.82.64a21.27,21.27,0,0,0-4,3c-.78.62-1.53,1.26-2.27,1.93-1.3,1.22-1.79,1.77-1.76,1.93l-.8.87-.4.44-.2.23-.09.11a.68.68,0,0,0-.13.18l.12,0,0,.06.06,0,.22.08s0,0,.07-.06,0,0,0,.05a35.62,35.62,0,0,1,2.5-2.71c1.05-.91,2.15-1.91,3.33-2.9.36-.31.74-.6,1.17-.94a42.82,42.82,0,0,1,4.64-3.13c.87-.48,1.89-1,2.73-1.42l.28-.16c1.65-.73,3.31-1.43,5-2l1.13-.36.34,0,2.1-.36c.69-.12,1.45-.24,2.49-.35a15.87,15.87,0,0,1,2.76,0,8,8,0,0,1,2.63.61l-.15-.16c.68,1.42,1.37,2.84,2,4.23s1.27,2.8,1.88,4.13l1,2.48c.48,1.21.8,2.47,1.21,3.71s.64,2.51,1,3.77a9.66,9.66,0,0,0,.2,1.24c-.2.26.51,4.56.42,6,0,.06,0,0,.06,0,0,.38,0,.88,0,1.42s-.11,1.12-.16,1.7a11.11,11.11,0,0,1-.3,1.58,7,7,0,0,1-.29,1.09c-.13.5-.29,1.09-.4,1.53-.22.6-.57,1.15-.85,1.73s-.76.76-1.23,1.36a7,7,0,0,1-2.38,2.47,13,13,0,0,1-1.73,1c-.05,0-.08,0-.08,0l-1.74.64.09-.05a7.59,7.59,0,0,0-1.87.5h-.55c-.49,0-.92,0-1.36-.09s-.88-.17-1.41-.25a16.75,16.75,0,0,1-3.4-1l-.82-.34-.61-.32-1.23-.71c-.39-.25-.77-.54-1.15-.81s-.78-.54-1.14-.85l-1.08-.92c-.79-.69-1.44-1.42-2.15-2.11s-1.37-1.47-2.12-2.3-1.62-2.07-2.32-2.8l0,0c-.85-1.09-1.61-2.25-2.41-3.37l-2.22-3.49L426.81,114l-1.93-3.57Zm11-9.48c-.4.23-.78.49-1.16.74l0,0C434.65,101.39,435.05,101.13,435.46,100.89Zm-4,2.73h0l-.1.07Z"/><path class="cls-4" d="M457.73,99l-1.56.4-.39.05a7.42,7.42,0,0,0-2.06.75l-.89.47a10.14,10.14,0,0,0-4.33,3.8,4.8,4.8,0,0,0-.46.64,4.52,4.52,0,0,0-.28,1,9.71,9.71,0,0,0,0,5.55,19.51,19.51,0,0,0,1.36,3c.13.25.27.49.43.74l0,0,.16.35,2,4.5c.11.3.22.6.33.88.2.5.41,1,.63,1.43l0,.08,0,0h0c0,.06,0-.5,0-.26h0l-.1.15a2.78,2.78,0,0,1-.21.27,3.85,3.85,0,0,1-.5.49,3.58,3.58,0,0,1-.55.38,3.49,3.49,0,0,1-.39.19,7.55,7.55,0,0,1-1.09.27c-.23,0-.46.11-.7.13l-.56,0,.23.16v0a9.34,9.34,0,0,0-.52-1.29s-.1-.07-.15-.11l-.05-.11c-.06-.21-.13-.44-.18-.65l-.19-.26a5.54,5.54,0,0,0-.78-1.82c-.06-.16-.13-.32-.2-.49-.2-.43-.41-.74-.61-1.09l-.07-.16a6.26,6.26,0,0,1-.41-1.31l-.16-.21a5,5,0,0,0-1.09-1.73l0,0c-.07-.14-.15-.26-.23-.39a4,4,0,0,0-.82-1.28c-.16-.2-.31-.42-.5-.63a11,11,0,0,0-3.21-2.53l-.35-.16a4.24,4.24,0,0,0-.87-.38,2.54,2.54,0,0,0-.53-.13,6.34,6.34,0,0,0-2.47-.17h0l-.66,0s0,0,0,0c-.42.07-.86.19-1.31.29-.06,0,0,0,0,0-.41.17-.63.21-.59.07-.11.06-.39.18-.51.26a6.71,6.71,0,0,0-2.43,1.23,14.77,14.77,0,0,0-1.37.84c-.78.56-1.06.84-1,1-.32.27-.63.55-.94.86l.1.09,0,0h0l.17.16.06,0,0,0a14,14,0,0,1,1.44-1.3l2-1.27c.22-.11.44-.25.69-.38a12.26,12.26,0,0,1,2.73-1.06c.51-.12,1.1-.18,1.59-.25l.16,0a8.49,8.49,0,0,1,2.79.3,5.89,5.89,0,0,1,.59.21l.15.1c.69.47,1.08.75,2,1.4a12.24,12.24,0,0,1,2.54,2.94c.38.54.68,1.14,1,1.69s.63,1.12.93,1.67l.69,1.27,1.7,3.79a2.73,2.73,0,0,0,.26.62c-.08.08,0,.4.16.82a.33.33,0,0,0,.25.21h.06a4.35,4.35,0,0,0,2.51-.45s0,0,0-.06a5.38,5.38,0,0,0,1.46-1,6,6,0,0,0,.6-.69l0,0h0l0-.26h0v0l0-.09-.06-.15c0-.1-.07-.18-.09-.25-.16-.23-.32-.53-.47-.72l-.42-1a5.9,5.9,0,0,0-.18-1,4.85,4.85,0,0,1-.95-1.64l-.41-1s0,0,0,0c-.12-.32-.26-.61-.41-.92l0,0a3.89,3.89,0,0,0-.24-.53l0,0a1.26,1.26,0,0,0-.34-.33l-.15-.25c-.19-.49-.29-.88-.51-1.41s-.52-1.16-.7-1.76c-.1-.34-.17-.58-.24-.8a9.81,9.81,0,0,1-.15-3,9.15,9.15,0,0,1,1-3c.31-.48.8-1.1,1.13-1.51v0c2.06-2.06,4.95-3,7.76-3.72ZM433,109.88c-.24.08-.47.15-.7.24h0C432.54,110,432.79,110,433,109.88Zm-2.42,1h0l-.06,0Z"/><polygon class="cls-2" points="458.07 127.31 454.5 126.54 452.96 128.81 450.29 128.42 448.99 131.37 458.07 127.31"/><path class="cls-2" d="M450.18,131.42s.89,1.28,3.86,0c2.74-1.23,3-3,3-3Z"/><path class="cls-5" d="M413.8,206c1.61-.13,11.84-4,10.77.54-.86,3.64-9,0-10.77-.54,1.82,1.2,5.37,8.23,2.26,10-4.15,2.3-3.52-8.26-2.26-10-1.75.74-8.77,7.33-10.41,3.17s8.69-4.47,10.41-3.17c-1.35-1.91-11.87-5.12-8.22-9.38,4.13-4.81,7.35,7.41,8.22,9.38-1.24-3.32,2.84-14.2,6.41-10.83,4,3.75-5.9,8.65-6.41,10.83"/><path class="cls-4" d="M382.56,435.74a142.8,142.8,0,0,0,24.85-7.21,105,105,0,0,0,22.71-12.25c14.08-10,25-24,32.25-39.65a151.33,151.33,0,0,0,8.79-24.31c2.29-8.33,4-16.81,5.67-25.29.84-4.25,1.76-8.47,2.35-12.75s1.14-8.57,1.73-12.86c1.2-8.55,2.65-17.17,5.91-25.25a47.24,47.24,0,0,1,6.37-11.34,45.86,45.86,0,0,1,4.39-4.85c1.59-1.47,3.21-2.92,4.89-4.29a106.7,106.7,0,0,1,22-13.84c15.71-7.47,32.78-11.58,49.88-14.12,4.29-.64,8.58-1.21,12.9-1.61s8.65-.63,13-.8c8.64-.35,17.29-.65,25.79-2.09,4.25-.7,8.45-1.73,12.63-2.82a64.32,64.32,0,0,0,12.12-4.4,44.83,44.83,0,0,0,10.6-7.29,48.43,48.43,0,0,0,8.13-10,.05.05,0,0,1,.07,0,.07.07,0,0,1,0,.07,48.47,48.47,0,0,1-8,10.2,43.55,43.55,0,0,1-10.59,7.5A64.93,64.93,0,0,1,638.79,221c-4.18,1.14-8.39,2.2-12.67,2.95-8.55,1.53-17.24,1.9-25.86,2.33-4.32.22-8.63.46-12.92.86s-8.57,1-12.84,1.61A227.22,227.22,0,0,0,549.16,234a144.77,144.77,0,0,0-24.29,8.75A108.3,108.3,0,0,0,503,256.29c-1.68,1.35-3.3,2.76-4.89,4.21a45.42,45.42,0,0,0-4.36,4.73,47.43,47.43,0,0,0-6.39,11.15c-3.27,8-4.77,16.57-6,25.1-.61,4.28-1.16,8.57-1.81,12.84-.33,2.14-.67,4.28-1.06,6.41l-1.22,6.37c-1.61,8.5-3.26,17-5.5,25.37A151.15,151.15,0,0,1,463.06,377a104.2,104.2,0,0,1-13.58,22.15,95.24,95.24,0,0,1-19,17.74A106.72,106.72,0,0,1,407.6,429a136.65,136.65,0,0,1-25,6.83s-.05,0-.06,0A.05.05,0,0,1,382.56,435.74Z"/><path class="cls-4" d="M413.84,206.06c6.91,5.29,13.48,11,20,16.78a239.74,239.74,0,0,1,18.66,18.25,37.24,37.24,0,0,1,3.95,5.26c1.06,1.93,2,3.88,2.92,5.86a67,67,0,0,1,4.22,12.36,42.1,42.1,0,0,1,1,13,31.19,31.19,0,0,1-4,12.39c-2.05,3.85-4.48,7.47-6.55,11.26a42.36,42.36,0,0,0-2.69,5.86c-.38,1-.65,2-.94,3.09s-.58,2.08-.82,3.13a65.86,65.86,0,0,0-1.84,12.79,73.51,73.51,0,0,0,.7,12.91c.55,4.29,1.32,8.58,1.7,12.94a75.3,75.3,0,0,1,.08,13.09,102.83,102.83,0,0,1-5.72,25.42s0,0-.06,0a.06.06,0,0,1,0-.07A112.65,112.65,0,0,0,449.42,365a75.7,75.7,0,0,0-.31-13c-.46-4.3-1.19-8.58-1.77-12.9a69.8,69.8,0,0,1-.72-13.09,65.91,65.91,0,0,1,2-13c.25-1.06.54-2.12.85-3.16a32.67,32.67,0,0,1,1-3.14,43.09,43.09,0,0,1,2.85-5.93c2.15-3.8,4.63-7.37,6.73-11.16s3.84-7.82,4.15-12.16a38.8,38.8,0,0,0-.93-12.88,56.41,56.41,0,0,0-1.86-6.23c-.75-2-1.6-4-2.53-6s-1.94-3.88-3-5.74a36.82,36.82,0,0,0-4-5.06c-2.88-3.23-6-6.27-9.08-9.3s-6.28-6-9.48-8.94-6.41-5.86-9.66-8.73-6.48-5.8-9.86-8.53a0,0,0,0,1,0-.07A.06.06,0,0,1,413.84,206.06Z"/><path class="cls-4" d="M383.44,435.05a61.53,61.53,0,0,0,15.92-12.76,46.91,46.91,0,0,0,6.1-8.23,39.71,39.71,0,0,0,3.92-9.46,48.67,48.67,0,0,0,1.6-10.08,50.9,50.9,0,0,0-.57-10.17,58.57,58.57,0,0,0-2.49-9.9,85.11,85.11,0,0,0-4.05-9.44,0,0,0,0,1,0-.07,0,0,0,0,1,.06,0,52.23,52.23,0,0,1,7.48,19.23,42.94,42.94,0,0,1-1.52,20.57,57.84,57.84,0,0,1-4.15,9.47,55,55,0,0,1-5.77,8.6,45.87,45.87,0,0,1-16.51,12.31.05.05,0,0,1-.07,0A0,0,0,0,1,383.44,435.05Z"/><path class="cls-4" d="M400.93,352.9a8.17,8.17,0,0,1-2.6,1.44c-1,.31-2.06.19-2.82.55a3.29,3.29,0,0,0-1.71,1.81,3.12,3.12,0,0,0,.21,2.51,7,7,0,0,0,2,2,16.22,16.22,0,0,0,2.55,1.41,45.56,45.56,0,0,0,5.51,1.93l-.56.33c.21-1.31.39-2.64.52-4s.26-2.65.31-4c0-.66,0-1.32,0-2a6.5,6.5,0,0,0-.29-1.89,1.31,1.31,0,0,0-1.33-1A3.72,3.72,0,0,0,400.93,352.9Zm-.07-.08a4.7,4.7,0,0,1,1.81-.95,1.45,1.45,0,0,1,1.07.18,2.18,2.18,0,0,1,.75.82,9.31,9.31,0,0,1,.83,4.09,29.13,29.13,0,0,1-.26,4.08c-.19,1.35-.42,2.69-.71,4v0a.43.43,0,0,1-.51.32h0a44.67,44.67,0,0,1-5.41-2.44c-.88-.46-1.74-.93-2.58-1.47a8.51,8.51,0,0,1-2.32-1.94,3.46,3.46,0,0,1,1.77-5.38c1.12-.3,2.07,0,3-.15A5.54,5.54,0,0,0,400.86,352.82Z"/><path class="cls-4" d="M415.24,360a6.72,6.72,0,0,0-2.44-1.32,2.47,2.47,0,0,1-1.18-1,2.36,2.36,0,0,1-.26-.76l-.05-.38c0-.09,0-.18-.07-.27a3.06,3.06,0,0,0-1.68-1.65c-.74-.33-1.64-.48-2.14.12a11.37,11.37,0,0,0-2.25,5,41.43,41.43,0,0,0-.78,5.52l-.41-.47c1.32,0,2.66-.06,4-.17s2.64-.21,3.93-.41c.65-.1,1.29-.22,1.92-.38a5.6,5.6,0,0,0,1.76-.68,1.7,1.7,0,0,0,.61-.64,1.38,1.38,0,0,0,.09-.88A3.93,3.93,0,0,0,415.24,360Zm.08-.07a4.92,4.92,0,0,1,1.16,1.67,1.72,1.72,0,0,1,0,1.08,2.15,2.15,0,0,1-.62.91,8.16,8.16,0,0,1-3.83,1.64,25.25,25.25,0,0,1-4.05.46c-1.36,0-2.71.06-4.07,0h0a.42.42,0,0,1-.39-.44v0a46.13,46.13,0,0,1,1.29-5.52c.25-.91.55-1.81.85-2.7a10.06,10.06,0,0,1,1.24-2.61,1.92,1.92,0,0,1,1.44-.81,3.25,3.25,0,0,1,1.56.29,3.36,3.36,0,0,1,2.06,2.3,2.88,2.88,0,0,1,0,.42v.32a1.63,1.63,0,0,0,.1.59,2,2,0,0,0,.85.92A11.54,11.54,0,0,1,415.32,359.93Z"/><path class="cls-4" d="M392,367.36a31.84,31.84,0,0,0,2.67,4.83,9.72,9.72,0,0,0,1.68,2,1.48,1.48,0,0,0,2,.08,11.58,11.58,0,0,0,3.34-4.24,40.22,40.22,0,0,0,2.1-5.1l.27.55c-1.28-.31-2.58-.62-3.88-.85s-2.6-.46-3.9-.59c-.65-.06-1.3-.11-1.94-.11a5.73,5.73,0,0,0-1.86.24,1.83,1.83,0,0,0-.74.48,1.54,1.54,0,0,0-.31.85A4,4,0,0,0,392,367.36Zm-.09,0a4.89,4.89,0,0,1-.66-1.91,1.74,1.74,0,0,1,.23-1.06,2.24,2.24,0,0,1,.81-.75,8,8,0,0,1,4.11-.66,25.74,25.74,0,0,1,4,.58c1.32.31,2.62.64,3.91,1.07h0a.42.42,0,0,1,.26.52v0a46.57,46.57,0,0,1-2.58,5c-.46.81-1,1.6-1.46,2.38a10.45,10.45,0,0,1-1.79,2.22,2.25,2.25,0,0,1-1.45.67,2.45,2.45,0,0,1-1.54-.56,6.88,6.88,0,0,1-1.77-2.32C393.18,370.88,392.72,369.06,391.92,367.4Z"/><path class="cls-4" d="M517.67,223.54A44.09,44.09,0,0,0,523,209.76a36.93,36.93,0,0,0,.67-7.34l-.13-1.84-.07-.92-.16-.91-.31-1.81-.49-1.78c-.3-1.18-.76-2.35-1.11-3.54s-.74-2.37-1.08-3.56c-.69-2.38-1.32-4.79-1.88-7.21A117.21,117.21,0,0,1,516,166.16a93.58,93.58,0,0,1-.3-14.88,65.55,65.55,0,0,1,2.48-14.66,51.13,51.13,0,0,1,6.06-13.56A46.62,46.62,0,0,1,534.18,112a.21.21,0,0,1,.31.26h0a39.07,39.07,0,0,0-3,6.71c-.41,1.15-.73,2.34-1.07,3.52s-.61,2.37-.81,3.59a61.93,61.93,0,0,0-1,14.64c.41,9.83,3.53,19.28,5.6,28.93a73.65,73.65,0,0,1,1.91,14.72,51.31,51.31,0,0,1-.47,7.43,45.82,45.82,0,0,1-1.68,7.24,50.17,50.17,0,0,1-2.84,6.87c-.6,1.08-1.14,2.2-1.81,3.24l-1,1.59-1,1.53a67.9,67.9,0,0,1-4.53,5.87l-2.48,2.75Zm.05-.06a85.12,85.12,0,0,0,9.29-11.4l1-1.54L529,209c.65-1,1.17-2.16,1.75-3.24a49,49,0,0,0,2.73-6.82,45.21,45.21,0,0,0,1.58-7.17,49.87,49.87,0,0,0,.38-7.33,77.21,77.21,0,0,0-1.95-14.56c-1.05-4.81-2.35-9.56-3.44-14.39a81.57,81.57,0,0,1-2.12-14.68A60.21,60.21,0,0,1,529.07,126c.22-1.22.57-2.41.86-3.61s.69-2.38,1.13-3.54a38.53,38.53,0,0,1,3.07-6.77l.31.27a46.74,46.74,0,0,0-16,24.37,65.74,65.74,0,0,0-2.32,14.61,91.45,91.45,0,0,0,.49,14.8A145.83,145.83,0,0,0,523,195l.49,1.81.3,1.85.15.93.06.93.11,1.87a36.36,36.36,0,0,1-.74,7.43,40.91,40.91,0,0,1-2.23,7.1c-.48,1.15-1,2.28-1.57,3.38A24,24,0,0,1,517.72,223.48Z"/><path class="cls-4" d="M464.59,276.33a34.9,34.9,0,0,0,2-4.27,28,28,0,0,0,1.26-4.47,22.81,22.81,0,0,0,.37-4.59,19.14,19.14,0,0,0-.24-2.28l-.2-1.13-.31-1.11c-1-3-1.88-6-2.58-9a71.4,71.4,0,0,1-1.53-9.29,50.63,50.63,0,0,1,1.51-18.67,31.11,31.11,0,0,1,10.06-15.61.26.26,0,0,1,.38,0,.24.24,0,0,1,0,.3v0a29.66,29.66,0,0,0-3,8.67,39.23,39.23,0,0,0-.62,9.18c.28,6.15,2.27,12.08,3.55,18.19a47.1,47.1,0,0,1,1.19,9.33,30.9,30.9,0,0,1-1.4,9.31l-.84,2.21a6.08,6.08,0,0,1-.49,1.07l-.54,1.05a32.78,32.78,0,0,1-2.43,4,18.18,18.18,0,0,1-1.41,1.86L467.9,273C466.81,274.15,465.61,275.23,464.59,276.33Zm.07-.08c4.14-4.47,7.86-9.69,9.68-15.55a29.86,29.86,0,0,0,1.19-9.06,49.5,49.5,0,0,0-1.24-9.13c-1.32-6-3.27-12-3.48-18.37a37.78,37.78,0,0,1,.78-9.37,30.77,30.77,0,0,1,1.28-4.53,23.79,23.79,0,0,1,2-4.28l.4.36a28.83,28.83,0,0,0-10.07,15.27,38.64,38.64,0,0,0-1.4,9.19,57.76,57.76,0,0,0,.39,9.3,93.62,93.62,0,0,0,4,18.19l.31,1.16.18,1.18a20.83,20.83,0,0,1,.18,2.38,24,24,0,0,1-.51,4.71,27.06,27.06,0,0,1-1.46,4.49c-.32.72-.65,1.43-1,2.12-.18.35-.38.68-.58,1l-.32.5-.16.24-.08.13C464.73,276.25,464.71,276.22,464.66,276.25Z"/><path class="cls-4" d="M409.24,235a28,28,0,0,0,20.37,2.41,21.83,21.83,0,0,1,7.07-1,23.51,23.51,0,0,1,7,1.32,25.83,25.83,0,0,1,6.29,3.29,32.86,32.86,0,0,1,9.28,10.61.27.27,0,0,1-.1.37.27.27,0,0,1-.31,0l0,0a26,26,0,0,0-12.5-4.85c-4.49-.58-9.05.09-13.68.24a34.67,34.67,0,0,1-7-.35,21.62,21.62,0,0,1-6.63-2.27,23.1,23.1,0,0,1-5.52-4.25,29.79,29.79,0,0,1-2.28-2.61l-1-1.39C409.86,236,409.55,235.49,409.24,235Zm.08.07c2.76,3.53,6,7,10.09,9s8.67,2.47,13.2,2.28,9.19-.82,13.85-.14a27.63,27.63,0,0,1,6.74,1.8,21.71,21.71,0,0,1,6,3.58l-.43.33a28.87,28.87,0,0,0-9-10.59,23,23,0,0,0-13.12-4.06,22.07,22.07,0,0,0-3.45.24,33.12,33.12,0,0,0-3.4.77,28.18,28.18,0,0,1-7.09.83,26.54,26.54,0,0,1-7-1.06,24.74,24.74,0,0,1-3.34-1.23c-.54-.24-1.07-.51-1.59-.79l-.77-.44-.37-.24-.19-.12-.09-.07S409.23,235.15,409.32,235.1Z"/><path class="cls-6" d="M593.44,226.13s5.95-2.71,7.27-8.49,6.1-22.17,19.72-23.93c0,0-5.83,2.89-9,11.17S608.1,222.53,593.44,226.13Z"/><path class="cls-4" d="M574.77,189.32A35.33,35.33,0,0,0,579,186a33.13,33.13,0,0,0,3.58-3.91,26.51,26.51,0,0,0,2.74-4.5l.49-1.22a8.28,8.28,0,0,0,.43-1.24l.38-1.26.25-1.29c.55-3.5,1.14-7.06,2-10.53a81.7,81.7,0,0,1,3.18-10.26,57.8,57.8,0,0,1,11.05-18.3,35.44,35.44,0,0,1,18.24-10.77.27.27,0,0,1,.33.2.29.29,0,0,1-.12.29h0a28,28,0,0,0-4,3.37,36.3,36.3,0,0,0-3.47,4,45.11,45.11,0,0,0-5.32,9.07c-2.87,6.44-3.88,13.51-5.69,20.4a53.1,53.1,0,0,1-3.55,10.12,35,35,0,0,1-6.19,8.77l-2,1.82-.49.45-.54.4-1.08.8a36.77,36.77,0,0,1-4.52,2.88,20.46,20.46,0,0,1-2.39,1.19l-2.43,1.1C578.15,188.21,576.38,188.72,574.77,189.32Zm.1,0c6.54-2.43,13-5.82,17.9-10.88a34.21,34.21,0,0,0,5.86-8.67,57.43,57.43,0,0,0,3.4-10c.89-3.42,1.56-6.9,2.43-10.36a59.14,59.14,0,0,1,3.4-10.16,43.08,43.08,0,0,1,5.58-9.16,36.73,36.73,0,0,1,3.61-4,28,28,0,0,1,4.21-3.36l.19.5a33.1,33.1,0,0,0-18.1,10.47,44.19,44.19,0,0,0-6.14,8.67,66.4,66.4,0,0,0-4.38,9.69,107.06,107.06,0,0,0-5.2,20.64l-.27,1.33-.41,1.3a9.22,9.22,0,0,1-.48,1.27l-.54,1.25a27.15,27.15,0,0,1-2.93,4.55,29.66,29.66,0,0,1-3.77,3.83c-.69.58-1.39,1.13-2.12,1.65l-1.11.75-.57.36-.29.17-.15.08S574.94,189.27,574.87,189.28Z"/><path class="cls-4" d="M480.75,303.91a.32.32,0,0,1,0-.19l.05-.13.11-.25.22-.51.46-1,.94-2c.64-1.33,1.31-2.63,2-3.94,1.39-2.59,2.86-5.15,4.45-7.63a90.89,90.89,0,0,1,10.82-14,52.78,52.78,0,0,1,14.1-10.71,33,33,0,0,1,8.45-2.83c.73-.15,1.46-.27,2.19-.35l2.19-.3c1.46-.2,2.92-.4,4.39-.54,5.86-.65,11.74-1,17.62-1.25a168.63,168.63,0,0,0,17.55-1.51,65.41,65.41,0,0,0,16.86-4.85,92.51,92.51,0,0,0,15.25-8.73h0a.28.28,0,0,1,.39.07.3.3,0,0,1,0,.26,37.33,37.33,0,0,1-4.28,7.63,53.53,53.53,0,0,1-5.61,6.7,64.89,64.89,0,0,1-13.84,10.6,84.75,84.75,0,0,1-16,7,104.36,104.36,0,0,1-17,3.88,160.84,160.84,0,0,1-17.36,1.46l-4.31.27a17.09,17.09,0,0,0-2.14.24l-2.14.32-2.13.32-2.1.5a40,40,0,0,0-4.17,1.1,49.93,49.93,0,0,0-15.38,7.66A42.3,42.3,0,0,0,480.75,303.91Zm0-.09a11.08,11.08,0,0,1,1-1.87c.38-.61.79-1.22,1.2-1.81s.87-1.17,1.32-1.74l1.4-1.67a42.75,42.75,0,0,1,3.07-3.1c.54-.48,1.06-1,1.62-1.45l1.72-1.34a50.68,50.68,0,0,1,15.46-8c1.36-.53,2.81-.78,4.21-1.17l2.12-.53,2.16-.35,2.15-.35a17.64,17.64,0,0,1,2.17-.28l4.36-.33c1.46-.12,2.89-.17,4.33-.26l2.16-.1,2.16-.19c2.88-.21,5.74-.58,8.59-1a94.41,94.41,0,0,0,32.66-10.7,66.69,66.69,0,0,0,13.76-10.33,53.85,53.85,0,0,0,5.62-6.54,36.5,36.5,0,0,0,4.29-7.43l.42.32a92.74,92.74,0,0,1-15.41,8.63,71,71,0,0,1-17,4.83c-5.82.93-11.71,1.3-17.57,1.71s-11.73.8-17.56,1.53c-1.46.15-2.91.35-4.36.56s-2.93.35-4.34.67a33.4,33.4,0,0,0-8.23,2.77,52,52,0,0,0-13.93,10.45,94.2,94.2,0,0,0-10.93,13.74q-2.42,3.68-4.6,7.5c-.72,1.28-1.43,2.57-2.1,3.88l-1,2-.48,1-.23.5-.12.25-.06.12C480.87,303.81,480.84,303.78,480.79,303.82Z"/><path class="cls-7" d="M414.25,253.58c.84.2,1.38,1.32,1.6,2.16.51,2,1,6,6,5.29,4.68-.69,7.46,1.38,7.26,5.34v0a1.7,1.7,0,0,1-3.06.8,3,3,0,0,1-.53-1.29c-.22-1.45-1.56-2.24-3.28-1.72-3.4,1-6.1.26-8.4-2.85a10.65,10.65,0,0,1-1.55-5.88C412.31,254.86,412.64,253.19,414.25,253.58Z"/><path class="cls-7" d="M412.54,258.07a2.87,2.87,0,0,0,3.59-1.18"/><path class="cls-7" d="M413,259.7c0,.2,2.61.75,3.56-1.09"/><path class="cls-7" d="M413.86,261.3a2.92,2.92,0,0,0,3.66-1.26"/><path class="cls-7" d="M516.67,300.57c-.39.55-1.36.6-2,.51-1.61-.23-4.65-1.07-5.56,2.74-.86,3.56-3.16,4.94-6,3.62h0a1.31,1.31,0,0,1,.31-2.43,2.32,2.32,0,0,1,1.08,0c1.11.27,2.07-.45,2.19-1.84a5.31,5.31,0,0,1,4.5-5.18,8.31,8.31,0,0,1,4.69.63C516.3,298.8,517.41,299.54,516.67,300.57Z"/><path class="cls-7" d="M513.92,298a2.22,2.22,0,0,0-.19,2.93"/><path class="cls-7" d="M512.13,297.84a2.23,2.23,0,0,0-.25,2.88"/><path class="cls-7" d="M564,295.59a2,2,0,0,0-1.89.16c-1.32.68-3.21,1.94-5.6-.7-5.17-5.7-10.87.74-9.54,2.36,1.78,2.16,3.22-5.16,7.67-1.08,1.85,1.69,2.69,3.36,5.41,3.12a7.64,7.64,0,0,0,3.85-1.94C564.2,297.22,564.94,296.26,564,295.59Z"/><path class="cls-7" d="M562.39,298.61a2,2,0,0,1-1-2.46"/><path class="cls-7" d="M560.83,299.14a2,2,0,0,1-1.06-2.41"/><path class="cls-7" d="M464,183.15a2,2,0,0,0,.17,1.89c.68,1.31,1.94,3.2-.69,5.6-5.69,5.18.75,10.87,2.37,9.53,2.16-1.78-5.16-3.2-1.09-7.67,1.69-1.85,3.36-2.69,3.11-5.41a7.64,7.64,0,0,0-1.94-3.85C465.63,182.93,464.67,182.2,464,183.15Z"/><path class="cls-7" d="M467,184.74a2,2,0,0,1-2.46,1"/><path class="cls-7" d="M467.56,186.3a2,2,0,0,1-2.4,1.07"/><path class="cls-8" d="M354.13,283.7s27.39-10.14,59.88-2.91l-7.35,36"/><line class="cls-3" x1="425.98" y1="310.15" x2="435.27" y2="331.3"/><polyline class="cls-9" points="442.57 351.18 449.53 344.85 465.63 343.42 474.5 351.18"/><polyline class="cls-9" points="486.68 333.96 485.72 338.95 493.97 349.24 478.56 356.39"/><path class="cls-7" d="M670.42,185.76s4.11,0,4.08,3.74c0,0,2.77-2.31,4.68-1.06,2.33,1.52,1.79,3.58.45,5.46,0,0,3.31-.78,3.71,3.56,0,0-10.42,4.39-13.82,1.26C668,197.34,668.45,189.33,670.42,185.76Z"/><path class="cls-10" d="M669.37,199.29s-.45-1.92-2.08-2.2-6.18-1.44-5.9-6a4.39,4.39,0,0,0,2.77,2.7C666.42,194.67,669.17,194.48,669.37,199.29Z"/><path class="cls-10" d="M676.82,205.46s-1.73-.22-2-1.62-1.54-5.29-5.55-4.64a3.64,3.64,0,0,1,2.52,2.18C672.58,203.29,672.53,205.72,676.82,205.46Z"/><path class="cls-8" d="M521.24,382.54s0-39.12-26.17-65.4"/><path class="cls-4" d="M456.39,136.14A34.71,34.71,0,0,1,471.87,141a34,34,0,0,1,6.47,5,32.21,32.21,0,0,1,5,6.5,35.74,35.74,0,0,1,3.29,7.5,49.38,49.38,0,0,1,1.83,7.94c.72,5.4,1,10.81,2.17,16.09a86.47,86.47,0,0,0,5.11,15.33c2.11,4.95,4.55,9.91,5.6,15.33.21,1.35.48,2.7.63,4.06s.18,2.74.22,4.11L502,227c0,1.37-.31,2.71-.46,4.06l-.27,2c-.11.67-.27,1.33-.41,2l-.84,4c-.65,2.64-1.45,5.24-2.17,7.85l-.1,0c.59-2.65,1.23-5.28,1.78-7.92l.69-4c.11-.66.25-1.33.33-2l.21-2c.12-1.35.35-2.68.37-4l.09-4-.27-4c-.15-1.33-.42-2.64-.63-4-1.08-5.25-3.4-10.16-5.46-15.18a77.08,77.08,0,0,1-4.77-15.58c-1.06-5.34-1.17-10.81-2-16.14-.18-1.34-.51-2.65-.8-4s-.71-2.6-1.21-3.85a36.07,36.07,0,0,0-3.47-7.25,34.46,34.46,0,0,0-11.17-11.33,37.75,37.75,0,0,0-15.09-5.37Z"/><path class="cls-4" d="M480.65,303.31A73.25,73.25,0,0,1,503.88,278a64.74,64.74,0,0,1,15.69-7.24,131.12,131.12,0,0,1,16.81-4c5.67-1,11.38-1.77,17.06-2.63a157.13,157.13,0,0,0,16.86-3.37,68.08,68.08,0,0,0,15.88-6.31c4.94-2.78,9.62-6.43,12.41-11.49,0,0,0,0,.07,0a0,0,0,0,1,0,.06,24.31,24.31,0,0,1-5.15,6.94,38.78,38.78,0,0,1-7,5.19,62.88,62.88,0,0,1-16,6.62c-11.19,3.09-22.75,3.89-34.1,5.55a96.16,96.16,0,0,0-16.79,3.76,60.71,60.71,0,0,0-15.35,7.6,85.47,85.47,0,0,0-23.59,24.66.05.05,0,0,1-.07,0A.06.06,0,0,1,480.65,303.31Z"/><path class="cls-4" d="M475.13,206.15a12.54,12.54,0,0,0-2.83,3.56,24.2,24.2,0,0,0-1.83,4.17,43.81,43.81,0,0,0-1.86,9,57.64,57.64,0,0,0-.43,9.2,67.27,67.27,0,0,0,1,9.18c1.07,6,2.68,12.07,2.87,18.35a22.68,22.68,0,0,1-.37,4.71,15.27,15.27,0,0,1-1.64,4.45c-1.56,2.75-3.58,5.07-5.36,7.6a.06.06,0,0,1-.07,0,.07.07,0,0,1,0-.07q1.19-2,2.43-3.95a41.69,41.69,0,0,0,2.33-3.95,17.46,17.46,0,0,0,1.63-8.77,76.58,76.58,0,0,0-1-9.14c-.48-3-1.05-6.08-1.38-9.16s-.6-6.16-.8-9.24a74,74,0,0,1-.05-9.3,34.18,34.18,0,0,1,2-9.13,22.19,22.19,0,0,1,2.1-4.19,11.38,11.38,0,0,1,3.22-3.37s.06,0,.07,0a0,0,0,0,1,0,.06Z"/><path class="cls-4" d="M409.32,235a38,38,0,0,0,11.81,6.85l1.61.57c.54.2,1.1.32,1.65.48a25.81,25.81,0,0,0,3.37.69,33,33,0,0,0,3.44.16c.58,0,1.15-.06,1.72-.1a12.1,12.1,0,0,0,1.71-.2l3.41-.57a22.63,22.63,0,0,1,3.49-.42,21.88,21.88,0,0,1,7,.57,15,15,0,0,1,10.52,8.72,0,0,0,1,1-.09,0h0a16.29,16.29,0,0,0-10.68-7.73,24.4,24.4,0,0,0-6.72-.66,30.1,30.1,0,0,0-3.41.26c-1.13.13-2.32.23-3.47.34s-2.33,0-3.49.11c-.58,0-1.16-.06-1.74-.09s-1.16,0-1.73-.11a35.83,35.83,0,0,1-6.87-1.27,26.21,26.21,0,0,1-11.62-7.57,0,0,0,0,1,0-.07Z"/><path class="cls-4" d="M534.34,112.18a46.16,46.16,0,0,0-10.07,25.93,44.85,44.85,0,0,0,.21,7c.23,2.35.56,4.7.93,7,.72,4.68,1.6,9.33,2.35,14,1.49,9.35,2.46,18.89,1.53,28.38a69.83,69.83,0,0,1-1,7.06,61.9,61.9,0,0,1-1.9,6.88A49.75,49.75,0,0,1,520,221.21a0,0,0,0,1-.05,0s0,0,0-.05a55.46,55.46,0,0,0,5.93-12.82,65.8,65.8,0,0,0,2.69-13.84c.85-9.4.1-18.88-1.16-28.25-.63-4.69-1.41-9.36-2.21-14s-1.67-9.35-1.5-14.16a44.27,44.27,0,0,1,3.12-13.9,39,39,0,0,1,7.51-12h.05A0,0,0,0,1,534.34,112.18Z"/><path class="cls-4" d="M621.42,123a51,51,0,0,0-15.32,13,33.5,33.5,0,0,0-7.65,18.43,94.62,94.62,0,0,1-1.64,10.09,28.37,28.37,0,0,1-4.08,9.45,37.09,37.09,0,0,1-6.93,7.59,68.22,68.22,0,0,1-8.3,5.95s0,0-.07,0a0,0,0,0,1,0-.06c5.38-4.1,10.7-8.46,14.42-14a30.82,30.82,0,0,0,4-9.12c.86-3.24,1.39-6.6,2-9.93a43.07,43.07,0,0,1,7.51-18.86,39.45,39.45,0,0,1,7.17-7.32,37.92,37.92,0,0,1,8.77-5.25,0,0,0,0,1,.06,0A0,0,0,0,1,621.42,123Z"/><path class="cls-4" d="M425.1,420a25.63,25.63,0,0,1,6.72-4.17,39.59,39.59,0,0,1,3.78-1.22,38.62,38.62,0,0,1,3.85-.95,13.38,13.38,0,0,1,4-.21,9,9,0,0,1,3.88,1.23,7.65,7.65,0,0,1,2.73,3,10,10,0,0,1,.94,3.88,0,0,0,0,1,0,0s0,0,0,0a12.5,12.5,0,0,0-1.38-3.61,7.7,7.7,0,0,0-2.63-2.63,12.45,12.45,0,0,0-7.41-1.3,17.37,17.37,0,0,0-3.83.78,30.17,30.17,0,0,0-3.59,1.56c-2.36,1.11-4.65,2.36-6.94,3.67a0,0,0,0,1-.05,0S425.09,420,425.1,420Z"/><path class="cls-4" d="M410.72,399.39a16.36,16.36,0,0,1,1.07-4.22,11,11,0,0,1,2.3-3.71,5.06,5.06,0,0,1,3.94-1.7,5.36,5.36,0,0,1,3.7,2.21,4.18,4.18,0,0,1,.66,2.15,5.17,5.17,0,0,1-.51,2.19,4.77,4.77,0,0,1-1.42,1.76,3,3,0,0,1-2.2.68,2.8,2.8,0,0,1-1.91-1.25,5.57,5.57,0,0,1-.55-1,1.41,1.41,0,0,1,0-1.19,2.69,2.69,0,0,1,1.62-1.51,3.42,3.42,0,0,1,2.17.11s0,0,0,0l0,0a3.22,3.22,0,0,0-2.08,0,2.4,2.4,0,0,0-1.39,1.42,1,1,0,0,0,0,.9,5.31,5.31,0,0,0,.55.89,2.39,2.39,0,0,0,1.62,1,2.53,2.53,0,0,0,1.82-.59,4.79,4.79,0,0,0,1.29-1.57,4.11,4.11,0,0,0,0-3.94,4.9,4.9,0,0,0-1.46-1.48,4.36,4.36,0,0,0-2-.75,3.63,3.63,0,0,0-2,.43,6.16,6.16,0,0,0-1.61,1.36,19.23,19.23,0,0,0-3.59,7.69,0,0,0,0,1,0,0A0,0,0,0,1,410.72,399.39Z"/><path class="cls-4" d="M411.41,392.25a31.49,31.49,0,0,0-1.75-5.53,7.75,7.75,0,0,0-1.55-2.43,5.28,5.28,0,0,0-2.43-1.44,2.83,2.83,0,0,0-2.57.49,3.71,3.71,0,0,0-1.27,2.35,3.57,3.57,0,0,0,.63,2.61,4.22,4.22,0,0,0,2.35,1.5s0,0,0,0l0,0a5.61,5.61,0,0,1-1.44-.4,3.7,3.7,0,0,1-1.2-.92,3.77,3.77,0,0,1-.84-2.9A3.91,3.91,0,0,1,402.8,383a3.17,3.17,0,0,1,3-.46,6.18,6.18,0,0,1,2.45,1.68,13.16,13.16,0,0,1,1.74,2.39,10.82,10.82,0,0,1,1.07,2.76,12.63,12.63,0,0,1,.42,2.92s0,0,0,0Z"/><path class="cls-4" d="M464,306.75a15.84,15.84,0,0,1,2.76-6.15,14.28,14.28,0,0,1,2.37-2.42,9.42,9.42,0,0,1,2.94-1.67,4,4,0,0,1,.84-.2,3.57,3.57,0,0,1,.87-.08,2.86,2.86,0,0,1,1.68.57A3.55,3.55,0,0,1,476.8,300a3.06,3.06,0,0,1-.62,1.69,3.41,3.41,0,0,1-1.45,1,7.79,7.79,0,0,1-3.38.33l0,0s0,0,0,0a9.11,9.11,0,0,0,3.23-.64,2.68,2.68,0,0,0,1.7-2.38,3.25,3.25,0,0,0-1.11-2.78,2.77,2.77,0,0,0-1.42-.56,3.71,3.71,0,0,0-.81,0,3.63,3.63,0,0,0-.8.14,6.82,6.82,0,0,0-2.91,1.53,11.82,11.82,0,0,0-2.15,2.53,27.14,27.14,0,0,0-3,5.92l0,0Z"/><path class="cls-4" d="M554,196.91c2.17-1,3.56-3.08,4.78-5.08a22.38,22.38,0,0,0,2.88-6.5,31.68,31.68,0,0,0,.77-7.06c0-1.2,0-2.37,0-3.59a17.74,17.74,0,0,0,.06-1.78c-.05-.55-.09-1.24-.64-1.52,0,0,0,0,0,0s0,0,0,0a1.08,1.08,0,0,1,.64.65,3.43,3.43,0,0,1,.23.89,12.19,12.19,0,0,1,.08,1.81c0,.59,0,1.17.07,1.78s0,1.2,0,1.8a23.62,23.62,0,0,1-1,7.13,35.76,35.76,0,0,1-1.28,3.36c-.48,1.1-.92,2.22-1.5,3.28A14.85,14.85,0,0,1,557,195a7.14,7.14,0,0,1-3,2s0,0,0,0A0,0,0,0,1,554,196.91Z"/><path class="cls-4" d="M608.54,172.6a17.79,17.79,0,0,1,8.2-2,27.42,27.42,0,0,1,4.25.4c1.4.22,2.78.54,4.16.68a9.12,9.12,0,0,0,4.09-.42,5.37,5.37,0,0,0,3.08-2.58,3.1,3.1,0,0,0-.85-3.72,4.13,4.13,0,0,0-4-.56,4.19,4.19,0,0,1,4.06.46,3.3,3.3,0,0,1,1,3.92,5.85,5.85,0,0,1-3.18,2.81,8.62,8.62,0,0,1-4.26.54c-2.85-.27-5.57-1.08-8.37-1.1A19.85,19.85,0,0,0,608.54,172.6Z"/><path class="cls-4" d="M641.79,138.92a9.81,9.81,0,0,1,2.45-3.87,20.49,20.49,0,0,1,3.57-2.8,49.35,49.35,0,0,1,8.12-3.92,49.8,49.8,0,0,0-8,4.13,20.52,20.52,0,0,0-3.44,2.85,9.31,9.31,0,0,0-2.24,3.75.25.25,0,0,1-.48-.14Z"/><path class="cls-4" d="M638.24,108.92a23.89,23.89,0,0,1,4,4.27,17.83,17.83,0,0,1,2.5,5.31,22,22,0,0,1,.84,5.82,30.84,30.84,0,0,1-.58,5.84l0,0s0,0,0,0c.08-2,.23-3.89.13-5.82a26.92,26.92,0,0,0-.73-5.73,17.26,17.26,0,0,0-2.32-5.27,23.41,23.41,0,0,0-3.83-4.37,0,0,0,0,1,0,0S638.23,108.91,638.24,108.92Z"/><path class="cls-7" d="M532.11,308.12c.52,5.28,5.28.44,6,5.49"/><path class="cls-7" d="M574.94,120.22c-5.82-.27-1.32,5.66-6.93,5.67"/><path class="cls-7" d="M674.89,145.46c4.65,4.08-5.66,4.08-3.68,8.16"/><path class="cls-7" d="M529.9,85.4c-4.74,3.4,2.47,5.27-1.93,8.75"/><path class="cls-7" d="M391.77,264.27c-3-3.71-4.64,3.52-7.7-.48"/><path class="cls-7" d="M442.22,167.83c-2.17,5,5.16,3.53,3.73,10"/><circle class="cls-4" cx="547.83" cy="131.98" r="1.07"/><circle class="cls-4" cx="568.01" cy="91.94" r="1.07"/><circle class="cls-4" cx="564.46" cy="243.02" r="1.07"/><circle class="cls-4" cx="532.11" cy="326.26" r="1.07"/><circle class="cls-4" cx="435.27" cy="296.11" r="1.07"/><circle class="cls-4" cx="474.5" cy="164.09" r="1.07"/><path class="cls-4" d="M430.49,442.16a8.35,8.35,0,0,0,1.34-4.46,2.44,2.44,0,0,0-.74-1.87c-.53-.4-1.44-.07-2.12.27a6.54,6.54,0,0,0-3.19,3.46,3.52,3.52,0,0,0-.06,2.31,6.38,6.38,0,0,0,1.36,1.94,3.85,3.85,0,0,0,2,1.16,5.53,5.53,0,0,0,2.29,0,5.69,5.69,0,0,0,3.61-2.64,6.5,6.5,0,0,0,.9-4.41,14.42,14.42,0,0,0-1.37-4.53,4.84,4.84,0,0,0-3.27-2.83,6.49,6.49,0,0,0-4.35,1.11,18.85,18.85,0,0,0-2,1.38,6.47,6.47,0,0,0-1.35,1.87c-.77,1.43-1.44,2.93-2.09,4.44-2.57,6.06-4.74,12.29-7.1,18.45l-.09,0c1.09-3.1,2.08-6.25,3.15-9.37s2.19-6.23,3.41-9.3a46.16,46.16,0,0,1,2-4.55,7,7,0,0,1,1.51-2.12,17.89,17.89,0,0,1,2-1.52,9.83,9.83,0,0,1,2.33-1.12,5.33,5.33,0,0,1,2.67-.22,4.86,4.86,0,0,1,2.42,1.22,8,8,0,0,1,1.58,2.11,14.42,14.42,0,0,1,1.48,4.89,7.44,7.44,0,0,1-1.14,5.05,6.4,6.4,0,0,1-4.25,2.9,5.62,5.62,0,0,1-2.61-.11,4.41,4.41,0,0,1-2.16-1.44,9.78,9.78,0,0,1-.76-1,4.07,4.07,0,0,1-.58-1.16,3.82,3.82,0,0,1,.1-2.54,7.35,7.35,0,0,1,3.33-3.69,5.86,5.86,0,0,1,1.18-.49,2,2,0,0,1,1.4,0,2.13,2.13,0,0,1,1,1,3.87,3.87,0,0,1,.33,1.35,6,6,0,0,1-2.16,4.56Z"/><path class="cls-11" d="M228.85,555.74H180V668.65H142.19V555.74H13V537.89L151.38,295.25H180V521.61h48.84ZM142.19,404l.93-26.57-12.87,21.84L73.16,499.55,61.09,521.08l20.9.53h60.2Z"/><path class="cls-4" d="M141.76,404v9.41l-.14,2.26c-.21,4.24,0,8.16,0,12.68,0,2,.06,3.91.1,5.85v33.63c-.09,1.43-.21,2.76-.22,4.41,0,2.23.12,3.76.16,5.92.18,11.44-.46,21.25-.22,32.1.07,3.91.13,7.54.2,11.39l.51-.52-7.78.07H98.2l-5.49-.1c-3.18-.06-6.23,0-9.19,0s-5.82,0-8.65-.07l-4.14-.1-2.66-.11c-1.91-.1-4.91-.3-7-.35l.55,1h0c.73-1.3,1.4-2.66,2.09-3.95l1.87-3.26c1.42-2.4,2.1-3.36,4.07-7a5.84,5.84,0,0,1,.3-.91l.36-.66c.69-1.08,1.44-2.28,2.09-3.31l.8-1.67A99.74,99.74,0,0,0,79,490.5c.5-.87,1-1.76,1.56-2.69,1.37-2.44,2.34-4.39,3.44-6.5l.51-.88c1.59-2.68,2.86-4.84,4.23-6.71l.68-1.39a102.26,102.26,0,0,0,5.65-10.44l.13-.23,1.35-2.27a86.53,86.53,0,0,0,4.47-7.58c.74-1.28,1.49-2.6,2.31-4q5.59-9.94,11.53-20.47c.35-.63.72-1.27,1.08-1.9.91-1.53,1.83-3.06,2.75-4.68.57-1,1-1.89,1.48-2.7,2.42-4.21,4.81-8.43,6.89-12.36l.11-.21,1.92-3.25c.1-.09,0,.08.16-.07,1.16-2.15,2.46-4.45,3.82-6.7.17-.27,0,.07.1,0,1.18-2.22,1.9-3.29,1.88-2.78.3-.63,1.14-2.13,1.49-2.84,1.07-1.35,5-8.2,7.11-12.1l-1.24-.36v1.69c-.14,3.08-.29,6.16-.43,9.25-.22,5.53-.27,7.81,0,8.11l-.26,7.37H142V404c0-.07,0-.09,0-.15h.47l0-.49.1.11c.12-4.34.17-7.84.32-11.59.32-4.34.48-9,.61-13.87l0-.56a.48.48,0,0,0-.48-.51.49.49,0,0,0-.44.24l-2.1,3.57-8.94,15.18c-1.6,2.66-3.44,5.75-4.84,8.39-.17.34-.31.62-.47.91L118,420.06l-1.84,3.23-.59.91c-2.73,4.18-4.26,6.78-7.54,12.61-7.48,13.3-16.09,27.69-23,40.76L81,485c-4,7.08-8.08,14.14-12,21.26-.66,1.07-1.32,2.18-1.95,3.42-.58.22-3.93,6.08-6.63,11h0a.78.78,0,0,0,.31,1,.92.92,0,0,0,.36.1c2.49,0,4.75.06,6.14,0,.19,0,0-.07.14-.1l18.6.41c1.64-.11,3.6-.16,5-.27h6.11c2,.16,3.36.4,5.83.49,1.6-.41,7.62-.41,11.06-.4l6.31.05c.16,0,.26,0,.24.08,2,0,3.92,0,6,0l-.33,0a31.59,31.59,0,0,0,6.17-.26h1.76c2.86.1,5,.25,8.14.28a.61.61,0,0,0,.63-.61h0v-.79c0-3.64-.15-7.58-.19-11.32,0-2.17-.06-3.61-.1-5V486.69c.17-6.59.1-12.25.1-19.3,0-3.48.06-8.25-.1-11.41V404Zm-7.58-10.54,2.18-3.69.09-.1Zm7.73-12.93,0,0,.2-.33Z"/><path class="cls-4" d="M229.16,556.05l.12-26.16c0-1.84.08-3.91.14-6.28,0-.68,0-1.35,0-2a.61.61,0,0,0-.58-.61h0c-11-.16-21.24,0-32.95.07l-15.89.1.43.44V428.72c.09-4,.21-7.62.22-12.16,0-6.15-.12-10.37-.16-16.31-.18-31.53.45-58.55.22-88.47,0-5.67-.08-11.13-.12-16.53h0a.59.59,0,0,0-.59-.59l-28.63.13a.48.48,0,0,0-.41.23c-1.12,2-2.43,4.29-3.77,6.65-3.22,5.64-6.5,11.42-9.78,17.17L97.78,388.36c-2.57,4.43-5.14,8.86-7.59,13.1-8.79,15.18-16.58,29.19-24.27,42.75l-5.65,9.91-3.68,6.37c-2.65,4.55-6.86,11.68-9.67,16.62-2,3.57-4,7.22-6,10.75-1.78,3.08-3.5,6.09-5.15,9-3.88,6.66-5.58,9.4-11.21,19.43-.07.28-.76,1.58-1.13,2.35l-1,1.78-5.53,9.27-2.41,4.48-2.06,3.43a.64.64,0,0,0-.08.3v0c-.1,5.24-.14,11.72-.11,17.85h0a.76.76,0,0,0,.76.76c3.64,0,7.14-.06,10.23-.14l8.56,0c7.7,0,13.71-.13,20.26-.21h2.8c8.59.06,15.48.09,21.84.36l4.26-.1c8.16.14,27.49,0,32.68-.25h.75l7.29,0c7.36.18,13.77.21,20.52.17l-.66-.67c0,1.19,0,2.44,0,3.7,0,4.08,0,8.28,0,12.8q0,31.46.11,64.76v6c0,4.92-.06,9.84-.08,15,0,3.2,0,5.95,0,8.48,0,.74,0,1.48,0,2.2a.57.57,0,0,0,.57.57h0c12.65,0,25.23,0,36.79-.13h1a.43.43,0,0,0,.43-.43h0l.06-10c0-.34.07.15.11-.38-.05-6.72-.1-14-.07-21.26,0-.87.08.11.1-.07-.12-6.92,0-10.48.2-9.23,0-1.93-.12-6.66-.16-8.84.28-5.39.09-33.12-.07-43.35,0-6.58.07-13.14.1-19.74l-.7.7,5.83,0c15.39,0,21.77-.08,22.46-.33l20.43-.08-.18-.19H229l-.46,0-.33-.33h-1.33a1.07,1.07,0,0,1,.23-.07l-31.75,0c-5-.08-10-.13-15.32-.15a.5.5,0,0,0-.5.5h0v35.83c0,16.13,0,32.35,0,48.54,0,8.55-.1,18.44,0,26.68,0,.69,0,1.3,0,1.86l.47-.46-1,0-36.86.07.38.37c0-3.32,0-6.7,0-10.08V648.34c0-1,0-2,.06-3,.31-13.73.35-22.06.32-40.5,0-15.94,0-32.48,0-49.12a.76.76,0,0,0-.76-.76c-27.17-.05-54.56-.08-79.85.19l-23.28.23H13l.34.34V537.89l0,.17,11.6-20.34c1.76-3,3.55-6.07,5.4-9.42,1.43-1.37,20.13-34.43,26.15-45.24.24-.48-.09,0,.1-.39,6.61-11.61,20.82-36.76,25.43-44.5l6.59-12.09,8.33-14.61c2.85-4.68,4.94-7.87,8.39-13.72,1.83-4,10-18.45,14.75-26.69L128.71,336c.23-.36.38-.59.38-.52,2.81-4.84,5.36-9.38,8.12-14.24l-.4.8c4.08-7,7.2-12.7,8.19-14.9l2.39-4.2,4.4-7.44-.41.24c5,.08,9.85.15,16,.16l12.68-.05-.59-.59c.05,6.15.09,12.44.14,18.53s.07,10,.1,13.69v49.16c-.17,18.16-.11,33.78-.1,53.19,0,9.59-.07,22.76.09,31.44v60.35a.35.35,0,0,0,.35.34h48.84l-.35-.34.1,33.89Zm-48.72,74.64V618.87l0-.36Zm.1-41.5v0Z"/><path class="cls-4" d="M180.34,521.89l3.66-4.22c.3-.27.62-.58,1-.93A64.61,64.61,0,0,0,189.9,511l.32-.4,0,0a.46.46,0,0,0,.11-.32l-.08-3v-20c.08-.85.2-1.64.22-2.62,0-1.33-.13-2.24-.16-3.52-.19-6.8.45-12.63.21-19.08-.14-3.91-.24-7.35-.26-11.39,0-1.41,0-2.84,0-4.27V429.19c0-1.11.06-2.21.1-3.27.11-3.78-.06-7.24-.1-10.6v-2.47c0-.53,0-1.05,0-1.58.05-1.14.17-2.92.17-4.15,0-.88-.09-1.79-.11-2.66s0-1.51,0-2.23a48.29,48.29,0,0,0,.11-4.83c-.08-.06-.13-.38-.19-.56v-.45c.07-.76.13-1.6.21-2.32l-.12-1.1a35.34,35.34,0,0,0,.06-6.92c0-.6,0-1.21,0-1.85,0-1.66-.13-3-.21-4.37v-.61a30.12,30.12,0,0,1,.36-4.71c0-.31-.07-.62-.1-.92a35.74,35.74,0,0,0-.26-7v-.16c0-.54,0-1.05,0-1.57a30.83,30.83,0,0,0,.15-5.23c0-.88,0-1.78,0-2.76q-.06-6.78-.11-14v-1.3c0-1.06.08-2.12.08-3.22,0-.69,0-1.29,0-1.83,0-2.89,0-5.77-.13-8.42V328c0-.75,0-1.5,0-2.25,0-.08.08,0,.11-.09,0-1.45-.1-3-.07-4.58,0-.19.09,0,.1,0-.11-1.49,0-2.26.21-2-.07-.41-.1-1.44-.16-1.91a22.9,22.9,0,0,0,.14-3.46h0a1,1,0,0,0-.09-.36c-1-1.88-2.22-4.06-2.88-5.15-.79-1.65-1.59-3.3-2.42-4.94-1.48-2.93-2.12-4.13-2.45-4.16l-2-3.89-.23.12,0-.09v.11l-.42.21.13.26h-.12c1.2,2.28,2.22,4.1,3.23,6.1,1,2.37,2.3,4.85,3.66,7.4.4.78.81,1.58,1.28,2.48l1.1,2.15,0-.22v8.05c0,1.85-.09,4,0,5.76l0,.61c0,3.37.05,6.73.1,10.13v2.2l0,.65a66.9,66.9,0,0,0-.33,8.73c.08,9.07-.28,19,.16,27.83.08,1.76.15,3.38.22,5v14.53a20,20,0,0,0,0,2.34c-.56.41-.43,8.6-.3,11.27,0,.12.07,0,.11.09,0,2.88.13,9.11,0,11.05.11,1,.16,2.14.26,3v3.63c-.16,1.18-.39,2-.49,3.47.41.95.42,4.53.41,6.58,0,.92,0,2.36-.06,3.75,0,.09,0,.15-.07.14-.05,1.2,0,2.33,0,3.53a.8.8,0,0,1-.05-.19,11.62,11.62,0,0,0,.26,3.67v1c-.11,1.86-.27,3.24-.28,5.31s.14,4.5.18,6.73c0,1.29.06,2.15.1,2.95V476.1c-.17,3.92-.1,7.28-.1,11.47,0,2.07-.06,4.91.1,6.78v15.94l.09-.22-9.82,11.31Zm9.93-202.22v-2.55l0-.08ZM189,310.8v0l-.1-.21Z"/><path class="cls-4" d="M229.14,521.93l1.2-1.12a3,3,0,0,0,.38-.17,5.43,5.43,0,0,0,1.58-1.52l.68-.76,4.28-4A3.17,3.17,0,0,0,238,514a7.22,7.22,0,0,0,.64-.82,19.86,19.86,0,0,1,2.9-2.39.7.7,0,0,0-.37-1.24H241a8.62,8.62,0,0,0-1.83,0,30.14,30.14,0,0,1-3.32.26l-1.24,0h-5l-1-.1a19.47,19.47,0,0,0-3.09.1h-.72l-.46,0a8,8,0,0,0-1.21-.17,7,7,0,0,0-.78.11l-.65,0a3.94,3.94,0,0,0-1.41-.11c0,.07-.11.12-.17.18H220c-.23-.07-.47-.12-.68-.2a1.52,1.52,0,0,0-.32.12,3,3,0,0,0-2-.07l-.54,0a6.09,6.09,0,0,0-1.28.22H215a2.85,2.85,0,0,1-1.38-.36l-.27.09a3.21,3.21,0,0,0-2.06.26h0l-.46-.05a2.63,2.63,0,0,0-1.53-.14c-.25,0-.52,0-.8,0l-4.08.11H204a7.3,7.3,0,0,0-.94-.08,2.92,2.92,0,0,0-.54.05,11.6,11.6,0,0,0-2.45.13h0l-.66-.06s0-.07,0-.11a7.33,7.33,0,0,1-1.34.07c-.05,0,0-.08,0-.1-.44.12-.66,0-.59-.2-.12.06-.42.1-.55.16-.34-.28-2.09-.09-2.73.07-.54-.05-1.07-.1-1.61-.11-1,0-1.35,0-1.4.28h-1.28v.26h0l0,.05v.47h.08l0,.1c.76,0,1.36-.1,2-.08a9.11,9.11,0,0,0,2.41.13h.82c1,0,2,0,3.06,0a9.44,9.44,0,0,0,1.68,0l.17-.05c1,0,2,0,3-.1h.64l.19.06a5.94,5.94,0,0,0,2.55.32c2.65-.08,5.56.28,8.12-.15l1.47-.23h4.24a1.55,1.55,0,0,0,.68,0c.12.56,2.51.43,3.29.3,0,0,0-.07,0-.1a17,17,0,0,1,3.22,0c.29-.11.63-.16.87-.27h1.06a4.12,4.12,0,0,0,1,.49c.28-.41,1.32-.41,1.92-.4l1.1,0s0,.05,0,.07a5.91,5.91,0,0,0,1,0l-.06,0c.52.05.92,0,1.07-.26h.31a7.47,7.47,0,0,0,1.55.29c.63,0,1.31-.15,2-.19a5.23,5.23,0,0,0,.86-.1H241l-.24-.6-1.65,1.54a20.64,20.64,0,0,0-2.53,2.2,8,8,0,0,0-1.38,1.42v0l-6.6,6.13Zm-31.52-12.07h-.74l0,0Zm-2.61-.1h0Z"/><path class="cls-4" d="M229.16,556l.84-.87.3-.12c.53-.24.76-.72,1.11-1.2l.45-.61,3-3.12a1.61,1.61,0,0,0,.55-.25c.21-.2.25-.44.41-.67.89-1.19,2.23-1.65,3-2.82a15.9,15.9,0,0,1,1.53-2c.2-.23.41-.45.63-.68l.31-.33a.42.42,0,0,0,.12-.3v-3.29l.1-.71a10.69,10.69,0,0,0-.1-2.29v-.54a2,2,0,0,1,.05-.34,5.47,5.47,0,0,0,.16-.9,4,4,0,0,0-.11-.58,4,4,0,0,0,0-.48,2.21,2.21,0,0,0,.11-1.05c-.07,0-.12-.08-.18-.12v-.1c.07-.16.13-.34.21-.5s-.08-.16-.13-.24a1.71,1.71,0,0,0,.07-1.5c0-.13,0-.26,0-.4a3.57,3.57,0,0,0-.22-1V529a1.81,1.81,0,0,1,.37-1l-.1-.2a1.85,1.85,0,0,0-.26-1.53v0l0-.34a1.5,1.5,0,0,0,.14-1.14,3.83,3.83,0,0,0,0-.59c0-1-.07-2-.11-3v-.28a3.27,3.27,0,0,0,.08-.7,1.62,1.62,0,0,0,0-.4,6.41,6.41,0,0,0-.13-1.82v0l.06-.49s.07,0,.11,0a4,4,0,0,1-.07-1s.08,0,.1,0c-.12-.32,0-.49.2-.43-.06-.09-.09-.31-.16-.41.28-.25.09-1.55-.06-2a11.93,11.93,0,0,0,.1-1.19c0-.71,0-1-.28-1v-.95h-.26v0l-.05,0h-.47v.07l-.1,0c0,.56.1,1,.08,1.5a5,5,0,0,0-.13,1.79v.6c0,.76,0,1.52,0,2.27a5.24,5.24,0,0,0,0,1.25.5.5,0,0,0,0,.13c0,.73,0,1.46.1,2.2v.48l-.06.14a3.35,3.35,0,0,0-.32,1.89c.08,2-.28,4.13.15,6l.23,1.09v3.15a.88.88,0,0,0,0,.51c-.56.09-.43,1.86-.3,2.44,0,0,.07,0,.1,0a9.37,9.37,0,0,1,0,2.39c.11.22.17.47.27.65v.79a2.78,2.78,0,0,0-.49.75c.41.2.41,1,.41,1.42l-.06.82a.11.11,0,0,1-.07,0,1.41,1.41,0,0,0,0,.41l.16-.4-.23.26s0,0,0-.06c-.3.24-.45.51-.36.76l-.16.16a4.29,4.29,0,0,0-1,.63c-.33.33-.57.8-.88,1.18a3.06,3.06,0,0,0-.37.53L236,547.83a11.63,11.63,0,0,0-1.81,1.71,4.8,4.8,0,0,0-.95,1.13v0l-4.64,4.81Zm12.29-40v-.55l0,0Zm.1-1.94h0v0Z"/><path class="cls-4" d="M180.37,668.9l1.54-2.29.48-.48a15.77,15.77,0,0,0,2-3.11c.3-.49.59-1,.88-1.48l4.88-7.27a.41.41,0,0,0,.08-.24v-1.11a8.25,8.25,0,0,0,.22-1.29c0-.66-.13-1.11-.16-1.74-.19-3.36.45-6.23.21-9.42-.14-1.93-.24-3.63-.26-5.62,0-.69,0-1.4,0-2.1v-8.53c0-.54.06-1.09.1-1.61.11-1.87-.06-3.57-.1-5.23v-1.22c0-.26,0-.52,0-.78.05-.56.17-1.44.17-2,0-.43-.09-.88-.11-1.31s0-.75,0-1.1a11.86,11.86,0,0,0,.11-2.39c-.08,0-.13-.18-.19-.27V608c.07-.38.13-.79.21-1.15l-.12-.54a8.7,8.7,0,0,0,.06-3.42,9,9,0,0,0,0-.91,19.3,19.3,0,0,0-.21-2.16v-.3a7.58,7.58,0,0,1,.36-2.32c0-.16-.07-.31-.1-.46a8.79,8.79,0,0,0-.26-3.47v-.08l0-.78a7.57,7.57,0,0,0,.15-2.58c0-.43,0-.88,0-1.36,0-2.24-.08-4.53-.11-6.9V581c0-.52.08-1.05.08-1.59,0-.34,0-.63,0-.9a35.29,35.29,0,0,0-.13-4.16v-.06l0-1.11s.08,0,.11,0c0-.71-.1-1.49-.07-2.26,0-.09.09,0,.1,0-.11-.73,0-1.11.21-1-.07-.2-.1-.71-.16-.94a16.82,16.82,0,0,0-.07-4.62c.05-.9.09-1.8.11-2.71,0-1.62,0-2.29-.28-2.38V557H190v0l0,0h-.48v.14l-.09,0c0,1.27.09,2.3.07,3.4a24.78,24.78,0,0,0-.12,4.08v6.55a26.9,26.9,0,0,0,0,2.84c0,.11,0,.2,0,.3,0,1.66.05,3.32.1,5v1.08l0,.32a16.47,16.47,0,0,0-.33,4.31c.08,4.48-.28,9.4.16,13.74l.22,2.48v7.16a5,5,0,0,0,0,1.16c-.56.2-.43,4.25-.3,5.56,0,.06.07,0,.11,0a53.82,53.82,0,0,1,0,5.45c.11.48.16,1.06.26,1.47v1.79a11,11,0,0,0-.49,1.71c.41.47.42,2.24.41,3.25,0,.45,0,1.16-.06,1.85,0,0,0,.07-.07.07a16.83,16.83,0,0,0,0,1.74.24.24,0,0,1-.05-.09,3,3,0,0,0,.26,1.81v.51a21,21,0,0,0-.28,2.62c0,1.07.14,2.23.18,3.32,0,.64.06,1.06.1,1.46v5.24c-.17,1.93-.1,3.59-.1,5.66,0,.3,0,.62,0,1l.08-.25a14.52,14.52,0,0,0-1.23,2v0l-8.49,12.64Zm9.9-98.73v-1.26l0,0Zm.09-4.42h0v0Z"/><path class="cls-4" d="M63.64,520.3l3-1.66c.23-.07.49-.17.79-.28a24.42,24.42,0,0,0,4.05-2.27c.62-.37,1.23-.74,1.83-1.12l10.81-5.92.11,0,.09-.06.09-.12a9.18,9.18,0,0,0,.9-1.22c.42-.7.56-1.26.92-2,1.87-3.76,4.18-6.59,5.9-10.18,1-2.17,2-4.08,3.18-6.27.42-.75.84-1.53,1.27-2.3l5.17-9.3,1.07-1.71c1.23-2,2.11-3.94,3.08-5.77l.74-1.33.51-.83c.38-.59,1-1.49,1.39-2.15.26-.48.46-1,.7-1.49s.48-.8.7-1.19a19.13,19.13,0,0,0,1.54-2.55c-.05-.07,0-.26,0-.39l.12-.24c.29-.38.59-.81.88-1.16l.22-.65a13.33,13.33,0,0,0,2.13-3.7c.19-.31.38-.64.57-1,.49-.9.77-1.66,1.12-2.46l.18-.33a11.64,11.64,0,0,1,1.73-2.36l.19-.55a13.85,13.85,0,0,0,1.89-3.92l0-.08.51-.83a11.73,11.73,0,0,0,1.69-2.75c.27-.46.55-.95.83-1.48q2-3.68,4.09-7.58l.39-.7c.35-.55.71-1.1,1-1.7.2-.37.36-.7.5-1,.88-1.55,1.74-3.1,2.41-4.6l0-.07.72-1.19c.06,0,.06.06.12,0,.4-.8.82-1.68,1.32-2.5.06-.1.06,0,.08,0,.35-.86.65-1.24.78-1,.07-.25.35-.82.43-1.1a25.9,25.9,0,0,0,2.74-5.08c.6-1,1.18-1.92,1.75-2.91,1-1.75,1.39-2.5,1.19-2.73l1.32-2.36-.23-.13,0-.05-.07,0-.42-.23-.08.15a.27.27,0,0,1-.07-.08c-.75,1.4-1.31,2.56-2,3.75a42.32,42.32,0,0,0-2.58,4.39l-.84,1.51c-1,1.88-2.09,3.76-3.13,5.65-.56,1-1.28,2.09-1.73,3.1a2.55,2.55,0,0,0-.14.35c-1,1.82-2,3.64-2.94,5.5l-.66,1.19-.25.32a25.89,25.89,0,0,0-2.9,4.55c-2.65,4.92-5.94,10.12-8.2,15.07-.45,1-.87,1.89-1.3,2.82L110.69,460a6.75,6.75,0,0,0-.73,1.24c-.61-.05-2.95,4.43-3.64,5.93,0,.08.06,0,.07.1-.85,1.56-2.61,5-3.35,5.94-.2.57-.5,1.23-.65,1.73l-1.09,1.95a15.18,15.18,0,0,0-1.47,1.63c.07.71-1,2.65-1.61,3.74l-1.18,2c-.05,0-.08.06-.1,0-.4.63-.71,1.25-1.06,1.9a.32.32,0,0,1,0-.12,4.36,4.36,0,0,0-.87,2.1l-.32.56c-.65.95-1.21,1.61-1.84,2.72s-1.22,2.5-1.85,3.72c-.37.7-.59,1.18-.8,1.64l-3.17,5.72c-1.28,1.95-2.21,3.74-3.4,5.9l.17-.18-.23.13a34.73,34.73,0,0,0-3.62,2.1l0,0-16.67,9.16Zm70.94-101.73.76-1.37,0,0Zm2.76-4.78h0l.07-.12Z"/><path class="cls-4" d="M84,509h1.4l.34.14a4.13,4.13,0,0,0,1.88,0l.88-.1h5a2.07,2.07,0,0,0,.66.23,4.41,4.41,0,0,0,.88-.17c1.7-.18,3.16.46,4.77.22a22.35,22.35,0,0,1,2.86-.26h5.38l.82.1a15.39,15.39,0,0,0,2.66-.1h.61l.4,0a5.79,5.79,0,0,0,1,.17c.22,0,.44-.08.66-.11l.56,0a3.11,3.11,0,0,0,1.21.11c0-.08.1-.12.14-.18h.11c.19.07.4.12.59.2l.27-.12a2.2,2.2,0,0,0,1.73.06,3.59,3.59,0,0,0,.47,0,5.84,5.84,0,0,0,1.09-.22h.15a2.19,2.19,0,0,1,1.18.36l.23-.09a2.47,2.47,0,0,0,1.77-.26h0l.39.05a2,2,0,0,0,1.31.14,5.22,5.22,0,0,0,.69,0l3.5-.11H130a4.36,4.36,0,0,0,.81.08,2.16,2.16,0,0,0,.46-.05,8.54,8.54,0,0,0,2.1-.13h0l.56.06s0,.08,0,.11a6.18,6.18,0,0,1,1.15-.07c.05,0,0,.08,0,.1.38-.11.57,0,.5.21.1-.07.36-.1.48-.16.29.27,1.79.09,2.34-.07.46,0,.92.09,1.38.11.82,0,1.16,0,1.2-.28h1.1v-.27h0s0,0,0-.05v-.48h-.07s0-.06,0-.09c-.64,0-1.16.09-1.72.07a6.74,6.74,0,0,0-2.07-.13h-.7c-.87,0-1.75,0-2.62,0a6.94,6.94,0,0,0-1.44,0l-.15.05c-.85,0-1.69,0-2.54.1h-.55l-.16-.06a4.41,4.41,0,0,0-2.19-.32c-2.27.08-4.76-.28-7,.15l-1.26.23h-3.64a1.14,1.14,0,0,0-.58,0c-.11-.56-2.16-.43-2.83-.31,0,0,0,.07,0,.11a13.11,13.11,0,0,1-2.76,0c-.25.11-.54.16-.75.27h-.91a3.46,3.46,0,0,0-.86-.5c-.24.41-1.14.42-1.65.41-.23,0-.59,0-.94-.06,0,0,0,0,0-.07a5.29,5.29,0,0,0-.89,0,.23.23,0,0,1,0-.05c-.44-.05-.79,0-.92.27h-.26a5.25,5.25,0,0,0-1.33-.29c-.54,0-1.13.14-1.68.18a4.92,4.92,0,0,0-.74.1H96.35a16,16,0,0,0-2.87-.1,6,6,0,0,0-1.7.1H84Zm51.47,0h.64l0,0Zm2.24.1h0Z"/><path class="cls-11" d="M746.17,555.74H697.32V668.65H659.51V555.74H530.32V537.89L668.69,295.25h28.63V521.61h48.85ZM659.51,404l.92-26.57-12.86,21.84L590.48,499.55l-12.07,21.53,20.9.53h60.2Z"/><path class="cls-4" d="M659.08,404v9.41c0,.66-.09,1.41-.14,2.26-.21,4.24,0,8.16,0,12.68,0,2,.06,3.91.1,5.85v33.63c-.09,1.43-.21,2.76-.22,4.41,0,2.23.12,3.76.16,5.92.18,11.44-.46,21.25-.22,32.1.07,3.91.13,7.54.2,11.39l.51-.52-7.78.07H615.52l-5.49-.1c-3.18-.06-6.23,0-9.19,0s-5.82,0-8.65-.07l-4.14-.1-2.66-.11c-1.91-.1-4.91-.3-7-.35l.55,1h0c.72-1.3,1.4-2.66,2.09-3.95.64-1.12,1.27-2.21,1.86-3.26,1.43-2.4,2.1-3.36,4.08-7a4.93,4.93,0,0,1,.3-.91l.36-.66,2.09-3.31.8-1.67a101.68,101.68,0,0,0,5.81-10.09l1.55-2.69c1.38-2.44,2.35-4.39,3.45-6.5l.51-.88c1.59-2.68,2.86-4.84,4.23-6.71l.68-1.39a102.26,102.26,0,0,0,5.65-10.44l.13-.23,1.35-2.27a86.53,86.53,0,0,0,4.47-7.58c.74-1.28,1.49-2.6,2.31-4q5.59-9.94,11.53-20.47c.35-.63.72-1.27,1.08-1.9.91-1.53,1.83-3.06,2.75-4.68.57-1,1.05-1.89,1.48-2.7,2.42-4.21,4.81-8.43,6.89-12.36l.11-.21,1.92-3.25c.09-.09,0,.08.16-.07,1.16-2.15,2.45-4.45,3.82-6.7.17-.27.05.07.1,0,1.17-2.22,1.9-3.29,1.88-2.78.3-.63,1.14-2.13,1.49-2.84,1.07-1.35,5-8.2,7.11-12.1l-1.24-.36v1.69q-.22,4.62-.43,9.25c-.22,5.53-.27,7.81,0,8.11l-.26,7.37h.26V404a.66.66,0,0,1,0-.15h.47l0-.49a1.06,1.06,0,0,1,.09.11c.13-4.34.18-7.84.33-11.59.32-4.34.48-9,.61-13.87l0-.56a.49.49,0,0,0-.48-.51.48.48,0,0,0-.44.24l-2.1,3.57L649,395.9c-1.6,2.66-3.44,5.75-4.84,8.39-.17.34-.31.62-.47.91l-8.33,14.86-1.84,3.23-.59.91c-2.73,4.18-4.26,6.78-7.55,12.61-7.48,13.3-16.08,27.69-23,40.76l-4,7.46c-4,7.08-8.08,14.14-12,21.26-.66,1.07-1.32,2.18-2,3.42-.57.22-3.92,6.08-6.62,11h0a.78.78,0,0,0,.31,1,.92.92,0,0,0,.36.1c2.49,0,4.75.06,6.14,0,.19,0,0-.07.14-.1l18.6.41c1.64-.11,3.6-.16,5-.27h6.11c2,.16,3.36.4,5.83.49,1.6-.41,7.62-.41,11.06-.4l6.31.05c.16,0,.26,0,.24.08,2,0,3.92,0,5.95,0l-.33,0a31.59,31.59,0,0,0,6.17-.26h1.76c2.85.1,5,.25,8.14.28a.62.62,0,0,0,.63-.61h0c0-.2,0-.49,0-.79,0-3.64-.15-7.58-.19-11.32,0-2.17-.06-3.61-.1-5V486.69c.17-6.59.1-12.25.1-19.3,0-3.48.06-8.25-.1-11.41V404Zm-7.58-10.54,2.18-3.69.09-.1Zm7.73-12.93,0,0,.2-.33Z"/><path class="cls-4" d="M746.47,556.05l.13-26.16c0-1.84.08-3.91.13-6.28,0-.68,0-1.35,0-2a.61.61,0,0,0-.58-.61h0c-11-.16-21.24,0-33,.07l-15.89.1.44.44V428.72c.08-4,.21-7.62.22-12.16,0-6.15-.12-10.37-.16-16.31-.19-31.53.45-58.55.22-88.47,0-5.67-.08-11.13-.12-16.53h0a.59.59,0,0,0-.6-.59l-28.63.13a.48.48,0,0,0-.4.23c-1.12,2-2.43,4.29-3.77,6.65-3.22,5.64-6.5,11.42-9.78,17.17l-39.65,69.52-7.58,13.1c-8.79,15.18-16.59,29.19-24.27,42.75l-5.65,9.91-3.68,6.37c-2.65,4.55-6.86,11.68-9.67,16.62l-6,10.75c-1.77,3.08-3.49,6.09-5.15,9-3.87,6.66-5.57,9.4-11.2,19.43-.07.28-.76,1.58-1.13,2.35l-1,1.78c-1.8,3-3.8,6.38-5.52,9.27l-2.41,4.48-2.06,3.43a.64.64,0,0,0-.08.3v0c-.09,5.24-.14,11.72-.11,17.85h0a.77.77,0,0,0,.77.76c3.64,0,7.14-.06,10.23-.14l8.56,0c7.7,0,13.71-.13,20.25-.21h2.8c8.6.06,15.49.09,21.85.36l4.26-.1c8.16.14,27.49,0,32.68-.25h.75l7.28,0c7.37.18,13.78.21,20.53.17l-.67-.67c0,1.19,0,2.44,0,3.7,0,4.08,0,8.28,0,12.8q0,31.46.1,64.76c0,2,0,4,0,6,0,4.92-.06,9.84-.08,15,0,3.2,0,5.95,0,8.48v2.2a.57.57,0,0,0,.57.57h0c12.65,0,25.23,0,36.79-.13h1a.43.43,0,0,0,.44-.43h0l.06-10c0-.34.07.15.1-.38,0-6.72-.09-14-.06-21.26,0-.87.08.11.1-.07-.12-6.92,0-10.48.2-9.23,0-1.93-.12-6.66-.16-8.84.28-5.39.09-33.12-.07-43.35,0-6.58.07-13.14.1-19.74l-.71.7,5.83,0c15.4,0,21.78-.08,22.47-.33l20.43-.08-.19-.19h.43l-.46,0-.33-.33h-1.33a1.07,1.07,0,0,1,.23-.07l-31.75,0c-4.95-.08-10-.13-15.33-.15a.49.49,0,0,0-.49.5h0v35.83c0,16.13,0,32.35,0,48.54,0,8.55-.1,18.44,0,26.68,0,.69,0,1.3,0,1.86l.46-.46-1,0-36.86.07.38.37c0-3.32,0-6.7,0-10.08V648.34c0-1,0-2,.06-3,.3-13.73.35-22.06.32-40.5,0-15.94,0-32.48,0-49.12a.76.76,0,0,0-.76-.76c-27.17-.05-54.56-.08-79.85.19l-23.28.23H530.32l.34.34V537.89l0,.17,11.6-20.34c1.76-3,3.55-6.07,5.4-9.42,1.43-1.37,20.13-34.43,26.15-45.24.24-.48-.09,0,.1-.39,6.61-11.61,20.81-36.76,25.43-44.5l6.59-12.09,8.33-14.61c2.85-4.68,4.94-7.87,8.39-13.72,1.83-4,10-18.45,14.75-26.69L646,336c.24-.36.39-.59.39-.52,2.81-4.84,5.36-9.38,8.12-14.24l-.41.8c4.09-7,7.21-12.7,8.2-14.9l2.39-4.2,4.4-7.44-.42.24c5,.08,9.85.15,16,.16l12.67-.05-.58-.59c0,6.15.09,12.44.14,18.53s.07,10,.1,13.69v49.16c-.17,18.16-.11,33.78-.11,53.19,0,9.59-.06,22.76.1,31.44,0,.12,0,.2,0,.33v60a.34.34,0,0,0,.34.34h48.85l-.35-.34.1,33.89Zm-48.71,74.64V618.87l0-.36Zm.1-41.5v.09c0-.36,0-.7,0-1.06Z"/><path class="cls-4" d="M697.65,521.89l3.67-4.22c.3-.27.62-.58,1-.93a64.61,64.61,0,0,0,4.92-5.71l.32-.4,0,0a.46.46,0,0,0,.11-.32l-.09-3v-20c.09-.85.21-1.64.23-2.62,0-1.33-.13-2.24-.17-3.52-.18-6.8.46-12.63.22-19.08-.14-3.91-.24-7.35-.26-11.39,0-1.41,0-2.84,0-4.27V429.19c0-1.11.07-2.21.11-3.27.11-3.78-.06-7.24-.11-10.6v-2.47c0-.53,0-1.05,0-1.58,0-1.14.17-2.92.16-4.15,0-.88-.08-1.79-.11-2.66s0-1.51,0-2.23a48.29,48.29,0,0,0,.11-4.83c-.08-.06-.13-.38-.19-.56v-.45c.07-.76.13-1.6.21-2.32,0-.39-.08-.75-.12-1.1a35.34,35.34,0,0,0,.06-6.92c0-.6,0-1.21,0-1.85,0-1.66-.13-3-.22-4.37v-.61a31.27,31.27,0,0,1,.37-4.71c0-.31-.07-.62-.1-.92a35.74,35.74,0,0,0-.26-7v-.16c0-.54,0-1.05,0-1.57a29.8,29.8,0,0,0,.14-5.23c0-.88,0-1.78,0-2.76q0-6.78-.1-14v-1.3c0-1.06.08-2.12.07-3.22,0-.69,0-1.29,0-1.83,0-2.89,0-5.77-.14-8.42V328l.06-2.25c0-.08.08,0,.11-.09,0-1.45-.1-3-.07-4.58,0-.19.08,0,.1,0-.11-1.49,0-2.26.21-2-.07-.41-.1-1.44-.16-1.91a22,22,0,0,0,.13-3.46h0a.71.71,0,0,0-.09-.36c-1-1.88-2.21-4.06-2.87-5.15-.8-1.65-1.59-3.3-2.42-4.94-1.48-2.93-2.12-4.13-2.45-4.16l-2-3.89-.23.12,0-.09v.11l-.42.21.13.26h-.12c1.2,2.28,2.22,4.1,3.22,6.1,1,2.37,2.31,4.85,3.66,7.4.4.78.82,1.58,1.29,2.48.36.72.73,1.43,1.1,2.15l-.05-.22v8.05c0,1.85-.1,4,0,5.76,0,.22,0,.41,0,.61,0,3.37,0,6.73.1,10.13v2.2l-.06.65a68.92,68.92,0,0,0-.32,8.73c.08,9.07-.28,19,.15,27.83.08,1.76.16,3.38.23,5v14.53a18.05,18.05,0,0,0,0,2.34c-.56.41-.43,8.6-.3,11.27,0,.12.07,0,.11.09,0,2.88.13,9.11,0,11.05.1,1,.16,2.14.26,3v3.63c-.16,1.18-.39,2-.49,3.47.41.95.42,4.53.41,6.58,0,.92,0,2.36-.06,3.75,0,.09,0,.15-.07.14-.05,1.2,0,2.33,0,3.53a.8.8,0,0,1-.05-.19,11.62,11.62,0,0,0,.26,3.67v1c-.11,1.86-.27,3.24-.28,5.31s.14,4.5.18,6.73c0,1.29.06,2.15.1,2.95V476.1c-.17,3.92-.1,7.28-.1,11.47,0,2.07-.06,4.91.1,6.78v15.94l.09-.22-9.83,11.31Zm9.93-202.22v-2.55l0-.08Zm-1.3-8.87v0l-.1-.21Z"/><path class="cls-4" d="M746.46,521.93l1.2-1.12a3,3,0,0,0,.38-.17,5.43,5.43,0,0,0,1.58-1.52l.68-.76,4.27-4a2.79,2.79,0,0,0,.71-.36,6.32,6.32,0,0,0,.65-.82,19.35,19.35,0,0,1,2.9-2.39.7.7,0,0,0,.12-1,.72.72,0,0,0-.49-.27h-.12a8.62,8.62,0,0,0-1.83,0,30.14,30.14,0,0,1-3.32.26l-1.24,0h-5l-1-.1a19.47,19.47,0,0,0-3.09.1h-.72l-.46,0a8.2,8.2,0,0,0-1.21-.17,6.66,6.66,0,0,0-.78.11l-.65,0a4,4,0,0,0-1.41-.11c0,.07-.11.12-.17.18h-.13c-.22-.07-.46-.12-.67-.2a1.85,1.85,0,0,0-.33.12,3,3,0,0,0-2-.07l-.53,0a6.09,6.09,0,0,0-1.28.22h-.18a2.84,2.84,0,0,1-1.37-.36l-.27.09a3.21,3.21,0,0,0-2.06.26h0l-.46-.05a2.63,2.63,0,0,0-1.53-.14c-.26,0-.52,0-.8,0l-4.08.11h-.38a7.3,7.3,0,0,0-.94-.08,2.92,2.92,0,0,0-.54.05,11.6,11.6,0,0,0-2.45.13h0l-.66-.06s0-.07,0-.11a7.38,7.38,0,0,1-1.34.07c-.06,0,0-.08,0-.1-.43.12-.66,0-.58-.2-.12.06-.42.1-.55.16-.34-.28-2.09-.09-2.73.07-.54-.05-1.07-.1-1.61-.11-1,0-1.35,0-1.41.28h-1.27v.26h0l0,.05v.47h.08l0,.1c.75,0,1.36-.1,2-.08a9.11,9.11,0,0,0,2.41.13h.82c1,0,2,0,3.06,0a9.43,9.43,0,0,0,1.68,0l.17-.05c1,0,2,0,3-.1H721l.19.06a5.94,5.94,0,0,0,2.55.32c2.65-.08,5.56.28,8.12-.15l1.47-.23h4.24a1.55,1.55,0,0,0,.68,0c.12.56,2.51.43,3.29.3,0,0,0-.07,0-.1a17,17,0,0,1,3.22,0c.29-.11.63-.16.87-.27h1.06a4.12,4.12,0,0,0,1,.49c.28-.41,1.32-.41,1.92-.4l1.09,0s0,.05,0,.07a5.91,5.91,0,0,0,1,0l-.06,0c.51.05.92,0,1.07-.26h.31a7.5,7.5,0,0,0,1.54.29c.64,0,1.32-.15,2-.19a5.23,5.23,0,0,0,.86-.1h.84l-.24-.6-1.66,1.54a21.34,21.34,0,0,0-2.52,2.2,8,8,0,0,0-1.38,1.42v0l-6.6,6.13Zm-31.52-12.07h-.74l0,0Zm-2.61-.1h0Z"/><path class="cls-4" d="M746.48,556l.84-.87.3-.12c.53-.24.76-.72,1.11-1.2l.45-.61,3-3.12a1.61,1.61,0,0,0,.55-.25c.21-.2.25-.44.41-.67.89-1.19,2.23-1.65,3-2.82a16.84,16.84,0,0,1,1.52-2l.64-.68.31-.33a.42.42,0,0,0,.12-.3v-3.29c0-.24.07-.48.1-.71a10.69,10.69,0,0,0-.1-2.29v-.54c0-.11,0-.23,0-.34a4.61,4.61,0,0,0,.17-.9,4,4,0,0,0-.11-.58,4,4,0,0,0,0-.48,2.21,2.21,0,0,0,.11-1.05c-.08,0-.12-.08-.18-.12v-.1c.07-.16.12-.34.2-.5a1.34,1.34,0,0,0-.12-.24,1.71,1.71,0,0,0,.07-1.5c0-.13,0-.26,0-.4a4,4,0,0,0-.22-1V529a1.73,1.73,0,0,1,.36-1l-.09-.2a1.88,1.88,0,0,0-.26-1.53v0l.05-.34a1.6,1.6,0,0,0,.14-1.14,5.71,5.71,0,0,0,0-.59c0-1-.07-2-.11-3v-.28a4.06,4.06,0,0,0,.08-.7,1.62,1.62,0,0,0-.05-.4,6.41,6.41,0,0,0-.13-1.82v0l.06-.49s.07,0,.11,0a4,4,0,0,1-.07-1s.08,0,.1,0c-.12-.32,0-.49.2-.43-.06-.09-.1-.31-.16-.41.28-.25.09-1.55-.07-2,0-.4.1-.79.11-1.19,0-.71,0-1-.28-1v-.95h-.26v0l0,0H758v.07l-.1,0c0,.56.1,1,.08,1.5a5,5,0,0,0-.13,1.79v.6c0,.76,0,1.52,0,2.27a5.24,5.24,0,0,0,0,1.25.5.5,0,0,0,0,.13c0,.73,0,1.46.1,2.2v.48l-.06.14a3.35,3.35,0,0,0-.32,1.89c.08,2-.28,4.13.15,6l.23,1.09v3.15a.88.88,0,0,0,0,.51c-.56.09-.43,1.86-.3,2.44,0,0,.07,0,.1,0a9.37,9.37,0,0,1,0,2.39c.11.22.16.47.27.65v.79a2.78,2.78,0,0,0-.49.75c.41.2.41,1,.4,1.42,0,.2,0,.52,0,.82l-.07,0a1.89,1.89,0,0,0,0,.41l.17-.4-.23.26s0,0,0-.06c-.3.24-.45.51-.36.76l-.16.16a4.09,4.09,0,0,0-1,.63c-.33.33-.57.8-.88,1.18a3.06,3.06,0,0,0-.37.53l-1.6,1.66a12,12,0,0,0-1.8,1.71,4.8,4.8,0,0,0-1,1.13v0l-4.64,4.81Zm12.29-40v-.55l0,0Zm.1-1.94h0v0Z"/><path class="cls-4" d="M697.69,668.9l1.54-2.29.48-.48a15.77,15.77,0,0,0,2-3.11c.3-.49.59-1,.88-1.48l4.88-7.27a.4.4,0,0,0,.07-.24v-1.11a7.21,7.21,0,0,0,.23-1.29c0-.66-.13-1.11-.17-1.74-.18-3.36.46-6.23.22-9.42-.14-1.93-.24-3.63-.26-5.62,0-.69,0-1.4,0-2.1v-8.53c0-.54.07-1.09.11-1.61.11-1.87-.06-3.57-.11-5.23v-1.22c0-.26,0-.52,0-.78,0-.56.17-1.44.16-2,0-.43-.08-.88-.11-1.31s0-.75,0-1.1a11.86,11.86,0,0,0,.11-2.39c-.08,0-.13-.18-.19-.27V608c.07-.38.13-.79.21-1.15l-.12-.54a8.7,8.7,0,0,0,.06-3.42c0-.29,0-.59,0-.91a17.12,17.12,0,0,0-.22-2.16v-.3a7.88,7.88,0,0,1,.37-2.32c0-.16-.07-.31-.1-.46a8.79,8.79,0,0,0-.26-3.47v-.08c0-.27,0-.52,0-.78a7.32,7.32,0,0,0,.14-2.58c0-.43,0-.88,0-1.36,0-2.24-.07-4.53-.1-6.9V581c0-.52.08-1.05.07-1.59,0-.34,0-.63,0-.9a33.22,33.22,0,0,0-.14-4.16v-.06l.06-1.11s.08,0,.11,0c0-.71-.1-1.49-.07-2.26,0-.09.08,0,.1,0-.11-.73,0-1.11.21-1-.07-.2-.1-.71-.16-.94a16.82,16.82,0,0,0-.07-4.62c0-.9.09-1.8.11-2.71,0-1.62,0-2.29-.29-2.38V557h-.26v0l0,0h-.48v.14l-.1,0c0,1.27.1,2.3.08,3.4a25.9,25.9,0,0,0-.13,4.08c0,.43,0,.88,0,1.38v5.17a24.46,24.46,0,0,0,0,2.84c0,.11,0,.2,0,.3,0,1.66,0,3.32.1,5v1.08l-.06.32a17,17,0,0,0-.32,4.31c.08,4.48-.28,9.4.15,13.74.08.87.16,1.66.23,2.48v7.16a4.46,4.46,0,0,0,0,1.16c-.56.2-.43,4.25-.3,5.56,0,.06.07,0,.11,0a53.82,53.82,0,0,1,0,5.45c.1.48.16,1.06.26,1.47v1.79a11,11,0,0,0-.49,1.71c.41.47.42,2.24.41,3.25,0,.45,0,1.16-.06,1.85,0,0,0,.07-.07.07a16.83,16.83,0,0,0,0,1.74.24.24,0,0,1-.05-.09,3,3,0,0,0,.26,1.81v.51a21,21,0,0,0-.28,2.62c0,1.07.14,2.23.18,3.32,0,.64.06,1.06.1,1.46v5.24c-.17,1.93-.1,3.59-.1,5.66v1l.08-.25a14.52,14.52,0,0,0-1.23,2v0L697,668.46Zm9.89-98.73v-1.26l0,0Zm.1-4.42h0v0Z"/><path class="cls-4" d="M581,520.3l3-1.66c.24-.07.5-.17.79-.28a24.1,24.1,0,0,0,4.06-2.27c.62-.37,1.23-.74,1.83-1.12l10.81-5.92.11,0,.08-.06.1-.12a10.16,10.16,0,0,0,.9-1.22c.42-.7.56-1.26.92-2,1.87-3.76,4.17-6.59,5.9-10.18,1-2.17,2-4.08,3.18-6.27.42-.75.84-1.53,1.27-2.3l5.17-9.3,1.06-1.71c1.24-2,2.12-3.94,3.09-5.77l.74-1.33c.17-.28.33-.56.51-.83.38-.59,1-1.49,1.39-2.15.26-.48.46-1,.7-1.49s.48-.8.69-1.19a18,18,0,0,0,1.55-2.55c-.05-.07,0-.26,0-.39l.12-.24c.29-.38.59-.81.88-1.16l.22-.65a13.33,13.33,0,0,0,2.13-3.7c.19-.31.38-.64.57-1,.49-.9.77-1.66,1.12-2.46l.18-.33a11.64,11.64,0,0,1,1.73-2.36c.06-.19.13-.37.19-.55a13.85,13.85,0,0,0,1.89-3.92l0-.08c.17-.29.34-.56.51-.83a11.73,11.73,0,0,0,1.69-2.75c.27-.46.55-.95.83-1.48q2-3.68,4.09-7.58l.39-.7c.35-.55.71-1.1,1-1.7.2-.37.36-.7.5-1,.88-1.55,1.74-3.1,2.41-4.6l0-.07.72-1.19c.06,0,.06.06.12,0,.4-.8.82-1.68,1.31-2.5.07-.1.07,0,.09,0,.35-.86.65-1.24.78-1,.07-.25.35-.82.43-1.1a25.9,25.9,0,0,0,2.74-5.08c.6-1,1.18-1.92,1.75-2.91,1-1.75,1.39-2.5,1.19-2.73l1.32-2.36-.23-.13,0-.05-.07,0-.42-.23-.08.15a.27.27,0,0,1-.07-.08c-.75,1.4-1.31,2.56-2,3.75a40.62,40.62,0,0,0-2.58,4.39l-.84,1.51c-1,1.88-2.09,3.76-3.13,5.65-.56,1-1.28,2.09-1.73,3.1a2.55,2.55,0,0,0-.14.35c-1,1.82-2,3.64-3,5.5l-.66,1.19-.24.32a25.89,25.89,0,0,0-2.9,4.55c-2.65,4.92-5.94,10.12-8.2,15.07-.46,1-.88,1.89-1.3,2.82L628,460a6.23,6.23,0,0,0-.73,1.24c-.61-.05-2.95,4.43-3.64,5.93,0,.08.06,0,.07.1-.85,1.56-2.62,5-3.35,5.94-.2.57-.5,1.23-.66,1.73l-1.08,1.95a15.18,15.18,0,0,0-1.47,1.63c.07.71-1,2.65-1.62,3.74-.28.49-.74,1.26-1.17,2-.05,0-.09.06-.1,0-.4.63-.71,1.25-1.07,1.9a1,1,0,0,0,0-.12,4.58,4.58,0,0,0-.87,2.1l-.31.56c-.65.95-1.21,1.61-1.84,2.72s-1.22,2.5-1.85,3.72c-.37.7-.6,1.18-.8,1.64l-3.17,5.72c-1.28,1.95-2.21,3.74-3.4,5.9l.17-.18-.23.13a34.73,34.73,0,0,0-3.62,2.1l0,0-16.67,9.16ZM651.9,418.57l.76-1.37.05,0Zm2.76-4.78h0l.07-.12Z"/><path class="cls-4" d="M601.36,509h1.4l.34.14a4.13,4.13,0,0,0,1.88,0l.87-.1h5a2.1,2.1,0,0,0,.65.23,4.51,4.51,0,0,0,.89-.17c1.7-.18,3.16.46,4.77.22a22.36,22.36,0,0,1,2.85-.26h5.39l.82.1a15.39,15.39,0,0,0,2.66-.1h.61l.4,0a5.79,5.79,0,0,0,1,.17c.22,0,.44-.08.66-.11l.56,0a3.11,3.11,0,0,0,1.21.11c0-.08.1-.12.14-.18h.11c.19.07.4.12.58.2a2.36,2.36,0,0,0,.28-.12,2.2,2.2,0,0,0,1.73.06,3.44,3.44,0,0,0,.46,0,5.79,5.79,0,0,0,1.1-.22h.15a2.19,2.19,0,0,1,1.18.36l.23-.09a2.43,2.43,0,0,0,1.76-.26h0l.4.05a2,2,0,0,0,1.31.14,5.22,5.22,0,0,0,.69,0l3.49-.11h.33a4.36,4.36,0,0,0,.81.08,2.16,2.16,0,0,0,.46-.05,8.54,8.54,0,0,0,2.1-.13h0l.56.06s0,.08,0,.11a6.18,6.18,0,0,1,1.15-.07s0,.08,0,.1c.37-.11.57,0,.5.21.1-.07.36-.1.48-.16.29.27,1.79.09,2.34-.07.46,0,.91.09,1.38.11.82,0,1.16,0,1.2-.28h1.1v-.27h0s0,0,0-.05v-.48h-.07s0-.06,0-.09c-.64,0-1.16.09-1.72.07a6.74,6.74,0,0,0-2.07-.13h-.7c-.87,0-1.75,0-2.62,0a6.94,6.94,0,0,0-1.44,0l-.16.05c-.84,0-1.68,0-2.53.1h-.55l-.16-.06a4.41,4.41,0,0,0-2.19-.32c-2.27.08-4.77-.28-7,.15l-1.25.23h-3.64a1.17,1.17,0,0,0-.59,0c-.1-.56-2.15-.43-2.82-.31,0,0,0,.07,0,.11a13.22,13.22,0,0,1-2.77,0c-.24.11-.53.16-.74.27h-.91a3.35,3.35,0,0,0-.87-.5c-.23.41-1.13.42-1.64.41-.23,0-.59,0-.94-.06a.1.1,0,0,1,0-.07,5.17,5.17,0,0,0-.88,0,.23.23,0,0,1,0-.05c-.44-.05-.79,0-.92.27h-.26a5.25,5.25,0,0,0-1.33-.29c-.54,0-1.13.14-1.68.18a4.92,4.92,0,0,0-.74.1h-2.66a16,16,0,0,0-2.87-.1,6,6,0,0,0-1.7.1h-7.74Zm51.47,0h.64v0Zm2.24.1h0Z"/><path class="cls-10" d="M638.42,91.16s1.42-5,8.41-2.48c4.77,1.74,18.77,5.88,26.35-3.1,0,0-9.08,3.46-17.25-1.31-10.36-6-17.71,3.56-17.71,3.56-7.41-10.34-18.28-3.37-24.31-2.14-7.43,1.51-12.18-1.38-12.18-1.38,7.51,9,21.38,4.46,26.32,3.29a9.77,9.77,0,0,1,10.37,3.56"/></g></g></svg>