<svg xmlns="http://www.w3.org/2000/svg" xmlns:xlink="http://www.w3.org/1999/xlink" viewBox="0 0 498.66 1080.13"><defs><style>.cls-1,.cls-5,.cls-6{fill:none;}.cls-2,.cls-4,.cls-6{opacity:0.4;}.cls-3,.cls-4{fill:#fff;}.cls-5,.cls-6{stroke:#fff;stroke-linecap:round;stroke-linejoin:round;}.cls-7{clip-path:url(#clip-path);}.cls-8{opacity:0.2;}</style><clipPath id="clip-path"><rect class="cls-1" x="1050.34" y="29.79" width="500" height="2600.68" transform="translate(2630.47 29.79) rotate(90)"/></clipPath></defs><title>bg expand</title><g id="Illustration"><rect width="498.66" height="1080.13"/><g class="cls-2"><path class="cls-3" d="M163.26,437.23c-2.11-5.32-8.36-7.6-12-6.91-.93-12.38-13.59-16.12-19.59-12.29-5.72-14-23.55-9.27-28.38,0a18.92,18.92,0,0,0-15.5-3.32c-13.14,2.66-20.7,15.88-19.13,23-16.08-.62-25.46,25.75-9.23,37.05,7.86,5.47,20.63,6.36,28.35-2.15,5.5,5.68,18.17,4.69,21.31-2.57,6.9,5,18.58,1.38,19.61-6a21.84,21.84,0,0,0,13.94,1.78c9.2-1.86,11.28-8.67,10.23-12.22C160.35,452.78,166.18,444.62,163.26,437.23Zm-14.11,14a.39.39,0,0,0-.09.77c.21.34,3.55,2.07.69,7.08-1.47,2.59-3.93,3.6-6.71,4.24-6.49,1.5-12.61-.38-17.62-4.57-.32-.27-.68.23-.46.53a12.85,12.85,0,0,0,1.72,1.81c.07,2,0,3.58-1.17,5.27-1.73,2.41-6.41,4.41-11.29,3.34-3.62-.8-4.77-3.09-6.1-4.47a.24.24,0,0,0-.41.14c-.14,1.28.34.11-.2,2.55-1,1.84-2.27,5.57-8.67,5.94a12.85,12.85,0,0,1-10.45-4.05,18.07,18.07,0,0,0,1-1.68c2.47,2.7,6.2,3,9.7,2.75.24,0,.21-.41,0-.41a13.72,13.72,0,0,1-9.21-3.21c.17-.35.33-.7.48-1.06,2.2,2.05,5.13,2.25,8,1.84.26,0,.17-.41-.07-.39a11.29,11.29,0,0,1-7.64-2.33l.24-.68a6.37,6.37,0,0,0,5.82.67c.21-.1.16-.47-.09-.46-2,.1-3.86,0-5.47-1.1a14.52,14.52,0,0,0-.89-10.4c-3.21-6.3-12.13-6.27-17.54-3.17-7.53,4.3-6.24,14.7,2.6,15.06,7.46.31,9.19-8,5.66-10.37a4,4,0,0,0-5.8,1.84c-.59,1.8.91,5,3.48,2.93a.1.1,0,0,0-.11-.17c-1.84.85-3.1-.7-2.58-2.49.76-2.65,7.38-2.57,5.29,3.42a5,5,0,0,1-4.12,3.24c-5.62,1.11-10.2-3.25-7-8.74,3.93-6.7,16.69-8,19.41,1a16.4,16.4,0,0,1-2.34,13.64c-5.88,8.43-18,8.72-26.14,3.71-11.95-7.33-9.19-25.33.67-31.62,4.06-2.59,10-1.49,13.8.16.58.25-.53-1.12-1.11-1.33a19,19,0,0,0-2.7-1c-1-3.07-1.86-4.67.58-9.92,4.65-10,16.77-15.56,26.18-11.53,1.85.79,3.19,2.42,5,3.24v0c-7.19.32-8.71,5.53-8,4.68,3.39-4.16,9.6-4.53,13.69-2.47,2.1,1.05,3.1,2.6,4.27,4.54.15.24,1,1.33,1,1-1-5-6.08-7.74-10.3-7.74,3.34-8.36,14-11.74,20.16-8.42,3.7,2,5.33,6.61,6.38,10.4.09.34.66-.93.46-2.42,3.66-3.09,9.22-2,12.94.46,4.17,2.8,5.46,8.65,4.26,13.24-.08.3.28.62.53.36,1.23-1.25,1.8-3.8,7-1.79C165.28,436.71,163.27,451.76,149.15,451.24Z"/><path class="cls-3" d="M79.07,424.87A12.83,12.83,0,0,0,74.42,430c-2.52,5.3-.51,7.49-.35,6.65a21.85,21.85,0,0,0,.1-2.69,13.62,13.62,0,0,1,5-8.9C79.29,425,79.17,424.8,79.07,424.87Z"/><path class="cls-3" d="M77.47,429.11a5.1,5.1,0,0,0-1.81,3.33c-.73,3.73.56,4.77.73,4.18.28-1-.14-2.33-.09-3.4a6.8,6.8,0,0,1,1.27-4A.07.07,0,1,0,77.47,429.11Z"/><path class="cls-3" d="M77.74,432.45c-1.29,3.16.13,5.59.28,4.68a7.26,7.26,0,0,0-.2-2,9.69,9.69,0,0,1,.05-2.69A.07.07,0,0,0,77.74,432.45Z"/><path class="cls-3" d="M55.52,460.64a.12.12,0,0,0-.23.05c.71,6.79,6.37,11,9.4,11.14a.25.25,0,0,0,.16-.46C62.77,469.7,58.2,470,55.52,460.64Z"/><path class="cls-3" d="M58,462.21c0-.09-.17-.09-.17,0,.23,4.35,5.41,7.64,7.68,7.87a.23.23,0,0,0,.19-.38C63.66,467.84,59.7,467.76,58,462.21Z"/><path class="cls-3" d="M61.06,464c-.06-.09-.18,0-.14.1,1.22,2.68,4.23,4.39,5.44,3.94a.16.16,0,0,0,0-.25C65.84,467.28,63.28,467.11,61.06,464Z"/><path class="cls-3" d="M144.24,456.12a10.41,10.41,0,0,1-10.45,3.58c4.29-.72,6.11-4.11,5.49-3.71-1.81,1.18-4.72,3.4-7.77,2.8l-.27-.18a6.4,6.4,0,0,0,4.76-2.17c.09-.11-.08-.24-.18-.16-2.25,1.84-4.88,1.3-7.38.51a.37.37,0,0,0-.39.59,4.3,4.3,0,0,0,.76.59c-.43,1.49,10.2,7,15.71-1.67A.17.17,0,0,0,144.24,456.12Z"/><path class="cls-3" d="M155.46,436.31c3.75,5.29,1.25,10.9-3.47,12,2.75-2.07,4.35-6.15,2.42-9,0,0-.11,0-.1,0,.7,4.12-1,8.31-4.93,9a6,6,0,0,0,2.46-5.69.14.14,0,0,0-.28,0c-.61,4.82-2.86,5.26-5.32,5.52a.38.38,0,0,0-.17.65c.09.53,1.43.74,2,.77a8.37,8.37,0,0,0,9.23-4.32c1.56-3,1.1-7.06-1.65-9.17C155.5,436.06,155.4,436.21,155.46,436.31Z"/><path class="cls-3" d="M144.1,436.25c-.17.3.23.72.48.42,4-4.51.63-12.2-4.9-13.47a.11.11,0,0,0-.07.21A9.18,9.18,0,0,1,144.1,436.25Z"/><path class="cls-3" d="M141.64,427.85c2.44,3.52,1.31,6.51.43,10.28-.09.38.44.72.65.32C146.71,430.93,140.86,426.71,141.64,427.85Z"/><path class="cls-3" d="M140.16,431.66a.13.13,0,0,0-.19.17,6.54,6.54,0,0,1,1.23,3.82c0,1.24-.6,2.17-.79,3.33,0,.22.23.29.37.18C142.13,438.16,142.68,434,140.16,431.66Z"/><path class="cls-3" d="M126.39,420.32c.74,1.55.17,2.88.31,4.44a.34.34,0,0,0,.56.19c1.36-1.47,1.16-5.71-3.41-8.86-2.84-2-7.77-3.33-10.6-.69a.07.07,0,0,0,.08.12C118.21,413.24,124.29,415.94,126.39,420.32Z"/><path class="cls-3" d="M125.46,426.82a.32.32,0,0,0,.62,0c1.64-4.32-2.38-9.23-6.6-9.67-.14,0-.15.17,0,.22C126.19,420.66,124.89,423.44,125.46,426.82Z"/><path class="cls-3" d="M124,427.5a.22.22,0,0,0,.3.14c1.2-.67.49-3.85-1.75-5.78-.14-.12-.33.11-.21.24a6.76,6.76,0,0,1,1.73,4.21C124.1,426.75,123.91,427.07,124,427.5Z"/><path class="cls-3" d="M112.12,430.05c.12.1.28,0,.3-.15.34-2.64-5.79-8-10.08-5.29-.16.1-.1.4.12.34a6.89,6.89,0,0,1,6,.92C110.74,427.32,111.33,429.37,112.12,430.05Z"/><path class="cls-3" d="M106,426.89a.13.13,0,0,0,0,.26c3.36.63,3.76,3,5,3.42a.2.2,0,0,0,.26-.17c0-.93-1.25-1.76-1.93-2.28A6.27,6.27,0,0,0,106,426.89Z"/><path class="cls-3" d="M110.2,431.34c-.18-1.33-2.08-1.78-3.06-2.35a.17.17,0,0,0-.19.28c.5.36,1,.65,1.56,1C109.33,430.77,110.29,431.94,110.2,431.34Z"/><path class="cls-3" d="M122,467.13c-2.54-.26-4.62,1.56-9.23-.33-.1,0-.15.1-.08.15C116.84,470.2,123.59,467.3,122,467.13Z"/><path class="cls-3" d="M113.08,465.47c1.91.84,5.31,1.44,6.66.41.13-.1,0-.28-.11-.31-1.43-.25-3.15.6-6.5-.26A.08.08,0,0,0,113.08,465.47Z"/><path class="cls-3" d="M118.08,464.35a1.91,1.91,0,0,0-1.23-.1,6.26,6.26,0,0,1-1.73,0c-.13,0-.25.15-.11.23C116.89,465.47,118.67,464.78,118.08,464.35Z"/></g><g class="cls-2"><path d="M48,1019h0c2.78,0,5.8-1.08,9.09-1.84,3.1-.72,8-.42,10.53-1.42,3.14,2.52,10.39,4.2,17.47,1.84a10.24,10.24,0,0,0,1.62,1.06c11.8,6.76,15.57.81,18.5.81,1.91,0,3.13,2.87,7.71,3.52,3.73.52,6.6.16,9.51-1.94a28.8,28.8,0,0,0,9.39,1.35c9.83.25,8.88-2.38,13.13-3.11,2.62-.46,5.14,1.85,9,1.85,1.58,0,3.87-.35,4.5-1.9a44.36,44.36,0,0,0,5.72.56c1.46,0,4.87-.37,5-1.93,2.06.5,5.31,1.83,8.91,1.83,2.59,0,7.2-.55,10-2,1.44.93,4.93,1,5,1a10.42,10.42,0,0,0,6.11-1.76c3.95-2.26,3.63-1.17,7.93-.86,2.8.21,7.71-1.29,10.12-2.61,5.32,2.49,8.76.14,8.83-1.95.11-3.57-8.54-4.69-11.93-4.72a13.09,13.09,0,0,0-6.32,1,18.23,18.23,0,0,0-12-4.31c-5.7,0-10.37,3-11.83,5.41a20.81,20.81,0,0,0-11.61.78c-3.28-4-10-6.84-16.28-6.84a15.85,15.85,0,0,0-6.16,1.13c-.85-4.17-6.34-7.37-11-7.37a8.12,8.12,0,0,0-4.57,1.29,15.29,15.29,0,0,0-3.77-5.64,9.7,9.7,0,0,0-5.65-2.44,6.54,6.54,0,0,0-6.6-6.34c-1.23-4.89-14.54-6.28-20.59,2.5-3.5-1-8.87-1.69-11.59.88a7.15,7.15,0,0,0-1.76,3.56c-6.18,2.92-8.4,9.3-7.73,12.87-5.41-.24-9.24,2.28-10.51,4-4.06-.83-6.38-1.35-10,.84a10.26,10.26,0,0,1-4.47,1.55C36.3,1012.25,41.72,1019,48,1019Z"/><path class="cls-3" d="M76.66,1005.87c.6-.17,1.75.6,2.14,1.21a.11.11,0,0,1-.15.15c-.32-.21-.63-.43-1-.62a7.36,7.36,0,0,1-1.06-.5A.14.14,0,0,1,76.66,1005.87Z"/><path class="cls-3" d="M75.47,1006.5a4.43,4.43,0,0,1,1.61.37.14.14,0,0,1-.07.27,4.13,4.13,0,0,1-1.56-.4C75.37,1006.68,75.36,1006.53,75.47,1006.5Z"/><path class="cls-3" d="M75.3,1007c.08,0,.08.2,0,.19A7.36,7.36,0,0,1,74,1007C73.71,1006.88,74.11,1006.52,75.3,1007Z"/><path class="cls-3" d="M74.41,1008.17a.14.14,0,0,1-.15.22,3.83,3.83,0,0,0-.65-.3,2.84,2.84,0,0,1-.77-.22C72.58,1007.69,73.22,1007.15,74.41,1008.17Z"/><path class="cls-3" d="M71.42,1008.38c-.27-.18.25-.62,1.56.13.17.1,0,.35-.15.27a4.52,4.52,0,0,0-.79-.25A1.82,1.82,0,0,1,71.42,1008.38Z"/><path class="cls-3" d="M72,1009.24c.2.07.12.41-.09.34l-.55-.17a1.81,1.81,0,0,1-.65-.15.13.13,0,0,1,0-.21C71.05,1008.83,71.66,1009.11,72,1009.24Z"/><path class="cls-3" d="M62.64,1009.83c.09,0,0,.19-.07.17a9.9,9.9,0,0,1-2.15-.51C60.14,1009.35,60.83,1009,62.64,1009.83Z"/><path class="cls-3" d="M61.11,1010.45c.1.08,0,.25-.1.19a2.55,2.55,0,0,0-.7-.25c-.23,0-.52,0-.72-.13a.11.11,0,0,1,0-.19C59.89,1009.88,60.76,1010.17,61.11,1010.45Z"/><path class="cls-3" d="M59.36,1011a.12.12,0,0,1-.16.17c-.34-.29-.81,0-1.15-.24S58.86,1010.43,59.36,1011Z"/><path class="cls-3" d="M57.31,1011.34c.14-.15.37-.09,1-.07a.16.16,0,0,1,0,.31c-.65,0-.88.08-1-.07A.14.14,0,0,1,57.31,1011.34Z"/><path class="cls-3" d="M57.22,1012.05c.16.07,0,.32-.11.28l-.63-.15c-.21,0-.43,0-.6-.16a.13.13,0,0,1,0-.2C56.18,1011.59,56.91,1011.9,57.22,1012.05Z"/><path class="cls-3" d="M55.61,1012.8c-.23,0-.6,0-.77-.18,0-.06,0-.14.06-.14s.22,0,.33.06l.38,0C55.75,1012.58,55.74,1012.8,55.61,1012.8Z"/><path class="cls-3" d="M53.76,1013.15c-.12-.12-.28-.09-.42-.14s.25-.32.57,0C54,1013.08,53.86,1013.25,53.76,1013.15Z"/><path class="cls-3" d="M92.18,1014a1.8,1.8,0,0,1,.88.13,6,6,0,0,0,1.52.17c.06,0,.08.11,0,.13C92.64,1014.89,91.79,1014.06,92.18,1014Z"/><path class="cls-3" d="M91.61,1014.71a3,3,0,0,1,.87.25,4,4,0,0,0,1.15.13.13.13,0,0,1,0,.25C92.08,1015.85,91.15,1014.73,91.61,1014.71Z"/><path class="cls-3" d="M90.73,1015.82a.12.12,0,0,1,0-.2c.43-.22,1.09.1,1.51.24.13,0,.08.26-.06.23s-.56-.11-.85-.15A1.4,1.4,0,0,1,90.73,1015.82Z"/><path class="cls-3" d="M90.84,1016.53c-.36-.11-.62-.17-.74-.37a.12.12,0,0,1,.06-.17c.22-.09.51.07,1.14.33.18.08.11.38-.08.32a2.73,2.73,0,0,1-1.86.27,3.28,3.28,0,0,1,.31.2.15.15,0,0,1-.14.26c-1.49-.68-1.47-1-1.23-1a1.55,1.55,0,0,1,.76.35.86.86,0,0,1-.14-.18.1.1,0,0,1,.09-.15C89.58,1016.42,89.85,1016.9,90.84,1016.53Z"/><path class="cls-3" d="M112.3,1020a9.27,9.27,0,0,0,2.74-.2c.1,0,.16.12.07.18C112.9,1021.25,111.79,1020.09,112.3,1020Z"/><path class="cls-3" d="M111.49,1019.42a7.64,7.64,0,0,0,1.63-.38c.11,0,.22.12.1.19C111.82,1020,111.17,1019.54,111.49,1019.42Z"/><path class="cls-3" d="M109.85,1018.29c.56.05,1.07.33,1.63.1.12,0,.2.16.09.22C110.49,1019.19,109.42,1018.26,109.85,1018.29Z"/><path class="cls-3" d="M108.84,1017.63c.39-.21.82,0,2-.16.16,0,.19.25,0,.29a3.89,3.89,0,0,1-2,.11A.14.14,0,0,1,108.84,1017.63Z"/><path class="cls-3" d="M108.29,1016.63a1.67,1.67,0,0,1,.63,0,3.41,3.41,0,0,0,.9,0c.18,0,.25.24.07.3C108.38,1017.32,108,1016.7,108.29,1016.63Z"/><path class="cls-3" d="M106.86,1016a1.61,1.61,0,0,1,.69,0l.76.08a.14.14,0,0,1,0,.28c-.45,0-1.13.18-1.5-.18A.13.13,0,0,1,106.86,1016Z"/><path class="cls-3" d="M131.23,1019.8c.42-.2.86-.31,1.28-.55s.8-.56,1.23-.79a.09.09,0,0,1,.12.13C132.23,1020.87,130.78,1020,131.23,1019.8Z"/><path class="cls-3" d="M130.7,1019.11a10.28,10.28,0,0,0,1-.42c.09,0,.17.11.1.17-1.53,1.28-2.34.82-2,.57A2.5,2.5,0,0,1,130.7,1019.11Z"/><path class="cls-3" d="M129.16,1018.94a5.81,5.81,0,0,0,.89-.38.12.12,0,0,1,.14.19c-1.09,1.23-2.17.71-1.81.42A2.13,2.13,0,0,1,129.16,1018.94Z"/><path class="cls-3" d="M126.86,1018.56c.23-.17.57-.1.84-.15a2,2,0,0,0,.93-.44.09.09,0,0,1,.12.12C127.87,1019.17,126.44,1018.87,126.86,1018.56Z"/><path class="cls-3" d="M127.38,1018a1.27,1.27,0,0,1-1.43.1.11.11,0,0,1,0-.17c.33-.08.69.2,1.28-.12C127.39,1017.73,127.48,1017.9,127.38,1018Z"/><path class="cls-3" d="M166.68,1012c.38-.12.79-.07,1.17-.16a2.69,2.69,0,0,0,1.18-.67c.07-.07.16,0,.1.1-.55.62-1.66,1.39-2.47.92C166.58,1012.12,166.61,1012,166.68,1012Z"/><path class="cls-3" d="M168.54,1011a4.79,4.79,0,0,1-.91.28,1.36,1.36,0,0,1-.87,0,.15.15,0,0,1,0-.24,2.08,2.08,0,0,1,.82-.14c.3,0,.6-.09.91-.12C168.59,1010.81,168.65,1011,168.54,1011Z"/><path class="cls-3" d="M168.35,1009.73a.07.07,0,0,1,.05.13c-.4.26-1.41.74-1.85.58a.15.15,0,0,1-.06-.24C166.75,1010,167,1010,168.35,1009.73Z"/><path class="cls-3" d="M164.75,1009.31c.38-.18.48-.08,2.32-.27.13,0,.15.22,0,.25a4,4,0,0,1-2.35.24A.14.14,0,0,1,164.75,1009.31Z"/><path class="cls-3" d="M165.25,1008.27a.14.14,0,0,1,.07.28c-.9.38-1.18.66-1.52.49a.15.15,0,0,1-.06-.2A3.58,3.58,0,0,1,165.25,1008.27Z"/><path class="cls-3" d="M164.08,1007.42a.11.11,0,0,1,.07.2,3.36,3.36,0,0,1-1.85.53.13.13,0,0,1-.06-.21C162.45,1007.75,162.59,1007.75,164.08,1007.42Z"/><path class="cls-3" d="M161.88,1007.07a2,2,0,0,0,.64-.09c.2-.05.28.26.09.33-.93.35-1.39.06-1.2-.13A.6.6,0,0,1,161.88,1007.07Z"/><path class="cls-3" d="M160.38,1006.43a1.81,1.81,0,0,0,.92-.18c.18-.1.31.16.16.28a1.7,1.7,0,0,1-1.08.32A.21.21,0,0,1,160.38,1006.43Z"/><path class="cls-3" d="M159.31,1006.31a2.63,2.63,0,0,0,.72-.23c.19-.08.3.24.14.34a1.6,1.6,0,0,1-.86.3C159.06,1006.72,159.07,1006.34,159.31,1006.31Z"/><path class="cls-3" d="M147.27,1005.13a.5.5,0,0,1,.21,0s.1,0,.07,0h0a.09.09,0,0,1,.11.11c-.07.23-.48.31-.65.36a2.32,2.32,0,0,1-1.07.14.16.16,0,0,1-.08-.23C146,1005.3,146.38,1005.18,147.27,1005.13Z"/><path class="cls-3" d="M146.85,1004.48c.13,0,.13.25,0,.28s-.51.11-.76.18-.46.2-.64,0S146,1004.32,146.85,1004.48Z"/><path class="cls-3" d="M146.3,1003.34a.15.15,0,0,1,.08.29c-1.15.34-1.36.7-1.73.59S144.64,1003.59,146.3,1003.34Z"/><path class="cls-3" d="M145.48,1002.48c.14,0,.19.18.06.23a3.22,3.22,0,0,1-.6.19c-.17,0-.38.16-.55,0a.1.1,0,0,1,0-.14C144.47,1002.52,144.85,1002.63,145.48,1002.48Z"/><path class="cls-3" d="M144.83,1001.71a.14.14,0,0,1,0,.26,7,7,0,0,1-.8.07,1,1,0,0,1-.74-.11.13.13,0,0,1,0-.18C143.53,1001.54,144.55,1001.66,144.83,1001.71Z"/><path class="cls-3" d="M143.82,1001a.12.12,0,0,1-.09.21c-1-.23-1,.16-1.47.11-.11,0-.12-.15-.07-.23C142.5,1000.61,143.42,1000.72,143.82,1001Z"/><path class="cls-3" d="M142.25,999.92a.18.18,0,0,1,0,.36c-.69.06-1.07.29-1.36.05S141.57,999.88,142.25,999.92Z"/><path class="cls-3" d="M205.32,1009.17c.12,0,.17.13.26.17a.09.09,0,0,1,0,.17,1.67,1.67,0,0,1-.19,0c-.57,0-1,.14-1.37,0a.15.15,0,0,1-.06-.24A1.59,1.59,0,0,1,205.32,1009.17Z"/><path class="cls-3" d="M204.05,1008.41c.13,0,.13.24,0,.27-1.26.27-1.27.3-1.48.23a.12.12,0,0,1,0-.2A2.22,2.22,0,0,1,204.05,1008.41Z"/><path class="cls-3" d="M201.84,1008a7.63,7.63,0,0,0,.83-.17.17.17,0,0,1,.09.33c-.42.13-1.11.45-1.52.19a.12.12,0,0,1,0-.2A1.24,1.24,0,0,1,201.84,1008Z"/><path class="cls-3" d="M201.49,1007.49a.13.13,0,0,1,0,.25c-.56,0-1.78.41-1.48.06A1.6,1.6,0,0,1,201.49,1007.49Z"/><path class="cls-3" d="M199.78,1007.08c.13,0,.2.09.31.12s.07.18,0,.17-.14.08-.21.09a6.31,6.31,0,0,1-1.31.25c-.09,0-.18-.12-.12-.21A1.55,1.55,0,0,1,199.78,1007.08Z"/><path class="cls-3" d="M198.33,1006.77c.13,0,.12.24,0,.26-1.26.27-1.27.31-1.49.24a.13.13,0,0,1-.05-.2A2.2,2.2,0,0,1,198.33,1006.77Z"/><path class="cls-3" d="M195.73,1006.67c.28,0,.56-.1.83-.16a.17.17,0,0,1,.09.32c-.42.13-1.11.45-1.52.19a.12.12,0,0,1,0-.2A1.37,1.37,0,0,1,195.73,1006.67Z"/><path class="cls-3" d="M195.35,1006.29a.13.13,0,0,1,0,.25c-.56.06-1.78.41-1.48.06A1.6,1.6,0,0,1,195.35,1006.29Z"/><path class="cls-3" d="M89.29,1003.1c1.06-7.45,8.86-8.05,7.91-7.64-5.13,2.17-7.58,5.08-7.11,10.64a3.29,3.29,0,0,1,1.49-.72.12.12,0,0,1,.09.22,4.22,4.22,0,0,0-1.85,2.72c0,.37.05,1.65,0,2-.19.9-1.14-1.81-.28-3.56A7,7,0,0,1,89.29,1003.1Z"/><path class="cls-3" d="M114.6,1012.77c-3.19-.79-4.69-2.71-4.06-2.67a34,34,0,0,0,3.9,1.56c1.46.48,2.94,0,4.42,0,.06,0,.09.09,0,.13a4.1,4.1,0,0,1-2.62,1.13c.22.16.44.32.66.45a12.44,12.44,0,0,0,3.4,1.46,8.16,8.16,0,0,0,6.85-1.2c.13-.08.27.12.16.23-2.87,2.82-6.71,2.58-10.3.77A7.23,7.23,0,0,1,114.6,1012.77Z"/><path class="cls-3" d="M122.43,1014a2.84,2.84,0,0,1-1.73,0c-.25-.12.32-.53,1.73-.16A.08.08,0,0,1,122.43,1014Z"/><path class="cls-3" d="M121,1013.3c-.31.15-.83.45-1.17.24a.11.11,0,0,1,0-.18,1.26,1.26,0,0,1,.47-.12l.62-.14A.11.11,0,0,1,121,1013.3Z"/><path class="cls-3" d="M119.65,1012.63a.07.07,0,0,1,0-.12.75.75,0,0,1,.42,0,1.55,1.55,0,0,0,.43-.07c.06,0,.1.07,0,.11A1,1,0,0,1,119.65,1012.63Z"/><path class="cls-3" d="M115.11,1010.92a2.07,2.07,0,0,1,.77-.22,2.82,2.82,0,0,0,.79-.26c.11-.05.25.1.14.2C115.54,1011.76,114.81,1011.16,115.11,1010.92Z"/><path class="cls-3" d="M115.54,1010.43a4.6,4.6,0,0,0-.52.06c-.15,0-.34.13-.48,0a.15.15,0,0,1-.05-.13c.12-.35.78-.25,1.05-.23A.14.14,0,0,1,115.54,1010.43Z"/><path class="cls-3" d="M113,1010.08c.25-.19.06-.08.53-.18a2.41,2.41,0,0,0,.63-.24c.14-.08.32.13.18.24C113.36,1010.73,112.77,1010.25,113,1010.08Z"/><path class="cls-3" d="M113.65,1009.41c-.33,0-.66.19-1,.07s.34-.31,1-.31C113.79,1009.16,113.79,1009.4,113.65,1009.41Z"/><path class="cls-3" d="M113,1008.77c-.57.36-1.13.16-1,0s.27-.12.43-.12a1.43,1.43,0,0,0,.46-.07C113,1008.48,113.12,1008.69,113,1008.77Z"/><path class="cls-3" d="M91.85,988.64a4.88,4.88,0,0,1-.66-.38c-.26-.14-.54-.18-.79-.32-.06,0-.06-.15,0-.17C91.12,987.6,92.08,988.73,91.85,988.64Z"/><path class="cls-3" d="M91.12,988.87s0,.12-.07.07a2.07,2.07,0,0,0-.93-.45c-.21,0-.51-.06-.67-.23a.12.12,0,0,1,0-.2,1.49,1.49,0,0,1,.92.15A1.21,1.21,0,0,1,91.12,988.87Z"/><path class="cls-3" d="M90.14,989l-.65-.15a1.79,1.79,0,0,1-.52-.12.08.08,0,0,1,0-.14C89.34,988.47,90.38,989.1,90.14,989Z"/><path class="cls-3" d="M89.9,989.64c.08.09,0,.25-.12.18a2,2,0,0,0-.75-.34,2,2,0,0,1-.72-.18c-.2-.14.06-.4.88-.09A1.68,1.68,0,0,1,89.9,989.64Z"/><path class="cls-3" d="M89.16,990.31a4.25,4.25,0,0,0-.85-.22,1.36,1.36,0,0,1-.59-.18s0-.12,0-.13C88.53,989.6,89.47,990.45,89.16,990.31Z"/><path class="cls-3" d="M128.46,994.26c-.27.08-.56.06-.84.13a4.75,4.75,0,0,1-.73.23c-.23,0,.94-.85,1.59-.52C128.55,994.13,128.52,994.24,128.46,994.26Z"/><path class="cls-3" d="M128.62,994.86a2,2,0,0,0-1,.23c-.05,0-.09,0-.06-.08a1.11,1.11,0,0,1,.83-.48,1.41,1.41,0,0,1,.93.06.12.12,0,0,1,0,.2C129.13,994.93,128.84,994.86,128.62,994.86Z"/><path class="cls-3" d="M129.69,995.41a2,2,0,0,1-.54,0h-.67c-.24,0,.9-.37,1.23-.14A.09.09,0,0,1,129.69,995.41Z"/><path class="cls-3" d="M130.22,996.07a2,2,0,0,1-.74,0,2,2,0,0,0-.8.15c-.12,0-.17-.14-.08-.2a1.58,1.58,0,0,1,.78-.26C130.25,995.67,130.45,996,130.22,996.07Z"/><path class="cls-3" d="M130.67,996.8a1.11,1.11,0,0,1-.6,0,3.77,3.77,0,0,0-.89,0c-.32,0,.76-.55,1.51-.19C130.75,996.7,130.72,996.78,130.67,996.8Z"/><path class="cls-3" d="M131.15,997.68a1.67,1.67,0,0,1-.62-.12,2.75,2.75,0,0,0-1,0,.08.08,0,0,1,0-.15c.46-.25,1.37-.43,1.73.1A.12.12,0,0,1,131.15,997.68Z"/><path class="cls-3" d="M131.25,998.35a3.21,3.21,0,0,1-1.1-.12c-.05,0-.05-.1,0-.1.41-.07.91-.16,1.15.06C131.36,998.24,131.31,998.33,131.25,998.35Z"/><path class="cls-3" d="M131.69,999.17a1.26,1.26,0,0,1-.52-.14,1.35,1.35,0,0,0-.6-.09c-.07,0-.08-.11,0-.12C131.68,998.57,131.93,999.15,131.69,999.17Z"/><path class="cls-3" d="M132,1000.15c-.22,0-.4-.11-.6-.19a2.67,2.67,0,0,0-.79-.18c-.08,0-.1-.13,0-.15.5-.15,1.33,0,1.49.38A.12.12,0,0,1,132,1000.15Z"/><path class="cls-3" d="M132.14,1001.37c-.22,0-.36-.29-.54-.4a2.06,2.06,0,0,0-.72-.25.08.08,0,0,1,0-.13c.66-.3,1.5.31,1.39.68A.14.14,0,0,1,132.14,1001.37Z"/><path class="cls-3" d="M132,1002.22a.53.53,0,0,0-.48-.18c-.12,0-.15-.21,0-.23C132.49,1001.61,132.73,1003.06,132,1002.22Z"/><path class="cls-3" d="M96.26,997c.7-.18,1.67.94,1.45.86a4.44,4.44,0,0,1-.67-.38c-.26-.14-.55-.18-.79-.32A.09.09,0,0,1,96.26,997Z"/><path class="cls-3" d="M95.3,997.52a.12.12,0,0,1,0-.2c.26-.12.67,0,.92.15a1.16,1.16,0,0,1,.71.66s0,.11-.07.06a2.07,2.07,0,0,0-.93-.45C95.76,997.69,95.46,997.69,95.3,997.52Z"/><path class="cls-3" d="M94.82,998a.08.08,0,0,1,0-.14c.36-.16,1.41.47,1.17.41l-.66-.15A1.87,1.87,0,0,1,94.82,998Z"/><path class="cls-3" d="M94.17,998.56c-.21-.14,0-.4.87-.1a1.7,1.7,0,0,1,.71.44c.08.08,0,.25-.11.18a2.12,2.12,0,0,0-.75-.34A1.91,1.91,0,0,1,94.17,998.56Z"/><path class="cls-3" d="M93.58,999.17s-.06-.11,0-.13c.8-.18,1.74.66,1.43.53a4.18,4.18,0,0,0-.86-.22A1.27,1.27,0,0,1,93.58,999.17Z"/><path class="cls-3" d="M94.53,1000.16a2.67,2.67,0,0,0-1-.21,1.89,1.89,0,0,1-.63,0,.14.14,0,0,1,0-.2c.46-.43,1.31-.05,1.72.3C94.69,1000.09,94.61,1000.19,94.53,1000.16Z"/><path class="cls-3" d="M93.82,1000.58a.06.06,0,0,1,0,.11,3.65,3.65,0,0,1-1.1-.13s-.08-.14,0-.18C93,1000.23,93.43,1000.43,93.82,1000.58Z"/><path class="cls-3" d="M93.29,1001.17c.06,0,0,.14,0,.12a1.54,1.54,0,0,0-.6-.06,1.24,1.24,0,0,1-.54,0C91.88,1001.18,92.24,1000.67,93.29,1001.17Z"/><path class="cls-3" d="M93.08,1002a.07.07,0,0,1,0,.14,3.14,3.14,0,0,0-.81,0c-.21,0-.42.14-.62,0a.13.13,0,0,1,0-.16C91.8,1001.61,92.62,1001.7,93.08,1002Z"/><path class="cls-3" d="M92.63,1002.83c.05,0,0,.12,0,.12a2.37,2.37,0,0,0-.75.08c-.2.08-.39.32-.61.28a.14.14,0,0,1-.09-.13C91.11,1002.8,92.05,1002.39,92.63,1002.83Z"/><path class="cls-3" d="M91.82,1003.89c.11.05,0,.25-.07.22a.5.5,0,0,0-.5.07C90.32,1004.82,90.84,1003.46,91.82,1003.89Z"/><path class="cls-3" d="M109,984.06a4.92,4.92,0,0,1-.5-.61c-.2-.22-.45-.37-.64-.59,0-.05,0-.16.06-.15C108.59,982.81,109.14,984.22,109,984.06Z"/><path class="cls-3" d="M108.19,984s-.07.09-.1,0a2.1,2.1,0,0,0-.72-.76c-.18-.13-.46-.24-.55-.46a.11.11,0,0,1,.1-.17c.27,0,.61.3.81.48A1.27,1.27,0,0,1,108.19,984Z"/><path class="cls-3" d="M107.22,983.81l-.57-.39a1.68,1.68,0,0,1-.45-.3.08.08,0,0,1,0-.13C106.65,983,107.42,984,107.22,983.81Z"/><path class="cls-3" d="M106.27,983.61a1.81,1.81,0,0,1,.52.67c0,.11-.09.23-.16.13a2.4,2.4,0,0,0-.6-.59,2.32,2.32,0,0,1-.62-.44C105.27,983.17,105.59,983,106.27,983.61Z"/><path class="cls-3" d="M104.66,983.73s0-.12,0-.11c.81.12,1.42,1.26,1.17,1a3.85,3.85,0,0,0-.73-.52A1.33,1.33,0,0,1,104.66,983.73Z"/><path class="cls-3" d="M104.4,984.46a1.74,1.74,0,0,1-.59-.26.14.14,0,0,1,0-.2c.58-.23,1.25.44,1.52.92a.08.08,0,0,1-.12.09A2.91,2.91,0,0,0,104.4,984.46Z"/><path class="cls-3" d="M103.44,984.54c.3,0,.68.32,1,.61,0,0,0,.11-.05.09a3.61,3.61,0,0,1-1-.53C103.35,984.66,103.36,984.55,103.44,984.54Z"/><path class="cls-3" d="M102.61,985.15c-.19-.16.31-.51,1.13.35.05,0,0,.14-.07.1a1.51,1.51,0,0,0-.55-.28A1.1,1.1,0,0,1,102.61,985.15Z"/><path class="cls-3" d="M101.85,985.79a.14.14,0,0,1,0-.17c.35-.26,1.09.13,1.45.54a.07.07,0,0,1-.09.11,3.15,3.15,0,0,0-.77-.3C102.23,985.93,102,986,101.85,985.79Z"/><path class="cls-3" d="M101.12,986.75a.14.14,0,0,1-.05-.16c.09-.37,1.11-.41,1.51.22a.07.07,0,0,1-.08.11,2.29,2.29,0,0,0-.72-.21C101.57,986.71,101.31,986.87,101.12,986.75Z"/><path class="cls-3" d="M101.48,987.51c.09.09,0,.25-.14.18a.52.52,0,0,0-.49-.12C99.77,987.83,100.7,986.75,101.48,987.51Z"/><path class="cls-3" d="M80,1003c.22.14.56.24.71.46a.12.12,0,0,1-.08.18c-.46.07-1.28-.75-1.67-1.42,0,0,0-.09.07,0A3.68,3.68,0,0,0,80,1003Z"/><path class="cls-3" d="M79.51,1002c-.05-.09,0-.18.12-.11a3.44,3.44,0,0,0,1.37.7C81.38,1002.66,80.21,1003.33,79.51,1002Z"/><path class="cls-3" d="M80.17,1001.06a6.15,6.15,0,0,1,.93.55c.24.21-.57.61-2-1.08a.06.06,0,0,1,.07-.09C79.54,1000.63,79.85,1000.86,80.17,1001.06Z"/><path class="cls-3" d="M81.44,1000.51a.09.09,0,0,1,0,.16c-.74.31-1.86-.6-2.23-1.22,0-.05,0-.12.07-.09a11,11,0,0,0,1.09.67A4.26,4.26,0,0,1,81.44,1000.51Z"/><path class="cls-3" d="M79.6,998.82c-.07-.07,0-.22.11-.16a5.12,5.12,0,0,0,1.46.65C81.42,999.46,80.87,999.94,79.6,998.82Z"/><path class="cls-3" d="M81.54,998.49a.08.08,0,0,1,0,.14c-.36.11-1-.32-1.3-.56-.07-.06,0-.19.09-.14a2.77,2.77,0,0,0,.69.34A1.29,1.29,0,0,1,81.54,998.49Z"/><path class="cls-3" d="M82.44,997.9a.09.09,0,0,1,0,.17c-.54.13-1.14-.43-1.56-.73-.09-.06,0-.23.11-.17a6.86,6.86,0,0,0,.75.42A4.12,4.12,0,0,1,82.44,997.9Z"/><path class="cls-3" d="M82.62,997.22a.1.1,0,0,1-.08.15,3.41,3.41,0,0,1-1.35-.69.09.09,0,0,1,.1-.15l.73.31A1.24,1.24,0,0,1,82.62,997.22Z"/><path class="cls-3" d="M82.84,996.43c-.37,0-.76-.35-1-.63-.07-.08,0-.21.11-.13.42.45.66.42.91.65A.06.06,0,0,1,82.84,996.43Z"/><path class="cls-3" d="M82.94,995.42l-.43-.42c-.08-.08,0-.21.11-.14a5.85,5.85,0,0,0,.49.38c.12.08.29.15.34.3S83.33,995.76,82.94,995.42Z"/><path class="cls-3" d="M83.29,994.11a4.22,4.22,0,0,0,.58.54c.17.13.45.23.48.46a.11.11,0,0,1,0,.11c-.38.21-.92-.6-1.15-1C83.1,994.15,83.21,994,83.29,994.11Z"/><path class="cls-3" d="M84.31,993.11a1.6,1.6,0,0,0,.36.68c.14.15.41.28.42.51,0,.41-.9.07-1.06-1.12A.14.14,0,0,1,84.31,993.11Z"/><path class="cls-3" d="M85.34,992.92a1.77,1.77,0,0,0,.32.59c.12.15.31.3.28.51s-.65.08-.84-1A.12.12,0,0,1,85.34,992.92Z"/><path class="cls-3" d="M86.39,992.52a6.36,6.36,0,0,0,.3.58.91.91,0,0,1,.16.44c0,.06,0,.14-.12.12-.35-.12-.48-.72-.58-1A.13.13,0,1,1,86.39,992.52Z"/><path class="cls-3" d="M87.4,992.36a1.53,1.53,0,0,0,.13.52c0,.12.15.23.12.37s0,.08-.08.08c-.35,0-.43-.69-.44-1A.14.14,0,1,1,87.4,992.36Z"/><path class="cls-3" d="M48,1019h0c2.78,0,5.8-1.08,9.09-1.84,3.1-.72,8-.42,10.53-1.42,3.14,2.52,10.39,4.2,17.47,1.84a10.24,10.24,0,0,0,1.62,1.06c11.8,6.76,15.57.81,18.5.81,1.91,0,3.13,2.87,7.71,3.52,3.73.52,6.6.16,9.51-1.94a28.8,28.8,0,0,0,9.39,1.35c9.83.25,8.88-2.38,13.13-3.11,2.62-.46,5.14,1.85,9,1.85,1.58,0,3.87-.35,4.5-1.9a44.36,44.36,0,0,0,5.72.56c1.46,0,4.87-.37,5-1.93,2.06.5,5.31,1.83,8.91,1.83,2.59,0,7.2-.55,10-2,1.44.93,4.93,1,5,1a10.42,10.42,0,0,0,6.11-1.76c3.95-2.26,3.63-1.17,7.93-.86,2.8.21,7.71-1.29,10.12-2.61,5.32,2.49,8.76.14,8.83-1.95.11-3.57-8.54-4.69-11.93-4.72a13.09,13.09,0,0,0-6.32,1,18.23,18.23,0,0,0-12-4.31c-5.7,0-10.37,3-11.83,5.41a20.81,20.81,0,0,0-11.61.78c-3.28-4-10-6.84-16.28-6.84a15.85,15.85,0,0,0-6.16,1.13c-.85-4.17-6.34-7.37-11-7.37a8.12,8.12,0,0,0-4.57,1.29,15.29,15.29,0,0,0-3.77-5.64,9.7,9.7,0,0,0-5.65-2.44,6.54,6.54,0,0,0-6.6-6.34c-1.23-4.89-14.54-6.28-20.59,2.5-3.5-1-8.87-1.69-11.59.88a7.15,7.15,0,0,0-1.76,3.56c-6.18,2.92-8.4,9.3-7.73,12.87-5.41-.24-9.24,2.28-10.51,4-4.06-.83-6.38-1.35-10,.84a10.26,10.26,0,0,1-4.47,1.55C36.3,1012.25,41.72,1019,48,1019Zm-4.15-4.29c2.86-3.06,9-2.58,12.14-4.2,1.63-.85,2.82-2.24,6.39-1.91s5.25.72,7.1,1a.23.23,0,0,0,.05-.4,6,6,0,0,0-1.68-.72c6-6.59,13.83-1.58,15.58-1.56a7.14,7.14,0,0,0-4.31-2.52c-2.18-2.7-.18-11.84,9.73-13.22.37,0,.2-.38-.17-.43a14.57,14.57,0,0,0-2.56,0c.75-4.49,6.81-4.06,11-3a25.73,25.73,0,0,0,3.28.81c.13,0,.18-.17.1-.26a4.43,4.43,0,0,0-1.65-1.08c7.64-8.55,15.57-5.23,16.56-4.73a2.41,2.41,0,0,1,1,3.72c-.16.23.43.09.65-.12a3.48,3.48,0,0,1,2.1-.69,5.42,5.42,0,0,1,4.52,5.12,8.33,8.33,0,0,0-2.58.22c-.14,0-.73.16-.62.23,1.38.89,5.39-.17,8.66,2.44,5.19,4.13,4.6,8.77,4.35,9.65-.12.43,1.19-.45.88-2.69,3.41-3,10.24-1,12.73,2a6.94,6.94,0,0,1,1.47,3.46,5.36,5.36,0,0,0-1.93,1.85c-.14.25.15.53.36.38,11.49-8.13,23.58,1.71,24.42,3.28-.38.18-.94.68-1.3.89-.53.32.28.56.81.24,3.92-2.39,8.89-2.55,13-1.6,1.25.29,2.45.78,3.7,1,.36.08-.7-.88-2.34-1.48.91-.85,2.2-2.87,5.26-3.95,6.24-2.21,12.52.1,18.2,3.62a.11.11,0,0,0,.13-.17c-.13-.15-.28-.29-.41-.44a22.18,22.18,0,0,1,12.25,0c.7.19,3.85.9,3.83,2.05,0,.71-1.32,1.27-1.8,1.36A8.54,8.54,0,0,1,218,1012c.27-.21.53-.44.78-.67s0-.4-.18-.33c-1.41.5-7.57,3.92-12.5,3.09a16.72,16.72,0,0,0-3.38-.42c-4.12.2-5.18,4.6-13.68,2.44a4.36,4.36,0,0,0,.82-1c.07-.12-.07-.28-.18-.2-4,2.87-12,3.5-16.6,2-1.55-.5-3.29-1.3-4.92-1.28-1.22,0-1.37.82-1,1.65-.43,1.51-8.35.38-9.5-.13-1.32-2.67-5-3-6.43-3.25-.09,0-.14.12-.06.16,2,1.15,3.61,1.38,4.72,2.47,1.36,1.33,1.54,2.16-.44,2.5-5.65.95-7.23-3.46-12.78-1.05-3.92,1.7-4.48,2.89-13.51,2.29a46.38,46.38,0,0,1-5.74-1.06,34.35,34.35,0,0,1,3.55-2.38c.11-.08.11-.34,0-.32-3.85.64-6,5.94-14.62,4.17-2.4-.5-4-2.91-6.42-3.27-4.69-.72-5.68,6.66-19.44-1.29a12.75,12.75,0,0,0,3.07-1.91c.06-.06,0-.17-.08-.14-3.81,1.23-7.37,2.62-11.42,2.55-3.86-.06-9-1.08-11.75-4.05-.3-.33-.22,0,0,.43a5.21,5.21,0,0,0,.72,1.06c-1.56.27-6.95.46-9.55.94-3.23.6-7.95,2.35-10.83,1.81C45.43,1016.67,43.73,1016.14,43.83,1014.67Z"/></g><g class="cls-2"><path d="M449.94,112c-1.77-1.91-4.32-2.11-6.73-1.42-1.09-3.15-4.5-5.49-7.33-4.18-1.64-3.72-9.37-8.52-13.38-5.11A8.12,8.12,0,0,0,417.79,98a6.19,6.19,0,0,0-4.85-3.94c.52-3.69-1.89-8.43-6.54-10.19.1-4.23-4.86-8.47-9.39-6.68-2.3-5.67-9.89-7.93-13.05-5.65a14.33,14.33,0,0,0-17.75-7.22c-6.64,2.28-11.57,9.47-11.87,14.72-5.44-2-14.95,1.57-17.83,8.29-2.32-.89-7,1.16-7.81,5.8-6.46-1.45-14.16,2.6-16.69,7.58-2.69-1.08-8,.43-10.46,4.41s1.69,9.89,8.75,7.13c2.8-1.09,5.3-3.34,7.95-3.34,4.21,0,7.73,5.47,14.54,4.09a33.86,33.86,0,0,0,8.83-3.56c2.76,6.36,14.13,6.74,19.37,2.93a14.78,14.78,0,0,0,8.29,3.09c-1.42,7.33,8.88,9,16.9,4.77,3.32,2.9,10.06,2.62,13.62.43,1.17,4.3,7.09,4.39,11.2,1.82a6.19,6.19,0,0,0,4,.82,9.3,9.3,0,0,0,6-2.66c2.68,3,9.68,2.47,13,0,2.06,2,5.48,1.82,8.18,1.69C454.36,121.83,453.17,115.5,449.94,112Z"/><path class="cls-3" d="M401.62,89a5.11,5.11,0,0,0,2.44-.33,4,4,0,0,0,2-1.15.21.21,0,0,0-.16-.31c-.69-.06-1.41.53-2,.79a12.35,12.35,0,0,1-2.31.71C401.42,88.77,401.48,89,401.62,89Z"/><path class="cls-3" d="M402.88,89.73c-.1,0-.09.2,0,.23a5.55,5.55,0,0,0,4.63-1.61.11.11,0,0,0-.09-.17,7.49,7.49,0,0,0-2.08.91A12.19,12.19,0,0,1,402.88,89.73Z"/><path class="cls-3" d="M405,90.75a.11.11,0,0,0,.08.21,6.51,6.51,0,0,0,1.93-.71c1.46-.79,1.46-1.39,1.18-1.33-.51.11-1,.62-1.41.9S405.55,90.41,405,90.75Z"/><path class="cls-3" d="M398.13,82.13c1.08-.3,3.28-.27,3.62-1.43a.09.09,0,0,0-.11-.12c-.54.21-.27.39-1.69.81a13.81,13.81,0,0,0-1.85.61C398,82,398.06,82.15,398.13,82.13Z"/><path class="cls-3" d="M400.14,82.58c.94-.15,2.39-.39,2.61-1.08a.1.1,0,0,0-.08-.12c-.43,0-.89.32-1.29.49C400.53,82.21,399.85,82.62,400.14,82.58Z"/><path class="cls-3" d="M407,115.87a7.67,7.67,0,0,1-1.9,2.54c-.59.47-1.52.41-1.93,1.13-.26.47.93.32,2.38-.94a5.76,5.76,0,0,0,1.54-2.69A0,0,0,0,0,407,115.87Z"/><path class="cls-3" d="M357.78,109.43a7,7,0,0,1-.79.65,1.56,1.56,0,0,0-.52.47.15.15,0,0,0,.12.22c.49,0,1-.58,1.36-.92a3.28,3.28,0,0,0,1-1.45C359.09,108.06,358.19,109.06,357.78,109.43Z"/><path class="cls-3" d="M335.38,107.8a18.39,18.39,0,0,1-2,1.26c-.66.36-1.61.36-2.16.91a.18.18,0,0,0,0,.26c.64.31,1.35-.11,1.95-.41a8.69,8.69,0,0,0,2.33-1.83C335.61,107.9,335.49,107.72,335.38,107.8Z"/><path class="cls-3" d="M348.27,82.09c-1,0-2.5,0-3.27.77a.16.16,0,0,0,.1.26,19.46,19.46,0,0,0,3.17-.39c1.2-.06,2.39.17,3.59.17.08,0,.13-.14.05-.18A8.75,8.75,0,0,0,348.27,82.09Z"/><path class="cls-3" d="M348.86,84.24a11.66,11.66,0,0,0-4.2-.29c-.8.07-2.71.18-2.92,1.3-.11.52,1-.25,1.45-.4a22.07,22.07,0,0,1,5.65-.44A.09.09,0,0,0,348.86,84.24Z"/><path class="cls-3" d="M345.48,86c-1.49-.59-4.09-.31-5.16,1.17-.09.12,0,.31.14.27,1.3-.34,2.24-1.38,5-1.27C345.55,86.17,345.56,86,345.48,86Z"/><path class="cls-3" d="M449.94,112c-1.77-1.91-4.32-2.11-6.73-1.42-1.09-3.15-4.5-5.49-7.33-4.18-1.64-3.72-9.37-8.52-13.38-5.11A8.12,8.12,0,0,0,417.79,98a6.19,6.19,0,0,0-4.85-3.94c.52-3.69-1.89-8.43-6.54-10.19.1-4.23-4.86-8.47-9.39-6.68-2.3-5.67-9.89-7.93-13.05-5.65a14.33,14.33,0,0,0-17.75-7.22c-6.64,2.28-11.57,9.47-11.87,14.72-5.44-2-14.95,1.57-17.83,8.29-2.32-.89-7,1.16-7.81,5.8-6.46-1.45-14.16,2.6-16.69,7.58-2.69-1.08-8,.43-10.46,4.41s1.69,9.89,8.75,7.13c2.8-1.09,5.3-3.34,7.95-3.34,4.21,0,7.73,5.47,14.54,4.09a33.86,33.86,0,0,0,8.83-3.56c2.76,6.36,14.13,6.74,19.37,2.93a14.78,14.78,0,0,0,8.29,3.09c-1.42,7.33,8.88,9,16.9,4.77,3.32,2.9,10.06,2.62,13.62.43,1.17,4.3,7.09,4.39,11.2,1.82a6.19,6.19,0,0,0,4,.82,9.3,9.3,0,0,0,6-2.66c2.68,3,9.68,2.47,13,0,2.06,2,5.48,1.82,8.18,1.69C454.36,121.83,453.17,115.5,449.94,112Zm.45,5.21c-.26,1.47-2.37,2.33-3.65,2.69a7.64,7.64,0,0,0,1.88-2.55c0-.1-.08-.18-.14-.09a14.73,14.73,0,0,1-3,2.93c-.6.1-1.2.17-1.79.22l.55-.43c1.48-1.12,1.84-2.38,1.55-2.08a10,10,0,0,1-2,1.69,7.21,7.21,0,0,0-1.49.9c-.56,0-1.11,0-1.67,0,2.37-1.51,4-5,3.42-4.29a13,13,0,0,1-4.91,4.21c-.35,0-.7-.08-1.05-.14a9.4,9.4,0,0,0,3.28-3.89.1.1,0,0,0-.16-.11,11.27,11.27,0,0,1-4.17,3.74c-.18-.06-.35-.11-.52-.18a7.77,7.77,0,0,0,2.11-2.65c.05-.1-.07-.21-.14-.12a9.9,9.9,0,0,1-2.6,2.49,7.69,7.69,0,0,1-1.19-.72,3.94,3.94,0,0,0,.82-1.9c0-.17-.16-.28-.25-.12a6.35,6.35,0,0,1-1.29,1.65.4.4,0,0,0-.12.1,7.93,7.93,0,0,1-3.18,1.61,17.46,17.46,0,0,0,2-3.07c.05-.1-.07-.21-.14-.12a25.77,25.77,0,0,1-3,3.44c-.58.1-1,.14-1.24.17,3.22-3.16,2.63-4.86,2.5-4.54a10.63,10.63,0,0,1-3.42,4.6,10.9,10.9,0,0,1-2.21-.13,8.51,8.51,0,0,0,2.92-3.6.06.06,0,0,0-.1-.07,9.46,9.46,0,0,1-3.82,3.44,8.44,8.44,0,0,1-1.05-.41c1.55-1.08,1.94-2.77,1.74-2.45a8.22,8.22,0,0,1-2.3,2.07c-.18-.16-.91-1-1.08-1.1a5,5,0,0,0,.41-1.14.19.19,0,0,0-.34-.16,8.14,8.14,0,0,1-4.33,3.8,14.77,14.77,0,0,0,2.28-3.72c0-.1-.08-.23-.16-.13a24.34,24.34,0,0,1-3.49,4.21,7.58,7.58,0,0,1-1.58.08c1.65-1.29,2-3.29,1.71-2.81a7.43,7.43,0,0,1-2.52,2.72,7,7,0,0,1-1.7-.52c1.57-1.43,1.75-3.14,1.58-2.82A7.19,7.19,0,0,1,411,120.4a.29.29,0,0,0-.3.19,12,12,0,0,1-2.13,1A15.12,15.12,0,0,0,411,117.1s0-.12-.07-.07c-1.29,1.67-1.77,3.3-3.2,4.42-.42.33-.92.4-1.32.76a6.73,6.73,0,0,1-2.24,0c3.6-1.74,4.8-6.33,4.3-5.39a10.08,10.08,0,0,1-5.48,5c-1.1-.61-1.78-1.81-1.66-3.79a5.08,5.08,0,0,0,.51-1c0-.09-.05-.15-.11-.1a17,17,0,0,1-1.38,1.07,11.3,11.3,0,0,0,1.37-2.91.07.07,0,0,0-.12-.06c-1.78,2.7-2,4.07-5.63,5a8,8,0,0,0,2.37-3.34c0-.06-.05-.12-.08-.06a12,12,0,0,1-4.14,3.7,11.64,11.64,0,0,1-1.67,0c3.42-2.23,3.86-5.61,3.42-4.89-2.51,4.16-3.4,3.62-5,4.66a9,9,0,0,1-.89-.25,7.23,7.23,0,0,0,3.51-4.28.07.07,0,0,0-.13-.07c-2,3.45-3.14,3.23-4.5,3.94a12.11,12.11,0,0,1-1.73-.93.4.4,0,0,0-.44-.49,2.44,2.44,0,0,0-.26.06.32.32,0,0,0-.3.07l-.72.2a7.61,7.61,0,0,0,1.52-2c0-.09-.07-.19-.13-.11a11.31,11.31,0,0,1-6.16,3.78,9.52,9.52,0,0,0,2.51-2.55c.06-.08-.05-.19-.13-.14-1.12.77-2.17,1.65-3.35,2.31a14.17,14.17,0,0,1-2.47.88,11,11,0,0,1-2.68-.32c6.14-.7,6.95-5.18,6.54-4.64-3,3.89-7,3.45-8.5,3.88a3.34,3.34,0,0,1-.91-.84c2.89.14,5.41-1.34,7.46-3.6.07-.08,0-.24-.1-.2-1.69.77-2.74,3.24-7.82,3-.77-2.1.69-4.22,2.24-5.72a3.7,3.7,0,0,1,3-1c.45,0-.2-1-1.32-.9,1.25-4.67,5.37-6.87,8.53-6,1.58.41,2.65,2,3.64,3.27.24.32.66.09.73-.24a5,5,0,0,1,3.69-2.21c2.86-.38,3.55,1.07,4.65,2.17a7.17,7.17,0,0,0-.4,1.86.12.12,0,0,0,.24,0,8.42,8.42,0,0,1,.75-1.64.37.37,0,0,0,.16-.27c2.27-3.55,6.91-5,10.22-2.09,0,.07,0,.14,0,.21a.13.13,0,0,0,.26,0s0-.09,0-.14a.4.4,0,0,0,.24-.65c1.56-3.72,6.66-5.46,10.44-4.2,1.71.57,2.54,2.08,3.54,3.54-.08.22.12.48.3.4a.28.28,0,0,0,.4-.27.78.78,0,0,0,0-.16c1.84-2.09,4.07-2,6.51-.92a11.84,11.84,0,0,1,5.85,5.57.3.3,0,0,0,.57-.13,4.77,4.77,0,0,1,6.39,3.85,11.74,11.74,0,0,0-2.74,1.72c-.13.1-.06.36.11.3,3-1,6.61-3.44,9.51-.75A4.86,4.86,0,0,1,450.39,117.24Zm-78-7.14c-.95,1.86-2.89,2.86-3.12,3.18-.51,0-1-.09-1.52-.16,3.8-2.52,3.79-5.26,3.58-4.76-1,2.26-2.86,3.52-4.8,4.54l-1-.24c2.8-1.67,4.23-5.8,3.85-5.25-2.73,4-3.36,4-4.91,4.93a13.81,13.81,0,0,1-1.33-.55c2-1.21,2.47-3.09,2.2-2.73a7.17,7.17,0,0,1-2.93,2.34,3.59,3.59,0,0,1-1-.74.48.48,0,0,0-.34-.46,4.22,4.22,0,0,1-.4-1.66c0-.05-.07-.1-.11-.05a1.76,1.76,0,0,0-.11,1.88c-2.57,1.32-4.54,2.27-7.65,2.42a11.22,11.22,0,0,0,3.61-3.71c.07-.11-.09-.23-.17-.14-2.88,3.06-3.88,3.07-6.07,3.75a12.55,12.55,0,0,1-1.92-.36c5-1.44,6-5.39,5.69-5-1.86,2.23-4.26,4.29-7.13,4.53a8.88,8.88,0,0,1-1.79-1.08c3.16,0,7.29-3.63,6.52-3.21a14.51,14.51,0,0,1-7.54,2.26,6.25,6.25,0,0,1-.68-.92c6.07-.24,7.58-4.57,6.95-3.8-1.85,2.25-4.75,2.72-7.35,3-.58-1.4-.14-2.16,1-3.06a.17.17,0,0,0-.11-.31,2.3,2.3,0,0,0-1.9,2.46c-3,1.34-9.11,5.56-14.84,3.38a8.73,8.73,0,0,0,5.78-4.07.1.1,0,0,0-.15-.13c-4,3.63-4.45,2.75-7.13,3.52l-1.17-.6a8.37,8.37,0,0,0,6.42-4.33s0,0,0,0c-4,3.83-5.19,2.93-7.82,3.63-.41-.19-.82-.38-1.23-.55a12.22,12.22,0,0,0,4.44-2.77c.11-.09,0-.25-.14-.2-1.13.55-2.23,1.21-3.39,1.69a14,14,0,0,1-3.25.55,7.58,7.58,0,0,0-4.49.48c-3.42,1.45-8.9,6.12-12,1.42-1.63-2.48,1.54-4.92,3.25-5.87s4.15-1.75,6-.71a6.64,6.64,0,0,0-.26,1.49c0,.35.4.34.5.07,1.12-3,2.62-6.09,8.12-8.3a13,13,0,0,1,8.13-.67,31,31,0,0,1,3.42,1.56c.31.12.52-.35.3-.58a6,6,0,0,0-2.07-1.46c-.46-1.73.18-3,1.44-4.25a5.1,5.1,0,0,1,2.54-1.36,4.1,4.1,0,0,1,2.38.46,8.53,8.53,0,0,0-.16,2.38.26.26,0,1,0,.51,0c.76-9.29,12.31-13.82,18.41-10.2l.11,0c.07.16.14.33.22.49a.17.17,0,0,0,.3-.14c-.05-.2-.09-.4-.13-.59a.47.47,0,0,0-.06-.44c-1-8.29,10.65-20.44,21.48-14a12.23,12.23,0,0,1-3.58,2,11.41,11.41,0,0,1-6.06.85s-.06,0,0,.06c3.22,1.32,7.82.11,10.39-2.47A13.48,13.48,0,0,1,380,69.05a11.43,11.43,0,0,1-7.31,3.65,0,0,0,0,0,0,.07,8.26,8.26,0,0,0,7.84-3.15,11.75,11.75,0,0,1,1.4,1.95,11.61,11.61,0,0,1-3.95,2.6,24,24,0,0,1-5.15,1.22c-.06,0-.06.12,0,.13,3.06.59,8-1.11,9.46-3.27a12.74,12.74,0,0,1,.7,1.69c-3.16,2.77-4.44,2.06-7,3.33-.12.06,0,.23.08.21,2.35-.47,5.43-.66,7.22-2.67.08.3.16.6.23.91.12.54.8.3.73-.22a10.18,10.18,0,0,0-.33-1.59.22.22,0,0,0,0-.13c1.65-2.57,6.08-1.17,8.49.49-1.87,1.26-2.66,2.56-6.29,3.31a.12.12,0,0,0,0,.22c2.39.45,5.31-1.07,7-3a9,9,0,0,1,1.55,1.6,21.23,21.23,0,0,1-3.55,2.71,13.61,13.61,0,0,1-5.86,1.49c-.09,0-.08.15,0,.15,3.2.27,7.75-.57,9.85-3.7a5.92,5.92,0,0,1,.71,2c-3.1,2.17-6.26,4.08-10.06,4-.11,0-.14.21,0,.23,3.44.67,7.29-.73,10.1-3.09,0,2.13,1.07.77.87-.85a.44.44,0,0,0,0-.2,5.58,5.58,0,0,1,7.37,2.45,8.51,8.51,0,0,1,.75,2.89c-2.9-.62-6.21.28-7.45,3.54-.07.19.14.44.28.24,3.48-4.85,9.18-3.56,12.28.51,1.43,1.89,1.39,3.89,1.2,6.15a8.12,8.12,0,0,0-4.62,1.54c-.12.09,0,.35.11.29,2.28-1,5.39-1.51,7.62-.32-.86.25-1.69.6-2.58.78s-2.07.24-3.08.49,3.8,1,6.34-.84a3.76,3.76,0,0,1,1,1.23c-2.92.8-5.86,1.69-8.88,1.32-.07,0-.08.11,0,.12a11.07,11.07,0,0,0,4.16.36,8.21,8.21,0,0,0-1.88,1.25,9.2,9.2,0,0,0-1.57.06c-1.72,0-3-.19-2.65,0a7.57,7.57,0,0,0,3.48.74A5.47,5.47,0,0,0,407.5,104c-2.83-2.82-8.59-2.11-10.79,2.29a5.13,5.13,0,0,0-5.39-2.2c-1,.19-3.13.88-3.63,2.2-4.85-7.43-13.48-1.1-13.25,4a8.19,8.19,0,0,0-3.4,3.07l-.79,0a6.88,6.88,0,0,0,2.25-3.19C372.53,110.08,372.41,110,372.38,110.1Zm43.88-11.32h0Z"/></g><path class="cls-4" d="M285.24,202.64a2.74,2.74,0,0,0-2.69,2.69V206a2.69,2.69,0,0,0,5.38,0v-.71A2.71,2.71,0,0,0,285.24,202.64Z"/><path class="cls-4" d="M196.07,6.46a2.74,2.74,0,0,0-2.69,2.69v.71a2.69,2.69,0,1,0,5.38,0V9.15A2.72,2.72,0,0,0,196.07,6.46Z"/><path class="cls-4" d="M250.76,772.37c-3.57,0-3.58,5.55,0,5.55S254.33,772.37,250.76,772.37Z"/><path class="cls-4" d="M384.74,779.15c-3.57,0-3.58,5.55,0,5.55S388.31,779.15,384.74,779.15Z"/><path class="cls-4" d="M441.74,701.05c-3.57,0-3.58,5.55,0,5.55S445.31,701.05,441.74,701.05Z"/><path class="cls-4" d="M457.12,616c-3.57,0-3.57,5.54,0,5.54S460.7,616,457.12,616Z"/><path class="cls-4" d="M487.42,558.25c-3.57,0-3.57,5.55,0,5.55S491,558.25,487.42,558.25Z"/><path class="cls-4" d="M135.15,748.89c-3.57,0-3.57,5.55,0,5.55S138.73,748.89,135.15,748.89Z"/><path class="cls-4" d="M238.58,982.11c-3.57,0-3.58,5.55,0,5.55S242.15,982.11,238.58,982.11Z"/><path class="cls-4" d="M308.44,1013c-3.56,0-3.57,5.55,0,5.55S312,1013,308.44,1013Z"/><path class="cls-4" d="M370.79,1027c-3.57,0-3.58,5.54,0,5.54S374.36,1027,370.79,1027Z"/><path class="cls-4" d="M439.06,1051.21c-3.57,0-3.58,5.55,0,5.55S442.63,1051.21,439.06,1051.21Z"/><path class="cls-4" d="M469.68,976.83c-4.65,0-4.66,7.23,0,7.23S474.34,976.83,469.68,976.83Z"/><path class="cls-4" d="M194.94,1059.28c-3.57,0-3.58,5.55,0,5.55S198.51,1059.28,194.94,1059.28Z"/><path class="cls-4" d="M41.55,1052.6c-3.57,0-3.57,5.55,0,5.55S45.13,1052.6,41.55,1052.6Z"/><path class="cls-4" d="M216.09,683.57c-5.08,0-5.08,7.88,0,7.88S221.17,683.57,216.09,683.57Z"/><path class="cls-4" d="M72.87,526.93c-5.07,0-5.08,7.88,0,7.88S78,526.93,72.87,526.93Z"/><path class="cls-4" d="M80.33,647.44c-5.08,0-5.08,7.88,0,7.88S85.41,647.44,80.33,647.44Z"/><path class="cls-4" d="M287.56,401.13c-5.07,0-5.08,7.88,0,7.88S292.64,401.13,287.56,401.13Z"/><path class="cls-4" d="M361.34,366.25c-5.07,0-5.08,7.88,0,7.88S366.42,366.25,361.34,366.25Z"/><g class="cls-2"><polyline class="cls-5" points="320.72 821.26 315.49 853.19 324.23 849.34"/><line class="cls-5" x1="315.46" y1="853.17" x2="330.38" y2="869.63"/><path class="cls-3" d="M321.88,822.93l10.78,6.25,7.78,23.12-15.31-3.77-3.25-25.6m-1.25-1.88,3.6,28.29L342,853.71l-8.49-25.2-12.85-7.46Z"/><polyline class="cls-5" points="324.38 849.34 330.4 869.65 341.89 853.63"/><polyline class="cls-5" points="330.4 869.65 347.11 862.97 341.97 853.71"/><polyline class="cls-5" points="333.36 828.64 344.54 841.62 341.89 853.63"/><line class="cls-5" x1="347.11" y1="862.97" x2="344.54" y2="841.62"/></g><g class="cls-2"><polyline class="cls-5" points="167.21 195.31 179.11 163.8 169.4 165.94"/><line class="cls-5" x1="179.13" y1="163.82" x2="167.29" y2="143.97"/><path class="cls-3" d="M153.41,159.52l14.94,7-1.94,26.9-9.79-8.66-3.21-25.27m-1.22-1.68,3.48,27.45,11.59,10.25,2.14-29.6-17.21-8.1Z"/><polyline class="cls-5" points="169.24 165.91 167.27 143.94 152.25 157.93"/><polyline class="cls-5" points="167.27 143.94 148.84 147.33 152.19 157.84"/><polyline class="cls-5" points="155.83 185.19 147.08 169.64 152.25 157.93"/><line class="cls-5" x1="148.84" y1="147.33" x2="147.08" y2="169.64"/></g><g class="cls-2"><polygon class="cls-5" points="169 807.81 126.92 823.43 144.88 844.66 169 807.81"/><polyline class="cls-5" points="169 807.81 158.84 842.81 144.88 844.66"/></g><polygon class="cls-6" points="467.47 442.78 450.34 403.76 435.74 419.44 467.47 442.78"/><polyline class="cls-6" points="467.47 442.78 431.8 436.15 435.74 419.44"/><polygon class="cls-6" points="70.16 13.45 41.55 45.03 61.83 51.95 70.16 13.45"/><polyline class="cls-6" points="70.16 13.45 78.69 48.71 61.83 51.95"/><polygon class="cls-6" points="338.49 13.67 328.13 12 326.21 35.11 338.49 13.67"/><g class="cls-2"><polygon class="cls-5" points="462.09 780.28 452.76 782.47 447.43 791.35 441.17 801.71 437.69 808.64 442.98 812.47 448.23 811.84 453.04 811.75 459.52 802.3 463.2 792.56 464.49 788.58 464.49 783.23 462.09 780.28"/><polyline class="cls-5" points="462.09 780.28 456.56 780.15 450.14 780.73 444.7 782.18 432.53 802.14 429.4 808.31 434.8 812.1 442.98 812.47"/><line class="cls-5" x1="450.15" y1="786.83" x2="442.03" y2="786.56"/><line class="cls-5" x1="441.34" y1="800.84" x2="433.23" y2="800.57"/><line class="cls-5" x1="452.76" y1="782.47" x2="446.45" y2="781.72"/></g><g class="cls-2"><polygon class="cls-5" points="369.27 258.99 359.93 261.17 354.6 270.05 348.35 280.41 344.86 287.34 350.15 291.17 355.4 290.54 360.21 290.45 366.69 281.01 370.37 271.26 371.66 267.28 371.66 261.93 369.27 258.99"/><polyline class="cls-5" points="369.27 258.99 363.73 258.86 357.32 259.43 351.87 260.89 339.71 280.84 336.57 287.01 341.98 290.81 350.15 291.17"/><line class="cls-5" x1="357.32" y1="265.53" x2="349.2" y2="265.27"/><line class="cls-5" x1="348.52" y1="279.54" x2="340.4" y2="279.27"/><line class="cls-5" x1="359.93" y1="261.17" x2="353.63" y2="260.42"/></g><polygon class="cls-6" points="341.22 960.36 351.18 978.7 363.17 972.55 341.22 960.36"/><polygon class="cls-6" points="440.63 26.59 450.59 44.93 462.57 38.77 440.63 26.59"/><polygon class="cls-6" points="282.59 508.64 292.56 526.99 304.54 520.83 282.59 508.64"/><polygon class="cls-6" points="232.59 23.55 226.59 39.34 238.58 33.18 232.59 23.55"/><g class="cls-2"><path class="cls-3" d="M224.11,921.36l5.66,9.09-11.31,5.81,5.65-14.9m-.22-2.25-7.29,19.23,14.59-7.5-7.3-11.73Z"/></g><path class="cls-4" d="M291.37,746.69a1.59,1.59,0,0,0,0,3.18A1.59,1.59,0,0,0,291.37,746.69Z"/><path class="cls-4" d="M459.9,868.16a1.59,1.59,0,0,0,0,3.18A1.59,1.59,0,0,0,459.9,868.16Z"/><path class="cls-4" d="M208,746.69a1.59,1.59,0,0,0,0,3.18A1.59,1.59,0,0,0,208,746.69Z"/><path class="cls-4" d="M239.28,822.33a1.59,1.59,0,0,0,0,3.17A1.59,1.59,0,0,0,239.28,822.33Z"/><path class="cls-4" d="M153.1,910a1.59,1.59,0,0,0,0,3.18A1.59,1.59,0,0,0,153.1,910Z"/><path class="cls-4" d="M21.65,958.77a1.59,1.59,0,0,0,0,3.18A1.59,1.59,0,0,0,21.65,958.77Z"/><path class="cls-4" d="M396,870.09a1.59,1.59,0,0,0,0,3.18A1.59,1.59,0,0,0,396,870.09Z"/><path class="cls-4" d="M443.88,485.23a1.59,1.59,0,0,0,0,3.18A1.59,1.59,0,0,0,443.88,485.23Z"/><path class="cls-4" d="M431.8,523.66a1.59,1.59,0,0,0,0,3.18A1.59,1.59,0,0,0,431.8,523.66Z"/><path class="cls-4" d="M487.42,471.14a1.59,1.59,0,0,0,0,3.18A1.59,1.59,0,0,0,487.42,471.14Z"/><path class="cls-4" d="M141.92,677.94a1.59,1.59,0,0,0,0,3.18A1.59,1.59,0,0,0,141.92,677.94Z"/><path class="cls-4" d="M47.38,589.63a1.59,1.59,0,0,0,0,3.18A1.59,1.59,0,0,0,47.38,589.63Z"/><path class="cls-4" d="M23.19,739.84a1.59,1.59,0,0,0,0,3.18A1.59,1.59,0,0,0,23.19,739.84Z"/><path class="cls-4" d="M68.75,737.68a1.59,1.59,0,0,0,0,3.17A1.59,1.59,0,0,0,68.75,737.68Z"/><path class="cls-4" d="M33.56,679.53a1.59,1.59,0,0,0,0,3.18A1.59,1.59,0,0,0,33.56,679.53Z"/><path class="cls-4" d="M168.44,961.38a1.59,1.59,0,0,0,0,3.18A1.59,1.59,0,0,0,168.44,961.38Z"/><path class="cls-4" d="M303,910.44a1.59,1.59,0,0,0,0,3.18A1.59,1.59,0,0,0,303,910.44Z"/><path class="cls-4" d="M208,874.69a1.59,1.59,0,0,0,0,3.18A1.59,1.59,0,0,0,208,874.69Z"/><path class="cls-4" d="M262.36,874.87a1.59,1.59,0,0,0,0,3.17A1.59,1.59,0,0,0,262.36,874.87Z"/><path class="cls-4" d="M280.32,1054a1.59,1.59,0,0,0,0,3.18A1.59,1.59,0,0,0,280.32,1054Z"/><path class="cls-4" d="M408.21,1005.66a1.59,1.59,0,0,0,0,3.18A1.59,1.59,0,0,0,408.21,1005.66Z"/><path class="cls-4" d="M104.52,928.45a1.59,1.59,0,0,0,0,3.18A1.59,1.59,0,0,0,104.52,928.45Z"/><path class="cls-4" d="M331.16,611.51a1.59,1.59,0,0,0,0,3.18A1.59,1.59,0,0,0,331.16,611.51Z"/><path class="cls-4" d="M462.57,355.91a1.59,1.59,0,0,0,0,3.18A1.59,1.59,0,0,0,462.57,355.91Z"/><path class="cls-4" d="M402.81,345.76a1.59,1.59,0,0,0,0,3.18A1.59,1.59,0,0,0,402.81,345.76Z"/><path class="cls-4" d="M467.47,257.27a1.59,1.59,0,0,0,0,3.17A1.59,1.59,0,0,0,467.47,257.27Z"/><path class="cls-4" d="M392,646.55a1.59,1.59,0,0,0,0,3.18A1.59,1.59,0,0,0,392,646.55Z"/><path class="cls-4" d="M260.83,618.79a1.59,1.59,0,0,0,0,3.18A1.59,1.59,0,0,0,260.83,618.79Z"/><path class="cls-4" d="M298.24,672.62a1.59,1.59,0,0,0,0,3.17A1.59,1.59,0,0,0,298.24,672.62Z"/><path class="cls-4" d="M210.56,628.81a1.59,1.59,0,0,0,0,3.18A1.59,1.59,0,0,0,210.56,628.81Z"/><path class="cls-4" d="M94.78,357.61a1.59,1.59,0,0,0,0,3.17A1.59,1.59,0,0,0,94.78,357.61Z"/><path class="cls-4" d="M26.83,381.23a1.59,1.59,0,0,0,0,3.18A1.59,1.59,0,0,0,26.83,381.23Z"/><path class="cls-4" d="M28.36,315.72a1.59,1.59,0,0,0,0,3.17A1.59,1.59,0,0,0,28.36,315.72Z"/><path class="cls-4" d="M278.79,560.84a1.59,1.59,0,0,0,0,3.17A1.59,1.59,0,0,0,278.79,560.84Z"/><path class="cls-4" d="M205.3,439.33a1.59,1.59,0,0,0,0,3.18A1.59,1.59,0,0,0,205.3,439.33Z"/><path class="cls-4" d="M23.19,466.05a1.59,1.59,0,0,0,0,3.18A1.59,1.59,0,0,0,23.19,466.05Z"/><path class="cls-4" d="M250.76,420.4a1.59,1.59,0,0,0,0,3.17A1.59,1.59,0,0,0,250.76,420.4Z"/><path class="cls-4" d="M383.2,482.43a1.59,1.59,0,0,0,0,3.18A1.59,1.59,0,0,0,383.2,482.43Z"/><path class="cls-4" d="M335.51,421.45a1.59,1.59,0,0,0,0,3.18A1.59,1.59,0,0,0,335.51,421.45Z"/><path class="cls-4" d="M303,352.49a1.59,1.59,0,0,0,0,3.17A1.59,1.59,0,0,0,303,352.49Z"/><path class="cls-4" d="M268.61,310.05a1.59,1.59,0,0,0,0,3.18A1.59,1.59,0,0,0,268.61,310.05Z"/><path class="cls-4" d="M372.22,189.2a1.59,1.59,0,0,0,0,3.18A1.59,1.59,0,0,0,372.22,189.2Z"/><path class="cls-4" d="M470.83,140.31a1.59,1.59,0,0,0,0,3.18A1.59,1.59,0,0,0,470.83,140.31Z"/><path class="cls-4" d="M396,22a1.59,1.59,0,0,0,0,3.17A1.59,1.59,0,0,0,396,22Z"/><path class="cls-4" d="M478.08,66.15a1.59,1.59,0,0,0,0,3.18A1.59,1.59,0,0,0,478.08,66.15Z"/><path class="cls-4" d="M196.07,237.4a1.59,1.59,0,0,0,0,3.18A1.59,1.59,0,0,0,196.07,237.4Z"/><path class="cls-4" d="M74.41,209.05a1.59,1.59,0,0,0,0,3.17A1.59,1.59,0,0,0,74.41,209.05Z"/><path class="cls-4" d="M112.59,250.35a1.59,1.59,0,0,0,0,3.18A1.59,1.59,0,0,0,112.59,250.35Z"/><path class="cls-4" d="M196.07,80a1.59,1.59,0,0,0,0,3.18A1.59,1.59,0,0,0,196.07,80Z"/><path class="cls-4" d="M149.37,58.87a1.59,1.59,0,0,0,0,3.18A1.59,1.59,0,0,0,149.37,58.87Z"/><path class="cls-4" d="M28.36,127.5a1.59,1.59,0,0,0,0,3.18A1.59,1.59,0,0,0,28.36,127.5Z"/><path class="cls-4" d="M240.31,138.73a1.59,1.59,0,0,0,0,3.17A1.59,1.59,0,0,0,240.31,138.73Z"/><path class="cls-4" d="M332.84,154a1.59,1.59,0,0,0,0,3.18A1.59,1.59,0,0,0,332.84,154Z"/><path class="cls-4" d="M128,93.08a1.59,1.59,0,0,0,0,3.18A1.59,1.59,0,0,0,128,93.08Z"/><path class="cls-4" d="M105.85,22a1.59,1.59,0,0,0,0,3.17A1.59,1.59,0,0,0,105.85,22Z"/><path class="cls-4" d="M23.06,60.46a1.59,1.59,0,0,0,0,3.18A1.59,1.59,0,0,0,23.06,60.46Z"/><path class="cls-4" d="M240.31,60.46a1.59,1.59,0,0,0,0,3.18A1.59,1.59,0,0,0,240.31,60.46Z"/><path class="cls-4" d="M283.71,14.49a1.59,1.59,0,0,0,0,3.17A1.59,1.59,0,0,0,283.71,14.49Z"/><path class="cls-4" d="M53.44,793.47c-2.86,0-2.87,4.45,0,4.45S56.31,793.47,53.44,793.47Z"/><g class="cls-2"><path class="cls-3" d="M202.31,295.44q-.47-.45-1-.87a1.75,1.75,0,0,0-.15-.31,3,3,0,0,0-1.42-1l-.73-.37a9,9,0,0,0-4.45-1.57,1.63,1.63,0,0,0-.67-.19,2.33,2.33,0,0,0-.87.34,3.37,3.37,0,0,0-1.94,1.78,3.2,3.2,0,0,0,0,2.49,11,11,0,0,0,1.57,2.33,9.64,9.64,0,0,0,.7.72c.93.94,1.9,1.84,2.89,2.7l.5.56a10.78,10.78,0,0,0,1.94,1.47l.44.35.26.26a6,6,0,0,0,.64.71c.17.12.38.18.55.28l.39.33a2.54,2.54,0,0,0,.82.75c.06-.06.15-.05.22-.08l.08.05c.1.16.22.32.31.48a1.37,1.37,0,0,0,.28.05,1.91,1.91,0,0,0,1.25,1,2.85,2.85,0,0,0,.33.25,4.42,4.42,0,0,0,.94.4l.12.07a1.94,1.94,0,0,1,.68.91l.23,0a2,2,0,0,0,1.47.69l0,0,.27.24a1.71,1.71,0,0,0,.91.78,5.63,5.63,0,0,0,.51.36q1.31.81,2.67,1.71l.24.17a5.11,5.11,0,0,0,.55.48,2.23,2.23,0,0,0,.36.2,7.82,7.82,0,0,0,1.62,1l0,0,.37.35s0,.05,0,.09a5.19,5.19,0,0,1,.86.58s-.06.06-.06.08c.34.11.42.29.23.44.11,0,.31.12.43.14,0,.37,1.19,1.08,1.67,1.28.29.3.56.61.86.89.54.51.77.7,1,.52l.72.68.19-.19h0l0,0,.33-.34-.05-.05.08-.06c-.45-.39-.85-.66-1.21-1A5.17,5.17,0,0,0,219,317l-.49-.41c-.62-.51-1.26-1-1.88-1.49a5.65,5.65,0,0,0-1-.8l-.14-.05c-.62-.45-1.26-.87-1.93-1.27l-.41-.3-.08-.13a3.66,3.66,0,0,0-1.46-1.4c-1.74-1.11-3.42-2.66-5.31-3.43l-1.07-.46c-.9-.63-1.8-1.26-2.68-1.91a1,1,0,0,0-.41-.34c.26-.5-1.29-1.5-1.84-1.78-.05,0,0,.06-.08.07a9.07,9.07,0,0,1-1.92-1.59c-.24-.06-.48-.19-.69-.22L197,301a3.16,3.16,0,0,0-.26-.88c-.43.16-1-.38-1.37-.7-.15-.14-.35-.4-.57-.62a.11.11,0,0,1,0-.08,5,5,0,0,0-.57-.56h.06c-.23-.31-.52-.48-.75-.4l-.15-.17a9.38,9.38,0,0,0-.41-1.07,11,11,0,0,1-.71-1.21c-.1-.26-.17-.43-.24-.58a2.27,2.27,0,0,1,.46-2,4,4,0,0,1,2.15-.55,11.54,11.54,0,0,0,1.43.14h0a14.84,14.84,0,0,1,5.68,3.69Zm14.13,20.68.45.36v0Zm1.51,1.34h0l0,0Z"/><path class="cls-3" d="M197,292.06l-.33-.33a.47.47,0,0,0,0-.17c0-.29-.22-.33-.43-.45a2.07,2.07,0,0,1-.24-.17,8.41,8.41,0,0,1-.84-1.45c0-.1.14-.2.12-.28s-.18-.13-.25-.21a.92.92,0,0,1-.09-.79,1,1,0,0,0,0-.74,2.35,2.35,0,0,1-.19-.43,1.64,1.64,0,0,1,0-.45,1.91,1.91,0,0,1,.06-.33,2.92,2.92,0,0,1,.62-1.15l.25-.1c.27-.12.38-.38.6-.56a.91.91,0,0,1,.17-.09.29.29,0,0,1,.13,0c.11,0,.29.07.37,0s.1-.13.16-.18h.17c.13.05.19.14.35,0,0-.08,0-.12,0-.18h0a1.66,1.66,0,0,1,.18.19l.08-.13c.13.21.32.33.51.11l.13,0c.12,0,.25-.07.38-.13H199a.53.53,0,0,1,.24.47l.1-.07a.41.41,0,0,0,.63,0h0l.09.1c0,.27.15.34.32.34l.19.12a9.81,9.81,0,0,1,1,.57l.09.06a.7.7,0,0,0,.17.24.3.3,0,0,0,.15.05,1.17,1.17,0,0,0,.65.36h0l.11.17s-.05.05-.06.08a.75.75,0,0,1,.34.21s-.05.06-.06.08c.17,0,.17.1,0,.27.07,0,.16,0,.23,0-.11.27.4.48.65.5a2.92,2.92,0,0,0,.29.4c.19.22.3.28.5.09l.29.26.18-.2h0l0,0,.31-.35,0,0,.07-.07a2.67,2.67,0,0,1-.49-.35.92.92,0,0,0-.46-.59l-.18-.16c-.23-.21-.48-.4-.7-.62s-.21-.31-.39-.35h-.07a4.42,4.42,0,0,0-.77-.5l-.16-.12V285a.77.77,0,0,0-.46-.73c-.72-.4-1.44-1.2-2.42-1.06-.18,0-.36.07-.53.1a4.23,4.23,0,0,0-1.38-.1.17.17,0,0,0-.23,0c-.07-.27-.32-.33-.59-.29a1.39,1.39,0,0,0-.57.35s0,.06,0,.1c-.27.09-.71.55-1,.52a3.12,3.12,0,0,0-.05.4l-.26.24a1.25,1.25,0,0,0-.6,0c.26.34,0,.61,0,.8s-.15.2-.22.32H194c-.09.1-.08.22-.11.34l0,0c-.11.16-.06.33.15.42v.1c-.13.15-.31.28-.35.49s.16.45.2.66a.53.53,0,0,0,.13.27,5.39,5.39,0,0,0,.2,1,1.69,1.69,0,0,0,.26,1c.08.17.14.44.36.52h0a8.57,8.57,0,0,0,1.72,2.25Zm6.22-5.21.17.15v0Zm.52.59h0v0Z"/><path class="cls-3" d="M199.52,283.67a1.6,1.6,0,0,1-.25-.27l0-.15c.09-.25-.12-.28-.27-.43a1.29,1.29,0,0,1-.19-.21,5.36,5.36,0,0,1-.25-1.51c.08-.06.2-.12.22-.2s-.13-.17-.16-.27c-.15-.56.56-.88.48-1.3a1.09,1.09,0,0,1,.2-.81,2.35,2.35,0,0,1,.19-.25,3.57,3.57,0,0,1,1-.81l.26,0c.29,0,.46-.25.7-.36l.18,0a.27.27,0,0,1,.13,0c.09,0,.24.14.33.13s.12-.1.18-.13l.17,0c.13.06.18.18.36.11,0-.08,0-.12,0-.18h0c.05.07.11.14.16.22l.1-.11c.11.23.31.33.51.13a.21.21,0,0,0,.13.05.82.82,0,0,0,.38-.13h0a.46.46,0,0,1,.24.45l.1-.07c.08.17.39.19.6,0h0l.09.09c.05.25.14.32.3.3a.72.72,0,0,0,.19.11,7.56,7.56,0,0,1,1,.5l.09.06a.69.69,0,0,0,.16.21.23.23,0,0,0,.15.05,1,1,0,0,0,.61.33h0l.1.17s0,0-.06.08a.7.7,0,0,1,.33.2l-.06.07c.16,0,.16.1,0,.26a1.62,1.62,0,0,1,.22,0c-.11.26.38.45.62.46a2.65,2.65,0,0,0,.26.39c.19.2.29.26.49.06l.27.25.18-.19h0l0,0,.32-.35h0l.07-.07a3,3,0,0,1-.47-.33.82.82,0,0,0-.43-.56l-.17-.16c-.22-.2-.45-.37-.67-.58s-.19-.3-.36-.32h-.07a4.35,4.35,0,0,0-.74-.46l-.16-.11v-.08a.66.66,0,0,0-.45-.69c-.69-.37-1.41-1.11-2.32-.92l-.49.11a7.78,7.78,0,0,0-1.26-.17.18.18,0,0,0-.21,0c0-.57-.82-.42-1.05-.23,0,0,0,.07,0,.11-.27.05-.79.31-1,.23a2.72,2.72,0,0,0-.16.35,2,2,0,0,0-.29.15c-.17-.1-.36-.26-.53-.26a.58.58,0,0,1-.27.7c-.07.05-.2.1-.3.18l-.06,0c-.11.05-.16.15-.23.24l0-.05c-.15.09-.17.25,0,.43l-.06.07c-.18.06-.4.07-.51.22a1.66,1.66,0,0,0-.15.68.47.47,0,0,0,0,.29,5.15,5.15,0,0,0-.2.93,1.6,1.6,0,0,0-.15,1c0,.18,0,.45.15.59h0a3.92,3.92,0,0,0,1.15,2.52Zm8.8-4.05.15.14v0Zm.48.57h0v0Z"/><path class="cls-3" d="M204.65,276.52a4.1,4.1,0,0,1-.89-1.55c0-.13,0-.28,0-.43a3.85,3.85,0,0,1,.64-2,3.45,3.45,0,0,1,.83-.73c1.94-1.12,4.37,0,6.15,1.31a4.88,4.88,0,0,0,.57.74c.33.32.66.42,1,.71,1.86,1.55,2.69,3.61,4.51,5.13l.71.58a1.67,1.67,0,0,0,1.25.41,1.56,1.56,0,0,0,1.12-.64,1.44,1.44,0,0,0,.19-1.3v.05a5.13,5.13,0,0,1-.1-.51c-.07-.48-.12-1-.16-1.48a12.2,12.2,0,0,1,1-5.82,7.72,7.72,0,0,1,.65-.88,10.48,10.48,0,0,1,2.52-2.47,4.11,4.11,0,0,1,.74-.27,2,2,0,0,1,.49,0,4.59,4.59,0,0,1,1.2.35,4,4,0,0,1,.75.27,5.58,5.58,0,0,1,.49.48c.27.44.3.65.65,1.33.08,0,.16.07.23.11l.05.14a3.29,3.29,0,0,1-.05.77l.15.33a5.24,5.24,0,0,0-.16,2.39c0,.2-.07.41-.1.63-.06.57,0,1-.05,1.54l-.05.21a3.74,3.74,0,0,1-.75,1.52v.35a4.63,4.63,0,0,0-.38,2.53v.05l-.17.55a2.78,2.78,0,0,0-.25,2,4.13,4.13,0,0,0,.18,1.07,12.39,12.39,0,0,0,2.64,4.51l.32.36a6.43,6.43,0,0,0,.75.92,4.63,4.63,0,0,0,.5.44,12.19,12.19,0,0,0,2.4,1.92l0,0,.61.54c0,.05-.05.05,0,.1a14.51,14.51,0,0,1,1.38.93s-.05.06-.05.08c.5.22.68.44.47.58.16,0,.48.22.65.26a9,9,0,0,0,2.8,1.84l1.5,1.24c.9.73,1.27,1,1.5.84.39.34.77.68,1.15,1l.18-.19,0,0s0,0,0-.05l.33-.34-.08-.08.09-.05c-.7-.64-1.33-1.06-1.95-1.59a11,11,0,0,0-2.32-1.88l-.82-.57c-1-.71-2.09-1.38-3.09-2.12a18.81,18.81,0,0,0-1.63-1.23l-.2-.09c-.94-.73-1.85-1.5-2.74-2.31-.18-.18-.35-.38-.53-.56a2.12,2.12,0,0,1-.11-.21,17.17,17.17,0,0,0-1.55-2.6,6.12,6.12,0,0,1-1-4.29c.32-1.57.79-3.2,1-4.8.07-.64.13-1.24.16-1.84a21.08,21.08,0,0,0,.25-2.63,6.94,6.94,0,0,0-.28-2.7,1.86,1.86,0,0,0-.34-.83c.22-.19-.11-1.08-1-1.75a3.82,3.82,0,0,0-2.65-.75s0,.07,0,.1a4.66,4.66,0,0,0-2.24.77c-.72.47-1.27,1-1.58,1.22a7.49,7.49,0,0,0-.52,1,7.76,7.76,0,0,0-.74,1.15,3.64,3.64,0,0,0-1,1,7.07,7.07,0,0,1-.17,2.52c0,.34-.14.86-.17,1.37,0,0,0,.06-.07.05a6.37,6.37,0,0,0,0,1.31.25.25,0,0,1-.05-.07c0,.66.11,1.17.37,1.33l0,.38c0,.23,0,.45,0,.66v0a.5.5,0,0,1-.3.42.53.53,0,0,1-.48,0l-.07,0-.12-.09-.23-.19a5.73,5.73,0,0,1-.45-.39c-.34-.31-.57-.51-.8-.69l-2.56-2.81a13.84,13.84,0,0,0-3-2.92,6.16,6.16,0,0,0-2.22-1.19h0a6.15,6.15,0,0,0-2.83-.59,4.76,4.76,0,0,0-2.72,1.1,3.22,3.22,0,0,0-1.22,2.7,4.45,4.45,0,0,0,1.2,2.68Zm32,17.41.75.52v0Zm2.59,1.9h0l.07.05Z"/></g><g class="cls-2"><path class="cls-3" d="M66.07,870.14c12.39.34,21.49,4.5,28.36,13.13,2.33,2.92,2.25,3.48-.6,5.77-12.18,9.81-29.38,11.22-42.73,1.37-5.65-4.17-6.14-6.68-1.55-11.41C54.42,874,60.15,870.3,66.07,870.14Zm19.68,9.23c-3,5.08-5.43,10-11.78,10.23-5.92.24-9.63-2.08-12.66-8.34l-12.44,4.89c10.32,11.53,36.91,11,45.43-.73Zm2.16-.33c-11.19-11.07-30.68-5.95-38.32,2.58C62,878,74.18,872.58,87.91,879Zm-24.58,2.23c.69,4.42,4.8,7.24,10.23,7A9.82,9.82,0,0,0,83,879.48c-2.87-1.15-2.87-1.15-4.46,1.33a7.31,7.31,0,0,1-11.36.93C65.91,880.3,64.8,880,63.33,881.27Z"/><path d="M85.75,879.37l8.55,6c-8.52,11.77-35.11,12.26-45.43.73l12.44-4.89c3,6.26,6.74,8.58,12.66,8.34C80.32,889.35,82.75,884.45,85.75,879.37Z"/><path d="M87.91,879c-13.73-6.46-25.88-1-38.32,2.58C57.23,873.09,76.72,868,87.91,879Z"/><path d="M63.33,881.27c1.47-1.32,2.58-1,3.89.47a7.31,7.31,0,0,0,11.36-.93c1.59-2.48,1.59-2.48,4.46-1.33a9.82,9.82,0,0,1-9.48,8.82C68.13,888.51,64,885.69,63.33,881.27Z"/></g><g class="cls-2"><path class="cls-3" d="M379.41,550.47c10.61,2.28,17.83,6.94,22.49,14.64,1.58,2.61,1.43,3-1.35,4.31-11.9,5.5-26.89,3.76-36.95-5.93-4.26-4.11-4.31-6.11.32-9C368.83,551.5,374.29,549.62,379.41,550.47ZM395,560.72c-3.31,3.39-6.11,6.73-11.61,5.89-5.13-.79-8-3.17-9.69-8.44l-11.4,1.7c7.21,10.48,30.14,14.45,39.17,6.86Zm1.9.1c-8-10.27-25.52-9.55-33.33-4.29C374.8,555.8,386,553.65,396.9,560.82Zm-21.46-2.31c-.05,3.49,3.08,6.31,7.78,7,4.31.67,8.38-1.57,9.43-5.17-2.3-1.35-2.3-1.35-4,.28-2.66,2.52-7.73,2-9.91-1.15C377.8,558.19,376.9,557.74,375.44,558.51Z"/><path d="M395,560.72l6.47,6c-9,7.59-32,3.62-39.17-6.86l11.4-1.7c1.7,5.27,4.56,7.65,9.69,8.44C388.89,567.45,391.69,564.11,395,560.72Z"/><path d="M396.9,560.82c-10.87-7.17-22.1-5-33.33-4.29C371.38,551.27,388.89,550.55,396.9,560.82Z"/><path d="M375.44,558.51c1.46-.77,2.36-.32,3.28,1,2.18,3.14,7.25,3.67,9.91,1.15,1.72-1.63,1.72-1.63,4-.28-1,3.6-5.12,5.84-9.43,5.17C378.52,564.82,375.39,562,375.44,558.51Z"/></g><g class="cls-2"><path class="cls-3" d="M425.25,212.33a5.48,5.48,0,0,0,1.28.65l.34.11.24.06.48.13c.12.1.26.2.42.31a4.88,4.88,0,0,0,2.64.48l1.25,0a26.67,26.67,0,0,0,7.14,0,3.27,3.27,0,0,0,1,.15c.49,0,.76-.38,1.2-.54,1.15-.48,2.28-.75,3.37-1.22a6.37,6.37,0,0,0,2.85-2.12c.45-.59.77-1.23,1.14-1.8s.67-1.22.93-1.92a10.16,10.16,0,0,0,.57-1.45,20.42,20.42,0,0,0,.95-6.13c.07-.39.12-.78.16-1.16a15.89,15.89,0,0,0-.28-3.72l-.05-.86c0-.19,0-.37,0-.56a9.79,9.79,0,0,0,.2-1.44c0-.3-.15-.61-.19-.91a6.68,6.68,0,0,0,0-.76,4.49,4.49,0,0,0,.23-1.45V188a.91.91,0,0,0-.95-.87.71.71,0,0,0-.21,0l-.2.06c0,.12-.11.21-.16.31l-.16,0-.9-.14a3,3,0,0,0-.35.27,2.87,2.87,0,0,0-2.42.58,2.94,2.94,0,0,0-.64.19,5.33,5.33,0,0,0-1.35.84l-.2.08a3.34,3.34,0,0,1-1.76.14l-.24.27a3.09,3.09,0,0,0-2.09,1.43l-.06,0-.52.2a2.63,2.63,0,0,0-1.73.72,8.53,8.53,0,0,0-.85.5,24.21,24.21,0,0,0-3.93,3.23,3.73,3.73,0,0,0-.32.36,4.61,4.61,0,0,0-.86.85,3.64,3.64,0,0,0-.33.6,7.05,7.05,0,0,0-1.28,2.81l0,0c-.13.24-.26.48-.38.72-.06,0-.1-.05-.16,0a10.16,10.16,0,0,1-.44,1.59c0,.06-.12,0-.14,0,0,.56-.19.78-.51.59.05.17,0,.53,0,.71-.51.29-.82,2.35-.84,3.12-.27.57-.55,1.12-.8,1.67-.47,1-.66,1.36-.32,1.62l-.17.32c-.06.11-.19.31-.26.47a6.13,6.13,0,0,0-.41,1l.37-.12,0,0,.09,0,.67-.22.07-.05.13,0a1.18,1.18,0,0,0,.31-.22.73.73,0,0,0,.09-.13l.12-.26c.16-.37.35-.72.51-1.08a6.7,6.7,0,0,0,1.27-2.69c.09-.29.18-.6.29-.94.36-1.18.64-2.37,1-3.49a13.69,13.69,0,0,0,.68-1.84,1.48,1.48,0,0,0,0-.21,18.26,18.26,0,0,1,1.52-3,6.51,6.51,0,0,1,.46-.58l.21-.1a8.44,8.44,0,0,0,2.45-1.58c2.38-1.92,5.66-3,8.16-4.75.51-.34,1-.65,1.48-.94a25.68,25.68,0,0,1,4.78-1.3l.27,0-.65-.6a1.27,1.27,0,0,0,0,.55c-.88.12-.66,3.09-.4,4,.05,0,.1,0,.16,0a16.49,16.49,0,0,1,.12,3.85c.18.33.26.73.42,1,0,.42,0,.84,0,1.26a5.77,5.77,0,0,0-.77,1.15c.59.34.52,1.57.38,2.24a9.53,9.53,0,0,1-.33,1.22.15.15,0,0,1-.11,0c-.15.38-.2.74-.32,1.12a.28.28,0,0,1-.05-.08c-.24.52-.29,1-.05,1.27l-.15.32c-.38.51-.86.75-1.22,1.31-.16.31-.39.6-.55.93a3.83,3.83,0,0,1-.62.94,6.36,6.36,0,0,0-.59.81,11.54,11.54,0,0,1-3,1.86c-1.31.25-2.35.64-3.75.87a10.63,10.63,0,0,0-2.28.34h0a29.17,29.17,0,0,1-5.27-.34c-.87-.14-1.74-.31-2.6-.51-.43-.09-.86-.21-1.29-.32a1.86,1.86,0,0,0-.94,0Zm3.43-9-.26.86-.05,0Zm-1,3h0l0,.07Z"/><path class="cls-3" d="M449.45,189.5l.62-.68h.12l-1.15-.92-.17.05c-.49.17-.53.65-.64,1.09l-.14.57c-.51,1-.91,1.93-1.32,2.89-.16.08-.38.12-.46.26s0,.39,0,.6c-.15,1.09-1.38,1.54-1.46,2.57a5.28,5.28,0,0,1-.41,1.73,6.27,6.27,0,0,1-.29.58c-.22.38-.43.76-.66,1.14l-.73,1.09a4,4,0,0,1-.41.31c-.49.34-.59.92-.87,1.35l-.25.28-.22.13c-.16.08-.49.14-.6.28s-.09.29-.15.41a3.39,3.39,0,0,0-.28.2c-.26.09-.45,0-.65.37a1.58,1.58,0,0,1,.13.26l-.05,0a3.49,3.49,0,0,1-.46,0v.25a.68.68,0,0,0-.87.57.75.75,0,0,0-.24.15,1.49,1.49,0,0,0-.33.65l-.08.06a.87.87,0,0,1-.89,0l0,.2a.77.77,0,0,0-.7.89h0l-.23.06a.64.64,0,0,0-.79.21,1.88,1.88,0,0,0-.38.18c-.58.36-1.19.77-1.81,1.09l-.18.08a1.19,1.19,0,0,0-.5.07.58.58,0,0,0-.23.17,2.47,2.47,0,0,0-1.15.66h0l-.36,0s0-.11-.07-.15a1.56,1.56,0,0,1-.64.36s0-.12-.05-.14c-.16.25-.32.18-.41-.17,0,.11-.16.22-.19.33-.32-.31-1.11.31-1.34.67a4.69,4.69,0,0,0-.89.24c-.51.21-.7.37-.51.75-.21.12-.43.27-.64.42l.24.32h0l.06.05.43.56,0,0,.09.12a2.81,2.81,0,0,1,.77-.6,1.91,1.91,0,0,0,1.2-.36l.39-.18c.5-.2,1-.44,1.5-.6.27-.09.63-.09.84-.32a.44.44,0,0,0,.06-.1,10.45,10.45,0,0,0,1.42-.71l.33-.13.13,0a1.36,1.36,0,0,0,1.48-.17c.62-.39,1.37-.61,2-1a4.44,4.44,0,0,0,1.72-1.46l.45-.77.92-.69c.3-.25.58-.52.87-.77.14,0,.26-.08.3-.22a.73.73,0,0,0,1-.09,2.44,2.44,0,0,0,.61-.89c0-.05-.08-.06-.11-.11.32-.35.81-1.24,1.2-1.33,0-.23,0-.42,0-.62.11-.16.24-.3.34-.47a2.33,2.33,0,0,0,.92-.05.9.9,0,0,1,.08-1.21c.08-.13.24-.3.37-.48a.17.17,0,0,1,.1,0,1.16,1.16,0,0,0,.29-.49s0,0,0,.06a.43.43,0,0,0-.05-.7l.07-.15c.28-.18.6-.27.77-.56a4.7,4.7,0,0,0,.21-1.08,1.5,1.5,0,0,0,0-.49c.23-.51.44-1,.66-1.54A4.11,4.11,0,0,0,448,193c.12-.3.37-.67.27-1h0a17.57,17.57,0,0,1,1.77-3.29.51.51,0,0,0-.12-.72.51.51,0,0,0-.68.07h0l-.62.68ZM429.3,209.83l-.38.15,0,0Zm-1.37.4h0Z"/><path class="cls-3" d="M437.87,192.73c-.15-.46-.29-.93-.46-1.38,0-.12,0-.25,0-.4a1.64,1.64,0,0,0-.28-1c-.2-.27-.45-.51-.67-.79s-.42-.45-.62-.67a21.73,21.73,0,0,0-3.41-3.8,1.61,1.61,0,0,0-.27-.69c-.23-.26-.56-.23-.84-.4-1.48-.88-2.06-2.51-3.54-3.21a12.19,12.19,0,0,1-2.44-1.43l-.81-.66-.82-.73,0,0a.65.65,0,0,0-.91.06.27.27,0,0,0-.07.08,23.42,23.42,0,0,0-1.51,2.89l-.46.71a8.23,8.23,0,0,0-.78,2.57l-.19.59a2.53,2.53,0,0,1-.18.37,4.11,4.11,0,0,0-.54.93,5.3,5.3,0,0,0,0,.69,2.9,2.9,0,0,0-.19.54,2.11,2.11,0,0,0-.45,1.15c.11,0,.16.13.24.2v.11a5.17,5.17,0,0,1-.42.51,2.85,2.85,0,0,0,.12.31A1.62,1.62,0,0,0,418,191a2.21,2.21,0,0,0-.09.46,2.88,2.88,0,0,0,.18,1.14l0,.15a2.05,2.05,0,0,1-.63,1.17c0,.09.09.17.13.25a1.69,1.69,0,0,0,.39,1.83v0c0,.14,0,.28,0,.41a1.47,1.47,0,0,0,0,1.41,4.08,4.08,0,0,0,.16.72,17.14,17.14,0,0,0,1.49,3.34l.15.3a3.92,3.92,0,0,0,.3.78,1.61,1.61,0,0,0,.3.37,5.3,5.3,0,0,0,1.3,1.68v0l.24.52s-.1.05-.12.1a3.88,3.88,0,0,1,.7.9s-.1.06-.12.08c.35.22.34.44,0,.58.13,0,.31.21.45.26-.19.46.78,1.53,1.22,1.89.15.42.25.84.43,1.24.25.72.4,1,.81.89l.31,1,.38-.1v0l.07,0,.68-.19,0-.07.15,0c-.23-.64-.5-1.11-.7-1.65a3.65,3.65,0,0,0-.73-2l-.35-.63c-.44-.76-.95-1.49-1.4-2.24a4.4,4.4,0,0,0-.77-1.2l-.14-.09c-.47-.69-1-1.35-1.44-2l-.27-.47v-.18a3.25,3.25,0,0,0-.45-2.07,9.61,9.61,0,0,1-.72-3.1,22.29,22.29,0,0,0-.3-3.21c-.08-.43-.16-.83-.21-1.24.15-1.18.38-2.34.62-3.51a.71.71,0,0,0,.18-.54c.84.09,1.13-1.87,1.16-2.54-.05,0-.1,0-.15-.07a7,7,0,0,1,.91-2.53c-.06-.27,0-.57-.11-.81l.34-.82c.33-.17.74-.2,1-.46-.47-.47-.09-1.25.16-1.67.11-.16.3-.39.48-.64l-1.1.14.06.07a.12.12,0,0,1,0,.1,3.24,3.24,0,0,0,.67.61h-.08a.73.73,0,0,0,1,.31l.2.16a3.85,3.85,0,0,0,.76,1.18,14.37,14.37,0,0,0,1.5.82,3.57,3.57,0,0,0,.67.32c.7.54,1.4,1.07,2.07,1.61a13,13,0,0,0,2,1.94c.39.33.79.89,1.3,1h0a19.54,19.54,0,0,1,2.32,2.9,13.74,13.74,0,0,1,1.48,3.35Zm-15.15,14.1.33.53,0,0Zm1,1.93h0l0,.05Z"/><path class="cls-3" d="M423.87,179.48l-.12-.9a.86.86,0,0,0,.07-.1l-1.45.29a1.07,1.07,0,0,0-.07.15c-.19.49.15.83.42,1.19l.35.48a31.63,31.63,0,0,0,1.37,2.87c-.05.18-.15.37-.1.52s.33.22.47.37c.74.82.3,2.05,1,2.77a5.3,5.3,0,0,1,1.07,1.43c.09.19.17.39.25.59.15.42.31.83.45,1.24l.37,1.26a4.24,4.24,0,0,1,0,.51,3.76,3.76,0,0,0,.48,1.54l0,.37a1.13,1.13,0,0,1,0,.25,2,2,0,0,0-.17.65c0,.13.16.25.22.37s0,.24,0,.34c-.09.26-.26.37-.14.74a.77.77,0,0,1,.28.07l0,.07c-.1.11-.18.24-.29.35a1.37,1.37,0,0,0,.18.16.69.69,0,0,0-.11,1,.87.87,0,0,0,0,.28,1.59,1.59,0,0,0,.29.67v.1a.89.89,0,0,1-.61.65l.13.15a.77.77,0,0,0,.23,1.11v0l-.1.23a.64.64,0,0,0-.35.74,1.82,1.82,0,0,0-.11.4c-.1.67-.17,1.41-.33,2.09l-.05.19a1.3,1.3,0,0,0-.27.43.57.57,0,0,0,0,.29,2.41,2.41,0,0,0-.24,1.3v0l-.2.3a.83.83,0,0,0-.15,0,1.5,1.5,0,0,1-.14.72s-.11-.05-.14-.05c.09.28-.06.35-.39.2.07.09.07.26.13.36-.45.05-.48,1.05-.34,1.46a3.7,3.7,0,0,0-.39.83c-.17.53-.17.78.24.88,0,.24-.07.5-.09.76l.4,0h.06l.71,0v0h.14a2.86,2.86,0,0,1,0-1,2,2,0,0,0,.5-1.16c0-.13.07-.26.11-.41.16-.51.29-1,.5-1.53.1-.27.33-.54.3-.85,0,0,0-.07,0-.11a11.29,11.29,0,0,0,.37-1.55l.11-.34.11-.07a1.34,1.34,0,0,0,.82-1.24c.1-.73.41-1.44.57-2.2a4.4,4.4,0,0,0,0-2.25c-.1-.3-.2-.56-.3-.83l.06-1.16c0-.38,0-.77,0-1.16a.34.34,0,0,0,0-.37c.41-.06.57-.42.57-.82a2.43,2.43,0,0,0-.29-1c-.05,0-.1,0-.16,0-.06-.47-.42-1.42-.25-1.78-.19-.12-.3-.28-.49-.38a5.07,5.07,0,0,0-.13-.56c.18-.24.49-.46.56-.73-.64,0-.81-.53-.89-.85-.05-.14-.07-.37-.12-.59a.2.2,0,0,1,.09-.06,1.25,1.25,0,0,0-.19-.53h.07c0-.29-.21-.46-.57-.4l-.07-.15c0-.34.18-.64.06-.95s-.49-.57-.69-.86A1.51,1.51,0,0,0,427,186c-.23-.5-.49-1-.75-1.49a4,4,0,0,0-.69-1.66c-.14-.28-.26-.71-.61-.86h0a17.22,17.22,0,0,1-1.38-3.46.52.52,0,0,0-1,.19h0l.12.92ZM426.49,208l-.12.39h-.05Zm-.57,1.31h0l0,0Z"/></g><g class="cls-2"><path class="cls-3" d="M426.69,945.44a5.89,5.89,0,0,0,1.43-.08l.34-.08.24-.07.47-.14a3.92,3.92,0,0,0,.52.06,4.8,4.8,0,0,0,2.51-.93l1.08-.61a25.18,25.18,0,0,0,6.09-3.65,2.8,2.8,0,0,0,.94-.37c.38-.32.45-.72.74-1.09.72-1,1.55-1.81,2.23-2.78a6.35,6.35,0,0,0,1.33-3.27,22,22,0,0,0-.13-4.22l-.09-.77-.16-.76a20.53,20.53,0,0,0-2.24-5.74c-.13-.38-.28-.74-.43-1.08a16.13,16.13,0,0,0-2.09-3.08l-.46-.72c-.08-.16-.17-.32-.24-.49a9,9,0,0,0-.54-1.35c-.17-.25-.42-.45-.6-.69s-.23-.47-.35-.68a4.59,4.59,0,0,0-.47-1.3l-.11-.18a.93.93,0,0,0-1.28-.32.9.9,0,0,0-.19.15l-.2.21c.06.1,0,.23,0,.34l-.12.12c-.28.09-.56.24-.83.33a3.56,3.56,0,0,0-.17.41,2.88,2.88,0,0,0-1.77,1.74,3.39,3.39,0,0,0-.44.48,5.54,5.54,0,0,0-.72,1.41l-.13.17a3.22,3.22,0,0,1-1.43,1c0,.12-.05.24-.07.35a3.08,3.08,0,0,0-1.06,2.29l0,0-.35.43a2.58,2.58,0,0,0-1.11,1.5,7.71,7.71,0,0,0-.47.86,24.09,24.09,0,0,0-1.71,4.76c0,.15-.06.31-.09.47a4.12,4.12,0,0,0-.29,1.16,3.13,3.13,0,0,0,0,.69,7.12,7.12,0,0,0,.32,3v.05q0,.4,0,.81c-.05,0-.11,0-.15.05a11.57,11.57,0,0,1,.41,1.59c0,.07-.12,0-.14,0,.28.47.23.76-.15.75.13.12.26.46.39.6-.3.5.46,2.42.83,3.1.05.62.08,1.23.14,1.84.08,1.07.1,1.5.53,1.55l0,.9a6.06,6.06,0,0,0,.17,1.09l.26-.29v0l.05-.09.47-.53,0-.08.1-.08a1.25,1.25,0,0,0,.16-.34.42.42,0,0,0,0-.16l0-.28c-.05-.41-.06-.79-.1-1.19a6.6,6.6,0,0,0-.25-2.94l-.22-1c-.27-1.19-.61-2.35-.83-3.53a11.72,11.72,0,0,0-.34-1.91,1.11,1.11,0,0,0-.09-.19,19,19,0,0,1-.23-3.37,5.83,5.83,0,0,1,.1-.73l.13-.19a8.41,8.41,0,0,0,1.28-2.6c1.06-2.85,3.3-5.45,4.55-8.21.26-.55.51-1.06.78-1.57a26.07,26.07,0,0,1,3.41-3.55,1.3,1.3,0,0,0,.31-.16l-.89-.2a1.07,1.07,0,0,0,.25.4c-.71.54.94,3,1.61,3.66.07,0,.09-.06.15-.06a16.14,16.14,0,0,1,2,3.26c.32.2.6.5.87.67.21.36.43.71.63,1.08a4.48,4.48,0,0,0-.1,1.37c.67,0,1.23,1.1,1.44,1.75a8.48,8.48,0,0,1,.33,1.21.14.14,0,0,1-.09.08c.06.4.21.73.29,1.12l-.08-.05a1.2,1.2,0,0,0,.6,1.12l0,.35c-.09.63-.35,1.08-.39,1.74,0,.35,0,.71,0,1.08a4.19,4.19,0,0,1,0,1.12,5,5,0,0,0-.1,1,11,11,0,0,1-1.57,3.13c-1,.89-1.65,1.77-2.74,2.66a11,11,0,0,0-1.76,1.47v0a27.77,27.77,0,0,1-4.67,2.39c-.82.33-1.64.62-2.48.89-.42.14-.85.25-1.27.37a1.56,1.56,0,0,0-.43.16c-.11.07-.23.18-.39.28ZM425.14,936l.2.87,0,0Zm.58,3.06h0v0Z"/><path class="cls-3" d="M436,913.53l.19-.89a.25.25,0,0,0,.1-.08l-1.46-.21-.12.12c-.34.4-.13.83,0,1.26l.16.57c0,1.08.18,2.12.31,3.15-.11.15-.27.3-.27.45s.23.32.31.51c.42,1-.41,2,0,3a5.3,5.3,0,0,1,.52,1.7c0,.22,0,.43,0,.65V925l-.08,1.31c-.06.16-.12.32-.19.47a3.83,3.83,0,0,0-.07,1.61l-.08.36a.91.91,0,0,1-.11.22c-.11.16-.35.38-.38.56s.07.29.08.42a2.58,2.58,0,0,0-.13.31c-.18.22-.37.26-.38.65a1.11,1.11,0,0,1,.24.16v.07c-.13.08-.25.17-.39.24a2.25,2.25,0,0,0,.12.21.68.68,0,0,0-.45.94.7.7,0,0,0-.13.24,1.69,1.69,0,0,0,0,.74l0,.08a.89.89,0,0,1-.79.42l.07.18a.77.77,0,0,0-.14,1.12l0,0-.17.18a.63.63,0,0,0-.57.59,1.36,1.36,0,0,0-.23.34c-.32.6-.63,1.26-1,1.86l-.11.15a1.76,1.76,0,0,0-.39.32.77.77,0,0,0-.11.27,2.32,2.32,0,0,0-.65,1.15h0l-.28.22s-.09-.07-.14-.08a1.56,1.56,0,0,1-.36.62s-.1-.08-.12-.09c0,.29-.18.31-.43.06,0,.11,0,.27,0,.39-.44-.11-.79.83-.8,1.26a3.94,3.94,0,0,0-.64.65c-.33.44-.42.68-.06.91a6.16,6.16,0,0,0-.34.68l.37.15h0l.07,0,.66.26,0,0,.13.07a3.19,3.19,0,0,1,.35-.92,1.88,1.88,0,0,0,.86-.92l.24-.35c.32-.42.61-.87,1-1.28.19-.21.5-.39.56-.7a.4.4,0,0,0,0-.11,10.92,10.92,0,0,0,.86-1.34l.21-.28.13,0a1.37,1.37,0,0,0,1.19-.9c.33-.65.86-1.22,1.25-1.89a4.42,4.42,0,0,0,.73-2.13v-.88l.43-1.06c.13-.37.24-.74.36-1.1a.37.37,0,0,0,.15-.35c.41.09.69-.2.81-.58a2.4,2.4,0,0,0,.07-1.07c-.05,0-.1,0-.15,0,.1-.46.06-1.48.36-1.76-.14-.17-.2-.37-.34-.52a3.68,3.68,0,0,0,.06-.57c.26-.17.62-.27.77-.5-.6-.2-.57-.76-.55-1.09,0-.15.07-.38.09-.6l.1,0a1.22,1.22,0,0,0,0-.57l.07,0c.08-.28,0-.51-.4-.57V923c.15-.3.38-.53.38-.86a4.66,4.66,0,0,0-.36-1,1.58,1.58,0,0,0-.21-.45c-.05-.55-.13-1.1-.19-1.65a4.18,4.18,0,0,0-.09-1.79c0-.32,0-.76-.28-1h0a17.93,17.93,0,0,1-.12-3.72.52.52,0,0,0-1-.16h0l-.2.9Zm-7.07,27.71-.24.32,0,0Zm-1,1h0l0,0Z"/><path class="cls-3" d="M427.73,922.16c-.36-.32-.71-.66-1.08-1a2.68,2.68,0,0,0-.16-.36,1.63,1.63,0,0,0-.71-.69c-.3-.13-.63-.22-1-.34s-.59-.19-.87-.28a21.4,21.4,0,0,0-4.8-1.57,1.6,1.6,0,0,0-.58-.46c-.32-.1-.59.08-.91.08-1.71,0-3-1.14-4.63-1a12.4,12.4,0,0,1-2.79,0c-.34,0-.68-.1-1-.17l-.94-.19h0a.66.66,0,0,0-.77.5s0,.08,0,.11a23.35,23.35,0,0,0,.16,3.36c0,.28,0,.56-.05.83a8.2,8.2,0,0,0,.62,2.59l.13.6a2.61,2.61,0,0,1,0,.4,4.26,4.26,0,0,0,0,1.07c.07.21.24.4.33.6a4.86,4.86,0,0,0,.1.55A2.16,2.16,0,0,0,409,928a.84.84,0,0,1,.31,0l0,.1c0,.21-.05.44-.11.65l.26.2a1.56,1.56,0,0,0,.5,1.67,2.25,2.25,0,0,0,.14.44,3.06,3.06,0,0,0,.73.89l.06.14a2.05,2.05,0,0,1,0,1.32l.24.14c0,.51.69,1.4,1.23,1.39l0,0,.17.38a1.42,1.42,0,0,0,.68,1.21,3,3,0,0,0,.48.54,17,17,0,0,0,2.92,2.16l.28.18a3,3,0,0,0,.64.52,1.37,1.37,0,0,0,.43.17,5.53,5.53,0,0,0,2,.82h0l.45.33c0,.06-.05.09-.05.15a3.61,3.61,0,0,1,1,.42s-.06.11-.06.13c.4,0,.51.21.29.5.13,0,.37,0,.51,0,.07.49,1.42.93,2,1,.34.29.63.6,1,.86.57.49.83.65,1.14.36l.75.7.28-.28,0,0,0-.07.5-.5-.05,0,.12-.09c-.51-.43-1-.71-1.41-1.08a3.57,3.57,0,0,0-1.61-1.35l-.6-.37c-.76-.44-1.55-.82-2.3-1.24a4.57,4.57,0,0,0-1.26-.65h-.17c-.73-.37-1.48-.7-2.23-1l-.45-.27-.09-.15a3.17,3.17,0,0,0-1.4-1.57,9.54,9.54,0,0,1-2.12-2.31,20.5,20.5,0,0,0-1.83-2.61c-.28-.34-.55-.64-.8-1-.45-1.08-.83-2.19-1.19-3.31a.74.74,0,0,0-.12-.56c.77-.34.05-2.16-.26-2.75-.06,0-.1,0-.16,0a6.87,6.87,0,0,1-.47-2.62c-.2-.2-.33-.47-.51-.64l-.12-.87c.2-.32.55-.55.65-.9-.64-.17-.7-1-.7-1.51,0-.22.07-.56.1-.88a.17.17,0,0,1,.1,0h0l-1,.78H408l.05,0,.11,0,.21,0,.44.06-.06,0a.72.72,0,0,0,1-.21l.25,0a3.66,3.66,0,0,0,1.24.64,12,12,0,0,0,1.69-.05,2.66,2.66,0,0,0,.74-.06c.86.12,1.72.23,2.57.36a13.4,13.4,0,0,0,2.71.65,4.09,4.09,0,0,0,1.62.24h0a19.36,19.36,0,0,1,3.41,1.35A13.38,13.38,0,0,1,426.9,923ZM421.8,942l.55.29v0Zm1.83,1.16h0l0,0Z"/><path class="cls-3" d="M409.32,917.76l-.55-.72a.53.53,0,0,0,0-.13l-1.11,1a1,1,0,0,0,0,.17c.08.52.54.64.95.82l.54.24a30.88,30.88,0,0,0,2.59,1.8c.05.18.05.4.17.5s.39,0,.59.09c1,.34,1.26,1.62,2.25,1.89a5,5,0,0,1,1.62.7c.18.12.34.26.51.39.68.55,1.31,1.15,1.93,1.75.08.15.15.31.22.47.25.54.8.73,1.17,1.09l.22.3a.79.79,0,0,1,.09.23c.05.18.05.5.17.64s.26.14.37.22.09.22.14.31c.05.27,0,.45.24.7a1.14,1.14,0,0,1,.28-.07l0,0a3.4,3.4,0,0,1-.08.46l.24,0c-.13.4-.05.84.41,1a.62.62,0,0,0,.09.26,1.63,1.63,0,0,0,.59.44l0,.08a.87.87,0,0,1-.21.87l.19.07a.76.76,0,0,0,.75.84v0l0,.25a.63.63,0,0,0,.07.81,2.13,2.13,0,0,0,.1.4,20.89,20.89,0,0,1,.75,2l.05.19a1.21,1.21,0,0,0,0,.5.79.79,0,0,0,.13.26,2.38,2.38,0,0,0,.44,1.23v0l0,.35c-.05,0-.11,0-.16.05a1.5,1.5,0,0,1,.24.68s-.12,0-.14,0c.21.2.12.34-.24.37.1,0,.19.19.29.25-.37.26.11,1.14.43,1.42a4.65,4.65,0,0,0,.07.91c.12.53.25.75.65.63.08.23.19.46.3.7l.35-.18h0l.05,0,.63-.33v0l.13,0a3.25,3.25,0,0,1-.46-.86,1.81,1.81,0,0,0-.14-1.25l-.1-.41c-.11-.51-.27-1-.34-1.56,0-.29,0-.63-.16-.88a.73.73,0,0,0-.09-.08,10.42,10.42,0,0,0-.45-1.51l-.07-.34.06-.12a1.33,1.33,0,0,0,.1-1.48c-.27-.67-.37-1.44-.6-2.17a4.51,4.51,0,0,0-1.12-1.94l-.67-.56a17.22,17.22,0,0,0-1.11-2,.36.36,0,0,0-.16-.34c.34-.25.29-.64.1-1a2.54,2.54,0,0,0-.76-.75s-.08.06-.14.09c-.15-.18-.4-.45-.63-.71a1.41,1.41,0,0,1-.45-.71c-.22,0-.41-.1-.61-.09s-.25-.29-.39-.42c0-.3.2-.64.12-.91a.91.91,0,0,1-1.18-.29c-.1-.11-.24-.3-.39-.45a.19.19,0,0,1,0-.1c-.1-.18-.27-.25-.43-.37l.07,0a.44.44,0,0,0-.7-.07l-.13-.1c-.13-.31-.15-.64-.41-.85a4.81,4.81,0,0,0-1-.4,1.24,1.24,0,0,0-.47-.13c-.46-.32-.92-.62-1.39-.92a3.88,3.88,0,0,0-1.41-1.09c-.27-.18-.58-.49-.95-.45h0a17.29,17.29,0,0,1-2.89-2.3.52.52,0,0,0-.79.67h0l.55.72Zm16.28,23.33.08.39,0,0Zm.15,1.4h0v0Z"/></g><g class="cls-2"><path class="cls-3" d="M146.55,609.86a8.91,8.91,0,0,0,1.73-.16l.41-.1.31-.09.63-.18c.19,0,.41,0,.65,0a8.08,8.08,0,0,0,3.29-1.21l1.44-.75a33.44,33.44,0,0,0,8-4.77,4.88,4.88,0,0,0,1.15-.56,9.39,9.39,0,0,0,1-1.36c1-1.29,2-2.36,2.84-3.64a9.34,9.34,0,0,0,1.69-4.23,13.14,13.14,0,0,0,.09-1.39c0-.45.07-.89,0-1.34-.06-.89,0-1.78-.19-2.73,0-.33-.07-.67-.11-1l-.21-1a26.83,26.83,0,0,0-2.92-7.5c-.19-.48-.4-.94-.61-1.39a26.48,26.48,0,0,0-2.69-4.06l-.61-.94c-.12-.21-.23-.43-.33-.65a15.46,15.46,0,0,0-.78-1.72c-.23-.34-.52-.63-.76-1s-.3-.61-.46-.89a7.82,7.82,0,0,0-.69-1.69l-.09-.15a.94.94,0,0,0-1.3-.34,1.24,1.24,0,0,0-.18.14l-.27.26c0,.11,0,.26,0,.39l-.15.14c-.35.15-.7.36-1,.51a3.23,3.23,0,0,0-.25.49,4.6,4.6,0,0,0-2.29,2.29,5.85,5.85,0,0,0-.58.63,9.36,9.36,0,0,0-1,1.79l-.17.22a5.23,5.23,0,0,1-1.73,1.43l-.13.44a5,5,0,0,0-1.48,2.93l0,.06-.43.58a4.29,4.29,0,0,0-1.4,2c-.22.35-.41.73-.61,1.13A31.18,31.18,0,0,0,144,586.7c-.05.19-.07.4-.12.61a6.9,6.9,0,0,0-.34,1.51,5.24,5.24,0,0,0,0,.88,10.75,10.75,0,0,0,.36,4v.07c0,.35,0,.7.07,1-.05,0-.11,0-.15.06a19.15,19.15,0,0,1,.51,2.08c0,.09-.13,0-.14,0,.31.64.28,1-.1,1,.14.16.29.61.43.8-.26.62.65,3.18,1.06,4.1l.24,2.43c.12,1.43.14,2,.57,2.07l0,.49v.65a10.53,10.53,0,0,0,.16,1.33l.26-.29v0l0-.1.47-.53,0-.1.1-.08a2.11,2.11,0,0,0,.17-.55,2,2,0,0,0,0-.25c0-.08,0-.25,0-.37,0-.53-.08-1-.11-1.55a10.54,10.54,0,0,0-.39-3.83l-.28-1.27c-.36-1.56-.8-3.09-1.1-4.64a22.62,22.62,0,0,0-.45-2.53c0-.1-.07-.17-.1-.26a23,23,0,0,1-.25-4.47,7.8,7.8,0,0,1,.13-1l.14-.26a18.23,18.23,0,0,0,1.56-3.51c1.43-3.77,4.25-7.3,6.08-10.83.37-.71.73-1.36,1.12-2a34,34,0,0,1,4.51-4.7,1.9,1.9,0,0,0,.39-.23l-.89-.2a2.27,2.27,0,0,0,.32.53c-.33.27,0,1.26.54,2.24a15.64,15.64,0,0,0,1.7,2.48c.07,0,.08-.06.15-.05a27.25,27.25,0,0,1,2.65,4.28c.37.29.72.7,1,1,.27.47.57.93.82,1.42a7.15,7.15,0,0,0,.08,1.71c.72.1,1.45,1.54,1.74,2.41.07.19.15.44.24.71l.22.88c0,.05,0,.09-.08.09.09.53.28,1,.38,1.5l-.08-.07a2,2,0,0,0,.67,1.52l0,.45a9.56,9.56,0,0,1-.18,1.15,5.13,5.13,0,0,0-.18,1.18c0,.46,0,.95,0,1.44a6.58,6.58,0,0,1-.1,1.48,9.44,9.44,0,0,0-.19,1.3,14.39,14.39,0,0,1-2.09,4.16,46.67,46.67,0,0,1-3.59,3.58,21.52,21.52,0,0,0-2.36,1.9l0,0a36.21,36.21,0,0,1-6.17,3.15c-1.08.44-2.17.82-3.28,1.18-.55.18-1.11.33-1.67.49a3.29,3.29,0,0,0-.63.21c-.18.09-.37.21-.6.34Zm-2-12.36.27,1.14,0,0Zm.8,4h0v.11Z"/><path class="cls-3" d="M158.39,568l.25-1.16.11-.1-1.46-.21-.13.16c-.34.52-.14,1.06,0,1.63,0,.25.11.49.17.73,0,1.41.23,2.78.4,4.14-.1.19-.26.37-.25.57s.24.43.33.68c.46,1.35-.33,2.64.14,3.88a8.14,8.14,0,0,1,.6,3.12v1.73l-.1,1.73c-.07.22-.13.43-.21.64a6.67,6.67,0,0,0-.14,2.12l-.1.48a2.55,2.55,0,0,1-.13.29,3,3,0,0,0-.42.76,3.48,3.48,0,0,0,0,.55l-.15.42c-.2.29-.41.37-.45.87a.62.62,0,0,1,.23.19v.09c-.15.11-.28.24-.43.34,0,.09.07.18.11.27a1.1,1.1,0,0,0-.57,1.25,1.48,1.48,0,0,0-.17.33,2.65,2.65,0,0,0,0,.93l0,.12a1.16,1.16,0,0,1-.88.62l0,.23a1.18,1.18,0,0,0-.31,1.42l0,0-.21.25a1,1,0,0,0-.69.81,3,3,0,0,0-.3.46c-.44.78-.86,1.64-1.37,2.43l-.15.21a3.42,3.42,0,0,0-.49.44,1.15,1.15,0,0,0-.16.34,4.26,4.26,0,0,0-.91,1.47l0,0-.35.31s-.08-.07-.13-.08a2.72,2.72,0,0,1-.51.8s-.09-.08-.11-.09c-.06.35-.25.4-.5.14,0,.12-.07.33,0,.46-.48-.06-1,1.11-1.08,1.63a6.53,6.53,0,0,0-.79.87c-.42.58-.54.87-.18,1.11-.16.28-.3.57-.44.88l.37.15h.06l.66.27,0,0,.13.06a4.49,4.49,0,0,1,.51-1.21,3.32,3.32,0,0,0,1.08-1.26l.32-.45c.42-.57.82-1.16,1.29-1.7.24-.28.61-.54.73-.91,0-.05,0-.1,0-.15a16.3,16.3,0,0,0,1.16-1.73L153,602l.15-.06a2,2,0,0,0,1.42-1.25c.45-.85,1.11-1.61,1.61-2.47a7.33,7.33,0,0,0,1-2.74l.08-1.11.57-1.39c.17-.48.31-1,.46-1.44a.57.57,0,0,0,.19-.46c.41.08.72-.31.88-.8a4,4,0,0,0,.13-1.38s-.1,0-.15,0a9,9,0,0,1,.45-2.29c-.13-.22-.18-.47-.31-.66,0-.25.07-.5.08-.75.26-.23.62-.37.78-.68-.6-.24-.56-1-.53-1.41,0-.19.06-.49.08-.78a.19.19,0,0,1,.1,0,2,2,0,0,0,0-.74l.07,0c.07-.37,0-.66-.4-.75l0-.22a2.84,2.84,0,0,0,.37-1.13,7.83,7.83,0,0,0-.39-1.37,2.09,2.09,0,0,0-.22-.59c-.07-.73-.17-1.45-.26-2.17A7,7,0,0,0,159,573a2.62,2.62,0,0,0-.32-1.35h0a24,24,0,0,1-.16-4.93.52.52,0,0,0-1-.16h0l-.25,1.2Zm-8.92,36.62-.32.42h-.05ZM148.23,606h0l0,0Z"/><path class="cls-3" d="M147.64,579.54c-.47-.42-.92-.85-1.4-1.26a3.29,3.29,0,0,0-.25-.42,2.66,2.66,0,0,0-.94-.86c-.38-.18-.8-.32-1.22-.49s-.74-.27-1.1-.4a27.91,27.91,0,0,0-6.27-2.06,2.54,2.54,0,0,0-.78-.5c-.42-.12-.76.06-1.18,0-2.22-.1-4-1.28-6.09-1.2a19.51,19.51,0,0,1-3.66-.15c-.44-.07-.9-.13-1.34-.22l-1.25-.26h0a.65.65,0,0,0-.77.5s0,.07,0,.11a30.32,30.32,0,0,0,.2,4.38v1.08a12.82,12.82,0,0,0,.75,3.4c0,.26.11.52.17.78a4.6,4.6,0,0,1,.06.52,5.81,5.81,0,0,0,.07,1.38,7.33,7.33,0,0,0,.38.8,5.4,5.4,0,0,0,.15.72,3.42,3.42,0,0,0,.29,1.57c.12,0,.22.06.32.09l.06.13c0,.27,0,.56-.06.82a2.65,2.65,0,0,0,.29.29,2.52,2.52,0,0,0,.68,2.17,3.63,3.63,0,0,0,.2.58,4.88,4.88,0,0,0,.85,1.2l.08.18a3.15,3.15,0,0,1,.18,1.65l.27.2c.06.63.91,1.8,1.5,1.86l0,.05.24.48a2.23,2.23,0,0,0,.92,1.53,4.58,4.58,0,0,0,.63.7,21.2,21.2,0,0,0,3.76,2.84l.36.23a5.52,5.52,0,0,0,.85.66,2.62,2.62,0,0,0,.56.24,9.06,9.06,0,0,0,2.52,1.12l0,0,.61.41s-.06.09,0,.15a6.47,6.47,0,0,1,1.36.58c.05,0-.06.11-.06.13.51.07.67.29.42.57.16,0,.48.08.65.07.15.53,1.9,1.2,2.61,1.39.46.35.86.75,1.32,1.09.77.65,1.11.88,1.43.59l1,.93.28-.28,0,0,0-.07.5-.5-.07-.07.12-.09c-.65-.57-1.23-1-1.8-1.43a4.12,4.12,0,0,0-1-1,6.89,6.89,0,0,0-1.19-.76l-.79-.48c-1-.57-2-1.08-3-1.62a7.45,7.45,0,0,0-1.66-.85l-.2,0-2.92-1.41-.61-.36-.12-.18a5.71,5.71,0,0,0-2-2,13.86,13.86,0,0,1-2.87-3.09c-.79-1.15-1.47-2.43-2.36-3.54-.34-.46-.66-.87-1-1.32-.6-1.43-1.09-2.9-1.57-4.37a1.39,1.39,0,0,0-.17-.74c.76-.36-.13-2.79-.49-3.59-.06,0-.1,0-.16,0a11.09,11.09,0,0,1-.64-3.45c-.21-.28-.36-.63-.55-.87l-.15-1.15a5.67,5.67,0,0,0,.62-1.17c-.65-.24-.72-1.37-.73-2,0-.29.07-.74.1-1.17a.1.1,0,0,1,.1,0h0l-1,.78h.07l.07,0,.14,0,.29.06.57.09s0,0-.07,0c.55.21,1,.15,1.25-.16l.34.06a5.88,5.88,0,0,0,1.64.7,20.14,20.14,0,0,0,2.2,0,4.17,4.17,0,0,0,1,0c1.13.16,2.26.3,3.38.47a25.56,25.56,0,0,0,3.58.81,7.69,7.69,0,0,0,2.13.37h0a25.58,25.58,0,0,1,4.52,1.78,18.13,18.13,0,0,1,3.88,2.85Zm-7.55,25.7.72.38v0Zm2.43,1.5h0l0,0Z"/><path class="cls-3" d="M123.4,573.73l-.71-1a.71.71,0,0,0,0-.14l-1.11,1a1.77,1.77,0,0,0,0,.2c.17.59.71.8,1.22,1.07l.67.34c1.1.88,2.26,1.62,3.4,2.36a1.44,1.44,0,0,0,.27.57c.21.17.49.08.74.18,1.32.52,1.77,1.95,3,2.4a8.17,8.17,0,0,1,2.07,1c.24.16.45.35.68.53.43.37.89.73,1.31,1.12l1.24,1.2c.12.18.23.39.33.57.37.68,1,1,1.5,1.49l.3.39a2.75,2.75,0,0,1,.14.3,2.84,2.84,0,0,0,.29.8,2.44,2.44,0,0,0,.45.32,3.73,3.73,0,0,0,.2.4c.08.34,0,.55.36.91a.84.84,0,0,1,.3-.06l.05.07a3.37,3.37,0,0,1,0,.55,2.29,2.29,0,0,0,.28.09,1.12,1.12,0,0,0,.56,1.26,1.22,1.22,0,0,0,.14.34,2.55,2.55,0,0,0,.68.63l.05.11a1.13,1.13,0,0,1-.11,1.07l.2.11a1.18,1.18,0,0,0,.88,1.16v0l.05.32a1,1,0,0,0,.15,1,2.6,2.6,0,0,0,.14.53c.31.84.69,1.72.94,2.62l.06.25a2.35,2.35,0,0,0,0,.65.93.93,0,0,0,.15.35,3.9,3.9,0,0,0,.52,1.64v.49s-.1,0-.15.05a2.55,2.55,0,0,1,.28.9s-.12,0-.14,0c.23.27.14.45-.22.47.11.06.2.26.31.33-.36.32.19,1.49.53,1.88a6.45,6.45,0,0,0,.14,1.16c.17.69.32,1,.73.86a7.55,7.55,0,0,0,.38.9l.35-.19v0l.06-.05.63-.32,0-.05.13-.06a4.73,4.73,0,0,1-.58-1.17,3.18,3.18,0,0,0-.25-1.63c0-.17-.08-.35-.13-.55-.15-.68-.34-1.36-.44-2.06a3.18,3.18,0,0,0-.22-1.15.33.33,0,0,0-.09-.11,20.46,20.46,0,0,0-.55-2l-.1-.45.06-.15a2,2,0,0,0,0-1.89c-.34-.88-.5-1.88-.81-2.82a7.35,7.35,0,0,0-1.37-2.56l-.78-.79-.68-1.34c-.23-.45-.52-.86-.78-1.29a.53.53,0,0,0-.22-.44c.34-.26.23-.74,0-1.19a4,4,0,0,0-.95-1c-.06,0-.08.06-.14.08l-.8-.93a2.26,2.26,0,0,1-.62-.9c-.26,0-.48-.18-.71-.2-.17-.18-.33-.38-.51-.56a2.69,2.69,0,0,0,0-1c-.57.29-1.11-.21-1.41-.52-.13-.13-.33-.37-.53-.57a.18.18,0,0,1,0-.1,2.16,2.16,0,0,0-.56-.48l.07,0a.57.57,0,0,0-.83-.19l-.17-.13a2.93,2.93,0,0,0-.61-1,7,7,0,0,0-1.3-.6,1.92,1.92,0,0,0-.59-.21c-.59-.42-1.2-.81-1.81-1.21a6.71,6.71,0,0,0-1.88-1.39,2.73,2.73,0,0,0-1.23-.63h0a22.64,22.64,0,0,1-3.84-3.06.52.52,0,0,0-.79.67h0l.73,1Zm21.78,30.52.11.51,0,0Zm.25,1.83h0v0Z"/></g><path class="cls-4" d="M210.56,360.62c-7.08,0-7.09,11,0,11S217.65,360.62,210.56,360.62Z"/><path class="cls-4" d="M319.13,473.69c-7.08,0-7.09,11,0,11S326.22,473.69,319.13,473.69Z"/><path class="cls-4" d="M85.75,302.21c-7.07,0-7.09,11,0,11S92.84,302.21,85.75,302.21Z"/><path class="cls-4" d="M75.53,109.77c-7.08,0-7.09,11,0,11S82.62,109.77,75.53,109.77Z"/><path class="cls-4" d="M436.43,298.63c-7.08,0-7.09,11,0,11S443.51,298.63,436.43,298.63Z"/><path class="cls-4" d="M194.94,497.65c-7.08,0-7.09,11,0,11S202,497.65,194.94,497.65Z"/><path class="cls-4" d="M38.87,243.58c-7.07,0-7.09,11,0,11S46,243.58,38.87,243.58Z"/><g class="cls-2"><path class="cls-3" d="M392.9,709.54l-1.54,1.18-.45.18a7.92,7.92,0,0,0-2.05,1.63l-.9.82-5.5,4.25s-.07,0-.13.13a.44.44,0,0,0-.07.34.49.49,0,0,0,.51.41l.15,0h.33a1.72,1.72,0,0,0,.44-.06c.42-.09.66-.33,1.08-.42a7.31,7.31,0,0,1,3.22,0c1,.19,2,.47,3,.69a6.46,6.46,0,0,1,3.28,1.63,4.77,4.77,0,0,1,.81,1.08,2.71,2.71,0,0,1,.3,2.47,3.56,3.56,0,0,1-2.11,1.51c-.36.08-.72.14-1.07.19-1.25.16-2.4.43-3.56.52l-.84,0a3.27,3.27,0,0,1-.54,0c-.39,0-1-.18-1.42-.19s-.62.05-.92.06-.52-.06-.76-.08a5.69,5.69,0,0,0-1.66-.25c0,.07-.14.11-.21.16h-.15l-.8-.28-.4.1a3,3,0,0,0-1.26-.2,2.57,2.57,0,0,0-1.35.42,3.93,3.93,0,0,0-2,1.19l-.18.11a4.2,4.2,0,0,1-1.59.59l-.22.27a4.38,4.38,0,0,0-1.89,1.6l0,0-.47.28a3.56,3.56,0,0,0-1.56,1,9.46,9.46,0,0,0-.78.56c-1.25,1-2.5,2-3.78,3.09l-.35.29a8.08,8.08,0,0,0-.92.65,3.29,3.29,0,0,0-.46.45,15.32,15.32,0,0,0-2.15,2l0,0-.63.48s0-.07-.09-.06a12.18,12.18,0,0,1-1.15,1.11s0-.07-.07-.07c-.31.43-.56.55-.65.31-.07.15-.31.41-.39.57-.49.07-1.89,1.63-2.34,2.28-.49.41-1,.82-1.45,1.26-.84.79-1.16,1.14-1,1.38l-1.07,1.09.19.19,0,0h.06l.34.33.07-.07.05.08c.62-.65,1.07-1.22,1.63-1.75a13.44,13.44,0,0,0,2.14-1.9l.71-.67c.88-.83,1.75-1.67,2.67-2.46a14.6,14.6,0,0,0,1.5-1.32,1.77,1.77,0,0,0,.12-.17l2.61-2.35.6-.49.21-.09a8.83,8.83,0,0,0,2.56-1.64c2.42-2,5.42-3.71,7.73-5.71.46-.4.9-.75,1.35-1.08a5.28,5.28,0,0,1,2.25-.7,19,19,0,0,1,2.47.13,2.12,2.12,0,0,0,.81.1c.08.59,3,.67,3.94.51,0,0,0-.07,0-.11,1,0,3.21-.23,3.92-.18.33-.15.73-.27,1-.43a11.07,11.07,0,0,0,1.26-.32,3.51,3.51,0,0,0,1.4,0c.07-.28.42-.56.76-.94a3.69,3.69,0,0,0,.83-1.25,2.89,2.89,0,0,0,.16-1.51s0-.07.06-.07a3.35,3.35,0,0,0-.45-1.3l.08,0a3.11,3.11,0,0,0-.47-.76.91.91,0,0,0-.51-.26c-.09-.09-.16-.2-.25-.29a4.7,4.7,0,0,0-1.37-1.45,8.71,8.71,0,0,0-2.32-.84,7.2,7.2,0,0,0-1.05-.18,14.32,14.32,0,0,0-3.75-.34,7.53,7.53,0,0,0-2,.12c-.33.06-.66.16-1,.24l-.51.19-.26.09h0a.43.43,0,0,1,.53.35.42.42,0,0,1-.11.33l-.05,0h0l.06,0a11.28,11.28,0,0,0,1.8-1.52l0,0,8.49-6.56Zm-33.09,30.21-.66.59h0Zm-2.36,2h0l-.06.05Z"/><path class="cls-3" d="M332.72,724.85c.82-1.17,1.62-2.36,2.46-3.51.23-.21.47-.46.74-.74a23.08,23.08,0,0,0,1.8-2.2l1.76-2.36c.53-.72,1.09-1.42,1.65-2.1,3.34-3.88,6.85-7.63,10.49-11.24.51-.42,1-.74,1.59-1.26.74-.7,1.14-1.3,1.82-2,3.66-3.76,7.4-6.31,11-9.68,1.1-1,2.16-2,3.25-2.87a17.94,17.94,0,0,1,1.68-1.26,3.71,3.71,0,0,1,1.88-.66,1.42,1.42,0,0,1,1.11.49,3.1,3.1,0,0,1,.6,1.28,8.49,8.49,0,0,1,0,3.14,13.08,13.08,0,0,1-1,3.06,11.76,11.76,0,0,1-3.93,5c-.56.38-1.14.72-1.73,1l.69.74a3.47,3.47,0,0,1,.25-.29,4.59,4.59,0,0,1,1.59-1,13.13,13.13,0,0,0,1.91-1c1.16-.72,2.25-1.47,3.32-2.23.52-.36,1-.74,1.55-1.12.34-.24.66-.48,1-.7a25.4,25.4,0,0,1,2.7-1.5,4.6,4.6,0,0,1,1.66-.56,1.08,1.08,0,0,1,1,.59c0,.12.11.2.15.31a3.4,3.4,0,0,0,.07.34,2.86,2.86,0,0,1,.08.67,6.7,6.7,0,0,1,0,.8,6.2,6.2,0,0,1-.07,1.08c.07,0,.08.28.11.42a2.8,2.8,0,0,1-.09.31,6.25,6.25,0,0,1-.86,1.41c-.11.25-.23.49-.34.72-.93,1-2.65,2.3-3.84,3.37l-1.19.75c-1.06.67-1.87,1.26-2.77,1.87l-.41.23-.91.47-.44.22a.73.73,0,0,0-.33.76.74.74,0,0,0,.61.56.91.91,0,0,0,.36-.05l.1,0,.22-.06.42-.1c.27,0,.54-.1.81-.13l.63-.34a27.44,27.44,0,0,0,5-2l.12,0c.41-.1.78-.19,1.17-.27,1.44-.15,2.6-.38,3.91-.64l2.11-.28a47.13,47.13,0,0,1,10.59-.57l1,.12a18.54,18.54,0,0,1,2.31.55,5.12,5.12,0,0,1,1.12.5,2.61,2.61,0,0,1,.83,1.06c.16.43.42,1.08.6,1.5.09.24.09.29.06.38a1.74,1.74,0,0,1-.35.49,4.2,4.2,0,0,1-.51.52,3.44,3.44,0,0,1-.55.46l-.08.06a6.24,6.24,0,0,1-.73.37,5.57,5.57,0,0,1-.77.3c-.07,0,0-.07-.1-.07a13.31,13.31,0,0,1-3.28.94c-.14,0,0-.08,0-.09-1.09.3-1.69.27-1.51,0-.3.11-1.07.21-1.42.3a26.93,26.93,0,0,0-3.24,0c-1.44,0-3,0-3.87,0a23.36,23.36,0,0,0-4.35-.07c-2.63.27-3.66.87-3.69,1.14a10.82,10.82,0,0,0-3,1.76l.17.2-.06,0h.09l.3.36.17-.13a.36.36,0,0,1,0,.11,10.23,10.23,0,0,1,4.6-2.17,38.69,38.69,0,0,1,6.23-.11c.66,0,1.37.11,2.16.14a38,38,0,0,0,8.16-.57,12.73,12.73,0,0,0,4.33-1.45l.4-.31a5.5,5.5,0,0,0,.83-.63,5.19,5.19,0,0,0,.73-.75,1.89,1.89,0,0,0,.31-.55,1.23,1.23,0,0,0,0-.71,8,8,0,0,0-.37-1,5.29,5.29,0,0,0-1-1.83,4.23,4.23,0,0,0-1.82-1.09,8.71,8.71,0,0,0-1.71-.42l-.48-.14a17.82,17.82,0,0,0-6.82-.57c-1.77.12-3.57.31-5.37.53a48.09,48.09,0,0,0-5.47.86,40.2,40.2,0,0,0-5.26,1.62c-.84.31-1.66.64-2.47,1l-1.2.5-.29.13-.15.06a.46.46,0,0,1,.37,0,.41.41,0,0,1,.09.63.34.34,0,0,1-.1.08l.07,0,.13-.09,3.25-2.13a28.79,28.79,0,0,0,4.62-3.26,9.19,9.19,0,0,0,3.07-4.82,4.54,4.54,0,0,0,.17-1.89,1.88,1.88,0,0,0,.08-1.34,4.37,4.37,0,0,0-.16-.62c-.11-.22-.23-.46-.38-.7a2.67,2.67,0,0,0-.71-.62l-.47-.21a2.67,2.67,0,0,0-.48-.08,5.28,5.28,0,0,0-3.11.9,16.8,16.8,0,0,0-1.86,1.3c-.05.08,0,0,0,.12-.92.68-2.25,1.77-3.63,2.68a17.64,17.64,0,0,1-3.4,1.9,12,12,0,0,0-2,1.3,3.77,3.77,0,0,0-.94,1l-.89,1.3,1.34-.8c.45-.27.9-.55,1.33-.85a8.86,8.86,0,0,0,2.45-1.42,18.87,18.87,0,0,1,1.18-2.06,20.28,20.28,0,0,0,1.28-2.64,12.39,12.39,0,0,0,.88-2.85c0-.07.07-.12.09-.11a8.19,8.19,0,0,0,0-2.88l.06.15a3.62,3.62,0,0,0-.66-1.89,1.7,1.7,0,0,0-.57-.54.85.85,0,0,0-.5-.18,2.55,2.55,0,0,0-.9-.28,5.93,5.93,0,0,0-4.05,1.48c-1.37,1-2.66,2.3-3.95,3.43-.75.66-1.22,1.13-1.67,1.57-2.06,1.78-4.07,3.63-6.08,5.48-2.32,2-4.15,3.79-6.44,6.08a45.2,45.2,0,0,0-3.59,3.82l0,0a140.5,140.5,0,0,0-15.17,18.36Zm64.67-15.68c-.64.08-1.29.15-1.93.2l-.06,0C396.06,709.31,396.73,709.24,397.39,709.17Zm-6.8.18h0Z"/><path class="cls-3" d="M386.2,702.31l.43-.33.19,0c.33,0,.41-.26.57-.48l.21-.29,1.57-1.2c.12,0,.25.07.34,0s.1-.23.18-.33c.42-.56,1.27-.39,1.64-1a3.49,3.49,0,0,1,.75-.87l.33-.26c.46-.33.92-.65,1.39-1l.32-.09c.37-.1.54-.42.8-.59l.21-.09a.39.39,0,0,1,.15,0c.12,0,.32.06.42,0s.13-.14.2-.19a.64.64,0,0,0,.2,0c.17,0,.25.12.45,0a1.09,1.09,0,0,1,0-.19l0,0a1.75,1.75,0,0,1,.25.16l.07-.14c.2.2.45.24.62,0a.3.3,0,0,0,.16,0,1,1,0,0,0,.39-.2h.06c.15.09.29.13.34.42l.09-.08a.43.43,0,0,0,.64-.06h0l.11.09c0,.27.13.33.29.35l.17.14a1.77,1.77,0,0,1,.68.81.3.3,0,0,1,0,.1.5.5,0,0,0,0,.27.27.27,0,0,0,.07.14,1.81,1.81,0,0,0,.15.71h0l-.08.19h-.1a.68.68,0,0,1,0,.4s-.08,0-.09,0c.07.16,0,.2-.25.1.05,0,.07.15.11.2-.29,0-.3.49-.29.73s-.24.2-.35.31-.25.26-.07.48l-.3.24.16.21h0l0,0,.27.39,0,0,.05.08c.22-.19.34-.39.52-.56a1.06,1.06,0,0,0,.65-.64l.15-.27a5.83,5.83,0,0,0,.4-1.08c0-.19.19-.42.11-.63a.43.43,0,0,1,0-.07,2.75,2.75,0,0,0-.16-1.1l-.06-.23,0-.09a.89.89,0,0,0-.15-1.07,4.74,4.74,0,0,0-1.27-1.18,2,2,0,0,0-1.59-.28,5.29,5.29,0,0,0-.56.18,6.36,6.36,0,0,0-1.51.17.21.21,0,0,0-.24,0c-.18-.55-1-.15-1.22.09,0,0,0,.06,0,.1-.27.12-.83.54-1.07.5,0,.15-.11.26-.12.39l-.31.2c-.18-.07-.39-.22-.56-.21a.55.55,0,0,1-.31.7l-.34.17-.06,0c-.12,0-.19.13-.28.2s0,0,0,0c-.18.06-.24.2-.15.42l-.08.06c-.22,0-.43,0-.6.08s-.27.38-.43.54a1,1,0,0,0-.17.26l-.84.63a2.51,2.51,0,0,0-1,.6c-.17.12-.43.25-.48.49h0l-2.42,1.86Zm14.39-3.37a.86.86,0,0,1-.07.21h0A1.89,1.89,0,0,0,400.59,698.94Zm-.38.69Z"/></g><polyline class="cls-6" points="326.51 35.11 347.99 28 338.79 13.67"/><g class="cls-7"><rect y="1077.55" width="498.66" height="1080.13"/><rect x="496.8" y="587.71" width="498.66" height="1080.13"/></g></g></svg>