<svg id="Layer_1" data-name="Layer 1" xmlns="http://www.w3.org/2000/svg" viewBox="0 0 4.38 4"><defs><style>.cls-1{fill:#fecc00;}</style></defs><title>Artboard 4</title><path class="cls-1" d="M2.21,3.79a1,1,0,0,1-.32-.56.93.93,0,0,1-.37.39.94.94,0,0,1-.5.15.94.94,0,0,1-.74-.31A1.09,1.09,0,0,1,0,2.67a.77.77,0,0,1,.24-.56,1,1,0,0,1,.61-.3,1.55,1.55,0,0,1-.29-.43A1.14,1.14,0,0,1,.45.94.85.85,0,0,1,.75.26,1.22,1.22,0,0,1,1.55,0a.88.88,0,0,1,.63.24.92.92,0,0,1,.28.63A1.43,1.43,0,0,1,2.89.39.88.88,0,0,1,3.4.21.94.94,0,0,1,4.11.5a1.13,1.13,0,0,1,.27.79.91.91,0,0,1-.23.59,1.23,1.23,0,0,1-.61.4,1.13,1.13,0,0,1,.27.34.77.77,0,0,1,.1.38.93.93,0,0,1-.31.73A1.21,1.21,0,0,1,2.78,4,.84.84,0,0,1,2.21,3.79ZM3.28,3.4a.66.66,0,0,0,.19-.49.57.57,0,0,0-.09-.29.91.91,0,0,0-.24-.24s0,0,0-.08a.12.12,0,0,1,0-.1.26.26,0,0,1,.05-.12A.12.12,0,0,1,3.21,2a1.28,1.28,0,0,0,.53-.29.59.59,0,0,0,.2-.42A.76.76,0,0,0,3.78.81.55.55,0,0,0,3.33.62.67.67,0,0,0,2.9.79a1,1,0,0,0-.29.44c0,.11-.1.16-.19.16a.25.25,0,0,1-.16,0,.13.13,0,0,1-.06-.11A1,1,0,0,0,2,.65.57.57,0,0,0,1.54.43.69.69,0,0,0,1.06.6a.55.55,0,0,0-.19.45A.72.72,0,0,0,1,1.39a.87.87,0,0,0,.23.27.29.29,0,0,1,.08.23A.26.26,0,0,1,1.22,2a.13.13,0,0,1-.11.06.68.68,0,0,0-.48.16.54.54,0,0,0-.18.42.73.73,0,0,0,.17.49.62.62,0,0,0,.46.18.62.62,0,0,0,.38-.13.75.75,0,0,0,.26-.33.21.21,0,0,1,.18-.13A.23.23,0,0,1,2,2.8a.21.21,0,0,1,.06.1.9.9,0,0,0,.23.49.59.59,0,0,0,.44.19A.72.72,0,0,0,3.28,3.4ZM1.65,2.49a.46.46,0,0,1-.16-.37.58.58,0,0,1,.59-.62.61.61,0,0,1,.45.16.53.53,0,0,1,.16.41.55.55,0,0,1-.17.41.69.69,0,0,1-.46.15A.62.62,0,0,1,1.65,2.49Zm.68-.21a.33.33,0,0,0,.08-.22.25.25,0,0,0-.09-.2.36.36,0,0,0-.24-.08.29.29,0,0,0-.22.09.28.28,0,0,0-.09.22.23.23,0,0,0,.1.2.44.44,0,0,0,.25.07A.29.29,0,0,0,2.33,2.28Z"/></svg>