<svg xmlns="http://www.w3.org/2000/svg" viewBox="0 0 32 32"><defs><style>.cls-1{opacity:0.2;}.cls-2{fill:#fecc00;}</style></defs><title>Headlight-inside page</title><g id="Info"><polygon points="13.64 10.69 15.84 26.15 27.51 18.03 13.64 10.69"/><path class="cls-2" d="M14.13,11.38l.92.55.35.35a2,2,0,0,0,1.18.68l.49.16L20.29,15a3.34,3.34,0,0,0,.44.68c.21.16.34,0,.55,0a3.55,3.55,0,0,1,1.5,1.12,2.54,2.54,0,0,0,1.42,1,6,6,0,0,1,2,.5l.72.35.2.11L27,17.33l-2.57,1.8-.64.2c-.74.24-1.1.91-1.59,1.35l-.4.28a1.51,1.51,0,0,1-.3.1c-.24.06-.67.05-.86.2s-.19.34-.3.48a1.59,1.59,0,0,0-.39.2c-.35.07-.59,0-.91.36a1.38,1.38,0,0,1,.12.36l-.06.06c-.2,0-.4,0-.6-.06,0,.1,0,.21,0,.31a.87.87,0,0,0-1.19.68,1.1,1.1,0,0,0-.32.17,2.09,2.09,0,0,0-.46.84l-.1.06a1.23,1.23,0,0,1-1.16,0l0,.26L15,25l2.27,1a1,1,0,0,0-.74-1.05v0a2.93,2.93,0,0,1,.05-.29.63.63,0,0,0,.13-.94,1.69,1.69,0,0,0-.06-.49c-.21-.81-.43-1.65-.63-2.52l0-.23a1.16,1.16,0,0,0,0-.53,1.19,1.19,0,0,0-.15-.35,4.11,4.11,0,0,0-.52-1.62v0l0-.35a1.42,1.42,0,0,0,.18.08,2.6,2.6,0,0,1-.28-.89s.13.09.16.1c-.24-.39-.14-.44.25-.12-.12-.14-.22-.37-.33-.52.38.12-.17-1.15-.47-1.78a4.29,4.29,0,0,0-.07-.85,2.61,2.61,0,0,0-.53-1.31l-.16-.83-.3-.42h0l-.05-.06-.53-.75v.05l-.11-.16c.07.55.21,1.08.23,1.49a2.64,2.64,0,0,0,0,1.48l.06.58c.06.7.17,1.45.21,2.15a2.91,2.91,0,0,0,.1,1.18l.1.17a15.6,15.6,0,0,0,.41,2.15l.06.45-.1.1c-.5.45-.56.84-.4,1.7.3,1.58.09,3.31.61,4.86l.17.51a1.24,1.24,0,0,0,1.58.78,1.36,1.36,0,0,0,.5-.31,4.16,4.16,0,0,0,.61-.82c.18-.33.37-.63.55-.93L20.17,24a.4.4,0,0,0,.41-.21c.69.85,1.86-.28,2.15-.78,0-.07-.08-.11-.11-.18.45-.35,1.32-1.23,1.82-1.17,0-.28.17-.5.18-.76l.59-.41a3.78,3.78,0,0,0,1.1.4,1.1,1.1,0,0,1,.61-1.39c.15-.1.43-.19.67-.33l.1.1a1,1,0,0,0,.46-.29l.19-.17a1,1,0,0,0,.07-1.46A1.1,1.1,0,0,0,28,17L27.88,17l.07-.05a.54.54,0,0,0-.89.1l-.19-.1c-.25-.37-.38-.81-.76-1a7.13,7.13,0,0,0-1.37-.3,1.56,1.56,0,0,0-.59-.09l-1.94-1a6.51,6.51,0,0,0-2.13-1.26c-.38-.19-.94-.55-1.22-.42h0l-5.6-2.72Zm.94,5L15,15.89l0,0Zm-.17-1.53h0v0Z"/><path class="cls-2" d="M28.35,31l-.15-.25.18-.19c.28-.34-.06-.27-.27-.3l-.26-.05-.55-.87c.11-.13.29-.29.29-.35s-.27,0-.36,0c-.5-.11.39-1-.17-1.06a1.13,1.13,0,0,1-.75-.23c0-.05-.09-.11-.14-.17l-.48-.75c0-.09,0-.17.08-.25.08-.29-.3-.26-.47-.36l-.06-.11a.23.23,0,0,1,0-.11c0-.1.21-.31.16-.36s-.18,0-.25,0a.18.18,0,0,0,0-.13c.07-.14.23-.29.05-.33l-.32.17h0c.09-.1.16-.2.27-.31l-.23.08c.32-.32.35-.52-.09-.37,0-.05,0-.08,0-.1s-.3,0-.48,0l0,0c.06-.14.06-.24.47-.58l-.19.06c.18-.22-.09-.3-.61,0h0L24,24c.3-.31.27-.39.09-.37a.18.18,0,0,0-.06-.14,6.44,6.44,0,0,1-.57-.49l0-.06c0-.09.07-.18,0-.22a.14.14,0,0,0-.13,0c-.05-.15-.14-.27-.45-.23h0a.94.94,0,0,0,0-.16l.17-.11c-.11,0-.25,0-.24-.13s.14-.09.16-.11c-.23.06-.11-.06.29-.3-.12,0-.21,0-.32.08.42-.33-.05-.4-.37-.33a.76.76,0,0,0,0-.36c0-.17-.12-.2-.59.09l-.12-.2-.44.28h0l-.08.06-.78.49h0l-.17.1c.11.09.29.1.32.22-.2.29-.13.41,0,.5a.36.36,0,0,1,.08.12,2,2,0,0,1,.3.45c0,.09-.05.28.15.26l.09,0a1.32,1.32,0,0,0,.45.33l.06.1-.08.09c-.42.45-.45.58-.28.72.37.31.06,1.12,1,1.06a4.61,4.61,0,0,1,.51,0l.41.63c-.07.09-.09.15,0,.13-.91.61-.47.83-.19.81l.18-.1c.11.11.47.25.24.52.21-.07.33-.07.52-.15l.1.16a8.06,8.06,0,0,0-.71.67c.7-.39.81-.24.85-.14s0,.15,0,.22l-.11.09c-.05.1,0,.11.09.15l-.08,0c0,.13.14.11.53-.11l0,0c-.13.2-.36.44-.32.54s.36,0,.49.1a.5.5,0,0,0,.25,0l.29.46c-.17.35,0,.43.15.61s0,.28.35.2h0l.86,1.35Zm-5.7-9-.07-.11.05,0Zm-.09-.49h0Z"/><path class="cls-2" d="M18.43,6.29l.05-.14h.14c.22,0,.09-.1,0-.2l-.06-.12.19-.5c.08,0,.2,0,.22,0s-.09-.1-.11-.14c-.11-.24.53-.17.38-.41a.55.55,0,0,1-.14-.37l0-.12.16-.43.12,0c.14-.05,0-.2,0-.3l0-.06.05,0c.06,0,.19,0,.2-.05s-.06-.08-.08-.11a.1.1,0,0,0,.05,0c.08,0,.19,0,.15-.08l-.17-.08v0l.21,0L19.79,3c.22,0,.31,0,.12-.16,0,0,0,0,0,0s-.09-.11-.15-.18h0c.08,0,.12,0,.38,0l-.08,0c.14,0,.09-.14-.17-.27h0l.06,0c.22,0,.24,0,.18-.09a.09.09,0,0,0,0-.06,2.58,2.58,0,0,1,0-.39,0,0,0,0,1,0,0s.09,0,.1-.06a.09.09,0,0,0,0-.06c.05-.07.07-.14,0-.26h0l.08,0,.09,0c0-.05-.06-.11,0-.14l.08,0c-.09-.07,0-.06.21,0l-.13-.1c.26.06.15-.15,0-.26a.44.44,0,0,0,.15-.1c.05-.07,0-.11-.21-.21l0-.11L20.36.38h0l-.05,0L19.88.2h0l-.09,0c0,.08.05.15,0,.2s-.21.08-.2.17l0,.07a1.34,1.34,0,0,1-.09.26s-.13.07-.06.14,0,0,0,0a.71.71,0,0,0,0,.29l0,.06h-.06c-.31,0-.37,0-.37.11s-.44.39-.12.75l.16.21-.14.36c-.05,0-.08,0-.05,0-.51-.18-.47.07-.38.18l.1,0c0,.08,0,.27-.14.26.09.06.13.11.21.17l0,.09a2.65,2.65,0,0,0-.48-.08c.36.16.34.25.31.3s-.06.05-.09.08l-.07,0c-.05,0,0,.05,0,.08l0,0c-.06,0,0,.09.21.18v0c-.12,0-.29,0-.32,0s.1.16.11.23a.23.23,0,0,0,.07.11l-.1.26c-.2,0-.17.15-.21.25s-.1.11,0,.21h0L17.72,6Zm1.92-5.16,0-.06h0Zm.17-.19h0Z"/><path class="cls-2" d="M8.24,12.67H8.11a.93.93,0,0,1,0-.13c-.06-.21-.12,0-.18,0l-.09.1H7.31a1.06,1.06,0,0,0-.06-.22s-.06.13-.09.16c-.17.18-.31-.44-.47-.22s-.19.24-.29.26H5.87l-.08-.1c-.09-.11-.18.06-.26.1H5.47a.11.11,0,0,1,0-.05s-.07-.17-.1-.16,0,.08-.07.11,0,0,0,0-.06-.18-.12-.11l0,.18h0l0-.2,0,.12c0-.22-.12-.29-.17-.06,0,0,0,0,0,0s-.07.12-.11.21h0c0-.07-.08-.1-.11-.36l0,.1c0-.14-.14,0-.18.24h0l0,0c0-.21-.08-.22-.12-.13a.11.11,0,0,0-.07,0l-.35.11h0s0-.08-.08-.08,0,0,0,0-.14,0-.2.13h0l-.05-.06v-.1s-.08.1-.12.06v-.09c0,.11-.05,0,0-.2,0,.06,0,.09-.05.15,0-.27-.18-.09-.23.06,0,0-.09-.09-.14-.1s-.11,0-.12.27H2.51v.26h0v.51h0v.1c.06,0,.11-.1.17-.08s.13.17.2.13H3a.76.76,0,0,1,.26,0s.09.09.14,0,0,0,0,0a.56.56,0,0,0,.26-.1h0v.06c.07.3.12.35.22.32s.46.28.69-.14l.12-.22h.36s0,.08.06,0c0,.55.21.43.27.3v-.1c.07,0,.22-.13.27,0,0-.1.05-.15.08-.26h.08c0,.16,0,.39.08.48,0-.39.12-.4.17-.39s.06,0,.09.06v.07s0,0,.08,0v0c0,.06.08,0,.09-.25h0c0,.11.07.27.13.28s.11-.14.16-.18a.16.16,0,0,0,.08-.1H7c.09.17.18.1.28.1s.12.07.17-.09h.76Zm-5.07-.06H3.1v0ZM3,12.51H3Z"/><path class="cls-2" d="M10.87,5.64l-.08-.12.09-.1c.14-.17,0-.13-.14-.15l-.13,0-.28-.45c.05-.06.14-.14.14-.17s-.14,0-.18,0c-.25-.06.19-.52-.1-.54A.57.57,0,0,1,9.81,4L9.74,3.9l-.25-.38,0-.13c0-.14-.16-.13-.24-.18l0,0a.07.07,0,0,1,0-.06c0-.05.1-.16.07-.18s-.09,0-.12,0a.15.15,0,0,0,0-.07c0-.07.12-.15,0-.17a.89.89,0,0,1-.16.09h0a1.83,1.83,0,0,1,.13-.16l-.11,0c.15-.16.17-.27-.05-.19a.07.07,0,0,0,0,0s-.15,0-.24,0h0c0-.07,0-.12.23-.3l-.09,0C9,2,8.86,2,8.6,2.13h0V2.06c.15-.16.14-.2,0-.19a.09.09,0,0,0,0-.07,2.26,2.26,0,0,1-.29-.25l0,0s0-.09,0-.11a.08.08,0,0,0-.07,0c0-.08-.07-.14-.22-.12H8l0-.09.09-.05c-.06,0-.13,0-.12-.07S8.08,1,8.09,1,8,1,8.23.86a.88.88,0,0,1-.15.05c.2-.17,0-.21-.19-.17a.57.57,0,0,0,0-.18c0-.09-.07-.11-.3,0L7.53.5,7.32.64h0l0,0L6.9.92h0L6.82,1C6.87,1,7,1,7,1.09s-.06.21,0,.25L7,1.4c0,.08.12.14.15.23s0,.14.08.13h.05a.65.65,0,0,0,.22.17l0,.05,0,0c-.21.23-.22.29-.14.36s0,.58.52.54h.26l.21.32s0,.08,0,.07c-.45.31-.23.42-.09.41l.09-.05c.06.05.24.13.13.26l.26-.07.05.08c-.11.11-.29.25-.35.33.35-.19.4-.11.43-.07s0,.08,0,.12l-.05,0s0,.06.05.08l0,0c0,.07.06,0,.26-.06l0,0c-.07.1-.18.22-.16.27s.18,0,.25.06h.12L9.53,5c-.09.18,0,.22.07.31s0,.14.18.1h0l.44.68ZM7.92,1.09l0-.05,0,0ZM7.86.84h0Z"/></g></svg>