<svg id="Layer_1" data-name="Layer 1" xmlns="http://www.w3.org/2000/svg" viewBox="0 0 20.67 32"><title>icon-location</title><path id="map_pin" data-name="map pin" d="M16,1.15a11.83,11.83,0,0,0-10.58.21A9.06,9.06,0,0,0,.52,6.89C-.86,11.25.73,14.36,2.59,18.3S8.89,31.86,10.2,32s2.49-2.77,4.36-6.29,5.47-10.86,6-14.81S19.61,2.74,16,1.15ZM19.89,11c-.28-.14-3.74-4.29-4-4.36s-.55.07-.34.28,4.08,4.5,4.08,4.77-.21,1.25-.35,1.11S16,8.27,15.74,8.27s-.42.42-.21.56A53.69,53.69,0,0,1,19,13.39c0,.2.07.63-.14.63s-3.11-4.15-3.46-4.09-.34.35-.21.56,3.32,4.08,3.32,4.08-.27,1-.48.9-2.63-3.6-3-3.6-.63.21-.35.56a37.94,37.94,0,0,1,3,3.8c-.07.21-.62,1.66-.76,1.52s-2.69-4.36-3-4.36-.35.07-.21.42,3,4,3,4.36-.14.9-.35.69-2.91-4.08-3.18-4.15-.56.07-.35.34,3.25,4.08,3.11,4.29-.13,1.11-.34.83a47,47,0,0,0-3-4.08c-.23,0-.62.21-.34.49a35.38,35.38,0,0,1,3,4.08c-.07.2-.34,1.1-.55.9s-2.35-3.32-2.63-3.39-.55.13-.35.48,2.77,3.25,2.7,3.46.07,1.11-.41.76-2.29-3-2.63-3-.56.27-.35.55,2.56,3.11,2.56,3.11-.27.76-.34.62A23.08,23.08,0,0,0,10.76,21c-.34-.11-.49.14-.42.35s2.49,3,2.49,3.25-.07,1.38-.41,1a19.4,19.4,0,0,0-2.29-2.42c-.2.06-.48.06-.27.41a27.32,27.32,0,0,1,2.07,2.49c-.07.28-.28.69-.41.62s-1.59-2.07-1.87-2-.35.14-.28.41,1.8,1.94,1.73,2.15-.21.62-.41.34A12,12,0,0,0,9.16,26c-.13,0-.55.21-.34.42s1.73,1.86,1.66,2.07-.49,1-.76.69S5.08,21,3.08,17.16-.17,10.72.66,7.82a8.15,8.15,0,0,1,3.18-4.7,11,11,0,0,1,6.78-2,12,12,0,0,1,5,1.18c.41.27.27.48.41.62s2.63,3,2.84,3.11.41,1.38.14,1.11-3.74-4.5-4.29-4.57-.55.42-.35.56,4.64,4.56,4.91,5,.35,1.93.07,1.45a39.23,39.23,0,0,0-4.08-4.84.32.32,0,0,0-.34.55c.28.14,4.28,4.84,4.49,5.19.54-.06.67.63.47.49ZM3.7,4.82C3,5,1.63,7,1.42,8.76s.41,3.46.76,3.6c.14.07.48.13.55-.35S2,9.66,2.11,8.62A6.38,6.38,0,0,1,4,5.44c.41-.21.48-.76-.28-.62Zm4.5.62a2.81,2.81,0,0,0-.52,4l0,0a3.41,3.41,0,0,0,4,.55,3.19,3.19,0,0,0,.55-3.94,2.81,2.81,0,0,0-3.91-.73l-.15.12Zm2.21,4.08C9.41,9.8,9,9,8.82,8.07s.41-1.11,1-1.39a1.54,1.54,0,0,1,2,.78l0,0a2,2,0,0,1-1.48,2Z"/></svg>