<svg id="Layer_1" data-name="Layer 1" xmlns="http://www.w3.org/2000/svg" viewBox="0 0 51.99 43.42"><title>icon-twitter</title><path id="twitter" d="M50.49,9.55a7.93,7.93,0,0,0,.81-1.84,2.37,2.37,0,0,0-.23-1.84c-.34-.35-1.73.23-2.88.57S46,7,44.85,7.13c0,0-1.38-4.14-3.68-5.75a9.47,9.47,0,0,0-7.72-1c-2.54.61-5.64,2.19-7,3.92a24.73,24.73,0,0,0-3.11,6.44c-.46,1.39-1.26,3.69-2.3,3.92s-2.76-.46-4.38-1.5a89.21,89.21,0,0,1-7.59-6.1C7.07,5.22,4.23,2,3.31,2.22s-2,3.57-2,6,2.07,4.72,2.07,4.72a9.84,9.84,0,0,0,.46,7,8.26,8.26,0,0,0,2.65,2.77,7.58,7.58,0,0,0,.23,3.57c.35,1.15,2.42,2.65,2.42,2.65A10,10,0,0,1,6,30.42c-1.84.58-5.52,0-5.87,0s0,5,0,5.64a2.16,2.16,0,0,0,1.15,1.73A53.56,53.56,0,0,0,14,42.63,24.25,24.25,0,0,0,30.67,41c4.15-1.84,8.64-7.36,11.63-11.85a53,53,0,0,0,4.86-11s1-.58,2.64-1.73A6.38,6.38,0,0,0,52,12.09,4.64,4.64,0,0,0,50.49,9.55ZM47,12.19c.46,0,2.42-1.15,2.65-.92s-.58,1.73-2,2.53A6.53,6.53,0,0,1,44.93,15c-.23-.11-1.27-2-1.38-2s-.69.46-.58.69,1.27,1.72,1.15,2-.23.35-.34.23a28,28,0,0,0-1.5-2.53c-.23-.12-.69.58-.58.92a23.19,23.19,0,0,1,1.62,2.42c0,.35-.35,1.61-.46,1.38a26.1,26.1,0,0,0-2.08-3.45c-.23,0-.57.8-.46,1a37.76,37.76,0,0,1,2.25,3.58c0,.35-.58,1.62-.81,1.39s-1.95-4.15-2.18-4.15-.69.69-.69.81,2.3,4,2.41,4.37-.46,2-.69,1.84-2.07-4.83-2.3-4.83-.58.69-.46.92,2.3,4.49,2.3,4.84-.34.92-.46.92S37.27,19.42,37,19.42s-.57.58-.34,1.27,2.53,5.07,2.65,5.41-.58,1.15-.69,1-2.54-5.64-2.77-5.64-.57.92-.34,1.26,2.76,4.84,2.76,5a4.25,4.25,0,0,1-.81,1.16c-.23-.12-2.3-5.19-2.53-5.19a.89.89,0,0,0-.46,1.16c.23.57,2.53,4.49,2.42,4.72s-.69,1.15-.81.92a58.86,58.86,0,0,0-2.65-5.41c-.23,0-.92.57-.69,1s2.77,5.07,2.65,5.18a12.55,12.55,0,0,1-1.15,1.27c-.11-.12-2.65-5.41-2.88-5.3s-.69.46-.46.92a55.92,55.92,0,0,1,2.65,5.07c-.11.23-.69.69-.92.58s-2.76-5.42-3-5.42-.81.81-.7,1,3,4.61,2.88,4.84-1,.92-1.15.8-2.3-4.49-2.65-4.49-.8.69-.57.92,2.42,3.92,2.42,3.92-1,.69-1.27.46-2-4.26-2.07-4.26-.92.46-.58.92a23.76,23.76,0,0,1,2,3.68c-.23.12-.69.46-.92.23s-2-4.26-2.19-4.26-.92.35-.69.58a27.22,27.22,0,0,1,2,4.14c-.12.12-1.27.47-1.39.24a34.24,34.24,0,0,0-1.95-3.57c-.23,0-.58.46-.46.57A26.58,26.58,0,0,1,24,37.21a3,3,0,0,1-1.38.12c-.12-.12-1.62-3.57-1.85-3.69s-.8.46-.69.69,1.5,2.88,1.27,3-1.15.11-1.27-.12a25.46,25.46,0,0,0-1.7-3,.46.46,0,0,0-.58.31.5.5,0,0,0,0,.27,31.76,31.76,0,0,1,1.38,2.88,5.3,5.3,0,0,1-1.38-.12c-.12-.11-1.27-3-1.5-3s-.92-.12-.81.23,1.38,2.53,1.15,2.53A4.46,4.46,0,0,1,15,36.83C14.8,36.6,13.77,34,13.54,34s-.69.23-.69.58,1.15,2.18.8,2.18-1.5-.23-1.5-.46a11.64,11.64,0,0,0-1.38-2.64c-.23-.12-.92,0-.69.34a8.31,8.31,0,0,1,.81,2,27.42,27.42,0,0,1-5.07-2c-2.19-1.15-4.26-3-4-3A14.21,14.21,0,0,0,7,30.37a34.88,34.88,0,0,0,4.15-1.72.9.9,0,0,0-.35-.81c-.11,0-2.53-.81-3-2.53s-.12-3.69-.46-3.92a5.48,5.48,0,0,1-2.76-3.45c-.81-2.54.11-6-.12-6.22S4,11,3.77,11.14,2.5,9.3,2.5,7.34A12.38,12.38,0,0,1,3.42,3C3.54,3,8.84,8,11.6,10.34s6,4.72,7.83,5.06S22.08,15.75,23,14s1.84-6.21,3.22-8.29A11.83,11.83,0,0,1,33.94.78c3.56-.57,6.33.46,7.71,2.42S43.15,7.81,43.49,8s1.84.11,3.8-.46a11,11,0,0,1,2.65-.81A5.16,5.16,0,0,1,48.33,9c-1.15,1-2.08,1.72-2.08,2.18S46.57,12.19,47,12.19ZM4.9,8.74c-.58-.46-.34-1.5-.23-2.19s-1-.58-1.27.23a2.57,2.57,0,0,0,.69,2.53c.7.58,1.27.58,1.5.46s-.23-.58-.69-1ZM21.13,17c-.46-.12-1.49.57-2.64-.12s-2.19-2-2.77-1.73c-.34.12-.69.58.12,1.39a5.92,5.92,0,0,0,3.68,1.49c1.38,0,2.05-.87,1.61-1Zm8-10.25c-.35-.12-1.5.69-2.07,1.73s-1.5,3-.81,3.34c.46.23.69-.12,1-1.16a10.56,10.56,0,0,1,1.38-2.87c.5-.34.84-.92.5-1Z"/></svg>