<svg id="Layer_1" data-name="Layer 1" xmlns="http://www.w3.org/2000/svg" viewBox="0 0 47.03 46.92"><title>icon-instgram</title><path id="instagram" d="M46.75,23.68c-.11-5.24-.33-12.82-.62-14S42.2,3.22,40.94,2.08A8.73,8.73,0,0,0,35.3.37C33.17.29,16.16-.34,11.48.25A12.52,12.52,0,0,0,3.74,3.72c-1.05,1-2.39,1.92-3,3.74S.12,14.54,0,20.09s0,12,.05,14.64a11.86,11.86,0,0,0,2.61,7,15.26,15.26,0,0,0,5.75,4.1c1.62.57,2.3.85,6.89.94s7.84.25,14.25.14,8.79-.41,11.58-1.73,4.86-4.7,5.53-6.53S46.86,29,46.75,23.68Zm-12.47,20c-.1.09-1,.31-1,.09a29.11,29.11,0,0,1-1.45-3c0-.19,1.15-.19,1.25-.1a19.87,19.87,0,0,1,1.23,3ZM10.5,25.7c.1,1.15.78,4.87,3.27,6.88a12.16,12.16,0,0,0,6.79,3,14.08,14.08,0,0,0,6.78-1.19c1.62-.87,4.11-2.59,5-4.61a18.11,18.11,0,0,0,1.41-5.93A11.51,11.51,0,0,1,34,21c.1-.09,6.41-.41,6.61-.08a116.2,116.2,0,0,1,.13,12c-.19,2.6-.17,4.7-1.13,5.37s-1,1.06-4,1.25-7.46.69-12.15.71-10.14-.07-12-.22S8,39.2,7.74,38.45s-.39-6.19-.5-9.56a39,39,0,0,1,.17-7.08,16.73,16.73,0,0,1,3.33-1,32.9,32.9,0,0,0-.24,4.86ZM35.14,43.51a25.7,25.7,0,0,1-1.35-2.86c0-.09,1-.09,1.15-.1A13.51,13.51,0,0,1,36.48,43,3.85,3.85,0,0,1,35.14,43.51Zm3-.87a1.8,1.8,0,0,1-.86.29c-.08,0-1.25-2.39-1.35-2.48s1-.1,1,0c.29.19,1.35,2.11,1.16,2.2Zm.76-.39a19.36,19.36,0,0,1-1-1.76c0-.09.89-.5.93-.38a9.35,9.35,0,0,1,1,1.53s-.66.61-.85.61Zm1.53-1.34a11.69,11.69,0,0,1-.87-1.33,6,6,0,0,1,.84-.67,8.93,8.93,0,0,1,.77.86C41.15,39.86,40.58,41,40.39,40.91Zm1.24-2c-.2.07-.77-.86-.77-.95s.09-1.25.28-1.25a12.48,12.48,0,0,1,1.15,1.15c.1.09-.47,1-.66,1Zm1.63-13.6c-.17,5.07-.08,7.55-.15,9.08a5.88,5.88,0,0,1-.58,2.4,6.4,6.4,0,0,1-1.05-1.53c0-.2.09-4.12.17-7.18s.07-8.23,0-9.19-.44-1.32-1-1.52a64.14,64.14,0,0,0-6.79-.17c-2.11,0-2.67,0-2.86.2a4,4,0,0,0-.1,1.53l.41,1.23c0,.09.21,5-.87,6.91S28.59,31,25.11,32.24,20,33.79,17,32.74a7.31,7.31,0,0,1-4.79-4.39,20.34,20.34,0,0,1-.6-6.59c.19-2,.27-2.39.66-2.78s.68-.57.58-.86-.39-.39-1.44-.67a42.42,42.42,0,0,0-4.78-.27c-1-.09-1.63.1-1.91,1s.31,9.18.52,13.11.39,6,1.38,7.35a4,4,0,0,0,3.16,2,40.65,40.65,0,0,0,6.79.46c2.78-.1,9.38-.32,11-.32s3.63-.15,3.73-.11a15.92,15.92,0,0,1,1.35,3,1.91,1.91,0,0,1-1,.08c-.09-.09-1.24-2.58-1.53-2.58s-.77.19-.77.38,1.35,2.2,1.26,2.2a7.7,7.7,0,0,1-1.44,0c-.1-.1-1-2.39-1.06-2.39s-.57,0-.66.22.86,2.1.77,2.1-.86.09-1-.09a13.88,13.88,0,0,0-1.06-2.11c-.19,0-.57.19-.57.29a17.56,17.56,0,0,1,.58,1.91,5.23,5.23,0,0,1-1.25,0c-.09-.09-.54-1.63-.77-1.62s-.75.19-.66.38.67,1.34.45,1.35-5.45.31-9.86.11-6.12.2-7.75-.65A11.34,11.34,0,0,1,1.8,38.42c-.67-1.62-1-6.11-.79-9.37s-.22-7.85.06-12.34S.94,6.57,4.38,4.17a16,16,0,0,1,4-2.31C9.62,1.45,11.74,1,12,1.28S12.59,3,12.89,3s.76-.1.67-.39-.68-1.33-.45-1.35a2,2,0,0,1,.77,0A12.79,12.79,0,0,1,15.8,4.12c.35,1.07.35,1.07.58,1a.43.43,0,0,0,.38-.47h0q-.42-1.32-1-2.58C15.31,1.36,15,1,15.22,1s.57-.29.86,0a24.63,24.63,0,0,1,2,3c.5.89.38,1.15.58,1.14s.47-.09.38-.57A24.28,24.28,0,0,0,17.92,2c-.49-.89-.77-1.24-.67-1.24s1.24-.11,1.43.09S20.41,4.1,21,5.25s.86,2.1,1.06,2.1.37-.12.29-.29-1.73-3.72-2.12-4.87S19.63.76,19.82.76s.87-.2,1.06,0,1.44,2.87,2.4,4.68a33.63,33.63,0,0,0,1.84,3.35c.09,0,.28-.19.18-.49S23.38,3.91,23,3.14,21.93.75,22.13.75s.95-.09,1.08.08A42.19,42.19,0,0,1,25.91,6,13.09,13.09,0,0,0,27,8.56a.34.34,0,0,0,.19-.28A43.67,43.67,0,0,0,25.33,3.5C24.61,2.08,24.17,1,24.37,1s1.14-.1,1.24.09,2.11,4.3,2.59,5.35a8.18,8.18,0,0,0,.87,1.72c.09,0,.28-.2.19-.58s-1.64-4.49-2.13-5.35S26.56,1,26.73,1s.75-.1.86.18,2.79,6.22,2.88,6.22a.3.3,0,0,0,.29-.29c0-.19-1.64-4.3-1.93-5.06S28.48,1,28.64,1s1.15,0,1.15.1a34.57,34.57,0,0,0,2,4.1c.19,0,.29-.09.29-.38a32.92,32.92,0,0,0-1.25-3.16c-.09-.28-.29-.47-.09-.57a5.71,5.71,0,0,1,1.34.1,11.33,11.33,0,0,0,1.14,2c.19,0,.68-.29.49-.67S33,1,33.14,1s.75-.1.86.09,1.15,2.48,1.43,2.49a.45.45,0,0,0,.49-.39A22.16,22.16,0,0,1,34.85,1c.09,0,1-.09,1.15.09s1,2.1,1.35,2.1.57-.39.47-.48S37,1.09,37.15,1.09s.48-.1.67.19,1.45,3.25,1.54,3.25.58-.39.48-.58-1.16-2.58-1-2.67A1.07,1.07,0,0,1,40,1.84c.38.58.58,1.34.77,1.34s.58-.29.68-.29a6.44,6.44,0,0,1,1.82,4.59C43.27,10.48,43.39,20.24,43.26,25.3ZM9.14,3.78A9.33,9.33,0,0,0,5.47,5.4,7,7,0,0,0,3.08,9a8.71,8.71,0,0,0,.11,2.39c.19.19.66.09.86,0s.09-.77,0-1.35a4.12,4.12,0,0,1,1-2.58A9,9,0,0,1,8,5.1a10.62,10.62,0,0,0,1.73-.57c.09-.17,0-.64-.59-.73Zm21.58,9.13c-.29-.09-.1-1.91-.2-2.1s-1.05-.28-1.08-.08a17.55,17.55,0,0,0,0,3.16c.19.28,1.82.38,2.23.36s.29-.57.19-.86S31,13,30.72,12.91ZM37.1,5a29.51,29.51,0,0,0-5.06.2c-.5.17-.48,1.54-.38,2.78A31.32,31.32,0,0,0,32,12c.48.57,5.45.37,6.12.18s.37-4.4.3-5.46A1.9,1.9,0,0,0,37.12,5Zm.12,6.13A19.87,19.87,0,0,1,33.77,11a14,14,0,0,1,0-3.54,11.57,11.57,0,0,1,3.62-.15c.22.24.1,3.79-.15,3.78ZM19.05,15.24c.49-.09.29-.76,0-.86a4.49,4.49,0,0,0-2.58,1.06,6.36,6.36,0,0,0-2.38,2.68c-.19.58-.09,1.35.1,1.45a6.56,6.56,0,0,0,.76.09c.29,0,.29-1.44,1.15-2.49a5.62,5.62,0,0,1,3-1.92Zm2.39.27a6.25,6.25,0,0,0-5.06,2.31c-1.53,1.91-1.51,6.12-.93,7.93S19.1,29,20.24,29.18s5.55-.59,6.78-2.69.84-5.36.18-7.44-3.05-3.25-5.73-3.52Zm4.82,10.6A7.52,7.52,0,0,1,21,28.33c-2.13-.09-4-1.15-3.74-3.54a6.31,6.31,0,0,1,2.38-4.31,6.82,6.82,0,0,1,3.91-1.83c1.44,0,2.21-.1,2.88,1.43s.92,4.89-.14,6.05Z"/></svg>