<svg id="Layer_1" data-name="Layer 1" xmlns="http://www.w3.org/2000/svg" viewBox="0 0 54.53 47.32"><title>icon-linkedin</title><path id="linked_in" data-name="linked in" d="M4.41,14.15c1.63.89,4.69.72,6.72.49s4.95-2.79,4.83-7a7.61,7.61,0,0,0-3.19-6.19C9-1.38,4,.66,3,1.37S-.78,4.77.21,8.12,2.42,13.05,4.41,14.15ZM2.36,3.51c.73-1.14,2.37-2.35,5.56-2.08a6.11,6.11,0,0,1,5.17,2.88A4.06,4.06,0,0,1,14,6.67S11.78,3.28,11.44,3.4s-.75.71-.5,1,2.79,3.25,2.69,3.48-.18.89-.31.68a25.11,25.11,0,0,0-2.45-3.27.79.79,0,0,0-.41.92c.25.43,2.44,3,2.34,3.16s-.43.69-.55.47S10.38,6.78,10,6.91a.58.58,0,0,0-.39.72.8.8,0,0,0,.08.16c.25.43,2.06,2.53,2,2.64s-.43.47-.55.36A23.77,23.77,0,0,0,9,8.28c-.23,0-.76.59-.41.91a10.15,10.15,0,0,1,1.71,2.1,3.3,3.3,0,0,1-1.46.3c-.23-.08-1.12-1.7-1.34-1.68s-.77.48-.65.83S8,11.88,7.68,12a10,10,0,0,1-4.6-.94C1.8,10.22.24,6.69,2.36,3.51ZM4.75,9.75A.62.62,0,0,0,5,9.19C4.93,9,4.14,8.47,4,8a3,3,0,0,1,.54-2.45c.64-.7.73-1.14.27-1.33S3.12,4.78,3,6.34a4.57,4.57,0,0,0,.64,3.25.8.8,0,0,0,1.1.15ZM8,19.78A16.81,16.81,0,0,0,4,19.89c-.45.15-.22,4.17-.2,4.63s.07,1.08.41,1.2c0,0,.68.07.78,0s.11-4.2.1-4.4,3.16-.28,3.27-.41A.63.63,0,0,0,8,19.77ZM15.39,17c-1.15-.41-7-.16-9.09,0s-4.45.09-4.62.56S2,25.83,2.2,31.1s.29,13.16.42,13.49a40.42,40.42,0,0,0,3.89,2.52c.25.18,1,.33,2.61.08s7.49-.2,8.15-.32a2.5,2.5,0,0,0,1.64-1c.19-.42.19-2.87,0-8.36s.23-12.73-.07-15.59-2.34-4.74-3.49-5Zm.38,6.79c-.24-.09-2-2.52-2.17-2.19s-.31.56.07,1.09,2.08,2.73,2.21,3.05a8.32,8.32,0,0,1,.1,1.65c-.1,0-2.17-2.88-2.43-2.72a1.41,1.41,0,0,0-.41.79c0,.1,2.67,3.15,2.82,3.69s.07,1.31-.05,1.22-2.12-3.52-2.45-3.39a1,1,0,0,0-.27,1.23c.24.42,2.67,3.25,2.68,3.48s.09,1.52,0,1.43a37.55,37.55,0,0,0-2.46-3.39c-.33,0-.52.8-.39,1.12s3,3.68,2.94,4,.11,1.86-.12,1.76S13.2,32.67,13,32.68s-.53.68-.36,1,3.21,4.66,3.23,5,.17,2.53-.09,2.42-3-4.78-3.45-4.85-.41.91-.39,1.11,3.68,5,3.69,5.18,0,.55-.3.67-.44.14-.45,0a31.15,31.15,0,0,0-3.2-4.3c-.47-.16-.66.48-.65.59s3.28,3.77,2.95,4-1.11.39-1.24.17a45.42,45.42,0,0,0-3.18-4.21c-.23,0-.86.82-.63.91a24.88,24.88,0,0,1,2.57,3.38c-.23,0-1,.28-1.24.17s-2.34-3.16-2.57-3.14-.53.47-.53.47S9.18,43.8,9,43.81s-1,.17-1.08.08a18.67,18.67,0,0,0-1.72-2.33c-.24-.08-.66.48-.65.59S7.08,43.94,6.73,44s-2,0-2.13,0a3,3,0,0,1-.85-1.16C3.6,42.27,2.62,18.48,2.82,18c.1-.11,5.09-.17,7.7-.21s4.29-.35,4.66.07a5.66,5.66,0,0,1,.48,2.5c-.12-.11-1.25-2-1.58-1.89a1,1,0,0,0-.39,1.12c.24.32,2,2.54,2.09,2.86.13.58.17,1.23,0,1.23Zm37.82.41a9.78,9.78,0,0,0-5.42-7.5c-2.81-1.6-7.59-1.77-10.72-.93S31.09,19.6,31,19.49s-.14-2.41-.28-2.95-1.17-.48-3.89-.3-6.34.35-6.44.58c-.07.66.84,12.7,1.07,17.08s.28,9.1.55,9.73,2.19,2.52,2.86,2.47,7.35-.52,8.36-.68,1.07-1.27,1-2.59-.67-12-.4-15.36a4.43,4.43,0,0,1,4.44-4.42,3.94,3.94,0,0,1,.77.07c2.29.42,2.76,2.81,3.38,5.74s.18,11.31.23,12.19.31,3.61.88,3.68,8.26-.46,9.4-.53,1.57-.31,1.64-1.08-.56-15.52-1-19Zm-4.3-1.74a45.58,45.58,0,0,1,3,4.34c0,.33.07,1.08-.06,1.1s-2-3.07-2.33-3.05-.75.7-.5.88a38.32,38.32,0,0,1,2.86,3.92c.05.24.23,2,.1,1.75a40.54,40.54,0,0,0-2.7-3.69c-.22,0-.42.68-.41.92s3,4.21,3,4.33.14,2.63-.08,2.64a8.74,8.74,0,0,1-1.85-2.64c-.75-1.39-.89-1.82-1.22-1.69s-.16,1.22,0,1.43,3,4.34,3,4.57.22,2.07,0,2-3-4.87-3.18-4.94-.65.83-.51.88,3.2,4.54,3.24,5.2.06,1-.17,1-.33-.12-.47-.3-3-4.22-3.08-4.34-.52.8-.27,1a30.38,30.38,0,0,1,2.58,3.49l-1.25.06a29.7,29.7,0,0,0-2.42-2.82c-.11,0-.65.69-.53.79s1.82,2,1.6,2.1a1.7,1.7,0,0,1-1,.07c-.13-.11-1.36-2-1.71-2s-.53.58-.41.69,1.21,1.48,1,1.58-1.23.19-1.24.07.22-3.65.23-6.7a58,58,0,0,0-1-8.29c-.45-2.05-.79-4-2.3-4.7a6.69,6.69,0,0,0-6.12.34A8.94,8.94,0,0,0,32,25.48a1.54,1.54,0,0,0-.31.88s-1.12-1.69-1.55-1.23-.41.8-.26,1a9.12,9.12,0,0,1,1.43,1.35,14.71,14.71,0,0,1,.12,2.3c-.09,0-1.61-2.44-1.82-2.32s-.29,1.11-.28,1.23a27.84,27.84,0,0,1,1.85,2.64,6.51,6.51,0,0,1,0,1.65A35.41,35.41,0,0,0,29,30c-.22.11-.53.68-.41.92s2.95,3.89,2.95,4,.13,2.29-.1,2.31-2.49-4.06-2.72-4-.65.83-.51,1,3.2,4.3,3.33,4.64a9.38,9.38,0,0,1,.17,2.53c-.09,0-3.37-5.63-3.49-5.62a2.81,2.81,0,0,0-.63.91c0,.08,3.46,5.08,3.48,5.41a.49.49,0,0,1-.11.33s-.22.12-.34,0-2.71-3.8-2.94-3.9-.77.59-.65.83,2.78,3,2.68,3.26a3,3,0,0,1-1.36.07A32.8,32.8,0,0,0,26,39.66c-.23,0-.65.83-.64.92s1.83,2.2,1.84,2.31-1,.18-1,.06-1.72-2.32-2.06-2.31-.53.81-.41.92,1.46,1.68,1.23,1.68S23,43.46,23,43s-.14-8.35-.28-11-1.19-13.73-1-14.37c0-.1,5.31-.26,6.23-.35a4.47,4.47,0,0,1,1.59,0c.12.1.23,4.32.48,4.48s1.08-.68,1.3-.95a19,19,0,0,1,4.06-2.75,15.35,15.35,0,0,1,8.19-1.57c1.95.34,4,.75,5.5,2.45a20.06,20.06,0,0,1,2.82,4,3.25,3.25,0,0,1,.22,1.75c-.11,0-1.88-3.72-2.36-3.61s-.66,1.13-.54,1.22ZM27.51,18.59a22.52,22.52,0,0,0-3.85.1c-.23,0-.32.45-.31.57s-.09.44.14.65a15,15,0,0,0,3.07-.06c.22,0,.41,1.29.43,1.63s1,.05,1.13,0,.1-.44,0-1a2.29,2.29,0,0,0-.7-1.9Zm11.07,1a.56.56,0,0,0-.09.8.51.51,0,0,0,.26.18,14.75,14.75,0,0,1,3.93,1.32c1.18.8,1.32,3.33,1.44,3.68s.82.4,1.13.05.11-2.21-1.25-4.21-5.25-1.95-5.47-1.84Z"/></svg>