<svg id="Layer_1" data-name="Layer 1" xmlns="http://www.w3.org/2000/svg" viewBox="0 0 29.55 32.05"><title>icon-phone</title><path id="phone" d="M0,8.26C0,10,.84,13,2.63,16.47a29.2,29.2,0,0,0,7.69,9.61c3.53,2.76,5.19,4.36,8.53,4.56a19.67,19.67,0,0,0,5.25-.26s1.61,1.67,1.93,1.67,1.34-.45,1.47-.9a8.91,8.91,0,0,0,.26-2c-.07-.19-.64-.51-.64-.51a8.69,8.69,0,0,0,1.73-1.8,17.41,17.41,0,0,0,.7-3.59c0-.51-1.86-3.14-3.52-5.06s-3.4-3.46-4.55-3.27-2.31,1.15-3.72,2.63-2,2.11-2.82,2.31-1.41-.07-2.5-.84a8.12,8.12,0,0,1-2.63-2.95,1.52,1.52,0,0,1,.45-1.66,25,25,0,0,0,3.24-1.7,4.23,4.23,0,0,0,1.86-2.88,3.29,3.29,0,0,0-1-2.63C13.91,6.49,11.09,3.48,9.68,2S7.18-.11,6.09,0A6.54,6.54,0,0,0,1.86,2.7,10.89,10.89,0,0,0,0,8.26ZM3.46,6C3.27,6,1,8.33.71,8.33s-.07-.64.13-.9,2.82-2.31,2.82-2.5,0-.38-.52-.25S.9,6.79.77,6.92.52,6.47.71,6.28s2.56-2.37,2.75-2.5,0-.32-.25-.32a11.67,11.67,0,0,0-2,1.92,3,3,0,0,1,.45-1.15,10.34,10.34,0,0,1,2-1.54c.26-.19.19-.26-.06-.51s-1,.64-1.16.7-.06-.06.13-.38S3,1.85,4.25,1.15A3.29,3.29,0,0,1,7.14.77a36.66,36.66,0,0,1,4.93,4.8c1.41,1.67,2.31,2.57,2.31,3.21a3.75,3.75,0,0,1-1.79,2.31,10.71,10.71,0,0,1-2.57,1,6.12,6.12,0,0,0-2.11,1.15c-.45.45-.26,1.22.13,2.18a12.39,12.39,0,0,0,3.39,3.78,4.7,4.7,0,0,0,2.89,1.28c1,.2,1.6-.32,3.2-1.92s3-2.76,3.78-2.95,3.08,2,3.72,2.89,3.59,4.87,3.66,5.12-.52,1.09-1,1.8c-.25.45-2.05,2.24-2.18,2.56s1,1.35,1.29,1.54-.45.45-.77.64-.26,0-.71-.13-1.09-1.34-1.47-1.66-.64.06-1,.19a6.7,6.7,0,0,1-2,0c-.12-.13,1.35-.9,1.67-1.09s.07-.45-.19-.51A19.69,19.69,0,0,0,20,28.56a2.27,2.27,0,0,1-.9,0c-.26-.06,1.73-1.47,1.92-1.67s-.12-.38-.32-.38a27.48,27.48,0,0,1-2.3,1.86,1.36,1.36,0,0,1-1.09-.32c-.09-.19,2.24-1.48,2.43-1.61s-.19-.38-.38-.38a25.63,25.63,0,0,0-2.76,1.86c-.13.13-.83-.13-1-.39s2.37-1.73,2.5-1.85.13-.33-.19-.45-2.5,1.92-2.76,1.92-.58-.13-.58-.26a19.89,19.89,0,0,1,2.37-1.79c.13-.13-.06-.45-.32-.51s-2.5,2-2.69,2a.77.77,0,0,1-.57-.25c-.19-.19,2.17-1.67,2.3-1.8a.32.32,0,0,0-.07-.44.36.36,0,0,0-.18-.07c-.32,0-2.44,2-2.7,2s-.83-.51-.89-.71a16.36,16.36,0,0,1,2.43-1.79c.26-.19-.19-.26-.38-.32a24.53,24.53,0,0,0-2.44,1.86c-.13.06-.32-.19-.45-.39s2.12-1.73,2.18-1.85.07-.33-.25-.39a25.89,25.89,0,0,0-2.5,1.92c-.2.13-.58-.45-.58-.64a24.51,24.51,0,0,1,2-1.79c.08-.13-.13-.39-.26-.45s-2,1.73-2.24,1.79-.39-.25-.45-.44,2-1.61,2.11-1.8-.06-.26-.32-.38-2,1.6-2.18,1.73-.19-.26-.38-.52,1.79-1.47,2-1.6-.19-.38-.38-.45a18.84,18.84,0,0,0-2.06,1.48c-.25.12-.25-.26-.44-.45s1.79-1.54,2-1.67,0-.45-.19-.51a17.72,17.72,0,0,0-2.18,1.67c-.19.12-.45-.52-.51-.65s1.79-1.6,1.92-1.79,0-.32-.19-.39a15.1,15.1,0,0,0-2.24,1.74c-.07.12-.39-.58-.39-.65s1.92-1.34,2.12-1.47-.07-.45-.26-.51A19.63,19.63,0,0,0,5,18.13c-.07.07-.39-.32-.45-.51A24.1,24.1,0,0,1,7.07,16c.13-.07,0-.45-.19-.52a15.84,15.84,0,0,0-2.57,1.61c-.13.06-.32-.52-.38-.64a18.12,18.12,0,0,1,2-1.48.25.25,0,0,0,0-.36.19.19,0,0,0-.14-.09A10.94,10.94,0,0,0,3.56,16c-.13.12-.38-.52-.32-.64A20.36,20.36,0,0,1,5.42,13.9a.37.37,0,0,0-.06-.53l-.07,0C5,13.2,3.11,14.86,3,14.93s-.32-.45-.32-.58,1.92-1.41,2.11-1.6.19-.58,0-.64a14.37,14.37,0,0,0-2.44,1.73c-.19.19-.44-.58-.38-.71s2.37-1.66,2.56-1.86.07-.32-.12-.57-2.5,1.73-2.7,1.79-.32-.38-.25-.64,2.63-2,2.88-2.31,0-.38-.19-.45a18.38,18.38,0,0,0-2.76,2.12c-.13.19-.32-.32-.25-.51A28.83,28.83,0,0,1,3.75,8.52c.2-.13.39-.32-.06-.52S1.25,9.86.93,10.06s-.12-.71-.06-.9c.9-.81,1.84-1.59,2.82-2.31C4,6.53,3.78,6.28,3.5,6Zm21.8,15.77a9.35,9.35,0,0,1,1.34,1.67.86.86,0,0,1,0,1.09c-.25.32-.25.44-.06.64s.51-.07.7-.32a1.87,1.87,0,0,0,.2-1.48,9.34,9.34,0,0,0-1.86-2.11C25.39,21.28,25.07,21.6,25.26,21.79ZM11.5,7.71C11.69,8,12.85,9,12.65,9.37s-.83.84-.89,1.09-.07.58.32.52,1.6-.9,1.41-1.73a10.09,10.09,0,0,0-1.6-1.86C11.5,7.11,11.35,7.43,11.5,7.71Z"/></svg>