<svg id="Layer_1" data-name="Layer 1" xmlns="http://www.w3.org/2000/svg" viewBox="0 0 42.39 42.64"><title>icon-close</title><path d="M42.13,21.52a23.6,23.6,0,0,0-.26-3.14,5.35,5.35,0,0,0,.14-.8,4.74,4.74,0,0,0-.31-2.11,18.63,18.63,0,0,0-1-2c-.36-.71-.69-1.14-1-1.7a20.9,20.9,0,0,0-7.65-8.1A3.64,3.64,0,0,0,31,2.55,7.59,7.59,0,0,0,29,2c-.47-.12-.92-.27-1.36-.42l-1.32-.41c-.86-.32-1.73-.52-2.6-.77A17,17,0,0,0,21,0,9.07,9.07,0,0,0,18.27.3,30.9,30.9,0,0,0,12.2,2.66c-.35.19-.72.35-1.06.55l-1,.64a20.68,20.68,0,0,0-6.76,6.88l-.57.75-.49.78a10.25,10.25,0,0,0-1.19,2.88c-.11.49-.18,1-.26,1.46l-.13.71L.68,18,.47,19.4a4.55,4.55,0,0,1-.13.89c-.06.3-.17.73-.27,1.15A7,7,0,0,0,0,22.65a7.78,7.78,0,0,0,.35,1.5,8.67,8.67,0,0,0,.13,1.27c0,.41,0,.81,0,1.22A5,5,0,0,0,.9,28.16c.16,0,.31.13.46.19l.11.22c0,.46.06,1,.09,1.4.16.17.33.32.49.47A4.72,4.72,0,0,0,4,33.92a6.13,6.13,0,0,0,2.58,2.44l.26.23c.34.4.66.75.92,1.12a3.62,3.62,0,0,1,.68,1.17l.55.16a5.37,5.37,0,0,0,1.8,1.22,3.46,3.46,0,0,0,2,.32h.08a6.68,6.68,0,0,0,.79.42,5,5,0,0,0,1.31.87,6.54,6.54,0,0,0,1.45.29,7.58,7.58,0,0,0,1.56.32A22.32,22.32,0,0,0,25.87,42l.71-.18.92-.12a6.55,6.55,0,0,0,.89-.27,5.68,5.68,0,0,0,1-.46,17.25,17.25,0,0,0,2.2-1.08,9,9,0,0,0,1.83-1.47h.06l1.09-.67c.08,0,.08.12.18.13.55-.63,1.17-1.26,1.81-1.89.08-.07.11.12.14.13.41-.79.83-1,1.09-.58.08-.25.37-.78.44-1.07a3.79,3.79,0,0,0,1.61-1.92c.13-.24.26-.5.38-.75a7.84,7.84,0,0,0,.27-.77,9,9,0,0,0,.34-1.26A15,15,0,0,0,42,26.84a5.94,5.94,0,0,0,.36-2c0-.45-.13-.69-.4-.77.12-.81.11-1.64.17-2.46h-.53a.17.17,0,0,1-.1,0h-1v.15h-.2v1.86a9.75,9.75,0,0,1-.21,1.71,14.33,14.33,0,0,0-.79,1.94c-.29.65-.47,1.36-.75,2-.19.41-.39.83-.62,1.3a18.72,18.72,0,0,1-3.19,4.32c-.71.64-1.6,1.26-2.25,1.92a2.61,2.61,0,0,0-.19.27,22.48,22.48,0,0,1-4.54,2.61c-.37.12-.72.29-1.09.37h-.36c-.83-.1-1.44-.11-2.11-.13a4.5,4.5,0,0,0-1.07.09l-1.31.08A16.46,16.46,0,0,1,15,38.91a42.16,42.16,0,0,1-6.17-3.15l-1.13-.71-1-.8a19.45,19.45,0,0,1-3.75-6.53,3.06,3.06,0,0,0-.29-1.19c.52-.25.43-1.34.33-2.54s-.27-2.57-.34-3.24c-.07-.06-.14,0-.21,0V19.39a10.51,10.51,0,0,1,.2-1.63,10.84,10.84,0,0,1,.4-1.5,3.63,3.63,0,0,1,.51-1c0-.53.06-1.15.08-1.61A18,18,0,0,1,4.49,12a12.9,12.9,0,0,0,1.78-1,1.92,1.92,0,0,1,.31-1.59A9.13,9.13,0,0,1,7.81,7.9c.36-.3.94-.78,1.52-1.19a.2.2,0,0,1,.15.07c.56-.28.94-.72,1.47-1a.29.29,0,0,1,0,.13c.83-.36,1.32-.9,1.37-1.41l.49-.23c1-.26,1.75-.15,2.74-.5a14.45,14.45,0,0,0,1.6-.57,12.49,12.49,0,0,1,1.68-.51c.65-.17,1.09-.2,1.51-.33a21.18,21.18,0,0,1,2.76,0c.46,0,.92.13,1.37.2a7.82,7.82,0,0,1,1.36.28,36.39,36.39,0,0,1,5.38,2.48c.23.14.48.29.73.46l.74.56c.25.19.51.35.76.51a5,5,0,0,0,.7.42h0A19.3,19.3,0,0,1,40.5,21.5ZM36.9,35.31a8,8,0,0,0,.91-1.11h.08A10.34,10.34,0,0,1,36.9,35.31Zm3-4.06h0l.07-.12Z"/><path d="M29.87,28.91l-.38-.39a1.31,1.31,0,0,0,.09-.28c.13-.47-.26-.4-.57-.47l-.37-.1-1.38-1.38c.06-.17.18-.4.13-.49s-.33,0-.47,0c-.73-.21-.23-1.51-1-1.63a2.36,2.36,0,0,1-1.16-.41c-.11-.08-.21-.18-.32-.27L23.26,22.3l-.09-.37c-.1-.42-.58-.41-.87-.59l-.17-.17v-.69c0-.08-.24,0-.34,0a.33.33,0,0,0-.11-.2c0-.21.1-.42-.17-.49a2.32,2.32,0,0,1-.3.22h0a1.41,1.41,0,0,1,.13-.45l-.24.1c.19-.44.08-.75-.39-.57a.25.25,0,0,0-.1-.15c-.13-.1-.39,0-.6,0h0a1.05,1.05,0,0,1,.19-.84l-.2.08c.08-.32-.35-.47-.85-.13h0a.25.25,0,0,0,0-.18c.18-.43.08-.55-.16-.56a.41.41,0,0,0-.17-.2c-.37-.25-.75-.52-1.12-.81l-.09-.09a.49.49,0,0,0-.11-.33.26.26,0,0,0-.19-.06.8.8,0,0,0-.77-.39h0a1.09,1.09,0,0,0-.07-.24,1.07,1.07,0,0,0,.14-.16.42.42,0,0,1-.41-.22c-.06-.16.12-.11.14-.14-.26.06-.2-.11.16-.43-.12.06-.24,0-.36.1.31-.47-.37-.62-.74-.55a1.48,1.48,0,0,0-.23-.53c-.19-.26-.32-.32-.73.07l-.3-.31-.37.38h0l-.06.07-.67.67h0l-.14.13c.21.15.46.19.59.37a.66.66,0,0,0,.38.75l.2.19a7,7,0,0,1,.73.71c.11.15.13.41.38.41h.11a4.24,4.24,0,0,0,.84.56l.16.15v.13c-.24.64-.18.83.14,1,.74.52.92,1.71,2.13,1.71h.67l1,1c0,.12,0,.21.12.2-.76.83,0,1.2.35,1.21.06,0,.1-.1.16-.15.22.18.81.44.7.82.22-.08.38-.08.58-.17l.25.25a6.63,6.63,0,0,0-.45.93c.64-.51.89-.27,1-.12s.1.23.18.34a.31.31,0,0,1-.09.11c0,.15.14.18.24.25h-.08c.05.2.26.18.63-.12l.07.07c0,.29-.17.62,0,.78s.52.1.72.2a.7.7,0,0,0,.35.06l.73.73c0,.51.35.65.64.93s.25.43.61.33h0L29,30ZM15.71,14.75l-.17-.18h0ZM15.23,14Z"/><path d="M13.87,30.19l.39-.38a1.52,1.52,0,0,0,.28.09c.48.13.4-.27.47-.57a1.34,1.34,0,0,1,.1-.38l1.38-1.37c.17.06.4.18.49.13s0-.33,0-.47c.21-.73,1.51-.23,1.63-1A2.29,2.29,0,0,1,19,25.09c.08-.11.18-.21.27-.32l1.19-1.19.37-.08c.42-.1.41-.58.59-.87l.17-.17a.25.25,0,0,1,.17,0h.52c.08,0,0-.24,0-.34a.43.43,0,0,0,.2-.11c.22,0,.42.1.49-.17-.1-.12-.15-.21-.22-.3h0s.28.07.45.13a.73.73,0,0,0-.1-.25c.44.2.75.09.57-.38a.27.27,0,0,0,.15-.1c.1-.13,0-.39,0-.61h0a1.06,1.06,0,0,1,.84.19.21.21,0,0,0-.08-.2c.32.07.47-.35.13-.85h.18c.43.18.55.08.56-.16a.48.48,0,0,0,.2-.17c.26-.37.52-.75.81-1.12l.09-.09a.55.55,0,0,0,.33-.11.25.25,0,0,0,.06-.2.79.79,0,0,0,.39-.76h0l.24-.07c.06,0,.1.1.16.14a.42.42,0,0,1,.22-.41c.16-.06.11.12.14.14-.06-.27.11-.2.43.15-.06-.11,0-.24-.1-.35.47.3.62-.37.55-.75a1.46,1.46,0,0,0,.53-.22c.26-.19.32-.32-.06-.73l.3-.3-.38-.38h0L29.31,14l-.67-.67h0l-.13-.14c-.15.21-.19.46-.37.58a.65.65,0,0,0-.75.39l-.19.2a8,8,0,0,1-.71.72c-.14.12-.41.14-.41.39v.11a4.72,4.72,0,0,0-.56.84l-.15.15h-.13c-.64-.23-.83-.17-1,.15-.52.73-1.71.92-1.71,2.13v.67l-1,1c-.12,0-.21,0-.2.12-.83-.77-1.2,0-1.21.35l.15.15c-.18.23-.44.82-.82.71.09.22.08.37.17.58l-.25.25a5,5,0,0,0-.93-.46c.51.65.27.9.12,1s-.23.1-.34.18l-.11-.09c-.15,0-.18.14-.25.24v-.08c-.19,0-.17.26.12.62l-.07.08c-.29,0-.62-.17-.77,0s-.11.52-.21.73a.83.83,0,0,0-.05.35l-.73.73c-.52,0-.66.35-.94.64s-.43.25-.33.61h0l-2.12,2.13ZM28.06,16l.18-.18h0Zm.75-.48Z"/></svg>