<svg id="Layer_1" data-name="Layer 1" xmlns="http://www.w3.org/2000/svg" viewBox="0 0 32.01 22.79"><title>icon-msg</title><path id="mail" d="M32,16.2c.07-1.58-.34-13.66-.41-14.76S29.5,0,28.47,0s-3.5.13-4,.13-5.36-.06-8.72,0S4.75.27,3.33.27a8.23,8.23,0,0,0-3,.41C-.36,1.68.26,8,.26,12.42a37.86,37.86,0,0,0,.41,7.42A12.15,12.15,0,0,0,1.9,22.38c.28.27.83.2,2.82.27s2.2.14,7,.14,9.75-.14,14-.28,4.6-.2,5.63-.89S31.89,17.78,32,16.2Zm-.75-5.91A19,19,0,0,0,30,8.72c-.14,0-.14.41-.14.54s1.31,1.58,1.31,1.65.07,1,.07,1-1-1.78-1.24-1.71-.21.48-.21.61,1.45,1.65,1.45,1.79.06,1,0,.89-1.17-1.92-1.38-1.78a.51.51,0,0,0-.13.61c.06.21,1.44,1.72,1.44,1.93s.13,1.37,0,1.3-1-1.85-1.44-2-.48.21-.28.41a8.68,8.68,0,0,1,1,1.72c.21.34.69.82.69.89s.07,1.58-.07,1.51-.83-1.85-1.31-2.4-.68-.83-.82-.69-.07.41.07.62,1.44,2.27,1.51,2.47.21.34.14.48-.21.28-.21.41-.07.14-.07.07-1.65-2.54-1.92-2.95-.34-.48-.55-.41,0,.48.14.62q1.17,1.62,2.19,3.36c0,.27-.27.48-.41.41s-2.13-3.29-2.4-3.77-.41-.42-.55-.28.21.55.48,1,1.58,2.61,1.79,2.82a.77.77,0,0,1,.2.48s-.55.2-.68.07-2.41-3.85-2.54-3.85-.35.28-.35.35,2.41,3.5,2.2,3.57a1.7,1.7,0,0,1-1,0c-.18-.13-1.65-3-1.92-3s-.42.42-.42.48a25.41,25.41,0,0,1,1.58,2.48c-.13.06-.48.2-.68.06s-1.58-2.88-1.72-2.95-.62.21-.48.35,1.79,2.74,1.51,2.74-.62.07-.69-.07A25.63,25.63,0,0,0,22.43,18c-.14-.07-.48.07-.41.28s1.85,2.4,1.57,2.4-1,.14-1.09,0a15.3,15.3,0,0,0-1.58-2.4.3.3,0,0,0-.35.24.17.17,0,0,0,0,.1c.07.14,1.38,2.06,1.17,2.06s-.82.07-.89-.07-1-2.06-1.24-2.06a.44.44,0,0,0-.41.34c.07.14,1.1,1.79.89,1.79a.94.94,0,0,1-.75-.07c-.14-.14-1.17-1.85-1.37-1.85s-.55.13-.48.27a14.48,14.48,0,0,1,1,1.65,3.39,3.39,0,0,1-.9,0c-.06-.07-1.16-1.51-1.3-1.58s-.48.07-.41.21,1.1,1.3.89,1.3-4.8.21-7.83.28A36.32,36.32,0,0,1,3,20.76a3,3,0,0,1-1.85-.83c-.28-.2-.48-2.54-.48-5.08S.5,6.62.43,5.18A13.76,13.76,0,0,1,.5,1.61c.14-.21,1.31-.28,5.22-.42s7.76-.13,12.84-.2,7.68-.14,9-.07,2.67.27,3,.75a19,19,0,0,1,.27,4.12c-.13-.07-.61-.68-.75-.55s-.28.35-.14.48a6.31,6.31,0,0,1,1,1c0,.2.07.55,0,.41s-.62-.83-.75-.62-.28.41-.14.55a8.58,8.58,0,0,1,1,1.17c.07.2,0,.61-.07.48S30,7.4,29.83,7.54a.64.64,0,0,0-.06.69C29.83,8.29,31,9.39,31,9.46s.34,1,.21.83ZM6.57,4.6c.41.41,3.5,3,5.7,4.6s2.81,1.85,4.39,1.78a7.65,7.65,0,0,0,4-1.58,39.84,39.84,0,0,0,6.05-5.56c.54-.68.2-.82-.21-1s-1.79-.14-6.8-.07S8.86,2.91,7.7,3a5.63,5.63,0,0,0-2,.27c-.24.45.52.93.86,1.35Zm10,.13c3.77,0,8.1-.2,8.23,0s-2.74,3-4.53,4-2.61,1.58-4.18,1.38-4.6-2.82-5.7-3.64S8.53,5,8.6,4.89a77.42,77.42,0,0,1,7.92-.16Zm12-.48c-.48-.07-2.06,1.93-3.09,3.23s-2.06,2.61-2.13,2.68c-.14.34.28.41,1.24,1.3a25.52,25.52,0,0,1,2.74,3.3c.48.61.83.75,1.17.48s.27-.55.34-1.72.14-5.35.21-7.07-.08-2.13-.52-2.2Zm-.34,10.09c-.21-.13-1.65-2.19-2-2.47s-1-.75-1-1a26.62,26.62,0,0,1,3.16-3.63,64.68,64.68,0,0,1-.2,7.1Zm-4.54-1c-.75-.89-1.23-1.78-1.78-1.78a7.25,7.25,0,0,0-2.47,1.23,4.36,4.36,0,0,1-2.4,1,9.15,9.15,0,0,1-2.82-1.1,4.35,4.35,0,0,0-1.78-.55c-.62.07-3.64,4.12-3.92,4.46s.42,1,.83,1,1.58,0,7-.21a77.06,77.06,0,0,0,8.58-.55c.48-.13.48-.55.41-.89a11.9,11.9,0,0,0-1.69-2.57Zm.83,2.75a79.65,79.65,0,0,1-8.58.62c-4.74.2-5.49.13-5.43.07a26.79,26.79,0,0,1,2.75-2.89c.14,0,2.68,1.24,3.78,1.24a6,6,0,0,0,3.5-1.24c1.1-.82,1.64-1.23,1.85-1.16a12.25,12.25,0,0,1,1.85,2.54c.24.45.31.72.24.86ZM8.39,8.4C7.29,7.3,4.47,4.9,4.2,5,2.9,5,3.31,7,3.38,9.64a48.84,48.84,0,0,0,.68,6.93,1,1,0,0,0,1.15.82l.23-.07c.54-.13,1-.82,2-2.19s2.6-3.5,2.74-4.4S9.45,9.54,8.35,8.44Zm-2.2,7.21c-.48.55-.41.62-.55.55s0-5.22-.07-6.25A14.23,14.23,0,0,1,5.5,7.65,17,17,0,0,1,8,9.57c.82.68,1.3,1.1,1.3,1.3a45.66,45.66,0,0,1-3.13,4.78Zm11.33-4a4.66,4.66,0,0,1-2-.21c-.35-.07-.42.41-.21.62s.69.34,2,.34a3.19,3.19,0,0,0,2.27-.75c.13-.21-.07-.55-.35-.62s-.93.52-1.75.66ZM3.1,19.18c-.2-.21,0-1.31-.14-1.51s-.61-.21-.68,0a3.3,3.3,0,0,0,.07,1.65A.83.83,0,0,0,3.3,20h.05a.5.5,0,0,0,.44-.55l0-.13c-.08,0-.49,0-.7-.1ZM2.37,3.07c.14-.42.76-.42,1-.48s.2-.07.2-.28-.27-.48-1-.34a1.29,1.29,0,0,0-1,1.3,5.69,5.69,0,0,0,.14,1.79c.27.13.55.13.62,0S2.24,3.5,2.37,3.07ZM30,2.52c.14-.14.21-.28-.21-.9A2,2,0,0,0,28.19.87c-.55.27-.28.89.27.89s.76.62.89.83.48.15.62,0Z"/></svg>