<svg id="Layer_1" data-name="Layer 1" xmlns="http://www.w3.org/2000/svg" viewBox="0 0 576.91 168.62"><defs><style>.cls-1{fill:#fff;}</style></defs><title>logo-bw</title><g id="Layer_1-2" data-name="Layer_1"><path class="cls-1" d="M416.2,0a84.31,84.31,0,1,1-84.26,84.31A84.34,84.34,0,0,1,416.2,0Z"/><path d="M71.09,141.27a3.53,3.53,0,0,0,3.68,2.5c2.35,0,3.83-1.23,4-3.93a.22.22,0,0,0-.15-.31l-2-.36a.24.24,0,0,0-.25.26c0,1.38-.56,2-1.48,2a1.25,1.25,0,0,1-1.33-.92c-.1-.41-.15-.71-.15-5.15s0-4.8.15-5.16a1.25,1.25,0,0,1,1.33-.92c.92,0,1.43.57,1.48,2,0,.16.15.26.25.21l2-.36c.15,0,.2-.1.15-.25-.15-2.76-1.63-3.93-4-3.93a3.47,3.47,0,0,0-3.68,2.5c-.25.66-.35,1.32-.35,5.92S70.84,140.55,71.09,141.27Zm21.9,2.5a3.68,3.68,0,0,0,3.82-2.55c.26-.72.36-1.33.36-5.87s-.1-5.16-.36-5.87a4.18,4.18,0,0,0-7.7,0c-.26.71-.36,1.27-.36,5.87s.1,5.15.36,5.87A3.72,3.72,0,0,0,93,143.77Zm0-2.35a1.42,1.42,0,0,1-1.43-.92c-.15-.46-.15-.66-.15-5.15s0-4.7.15-5.16a1.53,1.53,0,0,1,2.81,0c.15.46.15.61.15,5.16s0,4.69-.15,5.15A1.41,1.41,0,0,1,93,141.42Zm15.1,1.89a.24.24,0,0,0,.26.25h1.84a.24.24,0,0,0,.25-.25V132.9h.15l2.1,7.5a.27.27,0,0,0,.3.2h1.07c.21,0,.31,0,.31-.2l2.14-7.5h.16v10.41a.24.24,0,0,0,.25.25h1.84a.24.24,0,0,0,.26-.25V127.39a.25.25,0,0,0-.26-.26h-2.09c-.21,0-.31.05-.36.26l-2.65,9.23h-.11l-2.75-9.23c0-.21-.15-.26-.36-.26h-2.09a.25.25,0,0,0-.26.26Zm22.15,0a.24.24,0,0,0,.26.25h1.84a.24.24,0,0,0,.25-.25V132.9h.15l2.1,7.5a.27.27,0,0,0,.3.2h1.07a.28.28,0,0,0,.31-.2l2.14-7.5h.16v10.41a.24.24,0,0,0,.25.25h1.84a.24.24,0,0,0,.25-.25V127.39a.24.24,0,0,0-.25-.26h-2.09c-.21,0-.31.05-.36.26l-2.65,9.23h-.11L133,127.39c0-.21-.15-.26-.36-.26H130.5a.25.25,0,0,0-.26.26Zm26.24.46c2.5,0,4.08-1.48,4.08-4.39v-12a.24.24,0,0,0-.26-.26h-2.09a.24.24,0,0,0-.25.26v12.29c0,1.08-.51,1.74-1.48,1.74s-1.54-.66-1.54-1.74V127.39a.24.24,0,0,0-.25-.26H152.6a.24.24,0,0,0-.26.26v12C152.34,142.29,153.92,143.77,156.48,143.77Zm15.26-.46a.24.24,0,0,0,.25.25h1.79a.24.24,0,0,0,.25-.25V132h.1l3.22,11.33a.34.34,0,0,0,.36.25h2.34a.24.24,0,0,0,.26-.25V127.39a.24.24,0,0,0-.26-.26h-1.78a.24.24,0,0,0-.21.26v11.33h-.15l-3-11.33c-.05-.21-.15-.26-.36-.26H172a.24.24,0,0,0-.25.26Zm19.8,0a.24.24,0,0,0,.25.25h2.09a.24.24,0,0,0,.26-.25V127.39a.24.24,0,0,0-.26-.26h-2.09a.24.24,0,0,0-.25.26Zm13.83-2a3.58,3.58,0,0,0,3.72,2.5c2.35,0,3.83-1.23,4-3.93a.28.28,0,0,0-.2-.31l-1.94-.36c-.15,0-.25.06-.25.26-.11,1.38-.57,2-1.48,2a1.21,1.21,0,0,1-1.33-.92c-.1-.41-.15-.71-.15-5.15s.05-4.8.15-5.16a1.21,1.21,0,0,1,1.33-.92c.91,0,1.37.57,1.48,2,0,.16.1.26.25.21l1.94-.36c.15,0,.2-.1.2-.25-.15-2.76-1.63-3.93-4-3.93a3.52,3.52,0,0,0-3.72,2.5c-.21.66-.31,1.32-.31,5.92S205.16,140.55,205.37,141.27Zm16.84,2c0,.15,0,.25.2.25h2.05c.2,0,.25-.1.3-.25l.61-3.32h3.27l.66,3.32c0,.15.11.25.26.25h2.09a.17.17,0,0,0,.15-.25l-3.47-15.92a.24.24,0,0,0-.25-.26h-2c-.16,0-.21.1-.26.26Zm3.57-5.46,1.23-6.13h.1l1.12,6.13Zm19.5,5.71a.24.24,0,0,0,.25-.25V129.63c0-.1.05-.15.16-.15h2.5a.24.24,0,0,0,.25-.26v-1.83a.24.24,0,0,0-.25-.26h-7.91a.23.23,0,0,0-.21.26v1.83a.23.23,0,0,0,.21.26h2.55s.1.05.1.15v13.68a.24.24,0,0,0,.26.25Zm13.42-.25a.24.24,0,0,0,.26.25h2.09a.24.24,0,0,0,.25-.25V127.39a.24.24,0,0,0-.25-.26H259a.24.24,0,0,0-.26.26Zm17.76.46a3.7,3.7,0,0,0,3.83-2.55c.25-.72.36-1.33.36-5.87s-.11-5.16-.36-5.87a3.63,3.63,0,0,0-3.83-2.55,3.75,3.75,0,0,0-3.93,2.55c-.2.71-.31,1.27-.31,5.87s.11,5.15.31,5.87A3.82,3.82,0,0,0,276.46,143.77Zm0-2.35a1.38,1.38,0,0,1-1.43-.92c-.15-.46-.15-.66-.15-5.15s0-4.7.15-5.16a1.38,1.38,0,0,1,1.43-.92,1.41,1.41,0,0,1,1.38.92c.1.46.15.61.15,5.16s-.05,4.69-.15,5.15A1.41,1.41,0,0,1,276.46,141.42Zm15.11,1.89a.24.24,0,0,0,.25.25h1.79a.23.23,0,0,0,.2-.25V132H294l3.21,11.33c.05.15.1.25.31.25h2.4a.24.24,0,0,0,.25-.25V127.39a.24.24,0,0,0-.25-.26H298.1a.25.25,0,0,0-.26.26v11.33h-.1l-3.06-11.33c-.05-.21-.15-.26-.31-.26h-2.55a.24.24,0,0,0-.25.26Zm27.56-4.49c0-2.81-.82-3.93-3-4.8l-1-.36c-1.28-.51-1.59-1-1.59-2.5,0-1.38.46-2,1.48-2s1.53.77,1.53,2.09a.23.23,0,0,0,.31.21l1.94-.31c.1,0,.2-.1.2-.25-.15-2.56-1.32-4-4-4s-4,1.53-4,4.33c0,2.56.67,3.78,2.91,4.65l1,.41c1.28.51,1.63,1.07,1.63,2.85s-.51,2.3-1.58,2.3-1.58-.66-1.68-2.4a.19.19,0,0,0-.26-.2l-2,.3a.29.29,0,0,0-.2.31q.15,4.29,4.13,4.29C318.05,143.77,319.13,142.08,319.13,138.82Z"/><path d="M0,56.7H11V78.08H29.86V56.7H40.73v56.55H29.86V88.44H11v24.81H0Zm74.67,0h30.87V67.27H85.38V77.42h20.16V87.83H85.38v14.85h20.16v10.57H74.67Zm79.05,0h10.87l21.74,56.55H175.15l-4.44-11.64H147.54l-4.49,11.64H131.88Zm5.46,15.06L151.53,91.2h15.25ZM215.73,56.7h12.71c8.21,0,14.34,1,18.32,3.06a23.84,23.84,0,0,1,9.9,9.95,32.65,32.65,0,0,1,3.88,16.08,32.5,32.5,0,0,1-2.2,12,24.34,24.34,0,0,1-6,9.09,21.31,21.31,0,0,1-8.27,5q-4.44,1.38-15.46,1.38H215.73Zm10.72,10.41v35.68h5c4.95,0,8.47-.57,10.71-1.69a12.74,12.74,0,0,0,5.41-5.71,20.53,20.53,0,0,0,2.15-9.85c0-6-1.69-10.67-5.06-13.94-3-3-7.86-4.49-14.54-4.49ZM292.08,56.7h5.66v51h21.85v5.51H292.08Zm56.29,0H354v56.55h-5.67Zm94,9.49-4.39,4.14a35.12,35.12,0,0,0-10.41-7,28.52,28.52,0,0,0-11-2.39,26.76,26.76,0,0,0-12.7,3.26A23.74,23.74,0,0,0,394.46,73a22.92,22.92,0,0,0-3.32,11.84A23.4,23.4,0,0,0,394.56,97a24.4,24.4,0,0,0,9.49,9,27.63,27.63,0,0,0,13.22,3.27,22.67,22.67,0,0,0,14.8-4.9,19.41,19.41,0,0,0,7.19-12.76H421.2V86.15h24.44q-.08,13.09-7.8,20.82c-5.16,5.16-12,7.71-20.67,7.71-10.47,0-18.78-3.58-24.91-10.67a28.49,28.49,0,0,1-7-19,29.51,29.51,0,0,1,4-15A29,29,0,0,1,400.38,59.2a32.33,32.33,0,0,1,16-3.88,36.79,36.79,0,0,1,13.58,2.55A40.67,40.67,0,0,1,442.33,66.19ZM477,56.7h5.67V80.43h28.78V56.7h5.66v56.55h-5.66V85.94H482.65v27.31H477Zm68.95,5.51V56.7h31v5.51H564.3v51h-5.76v-51Z"/></g></svg>