<svg id="Layer_1" data-name="Layer 1" xmlns="http://www.w3.org/2000/svg" viewBox="0 0 572.81 167.42"><defs><style>.cls-1{fill:#fecc00;}</style></defs><title>logo-by</title><g id="Layer_1-2" data-name="Layer_1"><path class="cls-1" d="M413.24,0a83.71,83.71,0,1,1-83.66,83.71A83.74,83.74,0,0,1,413.24,0Z"/><path d="M70.59,140.26a3.5,3.5,0,0,0,3.65,2.49c2.33,0,3.8-1.22,4-3.91a.21.21,0,0,0-.15-.3l-2-.36a.24.24,0,0,0-.25.26c0,1.37-.56,2-1.47,2A1.23,1.23,0,0,1,73,139.5c-.1-.4-.15-.71-.15-5.12s0-4.76.15-5.11a1.24,1.24,0,0,1,1.32-.92c.91,0,1.42.56,1.47,2,0,.15.15.25.25.2l2-.35c.15,0,.2-.1.15-.25-.15-2.74-1.62-3.91-4-3.91a3.45,3.45,0,0,0-3.65,2.49c-.26.66-.36,1.31-.36,5.87S70.33,139.55,70.59,140.26Zm21.74,2.49a3.68,3.68,0,0,0,3.8-2.54c.25-.71.35-1.32.35-5.83s-.1-5.11-.35-5.82a4.16,4.16,0,0,0-7.66,0c-.25.71-.35,1.26-.35,5.82s.1,5.12.35,5.83A3.71,3.71,0,0,0,92.33,142.75Zm0-2.34a1.41,1.41,0,0,1-1.42-.91c-.15-.45-.15-.66-.15-5.12s0-4.66.15-5.11a1.41,1.41,0,0,1,1.42-.92,1.39,1.39,0,0,1,1.36.92c.16.45.16.6.16,5.11s0,4.67-.16,5.12A1.38,1.38,0,0,1,92.33,140.41Zm15,1.88a.24.24,0,0,0,.25.25h1.82a.24.24,0,0,0,.26-.25V132h.15l2.08,7.45a.27.27,0,0,0,.3.2h1.06c.21,0,.31,0,.31-.2l2.13-7.45h.15v10.34a.24.24,0,0,0,.25.25h1.83a.24.24,0,0,0,.25-.25V126.48a.24.24,0,0,0-.25-.25h-2.08c-.2,0-.31,0-.36.25l-2.63,9.17h-.1L110,126.48c-.05-.2-.15-.25-.35-.25h-2.08a.24.24,0,0,0-.25.25Zm22,0a.24.24,0,0,0,.25.25h1.82a.24.24,0,0,0,.26-.25V132h.15l2.08,7.45a.27.27,0,0,0,.3.2h1.07a.27.27,0,0,0,.3-.2l2.13-7.45h.15v10.34a.24.24,0,0,0,.25.25h1.83a.24.24,0,0,0,.25-.25V126.48a.24.24,0,0,0-.25-.25h-2.08c-.2,0-.3,0-.35.25l-2.64,9.17h-.1L132,126.48c-.05-.2-.15-.25-.35-.25h-2.08a.24.24,0,0,0-.25.25Zm26,.46c2.49,0,4.06-1.47,4.06-4.36V126.48a.24.24,0,0,0-.26-.25h-2.07a.24.24,0,0,0-.26.25v12.21c0,1.07-.5,1.72-1.47,1.72s-1.52-.65-1.52-1.72V126.48a.24.24,0,0,0-.25-.25h-2.08a.24.24,0,0,0-.25.25v11.91C151.26,141.28,152.83,142.75,155.36,142.75Zm15.15-.46a.24.24,0,0,0,.26.25h1.77a.24.24,0,0,0,.25-.25V131h.11l3.19,11.25a.33.33,0,0,0,.35.25h2.33a.24.24,0,0,0,.26-.25V126.48a.24.24,0,0,0-.26-.25H177a.23.23,0,0,0-.2.25v11.25h-.15l-3-11.25c0-.2-.16-.25-.36-.25h-2.53a.24.24,0,0,0-.26.25Zm19.67,0a.24.24,0,0,0,.25.25h2.08a.24.24,0,0,0,.25-.25V126.48a.24.24,0,0,0-.25-.25h-2.08a.24.24,0,0,0-.25.25Zm13.73-2a3.56,3.56,0,0,0,3.7,2.49c2.33,0,3.8-1.22,3.95-3.91a.27.27,0,0,0-.2-.3l-1.93-.36c-.15,0-.25.06-.25.26-.1,1.37-.56,2-1.47,2a1.2,1.2,0,0,1-1.32-.91c-.1-.4-.15-.71-.15-5.12s0-4.76.15-5.11a1.2,1.2,0,0,1,1.32-.92c.91,0,1.37.56,1.47,2,0,.15.1.25.25.2l1.93-.35c.15,0,.2-.1.2-.25-.15-2.74-1.62-3.91-3.95-3.91a3.51,3.51,0,0,0-3.7,2.49c-.21.66-.31,1.31-.31,5.87S203.7,139.55,203.91,140.26Zm16.72,2c0,.15.05.25.2.25h2c.2,0,.25-.1.3-.25l.61-3.29H227l.66,3.29c.05.15.1.25.26.25H230a.18.18,0,0,0,.16-.25l-3.45-15.81a.24.24,0,0,0-.25-.25h-2c-.15,0-.2.1-.25.25Zm3.55-5.42,1.21-6.08h.1l1.12,6.08Zm19.35,5.67a.24.24,0,0,0,.26-.25V128.71a.13.13,0,0,1,.15-.15h2.48a.25.25,0,0,0,.26-.26v-1.82a.24.24,0,0,0-.26-.25h-7.85a.24.24,0,0,0-.21.25v1.82a.24.24,0,0,0,.21.26h2.53c.05,0,.1.05.1.15v13.58a.24.24,0,0,0,.26.25Zm13.33-.25a.24.24,0,0,0,.25.25h2.08a.24.24,0,0,0,.25-.25V126.48a.24.24,0,0,0-.25-.25h-2.08a.24.24,0,0,0-.25.25Zm17.63.46a3.68,3.68,0,0,0,3.81-2.54c.25-.71.35-1.32.35-5.83s-.1-5.11-.35-5.82a3.63,3.63,0,0,0-3.81-2.54,3.75,3.75,0,0,0-3.9,2.54c-.2.71-.3,1.26-.3,5.82s.1,5.12.3,5.83A3.8,3.8,0,0,0,274.49,142.75Zm0-2.34a1.36,1.36,0,0,1-1.41-.91c-.16-.45-.16-.66-.16-5.12s0-4.66.16-5.11a1.37,1.37,0,0,1,1.41-.92,1.39,1.39,0,0,1,1.37.92c.1.45.15.6.15,5.11s-.05,4.67-.15,5.12A1.38,1.38,0,0,1,274.49,140.41Zm15,1.88a.24.24,0,0,0,.26.25h1.77a.23.23,0,0,0,.2-.25V131h.16l3.19,11.25c.05.15.1.25.3.25h2.38a.24.24,0,0,0,.26-.25V126.48a.24.24,0,0,0-.26-.25H296a.24.24,0,0,0-.25.25v11.25h-.1l-3.05-11.25c-.05-.2-.15-.25-.3-.25h-2.53a.24.24,0,0,0-.26.25Zm27.37-4.46c0-2.79-.81-3.9-3-4.76l-1-.36c-1.26-.5-1.57-1-1.57-2.48,0-1.37.46-2,1.47-2s1.52.76,1.52,2.08a.23.23,0,0,0,.31.2l1.92-.3c.1,0,.21-.1.21-.25-.16-2.54-1.32-4-4-4s-3.95,1.52-3.95,4.31c0,2.53.66,3.75,2.89,4.61l1,.41c1.27.5,1.62,1.06,1.62,2.83s-.5,2.29-1.57,2.29-1.57-.66-1.67-2.39c0-.15-.1-.25-.25-.2l-2,.3a.29.29,0,0,0-.2.31q.15,4.26,4.1,4.26C315.79,142.75,316.86,141.07,316.86,137.83Z"/><path d="M0,56.3H10.89V77.53H29.64V56.3h10.8v56.14H29.64V87.82H10.89v24.62H0Zm74.13,0h30.66V66.79h-20V76.87h20V87.21h-20V102h20v10.49H74.13Zm78.5,0h10.79L185,112.44h-11.1l-4.41-11.55h-23L142,112.44h-11.1Zm5.42,15-7.6,19.3H165.6Zm56.14-15h12.62c8.16,0,14.24,1,18.19,3a23.57,23.57,0,0,1,9.83,9.88,32.28,32.28,0,0,1,3.85,16,32.52,32.52,0,0,1-2.17,11.91,24.18,24.18,0,0,1-5.93,9,21.19,21.19,0,0,1-8.21,5Q238,112.45,227,112.44H214.19Zm10.65,10.33v35.43h4.91c4.92,0,8.41-.56,10.64-1.68a12.72,12.72,0,0,0,5.37-5.67,20.39,20.39,0,0,0,2.13-9.78c0-5.93-1.67-10.59-5-13.84-3-3-7.8-4.46-14.44-4.46ZM290,56.3h5.63V107h21.68v5.47H290Zm55.89,0h5.63v56.14h-5.63Zm93.29,9.42-4.36,4.11a34.66,34.66,0,0,0-10.33-7,28.3,28.3,0,0,0-10.95-2.38,26.58,26.58,0,0,0-12.62,3.25,23.51,23.51,0,0,0-9.27,8.81,22.77,22.77,0,0,0-3.29,11.76,23.27,23.27,0,0,0,3.39,12.06,24.3,24.3,0,0,0,9.43,9,27.47,27.47,0,0,0,13.12,3.24,22.57,22.57,0,0,0,14.7-4.86A19.31,19.31,0,0,0,436.14,91H418.2V85.54h24.28q-.09,13-7.76,20.67c-5.12,5.12-12,7.65-20.52,7.65-10.39,0-18.65-3.55-24.73-10.59a28.25,28.25,0,0,1-7-18.9,29.32,29.32,0,0,1,4-14.85,28.86,28.86,0,0,1,11-10.74,32.13,32.13,0,0,1,15.86-3.85,36.49,36.49,0,0,1,13.48,2.53A40.27,40.27,0,0,1,439.18,65.72Zm34.41-9.42h5.62V79.86h28.58V56.3h5.63v56.14h-5.63V85.33H479.21v27.11h-5.62Zm68.46,5.47V56.3h30.76v5.47H560.29v50.67h-5.73V61.77Z"/></g></svg>