<svg xmlns="http://www.w3.org/2000/svg" viewBox="0 0 341.1 362.2"><defs><style>.cls-1{opacity:0.2;}.cls-2{fill:#fff;}</style></defs><title>service</title><g id="Layer_3" data-name="Layer 3"><path class="cls-2" d="M37.87,130.26a1.65,1.65,0,0,0,.27-.53,4.19,4.19,0,0,0,.1-.42,1.16,1.16,0,0,0,.21-.16c.35-.32.16-.67.08-1l-.08-.47a17.32,17.32,0,0,1,.33-2.51c.13-.08.32-.13.37-.24s-.09-.32-.08-.48c0-.92,1.09-1.3,1.12-2.16a4.28,4.28,0,0,1,.29-1.48l.23-.51,1-2,.32-.32a3.06,3.06,0,0,0,.5-1.32l.15-.3a1,1,0,0,1,.14-.16c.12-.11.37-.25.44-.4s0-.26,0-.38a1,1,0,0,0,.16-.25c.18-.15.36-.17.41-.51a.85.85,0,0,1-.2-.17l0-.06a3.34,3.34,0,0,1,.38-.16L44,114a.56.56,0,0,0,.46-.78.53.53,0,0,0,.13-.2,1.38,1.38,0,0,0,0-.64l0-.07a.79.79,0,0,1,.7-.33l-.06-.17a.65.65,0,0,0,.11-1l0,0,.14-.15c.38-.08.48-.25.49-.5a1.35,1.35,0,0,0,.19-.31,17.07,17.07,0,0,1,.79-1.61,1.1,1.1,0,0,1,.09-.14,1.22,1.22,0,0,0,.31-.29.65.65,0,0,0,.08-.22,2.07,2.07,0,0,0,.48-1v0l.24-.17.11.08a1,1,0,0,1,.3-.5s.08.07.1.08c0-.24.15-.24.37,0,0-.09,0-.21,0-.31.35.12.68-.52.74-.86a4.77,4.77,0,0,0,.6-.29c.32-.22.44-.28.26-.63l.46-.26-.16-.32h0l0,0-.28-.57,0,0,0-.12a9.75,9.75,0,0,1-.79.58,1.54,1.54,0,0,0-1,.58l-.28.27c-.37.32-.64.72-1,1.06-.18.18-.44.34-.5.6v.11a6.58,6.58,0,0,0-.68,1.18c-.06.08-.11.17-.16.25l-.12,0a1.16,1.16,0,0,0-1,.78c-.54,1.09-1.58,2.06-1.58,3.37l0,.73L42.63,114a.28.28,0,0,0-.17.26c-.7-.27-1,.78-1,1.16,0,0,.08,0,.12.07-.14.36-.36,1.15-.67,1.27.07.18.06.35.14.51l-.22.42a2.43,2.43,0,0,0-.79.11.72.72,0,0,1,.09,1c-.06.11-.2.26-.3.41a.16.16,0,0,1-.09,0,1,1,0,0,0-.21.42.07.07,0,0,1,0,0c-.17.18-.16.4.1.6l-.07.12c-.23.16-.52.23-.65.47a4.63,4.63,0,0,0-.14.93,1.26,1.26,0,0,0,0,.42q-.27.65-.51,1.32a3,3,0,0,0-.58,1.45,1.28,1.28,0,0,0,0,1h0c-.09.69-.14,1.37-.21,2,0,.34-.06.66-.11,1a3,3,0,0,1-.09.45,1.42,1.42,0,0,1-.1.29ZM48.6,105.83l.22-.24,0,0Zm.87-.71h0Z"/><path class="cls-2" d="M37.29,158l-.09-.2.13-.13c.21-.22,0-.2-.17-.24l-.18-.05-.36-.67c.08-.08.21-.19.21-.23s-.19,0-.25,0c-.34-.11.31-.71-.09-.78a.78.78,0,0,1-.51-.2l-.09-.13-.31-.57.06-.18c.07-.19-.2-.2-.31-.28l0-.08a.24.24,0,0,1,0-.08c0-.07.16-.21.13-.24s-.13,0-.18,0a.17.17,0,0,0,0-.1c.05-.09.18-.19.05-.22l-.23.09h0l.2-.2-.16,0c.24-.2.27-.34,0-.27a.06.06,0,0,0,0-.07s-.21,0-.33,0v0c0-.09.06-.16.35-.37l-.13,0c.14-.14,0-.22-.42-.08h0l0-.08c.23-.19.21-.24.09-.25a.17.17,0,0,0,0-.1,3.23,3.23,0,0,1-.35-.4l0,0c0-.06.07-.12.05-.15a.12.12,0,0,0-.09,0c0-.11-.06-.2-.28-.21h0l0-.1.13-.05c-.07,0-.16-.05-.14-.12l.12,0c-.15,0-.06-.06.24-.16a1.62,1.62,0,0,1-.22,0c.33-.15.05-.22-.17-.23.05-.07.12-.08.13-.11a2.25,2.25,0,0,1-.56,0,.49.49,0,0,1-.14,0c-.1,0-.09,0-.12,0s0,0,0,0h0l-.07-.62h0v-.13a.63.63,0,0,0-.48.48l0,.3c-.23.2-.19.36-.1.48l0,.12a2.67,2.67,0,0,1,.15.42c0,.07-.06.2.08.22h.07a.9.9,0,0,0,.28.31l0,.07-.06.06c-.33.27-.35.37-.25.49.24.27,0,.83.66.87l.36,0,.25.49c-.05.06-.07.1,0,.1-.66.36-.35.56-.15.57l.12-.07c.07.09.32.22.15.4.15,0,.23,0,.37-.07l.07.12a4.4,4.4,0,0,0-.52.43c.5-.23.57-.12.59,0s0,.1,0,.16l-.08,0c0,.07,0,.08.06.12l-.05,0c0,.09.09.09.37-.05l0,0c-.1.13-.27.28-.24.36s.25.05.33.1a.27.27,0,0,0,.18,0l.19.35c-.13.24,0,.31.08.45s0,.2.24.16h0c.18.34.36.68.52,1Zm-3.49-6.84,0-.08h0Zm0-.31Z"/><path class="cls-2" d="M175,151.17a26.43,26.43,0,0,1-3.65,2.11c-.3.07-.63.16-1,.27a46.81,46.81,0,0,0-5.38,2.06l-2.51,1c-1.21.44-2.43.94-3.61,1.46s-2.36,1-3.55,1.45c-2.39.92-4.81,1.76-7.27,2.5a13.83,13.83,0,0,0-2,.28c-1,.25-1.61.61-2.55.91a32.53,32.53,0,0,1-7.28,1.23c-2.38.16-4.72.2-7.17.44a56.26,56.26,0,0,1-8.73.2c-1.08-.05-2.17-.16-3.27-.25q-3.29-.34-6.56-.91c-1.08-.2-2.17-.42-3.29-.61s-2.22-.34-3.34-.45c-.85-.14-1.71-.25-2.53-.35a47.14,47.14,0,0,0-8.26.07c-.64,0-1.27,0-1.91.1l-1.25,0a29.9,29.9,0,0,0-3.24.16c-.68.1-1.35.3-2,.43l-1.71.19a31.16,31.16,0,0,0-3.68.23c0,.11-.28.19-.41.27l-.33,0c-.59-.06-1.22-.14-1.76-.25l-.82.14a21.13,21.13,0,0,0-5.21-.73c-.45-.09-.91-.19-1.4-.26a33.49,33.49,0,0,0-3.37-.31l-.47-.07a18,18,0,0,1-3.57-1l-.73.05a16.54,16.54,0,0,0-5.47-.17l-.12,0-1.2-.19a14.49,14.49,0,0,0-4-.64c-.67-.1-1.37-.19-2.11-.27q-5.2-.57-10.71-1.32l-1-.14c-.81-.16-1.62-.31-2.47-.42-.53-.06-1-.09-1.41-.11-2.2-.3-4.41-.58-6.46-.67h-.1l-1.71-.32c-.05-.06,0-.09,0-.15a34.78,34.78,0,0,1-3.52-.43c-.14,0,0-.11,0-.13-1.16,0-1.72-.23-1.47-.52-.33,0-1.11,0-1.48,0-.83-.5-5.39-1.07-7.08-1.25-1.36-.36-2.71-.74-4-1.13-2.39-.71-3.28-1.12-3.56-.81a8.33,8.33,0,0,1-1.39-.74,2.74,2.74,0,0,1-.54-.45.72.72,0,0,1-.2-.39H.79v-.05l-.05.06-.64,0a1.13,1.13,0,0,0,.06.32.42.42,0,0,1-.15,0,2,2,0,0,0,.52.88,3.28,3.28,0,0,0,.63.52,8.61,8.61,0,0,0,1.26.67c.83.36,1.64.63,2.47.91a27.34,27.34,0,0,0,6.19,1.77l2.13.43c2.65.51,5.33.92,8,1.36a43.06,43.06,0,0,0,4.41.65h.48c2.59.35,5.17.63,7.78.88l1.7.21.48.14a30.49,30.49,0,0,0,6.62,1.37c3.49.43,7.13,1,10.77,1.42,1.82.21,3.64.4,5.43.52s3.47.21,5.17.34c1.35.1,2.6.22,3.87.35,1.84.33,3.69.65,5.57.88a28.37,28.37,0,0,0,5.68.2A7.17,7.17,0,0,0,81,165c.19.36,1.89.32,3.76.08s3.92-.6,4.92-.78c.08-.06,0-.09,0-.15a43.87,43.87,0,0,1,8.45-.22c.74-.13,1.64-.17,2.28-.28.93,0,1.85.11,2.78.2.88.3,1.46.68,2.54,1,.79-.47,3.49,0,5.07.34.71.12,1.81.37,2.87.52.07,0,.11.07.1.11a22.85,22.85,0,0,0,2.73.33.5.5,0,0,1-.15.05,5.1,5.1,0,0,0,2.87-.09l.81,0a27,27,0,0,0,4.11.58c1.69.06,3.51-.17,5.24-.28,1-.06,1.67-.17,2.29-.26a68.18,68.18,0,0,0,8.18-1,48.94,48.94,0,0,0,8.68-2.06,30.81,30.81,0,0,0,5-1.79l.05,0q2.82-1,5.57-2.2c1.82-.81,3.65-1.5,5.53-2.14s3.77-1.27,5.62-2.06a27.88,27.88,0,0,0,5.32-2.87ZM19.84,156.69l-1.94-.31,0,0Zm-6.77-1.31h0l-.17,0Z"/><path class="cls-2" d="M214,126.81l-.31.5-.22,0c-.4,0-.35.35-.46.64a3.92,3.92,0,0,1-.16.36,11.58,11.58,0,0,1-1.66,1.45c-.14,0-.31-.11-.41-.06s-.1.28-.19.4c-.5.64-1.51.27-2,.91a3.62,3.62,0,0,1-.94,1l-.41.26-1.73,1-.4.07c-.45.11-.68.52-1,.79l-.24.16-.19.06c-.15,0-.42,0-.54.11s-.11.22-.16.3a1.24,1.24,0,0,0-.23.12c-.21,0-.36,0-.53.21a1,1,0,0,1,.1.24l0,0a2.58,2.58,0,0,1-.37-.06,1.27,1.27,0,0,0,0,.2c-.34-.12-.67,0-.69.39a.5.5,0,0,0-.19.1,1.1,1.1,0,0,0-.25.52l0,0a.78.78,0,0,1-.72-.09l0,.16c-.27,0-.59.34-.47.74h0l-.19,0c-.34-.11-.5,0-.6.19a.77.77,0,0,0-.27.17c-.4.34-.82.7-1.25,1.05l-.12.09a.91.91,0,0,0-.37.13.55.55,0,0,0-.13.18,1.53,1.53,0,0,0-.69.73h0l-.25.1s-.06-.08-.1-.1a1,1,0,0,1-.37.4s-.06-.09-.08-.1c0,.23-.18.2-.36-.06,0,.09-.05.21,0,.3-.34-.19-.73.47-.78.8a2.39,2.39,0,0,0-.58.34c-.32.24-.4.39-.15.67l-.37.37.25.24h0l.06,0,.46.44,0,0,.09.09a3.87,3.87,0,0,1,.47-.62,1.14,1.14,0,0,0,.8-.5l.24-.21a11,11,0,0,1,.9-.76c.17-.12.43-.18.52-.4a.25.25,0,0,0,0-.09,8,8,0,0,0,.85-.8l.2-.15.11,0a1,1,0,0,0,1.06-.23c.79-.68,2-.93,2.52-2,.1-.21.2-.4.3-.58l1.38-1a.2.2,0,0,0,.24-.13.55.55,0,0,0,.78.1,1.27,1.27,0,0,0,.49-.53,1.27,1.27,0,0,1-.07-.12c.24-.2.74-.72,1.06-.63,0-.18.09-.31.1-.48l.35-.22a2.88,2.88,0,0,0,.68.37.62.62,0,0,1,.37-.85c.09-.05.27-.08.41-.15a.16.16,0,0,1,.06.08.73.73,0,0,0,.36-.21s0,0,0,.07c.21,0,.3-.22.19-.52l.11-.06c.26,0,.51.13.72,0s.35-.43.55-.61a.86.86,0,0,0,.22-.3c.35-.22.7-.43,1.05-.66a2.4,2.4,0,0,0,1.18-.66c.2-.14.52-.3.56-.61h0a9.94,9.94,0,0,0,2.44-2.79Zm-18.85,13.76-.23.19,0,0Zm-.89.59h0Z"/><path class="cls-2" d="M231.94,92l.86-.8c.31-.25.63-.48.95-.72l.57-.16a4.3,4.3,0,0,0,.73-.3,7.55,7.55,0,0,0,.69-.37c.43-.28.89-.56,1.4-.85s.9-.44,1.35-.66A56,56,0,0,1,247,86a4.23,4.23,0,0,0,1.19.09,10.82,10.82,0,0,0,1.49-.49c3-.78,5.59-.5,8.33-1.21a30.43,30.43,0,0,1,4.91-.94c.61-.06,1.24-.11,1.87-.15q1.89-.1,3.78-.12c1.25,0,2.57,0,3.77.06a6.23,6.23,0,0,1,1.26.36,3.66,3.66,0,0,1,1.57,1.07,4.88,4.88,0,0,1,.93,1.78,6.44,6.44,0,0,1,.15,1,2.72,2.72,0,0,1,0,.64c-.06.47-.32,1.15-.43,1.63s-.08.73-.17,1.08-.27.56-.4.83a13.38,13.38,0,0,0-1.13,1.65c.08.08.05.22.07.33l-.1.15c-.28.2-.58.43-.86.6a4.37,4.37,0,0,0-.18.46,5.64,5.64,0,0,0-1.15.91,4.34,4.34,0,0,0-1,1.21c-.19.17-.39.35-.58.55A12.35,12.35,0,0,0,269.06,99l-.2.18a4,4,0,0,1-1.9.9l-.24.35a6,6,0,0,0-2.29,2.09l-.06,0-.6.34a4.56,4.56,0,0,0-2,1.1c-.33.19-.67.4-1,.63q-2.49,1.64-5.21,3.26l-.5.28a12.64,12.64,0,0,0-1.29.61,7.24,7.24,0,0,0-.68.46,21.11,21.11,0,0,0-3.16,2l0,0-.91.42s0-.09-.1-.11a14,14,0,0,1-1.72,1.08c-.08,0,0-.1-.07-.11-.5.47-.85.54-.91.2-.12.17-.49.43-.63.61-.63,0-2.8,1.52-3.51,2.24a22.76,22.76,0,0,0-2.14,1.23,10.7,10.7,0,0,0-1.31.93c-.24.25-.32.43-.24.61l-1.57,1.18.22.27,0,0,.08,0,.39.5.1-.08.06.12a29.62,29.62,0,0,1,2.37-1.87,20,20,0,0,0,3.12-1.85l1-.65c1.32-.78,2.62-1.61,4-2.34a16.33,16.33,0,0,0,2.21-1.24c.08-.06.14-.13.21-.19,1.29-.74,2.57-1.5,3.84-2.31l.85-.48.29-.07a9.5,9.5,0,0,0,3.57-1.57c3.41-2.12,7.46-4.16,10.17-7.12l1.51-1.71c.41-.35.79-.74,1.17-1.12L273,96.66c.36-.4.7-.82,1.06-1.24s.72-.8,1-1.26a2.46,2.46,0,0,0,.62-.88c.37.12,1-.69,1.48-1.79a7.38,7.38,0,0,0,.52-3.12c-.05-.06-.09,0-.14-.05a8.45,8.45,0,0,0-1.72-5.14,3.78,3.78,0,0,0-1.49-.53,6,6,0,0,0-1.68-.4,5.63,5.63,0,0,0-1.56-.74c-.45.54-2,.54-2.93.54-.41,0-1.06,0-1.68,0,0,0-.07-.06-.06-.09a9.28,9.28,0,0,0-1.58.06l.08-.06c-.79,0-1.4.13-1.61.46l-.46,0a11.73,11.73,0,0,0-2.4-.15c-1,.1-2,.45-2.94.65a9.09,9.09,0,0,0-1.28.34c-1.54.25-3.09.56-4.62.86a42.37,42.37,0,0,0-5,.77,12.44,12.44,0,0,0-2.93.72h0a42.78,42.78,0,0,0-6.62,1.92,17.21,17.21,0,0,0-5.89,3.72Zm14.7,21-1,.56,0,0Zm-3.49,1.91h0l-.09,0Z"/><path class="cls-2" d="M188.9,171.11a2.15,2.15,0,0,1-1.52-.63c-.83-.83-1.66-1.62-2.46-2.39-4.3-4.11-8-7.66-10-14.46-1.23-4.25-1.2-8.72-1.16-13,0-.83,0-1.66,0-2.49,0-6.19-1.34-11.67-4.6-18.91-2.62-5.81-5.3-10.81-11.59-13.1-.71-.26-1.76-.73-3-1.27-3.41-1.53-9.76-4.38-11.45-3.3l-.72-1.13c2.13-1.36,7,.65,12.72,3.21,1.19.53,2.22,1,2.89,1.24,6.77,2.46,9.71,7.93,12.35,13.8,3.34,7.43,4.71,13.07,4.72,19.46,0,.83,0,1.67,0,2.5,0,4.42-.07,8.6,1.11,12.66,1.88,6.46,5.47,9.9,9.62,13.87.82.78,1.65,1.57,2.49,2.41a.8.8,0,0,0,.82.2.77.77,0,0,0,.52-.62,292.48,292.48,0,0,0,2.89-54.38c-.64-12.82-22-36.89-23.62-37.88l.61-1.19c1.77.88,23.69,25.79,24.34,39A293.05,293.05,0,0,1,191,169.3a2.08,2.08,0,0,1-1.42,1.7A2.24,2.24,0,0,1,188.9,171.11Z"/><path class="cls-2" d="M137.78,105.51c-.38.39-.76.77-1.13,1.17a4,4,0,0,0-.4.17c-.71.35-1,1-1.41,1.67l-.55.86c-1.23,1.5-2.38,3-3.5,4.6a2.37,2.37,0,0,0-.68.45c-.24.3-.23.62-.41.95-.93,1.74-2.54,2.68-3.38,4.26a14.17,14.17,0,0,1-1.82,2.67l-.82.89c-1.13,1.18-2.32,2.34-3.49,3.51l-.76.58a12.08,12.08,0,0,0-2,2.33l-.47.53a3.27,3.27,0,0,1-.35.3,6.59,6.59,0,0,0-.95.72c-.17.19-.26.46-.41.65a4.9,4.9,0,0,0-.47.43,2.87,2.87,0,0,0-1.06.87c.06.08,0,.19.05.28l-.08.1c-.22.08-.45.19-.67.25,0,.11-.08.22-.11.33a2.36,2.36,0,0,0-1.51,1.26,2.46,2.46,0,0,0-.42.32,5.87,5.87,0,0,0-.76,1l-.13.1a2.16,2.16,0,0,1-1.35.46l-.12.27c-.52.15-1.37,1-1.4,1.47l0,0-.4.2a2,2,0,0,0-1.32.71,6,6,0,0,0-.66.42c-1,.77-2.12,1.52-3.27,2.26l-.32.2a4.52,4.52,0,0,0-.84.38,2.43,2.43,0,0,0-.42.32,9.08,9.08,0,0,0-2,1.34l0,0-.6.24s0-.09-.09-.11a5.15,5.15,0,0,1-1.1.7c-.06,0,0-.1-.07-.11-.3.34-.55.35-.63,0-.07.13-.3.31-.38.44-.46-.16-1.86.84-2.33,1.33a15.47,15.47,0,0,0-1.47.58c-.85.4-1.19.6-1.06,1l-1.12.57.16.32h0l0,.05.29.57.07,0,0,.12c.65-.36,1.14-.72,1.73-1a6.64,6.64,0,0,0,2.19-.93l.71-.38c.9-.45,1.77-1,2.67-1.41a6.25,6.25,0,0,0,1.46-.8.81.81,0,0,0,.12-.14c.85-.47,1.66-1,2.47-1.56l.55-.33.2,0a4.17,4.17,0,0,0,2.37-1c2.16-1.49,4.83-2.8,6.47-4.86.32-.41.63-.78.93-1.16l1.58-1.38,1.53-1.45a1.06,1.06,0,0,0,.51-.45c.31.23.85-.12,1.37-.61a8.16,8.16,0,0,0,1.17-1.5c0-.05-.07-.06-.08-.11a11.16,11.16,0,0,1,2.16-2.29c.08-.3.26-.59.33-.85l.73-.74a4.07,4.07,0,0,0,1.17-.24c-.2-.58.53-1.31,1-1.72.19-.18.52-.44.82-.71a.1.1,0,0,1,.09,0,4.52,4.52,0,0,0,.72-.73.11.11,0,0,1,0,.08c.41-.32.61-.69.48-1l.21-.22a5.11,5.11,0,0,0,1.32-.89,12.93,12.93,0,0,0,1.06-1.68,3.46,3.46,0,0,0,.41-.77c.62-.83,1.18-1.67,1.76-2.5a16.56,16.56,0,0,0,2-2.61,6.23,6.23,0,0,0,1-1.65v0a59.66,59.66,0,0,1,5.68-6.7ZM95.83,146l-.65.35,0,0Zm-2.33,1.09h0l-.06,0Z"/><path class="cls-2" d="M249.58,37.2l9.54-3.67c.7-.2,1.47-.45,2.35-.74a61.36,61.36,0,0,0,6.35-2.46,26.67,26.67,0,0,1,6.5-1.83c2.07-.34,4.17-.53,6.26-.67,6-.31,12.17,0,18.26-.65,6-.45,12.25-.77,18.14-2.75a20.73,20.73,0,0,0,4.63-1.66A33.14,33.14,0,0,0,327,19c1.23-1,2.41-2,3.54-3a5.19,5.19,0,0,0,1.59-1.92,4.25,4.25,0,0,0-1-4.78A4.16,4.16,0,0,0,330,8.62a6.19,6.19,0,0,0-.6-.23l-.53-.15c-1.41-.41-2.82-.71-4.24-1a121.82,121.82,0,0,0-17.17-1.79c-3.53-.18-6.9-.52-10.29-.7s-6.82-.37-10.51-.51c-2.57-.1-5.19-.17-7.8-.21S273.62,3.94,271,4a41.46,41.46,0,0,0-7.94.82A129.36,129.36,0,0,0,247.87,9.3c-1.93.59-3.86,1.19-5.71,1.72-6.64,1.9-12.64,3.94-18.43,6.05-1.42.49-2.83,1-4.24,1.54l-2.73,1c-2,.71-5,1.83-7.09,2.77-.76.35-1.4.64-2.17.93s-1.5.56-2.24.82l-3.91,1.07c-2.95.7-4.21.87-8.58,2a4.74,4.74,0,0,1-.94.47l-.78.19c-1.38.22-2.89.48-4.2.64l-1.93.55c-1.64.18-3.83.49-6,.69a24.34,24.34,0,0,0-6.51,1.61c-1.07.32-2.15.68-3.26,1.13a21,21,0,0,0-3.81,2,9.43,9.43,0,0,0-.82.63l-.7.59a7.67,7.67,0,0,1-1.49.92,6.74,6.74,0,0,1-1,.29,24.36,24.36,0,0,1-4.51.05c-.73,0-1.43,0-2.1,0s-1.35,0-2,0l-1.69.41a27.2,27.2,0,0,0-6.76,2.09,24.31,24.31,0,0,0-5.24,3.15l-.25.16c-.86.51-1.68,1-2.48,1.5a62,62,0,0,0-7.92,5.37c-1.32.92-2.67,1.85-4.13,2.84-6.86,4.61-13.94,9.3-21.41,13.84l-2,1.22c-1.69.94-3.39,1.86-5.14,2.86-1.09.63-2,1.17-2.87,1.69C90.54,73.36,88.17,74.59,86,76S81.64,78.7,79.63,80l-.21.13c-1.18.68-2.37,1.35-3.56,2-.14,0,0-.11-.21,0-1.13.67-2.32,1.34-3.56,2l-3.85,1.87c-.31.14,0-.12-.08-.11-2.37,1.36-3.67,1.8-3.36,1.31a26,26,0,0,1-3.06,1.38c-.51.06-1.51.27-2.79.39a16.05,16.05,0,0,1-2.1,0c-.38,0-.76,0-1.15-.11s-.79-.11-1.24-.19c-3.5-.61-7.23-1-9.23-1.15-3.3-.54-6.58-1.1-9.78-1.9-2.83-.75-4.84-1.46-6.21-1.82s-2.09-.46-2.29-.32a30.56,30.56,0,0,0-7.4-1.33h-.17l-.16,0a.42.42,0,0,0-.16.09.56.56,0,0,0-.23.48.64.64,0,0,0,.08.3l0,0,.06.07a1,1,0,0,0,.19.14l.09,0,.23.12.19-.29.05,0h0a.72.72,0,0,1,.1-.08.27.27,0,0,0-.08.07s0,0,0,0v0l0-.06.34-.54-.26-.14-.1-.06s0,0,0,0l.07.07s0,0,.07.16a.48.48,0,0,1-.13.44.42.42,0,0,1-.2.1h-.06s0,0,0,0a.53.53,0,0,0,.17,0l.08,0a.49.49,0,0,0,.17-.29.52.52,0,0,0-.06-.35l0,0a.47.47,0,0,0-.06-.09s0,0,0,0a.06.06,0,0,1,0,0s0,0,0,0l.07.06,0,0,0,0,0,.06a.57.57,0,0,1,0,.54.52.52,0,0,1-.13.15l0,0a.52.52,0,0,1-.23.1h0a28.52,28.52,0,0,1,6.21,1c1.93.49,3.78,1.07,5.69,1.68,1.12.41,2.27.79,3.46,1.13s2.43.61,3.67.86c2.5.5,5.08.85,7.69,1.19,1.58.23,3.22.45,5,.74l2.33.39c.77.14,1.58.28,2.41.38a15.57,15.57,0,0,0,5-.31c3.26-.73,6.12-2.34,9-3.7,1.49-.73,3.19-1.45,4.81-2.3s3.17-1.75,4.53-2.64c.35-.22.63-.42.93-.63,2.63-1.61,5.21-3.27,7.86-4.82s5.38-3,8-4.57l3.5-2,1.06-.53a119.41,119.41,0,0,0,13.82-8l10.63-6.94c3.62-2.36,7.11-5,10.63-7.4a52.45,52.45,0,0,1,11-6.07,33.75,33.75,0,0,1,11.79-2.19,20.85,20.85,0,0,0,2.46-.19,7.88,7.88,0,0,0,2.37-.79,11.31,11.31,0,0,0,1.93-1.38,13.67,13.67,0,0,1,1.79-1.21,35.6,35.6,0,0,1,6.08-2.4,31.24,31.24,0,0,1,6.4-1.32c4.44-.56,8.75-1.56,13.07-2.54a40.19,40.19,0,0,0,4.18-1c.46.27,4.32-.51,8.63-1.77,1.07-.31,2.18-.66,3.28-1.06s2.11-.92,3.07-1.36l4.69-2.1c.18-.12-.06-.08.09-.19,2.42-1,6.28-2.5,10-3.77s7.3-2.36,9-2.78c1.65-.66,3.67-1.36,5.08-1.94,2.11-.65,4.23-1.33,6.32-2,2.12-.47,3.65-.66,6.22-1.38a21.89,21.89,0,0,1,4.84-2,46.59,46.59,0,0,1,6.49-1.6,39.46,39.46,0,0,1,6.72-.49c.17,0,.28.07.26.1,2.2.06,4.25,0,6.45.06a2.54,2.54,0,0,1-.35,0,30.52,30.52,0,0,0,6.69-.18l1.9.07c3.38.29,5.89.64,9.64.93l6.07.42c2.05.16,4.17.31,6.19.43,2.36.14,3.92.2,5.4.25,3.21.23,6.42.51,9.59,1,1.59.24,3.17.55,4.72.91L329,9.5c.18.05.33.11.5.17a5,5,0,0,1,.46.25,3,3,0,0,1,1,3.86,3.12,3.12,0,0,1-.67.86c-.3.27-.64.55-1,.82-1.29,1.09-2.59,2.14-3.94,3.12a31.46,31.46,0,0,1-9.22,4.86,43.43,43.43,0,0,1-6.07,1.41c-2.14.37-4.27.61-6,.86l-.13,0-7,.54c-2.33.21-4.66.26-7,.29-4.69.08-9.4.07-14.11.56a35.81,35.81,0,0,0-7,1.37,17.17,17.17,0,0,0-1.69.63l-1.62.69c-1.07.45-2.16.89-3.25,1.32-4.36,1.74-8.74,3.42-13.13,5.09ZM66.09,87.14a29.49,29.49,0,0,1-4.24,1.69h-.14A29.29,29.29,0,0,0,66.09,87.14ZM50.57,88.36h0l-.41-.07Z"/><path class="cls-2" d="M226,68.69a20.58,20.58,0,0,1,5.86-.92c.43,0,.92.1,1.46.14,2.74.27,5.27.2,8.21.36,1.27.07,2.53.17,3.79.29l1.87.26-.12,0c3.07,1.24,6.12,2.64,9.14,4s6,2.89,9,4.41c.79.52,1.47,1.07,2.41,1.59,1.27.7,2.24,1,3.49,1.65,6.78,3.23,10.49,8.72,16.6,12.69a29.42,29.42,0,0,0,5.68,2.93c2,.71,3.92,1.3,6.07,2,1.48.44,3,.87,4.55,1.23a39.58,39.58,0,0,0,4.74.88,16.69,16.69,0,0,0,2.46.12,5.8,5.8,0,0,0,2.56-.6,3,3,0,0,0,.6-.47,3.92,3.92,0,0,0,.25-.32,1.33,1.33,0,0,0,.18-.46,3.82,3.82,0,0,0,0-1.4,16,16,0,0,0-.65-2.38c-.53-1.53-1.16-3-1.82-4.45-.45-1.12-.95-2.27-1.5-3.32-2-3.77-4.57-6.63-6.66-9.65L302.65,75c-.32-.49-.63-1-.93-1.48-.65-1.07-1.61-2.8-2.39-3.9-.56-.8-1.23-1.56-1.82-2.32s-.95-1.37-1.43-2A27.27,27.27,0,0,0,292.8,61c-.12,0-.39-.21-.6-.31l-.36-.35a11.73,11.73,0,0,0-.86-1c-.3-.35-.61-.67-.9-1s-.72-.45-1.08-.64a20.26,20.26,0,0,0-6.58-4c-.57-.33-1.15-.65-1.77-1-1.61-.85-2.9-1.4-4.24-2.15l-.54-.37A29.13,29.13,0,0,1,272,46.77l-.91-.48c-1.47-1.29-5.41-3.73-6.68-4l-.15-.1-1.45-1a21.58,21.58,0,0,0-5-3l-1.33-.69c-.24-.11-.52-.21-.78-.31a5.24,5.24,0,0,0-.82-.27,37.92,37.92,0,0,0-7.69-.92c-2.59-.1-5.2-.11-7.84-.05l-1.44,0c-1.17,0-2.34-.05-3.56,0-.76,0-1.41.08-2,.14-3.18.09-6.35.27-9.25.62h-.15l-2.48.06c-.08,0,0-.09-.1-.13-1.59.16-3.31.36-5,.45-.21,0,0-.11,0-.13-1.63.29-2.48.25-2.21-.1-.45.13-1.56.27-2.07.39-1.31-.25-7.84.57-10.24,1l-6,.27c-3.59.18-5.07.24-5.26.63q-2.4.08-4.8.09v.35h-.1a.44.44,0,0,1,.1.06v.63H185a.42.42,0,0,1-.07.13c2.86,0,5.15-.23,7.61-.31a73.56,73.56,0,0,0,9.09-.43l3.06-.26c3.82-.32,7.65-.71,11.48-1,2-.15,4.36-.19,6.3-.42l.66-.1,11.11-.65,2.42-.07.71.06c3.26.37,5.22.37,9.55.5a33.91,33.91,0,0,1,7.34.93,4.93,4.93,0,0,1,.82.27,7.81,7.81,0,0,1,.81.36c.57.28,1.14.58,1.7.89,1.13.61,2.25,1.24,3.35,1.9,4.42,2.64,8.65,5.53,12.71,8.14A43.81,43.81,0,0,0,278.5,53c2.33,1.32,4.72,2.49,7,3.83a36.46,36.46,0,0,1,3.26,2.2,22.52,22.52,0,0,1,2.85,2.67,23.24,23.24,0,0,0,1.63,2c-.15.41,1.21,2.31,2.73,4.48s3.28,4.59,4.17,5.75c.11.08.07-.06.17,0,.9,1.3,2.34,3.36,3.69,5.32S306.66,83,307.16,84c.71.79,1.47,1.82,2,2.52A30.35,30.35,0,0,1,311.06,90c.35,1.27.43,2.21.9,3.72a7,7,0,0,1,1.44,2.74,8.64,8.64,0,0,1,.25,1,2.25,2.25,0,0,1,0,.81.22.22,0,0,1,0,.08l-.11.13c0,.09-.18.15-.26.23l-.33.17-.35.11a11.06,11.06,0,0,1-3.87,0c-.1,0-.16-.08-.14-.11-1.27-.23-2.47-.42-3.75-.7a.69.69,0,0,1,.22,0,11.83,11.83,0,0,0-3.95-.67l-1.1-.32c-1.9-.74-3.27-1.43-5.37-2.2a29.09,29.09,0,0,1-6.39-3.28l-2.64-1.85c-3-2.42-5.89-5.07-9.11-7.33a43.69,43.69,0,0,0-5.27-3.38c-1.78-1-3.63-2-5.69-3a68.16,68.16,0,0,0-6.76-3.19l-.08,0c-3.7-1.76-7.41-3.49-11.23-5l-.05,0h0a103.15,103.15,0,0,0-10.82-1,52.35,52.35,0,0,0-5.46,0,19.57,19.57,0,0,0-5.45.95ZM213.83,37.38l-2.8.24-.08,0Zm-9.82.71h-.23Z"/><path class="cls-2" d="M169.16,42.25a2.34,2.34,0,0,0,.94.83,6.23,6.23,0,0,0,.91.43c.6.25,1.21.46,1.82.65,1.21.38,2.43.71,3.65,1,.49.2,1.06.4,1.71.62.8.27,1.6.51,2.37.75s1.52.49,2.31.74l4.92,1.5c1.51.47,3,.91,4.51,1.33,4.32,1.33,8.73,2.2,13,3.44a35.33,35.33,0,0,1,11.9,5.58,14.46,14.46,0,0,1,1.16,1.19c.37.41.77.82,1.18,1.3a24.8,24.8,0,0,1,2.9,3.51,26.36,26.36,0,0,1,2.72,5.9c.67,2,1.17,4.06,1.66,6.09s1,4.07,1.56,6.11,1.14,4.05,1.82,6.11c1.64,5,3.05,9.38,4.59,14.59l.39,1.36c.11.46.23.91.34,1.37s.23.92.33,1.38l.25,1.4c1.33,7.55.83,15.31.33,23-.14,1.49-.28,3-.41,4.38a79.38,79.38,0,0,0,.09,14.33c.09,1.09.14,2.18.16,3.27,0,.71,0,1.41-.07,2.1a37,37,0,0,1-.84,5.36,13.33,13.33,0,0,1-1,3.19A5.49,5.49,0,0,1,232.6,167a4,4,0,0,1-2.28.51l-.62-.06-.72-.13a14.77,14.77,0,0,1-1.89-.54c-.11.09-.51,0-.75,0l-.52-.22a14.75,14.75,0,0,1-1.25-.87c-.2-.15-.4-.3-.58-.46l-.52-.5c-.42-.24-.78-.53-1.16-.79l-.29-.35-.28-.39-.63-.84c-.38-.62-.85-1.23-1.21-1.94-.82-1.35-1.45-2.85-2.05-4.09-.23-.74-.38-1.52-.62-2.33-.23-1.06-.44-2-.64-2.91s-.32-1.81-.45-2.74l0-.8a25.11,25.11,0,0,1,.51-6.25l-.08-1.24a45.46,45.46,0,0,0,.32-5.06c0-.95,0-1.88-.08-2.67a10.72,10.72,0,0,0-.27-1.8v-.22c0-.75,0-1.44-.08-2.15a16.23,16.23,0,0,0-1.45-7.07,15,15,0,0,0-.73-1.72c-.14-.29-.26-.59-.42-.87l-.51-.87-.6-1-.62-1c-.41-.64-.82-1.28-1.21-1.94-.79-1.3-1.54-2.63-2.21-4a35.55,35.55,0,0,1-1.75-4.28c-.25-.74-.46-1.49-.66-2.25s-.45-1.58-.71-2.35c-.19-.56-.39-1.12-.59-1.67-.46-1.37-.94-2.72-1.48-4.09-.34-.86-.65-1.59-.93-2.26A25.88,25.88,0,0,1,201,86.6v-.14l0-.09-.75-1.76-.23-.53-.64.13a9.26,9.26,0,0,1-1.26.31,10.89,10.89,0,0,1-1.28.14h-.18a12,12,0,0,1-1.45-.12c-.49-.07-1-.12-1.46-.23-.08-.06.06-.09-.08-.16a33.27,33.27,0,0,1-5.91-1.33c-.24-.08.06-.1,0-.13-2-.44-2.88-.89-2.44-1.08-.55-.09-1.85-.49-2.47-.63a46.84,46.84,0,0,0-5.29-2.2c-2.42-.91-5-1.8-6.4-2.29a71.71,71.71,0,0,1-6.45-3.37,44.33,44.33,0,0,1-3.85-2.6l-.93-.66a.72.72,0,0,0-.5-.16,10.29,10.29,0,0,1-2.94-4.64l-.34.09,0-.12c0,.06,0,.08,0,.13l-.61.15.12.39a.44.44,0,0,1-.15,0A8.93,8.93,0,0,0,156.55,68l.73,1,.8.88a24.67,24.67,0,0,0,3.49,2.92,38.94,38.94,0,0,0,9.83,5.36c1.09.46,2.24.91,3.51,1.41,4.34,1.72,8.75,3.43,13.3,4.77a29.26,29.26,0,0,0,7.72,1.51l.85,0a10.5,10.5,0,0,0,1.48-.09,11.68,11.68,0,0,0,1.49-.32l-.73-.34.72,1.77,0-.18a30,30,0,0,0,2.52,8.66l1.08,2.76.24.84c.26,1,.47,1.82.68,2.65s.36,1.59.57,2.49a28.89,28.89,0,0,0,2.2,6.16c.68,1.41,1.43,2.79,2.23,4.15.4.68.81,1.36,1.23,2s.84,1.34,1.2,2a23.05,23.05,0,0,1,2.91,8.58c.79,6.08-.26,12.4.13,18.39.05,1.2.17,2.35.29,3.47.09.57.17,1.12.25,1.68a15.89,15.89,0,0,0,.3,1.65,25.36,25.36,0,0,0,3.28,9.31,16.84,16.84,0,0,0,3.22,3.82,15.93,15.93,0,0,0,4.26,2.65,8.84,8.84,0,0,0,3.14.9,3.08,3.08,0,0,0,2.36.3,5.56,5.56,0,0,0,2.18-.95,6.93,6.93,0,0,0,1.8-2,14.16,14.16,0,0,0,1.65-5,26.78,26.78,0,0,0,.29-3.92c0-.16-.09,0-.13-.12,0-1,0-2.26,0-3.65s-.21-2.9-.28-4.32c-.06-.71-.09-1.42-.09-2.1s0-1.33,0-1.93c0-1.21.07-2.21.15-2.86-.1-1.3-.12-2.87-.19-4,.08-1.62.18-3.24.29-4.86a46.52,46.52,0,0,0,1-4.62c-.47-1.31-.21-6.13-.25-8.9,0-.62,0-1.42,0-2.3,0-.44,0-.9,0-1.37l-.08-1.41c0-.13,0-.21.09-.2l-.06-1.21c-.05-.4-.1-.79-.14-1.18-.11-.79-.18-1.58-.36-2.39a1.7,1.7,0,0,1,.11.25,12.2,12.2,0,0,0-1.37-4.81c-.11-.47-.25-.91-.38-1.36-.55-2.44-.85-4.29-1.61-7s-1.87-5.78-2.75-8.63c-.51-1.66-.88-2.76-1.24-3.78s-.66-2.29-1-3.41l-1-3.43c-.63-2.29-1.26-4.59-2.06-6.85a27.49,27.49,0,0,0-3.12-7A21.88,21.88,0,0,0,217.65,58a26.19,26.19,0,0,0-8.23-4.19l-.1,0a93.34,93.34,0,0,0-10-2.86c-3.36-.82-6.66-1.72-9.93-2.83l-4.9-1.68L182,45.58c-.84-.29-1.68-.5-2.52-.71-1.68-.43-3.36-.84-5-1.31-.82-.23-1.64-.48-2.44-.76-.39-.15-.78-.3-1.15-.48-.18-.09-.35-.18-.51-.28a1.29,1.29,0,0,1-.31-.28ZM186,82.39c-1.08-.36-2.16-.73-3.23-1.11l-.08-.08C183.75,81.62,184.85,82,186,82.39Zm-11.2-4.32h0l-.28-.12Z"/><path class="cls-2" d="M331.39,11c-1.47-2.35-5.26-2.55-7.94-2.89A88.82,88.82,0,0,0,311.1,7.07.42.42,0,0,0,311,7a20.19,20.19,0,0,0-2.91,0,1,1,0,0,0-1.41-.72c-4.55,1.83-4.92,9.13-.86,11.58,5.79,3.5,18.16.71,23.6-2.1C331.49,14.74,332.69,13.09,331.39,11Z"/><path class="cls-2" d="M299.94,72.47c-2.32-.6-4.79,1.69-6,3.44A9.33,9.33,0,0,0,293,85c3.56,7.95,11.25,14.87,20.15,15.14,0,0,3.17-1.69-3.59-13.9S299.94,72.47,299.94,72.47Z"/><path class="cls-2" d="M272,82.52a.73.73,0,0,0-.53.24,4.07,4.07,0,0,0-1.81.24,10.07,10.07,0,0,0-1.1-.17,2.64,2.64,0,0,0-1.12,0h-.05a8.58,8.58,0,0,0-4.86-.43c-1,.18-5.41,1.62-4.39,1.56,11-.73,17.41,7.25,9,17.35-.56.67,5.07-3.38,5.45-4.24l1-2.31c.06.26.47.39.61.1a26.6,26.6,0,0,0,1.14-2.56,4.2,4.2,0,0,0,.41-1,.82.82,0,0,0,1.2-.7C277.06,87,276.29,82.81,272,82.52Z"/><path class="cls-2" d="M236.8,159.45a22.63,22.63,0,0,0,.12-4.12.35.35,0,0,0-.22-.3.71.71,0,0,0,0-.14v-.45a.67.67,0,0,0,.08-.17,13,13,0,0,0,.06-6.07s0,0,0,0a.77.77,0,0,0,.06-.23,19.13,19.13,0,0,0-.47-7.49.69.69,0,0,0-.46-.51v-.06a.78.78,0,0,0,.37-.11l.14-.08a.8.8,0,0,0,.36-.91c-1-2.55-5.38-1.72-7.25-.75-3.66,1.89-5.05,6-5,9.86a21,21,0,0,0,.31,3.37.68.68,0,0,0,0,.14l.42,3.64a.67.67,0,0,0-.06.28,40.73,40.73,0,0,0,2.06,12.62.82.82,0,0,0,1.52.09,2.78,2.78,0,0,0,3.36.4,1,1,0,0,0,.22-.14l.25-.15a1.45,1.45,0,0,0,.17-.19.8.8,0,0,0,1.45-.2c.15-.59.25-1.17.36-1.75l.22-.41a.74.74,0,0,0,.47-.39.81.81,0,0,0,1.12-.72v-1A28.43,28.43,0,0,0,236.8,159.45Z"/><path class="cls-2" d="M192.69,148.55c-5.53-4.22-9.55-1.08-9,5.44.24,2.93,1.22,17.39,5.58,16.81.39-.05.86-.33.8-.8s-.13-1.19-.19-1.78a.32.32,0,0,0,.2-.29c0-.16,0-.31,0-.46a.35.35,0,0,0,.15-.25,2.17,2.17,0,0,0-.15-1,.2.2,0,0,0-.06-.11.8.8,0,0,0,.69-.76c0-.41.07-.82.1-1.24a.78.78,0,0,0,.48-.68c.17-2.2.33-4.4.5-6.6.15-2,.82-4.64.5-6.59a.77.77,0,0,1,0-.15A.85.85,0,0,0,192.69,148.55Z"/><path class="cls-2" d="M187.33,100.93l.4.19a1.36,1.36,0,0,0,0,.2c.07.35.33.23.57.19l.3,0c.48.19,1,.31,1.46.46,0,.13,0,.3.12.34s.21-.13.32-.15c.55-.11.81.81,1.36.6a2.09,2.09,0,0,1,.91-.2l.32,0c.43.07.86.12,1.29.18l.23.17c.26.18.55,0,.8-.05l.19,0,.11.07c.08.07.2.26.29.26s.14-.11.21-.13a.37.37,0,0,0,.16.05c.12.1.16.26.35.18,0-.1,0-.16.07-.24h0a2,2,0,0,1,.15.29.86.86,0,0,0,.1-.16c.11.31.33.42.51.12a.23.23,0,0,0,.14,0c.12,0,.23-.16.34-.27h0a.63.63,0,0,1,.32.5l.08-.13c.12.2.44.08.55-.31h0l.11.07c.13.3.25.32.39.21a.44.44,0,0,0,.2,0c.34,0,.69-.09,1.05-.11a.33.33,0,0,1,.1,0,.52.52,0,0,0,.24.11.27.27,0,0,0,.14-.07.69.69,0,0,0,.63-.16h0l.17.07s0,.1,0,.15.22-.14.34-.09,0,.11,0,.13c.11-.16.17,0,.15.27,0-.08.11-.13.15-.21.09.37.54.11.7-.1a1.36,1.36,0,0,0,.42.13c.25,0,.35,0,.35-.38h.33l0-.36h0v-.07l0-.63h0V102a1.58,1.58,0,0,1-.5.12.53.53,0,0,0-.61-.16h-.2a6.6,6.6,0,0,1-.77,0c-.14,0-.29-.13-.42,0s0,0,0,.06a4.07,4.07,0,0,0-.75.13h-.16l0-.08c-.21-.42-.34-.48-.64-.45-.67.08-1.37-.43-2,.11l-.39.29-1.07-.08c0-.08-.1-.12-.16-.06,0-.75-.58-.62-.79-.48,0,0,0,.09,0,.14-.21,0-.68.11-.8-.14-.08.14-.18.2-.26.34l-.26,0a3.31,3.31,0,0,0-.17-.69c-.13.54-.4.51-.54.48a2.78,2.78,0,0,1-.26-.12.14.14,0,0,1,0-.09c-.08-.08-.16,0-.25,0a.17.17,0,0,1,0-.05c-.11-.1-.23,0-.32.3H193c-.11-.17-.17-.41-.31-.45s-.36.14-.53.15a.6.6,0,0,0-.23.1l-.76-.16c-.22-.3-.48-.26-.77-.34s-.32-.18-.51,0h0a13.6,13.6,0,0,1-2.05-.79Zm15.25,2.31h.19v0Zm.67.12h0Z"/><path class="cls-2" d="M201,86.8a19.87,19.87,0,0,1-.64-6.19c.06-1-1.55-1-1.6,0a21.36,21.36,0,0,0,.69,6.61A.8.8,0,0,0,201,86.8Z"/><path class="cls-2" d="M253,37.69c-.15-1-1.69-.59-1.54.43a20.11,20.11,0,0,1,.13,4.78c-.08,1,1.52,1,1.61,0A22.07,22.07,0,0,0,253,37.69Z"/><path class="cls-2" d="M286.75,63.42a4.1,4.1,0,0,1-.84,3c-.65.8.49,1.94,1.13,1.14a5.7,5.7,0,0,0,1.32-4.11C288.27,62.4,286.66,62.39,286.75,63.42Z"/><path class="cls-2" d="M265.62,10.32a11.28,11.28,0,0,1-.8-5.07c.08-1-1.53-1-1.6,0a12.31,12.31,0,0,0,.85,5.5C264.45,11.69,266,11.28,265.62,10.32Z"/><path class="cls-2" d="M158.8,76A37.51,37.51,0,0,1,151.91,69c-.6-.82-2,0-1.38.81a39.11,39.11,0,0,0,7.14,7.4C158.47,77.8,159.61,76.67,158.8,76Z"/><path class="cls-2" d="M125.81,105.64a21.43,21.43,0,0,1-6.92-4.88c-.72-.75-1.85.39-1.14,1.14a23.26,23.26,0,0,0,4.18,3.44.7.7,0,0,0,.51.32A22.38,22.38,0,0,0,125,107C125.93,107.44,126.75,106.06,125.81,105.64Z"/><path class="cls-2" d="M123.12,110.64l-9.54-2c-1-.21-1.44,1.34-.43,1.55l9.55,2C123.71,112.39,124.13,110.84,123.12,110.64Z"/><path class="cls-2" d="M217,62.35l-.13.09-.13-.13c-.22-.2-.15,0-.15.16v.16l-.47.32a1.07,1.07,0,0,0-.23-.2c-.05,0,0,.17,0,.23,0,.32-.65-.28-.62.09a.76.76,0,0,1-.05.48l-.09.09-.39.31-.16,0c-.18,0-.11.2-.15.3l0,.05h-.07c-.07,0-.22-.12-.25-.09s0,.12.05.17a.09.09,0,0,0-.08,0c-.1,0-.22-.13-.21,0a1.35,1.35,0,0,1,.16.19h0l-.24-.14.09.14c-.25-.18-.39-.18-.21.09,0,0,0,0-.06,0s.06.19.12.29l0,0a.89.89,0,0,1-.46-.22l.08.11c-.17-.08-.17.11.12.39h-.08c-.26-.14-.31-.1-.26,0a.09.09,0,0,0-.06.06c0,.16-.09.31-.14.46a.05.05,0,0,1,0,0c-.06,0-.13,0-.15,0a.23.23,0,0,0,0,.09c-.07.07-.12.16,0,.33h0l-.1,0-.13-.06c0,.08.08.15,0,.19l-.12,0c.12.1,0,.09-.29,0a2.2,2.2,0,0,0,.18.14c-.36-.07-.2.26,0,.38a.41.41,0,0,0-.18.19c-.05.13,0,.19.36.22v.16h1.17s-.12-.09-.09-.14c.24,0,.23-.06.2-.13v-.06c0-.06,0-.14.06-.2s.16,0,.06-.11l0,0a.63.63,0,0,0,0-.27l0,0,.07,0c.39.15.45.16.47.06s.54-.1.25-.64l-.13-.3.27-.27c.06,0,.1,0,.07,0,.53.54.55.28.49.1l-.09-.1c0-.07.06-.3.25-.16a3.24,3.24,0,0,1-.17-.32l.07-.06c.17.15.38.38.49.45-.32-.44-.25-.51-.21-.53s.09,0,.13,0l.06.07c.07,0,.06,0,.08-.06l0,0c.08,0,.05-.08-.13-.33l0,0c.13.09.29.24.35.22s0-.23,0-.31a.3.3,0,0,0,0-.16l.23-.16c.22.12.25,0,.34-.07s.16,0,.08-.21h0l.71-.48Zm-4.33,4.18a.19.19,0,0,0,0,.08h0A.23.23,0,0,1,212.62,66.53Zm-.22.26h0Z"/><path class="cls-2" d="M62.8,97.59l0-.2.18,0c.3-.06.08-.16,0-.27L62.87,97l.12-.71c.12,0,.29,0,.31,0s-.15-.11-.19-.16c-.19-.3.69-.32.44-.62A.77.77,0,0,1,63.3,95l0-.16.15-.62.16-.09c.19-.1,0-.28,0-.42l0-.09.07,0c.07,0,.25,0,.26-.1s-.1-.09-.12-.13a.19.19,0,0,0,.06-.07c.1,0,.26,0,.18-.15L63.84,93v0l.29,0L64,92.88c.3,0,.42-.09.14-.24,0,0,0,0,0-.06s-.15-.15-.25-.23v0c.09,0,.14-.1.51-.08l-.12-.06c.19,0,.1-.22-.29-.34h0l.07,0c.29,0,.32-.08.22-.17a.2.2,0,0,0,0-.11c0-.18-.06-.37-.07-.56a.09.09,0,0,1,0,0s.12-.07.12-.12,0-.05-.06-.08,0-.22-.15-.34h0l.09-.08h.14c0-.07-.12-.13-.08-.19h.13c-.15-.06,0-.09.28-.07-.08,0-.13-.06-.21-.08.36,0,.12-.3-.09-.38a.48.48,0,0,0,.14-.23c0-.14,0-.19-.38-.18V89l-.35,0h-.06l-.63,0H63c0,.09.13.16.11.24-.22.1-.22.19-.16.29v.1a1.53,1.53,0,0,1,0,.37c0,.06-.14.13,0,.2l.06,0a.78.78,0,0,0,.11.37v.08l-.08,0c-.43,0-.49.1-.47.25.06.33-.47.58,0,1l.27.24-.12.52c-.07,0-.12,0-.06.08-.74-.16-.63.17-.49.3l.14,0c0,.11.09.37-.15.38.13.07.19.13.32.2l0,.13a5.92,5.92,0,0,0-.67,0c.53.17.5.3.47.37s-.08.08-.11.12h-.09c-.07,0,0,.08,0,.12l-.05,0c-.09,0,0,.13.31.22v0c-.17,0-.4,0-.43.1s.16.22.19.31a.24.24,0,0,0,.11.14l-.09.39c-.26.1-.2.25-.22.41s-.12.17.08.28h0c-.07.39-.12.78-.16,1.18ZM64.21,90v-.1h0Zm.14-.35h0Z"/><path class="cls-2" d="M67,96.68l.09-.24h.18c.31,0,.14-.18.08-.33l-.07-.19c.1-.28.2-.56.29-.85.12,0,.28,0,.32,0s-.13-.14-.16-.21c-.15-.36.75-.37.52-.75a1,1,0,0,1-.2-.58l0-.19c.06-.25.12-.51.17-.76l.17-.11c.18-.14,0-.34,0-.5l0-.11a.14.14,0,0,1,.07-.06c.07,0,.25-.08.25-.14s-.1-.1-.13-.15a.24.24,0,0,0,.06-.09c.1-.06.26-.06.18-.19l-.24-.06v0l.29-.06L68.73,91c.31,0,.43-.17.13-.3a.09.09,0,0,0,0-.08c0-.08-.16-.15-.26-.23v0c.09-.07.14-.13.51-.15L69,90.15c.19-.06.09-.26-.3-.35h0l.07-.06c.29-.06.31-.13.2-.22a.15.15,0,0,0,0-.13,6.37,6.37,0,0,1-.1-.63s0,0,0-.06.11-.09.11-.14a.12.12,0,0,0-.06-.09.31.31,0,0,0-.16-.38h0l.08-.1A.65.65,0,0,0,69,88c0-.06-.13-.13-.08-.2h.13c-.15-.07,0-.1.27-.09a1.89,1.89,0,0,1-.21-.09c.37,0,.13-.32-.09-.42a.6.6,0,0,0,.15-.25c0-.14,0-.21-.38-.21v-.19H67.64c0,.11.13.2.11.3-.23.11-.23.23-.17.35v.12a3.38,3.38,0,0,1,0,.45c0,.08-.13.17,0,.25l.07,0a1,1,0,0,0,.12.44v.1l-.08,0c-.42.11-.48.18-.45.35.08.39-.44.75.1,1.18l.28.25L67.5,91c-.07,0-.12,0-.06.09-.74-.1-.62.27-.48.41l.14,0c0,.12.11.41-.14.45.14.06.2.13.33.19l0,.15a4.77,4.77,0,0,0-.67,0c.52.15.5.3.47.39s-.08.08-.11.13h-.1c-.07,0,0,.09,0,.14l0,0c-.09.05,0,.14.3.24v0c-.16,0-.4,0-.43.12s.14.24.16.34a.31.31,0,0,0,.1.16l-.13.44c-.27.09-.23.25-.28.43s-.15.17,0,.31h0c-.14.42-.3.83-.46,1.25Zm1.8-9v-.11h0Zm.13-.4h0v0Z"/><path class="cls-2" d="M72.72,93.37l0-.22.19,0c.3-.06.1-.19,0-.32l-.11-.16.14-.81c.11,0,.28,0,.31-.06s-.15-.12-.19-.17c-.21-.32.68-.42.4-.73a.91.91,0,0,1-.28-.51V90.2l.1-.69.16-.11c.17-.13,0-.3-.07-.45v-.09l.07-.06c.07,0,.25-.08.25-.13s-.1-.09-.13-.13a.1.1,0,0,0,.05-.08c.11,0,.26,0,.18-.17l-.24-.06v0l.29,0-.16-.07c.31,0,.42-.12.13-.25a.09.09,0,0,0,0-.07c0-.07-.15-.15-.25-.22v0c.1-.06.15-.11.51-.1l-.12-.06c.19,0,.1-.22-.29-.33h0l.07,0c.3,0,.32-.08.23-.17a.17.17,0,0,0,0-.1,3.63,3.63,0,0,1,0-.57s0,0,0,0,.13-.06.13-.1a.14.14,0,0,0,0-.09c0-.1.07-.21-.09-.36h0l.1-.07.14,0c0-.07-.1-.14,0-.19s.11,0,.13,0,0-.1.29,0c-.08,0-.12-.09-.19-.13.36.06.19-.22,0-.36a.67.67,0,0,0,.2-.16c.07-.1,0-.16-.3-.29l0-.15-.33-.13h0l-.06,0-.6-.22h0l-.13,0c0,.11.06.23,0,.31-.25,0-.29.15-.27.28l0,.12a3.45,3.45,0,0,1-.12.43c0,.07-.16.13-.06.23l0,0a1,1,0,0,0,0,.44l0,.09h-.09c-.43,0-.5.09-.49.26,0,.39-.53.71,0,1.17l.27.26-.1.58c-.07,0-.11,0-.06.09-.74-.1-.62.26-.47.39l.14,0c0,.12.12.39-.12.43.14.07.2.12.34.18l0,.14a6,6,0,0,0-.67,0c.54.12.52.27.5.35s-.07.09-.1.14h-.1c-.06,0,0,.09,0,.14l-.06,0c-.08.06,0,.14.33.2v0c-.16.05-.39.07-.41.15s.17.21.2.31a.37.37,0,0,0,.12.13l-.06.43c-.26.12-.19.27-.22.43s-.11.18.09.29h0l-.22,1.21Zm1.43-8.16,0-.09h0Zm.22-.3h0Z"/><path class="cls-2" d="M79.35,162.7l-.17-.13a1.22,1.22,0,0,0,.07-.17c.1-.29-.1-.15-.25-.13l-.18,0a6.77,6.77,0,0,1-.56-.51c0-.1.14-.24.13-.28s-.18.06-.24.06c-.37,0,.1-.76-.29-.73a.75.75,0,0,1-.56-.1l-.12-.11-.44-.52,0-.19c0-.21-.24-.17-.37-.24l-.06-.08a.25.25,0,0,1,0-.08c0-.08.1-.24.07-.27s-.14,0-.19,0a.15.15,0,0,0,0-.1c0-.11.13-.23,0-.24L76,159h0a2.36,2.36,0,0,1,.15-.25l-.16.07c.19-.25.19-.4-.11-.27a.11.11,0,0,0,0-.08c-.06,0-.21,0-.34.05v0c0-.11,0-.18.24-.46l-.12.06c.1-.18-.11-.23-.45,0h0a.28.28,0,0,1,0-.09c.17-.25.13-.3,0-.29a.13.13,0,0,0-.07-.09c-.16-.11-.33-.21-.49-.34a.08.08,0,0,1,0,0c0-.06,0-.14,0-.17a.11.11,0,0,0-.1,0,.31.31,0,0,0-.38-.13h0v-.12l.09-.11c-.08,0-.18,0-.19-.07l.08-.09c-.15.06-.1,0,.13-.26-.07.05-.13.05-.2.1.21-.3-.15-.3-.36-.21a.67.67,0,0,0-.09-.26c-.09-.12-.16-.13-.4.16L73,156l-.22.27h0l0,.05-.39.5h0l-.08.1c.09,0,.21,0,.26.08-.07.24,0,.3.13.34l.08.07c.09.09.22.15.29.26s0,.2.15.16l.06,0a1,1,0,0,0,.38.18l0,.07,0,.07c-.22.36-.22.45-.08.54.3.19.19.79.85.69a2.71,2.71,0,0,1,.37-.05l.36.45c0,.07,0,.11,0,.1-.58.49-.23.63,0,.61l.11-.09c.09.08.37.17.24.38.14-.06.22-.07.35-.13l.1.11a4,4,0,0,0-.42.53c.44-.32.54-.21.59-.14s0,.11,0,.16l-.07.07c0,.08,0,.08.09.11l-.05,0c0,.1.11.07.36-.12l0,0c-.06.16-.19.35-.15.42s.28,0,.38,0a.28.28,0,0,0,.18,0l.3.32c0,.28.11.32.24.44s.09.2.29.1h0a11.41,11.41,0,0,0,1,.83Zm-5.53-6-.08-.08,0,0Zm-.19-.35Z"/><path class="cls-2" d="M72.93,162.69l-.13-.09.08-.17c.11-.27-.07-.12-.2-.08l-.16,0a4.44,4.44,0,0,1-.44-.43,1,1,0,0,0,.17-.26s-.18.07-.24.07c-.33,0,.22-.68-.15-.65a.68.68,0,0,1-.5-.08l-.1-.1-.32-.47,0-.17c.06-.18-.2-.15-.31-.21l0-.07a.12.12,0,0,1,0-.08c0-.07.14-.21.11-.24s-.13,0-.18,0a.14.14,0,0,0,0-.09c0-.1.16-.2,0-.22l-.21.12h0l.18-.22-.15.06c.22-.22.24-.35-.06-.24,0,0,0-.06,0-.07s-.2,0-.32,0l0,0c0-.1,0-.16.32-.4l-.13,0c.13-.15-.06-.2-.42,0h0l0-.08c.2-.21.18-.27,0-.25a.13.13,0,0,0,0-.09,4.47,4.47,0,0,1-.41-.32s0,0,0,0,0-.13,0-.16,0,0-.09,0-.12-.18-.33-.13h0v-.11l.11-.1c-.08,0-.18,0-.19-.07l.1-.09c-.15.06-.09,0,.15-.24a1.89,1.89,0,0,0-.21.09c.25-.29-.14-.31-.34-.21a.58.58,0,0,0-.09-.27c-.11-.12-.19-.13-.41.18l-.15-.11-.18.31h0l0,0-.31.56h0l-.07.11c.06,0,.16,0,.2,0-.08.21,0,.26.06.27l.06.05a.84.84,0,0,1,.21.21c0,.06,0,.17.11.14l.06,0a.71.71,0,0,0,.31.17l0,.05,0,.07c-.27.32-.29.4-.18.48s0,.71.67.64l.35,0,.27.41c0,.06-.06.1,0,.09-.63.42-.32.56-.13.54l.12-.07c.07.07.32.16.17.35.13,0,.22-.06.35-.12l.07.11a4.33,4.33,0,0,0-.48.47c.47-.28.55-.18.58-.12s0,.1,0,.15l-.07.06c0,.07,0,.08.07.1l0,0c0,.1.09.07.35-.1l0,0c-.08.14-.23.31-.19.38s.25,0,.34,0a.25.25,0,0,0,.17,0l.24.29c-.08.26.06.3.17.41s.07.18.26.08h0a5.33,5.33,0,0,0,.89.73Zm-4.17-5.34-.06-.07,0,0Zm-.15-.34h0v0Z"/><path class="cls-2" d="M67.3,162l-.11-.1.09-.16c.13-.26,0-.12-.18-.09l-.16,0c-.13-.12-.26-.24-.39-.38a1,1,0,0,0,.17-.26s-.17.08-.23.08c-.31,0,.22-.66-.13-.59a.64.64,0,0,1-.47,0,.7.7,0,0,1-.1-.08l-.31-.39,0-.16c0-.18-.19-.11-.3-.15l0-.06a.2.2,0,0,1,0-.07c0-.07.13-.21.1-.24s-.12,0-.16,0a.08.08,0,0,0,0-.07c.05-.1.15-.21,0-.21a1.5,1.5,0,0,1-.2.14h0l.17-.23-.15.08c.21-.23.22-.36-.06-.21,0,0,0,0,0-.06s-.19,0-.31.07h0c0-.1,0-.16.29-.42l-.12.07c.11-.16-.07-.18-.4.05h0a.31.31,0,0,1,0-.08c.18-.22.16-.27,0-.24a.07.07,0,0,0,0-.07L64,158l0,0c0-.06,0-.13,0-.15h-.09c0-.08-.11-.14-.31-.07h0v-.11l.1-.1c-.08,0-.17,0-.18,0l.09-.1c-.14.08-.08,0,.14-.25-.07.05-.13.07-.19.12.22-.31-.13-.27-.32-.14a.57.57,0,0,0-.08-.25c-.1-.1-.17-.1-.37.22l-.14-.08-.16.31h0l0,.06-.29.56h0l-.07.12c.06,0,.16-.06.19,0-.08.21,0,.25.06.25l.05,0a.79.79,0,0,1,.2.17s0,.16.1.1l.06,0a.59.59,0,0,0,.29.11l0,0,0,.07c-.24.34-.26.41-.16.46s.05.64.66.47l.33-.08.26.33c0,.06-.06.1,0,.08-.58.48-.3.56-.11.51l.11-.08c.07,0,.31.1.16.29.13-.07.21-.09.33-.16l.07.09a4.59,4.59,0,0,0-.45.49c.44-.32.52-.24.55-.19s0,.09,0,.14l-.07.06c0,.07,0,.07.06.09l0,0c0,.08.09,0,.34-.14l0,0c-.08.13-.22.31-.19.36s.24,0,.32,0a.31.31,0,0,0,.16,0l.21.24c-.09.24,0,.26.14.35s0,.17.24.06h0a8.72,8.72,0,0,0,.71.64Zm-4-4.47-.06-.06,0,0Zm-.14-.3h0Z"/><path class="cls-2" d="M58.59,161.18,58.5,161a.87.87,0,0,0,.14-.12c.22-.21,0-.18-.16-.21l-.17,0L58,160c.09-.08.22-.18.22-.22s-.18,0-.25,0c-.33-.09.33-.68-.06-.73a.78.78,0,0,1-.51-.18l-.1-.12a5.58,5.58,0,0,0-.32-.52L57,158c0-.19-.22-.17-.33-.24l-.05-.07a.13.13,0,0,1,0-.08c0-.07.13-.22.09-.26s-.13,0-.17,0,0-.07,0-.09.15-.21,0-.23a1.73,1.73,0,0,1-.21.13h0l.17-.24-.15.07c.2-.24.19-.39-.1-.25a.07.07,0,0,0,0-.08s-.21,0-.32.06h0c0-.11,0-.18.25-.46l-.12.07c.09-.18-.12-.21-.43,0h0s0,0,0-.08c.16-.25.13-.31,0-.28a.18.18,0,0,0-.07-.08l-.5-.25,0,0c0-.07,0-.14,0-.17a.18.18,0,0,0-.1,0c-.07-.09-.18-.15-.37,0h0l0-.11.07-.12c-.08,0-.17,0-.2,0s.06-.09.06-.11-.09,0,.08-.28c-.06.06-.13.08-.18.14.13-.34-.23-.25-.39-.09a.5.5,0,0,0-.16-.23c-.12-.08-.19-.07-.32.28l-.17-.06-.1.34h0l0,.06-.18.61h0l0,.12c.07,0,.17-.07.22,0,0,.24.06.25.15.25l.08,0c.08,0,.2,0,.27.14s0,.18.14.1l.05,0a1,1,0,0,0,.33.08l0,0,0,.07c-.19.38-.19.45-.08.5.28.11.13.65.74.47a2.37,2.37,0,0,1,.34-.08c.1.12.2.25.29.38s0,.1,0,.08c-.6.47-.3.56-.12.54l.12-.08c.07.06.32.15.16.33l.35-.11.07.1c-.16.15-.41.34-.5.45.48-.27.55-.17.58-.11s0,.1,0,.15l-.08.05c0,.07,0,.08.06.11l-.06,0c0,.09.09.07.37-.07v0c-.09.13-.26.28-.24.35s.24,0,.32.07a.32.32,0,0,0,.17,0l.18.32c-.14.22,0,.28,0,.41s0,.18.23.14h0l.48.94Zm-4.36-5.9-.09,0v0ZM54,155Z"/><path class="cls-2" d="M254,337.67c0-1.54-1.17-3.14-1.84-4.47-.94-1.88-1.91-3.74-2.87-5.6q-2.91-5.57-6-11.07c-4.05-7.33-8.22-14.64-12.79-21.66a.72.72,0,0,0-1.17,0c-4.55,7-8.69,14.37-12.71,21.71q-3,5.51-5.92,11.09c-1,1.86-1.93,3.73-2.86,5.61-.66,1.33-1.83,2.93-1.82,4.47a.56.56,0,0,0,.29,1c2.34.16,4.78-.35,7.13-.48,2.14-.11,4.28-.19,6.43-.22,3.33,0,6.75.23,10.12.19s6.79-.25,10.12-.22c2.14,0,4.29.09,6.43.2,2.35.12,4.79.62,7.13.45A.56.56,0,0,0,254,337.67Zm-6.7-.83c-2.38-.15-4.77-.21-7.16-.24-3.3,0-6.75-.19-10.11,0-3.37-.16-6.82,0-10.12.06-2.39,0-4.77.11-7.15.26a42.81,42.81,0,0,0-5.39.48,19.73,19.73,0,0,0,1.75-3.38c.94-1.88,1.89-3.74,2.86-5.61q2.9-5.58,5.92-11.09c3.88-7,8-13.9,12.06-20.83,4.07,6.91,8.22,13.77,12.12,20.79,2,3.66,4,7.36,6,11.07q1.46,2.79,2.88,5.59a19.51,19.51,0,0,0,1.76,3.39A41,41,0,0,0,247.27,336.84Z"/><path class="cls-2" d="M241.78,323.18a12.25,12.25,0,0,0-6.79-6.25,10.75,10.75,0,0,0-10.06,0,12.28,12.28,0,0,0-6.77,6.27.5.5,0,0,0,0,.16.51.51,0,0,0,0,.17,12.27,12.27,0,0,0,6.8,6.25,10.73,10.73,0,0,0,10,0,12.22,12.22,0,0,0,6.77-6.27.26.26,0,0,0,0-.17A.24.24,0,0,0,241.78,323.18Zm-7.2,4.91a14.38,14.38,0,0,1-4,1.07c-.22,0-.44,0-.65,0s-.42,0-.64,0a14.5,14.5,0,0,1-4-1.05,24.24,24.24,0,0,1-6.55-4.73,23.92,23.92,0,0,1,6.54-4.74,14,14,0,0,1,3.95-1.07l.64-.06.65.06a14.34,14.34,0,0,1,3.95,1.05,24.11,24.11,0,0,1,6.55,4.72A23.92,23.92,0,0,1,234.58,328.09Z"/><path class="cls-2" d="M232.79,318.77a5.39,5.39,0,0,0-3.55-.76,4,4,0,0,0-2.28.67,5.37,5.37,0,0,0-2.26,4.44c-.16,4.13,4.76,6.09,8,4.37S235.76,320.65,232.79,318.77Z"/><path class="cls-2" d="M207.7,233.63a2.47,2.47,0,0,0-.63-.08,9.49,9.49,0,0,0-3.66,1.22l-.58.27a20.57,20.57,0,0,0-4.5,3.2l0,0a18.2,18.2,0,0,0-9.57-2.62,19.55,19.55,0,0,0-12.84,4.82,15.25,15.25,0,0,0-5,10.41c-.07.46-.11.87-.14,1.25a17.62,17.62,0,0,0,3,10.72l-.08.08a20.27,20.27,0,0,0-3.17,4.51c-.08.18-.18.37-.27.58-.63,1.29-1.47,3.06-1.13,4.3a2.1,2.1,0,0,0,2.22,1.67c1.56,0,3.56-1,5-1.8l.54-.28c1.3-.67,2.65-1.42,4-2.24a13.7,13.7,0,0,0,6.55,1.74h0l.71,0a23.11,23.11,0,0,0,13.44-5.87c5.32-4.92,6.64-12.87,3.3-19.81.87-1.42,1.67-2.86,2.38-4.27l.28-.54c.91-1.78,2.3-4.46,1.59-6.07A2.11,2.11,0,0,0,207.7,233.63Zm-33.4,29.94c.38.55.78,1.07,1.18,1.56a19,19,0,0,0,3.69,3.43,37.42,37.42,0,0,1-6.52,3.21c-.72.26-1.2.23-1.42-.12-.48-.75.15-2.77.66-3.87A20.13,20.13,0,0,1,174.3,263.57ZM201,261.91h0a2.09,2.09,0,0,0-1.11.55l-.19.15a13.65,13.65,0,0,0-1.44,1.29l-.06.07a.66.66,0,0,0-.15.75.72.72,0,0,0,.66.46.73.73,0,0,0,.35-.09l.12-.07a18.64,18.64,0,0,1-1.77,1.24,19.76,19.76,0,0,1-9.85,3.09,11.85,11.85,0,0,1-4.69-.91,61.13,61.13,0,0,0,5.94-4.48l.62-.54,2-1.68a46.63,46.63,0,0,0,5.84-5.86L198,255a4.08,4.08,0,0,0-.32.67,2.8,2.8,0,0,0,.27,2.49,1.66,1.66,0,0,0,1.29.73,1,1,0,0,0,.81-.4.79.79,0,0,0,.09-.78.62.62,0,0,0-.59-.34h0a.37.37,0,0,1-.31-.13,1.28,1.28,0,0,1-.1-1,4.37,4.37,0,0,1,.51-1.16l.16,0a2.22,2.22,0,0,0,.74.08.41.41,0,0,0,.33-.42c0-.64-.57-1-1.57-1.09h-.05a.78.78,0,0,0-.22,0l.41-.49a58.64,58.64,0,0,0,4.3-5.7,16.77,16.77,0,0,1,.57,1.64.72.72,0,0,0-.62-.35.53.53,0,0,0-.42.18,1.55,1.55,0,0,0-.17,1.11v.08c0,.26.08.52.12.78l0,.24a1.09,1.09,0,0,0,.33.74.59.59,0,0,0,.38.14.54.54,0,0,0,.38-.15,1.48,1.48,0,0,0,.3-1.18,14.78,14.78,0,0,1,.25,2.74,14.43,14.43,0,0,1-3.63,9.43,1.56,1.56,0,0,0,.13-.68A.4.4,0,0,0,201,261.91Zm1-15a69.2,69.2,0,0,1-6.33,7.94c-.73.71-1.46,1.47-2.15,2.2l-.48.5-.5.48c-.72.7-1.48,1.42-2.18,2.15a68.39,68.39,0,0,1-7.92,6.36l-1.44.95a18.66,18.66,0,0,1-8-11.38c-1.3-5.55,1.17-10.26,3.47-13.22a17.12,17.12,0,0,1,7.72-5,14.9,14.9,0,0,1,4.48-.69,16.63,16.63,0,0,1,14.16,8.46Zm-.68-6.3a16.43,16.43,0,0,0-2.22-1.82,20.08,20.08,0,0,1,4.13-2.37,8.63,8.63,0,0,1,3.1-.85,1.09,1.09,0,0,1,.94.33,1.42,1.42,0,0,1,0,1.26,37.78,37.78,0,0,1-3.28,6.69A18,18,0,0,0,201.27,240.57Z"/><path class="cls-2" d="M193.94,221.41a3.17,3.17,0,0,0,2,.66,3.35,3.35,0,0,0,3.27-2.31,3.51,3.51,0,0,0-.47-3,3.56,3.56,0,0,0-2.76-1.47,3,3,0,0,0-2.66,1.33,3,3,0,0,0-.3.63,2.78,2.78,0,0,0-.42,1.22A3.34,3.34,0,0,0,193.94,221.41Zm3.36-2.12a1.35,1.35,0,0,1-1.3.84,1.75,1.75,0,0,1-1.14-.43,1.59,1.59,0,0,1-.47-1.24,1.17,1.17,0,0,1,.05-.3,1.89,1.89,0,0,1,1.52-1h0a1.35,1.35,0,0,1,1.14.62A1.58,1.58,0,0,1,197.3,219.29Z"/><path class="cls-2" d="M220.92,253.53a3.38,3.38,0,0,0-2.62-1.24,2.59,2.59,0,0,0-1.12.24,3.11,3.11,0,0,0-1,.82,1.54,1.54,0,0,0-.76,1c-.34,1.1.58,2.34,1,2.83a2.09,2.09,0,0,0,1.66.76,3.71,3.71,0,0,0,3.3-2.45A2.2,2.2,0,0,0,220.92,253.53Zm-3.71,1.71a1.74,1.74,0,0,1,.35-.69,1,1,0,0,1,.81-.39,1.28,1.28,0,0,1,1.07.62.45.45,0,0,1,0,.5,1.9,1.9,0,0,1-1.58.74C217.59,256,217.36,255.54,217.21,255.24Z"/><path class="cls-2" d="M184.87,281.11A5.5,5.5,0,0,0,182,284.8a2.92,2.92,0,0,0,.55,2.38l0,0a3.58,3.58,0,0,0,3.31,2h0a4.24,4.24,0,0,0,3.88-2.52,4.51,4.51,0,0,0-.6-4.08C188.06,281,186.38,280.41,184.87,281.11Zm2.9,5.28a1.8,1.8,0,0,1-1.6,1,2.32,2.32,0,0,1-2.13-1.51,2.14,2.14,0,0,1,.59-2.08,2.64,2.64,0,0,1,.59-.43,2.38,2.38,0,0,0,.74-.56c.84-.11,1.57.93,1.76,1.24A2.3,2.3,0,0,1,187.77,286.39Z"/><path class="cls-2" d="M191.31,239.72a1.71,1.71,0,0,0-.53-1.26,1.67,1.67,0,0,0-1.25-.5,2.32,2.32,0,0,0-1.35.44.5.5,0,0,0-.19.52.4.4,0,0,0,.33.3,4.43,4.43,0,0,0,.51,0H189a2.09,2.09,0,0,1,.72.09.38.38,0,0,1,.17.11,1.7,1.7,0,0,1-.77.5,2.31,2.31,0,0,1-2.2-.39l.06-.08a.56.56,0,0,0,0-.56.66.66,0,0,0-.55-.37,1.34,1.34,0,0,0-1.17.55.78.78,0,0,0-.1.94,4.26,4.26,0,0,0,3.33,1.67h0a3.19,3.19,0,0,0,2.15-.79A1.67,1.67,0,0,0,191.31,239.72Z"/><path class="cls-2" d="M181.76,249.54a1.09,1.09,0,0,0-1.09.87.48.48,0,0,0,.08.45.55.55,0,0,0,.56.2.77.77,0,0,1,1,.42.85.85,0,0,1-.13,1.09.69.69,0,0,1-.5.19,1.15,1.15,0,0,1-.47-.11c-.2-.1-.86-.81-.78-1a.39.39,0,0,0,.21-.46.46.46,0,0,0-.61-.3,1.26,1.26,0,0,0-.79.91,2.34,2.34,0,0,0,.74,1.92,2.2,2.2,0,0,0,1.64.68,2.68,2.68,0,0,0,1.74-.66,2.37,2.37,0,0,0,.18-3.21A2.49,2.49,0,0,0,181.76,249.54Z"/><path class="cls-2" d="M191.67,245.58a.69.69,0,0,0-.79.34.67.67,0,0,0,0,.67l.12.17a.88.88,0,0,1,.22.48c0,.1,0,.24-.33.39-.12.07-.29,0-.44-.15s-.14-.26-.12-.5,0-.21,0-.32a.53.53,0,0,0-.63-.49.85.85,0,0,0-.63.45,2,2,0,0,0,0,1.57,1.92,1.92,0,0,0,1.75,1.05h0l.28,0a2,2,0,0,0,1.64-1.57A1.83,1.83,0,0,0,191.67,245.58Z"/><path class="cls-2" d="M199.18,244.62l-.13-.16a.35.35,0,0,0,.41-.16.36.36,0,0,0,0-.36,1.41,1.41,0,0,0-1.11-.81.83.83,0,0,0-.6.27c-.68.68,0,1.58.42,2.13l.09.11c.42.56,1.12,1.5,2,1.5h.18a1.1,1.1,0,0,0,.92-.78.82.82,0,0,0-.41-.87.5.5,0,0,0-.61.07l-.12.12-.56-.48C199.5,245,199.34,244.81,199.18,244.62Z"/><path class="cls-2" d="M191.24,255.43a2.18,2.18,0,0,0-1.94.76,2.24,2.24,0,0,0-.6,1.94,1.13,1.13,0,0,0,1,.93.91.91,0,0,0,.58-.22.47.47,0,0,0,.13-.47l0-.06c-.14-.43-.21-.65.06-1a.58.58,0,0,1,.46-.27,1.66,1.66,0,0,1,.6.18l.14.06a.67.67,0,0,0,.28.06.58.58,0,0,0,.59-.57A1.41,1.41,0,0,0,191.24,255.43Z"/><path class="cls-2" d="M180,259.28a1.83,1.83,0,0,0-.4,0,1.86,1.86,0,0,0-1.66,1.93,1.26,1.26,0,0,0,.23.77,1,1,0,0,0,.81.34h0a.46.46,0,0,0,.44-.36,1.63,1.63,0,0,0,0-.62.49.49,0,0,1,.06-.4c.1-.12.37-.1.64.06a1.64,1.64,0,0,1,.86,1.65l-.18,0a.46.46,0,0,0-.36.32.59.59,0,0,0,.1.54,1.54,1.54,0,0,0,.57.44.66.66,0,0,0,.33.09h0a.73.73,0,0,0,.61-.35,2.42,2.42,0,0,0,.19-2.29A3.5,3.5,0,0,0,180,259.28Z"/><path class="cls-2" d="M176.39,244.77a1.05,1.05,0,0,0-1,.85.45.45,0,0,0,.07.42.53.53,0,0,0,.42.2.37.37,0,0,0,.2,0,.66.66,0,0,0,.27-.12.36.36,0,0,1,.11.37.06.06,0,0,0,0,0,4,4,0,0,1-.28,1.15l-.07.19a4.24,4.24,0,0,1-.73,1.24c-.12.15-.19.16-.22.16s-.25-.21-.35-.37a2.64,2.64,0,0,0-.28-.36.38.38,0,0,0-.57.08,1.36,1.36,0,0,0-.13,1,1.15,1.15,0,0,0,.55.7,1.69,1.69,0,0,0,.76.2h0a1.8,1.8,0,0,0,1.2-.52,4.39,4.39,0,0,0,.92-2.33l0-.18A3.47,3.47,0,0,0,177,245,.55.55,0,0,0,176.39,244.77Z"/><path class="cls-2" d="M190.3,265.78a1.37,1.37,0,0,0-1.08,1.65,1.2,1.2,0,0,0,1.18.86,1.08,1.08,0,0,0,.57-.16.45.45,0,0,0,.16-.6,1,1,0,0,0-.17-.25l0,0a.18.18,0,0,1-.07-.05c.36-.12.72-.22,1-.3a4.89,4.89,0,0,1,2.28,0h.08a.45.45,0,0,0,.39-.23.38.38,0,0,0,0-.4C193.92,265.22,192.42,265,190.3,265.78Z"/><path class="cls-2" d="M311.22,266.41a17.2,17.2,0,0,0-1.79-.43l-1.14,0c-.93.05-1.86.11-2.79.21a11.81,11.81,0,0,1-2.11.31l-.5.09c-.87.19-1.73.4-2.59.65l-.3.09c-.2.14-.39.27-.58.42a16.31,16.31,0,0,0-7.78,10.64,17.45,17.45,0,0,0-.07,8.53c1.32,5.63,6.06,9.66,11.41,11.31,5.84,1.79,12.14-.57,16.27-4.78C328.09,284.47,322.41,269.79,311.22,266.41Zm8.11,24.64c-6.18,9.51-20.34,7.41-25.35-1.88-2.53-4.68-1.69-10.37.95-14.75a22.56,22.56,0,0,1,3.08-4,14.76,14.76,0,0,1,11.87-3C320.86,269.33,325.05,282.24,319.33,291.05Z"/><path class="cls-2" d="M300.53,272.3a3.68,3.68,0,0,0-2.07,1.44,4.89,4.89,0,0,0-1.27,2.23c-.13.71.6,1.46,1.31,1a8.92,8.92,0,0,0,1.62-1.57c.25-.29.53-.54.79-.82a3.26,3.26,0,0,0,.69-1.21C301.84,272.69,301.12,272.2,300.53,272.3Z"/><path class="cls-2" d="M312.19,271.3a2.27,2.27,0,0,0-1.57-1,2.18,2.18,0,0,0-1.91.51.81.81,0,0,0,.35,1.35c.3.07.65.19,1,.28s.61.32.95.43A1.07,1.07,0,0,0,312.19,271.3Z"/><path class="cls-2" d="M305.37,275a2.63,2.63,0,0,0-1.76.57,1,1,0,0,0,.21,1.62c.9.52,3,.34,3-1C306.8,275.33,306,275,305.37,275Z"/><path class="cls-2" d="M317.55,276.76a4.17,4.17,0,0,0-1.15-.89,2,2,0,0,0-.63-.19c-.25,0-.49.13-.72.05s-.2.09-.13.17a.56.56,0,0,1,0,.4,1.4,1.4,0,0,0,.17.56,5.51,5.51,0,0,0,.77,1.19c.48.65.94,1.74,1.69,2.07.48.21,1.22.09,1.33-.54C319.09,278.48,318.25,277.54,317.55,276.76Z"/><path class="cls-2" d="M313.58,279.69a.7.7,0,0,0-1.19-.48,1.09,1.09,0,0,0-.44,1,1.07,1.07,0,0,0,.7,1,.75.75,0,0,0,.83-.34A2,2,0,0,0,313.58,279.69Z"/><path class="cls-2" d="M301.28,280.62c0-.81-1.14-1.43-1.73-.72a4.31,4.31,0,0,0-.88,2.5c-.07.86.1,2.14,1,2.54a.88.88,0,0,0,1.05-.14,2.66,2.66,0,0,0,.44-1.89C301.13,282.14,301.3,281.38,301.28,280.62Z"/><path class="cls-2" d="M296,281a.61.61,0,0,0-.77-.59c-1.7.48-2.14,4-.44,4.67a.68.68,0,0,0,.79-.32,4.35,4.35,0,0,0,.08-1.8C295.69,282.28,296.06,281.66,296,281Z"/><path class="cls-2" d="M307.5,293c-.42-.66-1.22-.78-1.88-1.12a5.75,5.75,0,0,0-1.91-.89.69.69,0,0,0-.69.69,2.79,2.79,0,0,0,1.53,2.05c.72.48,1.82,1,2.64.47A.89.89,0,0,0,307.5,293Z"/><path class="cls-2" d="M308.33,283.29a.53.53,0,0,0-.88.52c.14.49.4.9,0,1.37-.1.12-.44.17-.58.21a1.18,1.18,0,0,1-.67,0c-.38-.11-.47-.5-.5-.84a2.89,2.89,0,0,1,0-.72.6.6,0,0,0-.18-.68c-.39-.24-.8.11-1.06.38a1.9,1.9,0,0,0-.52,1.42,2.57,2.57,0,0,0,2,2.4,2.49,2.49,0,0,0,1.68-.17,2.15,2.15,0,0,0,1-1.11A2.52,2.52,0,0,0,308.33,283.29Z"/><path class="cls-2" d="M318.2,288.39a.86.86,0,0,0-1.05-.6c-.64.25-.88.85-1.35,1.28s-1.19,1-.63,1.6,1.56.07,2.07-.33S318.43,289.18,318.2,288.39Z"/><path class="cls-2" d="M297.28,206.6a43.65,43.65,0,0,0-4.52-2.19c-1.51-.84-3.07-1.59-4.62-2.44a14.91,14.91,0,0,0-4.93-1.86c-.11-.41-.26-.84-.39-1.31-1.18-4.41-4.81-11.05-9.92-10.89-5.11-.14-8.71,6.51-9.88,10.92-.12.48-.27.91-.38,1.32a14.93,14.93,0,0,0-4.93,1.87c-1.54.86-3.1,1.61-4.61,2.46a43.59,43.59,0,0,0-4.51,2.2.92.92,0,0,0,0,1.55l.73.45a40.46,40.46,0,0,0,11.56,9.14,28.76,28.76,0,0,0,7.52,2.84,18.19,18.19,0,0,0,4.56.55,18.67,18.67,0,0,0,4.56-.56,29,29,0,0,0,7.51-2.87,40.51,40.51,0,0,0,11.53-9.18c.24-.15.49-.3.72-.46A.9.9,0,0,0,297.28,206.6ZM272.91,190c5.19.59,7.27,5.93,8.58,10.94a11.1,11.1,0,0,1-8.56,3.12,12.81,12.81,0,0,1-3.42-.26,12.36,12.36,0,0,1-5.15-2.83C265.65,195.93,267.71,190.58,272.91,190Zm12,26.06a31.08,31.08,0,0,1-7.06,2.91,40.54,40.54,0,0,1-4.9.75,42.41,42.41,0,0,1-4.91-.73,31.28,31.28,0,0,1-7.07-2.89,43.09,43.09,0,0,1-6.16-4.38,41.87,41.87,0,0,0,15.41,3.7c.87,0,1.8.07,2.72.05s1.85,0,2.72-.06a41.21,41.21,0,0,0,7.17-1,40.09,40.09,0,0,0,8.23-2.78A43.92,43.92,0,0,1,284.92,216Zm-1.79-3.51a42.68,42.68,0,0,1-7.46,1.13q-.68,0-1.38,0H273c-.45,0-.9,0-1.35,0s-.92,0-1.37,0a40.72,40.72,0,0,1-19.44-6.15,50.14,50.14,0,0,1,12.86-4.76,15.21,15.21,0,0,0,3.2,2,16.13,16.13,0,0,0,12.16,0,15.25,15.25,0,0,0,3.2-2,50.67,50.67,0,0,1,12.88,4.71A42.59,42.59,0,0,1,283.13,212.52Z"/><path class="cls-2" d="M271.54,191.17c-.89.27-.76,1.82.23,1.7a5.09,5.09,0,0,1,4.1,1,12.3,12.3,0,0,1,2.62,3.63.2.2,0,0,0,.36-.1A5.8,5.8,0,0,0,271.54,191.17Z"/><path class="cls-2" d="M264.05,221.45c-1.61,1.59-2.26,4.41-3.07,6.49-1,2.64-2.32,5.43-2.7,8.25a.46.46,0,0,0,.83.35c1.37-2.26,2.08-4.93,3-7.39.87-2.29,2.46-5,2.41-7.49A.29.29,0,0,0,264.05,221.45Z"/><path class="cls-2" d="M269.1,222.54c0-.3-.47-.51-.63-.17-1.34,2.86-1.44,6.52-1.88,9.63s-1.4,6.68-1,9.83a.28.28,0,0,0,.54.07c1.18-2.9,1.23-6.47,1.73-9.55S269.42,225.71,269.1,222.54Z"/><path class="cls-2" d="M281.87,221.42c1.61,1.59,2.28,4.4,3.09,6.47,1,2.64,2.34,5.43,2.74,8.25a.46.46,0,0,1-.83.35c-1.38-2.25-2.1-4.92-3.05-7.38-.87-2.28-2.48-5-2.44-7.48A.29.29,0,0,1,281.87,221.42Z"/><path class="cls-2" d="M276.82,222.53c0-.31.48-.52.64-.18,1.34,2.86,1.46,6.52,1.91,9.63s1.43,6.67,1.05,9.82a.28.28,0,0,1-.54.08c-1.19-2.9-1.25-6.47-1.76-9.55S276.52,225.7,276.82,222.53Z"/><path class="cls-2" d="M260,205a1.94,1.94,0,0,0-1.76.19,6.75,6.75,0,0,0-1.82,1.1c-.7.61.19,1.56.93,1.21.57-.28,1.11-.65,1.67-1s1-.53,1.15-1.1A.39.39,0,0,0,260,205Z"/><path class="cls-2" d="M262,206.93a2.22,2.22,0,0,0-1,.73,1.87,1.87,0,0,0-.57,1.09.53.53,0,0,0,.53.53,1.88,1.88,0,0,0,1.11-.54,2.18,2.18,0,0,0,.77-1A.68.68,0,0,0,262,206.93Z"/><path class="cls-2" d="M266.33,208.52a.7.7,0,0,0-1.14.2,2.44,2.44,0,0,0-.1.24c.08-.21-.12.29,0,.08l-.08.19-.12.27a.63.63,0,0,0,.6.79,1.2,1.2,0,0,0,.91-.56A1,1,0,0,0,266.33,208.52Z"/><path class="cls-2" d="M269.48,209.45a.44.44,0,0,0-.1.15.66.66,0,0,0-.18.19.67.67,0,0,0,.24.9.78.78,0,0,0,1.21-.67A.72.72,0,0,0,269.48,209.45Z"/><path class="cls-2" d="M275.29,209.29a.68.68,0,0,0-.65.66.66.66,0,1,0,1.31,0A.67.67,0,0,0,275.29,209.29Z"/><path class="cls-2" d="M284.55,55.56a10.47,10.47,0,0,0-.07-3.78c0-.14,0-.29,0-.46s-.07-.33-.12-.52a3.48,3.48,0,0,0-1.6-2.09,4,4,0,0,0-1.25-.48,5.24,5.24,0,0,0-1.39-.08l-.17,0-.06,0a2.28,2.28,0,0,0-.53.37,2.37,2.37,0,0,0-.45.59,3.22,3.22,0,0,0-.29.59,7.53,7.53,0,0,0-.35,1.15,32.49,32.49,0,0,0-.93,6.44c-.14,2.14-.19,4.28-.21,6.42a9.31,9.31,0,0,0-.3,1.68c0,.85.18,1.43.23,2.26a46.85,46.85,0,0,1-.06,6.18,53.29,53.29,0,0,0-.24,6c.1,2.5.12,4.7,0,7.28,0,.9-.08,1.81-.11,2.73-.08,1.84-.15,3.68-.17,5.53s0,3.72,0,5.53c0,.7-.09,1.4-.16,2.07-.2,2.41,0,4.62-.06,6.77l-.06,1.57c0,.34-.06.68-.1,1-.09.72-.31,1.86-.33,2.64,0,.56.07,1.15.08,1.7s-.09,1-.11,1.43a14.42,14.42,0,0,0-.28,3.08c.1,0,.15.25.23.37v.28c-.12.48-.21,1-.34,1.47,0,.25.08.48.13.71a10.78,10.78,0,0,0-.3,4.42c0,.37-.07.76-.08,1.17a22.39,22.39,0,0,0,.15,2.81l0,.38a9.74,9.74,0,0,1-.63,3l.1.59a11.07,11.07,0,0,0,.12,4.52v.1l-.12,1a9.61,9.61,0,0,0-.35,3.33c-.05.56-.09,1.14-.11,1.76-.1,2.89-.21,5.86-.32,8.93l0,.83c-.09.67-.18,1.34-.22,2a11.16,11.16,0,0,0,0,1.17,42.58,42.58,0,0,0-.12,5.38v.09c0,.48-.11.95-.16,1.43-.05,0-.09,0-.14.05a29.2,29.2,0,0,1-.07,2.93c0,.12-.11,0-.13,0,.1,1,0,1.45-.35,1.26.07.27.09.92.15,1.23-.4.72-.37,4.55-.23,6-.13,1.17-.25,2.33-.34,3.5-.15,2.1-.16,3,.21,3.1l-.15,2.8.36,0v.06a.2.2,0,0,1,.07-.06l.63,0v-.18l.13.05c.05-1.65,0-3,.13-4.41a32.48,32.48,0,0,0,.46-5.26c0-.56.06-1.14.09-1.79.12-2.22.21-4.45.36-6.68a30.59,30.59,0,0,0,.2-3.68,2.45,2.45,0,0,0,0-.39c.11-2.15.17-4.3.21-6.47l.08-1.41.1-.41a20.67,20.67,0,0,0,.72-5.55c.2-5.79,1-12.14.7-17.78,0-1.13-.1-2.17-.15-3.22l.44-9.28a5.2,5.2,0,0,0,.1-1.49c.77-.23.82-5.48.71-7.19,0-.08-.09,0-.13-.06a70.72,70.72,0,0,1,.3-7.07c-.13-.63-.18-1.38-.31-1.91,0-.78,0-1.55,0-2.33a12.15,12.15,0,0,0,.66-2.24c-.56-.59-.59-2.87-.55-4.17,0-.59.1-1.51.14-2.39,0-.06.07-.09.1-.08.09-.77.07-1.49.09-2.26a.44.44,0,0,1,.05.13,3.64,3.64,0,0,0-.24-2.35l0-.67a25.74,25.74,0,0,0,.56-3.37c.08-1.38-.06-2.89-.06-4.32a18.65,18.65,0,0,0-.08-1.89c.07-2.26.06-4.55,0-6.8.18-2.51.06-4.66.08-7.33a36.25,36.25,0,0,0,0-4.31v-.05c.08-1.8.2-3.6.45-5.37a18.55,18.55,0,0,1,.52-2.61,6.12,6.12,0,0,1,.44-1.18,1.69,1.69,0,0,1,.65-.78l-.14,0a3.45,3.45,0,0,1,1.83.51,3.11,3.11,0,0,1,1.22,1.45,7.64,7.64,0,0,1,.29,4.1ZM273.24,170.83l-.08,1.63-.05,0Zm-.43,5.71h0v0Z"/><path class="cls-2" d="M278,84.18v-.71a1,1,0,0,0,.17-.18c.3-.32.08-.61,0-1l-.11-.45c0-.86.06-1.71.11-2.57.12-.1.29-.19.32-.31s-.15-.3-.19-.47c-.19-.89.73-1.56.5-2.41a4.56,4.56,0,0,1-.2-1.5l0-.54.28-2.21.19-.4a3.19,3.19,0,0,0,.06-1.37l0-.31a.82.82,0,0,1,.09-.19c.09-.13.29-.32.31-.48s-.07-.24-.08-.36a1.43,1.43,0,0,0,.09-.27c.13-.19.3-.24.27-.57a1,1,0,0,1-.23-.12v-.06a2.8,2.8,0,0,1,.33-.24l-.13-.17a.54.54,0,0,0,.27-.84.63.63,0,0,0,.08-.23,1.22,1.22,0,0,0-.15-.61l0-.07a.79.79,0,0,1,.61-.47l-.1-.15a.64.64,0,0,0-.1-1v0l.11-.18c.34-.15.41-.35.36-.59a1.23,1.23,0,0,0,.11-.34c.1-.57.22-1.15.38-1.74a.75.75,0,0,1,.05-.16,1.05,1.05,0,0,0,.23-.36.65.65,0,0,0,0-.24,1.94,1.94,0,0,0,.2-1.06v0l.18-.23c.05,0,.09,0,.13,0a1.15,1.15,0,0,1,.14-.57s.1,0,.12,0c-.07-.23.07-.27.35-.11-.06-.08-.05-.22-.1-.3.39,0,.47-.72.43-1.05.16-.16.32-.3.45-.45s.28-.34,0-.63a1.24,1.24,0,0,1,.31-.24l-.17-.31h0l0,0-.3-.56,0,0-.05-.12c-.41.27-.52.58-.75.81a1.37,1.37,0,0,0-.78.87l-.18.34c-.22.42-.38.87-.59,1.28-.11.22-.32.45-.29.71a.54.54,0,0,0,0,.1,8,8,0,0,0-.32,1.3l-.09.27-.1,0a1.15,1.15,0,0,0-.76,1c-.24,1.17-1,2.32-.76,3.57l.15.71c-.14.62-.28,1.23-.41,1.85a.27.27,0,0,0-.1.29c-.75-.1-.78,1-.67,1.39l.14,0c0,.39,0,1.21-.27,1.43.13.14.18.3.3.43l-.06.46c-.23.13-.56.19-.71.37a.72.72,0,0,1,.43.91c0,.12-.1.3-.14.48h-.09a.85.85,0,0,0-.06.45.09.09,0,0,1-.06,0c-.1.22,0,.41.3.51l0,.14c-.17.22-.41.38-.46.64a4.87,4.87,0,0,0,.16.9,1.3,1.3,0,0,0,.1.4l-.11,1.37a3.24,3.24,0,0,0-.25,1.48c0,.27-.11.64.09.89h0c-.07,1.34-.11,2.68-.1,4Zm4.32-25.86.13-.29h0Zm.59-.94h0l0,0Z"/><path class="cls-2" d="M276.77,82.75c-.1-.24-.2-.46-.29-.7a1.73,1.73,0,0,0,.1-.24c.15-.42-.15-.65-.37-1l-.27-.43c-.26-.91-.49-1.83-.71-2.76.08-.14.21-.29.2-.43s-.24-.28-.32-.44c-.46-.9.21-1.89-.28-2.73a5.77,5.77,0,0,1-.64-1.54l-.12-.59c-.13-.81-.26-1.63-.34-2.43,0-.16,0-.32.08-.47.11-.55-.14-.92-.17-1.44l0-.36a.9.9,0,0,1,.06-.22,2.13,2.13,0,0,0,.25-.59,3,3,0,0,0-.14-.39,1.25,1.25,0,0,0,.05-.32c.11-.23.26-.33.18-.69a.85.85,0,0,1-.24-.09v-.06a2.15,2.15,0,0,1,.29-.32l-.16-.17a.65.65,0,0,0,.13-1,.8.8,0,0,0,.05-.26,1.74,1.74,0,0,0-.26-.65v-.08a.89.89,0,0,1,.53-.64l-.13-.14a.75.75,0,0,0-.26-1v0l.08-.22a.6.6,0,0,0,.25-.73,2.32,2.32,0,0,0,.06-.38c0-.65,0-1.31.09-2a1.1,1.1,0,0,0,0-.18,1.64,1.64,0,0,0,.18-.44.59.59,0,0,0,0-.27,2.33,2.33,0,0,0,0-1.2v0l.13-.3a.71.71,0,0,0,.14,0,1.31,1.31,0,0,1,0-.65s.11,0,.13,0c-.11-.24,0-.32.33-.22-.07-.07-.09-.22-.16-.31.4-.07.36-.94.23-1.29a4.66,4.66,0,0,0,.35-.71c.16-.43.19-.62-.16-.76l.19-.59-.34-.11h-.05L275,50l0,0-.12,0a6.4,6.4,0,0,1-.2,1,1.75,1.75,0,0,0-.5,1.12l-.1.4c-.13.49-.21,1-.34,1.49a1.72,1.72,0,0,0-.17.83,1,1,0,0,1,0,.1,8.93,8.93,0,0,0-.11,1.47l-.05.32-.09.08a1.34,1.34,0,0,0-.6,1.21c-.06,1.33-.66,2.75-.16,4.06l.27.75-.11,2.09a.33.33,0,0,0-.05.34c-.76,0-.62,1.22-.47,1.61.05,0,.1,0,.15,0a4.38,4.38,0,0,1-.08,1.66c.15.14.23.31.39.42a4.53,4.53,0,0,0,.05.53c-.2.2-.5.35-.6.59.56.07.64.58.67.88,0,.14,0,.35,0,.55l-.1,0a1.27,1.27,0,0,0,.08.51l-.06,0c0,.26.11.45.43.47l0,.15c-.1.29-.29.52-.25.82a6.33,6.33,0,0,0,.43.92,1.11,1.11,0,0,0,.22.39l.31,1.5a3.79,3.79,0,0,0,.23,1.66c.07.29.09.71.36.92h0a29.58,29.58,0,0,0,1.37,4.32ZM274.94,54l.08-.36h0Zm.42-1.21h0l0,0Z"/><path class="cls-2" d="M214.13,124.46l.64,0,.15.18c.29.29.56.06.87,0l.39-.14c.76,0,1.51,0,2.26-.1.1.1.2.26.32.27s.24-.18.38-.24c.74-.32,1.48.47,2.18.07a4,4,0,0,1,1.23-.51l.48-.09c.64-.09,1.28-.2,1.92-.32l.39.07c.45.07.79-.24,1.15-.37l.27-.06a.65.65,0,0,1,.19,0c.14,0,.38.15.51.11s.17-.16.26-.22a.74.74,0,0,0,.26,0c.2,0,.32.18.57,0a1.13,1.13,0,0,1,0-.26l0,0a2.79,2.79,0,0,1,.33.19c0-.06.05-.12.08-.19.28.24.64.23.78-.14a.52.52,0,0,0,.21,0c.18-.07.27-.26.39-.42l.07,0a.76.76,0,0,1,.67.28l0-.16c.26.11.67-.19.64-.61H232c.31.19.49.12.63-.06a1.21,1.21,0,0,0,.3-.11l1.4-.88.13-.08a1,1,0,0,0,.38-.11.41.41,0,0,0,.15-.17,1.46,1.46,0,0,0,.71-.72h0l.26-.12s.06.08.1.1a1.24,1.24,0,0,1,.35-.44s.08.09.1.1c0-.24.16-.24.37,0,0-.1,0-.22,0-.32.19.08.37-.09.49-.32a1.26,1.26,0,0,0,.17-.69,2,2,0,0,0,.47-.57c.22-.4.24-.59-.12-.73l.14-.54-.34-.06h-.06l-.62-.11v0l-.13,0c0,.24,0,.48-.1.67a.81.81,0,0,0-.32.28,1.27,1.27,0,0,0-.2.36,1,1,0,0,1-.15.23,4.3,4.3,0,0,1-.69.79c-.15.12-.4.17-.46.38v.09c-.28.22-.53.47-.81.73l-.2.12-.1,0a.87.87,0,0,0-1,.07c-.81.53-2,.48-2.68,1.32-.14.17-.28.33-.42.47-.51.16-1,.31-1.54.45-.1,0-.19-.06-.26,0-.23-.71-1.05-.32-1.3-.1,0,0,0,.09,0,.14-.3.1-.94.39-1.2.2-.07.17-.18.26-.25.42l-.39.07c-.17-.19-.32-.48-.5-.58a.6.6,0,0,1-.62.66c-.1,0-.27,0-.42,0a.16.16,0,0,1,0-.09.74.74,0,0,0-.39,0,.14.14,0,0,1,0-.06c-.21,0-.34.09-.36.41h-.11c-.22-.12-.41-.32-.63-.3s-.47.25-.71.33a.91.91,0,0,0-.31.18l-1.17.12a2.32,2.32,0,0,0-1.28,0c-.23,0-.54,0-.74.17h0c-1.13.06-2.28.09-3.39,0Zm22.34-5.57.21-.22,0,0Zm.81-.75h0l0,0Z"/><path class="cls-2" d="M236.85,124.41a4.3,4.3,0,0,1,.6-.08.79.79,0,0,0,.14.17c.21.3.37.09.55.07a.31.31,0,0,1,.21,0,1,1,0,0,1,.08.76,3.11,3.11,0,0,1-.38,1c-.14,0-.33,0-.4.09s0,.25,0,.39c-.13.34-.53.43-.88.46a1.55,1.55,0,0,0-1,.32,3.07,3.07,0,0,1-1.19.74l-.5.14c-.7.17-1.41.31-2.1.44l-.42-.07c-.48-.08-.86.22-1.27.31l-.3,0a.64.64,0,0,1-.2,0c-.15,0-.38-.21-.53-.19s-.21.13-.32.18a1.24,1.24,0,0,0-.27,0c-.21-.07-.3-.23-.6-.12a1.31,1.31,0,0,1-.06.25l-.06,0a3.58,3.58,0,0,1-.29-.26,1.09,1.09,0,0,0-.13.17c-.24-.3-.61-.39-.86-.07a.46.46,0,0,0-.23,0,1.24,1.24,0,0,0-.54.29h-.08a.82.82,0,0,1-.58-.49l-.11.13a.62.62,0,0,0-.89.31h0l-.19-.07c-.23-.3-.42-.32-.65-.22a1.87,1.87,0,0,0-.34,0c-.57,0-1.15.06-1.75.05h-.17a1.2,1.2,0,0,0-.39-.13.6.6,0,0,0-.24.05,1.88,1.88,0,0,0-1.07.11h0l-.28-.1s0-.09,0-.14a1.05,1.05,0,0,1-.58,0s0-.1,0-.12c-.2.13-.29,0-.23-.3-.06.08-.19.12-.26.2-.12-.37-.89-.17-1.18,0a3.43,3.43,0,0,0-.7-.18c-.41-.06-.59,0-.62.35l-.56,0v.35h0v.06l0,.63h0l0,.13a4.55,4.55,0,0,1,.87-.07,1.37,1.37,0,0,0,1,.22h.35c.44,0,.88,0,1.31.07.24,0,.5.17.73.06,0,0,.05,0,.08-.06a7.88,7.88,0,0,0,1.28-.05h.28l.07.09a1.07,1.07,0,0,0,1.08.49c1.15,0,2.41.49,3.55-.07l.64-.3c.61,0,1.23,0,1.85,0a.24.24,0,0,0,.3,0c.08.76,1.14.5,1.47.31,0-.05,0-.09,0-.15.37-.06,1.14-.29,1.42-.11.11-.16.25-.26.33-.41l.46-.07c.18.18.35.47.56.56a.72.72,0,0,1,.72-.7c.12,0,.31,0,.48,0a.36.36,0,0,1,0,.09.94.94,0,0,0,.44-.09.18.18,0,0,1,0,.06c.24,0,.39-.13.38-.45l.13,0c.27.09.5.26.77.19s.52-.36.77-.52a.88.88,0,0,0,.32-.27,6.33,6.33,0,0,0,1.26-.71,2,2,0,0,0,1.17-1.17c.14-.25.39-.6.26-.93h0a2.87,2.87,0,0,0,.14-1.14,1.63,1.63,0,0,0-.62-1.16,2.15,2.15,0,0,0-1.17-.37c-.19,0-.37,0-.56,0l-.52.09ZM218.36,129H218v0Zm-1.13-.19h0Z"/><path class="cls-2" d="M230.48,295.26c0-1,0-2,.09-3q.1-.32.21-.72a15.93,15.93,0,0,0,.26-4.11c0-.63,0-1.27.06-1.9.36-3.63,1-7.21,1.5-10.85a7,7,0,0,0,.47-1.4,15.88,15.88,0,0,0,0-1.95c.18-3.74,1.32-6.87,1.21-10.46-.05-2.16-.13-4.06-.07-6.28,0-.77,0-1.56,0-2.35.07-3.16.05-6.33,0-9.5,0-.61.06-1.21.09-1.8a43,43,0,0,0-.34-5.82l-.06-1.36a8.42,8.42,0,0,1,0-.87c0-.63.14-1.62.09-2.29,0-.49-.17-1-.24-1.45s0-.83,0-1.23a10.36,10.36,0,0,0,0-2.66c-.11,0-.19-.2-.28-.29l0-.24c.06-.43.1-.89.18-1.3-.07-.21-.14-.4-.21-.59a7.75,7.75,0,0,0-.24-3.8c0-.33,0-.66-.06-1a16.34,16.34,0,0,0-.52-2.37l0-.33a7.23,7.23,0,0,1,.24-2.62l-.18-.49a8.42,8.42,0,0,0-.69-3.82v-1a7.26,7.26,0,0,0,0-2.87c0-.48-.05-1-.11-1.51q-.37-3.71-.72-7.63l-.05-.72c0-.58,0-1.17,0-1.77a8.31,8.31,0,0,0-.14-1,31.52,31.52,0,0,0-.54-4.59v-.08l0-1.23s.09,0,.13-.06a21.56,21.56,0,0,1-.3-2.51c0-.1.11,0,.13,0-.22-.8-.15-1.23.18-1.11-.1-.22-.2-.78-.31-1,.31-.67-.25-3.93-.59-5.11-.05-1-.09-2-.2-3-.18-1.8-.3-2.54-.69-2.59l-.32-2.39-.35.05v-.05l-.06.06-.62.09,0,.15h-.14c.22,1.39.47,2.51.59,3.73a25.34,25.34,0,0,0,.34,4.51c.05.48.1,1,.15,1.53.19,1.89.41,3.8.54,5.71a26.94,26.94,0,0,0,.26,3.15,1.78,1.78,0,0,0,.09.33c.16,1.84.34,3.67.56,5.53l.09,1.2-.05.36a15.25,15.25,0,0,0-.07,4.82c.47,5,.43,10.46,1.49,15.22.2,1,.38,1.82.57,2.71q.38,4,.67,7.94a4.28,4.28,0,0,0,0,1.28c-.73.28-.25,4.74,0,6.19.05.06.09,0,.15,0a40.28,40.28,0,0,1,.21,6.05c.16.53.25,1.16.4,1.61l.06,2a9.51,9.51,0,0,0-.63,1.91c.55.51.59,2.48.56,3.6,0,.5,0,1.29-.08,2,0,.05-.06.08-.09.08a17.71,17.71,0,0,0,0,1.93.27.27,0,0,1-.06-.11,2.82,2.82,0,0,0,.31,2v.57a19.32,19.32,0,0,0-.5,2.89c0,1.18.08,2.47.06,3.69,0,.7,0,1.18,0,1.62-.16,1.93-.28,3.86-.5,5.79-.42,2.11-.58,3.94-.87,6.22a20.84,20.84,0,0,0-.41,3.69v0c-.45,2.8-.8,5.61-1.07,8.43s-.47,5.64-.48,8.49Zm-.59-112.55-.13-1.39,0,0Zm-.34-4.91h0v0Z"/><path class="cls-2" d="M291.08,26.06c-.16.23-.3.49-.47.7l-.26,0c-.44.09-.47.44-.65.69a1.44,1.44,0,0,1-.24.25.62.62,0,0,1-.36-.09,1.59,1.59,0,0,1-.41-.41A5.79,5.79,0,0,1,288,26c.06-.16.18-.33.15-.47s-.27-.27-.37-.45c-.54-1,.11-2-.37-3a6.08,6.08,0,0,1-.62-1.73l-.1-.67c-.1-.91-.16-1.81-.21-2.74l.1-.53a4.71,4.71,0,0,0-.22-1.69v-.39a1.11,1.11,0,0,1,.05-.25,2.27,2.27,0,0,0,.21-.67,2.31,2.31,0,0,0-.16-.41,1.53,1.53,0,0,0,0-.36c.1-.26.25-.37.16-.76a.81.81,0,0,1-.25-.09v-.07c.1-.12.18-.25.29-.36l-.16-.18a.76.76,0,0,0,.14-1.08,1.27,1.27,0,0,0,.06-.28,2,2,0,0,0-.22-.71V9c.13-.28.2-.51.59-.66L287,8.2a.87.87,0,0,0-.14-1.14V7l.12-.23a.64.64,0,0,0,.38-.73,1.57,1.57,0,0,0,.14-.4,8.85,8.85,0,0,1,.27-1,9.58,9.58,0,0,1,.37-1l.09-.18a1.66,1.66,0,0,0,.32-.38.7.7,0,0,0,.08-.27l.16-.26-1.37-.7s0,.1-.05.16v.06a.91.91,0,0,0,0,.17.78.78,0,0,0,.35.61.8.8,0,0,0,.59.12l.13,0h.05l.13-.07.15-.12.19-.18a2.12,2.12,0,0,0,.29-.38h0l.32-.1s0,.09.07.12a1,1,0,0,1,.52-.32s0,.1.05.12c.13-.21.26-.12.3.2,0-.09.13-.16.17-.25.09.17.27.18.47.15a4.85,4.85,0,0,0,.6-.13c.19.13.35.3.53.44s.46.37.74.11c.15.14.29.3.44.46l.27-.22h0l0,0,.49-.41,0,0,.11-.08c-.32-.32-.65-.5-.94-.77a1.77,1.77,0,0,0-1.26-.88,3.43,3.43,0,0,0-.53-.13,4.17,4.17,0,0,0-2,.21,1.77,1.77,0,0,0-.95.46.39.39,0,0,0-.06.11,3.79,3.79,0,0,0-.45.34l-.2.17-.06.06.05,0,.14,0a.55.55,0,0,1,.37.12.51.51,0,0,1,.21.42c0,.09,0,.07,0,.08h0a.14.14,0,0,1,0,.06l-.94-.49-.24.57-.18.32-.12,0a1.58,1.58,0,0,0-1,1.18c-.48,1.46-1.32,3.05-.93,4.59.06.31.14.58.21.86-.08.79-.11,1.58-.13,2.37a.4.4,0,0,0-.05.38c-.76.06-.57,1.42-.38,1.84,0,0,.09,0,.14,0,0,.47.23,1.47,0,1.8.15.15.23.34.38.46l0,.59c-.21.2-.51.35-.63.59.56.13.6.69.62,1,0,.15,0,.39,0,.61a.18.18,0,0,1-.09,0,1.37,1.37,0,0,0,.06.57l-.07,0a.45.45,0,0,0,.42.55l0,.17a2,2,0,0,0-.26.91,5.48,5.48,0,0,0,.42,1.05,1.35,1.35,0,0,0,.22.45c.1.57.22,1.13.37,1.7a3.9,3.9,0,0,0,.43,1.86c.13.33.25.82.61,1h0a3.11,3.11,0,0,0,.94,1.1,3.36,3.36,0,0,0,.38.19,1.62,1.62,0,0,0,.44.07,1.64,1.64,0,0,0,.81-.19,5.17,5.17,0,0,0,1.83-2Zm-.77-24.38a1.94,1.94,0,0,1,.33-.07l0,0A2.07,2.07,0,0,0,290.31,1.68Zm1.13.07Z"/><path class="cls-2" d="M296.14,26.7a1.83,1.83,0,0,1-.16.63l-.22,0c-.26,0-.3.15-.39.34l.57-.17-.25.06a1.08,1.08,0,0,1-.4,0,2.11,2.11,0,0,1-.89-.82,5.32,5.32,0,0,1-.58-1.25c.07-.15.2-.3.18-.44s-.24-.26-.33-.43c-.47-.94.3-1.91-.08-2.83a5.69,5.69,0,0,1-.44-1.7c0-.21,0-.43,0-.65,0-.87,0-1.75,0-2.62l.15-.5a4.54,4.54,0,0,0-.07-1.61l0-.38a2.17,2.17,0,0,1,.07-.24,1.75,1.75,0,0,0,.27-.61,2.21,2.21,0,0,0-.12-.42,1.3,1.3,0,0,0,.07-.33c.11-.25.28-.34.21-.72a.88.88,0,0,1-.24-.11v-.07c.11-.11.19-.23.31-.33a1.19,1.19,0,0,0-.15-.18.72.72,0,0,0,.19-1,1.27,1.27,0,0,0,.06-.28,1.69,1.69,0,0,0-.22-.69v-.1a1,1,0,0,1,.57-.66l-.12-.15a.85.85,0,0,0-.21-1.12v0l.09-.23a.65.65,0,0,0,.29-.77,1.94,1.94,0,0,0,.07-.42c0-.7.07-1.41.13-2.15l0-.2c.07-.14.15-.26.17-.32s0-.06,0-.09a2.66,2.66,0,0,1,.22-.16,3.21,3.21,0,0,0,.37-.32h0l.3,0c0,.05,0,.1,0,.14a.84.84,0,0,1,.58-.11s0,.11,0,.13c.2-.15.28,0,.21.29.06-.08.18-.11.25-.18a.36.36,0,0,0,.34.28,2,2,0,0,1,.42,0c.05.17.08.36.12.55.07.35.11.49.49.48a3.37,3.37,0,0,1,0,.55l.35,0h.06l.63.06v0l.13,0a6,6,0,0,0-.2-1.22,1.56,1.56,0,0,0-.52-1.45,2.32,2.32,0,0,0-.46-.4,3.93,3.93,0,0,0-1.89-.48,1.69,1.69,0,0,0-1,.08.39.39,0,0,0-.1.08,2.71,2.71,0,0,0-.87.39,1.54,1.54,0,0,0-.64.92,2.25,2.25,0,0,0-.09.4l-.1.1a1.47,1.47,0,0,0-.59,1.28c-.08,1.4-.77,2.86-.33,4.28.07.28.14.54.22.8l-.22,2.23a.34.34,0,0,0-.07.36c-.76,0-.68,1.28-.54,1.71.05,0,.09,0,.14,0,0,.45.1,1.42-.14,1.71.14.16.2.34.34.48l0,.56c-.22.18-.54.3-.67.52.54.16.55.72.54,1,0,.15-.06.37-.07.59l-.1,0a1.28,1.28,0,0,0,0,.55l-.06,0a.42.42,0,0,0,.36.56v.17c-.13.29-.35.52-.35.84a7.47,7.47,0,0,0,.31,1,1.36,1.36,0,0,0,.18.45c0,.55.11,1.1.19,1.65a3.58,3.58,0,0,0,.3,1.83c.11.32.21.81.56,1h0a3.75,3.75,0,0,0,1,1.26,2.92,2.92,0,0,0,1.55.63l.16,0,.16-.12a2.66,2.66,0,0,0,1-1.94Zm.2-24.12.33,0v0Zm.92.4h0V3Z"/><path class="cls-2" d="M287.63,4.35l-.2-1a1.32,1.32,0,0,0,.1-.3,1.07,1.07,0,0,0-.1-.75,7,7,0,0,0-.48-.67,6.62,6.62,0,0,0-.51-.56,2.6,2.6,0,0,0-.86-.74A2.42,2.42,0,0,0,284.43,0a3.68,3.68,0,0,0-2,.71,1.1,1.1,0,0,0-.58.09l-.26.43a.33.33,0,0,0,0,.06c-.08.23.07.44.06.68-.05,1.27-1.1,2.14-1,3.37a10,10,0,0,1,0,2.12l-.1.77c-.16,1-.3,2.08-.42,3.13l-.21.58a5.79,5.79,0,0,0-.06,1.94l0,.45a1.47,1.47,0,0,1-.08.28,2.56,2.56,0,0,0-.28.74,2.78,2.78,0,0,0,.11.5,3.06,3.06,0,0,0-.07.4c-.11.3-.27.42-.19.88a.9.9,0,0,1,.24.12v.08c-.1.14-.19.29-.3.42a1.56,1.56,0,0,0,.16.2,1,1,0,0,0-.12,1.28,1.87,1.87,0,0,0,0,.34,2.07,2.07,0,0,0,.28.79v.11a1.12,1.12,0,0,1-.51.82l.13.17a1.1,1.1,0,0,0,.29,1.3v0l-.07.29a.93.93,0,0,0-.18,1,2.42,2.42,0,0,0,0,.53A8.4,8.4,0,0,0,280,27.3l.12.24a1.81,1.81,0,0,0,.25.63,1.24,1.24,0,0,0,.28.28,2.54,2.54,0,0,0,1.41,1h0l.34.3c0,.05,0,.08,0,.13a4.9,4.9,0,0,1,.88.32s-.05.1-.05.12c.34,0,.46.12.31.41.11-.06.34,0,.45-.1.07.22.47.34.94.32a2.18,2.18,0,0,0,.7-.14l.3-.12.23-.16a2.1,2.1,0,0,0,1.32-.89,1.66,1.66,0,0,0,.29-.92.33.33,0,0,0-.3-.34,5.61,5.61,0,0,0,0-.92l-.35,0v0l-.06,0-.63.07v.05h-.13c0,.2.08.39.1.56a1.05,1.05,0,0,1-.06.47,3.11,3.11,0,0,1-.74.5,1.58,1.58,0,0,1-.35.06,3.33,3.33,0,0,1-1.56-.33,3.16,3.16,0,0,0-.83-.44.48.48,0,0,0-.12,0,5.92,5.92,0,0,1-1.26-1,2.32,2.32,0,0,1-.19-.31l0-.13a2.1,2.1,0,0,0-.08-1.44c-.42-1.4.21-3.15-.32-4.8l-.3-.93c0-.87,0-1.74.07-2.62a.45.45,0,0,0,.06-.42c.75,0,.67-1.5.55-2-.05,0-.09,0-.14,0a4.86,4.86,0,0,1,.23-2c-.12-.19-.17-.41-.29-.58l.07-.65c.24-.18.57-.29.73-.54-.52-.23-.45-.88-.39-1.24,0-.17.12-.42.18-.66a.14.14,0,0,1,.09,0,1.93,1.93,0,0,0,.1-.63l.05,0a.51.51,0,0,0-.24-.71l0-.18a2.79,2.79,0,0,0,.54-.88,10.41,10.41,0,0,0,0-1.24,1.88,1.88,0,0,0,0-.55c.12-.63.25-1.25.39-1.87A5,5,0,0,0,283,1.59l-.18.31a2.94,2.94,0,0,1,.29-.23c.28-.19.68-.3.89-.56h0a1.48,1.48,0,0,1,1,.1,2,2,0,0,1,.77.81,8,8,0,0,1,.75,2.5Zm-4.1,25.87c.16.06.33.1.49.15v0A4.29,4.29,0,0,1,283.53,30.22Zm1.84.41h0Z"/><path class="cls-2" d="M305,266.48l.17.33.09.17,0,.07.07.1a.59.59,0,0,0,.18.13l.2.06a.62.62,0,0,0,.28,0,.59.59,0,0,0,.35-.45.5.5,0,0,0,0-.27v0l0-.12-.29-.68-.54-1.34c-.17-.44-.33-.89-.47-1.33-.06-.22-.13-.44-.17-.65l-.1-.69c0-.41,0-.87,0-1.4a54.27,54.27,0,0,0-.87-7.8c-.19-1.22-.42-2.4-.59-3.58a183.74,183.74,0,0,1-.83-20.75,24.33,24.33,0,0,0,.29-2.73c0-1.39-.18-2.33-.23-3.67-.29-7.09.5-13.18.11-19.9-.24-4.08-.42-7.66-.49-11.87,0-1.46,0-3-.06-4.45q-.09-9-.08-18c0-1.15.09-2.3.14-3.4.17-3.94,0-7.55,0-11l0-2.57q0-.83.09-1.65c.07-1.18.3-3,.32-4.31,0-.92-.06-1.86-.07-2.77s.08-1.58.11-2.32a38.35,38.35,0,0,0,.34-5c-.1-.06-.15-.4-.22-.59v-.46c.12-.79.25-1.66.39-2.41,0-.4-.07-.78-.11-1.15a30.43,30.43,0,0,0,.49-7.19c.06-.62.11-1.25.15-1.92.08-1.72,0-3.08,0-4.55l.05-.63a23.89,23.89,0,0,1,.87-4.85l-.06-1a26,26,0,0,0,.13-7.38v-.17l.14-1.64a22.68,22.68,0,0,0,.35-5.46c0-.92.06-1.87.05-2.89q0-7.09-.48-14.6c0-.44-.05-.9-.07-1.35,0-1.11,0-2.23-.12-3.38,0-.72-.13-1.33-.21-1.9a77.72,77.72,0,0,0-1-8.74l0-.14L303,59.79c0-.08.1,0,.12-.11-.23-1.49-.57-3.11-.75-4.73,0-.2.11,0,.12,0-.38-1.51-.39-2.32,0-2.09-.15-.42-.35-1.46-.5-1.93.17-1.25-.91-7.37-1.34-9.63q-.19-2.84-.35-5.69c-.19-3.39-.21-4.79-.6-5,0-1.52,0-3,0-4.54h-.35V26l-.06.1-.64,0v.3l-.13-.07c0,2.71.11,4.89.2,7.22a53.92,53.92,0,0,0,.53,8.63l.35,2.91c.44,3.61,1,7.22,1.54,10.82.27,1.9.45,4.11.8,5.93l.14.62c.42,3.48.79,6.95,1.14,10.47l.16,2.29c0,.23,0,.46,0,.68a70.8,70.8,0,0,0-.05,9.08c.16,4.71,0,9.65-.18,14.55-.12,2.45-.24,4.89-.36,7.29s-.25,4.75-.28,7l-.09,5.25-.47,7.57c-.12,2.52-.26,5-.36,7.57a14.74,14.74,0,0,0-.13,2.44c-.79.39-.88,9-.75,11.74,0,.13.09,0,.14.09,0,1.51,0,3.88,0,6.14s-.05,4.39-.17,5.4c.13,1,.19,2.23.33,3.1v3.78a30,30,0,0,0-.66,3.62c.55,1,.56,4.73.57,6.86,0,1,0,2.47-.05,3.91,0,.1-.06.16-.1.15-.05,1.26,0,2.43,0,3.69a.81.81,0,0,1-.06-.2,9.42,9.42,0,0,0,.38,3.82v1.08c-.13,1.94-.33,3.39-.32,5.54s.25,4.7.33,7c0,1.35.1,2.24.17,3.08l.11,11.06c-.2,4.08-.1,7.59-.08,12a65.52,65.52,0,0,0,.18,7.08v.08a125.44,125.44,0,0,0,1.12,16.08c.35,2.64.54,5.31.85,8,.08.67.16,1.34.26,2,.05.35.09.65.16,1s.19.69.29,1c.22.65.47,1.28.73,1.91l.38.93.1.23,0,.08s0,0,0-.24a.47.47,0,0,1,.41-.34.43.43,0,0,1,.39.15l0,.05h0l0,0-.22-.44ZM302,53.57l-.39-2.63,0-.08Zm-1.16-9.24v0l0-.24Z"/><path class="cls-2" d="M192.94,130l.64,0,.13.2c.25.3.49.12.78.09a1.38,1.38,0,0,1,.35,0,.72.72,0,0,1,.47.49,1.49,1.49,0,0,1-.13.84c-.14,0-.31.05-.37.12s0,.28,0,.43a1.32,1.32,0,0,1-.77.78,1.51,1.51,0,0,0-.81.72,3,3,0,0,1-.73,1.17l-.37.34a15,15,0,0,1-1.66,1.21l-.39.08c-.45.08-.68.46-1,.65l-.26.09a.67.67,0,0,1-.2,0c-.15,0-.4-.12-.54-.07s-.17.17-.26.23a1.12,1.12,0,0,0-.27,0c-.22,0-.33-.16-.59,0a1.06,1.06,0,0,1,0,.26l0,0a3,3,0,0,1-.33-.21l-.09.19a.49.49,0,0,0-.82.08.5.5,0,0,0-.21,0c-.19,0-.32.23-.47.36h-.07a.74.74,0,0,1-.61-.41l-.09.14a.57.57,0,0,0-.8.4h0l-.19-.06c-.23-.28-.41-.29-.62-.17a1.13,1.13,0,0,0-.32,0,13,13,0,0,1-1.67.05h-.15a1,1,0,0,0-.38-.14.41.41,0,0,0-.22,0,1.69,1.69,0,0,0-1,.06h0l-.27-.11a.66.66,0,0,0,0-.14,1.22,1.22,0,0,1-.57,0s0-.11,0-.13c-.2.12-.28,0-.21-.31-.06.08-.19.11-.26.18-.09-.38-.85-.23-1.15-.06a4,4,0,0,0-.66-.23c-.4-.08-.57-.07-.63.3l-.54-.06,0,.35h0v.06l-.07.63h0l0,.13a4.81,4.81,0,0,1,.85,0,1.32,1.32,0,0,0,1,.3l.34,0c.43.06.85.08,1.28.16.22,0,.47.2.7.1l.08-.05a7.69,7.69,0,0,0,1.27,0l.27,0,.07.08a1,1,0,0,0,1.07.51c1.14,0,2.49.41,3.56-.31.21-.14.4-.26.58-.4.61-.09,1.2-.22,1.79-.36.11,0,.21.06.29,0,.24.72,1.21.27,1.48,0,0,0,0-.08,0-.13l.31-.13.41-.2a1.28,1.28,0,0,1,.68-.19,3.28,3.28,0,0,0,.17-.5c.14-.07.27-.15.4-.23.24.1.5.31.73.31a.73.73,0,0,1,.39-.93c.09-.07.27-.13.42-.23l.08.06c.15,0,.24-.17.35-.27s0,0,0,.06c.22-.09.29-.29.13-.57l.1-.09c.27,0,.56,0,.76-.16s.28-.55.44-.78a.83.83,0,0,0,.16-.37,9.6,9.6,0,0,0,.86-1.05,2.2,2.2,0,0,0,.89-1.27,3.79,3.79,0,0,0,.17-.48.77.77,0,0,0-.08-.54h0a1.62,1.62,0,0,0-.43-1.18,2.21,2.21,0,0,0-1-.61,6.8,6.8,0,0,0-2-.26Zm-15.16,7.88-.31,0v0Zm-1.07-.27h0Z"/><path class="cls-2" d="M193.26,140l.45.36,0,.22c0,.38.29.36.52.5a1.07,1.07,0,0,1,.28.19,1.33,1.33,0,0,1-.08,1.52c-.14,0-.31,0-.37,0s0,.26-.06.38a1,1,0,0,1-.85.47,1.23,1.23,0,0,0-.89.4,2.74,2.74,0,0,1-1,.84l-.42.2c-.59.23-1.2.43-1.81.62l-.38,0c-.44,0-.75.29-1.1.43l-.27.06a.55.55,0,0,1-.18,0c-.14,0-.37-.16-.5-.12s-.17.15-.25.2a.69.69,0,0,0-.25,0c-.2-.06-.3-.2-.55-.06a1,1,0,0,1,0,.25l-.05,0c-.09-.08-.19-.14-.29-.23l-.09.18c-.24-.28-.56-.33-.75,0a.41.41,0,0,0-.19,0c-.17,0-.3.19-.44.3h-.07a.78.78,0,0,1-.5-.5l-.11.13c-.19-.2-.67-.09-.81.31h0l-.18-.07c-.2-.3-.39-.31-.59-.21a1.06,1.06,0,0,0-.31,0c-.52.05-1,.09-1.58.11h-.14a.77.77,0,0,0-.35-.12.46.46,0,0,0-.2,0,1.54,1.54,0,0,0-.92.08h0l-.23-.11a.71.71,0,0,0,0-.14.78.78,0,0,1-.5,0s0-.11,0-.13c-.19.12-.25,0-.16-.31-.06.08-.17.1-.24.17,0-.38-.74-.28-1-.14a2.66,2.66,0,0,0-.56-.28c-.35-.13-.5-.13-.62.23l-.48-.13-.09.34h0V146l-.16.61h0l0,.13a4.64,4.64,0,0,1,.79.09,1.12,1.12,0,0,0,.87.4l.32.07c.39.09.79.14,1.19.24.21.06.44.21.67.12,0,0,.05,0,.08-.06a4.32,4.32,0,0,0,1.19,0l.26,0,.07.08a.92.92,0,0,0,1,.46c1-.08,2.13.42,3.14-.11.22-.11.43-.2.62-.31.58,0,1.13-.1,1.69-.18a.21.21,0,0,0,.27,0c.17.74,1.1.39,1.37.15,0-.05,0-.09,0-.14.32-.09,1-.42,1.26-.26a4.63,4.63,0,0,0,.24-.43l.4-.12c.19.17.38.44.58.51a.66.66,0,0,1,.56-.76c.1,0,.28,0,.44-.07a.22.22,0,0,1,0,.08.8.8,0,0,0,.39-.14v.06c.22,0,.33-.17.26-.48l.11-.05c.26.05.5.18.73.1s.4-.42.61-.58a1,1,0,0,0,.24-.3,7.75,7.75,0,0,0,1.05-.71,1.94,1.94,0,0,0,1.11-1c.15-.22.41-.59.26-.91v0a2.44,2.44,0,0,0-.45-2,6.07,6.07,0,0,0-1.35-1.33Zm-16.2,6.28-.28-.05v0Zm-.94-.33h0l0,0Z"/><path class="cls-2" d="M184.26,236.3v-1.77a2.93,2.93,0,0,0,.18-.43,4.81,4.81,0,0,0-.07-2.38l-.15-1.1-.13-6.32a2.45,2.45,0,0,0,.28-.84,6.73,6.73,0,0,0-.24-1.1c-.31-2.15.5-4,.14-6a26.68,26.68,0,0,1-.45-3.59l0-1.35-.11-5.45c0-.35.08-.7.12-1a17.32,17.32,0,0,0-.17-3.35v-.77a4.43,4.43,0,0,1,.06-.51,9,9,0,0,0,.22-1.3,7.76,7.76,0,0,0-.15-.84c0-.24,0-.48,0-.7a3.82,3.82,0,0,0,.16-1.53c-.11,0-.17-.12-.25-.18v-.14c.1-.24.18-.5.29-.73,0-.12-.11-.23-.16-.35a2.7,2.7,0,0,0,.11-2.18,3.73,3.73,0,0,0,0-.59,6.5,6.5,0,0,0-.26-1.38v-.19a2.74,2.74,0,0,1,.5-1.49l-.12-.29a2.92,2.92,0,0,0-.32-2.23v-.06l.07-.49a2.38,2.38,0,0,0,.18-1.66,8.42,8.42,0,0,0,0-.88c-.08-1.43-.15-2.91-.23-4.43l0-.41a5.88,5.88,0,0,0,.06-1,2.43,2.43,0,0,0-.09-.58,10,10,0,0,0-.33-2.66v0l0-.72s.09,0,.14,0a6.86,6.86,0,0,1-.22-1.45c0-.06.11,0,.13,0-.21-.46-.13-.71.2-.66-.1-.12-.19-.44-.28-.58.33-.42-.18-2.29-.5-2.95a17.66,17.66,0,0,0-.17-1.77c-.15-1-.31-1.46-.68-1.43l-.31-1.37-.34.09v0a.1.1,0,0,1-.05,0l-.62.15,0,.09h-.13c.21.78.46,1.4.58,2.09a8.48,8.48,0,0,0,.28,2.57l.13.87c.17,1.07.31,2.16.41,3.25a7.68,7.68,0,0,0,.15,1.8,1.54,1.54,0,0,0,.08.19c.07,1.05.2,2.1.32,3.17l0,.69-.07.21a5.26,5.26,0,0,0-.35,2.75c.15,2.85-.35,6,.18,8.77.1.56.19,1.07.29,1.59l-.07,4.59a1.42,1.42,0,0,0-.05.74c-.75.12-.59,2.73-.42,3.57,0,0,.1,0,.15,0a16.16,16.16,0,0,1,0,3.5c.15.31.22.67.37.93v1.15a4.47,4.47,0,0,0-.64,1.11c.55.29.58,1.42.58,2.07,0,.29,0,.75-.05,1.19a.1.1,0,0,1-.1,0,6,6,0,0,0,0,1.12.31.31,0,0,1-.06-.06c-.05.56.07,1,.38,1.15v.33a6.77,6.77,0,0,0-.35,1.69c0,.69.24,1.42.3,2.12a6.25,6.25,0,0,0,.16.93l.09,3.35a18.27,18.27,0,0,0,0,3.63,6.9,6.9,0,0,0,.18,2.14v0c.07,3.25.12,6.5.13,9.74Zm-1.08-65-.1-.81,0,0Zm-.24-2.85h0v0Z"/><path class="cls-2" d="M184,235.88l-.47,0a1.09,1.09,0,0,0-.13-.17c-.22-.29-.44-.08-.7,0a2.25,2.25,0,0,1-.35.09,4.49,4.49,0,0,1-1.69-.49,1.11,1.11,0,0,1,.08-.32s-.06,0-.1,0a.24.24,0,0,1-.12.05c-.14,0,0-.14.23-.21s.22,0,.27-.06,0,0,0,0,0-.05,0-.07c0-.2.24-.36.55-.21.11,0,.22.12.33.17a16,16,0,0,1,1.33,1l.19.33c.24.37.68.43,1.13.56a3.29,3.29,0,0,0,.37.1l.23.08.31.13a.65.65,0,0,0,.3,0c.12,0,.22-.16.3-.23a1.26,1.26,0,0,0,.28,0c.22,0,.36.11.59-.1a1.32,1.32,0,0,1,0-.26l0,0c.12,0,.25.05.38.1a1.23,1.23,0,0,0,0-.2c.34.14.72,0,.71-.41a.46.46,0,0,0,.18-.13,1,1,0,0,0,.17-.57l0-.05a1.17,1.17,0,0,1,.76-.21l-.05-.18c.15,0,.26-.28.29-.51a.64.64,0,0,0-.29-.61v0a2.4,2.4,0,0,0,0-.28.64.64,0,0,0-.24-.93,1.74,1.74,0,0,0-.34-.32,4.69,4.69,0,0,0-.46-.21,1.75,1.75,0,0,0-.56-.14,1.72,1.72,0,0,0-.64,0,3.55,3.55,0,0,0-.52.23l-.15.1a.9.9,0,0,0-.42.18.45.45,0,0,0-.12.21,1.19,1.19,0,0,0-.5.84v0l-.2.15c-.05,0-.08-.06-.13-.07a.87.87,0,0,1-.2.46s-.09-.06-.11-.07c0,.22-.09.23-.35,0,.05.08,0,.2.08.28-.38-.08-.49.59-.42.89a3,3,0,0,0-.4.4c-.19.26-.22.37.08.59l-.1.16-.1.12.26.24h0l0,0,.46.44,0,0,.1.09c.22-.3.22-.53.38-.72a.94.94,0,0,0,.58-.65l.14-.25a7.2,7.2,0,0,1,.53-.89c.11-.15.32-.24.32-.45a.24.24,0,0,0,0-.08l.51-.78a.49.49,0,0,1,.14-.11l.09,0,.24.14.12.1s0,0,0,.05,0,0,0,0,.14.06.22.12a.11.11,0,0,0,0,.07s0,0-.06,0,0-.06,0,0a0,0,0,0,0,0,0s0,0,0,.07a1.18,1.18,0,0,1,0,.19,2.79,2.79,0,0,1,0,.29,1.51,1.51,0,0,1-.06.52,4.75,4.75,0,0,1-1.09.79c-.09,0-.17,0-.21.05-.37-.63-.82-.3-.9-.15v.14s-.09,0-.1,0-.09,0-.16,0-.29-.18-.28-.32c-.16.06-.29.06-.44.12L184,235a2.71,2.71,0,0,0,.15-.73.59.59,0,0,1-.88,0c-.07-.07-.16-.21-.27-.31a.36.36,0,0,1,0-.09c-.07-.13-.2-.16-.32-.23l.05,0c-.14-.17-.35-.16-.55.08l-.11,0c-.13-.22-.2-.52-.52-.6a.88.88,0,0,0-.55,0,3.11,3.11,0,0,0-.52.25.71.71,0,0,0-.32.33,2,2,0,0,0-.77,1.17,2.12,2.12,0,0,0-.11.21,1.06,1.06,0,0,0,0,.25,2.28,2.28,0,0,0,0,.26l.1.22.13.21.16.15.17.15.18.1a1.6,1.6,0,0,0,.38.23.46.46,0,0,0,.41,0h0a8.12,8.12,0,0,0,1.64.34,8,8,0,0,0,1.7,0Zm.74-1.9-.15.23h0Zm-.59.74h0l0,0Z"/><path class="cls-2" d="M230.47,294.62a.52.52,0,0,0-.06.13.81.81,0,0,0-.12.14l-.2-.07c-.29-.12-.33.14-.53.34a1.63,1.63,0,0,1-.29.23,5.45,5.45,0,0,1-2.05.16c-.07-.12-.12-.3-.2-.33s-.23.12-.36.13c-.33,0-.53-.29-.42-.42a.38.38,0,0,1,.09-.22s0,0-.05,0-.09-.19-.05-.32a.77.77,0,0,1,.32-.33,1.7,1.7,0,0,1,.34-.12,2,2,0,0,1,1.46.42l.25.31a2,2,0,0,0,1.31.48,2.17,2.17,0,0,0,.35.07,1.21,1.21,0,0,1,.2.09c.14.07.38.27.55.25a1.54,1.54,0,0,0,.35-.15,1.43,1.43,0,0,0,.29,0c.23.08.36.2.67.05a1,1,0,0,1,0-.26l0,0,.38.18.09-.2a.59.59,0,0,0,.92-.34.85.85,0,0,0,.25-.13,1.09,1.09,0,0,0,.3-.66l.06-.08a2.3,2.3,0,0,1,.82-.49c0-.07-.06-.14-.08-.21.31-.29.12-1.17-.35-1.18v-.27a.56.56,0,0,0-.17-.76,2,2,0,0,0-.21-.33,3.34,3.34,0,0,0-.78-.69,1.86,1.86,0,0,0-1.33-.3,2.44,2.44,0,0,0-.26.06,1.17,1.17,0,0,0-.59.18.76.76,0,0,0-.2.25,1.38,1.38,0,0,0-.57,1h0l-.21.22s-.08-.05-.13-.05a1.29,1.29,0,0,1-.16.57s-.1,0-.12,0c.07.23-.07.28-.35.14.06.08.06.22.11.3-.4,0-.39.84-.24,1.15a3.11,3.11,0,0,0-.28.65c-.1.41-.08.61.29.66a5.71,5.71,0,0,0,0,.59l.35,0H230l.63,0v0h.13a1.82,1.82,0,0,1-.05-.7,1.17,1.17,0,0,0,.34-.84c0-.09,0-.19.07-.29a5.61,5.61,0,0,1,.36-1.07c.09-.17.29-.32.27-.53,0,0,0-.05,0-.08a5.55,5.55,0,0,1,.49-.82l.14-.09.07.06a.42.42,0,0,1,.13.36c0,.06,0,.05.06.09a.78.78,0,0,1,.33.36l.15.27a1.84,1.84,0,0,0,.09.25,2,2,0,0,0,.1.35.37.37,0,0,0,.07.14,2.11,2.11,0,0,0,.08.22,1.94,1.94,0,0,1,0,.24c0,.08,0,.16,0,.25a3.1,3.1,0,0,1-1.31.6c-.09-.05-.18-.07-.25,0-.18-.71-.86-.48-1.12-.36,0,0,0,.09,0,.14a1.46,1.46,0,0,1-.5,0,.49.49,0,0,1-.38-.31c-.15.08-.3.08-.45.15l-.35-.22c0-.25.07-.58-.05-.79-.38.41-.8.21-1.09.13a3,3,0,0,0-.54-.16.12.12,0,0,1,0-.1,1,1,0,0,0-.56,0,.25.25,0,0,1,0-.07.38.38,0,0,0-.44.47l-.13,0c-.29,0-.61-.13-.89.09a1.74,1.74,0,0,0-.48,1.1.86.86,0,0,0,.07.53,1.76,1.76,0,0,0,.81,1.38,1.88,1.88,0,0,0,1.44.6c.26,0,.63.13.86-.09h0a6.2,6.2,0,0,0,1.89-.32,3.94,3.94,0,0,0,.91-.47,1.93,1.93,0,0,0,.7-.95Zm-.26-2.46-.11.3h0Zm-.47,1h0l0,0Z"/><path class="cls-2" d="M305.66,266.22h-.81a1.09,1.09,0,0,0-.19-.18c-.36-.28-.68-.06-1.06,0l-.48.1a8,8,0,0,1-1.3-.18,4.57,4.57,0,0,1-1.14-.54c0-.15,0-.34-.06-.42s-.29,0-.4-.09-.21-.23-.16-.29.07,0,.08-.05l.15,0a1.86,1.86,0,0,0,.37-.1c.1,0,.15-.06.21-.13.14-.23.63-.23,1.07,0l.47.31c.62.49,1.22,1.07,1.94,1.59l.36.4a2.21,2.21,0,0,0,1.82.44l.47-.05.33-.05a1.74,1.74,0,0,0,.77-.17,1.66,1.66,0,0,0,.26-.39,1.12,1.12,0,0,0,.3-.2c.26-.11.45-.08.66-.43a.94.94,0,0,1-.13-.24l0-.05c.15,0,.29-.08.45-.1a2,2,0,0,0,0-.23.73.73,0,0,0,.71-.82,1,1,0,0,0,.18-.23,1.46,1.46,0,0,0,.09-.74l0-.09a1.39,1.39,0,0,1,.75-.52l-.07-.19a.91.91,0,0,0-.11-1.29v0a2.43,2.43,0,0,0,0-.3.83.83,0,0,0-.21-1.11,1.49,1.49,0,0,0-.43-.47,2.35,2.35,0,0,0-.65-.33,1.47,1.47,0,0,0-.42-.11,1.54,1.54,0,0,0-.48,0,2.39,2.39,0,0,0-1.27.71l-.16.15a1.43,1.43,0,0,0-.44.32.7.7,0,0,0-.14.27,2.16,2.16,0,0,0-.58,1.18v0l-.24.25s-.08,0-.13-.06a1.94,1.94,0,0,1-.24.66s-.1-.05-.12-.06c0,.27-.11.33-.39.16.05.09,0,.25.07.35-.41,0-.54,1-.44,1.36a3.51,3.51,0,0,0-.4.77c-.17.5-.16.76.2.84a3.26,3.26,0,0,0,0,.79l.35,0h0l.06,0,.63-.07v0H306a1.74,1.74,0,0,1,0-.82,1.84,1.84,0,0,0,.49-1l.13-.36a9.81,9.81,0,0,1,.59-1.32c.13-.22.37-.42.39-.69a.43.43,0,0,0,0-.11c.23-.4.44-.81.68-1.2a2,2,0,0,1,.19-.22h.11a3.73,3.73,0,0,0,.59,0c.12,0,.22-.05.22-.07s0,0,0,0-.06,0,0,0a.69.69,0,0,1,.2.13.42.42,0,0,1,.09.29c0,.27-.06.79,0,1.4a4.41,4.41,0,0,1,0,.73,9.77,9.77,0,0,1-1.19,1.6c-.12,0-.22.07-.25.2a.62.62,0,0,0-.82,0,1.58,1.58,0,0,0-.49.49c0,.05,0,.09.05.13s-.08.08-.18.09-.17.07-.27,0a.49.49,0,0,1-.46-.24c-.15.09-.31.07-.48.15a3,3,0,0,1-.4-.26c0-.26.1-.59,0-.8a.73.73,0,0,1-1-.16c-.1-.09-.22-.27-.37-.41a.2.2,0,0,1,.05-.09,1.28,1.28,0,0,0-.42-.34l.06,0a.41.41,0,0,0-.66-.05l-.13-.09a1.43,1.43,0,0,0-.61-.77,2,2,0,0,0-1.37.07.91.91,0,0,0-.5.32,1.6,1.6,0,0,0-.4.25,1.7,1.7,0,0,0-.34.32,1.41,1.41,0,0,0-.38,1,1.3,1.3,0,0,0,.33,1.1,3.69,3.69,0,0,0,.77.65c.28.19.66.47,1,.38h0a7.18,7.18,0,0,0,2.33.4c.76,0,1.51,0,2.25,0Zm.26-3.48-.16.34h0Zm-.65,1.18h0l0,0Z"/><path class="cls-2" d="M272.2,187.25a2.9,2.9,0,0,1-.63-.06.88.88,0,0,0-.12-.21c-.22-.35-.54-.23-.9-.26l-.46-.07a4.43,4.43,0,0,1-1.86-1.58c.06-.13.17-.26.17-.34s-.23-.12-.26-.22a.38.38,0,0,1,.05-.4.23.23,0,0,1,.14-.1l0,0-.07-.07a.92.92,0,0,1-.05-.08.46.46,0,0,1,0,.23c-.05.25,0,.16,0,.22a.9.9,0,0,0,.36.18,2.52,2.52,0,0,1,1.21.82c.12.14.23.3.35.45a11.4,11.4,0,0,1,1.11,2,1.27,1.27,0,0,1,0,.37v0l-.24.59,1.06.06a3.47,3.47,0,0,0,1.43-.43l.35-.08a1,1,0,0,1,.24,0,1.77,1.77,0,0,0,.65,0c.12,0,.22-.19.33-.27a1.14,1.14,0,0,0,.32-.07c.26,0,.42.1.73-.12a1.23,1.23,0,0,1,0-.26l.06,0a3.77,3.77,0,0,1,.43.1,1.43,1.43,0,0,0,.08-.22.7.7,0,0,0,1-.45.94.94,0,0,0,.26-.14,1.38,1.38,0,0,0,.37-.65l.08-.07a1.4,1.4,0,0,1,.9-.27v-.22c.36-.13.62-1,.21-1.31v0l.11-.28a.77.77,0,0,0,.11-1,1.43,1.43,0,0,0-.15-.52,2,2,0,0,0-.19-.33,1.68,1.68,0,0,0-.29-.32,1.62,1.62,0,0,0-.89-.4,2.31,2.31,0,0,0-1.4.39l-.2.11a1.43,1.43,0,0,0-.49.21.56.56,0,0,0-.19.22,2,2,0,0,0-.82,1h0l-.29.18s-.06-.07-.11-.08a1.74,1.74,0,0,1-.38.56s-.08-.08-.1-.09c0,.27-.19.28-.41.05,0,.1,0,.25,0,.35-.4-.1-.76.76-.77,1.15a3.54,3.54,0,0,0-.58.58c-.3.4-.38.61-.06.82a4.61,4.61,0,0,0-.32.63l.33.13h.06l.59.23v0l.12,0a2.47,2.47,0,0,1,.33-.81,1.68,1.68,0,0,0,.77-.83l.23-.31a9.69,9.69,0,0,1,.9-1.11c.18-.18.45-.32.53-.57a.34.34,0,0,0,0-.1l.92-1,.23-.16.11,0a3.15,3.15,0,0,0,.56.14c.12,0,.22,0,.19,0l-.09-.05s0,0,0,.08a1.84,1.84,0,0,1,0,.29,1.22,1.22,0,0,0,0,.27,10.22,10.22,0,0,1-.31,1.2,2.39,2.39,0,0,1-.26.64,8.07,8.07,0,0,1-1.68.94c-.13,0-.23,0-.31.08-.33-.66-1.26-.15-1.57.1,0,.05,0,.09,0,.14-.36.13-1.16.47-1.45.28-.11.16-.25.25-.34.41h0l.51.41a2.59,2.59,0,0,0-.14-.55c.14-.24.38-.49.39-.76-.55.09-.8-.37-.94-.64s-.12-.33-.22-.51a.23.23,0,0,1,.07-.07,1.14,1.14,0,0,0-.28-.44h.07a.41.41,0,0,0-.6-.25l-.09-.12a1.59,1.59,0,0,0-.2-.86,3.39,3.39,0,0,0-.94-.58,1.16,1.16,0,0,0-.48-.17,1.43,1.43,0,0,0-1.05-.22,1.27,1.27,0,0,0-.83.76,1.47,1.47,0,0,0-.32,1,2.53,2.53,0,0,0,.35,1,2.79,2.79,0,0,0,.32.5.87.87,0,0,0,.47.29h0a7,7,0,0,0,1.94,1.27,5.29,5.29,0,0,0,2.32.55Zm2-2.9-.24.29,0,0Zm-.92.94h0l0,0Z"/><path class="cls-2" d="M209.38,196.25a1.49,1.49,0,0,0,0,3A1.49,1.49,0,0,0,209.38,196.25Z"/><path class="cls-2" d="M288.37,152.7a1.49,1.49,0,0,0,0,3A1.49,1.49,0,0,0,288.37,152.7Z"/><path class="cls-2" d="M314.9,220.7a1.49,1.49,0,0,0,0,3A1.49,1.49,0,0,0,314.9,220.7Z"/><path class="cls-2" d="M167.92,359.21a1.5,1.5,0,0,0,0,3A1.5,1.5,0,0,0,167.92,359.21Z"/><path class="cls-2" d="M250.78,304.13a1.49,1.49,0,0,0,0,3A1.49,1.49,0,0,0,250.78,304.13Z"/><path class="cls-2" d="M152.82,246.2a1.5,1.5,0,0,0,0,3A1.5,1.5,0,0,0,152.82,246.2Z"/><path class="cls-2" d="M339.66,274.74a1.49,1.49,0,0,0,0,3A1.49,1.49,0,0,0,339.66,274.74Z"/><path class="cls-2" d="M260.56,255.42l.38-.26.19.1c.3.12.34-.1.49-.3a1.11,1.11,0,0,1,.21-.22,2.7,2.7,0,0,1,1.49,0c0,.13,0,.31.07.35s.2-.1.31-.11a.55.55,0,0,1,.44.55c.08.24,0,.49.31.57a1.92,1.92,0,0,1,.38.25.88.88,0,0,1,.24.38,1.16,1.16,0,0,1,.08.32l0,.33,0,.34a2.55,2.55,0,0,1-.12.67,1.34,1.34,0,0,1-.21.2c-.25.21-.13.55-.26.81l-.11.17a.41.41,0,0,1-.11.07c-.11,0-.33,0-.38.11s0,.18,0,.25a.53.53,0,0,0-.15.08c-.16,0-.29-.08-.37.11a1,1,0,0,1,.11.23l0,0a1.47,1.47,0,0,1-.28-.14v.18c-.26-.21-.42-.24-.46.1a.19.19,0,0,0-.13,0c-.09,0-.15.21-.25.32h0c-.13-.07-.25-.13-.3-.49l-.07.12c-.09-.19-.34-.11-.56.22h0l-.09-.1c0-.33-.1-.37-.26-.34a.64.64,0,0,0-.16-.11,2.66,2.66,0,0,1-.85-.59l-.06-.08a.55.55,0,0,0,0-.26.24.24,0,0,0-.13-.08.87.87,0,0,0-.39-.51h0l0-.18.14,0c-.07-.08-.18-.19-.13-.3h.13c-.16-.09-.05-.15.27-.13-.08,0-.13-.08-.21-.11.36-.05.18-.36,0-.6a2.31,2.31,0,0,0,.29-.24c.14-.15.18-.23-.1-.49l.23-.25-.24-.26h0l0,0-.43-.47,0,0-.08-.1c-.18.22-.26.45-.42.62a.87.87,0,0,0-.59.72l-.09.31a4,4,0,0,0-.11,1.19c0,.2-.07.48.1.64l.08.05a2.37,2.37,0,0,0,.55.93,1.27,1.27,0,0,0,.13.19l0,.1a.78.78,0,0,0,.31,1,8.91,8.91,0,0,0,1.33,1,1.8,1.8,0,0,0,1.66.06,3.89,3.89,0,0,0,.54-.36,3.49,3.49,0,0,0,1.42-.59c.1,0,.19,0,.22-.12.52.6,1.12-.25,1.13-.58a.81.81,0,0,0-.1-.09c.15-.29.39-.89.65-1a2.44,2.44,0,0,0-.2-.43,1.48,1.48,0,0,0,.13-.35,1.83,1.83,0,0,0,.73-.2.65.65,0,0,1-.4-.41.71.71,0,0,1,0-.4c0-.1.08-.25.09-.4l.1,0a.65.65,0,0,0,0-.39h.06c0-.2-.07-.35-.4-.34l0-.1c.1-.22.27-.44.21-.67s-.4-.39-.56-.57a.69.69,0,0,0-.3-.18,3.89,3.89,0,0,0-.77-.8,1.15,1.15,0,0,0-.44-.46c-.19-.09-.39-.15-.61-.23s-.54-.19-.75,0h0a4.49,4.49,0,0,0-3,1Zm-1.23,2.63c0-.06,0-.12,0-.19h0C259.37,257.92,259.34,258,259.33,258.05Zm.21-.61Z"/><path class="cls-2" d="M258.41,160.56l.39-.25.18.09c.3.12.35-.1.5-.3a1.42,1.42,0,0,1,.2-.22,2.79,2.79,0,0,1,1.49,0c0,.13,0,.31.07.35s.21-.1.32-.11a.58.58,0,0,1,.44.55c.07.24,0,.49.3.57a2,2,0,0,1,.39.25,1.23,1.23,0,0,1,.24.38,1.65,1.65,0,0,1,.07.32l0,.34,0,.33a3.05,3.05,0,0,1-.13.67,1,1,0,0,1-.2.2c-.26.21-.14.55-.27.81l-.11.17a.3.3,0,0,1-.11.07c-.1,0-.33,0-.38.11s0,.18,0,.25a.38.38,0,0,0-.15.09c-.15,0-.29-.09-.36.1a1.58,1.58,0,0,1,.11.23l0,0a1.92,1.92,0,0,1-.29-.14l0,.18c-.27-.21-.43-.24-.47.1a.17.17,0,0,0-.12,0c-.1,0-.16.21-.26.33h0c-.14-.07-.26-.13-.31-.49l-.07.13c-.08-.2-.34-.12-.55.22h0a.41.41,0,0,1-.09-.1c0-.32-.1-.36-.27-.33a.4.4,0,0,0-.16-.12,2.51,2.51,0,0,1-.85-.59.56.56,0,0,1,0-.08.71.71,0,0,0-.05-.26.21.21,0,0,0-.12-.08.89.89,0,0,0-.4-.51h0l0-.18.14,0c-.07-.08-.17-.18-.13-.3h.13c-.16-.09-.05-.15.27-.12-.08,0-.12-.09-.2-.12.35-.05.17-.36,0-.6a1.76,1.76,0,0,0,.29-.24c.14-.15.18-.23-.1-.49l.24-.25-.24-.26h0l0,0-.43-.47,0,0-.09-.1c-.18.22-.25.45-.41.63a.87.87,0,0,0-.6.71l-.09.31a4,4,0,0,0-.11,1.19c0,.21-.07.48.1.64l.08,0a2.28,2.28,0,0,0,.56.93,1.32,1.32,0,0,0,.12.2l0,.1a.78.78,0,0,0,.31,1,8.52,8.52,0,0,0,1.34,1,1.77,1.77,0,0,0,1.66.06,4.45,4.45,0,0,0,.53-.36,3.44,3.44,0,0,0,1.42-.59c.1,0,.19,0,.22-.12.52.6,1.12-.25,1.13-.58,0,0-.07-.05-.1-.09.15-.29.39-.89.66-1a3.45,3.45,0,0,0-.21-.43,1.33,1.33,0,0,0,.13-.35,1.78,1.78,0,0,0,.73-.2.66.66,0,0,1-.4-.41.94.94,0,0,1,0-.4c0-.1.08-.25.1-.4l.09,0a.65.65,0,0,0,0-.39h.06c.05-.2-.07-.35-.39-.33l0-.11c.09-.22.26-.44.2-.67s-.4-.39-.55-.57a1.08,1.08,0,0,0-.3-.18,3.94,3.94,0,0,0-.78-.8,1.15,1.15,0,0,0-.44-.46l-.61-.23c-.22,0-.53-.19-.75,0h0a4.49,4.49,0,0,0-3,1Zm-1.22,2.63a1.2,1.2,0,0,1,0-.19h0A1.29,1.29,0,0,0,257.19,163.19Zm.21-.61h0Z"/><path class="cls-2" d="M330.58,243.18l.39-.25.18.09c.3.12.35-.1.5-.3a1.42,1.42,0,0,1,.2-.22,2.79,2.79,0,0,1,1.49,0c0,.13,0,.31.07.35s.21-.1.32-.11a.58.58,0,0,1,.44.55c.07.24,0,.49.3.57a2,2,0,0,1,.39.25,1.23,1.23,0,0,1,.24.38,1.65,1.65,0,0,1,.07.32l0,.34,0,.34a3.08,3.08,0,0,1-.13.66,1,1,0,0,1-.2.2c-.26.21-.14.55-.27.81l-.11.17a.21.21,0,0,1-.11.07c-.1,0-.33,0-.38.11s0,.18,0,.25a.38.38,0,0,0-.15.09c-.15,0-.29-.09-.36.1a1.58,1.58,0,0,1,.11.23l0,0a1.55,1.55,0,0,1-.29-.14l0,.18c-.27-.21-.43-.24-.47.1a.17.17,0,0,0-.12,0c-.1,0-.16.21-.26.33h0c-.14-.07-.26-.13-.31-.49l-.07.13c-.08-.2-.34-.12-.55.22h0a.41.41,0,0,1-.09-.1c0-.32-.1-.36-.27-.33a.52.52,0,0,0-.16-.12,2.51,2.51,0,0,1-.85-.59.56.56,0,0,1-.05-.08.62.62,0,0,0,0-.25.19.19,0,0,0-.12-.09.89.89,0,0,0-.4-.51h0l0-.18.14,0c-.07-.09-.17-.19-.13-.31a.56.56,0,0,1,.13,0c-.16-.1-.05-.15.27-.13-.08,0-.12-.09-.2-.12.35-.05.17-.36,0-.6a1.76,1.76,0,0,0,.29-.24c.14-.15.18-.23-.1-.49l.24-.25-.24-.26h0l0,0-.43-.47,0,0-.09-.11c-.18.22-.25.45-.41.63a.85.85,0,0,0-.6.71l-.09.31a4,4,0,0,0-.11,1.19c0,.21-.07.48.1.64l.08.05a2.28,2.28,0,0,0,.56.93,1.32,1.32,0,0,0,.12.2l0,.1a.78.78,0,0,0,.31,1,8.52,8.52,0,0,0,1.34,1,1.77,1.77,0,0,0,1.66.06,4.45,4.45,0,0,0,.53-.36,3.44,3.44,0,0,0,1.42-.59c.1,0,.19,0,.22-.11.52.59,1.12-.26,1.13-.59,0,0-.07-.05-.1-.09.15-.28.39-.88.66-1a3.45,3.45,0,0,0-.21-.43,1.33,1.33,0,0,0,.13-.35,1.78,1.78,0,0,0,.73-.2.66.66,0,0,1-.4-.41.94.94,0,0,1,0-.4c0-.1.08-.25.1-.4l.09,0a.66.66,0,0,0,0-.39h.06c.05-.2-.07-.35-.39-.33l0-.11c.09-.22.26-.44.2-.67s-.4-.39-.55-.56a.93.93,0,0,0-.3-.19,3.94,3.94,0,0,0-.78-.8,1.15,1.15,0,0,0-.44-.46l-.61-.23c-.22,0-.53-.19-.75,0h0a4.49,4.49,0,0,0-3,1Zm-1.22,2.63a1.08,1.08,0,0,1,0-.18h0A1.29,1.29,0,0,0,329.36,245.81Zm.21-.6h0v0Z"/><path class="cls-2" d="M183.25,93.11l.16-.19.18.07c.29.1.19-.13.18-.29v-.21c.18-.23.36-.47.53-.71.11,0,.27.1.31.07s-.08-.18-.09-.25c0-.39.83-.14.71-.56a1,1,0,0,1,0-.61l.07-.17.38-.66.18-.06c.22-.08.09-.32.1-.48l0-.09.09,0c.08,0,.26,0,.28-.05s-.06-.12-.08-.17.07,0,.08-.07.27,0,.23-.12l-.21-.13v0l.29,0-.12-.12c.3.07.44,0,.21-.23a.09.09,0,0,0,.06-.06c0-.07-.1-.19-.17-.3v0c.11,0,.17-.07.52,0l-.1-.09c.2,0,.17-.2-.17-.42h0l.08,0c.3,0,.34,0,.27-.12a.13.13,0,0,0,.07-.1,4.16,4.16,0,0,1,.13-.59l0,0c.07,0,.14,0,.15-.08s0-.06,0-.1a.3.3,0,0,0,0-.4h0l.12,0,.12.06c0-.08-.06-.17,0-.21a.67.67,0,0,1,.12.06c-.11-.13,0-.1.28.06-.06-.06-.09-.12-.15-.17.35.13.25-.21.1-.39a.6.6,0,0,0,.24-.13c.1-.1.1-.17-.23-.36l.1-.16-.31-.18h0l-.06,0-.55-.32h0l-.12-.07c0,.12,0,.25-.06.32-.25,0-.31.09-.32.23l-.06.11a2.27,2.27,0,0,1-.21.41c0,.06-.2.09-.12.22l0,0a1.12,1.12,0,0,0-.08.45l0,.09h-.09c-.42-.07-.51,0-.55.14-.09.4-.7.57-.35,1.16l.18.33-.28.56c-.08,0-.13,0-.09.07-.67-.33-.67.06-.58.24l.13.07c0,.11,0,.42-.27.38.11.11.15.18.26.28l-.08.14a3.92,3.92,0,0,0-.64-.19c.46.3.39.43.34.5s-.1.06-.15.1l-.08,0c-.08,0-.07.07-.08.12l0,0c-.1,0,0,.13.23.31l0,0c-.17,0-.4-.08-.45,0s.07.26.06.36a.3.3,0,0,0,.06.18l-.25.38c-.28,0-.28.17-.38.31s-.19.12-.06.31h0c-.25.34-.52.67-.8,1Zm4.54-7.71.05-.1,0,0Zm.29-.27h0Z"/></g></svg>