<svg id="Layer_1" data-name="Layer 1" xmlns="http://www.w3.org/2000/svg" viewBox="0 0 368.42 285"><defs><style>.cls-1{fill:#fff;}</style></defs><title>service</title><path class="cls-1" d="M44.48,105.44a.65.65,0,0,1-.55-.32,38.76,38.76,0,0,1-1.76-3.82l-.72-1.7c-1.09-2.43-4.7-9.8-6.21-12.49-1.6-2.85-6.17-10.26-6.21-10.34a.64.64,0,0,1,.2-.86.63.63,0,0,1,.86.2h0c.05.07,4.63,7.5,6.24,10.38,1.53,2.71,5.17,10.14,6.26,12.59.25.57.49,1.15.73,1.73a38.45,38.45,0,0,0,1.7,3.69.61.61,0,0,1-.23.84h0A.61.61,0,0,1,44.48,105.44Z"/><path class="cls-1" d="M41.7,98.89h-.07a.62.62,0,0,1-.56-.66v0c.06-.69.08-4.08.08-5.71V89.91c.05-3.2.16-9.86.1-12.58V67.55a66.29,66.29,0,0,0-1-9.85L40,56.32c-.79-5.06-1.61-10.3-2.66-15.39v-.16c-.69-3.34-1.85-8.94,1.81-11.24a7.15,7.15,0,0,1,4.27-1.39,8.21,8.21,0,0,1,5.21,2.29,31.27,31.27,0,0,1,4.21,5.11A24.3,24.3,0,0,1,55.18,40a53.19,53.19,0,0,1,3.45,13.07,63.13,63.13,0,0,1,.59,7,5.72,5.72,0,0,1-1.81,4.27,2.15,2.15,0,0,1-1.87.6.62.62,0,0,1,.25-1.22,1.06,1.06,0,0,0,.81-.33A4.51,4.51,0,0,0,58,60.15a61.5,61.5,0,0,0-.57-6.91A52.28,52.28,0,0,0,54,40.46a23.7,23.7,0,0,0-2.2-4.28,29.79,29.79,0,0,0-4-4.91,6.93,6.93,0,0,0-4.41-1.93,6,6,0,0,0-3.51,1.21c-2.93,1.84-1.88,6.9-1.26,9.93v.16c1,5.12,1.87,10.37,2.66,15.45l.22,1.37a67,67,0,0,1,1,10v4.27c0,1.8-.06,3.67,0,5.5.06,2.74,0,9.42-.1,12.62v2.59c0,1.78,0,5.09-.09,5.83A.62.62,0,0,1,41.7,98.89Z"/><path class="cls-1" d="M62.57,96.3a.81.81,0,0,1-.22,0,.63.63,0,0,1-.37-.8c.4-1.14.5-10.47.43-12.07A73,73,0,0,0,58.15,63q-.27-.78-.36-1.08a.64.64,0,0,1,.49-.75.63.63,0,0,1,.72.41c0,.19.17.53.33,1a74,74,0,0,1,4.33,20.75c0,1.15,0,11-.51,12.54A.64.64,0,0,1,62.57,96.3Z"/><path class="cls-1" d="M71.87,126a.65.65,0,0,1-.63-.62c-.09-10.07-7.28-27.07-8.94-29a.63.63,0,0,1,.07-.88h0a.62.62,0,0,1,.87,0v0c1.78,2.09,9.14,19.29,9.24,29.83A.63.63,0,0,1,71.87,126Z"/><path class="cls-1" d="M74.6,83.23a.63.63,0,0,1-.62-.64.63.63,0,0,1,.3-.53c2.12-1.21,2.34-5.33,2.29-6-.76-11.48-6.35-26.34-9.32-29.23A6.27,6.27,0,0,0,59.49,46a.65.65,0,0,1-.86-.22.63.63,0,0,1,.23-.86,7.46,7.46,0,0,1,9.27,1c3.09,3,8.91,18.31,9.69,30,.07,1.06-.23,5.67-2.92,7.2A.6.6,0,0,1,74.6,83.23Z"/><path class="cls-1" d="M88.71,141.72h-.14a.65.65,0,0,1-.48-.74c3.59-16.62-5.12-32.55-5.21-32.71a.67.67,0,0,1-.06-.46c1.33-4.93-.87-13.87-1.7-17.24l-.24-1a28.56,28.56,0,0,0-4-9.07l-.36-.59a.64.64,0,0,1,.12-.89.63.63,0,0,1,.88.12.47.47,0,0,1,.07.12l.35.58a29.34,29.34,0,0,1,4.2,9.46,6.68,6.68,0,0,0,.24,1c.84,3.4,3,12.34,1.75,17.62,1.06,2,8.68,17.36,5.23,33.35A.63.63,0,0,1,88.71,141.72Z"/><path class="cls-1" d="M94,109.11h0a.64.64,0,0,1-.59-.66,82.49,82.49,0,0,0-1.94-14.93c-3.05-9.6-8.36-11.37-8.41-11.38a5.07,5.07,0,0,0-3.41.77.62.62,0,0,1-.87-.13.62.62,0,0,1,.12-.87h0a6.35,6.35,0,0,1,4.48-1c1.63.43,6.5,3.45,9.29,12.22a83.7,83.7,0,0,1,2,15.37.61.61,0,0,1-.62.61Z"/><path class="cls-1" d="M178.45,226.65a.63.63,0,0,1-.63-.59c0-.82-.08-1.71-.11-2.65-.3-8.29-.76-20.82-8.23-34-10.88-19.17-26-27.25-36.77-30.65a58.4,58.4,0,0,0-21-2.81.63.63,0,0,1-.64-.37c-2.37-5.4-15.86-11.72-22.55-13.91L87,141.22a13.88,13.88,0,0,1-5.1-2.2c-1.4-1.15-4.57-5.35-7.12-8.73-1.34-1.78-2.5-3.31-3.09-4s-1.75-2.21-3.1-4c-1.74-2.29-3.71-4.88-4.52-5.73a40.12,40.12,0,0,0-3.21-2.91c-.59-.5-1.18-1-1.77-1.53a54.28,54.28,0,0,0-8.42-5.19,14.83,14.83,0,0,0-6-1.24,10.33,10.33,0,0,0-4.35,2c-1.34,1-1.79,2.66-2.18,4.42A9.19,9.19,0,0,0,39,117.3c.17.47.34.93.48,1.4.61,2,4,7.27,6.87,10.66l1.4,1.6c2.24,2.54,6,6.79,6.89,8.08a131.32,131.32,0,0,0,10,10.7c.7.61,1.46,1.22,2.18,1.8a39.39,39.39,0,0,1,3.65,3.18A62.26,62.26,0,0,1,76,161a58.76,58.76,0,0,1,5.7,9.39c.52,1,1.07,2.09,1.62,3.11s1.15,2.17,1.69,3.27c.21.43.47.88.74,1.35a10.89,10.89,0,0,1,1.58,3.65.62.62,0,0,1-.46.76.63.63,0,0,1-.76-.46s0-.07,0-.1a10.14,10.14,0,0,0-1.42-3.23c-.29-.49-.56-1-.78-1.41-.54-1.09-1.12-2.18-1.68-3.24S81.08,172,80.56,171A58.09,58.09,0,0,0,75,161.77a58.9,58.9,0,0,0-5.42-6.18A38.24,38.24,0,0,0,66,152.52c-.74-.59-1.5-1.21-2.22-1.84a129.61,129.61,0,0,1-10.17-10.92c-.87-1.24-4.73-5.62-6.81-8-.72-.82-1.25-1.42-1.42-1.63-2.69-3.2-6.38-8.74-7.11-11.09-.13-.45-.3-.9-.46-1.35a10.43,10.43,0,0,1-.83-5.93c.42-1.92,1-3.9,2.65-5.16a11.13,11.13,0,0,1,5-2.18,16,16,0,0,1,6.63,1.36,54.78,54.78,0,0,1,8.7,5.38c.58.52,1.16,1,1.74,1.51a40.76,40.76,0,0,1,3.3,3c.87.89,2.77,3.41,4.62,5.84,1.28,1.69,2.49,3.28,3,3.92s1.78,2.26,3.14,4.06c2.38,3.14,5.63,7.46,6.91,8.51a13.26,13.26,0,0,0,4.65,2c.54.15,1.06.3,1.56.46,6,2,20,8.21,23.11,14.19a59.8,59.8,0,0,1,21,2.88c11,3.47,26.44,11.69,37.54,31.24,7.62,13.43,8.08,26.14,8.39,34.55,0,.94.07,1.82.11,2.63a.63.63,0,0,1-.59.66h0Z"/><path class="cls-1" d="M171,285h-.15a.64.64,0,0,1-.47-.75c1.15-4.92,3.68-16.27,5.08-24,.4-2.21,1.8-11,2.28-14.62.63-4.68,1.12-16.38,0-21.42a.65.65,0,0,1,.48-.75.61.61,0,0,1,.74.47h0c1.13,5.18.64,17.1,0,21.86-.48,3.58-1.88,12.45-2.29,14.67-1.4,7.75-3.94,19.12-5.09,24A.6.6,0,0,1,171,285Z"/><path class="cls-1" d="M116.56,282.39a.62.62,0,0,1-.53-1c1.89-2.86,9.89-19.16,10.06-20.53l.19-4.44c.34-3.93-1.6-8.11-3.3-11.81-.36-.78-.72-1.55-1-2.29a33.75,33.75,0,0,0-2.48-4.48c-.53-.84-1.07-1.72-1.57-2.62l-.4-.73a29.37,29.37,0,0,0-3.92-6,170.09,170.09,0,0,0-14-13.24A176.14,176.14,0,0,0,81,201,116.05,116.05,0,0,1,71,193.23l-2.51-2.09c-1.59-1.3-3.22-2.56-4.8-3.78-1.34-1-2.72-2.11-4.07-3.2a29.66,29.66,0,0,1-6.41-7A34.25,34.25,0,0,1,50,168.79l-.89-3.06c-1.54-5.15-4.8-13.65-4.84-13.73-1.23-2.45-5.55-11.74-6.41-13.84-.94-2.33-5.55-11.47-6.84-13.84C28.62,119.9,20.78,104,20.29,102.51c-.4-1.24-.69-2.51-1-3.74A29.8,29.8,0,0,0,18,94.22c-.26-.67-.51-1.34-.77-2a94.15,94.15,0,0,0-6.13-13.63A82.3,82.3,0,0,1,6.31,67.77c-.41-1-.81-2.07-1.22-3.1L4.8,64a33.69,33.69,0,0,1-1.68-4.8c-.46-1.87-1.2-4.91,1.58-6.41a10.7,10.7,0,0,1,6.4-1.18,11.64,11.64,0,0,1,5.78,2.06A45.08,45.08,0,0,1,21.33,58l.52.56a42.71,42.71,0,0,1,6.41,9.86c1.37,2.89,3.68,13.11.18,15.09a.63.63,0,0,1-.62-1.09c2.36-1.33.76-10.4-.69-13.46a42.46,42.46,0,0,0-6.2-9.54l-.52-.57a43.23,43.23,0,0,0-4.3-4.26A10.41,10.41,0,0,0,11,52.82a9.45,9.45,0,0,0-5.69,1c-1.78,1-1.49,2.81-1,5a33.54,33.54,0,0,0,1.63,4.67l.3.71c.41,1,.82,2.07,1.22,3.11A80,80,0,0,0,12.22,78a97.05,97.05,0,0,1,6.17,13.82c.25.66.51,1.33.77,2a32.33,32.33,0,0,1,1.32,4.74c.27,1.2.55,2.44.93,3.62s8.12,17,10.67,21.6c1.31,2.38,6,11.61,6.91,14,.85,2.08,5.14,11.31,6.4,13.8,0,.14,3.33,8.69,4.89,13.88.34,1.13.63,2.15.89,3.08a34,34,0,0,0,3,8.09,28.55,28.55,0,0,0,6.1,6.64c1.35,1.08,2.73,2.15,4.06,3.18,1.58,1.22,3.22,2.49,4.82,3.81l2.52,2.09a117.12,117.12,0,0,0,10,7.68,176.69,176.69,0,0,1,18.69,14.34,173.14,173.14,0,0,1,14.14,13.35,30,30,0,0,1,4.1,6.24l.4.72c.48.88,1,1.74,1.53,2.58a34.24,34.24,0,0,1,2.56,4.63c.32.73.68,1.49,1,2.27,1.77,3.84,3.78,8.18,3.42,12.41l-.19,4.45c-.17,1.68-8.37,18.28-10.27,21.13A.59.59,0,0,1,116.56,282.39Z"/><path class="cls-1" d="M.62,51.81s9.74,4.79,10.24,14.1C11,68.05,8,70.41,8,70.41Z"/><path class="cls-1" d="M8,71H7.82a.7.7,0,0,1-.42-.37L0,52.07a.63.63,0,0,1,.16-.69.61.61,0,0,1,.7-.1c.41.2,10.07,5.06,10.58,14.62.13,2.41-2.78,4.77-3.11,5A.7.7,0,0,1,8,71ZM1.87,53.27,8.24,69.35c.88-.84,2-2.25,2-3.41C9.88,59.32,4.56,55,1.87,53.27Z"/><path class="cls-1" d="M34.83,27.2a14.9,14.9,0,0,1,7,15.82A4.06,4.06,0,0,1,39.3,46.2Z"/><path class="cls-1" d="M39.31,46.83a.72.72,0,0,1-.32-.08.68.68,0,0,1-.3-.4l-4.42-19a.59.59,0,0,1,.23-.63.61.61,0,0,1,.68-.06,15.64,15.64,0,0,1,7.26,16.48,4.68,4.68,0,0,1-2.95,3.67ZM35.8,28.59l3.88,16.66a3.57,3.57,0,0,0,1.48-2.38A14.19,14.19,0,0,0,35.8,28.59Z"/><path class="cls-1" d="M103.5,148.59h-.11a.65.65,0,0,1-.52-.72c2.36-14.16-3-18.49-3.1-18.53a.69.69,0,0,1-.24-.52c.47-16.76-5.88-21.49-5.94-21.53a.61.61,0,0,1-.15-.86h0a.62.62,0,0,1,.86-.16c.29.2,6.9,5,6.49,22.3,1.14,1.08,5.53,6.21,3.32,19.51A.61.61,0,0,1,103.5,148.59Z"/><path class="cls-1" d="M37.14,103.36c1.45-1.34,4.3-2.72,12,3.82,1.91,1.63,6.22,7,8.44,9.17,0,0-.75,7.06-9.59,9.27,0,0-7.3-5.83-9.92-10.63C33.88,107.33,35.61,104.77,37.14,103.36Z"/><path class="cls-1" d="M48,126.25a.67.67,0,0,1-.4-.14c-.3-.24-7.43-6-10.08-10.82-4.22-7.73-2.64-10.68-.79-12.39h0c1.71-1.59,4.9-2.92,12.81,3.8a60.85,60.85,0,0,1,4.77,5.13c1.42,1.61,2.76,3.13,3.71,4.07a.63.63,0,0,1,.18.52c0,.07-.9,7.51-10,9.81Zm-8.13-23.4a3.14,3.14,0,0,0-2.29,1h0c-3.25,3-.36,8.31,1,10.87,2.26,4.15,8.25,9.2,9.52,10.25,7.07-1.91,8.52-7.11,8.77-8.38-1-1-2.21-2.4-3.54-3.91a60.89,60.89,0,0,0-4.64-5C44.21,103.82,41.51,102.84,39.86,102.85Zm-2.72.51Z"/><path class="cls-1" d="M55.31,41.13C59,44,61.58,48.29,61.23,55.34c-.14,2.81-2.58,4.2-2.64,3.71,0,0-.41-5.28-.63-7C57.62,49.32,55.31,41.13,55.31,41.13Z"/><path class="cls-1" d="M58.76,59.77a.72.72,0,0,1-.77-.65c0-.07-.41-5.3-.63-7-.35-2.64-2.61-10.73-2.63-10.81a.64.64,0,0,1,.25-.69.62.62,0,0,1,.73,0c4.47,3.43,6.49,8.25,6.16,14.73-.13,2.63-2.1,4.37-3.09,4.4ZM56.48,43c.71,2.62,1.87,7.07,2.12,9,.17,1.36.45,4.76.57,6.29a4,4,0,0,0,1.45-2.93C60.88,50.07,59.53,46,56.48,43Z"/><path class="cls-1" d="M250,223.7a.62.62,0,0,1-.62-.56c-.43-4.06,1.42-8.29,3-12,.33-.76.66-1.5,1-2.22a36,36,0,0,1,2.39-4.51c.48-.81,1-1.65,1.43-2.5l.37-.71a30.3,30.3,0,0,1,3.83-6.09A168.77,168.77,0,0,1,274.76,182a173,173,0,0,1,17.74-14.21,107.59,107.59,0,0,0,9.44-7.58l2.38-2.06c1.52-1.29,3.07-2.54,4.57-3.75,1.27-1,2.58-2.07,3.86-3.15a27.58,27.58,0,0,0,5.75-6.49,32.31,32.31,0,0,0,2.77-7.85l.8-3c1.4-5,4.4-13.33,4.43-13.41,1.19-2.49,5.15-11.45,5.92-13.47.88-2.29,5.18-11.26,6.4-13.58,2.37-4.51,9.5-19.77,9.87-21s.59-2.35.83-3.51a32.39,32.39,0,0,1,1.18-4.58c.24-.65.48-1.3.71-2A94.28,94.28,0,0,1,357.1,49a75,75,0,0,0,4.39-10.33c.37-1,.75-2,1.13-3l.27-.7a30.75,30.75,0,0,0,1.47-4.47c.47-2.11.71-3.9-1-4.78a9.09,9.09,0,0,0-5.48-.89,10,10,0,0,0-4.9,1.83,45.17,45.17,0,0,0-4,4.18l-.5.56a41.28,41.28,0,0,0-5.78,9.29c-1.34,3-2.72,11.71-.43,13a.62.62,0,0,1,.26.85.63.63,0,0,1-.85.25c-3.42-1.84-1.39-11.75-.12-14.56a42.39,42.39,0,0,1,6-9.62l.49-.55a44.05,44.05,0,0,1,4.21-4.32,11.17,11.17,0,0,1,5.54-2.1,10.27,10.27,0,0,1,6.19,1c2.73,1.39,2.06,4.35,1.67,6.12a31,31,0,0,1-1.54,4.69l-.26.7c-.38,1-.75,2-1.12,3a74.62,74.62,0,0,1-4.48,10.5,94.12,94.12,0,0,0-5.6,13.25l-.71,2a31.55,31.55,0,0,0-1.13,4.4c-.25,1.19-.5,2.42-.86,3.62-.44,1.44-7.7,16.9-10,21.21-1.21,2.3-5.47,11.19-6.34,13.45-.78,2-4.77,11.06-5.94,13.5,0,0-3,8.27-4.37,13.26-.31,1.09-.56,2.06-.8,3a33.23,33.23,0,0,1-2.88,8.13,28.44,28.44,0,0,1-6,6.85c-1.29,1.08-2.6,2.14-3.87,3.17-1.5,1.2-3,2.44-4.54,3.72l-2.38,2a108.63,108.63,0,0,1-9.55,7.67,171.61,171.61,0,0,0-17.61,14.11,162.75,162.75,0,0,0-13.27,13,28.94,28.94,0,0,0-3.66,5.84l-.38.71c-.46.88-1,1.74-1.46,2.56a34.7,34.7,0,0,0-2.3,4.35c-.3.72-.63,1.47-1,2.24-1.57,3.58-3.35,7.65-3,11.38a.62.62,0,0,1-.54.69H250Z"/><path class="cls-1" d="M326.55,76.12a.61.61,0,0,1-.63-.6.6.6,0,0,1,.07-.32,36.64,36.64,0,0,0,1.57-3.58c.22-.56.44-1.13.67-1.68,1-2.38,4.37-9.6,5.79-12.25s5.77-10,5.82-10.11a.61.61,0,0,1,.84-.23h0a.64.64,0,0,1,.23.86c-.05.07-4.31,7.29-5.8,10.06s-4.74,9.78-5.74,12.15l-.66,1.65a34.8,34.8,0,0,1-1.63,3.71A.6.6,0,0,1,326.55,76.12Z"/><path class="cls-1" d="M329.11,69.77a.64.64,0,0,1-.63-.56c-.08-.72-.16-3.94-.2-5.67v-.82c0-.26,0-.81-.06-1.57-.11-3.1-.34-9.54-.33-12.2,0-1.75-.06-3.55-.12-5.28,0-1.35-.09-2.74-.11-4.12a66.8,66.8,0,0,1,.82-9.69l.18-1.31c.66-4.91,1.35-10,2.28-14.95v-.15c.54-2.92,1.46-7.81-1.38-9.52a5.78,5.78,0,0,0-3.39-1.09A6.75,6.75,0,0,0,322,4.77a30,30,0,0,0-3.81,4.8,23.76,23.76,0,0,0-2,4.16,51.15,51.15,0,0,0-3,12.37q-.37,3.31-.42,6.66a4.36,4.36,0,0,0,1.37,3.09,1.07,1.07,0,0,0,.77.3.61.61,0,0,1,.74.45v0a.62.62,0,0,1-.45.75h0a2.16,2.16,0,0,1-1.83-.55,5.61,5.61,0,0,1-1.83-4.1,66.9,66.9,0,0,1,.43-6.79A51.51,51.51,0,0,1,315,13.27a25.13,25.13,0,0,1,2.13-4.36,31.11,31.11,0,0,1,4-5,8,8,0,0,1,5-2.31,6.86,6.86,0,0,1,4.16,1.26c3.59,2.16,2.57,7.58,2,10.82v.15c-.92,4.93-1.61,10-2.27,14.89L329.85,30a65.71,65.71,0,0,0-.81,9.5c0,1.37.07,2.75.11,4.09.06,1.75.12,3.55.12,5.34,0,2.62.22,9.06.33,12.15,0,.76,0,1.32.06,1.57v.84c0,1.58.11,4.88.18,5.55a.61.61,0,0,1-.52.69h-.21Z"/><path class="cls-1" d="M309,67.65a.6.6,0,0,1-.59-.4c-.55-1.44-.75-11-.72-12.08a71.83,71.83,0,0,1,3.78-20.07c.15-.46.25-.79.3-1a.64.64,0,0,1,.76-.45.62.62,0,0,1,.46.75h0a4.64,4.64,0,0,1-.32,1,70.06,70.06,0,0,0-3.72,19.71c0,1.54.22,10.52.64,11.61a.62.62,0,0,1-.36.8h0A.55.55,0,0,1,309,67.65Z"/><path class="cls-1" d="M300.55,96.45a.64.64,0,0,1-.63-.62c-.1-10.16,6.68-26.86,8.35-28.91a.65.65,0,0,1,.9-.11.64.64,0,0,1,.1.9h0c-1.56,1.92-8.16,18.42-8.07,28.11a.61.61,0,0,1-.6.63Z"/><path class="cls-1" d="M297.13,55.29a.66.66,0,0,1-.3-.07c-2.63-1.44-3-5.88-3-6.91.54-11.32,5.85-26.16,8.78-29.12A7.2,7.2,0,0,1,311.55,18a.62.62,0,1,1-.61,1.09h0a6,6,0,0,0-7.44.94c-2.8,2.83-7.9,17.24-8.42,28.3,0,.68.26,4.63,2.31,5.75a.62.62,0,0,1,.25.85A.64.64,0,0,1,297.13,55.29Z"/><path class="cls-1" d="M284.63,111.89a.63.63,0,0,1-.61-.48c-3.62-15.32,3.4-30.22,4.4-32.23-1.33-5.06.63-13.71,1.37-17,.09-.42.16-.74.2-.94A29.13,29.13,0,0,1,293.87,52l.33-.56a.64.64,0,0,1,.89-.12.62.62,0,0,1,.19.75l-.34.57a28.21,28.21,0,0,0-3.72,8.81,7.21,7.21,0,0,1-.21,1c-.74,3.25-2.69,11.9-1.32,16.62a.55.55,0,0,1,0,.47c-.08.15-8.16,15.65-4.41,31.57a.62.62,0,0,1-.46.75Z"/><path class="cls-1" d="M279,80.59a.65.65,0,0,1-.63-.59A82.32,82.32,0,0,1,280,65.15c2.53-8.5,7.16-11.51,8.74-12a6.1,6.1,0,0,1,4.35.88.61.61,0,0,1,.15.86h0a.64.64,0,0,1-.88.14,4.84,4.84,0,0,0-3.28-.68c-.05,0-5.11,1.81-7.87,11.1a82,82,0,0,0-1.58,14.41.63.63,0,0,1-.58.67Z"/><path class="cls-1" d="M199.8,195.34h0a.62.62,0,0,1-.6-.64h0v-2.54c.14-8.11.35-20.36,7.44-33.44,10.33-19,25-27.25,35.58-30.79a57.73,57.73,0,0,1,20.18-3.17c2.91-5.82,16.22-12.08,22-14.09l1.5-.48a12,12,0,0,0,4.43-2c1.2-1,4.26-5.24,6.49-8.31,1.27-1.76,2.37-3.28,3-4s1.66-2.19,2.86-3.84c1.73-2.37,3.52-4.83,4.34-5.71a42.05,42.05,0,0,1,3.12-3l1.65-1.48a54.77,54.77,0,0,1,8.29-5.35,15.43,15.43,0,0,1,6.37-1.44,10.88,10.88,0,0,1,4.85,2c1.64,1.18,2.21,3.08,2.65,4.93a9.83,9.83,0,0,1-.69,5.74c-.15.44-.29.87-.42,1.3-.65,2.29-4.11,7.7-6.64,10.83l-1.34,1.6c-2,2.3-5.59,6.59-6.4,7.79A121.57,121.57,0,0,1,308.87,120c-.69.62-1.41,1.23-2.11,1.81a39.63,39.63,0,0,0-3.35,3,62,62,0,0,0-5.09,6,56.47,56.47,0,0,0-5.2,8.94c-.49,1-1,2.06-1.51,3.06s-1.06,2.1-1.56,3.16c-.21.45-.46.9-.72,1.38a9.76,9.76,0,0,0-1.31,3.12.63.63,0,1,1-1.24-.17,10.87,10.87,0,0,1,1.45-3.56c.25-.46.49-.89.69-1.31.5-1.07,1-2.15,1.57-3.19s1-2,1.5-3a57.74,57.74,0,0,1,5.31-9.14,62.6,62.6,0,0,1,5.2-6.17,40.89,40.89,0,0,1,3.46-3.13c.69-.57,1.4-1.17,2.06-1.77a122.82,122.82,0,0,0,9.4-10.49c.85-1.26,4.38-5.42,6.48-7.9L325.23,99c2.68-3.32,5.86-8.46,6.41-10.38.13-.45.28-.91.44-1.37a8.86,8.86,0,0,0,.66-5c-.41-1.68-.87-3.27-2.17-4.21a9.71,9.71,0,0,0-4.22-1.78,14,14,0,0,0-5.7,1.3,53.42,53.42,0,0,0-8,5.15c-.56.52-1.12,1-1.68,1.51a38.56,38.56,0,0,0-3,2.86c-.77.83-2.62,3.36-4.25,5.6-1.26,1.74-2.36,3.24-2.91,3.9s-1.64,2.16-2.9,3.9c-2.39,3.3-5.37,7.4-6.69,8.54a13.77,13.77,0,0,1-4.91,2.35c-.5.15-1,.3-1.45.46-6.4,2.23-19.26,8.56-21.44,13.8a.63.63,0,0,1-.63.38,56.55,56.55,0,0,0-20.18,3.11c-10.3,3.47-24.7,11.52-34.82,30.18-6.94,12.81-7.15,24.88-7.29,32.86v2.56a.61.61,0,0,1-.65.6Z"/><path class="cls-1" d="M208.11,251.4a.66.66,0,0,1-.62-.48c-1.19-4.73-3.85-15.63-5.35-23.06-.42-2.12-1.94-10.63-2.47-14.09-.71-4.57-1.41-16-.41-21.06a.62.62,0,0,1,.73-.49h0a.63.63,0,0,1,.49.74c-1,4.87-.27,16.12.42,20.62.54,3.44,2,11.92,2.47,14,1.49,7.41,4.14,18.29,5.34,23a.63.63,0,0,1-.46.76Z"/><path class="cls-1" d="M260.44,247.87a.64.64,0,0,1-.52-.27c-1.88-2.72-10.1-18.55-10.29-20.14-.09-.82-.17-2-.24-3.07s-.14-2-.22-2.76a.64.64,0,0,1,.56-.69.63.63,0,0,1,.68.56h0c.09.75.15,1.75.22,2.81s.15,2.22.25,3c.2,1.31,8.2,16.86,10.07,19.57a.64.64,0,0,1-.16.87A.7.7,0,0,1,260.44,247.87Z"/><path class="cls-1" d="M367.79,23.59s-9.3,4.8-9.6,13.77c-.07,2.07,2.85,4.29,2.85,4.29Z"/><path class="cls-1" d="M361.05,42.31a.71.71,0,0,1-.39-.12c-.32-.25-3.17-2.48-3.09-4.81.31-9.23,9.54-14.1,9.93-14.3a.62.62,0,0,1,.84.25.59.59,0,0,1,0,.52l-6.74,18.06a.65.65,0,0,1-.41.38Zm5.51-17.18c-2.57,1.77-7.53,6-7.74,12.29,0,1.11,1.09,2.42,2,3.21Z"/><path class="cls-1" d="M334.38.59A14.37,14.37,0,0,0,328,16a4,4,0,0,0,2.49,3Z"/><path class="cls-1" d="M330.49,19.59a.6.6,0,0,1-.19,0,4.59,4.59,0,0,1-2.92-3.49,15.13,15.13,0,0,1,6.7-16,.62.62,0,0,1,.67,0,.63.63,0,0,1,.25.64l-3.91,18.38a.58.58,0,0,1-.29.41A.78.78,0,0,1,330.49,19.59Zm3-17.58a13.52,13.52,0,0,0-4.84,13.81,3.52,3.52,0,0,0,1.44,2.23Z"/><path class="cls-1" d="M270.52,118.75a.64.64,0,0,1-.62-.51c-2.38-12.74,1.74-17.78,2.83-18.86C272,82.73,278.3,78,278.57,77.77a.63.63,0,0,1,.88.14.6.6,0,0,1-.13.86h0a11.63,11.63,0,0,0-2.94,4.28c-1.3,2.89-2.77,8.11-2.37,16.55a.63.63,0,0,1-.24.52c-.05,0-5.14,4.4-2.63,17.88a.62.62,0,0,1-.5.73Z"/><path class="cls-1" d="M333.58,74c-1.42-1.26-4.19-2.54-11.47,3.9-1.81,1.6-5.87,6.84-8,9,0,0,.85,6.78,9.4,8.75,0,0,6.93-5.75,9.36-10.43C336.79,77.72,335.08,75.29,333.58,74Z"/><path class="cls-1" d="M323.56,96.23h-.15a13,13,0,0,1-8.29-5.38,10.48,10.48,0,0,1-1.59-3.9.7.7,0,0,1,.17-.52c.9-.92,2.16-2.41,3.49-4q2.13-2.61,4.5-5c7.51-6.63,10.62-5.4,12.3-3.9h0c1.82,1.61,3.4,4.43-.52,12C331,90.27,324.24,95.91,324,96.15A.74.74,0,0,1,323.56,96.23Zm-8.74-9.18c.26,1.25,1.71,6.16,8.57,7.87,1.23-1,6.87-6,9-10,4-7.63,1.83-9.54.8-10.46-.85-.75-3.1-2.75-10.64,3.91a61.62,61.62,0,0,0-4.37,4.9c-1.28,1.43-2.45,2.82-3.36,3.78Z"/><path class="cls-1" d="M314.9,14.37c-3.52,2.82-5.9,7-5.43,13.79.19,2.71,2.56,4,2.61,3.53,0,0,.29-5.09.48-6.77C312.85,22.3,314.9,14.37,314.9,14.37Z"/><path class="cls-1" d="M312,32.41h0c-1,0-2.91-1.66-3.08-4.2-.44-6.25,1.42-10.93,5.66-14.32a.63.63,0,0,1,1,.64c0,.08-2,7.91-2.33,10.46-.18,1.64-.47,6.69-.48,6.74A.73.73,0,0,1,312,32.41Zm0-1.25Zm1.8-14.92c-2.82,3-4,6.89-3.69,11.88a3.91,3.91,0,0,0,1.41,2.76c.09-1.48.29-4.73.44-6,.23-1.85,1.24-6.09,1.87-8.64Z"/><path class="cls-1" d="M129.6,91.81c-32.5.31-62.11-2.94-88.39-9.72-3-.78-4.85-4.8-4.46-7.88.34-2.69,2.22-4.25,5.14-4.28H42a.24.24,0,0,1,.24.24.23.23,0,0,1-.23.23H41.9c-2.67,0-4.37,1.44-4.68,3.87-.36,2.82,1.35,6.66,4.1,7.37,36.36,9.38,79.11,12,127.07,7.75,51-4.51,105.47-16.62,161.89-36,1.81-.62,3-.61,3.3,0,.46,1-1.27,2.79-4.76,5a.22.22,0,0,1-.31-.08h0a.24.24,0,0,1,.07-.32h0c3.77-2.39,4.8-3.94,4.58-4.39s-1.06-.38-2.72.19c-56.45,19.39-111,31.5-162,36Q148.42,91.59,129.6,91.81Z"/><path class="cls-1" d="M31.18,124.52a25.83,25.83,0,0,1-4.73-.25c-.76-.17-1.21-.52-1.26-1-.08-.83,1.21-1.83,4-3.06a.23.23,0,0,1,.31.12.21.21,0,0,1-.11.3h0c-3.41,1.53-3.72,2.31-3.69,2.58s.48.47.89.56c2.19.48,8.44.15,12.17,0l2-.1a.22.22,0,0,1,.24.22h0a.24.24,0,0,1-.22.25c-.53,0-1.22,0-2,.1C36.64,124.35,33.72,124.5,31.18,124.52Z"/><path class="cls-1" d="M88.42,121.44q-9.75.11-19.55-.35a.24.24,0,0,1-.22-.24h0a.24.24,0,0,1,.25-.23h0C131,123.52,193,108.74,234,95.83c44.44-14,74.58-28.86,74.88-29a.22.22,0,0,1,.31.1h0a.24.24,0,0,1-.1.32c-.3.15-30.46,15-74.94,29C197.38,107.84,143.85,120.91,88.42,121.44Z"/><path class="cls-1" d="M288.31,105.17c-17.26.17-54.54-1.73-129.28-13.32-51.65-8-92.6-16.35-97-18.82a.25.25,0,0,1-.1-.32.24.24,0,0,1,.32-.09c8.5,4.71,170.66,34.32,230.92,32a.22.22,0,0,1,.24.22h0a.25.25,0,0,1-.23.25C291.78,105.11,290.18,105.15,288.31,105.17Z"/><path class="cls-1" d="M331.74,107.17a68.84,68.84,0,0,1-11-1,.24.24,0,0,1-.19-.27.24.24,0,0,1,.27-.19c.16,0,16.22,2.79,19.12-1.28a1.07,1.07,0,0,0,.21-1.09c-.45-1.15-3.06-1.93-4-2.14A.24.24,0,0,1,336,101h0a.24.24,0,0,1,.28-.18c.15,0,3.74.81,4.37,2.43a1.57,1.57,0,0,1-.27,1.54C339.06,106.59,335.49,107.14,331.74,107.17Z"/><path class="cls-1" d="M67.1,156a9.78,9.78,0,0,1-3-.2A2.73,2.73,0,0,1,62.73,154c-.36-1.82,1.19-3.83,1.25-3.91a.25.25,0,0,1,.33-.05.24.24,0,0,1,0,.33s-1.48,1.94-1.16,3.54a2.22,2.22,0,0,0,1.15,1.5c1.32.75,34.59-1.27,78.87-9.23,39.48-7.11,95.87-20.44,140.28-43.62a.24.24,0,0,1,.31.07v0a.23.23,0,0,1-.09.32c-44.47,23.21-100.91,36.6-140.4,43.67C106.7,153.24,76.52,156,67.1,156Z"/><path class="cls-1" d="M191.24,156.33a258.37,258.37,0,0,1-46.63-3.6c-28.2-4.88-53.36-14.72-74.8-29.26a.25.25,0,0,1-.06-.33.24.24,0,0,1,.32-.06c21.38,14.5,46.49,24.32,74.62,29.19,22.64,3.92,47.24,4.65,73.12,2.17a348.63,348.63,0,0,0,56.09-10.1c14.15-3.78,22.78-7.12,23.45-7.61a2.23,2.23,0,0,0,1-1.62c.14-1.62-1.52-3.37-1.53-3.39a.26.26,0,0,1,0-.33.23.23,0,0,1,.34,0h0c.07.07,1.82,1.91,1.66,3.75a2.64,2.64,0,0,1-1.18,2c-1.1.8-33.78,13.41-79.77,17.8Q204.31,156.21,191.24,156.33Z"/><circle cx="223.66" cy="81.99" r="10.65"/><path class="cls-1" d="M223.77,93A11,11,0,1,1,234.62,81.8v.08A11,11,0,0,1,223.77,93Zm-.21-21.3A10.34,10.34,0,1,0,234,81.89,10.33,10.33,0,0,0,223.56,71.65Z"/><path class="cls-1" d="M217.25,80.75v-.09h0c.07,0,0-.08,0-.13v0a.63.63,0,0,0-.09-.33v-.07s-.06,0-.08,0,0-.28-.16-.31l-.23-.06h-.07a.94.94,0,0,0-.3,0h-.06a.2.2,0,0,0-.18.06h-.16s0,0,0,.06h-.1v.06h-.07c-.07,0-.14,0-.11.08h0V80h0a.17.17,0,0,1-.14,0h0s-.06.1,0,.15h0c-.08,0-.09,0-.07.08v0a1.13,1.13,0,0,0,0,.26h0a.09.09,0,0,0,0,.07h0a.22.22,0,0,0,.08.13h0v.07h0v.07h.06a.12.12,0,0,0,.13.12l.06.1H216v-.07h0l.07-.13h-.09a.07.07,0,0,0,0-.1h0a.36.36,0,0,1-.07-.1v-.06h0l-.07-.11h0c.09,0,.1-.06.09-.1s.11-.16,0-.3v-.09a.53.53,0,0,1,.13-.13h0c.1.15.14.07.16,0h0s.1-.07.13,0v-.09h0V80c0-.13.07-.13.09-.12h0l.07-.06h0v.11s.07,0,.1,0m.05,0,.09.11v.15s0,.06.06.07h0a.72.72,0,0,1,0,.41Zm-1,1Zm.07.15Z"/><path class="cls-1" d="M223.38,83.21h.12c.06.07.11,0,.17,0h.07a1.88,1.88,0,0,0,.42-.14h.09s0-.06,0-.09.33-.07.37-.24,0-.19.08-.29v-.09a.86.86,0,0,0,0-.39v-.08a.43.43,0,0,0-.09-.23v-.07h0v-.12h-.06v-.12h-.05v-.08h0c0-.08,0-.15-.11-.13h0a.13.13,0,0,0-.12,0h0a.2.2,0,0,1,0-.15h0s-.13-.07-.19,0h0a.07.07,0,0,0-.11-.07h-.07a1.82,1.82,0,0,0-.33,0h0a.11.11,0,0,0-.08,0h0a.36.36,0,0,0-.17.11h0l-.08.08h-.08c-.08,0,0,0,0,.06s-.16.1-.15.17-.09,0-.11.09-.07.09,0,.14l0,.09h.08l.13.06h0V81.6a.12.12,0,0,0,.12-.09h0l.14-.11s.08,0,.09-.05h0l.16-.09h0c.07.08.09.09.15.08s.26.12.45.07h.11a.66.66,0,0,1,.19.18h0c-.14.11,0,.19,0,.22h0s.09.14,0,.18h.09v.07l-.16.06c.13,0,.13.08.12.11s0,0,0,.06h0v.06h0a.12.12,0,0,0,.06.09h-.11s0,.08,0,.12v.06l-.15.14c-.09,0-.12,0-.19.08s-.09,0-.1.08h0a1.37,1.37,0,0,1-.57.09ZM223,81.07h0Z"/><path class="cls-1" d="M226.31,76.75l-.14-.06v0c0-.08-.11-.06-.18-.07h-.09a1.06,1.06,0,0,1-.33-.37.11.11,0,0,0,0-.08l-.08-.06c-.08-.06.09-.32,0-.48a.76.76,0,0,1,0-.3v-.11a1.14,1.14,0,0,1,.19-.4h.07c.09,0,.11-.14.18-.2h.21v-.06h.29s0,0,0-.06h0l.07,0h0c.05.07.12.08.17,0h0a.24.24,0,0,0,.12,0h0a.15.15,0,0,1,.09.14h0c0,.06.12.06.19,0h0c0,.09,0,.11.08.11h.06a.79.79,0,0,1,.25.23h0v.08h0a.57.57,0,0,0,.12.18h0v.06h0a.11.11,0,0,1,0,.11h-.06c-.07,0,0,.17,0,.23l-.06.12V76h.07l.13.07h0a.25.25,0,0,1,.06-.2.32.32,0,0,0,.11-.24v-.55h0a.74.74,0,0,0-.14-.28v-.06h0a.24.24,0,0,0-.1-.29c-.2-.2-.48-.47-.8-.4h-.17a1.69,1.69,0,0,0-.45,0s0,0-.07,0c-.06-.17-.32,0-.37,0h0c-.09.05-.22.2-.3.21v.12l-.08.09h-.19c.09.1,0,.19,0,.25l-.06.1h0V75h0s0,.1.05.13h0c-.05,0-.11.08-.12.14a.74.74,0,0,0,0,.21v.1a1.71,1.71,0,0,0,0,.32.48.48,0,0,0,.08.35.19.19,0,0,0,.14.17h0a1.6,1.6,0,0,0,.78.5Zm1.51-1.4v.06h0Z"/><path class="cls-1" d="M225.92,86.94l-.21,0v0c-.1-.07-.2,0-.31,0h-.14a1.34,1.34,0,0,0-.73.32.15.15,0,0,0-.13,0,.2.2,0,0,1-.06.14,1.88,1.88,0,0,1-.18.24h0a.68.68,0,0,0-.27.44,3.84,3.84,0,0,0,0,.48v.18a1.63,1.63,0,0,0,.28.63l.06.13a.82.82,0,0,0,.37.24l.08,0h.06a.46.46,0,0,0,.14.1h.21a.24.24,0,0,0,.2,0v0h0l.11.06h0a.22.22,0,0,0,.29,0h.07a.47.47,0,0,0,.14-.14h0a.3.3,0,0,1,.23,0v-.07a.21.21,0,0,0,.16-.26h0a.22.22,0,0,0,.15-.26,3.24,3.24,0,0,0,.16-.53v-.05a.31.31,0,0,0,.05-.12.11.11,0,0,0,0-.08.5.5,0,0,0,0-.34h0v-.09h0c0-.06-.05-.12-.07-.19h0v-.11s0,0-.08-.06,0-.12-.09-.18a.72.72,0,0,0-.21-.12.65.65,0,0,0-.18-.15c-.12-.08-.18-.08-.22,0l-.17-.06v.08h0v.15h0l.23,0a.52.52,0,0,0,.21.18l.06.06a.56.56,0,0,1,.17.26V88h0v.41h0a.44.44,0,0,0-.18.26,1.07,1.07,0,0,1-.21.41,4,4,0,0,0-.26.32.49.49,0,0,1-.11.14,1.12,1.12,0,0,1-.48.1.11.11,0,0,0-.08,0c0-.17-.23-.17-.33-.17h0c-.09,0-.28-.11-.29-.19h-.13l-.08-.09c0-.06.06-.13.06-.18a.16.16,0,0,1-.2-.1v-.14h0a.2.2,0,0,0,0-.11h0s0-.09-.1-.1h0c0-.07.08-.11.09-.17a1.61,1.61,0,0,0,0-.22.2.2,0,0,0,0-.11,2.1,2.1,0,0,1,.13-.26h0v0c.11-.09.17-.18.27-.27s.14-.08.17-.15h0a1.39,1.39,0,0,1,1-.08Zm.85.65-.05-.1h0s0,.1.05.1Z"/><path class="cls-1" d="M220.47,76.75h0v0c0-.06,0,0-.06,0h-.15v-.07h0s-.06-.16-.12-.1-.07.06-.1.06h-.21v-.06h0v.06h0c0-.07,0-.1-.05,0h0v.06h0v-.12h0l-.06.08h0c0-.07,0-.07-.05,0h0l-.13,0h0a.06.06,0,0,0-.06.07h0v-.09c0-.06-.08,0-.07.08h-.07v.1h0l.07,0h0l.12.09h.11c0,.09.05.11.07.09s.11.08.17,0v-.07h.1c0,.17,0,.14.06.11h.08v-.08h0v.15c0-.12.06-.12.08-.11h0v-.08h0V77s0,0,.06,0h.08c0,.06,0,0,.08,0s0,0,.06,0h.24Zm-1.6-.12Z"/><path class="cls-1" d="M231.56,81.59h0c.07,0,0,0,0-.06h0v-.15h0c-.06,0,.14-.11.06-.15s-.08,0-.09-.08h0V81h0V81h-.06c.07,0,.08-.06,0-.06h-.07l.1-.06h0s0,0-.1,0h0c.06,0,.05,0,0,0h0l-.06-.09h-.06c.08,0,0,0,0,0v0s0,0-.1,0h-.08l-.14.06h0v.06h0v.07h0l.06.06h0c-.09,0-.1.07-.08.09s0,.14.1.16h.08v.1h0c-.17,0-.12.09-.08.1h0s.05,0,0,.07h.25l-.15,0h.19v.14h0a.67.67,0,0,1,0,.2Zm-.23-1.47Zm0-.07Z"/><path class="cls-1" d="M217.51,87.45h-.06v-.06h0c-.06,0,.09-.12,0-.08s-.07,0-.08,0h.2s0,0-.06-.06h0v-.08h0v-.06h.12c.09,0,0,0,0-.06h-.36v0h-.11s-.1.05,0,.13l.06,0v.06h0c-.16,0-.14,0-.11,0h0v.07H217c.12,0,.12,0,.12.06h.09s-.07,0-.07.07.06,0,.08,0h0c.05,0,0,.06,0,.07h0l.14.1Zm0-.73Z"/><path class="cls-1" d="M231.7,86.53h0c.07,0,0,0,0,0h0l.07-.12h.07v0s.16,0,.12-.09a.37.37,0,0,1-.05-.11h0V86h0v-.08h.1l-.06-.07H232v-.1h0v-.06h.06c.08,0,0,0,0-.06h0l-.08,0h-.24v0h0a.06.06,0,0,1,0,.06h0v.07h-.1s-.12.1,0,.18l.06,0v.09h0c-.17,0-.14,0-.11,0h0v.06l.07,0h-.15c.12,0,.11.07.11.08h0l.07,0h-.1v.06h0v.06c-.06,0,0,0-.07,0s0,0,0,.05h0a.54.54,0,0,1-.1.16Zm.49-1.3Z"/><circle cx="115.05" cy="118.51" r="7.44"/><path class="cls-1" d="M115.12,126.26a7.76,7.76,0,1,1,7.69-7.83A7.77,7.77,0,0,1,115.12,126.26ZM115,111.38a7.13,7.13,0,1,0,7.2,7.06A7.14,7.14,0,0,0,115,111.38Z"/><path class="cls-1" d="M103.07,126c-.67,0-.91-.21-1-.42-.48-.9,1.4-2.75,5.59-5.51a.29.29,0,0,1,.42.07v0a.31.31,0,0,1-.08.43c-4.85,3.2-5.48,4.51-5.39,4.69,0,0,.46.49,4.08-.83a74.23,74.23,0,0,0,9.26-4.32c8.17-4.43,11.88-7.81,11.58-8.37-.1-.18-1.56-.37-6.9,2a.3.3,0,0,1-.4-.16h0a.3.3,0,0,1,.14-.4h0c4.62-2,7.21-2.6,7.7-1.7.93,1.71-7.34,6.78-11.83,9.22a74.24,74.24,0,0,1-9.35,4.36A13,13,0,0,1,103.07,126Z"/><path class="cls-1" d="M120.37,115.23l-.08-.12a.11.11,0,0,0,0-.08c.08-.13,0-.12-.13-.14h-.1a2.44,2.44,0,0,0-.35-.37.2.2,0,0,0,0-.15h-.13c-.21,0-.08-.42-.31-.39a.91.91,0,0,1-.33,0l-.09,0-.37-.2v-.09c-.06-.1-.18,0-.27,0h0s0-.13-.06-.14H118s0-.12-.08-.1l-.06.1h0v-.08c0-.14,0-.21-.14-.09h0a1,1,0,0,0-.14.1h0a.32.32,0,0,1,0-.25v.06c0-.1-.13-.07-.21.1h0c0-.14,0-.16-.1-.12h-.44a.12.12,0,0,0-.07-.07h0a.17.17,0,0,0-.21,0h0l0-.05V113s-.08,0-.12,0V113c0,.06-.06,0,0-.14a.13.13,0,0,1-.06.1c0-.18-.17-.08-.23,0a.22.22,0,0,0-.13-.08c-.08,0-.12,0-.13.16h-.11v.17h0v.29h0v.06c.06,0,.11-.05.16,0a.13.13,0,0,0,.16.1H116a1,1,0,0,1,.24,0s.08.08.12,0h0a1,1,0,0,0,.24,0h0c0,.21.05.24.14.24s.36.28.62.07l.16-.1.31.11h0c-.12.33.08.32.16.27v-.06c.06,0,.22,0,.21.12l.13-.12h.08a2.82,2.82,0,0,0-.07.31c.13-.22.21-.19.24-.16s0,.05.06.07h.06s.07,0,.15-.1h0v.22s.13,0,.18,0h.09a.94.94,0,0,1,.19.14c0,.14.08.14.15.21s0,.1.15,0h0a3,3,0,0,1,.42.52Zm-4.32-2.31h0Z"/><path class="cls-1" d="M115.31,123.51h0v-.08h0v.06h0v-.14a.17.17,0,0,1,0,.1v-.14a.52.52,0,0,1-.06.16h0v0h0v0h0v0h0v0c0-.13.07-.17,0,0h0l-.06.12h0l.09-.2h0c0-.08,0,0-.08.14h0c.06-.12.06-.13,0-.08h0l-.06.06h0v0s0,0,.07-.11l-.06.08c.1-.14,0-.05,0,0v-.05l-.12.13h0l-.1.13h0l-.18.24h0c-.06.09,0,.1,0,.08h.06c-.09.17-.1.2-.08.19s0,.19.14,0l.08-.12h0c-.13.33-.06.26,0,.19v-.06h0l.06-.16h0a1.6,1.6,0,0,1-.08.3c.08-.24.09-.24.1-.24v.09h0a1,1,0,0,0,0-.16h0v0h0v0h.28Zm-.36-.11Z"/><path class="cls-1" d="M110.45,119.17h-.08c-.13,0,0,0,0,0h.06v.11h0s-.27.11-.12.13h.18v.09h0l-.09,0h0s-.1.05,0,.05h.11l-.11,0h.07c-.13.06-.16.09,0,0h.13a1,1,0,0,1-.2.11h.22c-.12.07-.12.08-.07.06h0a.14.14,0,0,1,.09,0h0c.07,0,0,0-.11.08h.1c-.15.08,0,.06.06,0a.1.1,0,0,0,0,.06l.17-.07h0l.14-.09h0l.26-.15h0s.08-.07.06-.06h-.11c.17-.09.2-.11.17-.11s.13-.13-.13-.06h-.14v0h0c.33-.11.24-.11.16-.1H111l.3-.09c-.25.06-.26,0-.25,0h-.16l.18-.06h-.19c.1,0,.06,0,.06,0s0,0-.06,0h0v-.12Zm.27,1Z"/><path class="cls-1" d="M116.41,116.3h0l.06-.06h0v0l.08-.11-.08.07c-.09.07.15-.25,0-.16s-.12.11-.14.11h0V116c0-.07,0,0-.07,0h0s.05-.1,0-.1V116h0s.05-.11,0-.07l-.06.1h0l.06-.12V116c.06-.13.07-.17,0,0h0a.41.41,0,0,0-.07.11h0a.56.56,0,0,1,.09-.22v.06c0-.08,0,0-.09.13h0c0-.13,0-.13,0-.09h-.07L116,116h0V116h0v-.09h0v-.08l-.07.17h0v.16h0l-.07.29h0v.1h0v0h0c-.06.18-.07.21-.05.19s0,.17.08-.06l.08-.13h0c-.18.31-.13.24-.08.18v-.06h0l.1-.13h0l-.16.26c.14-.21.15-.21.15-.2h0l.1-.13h0l-.1.15.08-.08v0h0c-.06.09,0,.06,0,.07h0Zm-.61-.41Z"/><path class="cls-1" d="M118.86,121.39h0l.06.06h0v-.06l.08-.07.11.08-.06-.08c-.07-.1.26.13.17,0s-.1-.13-.09-.15h0v-.08h.06c.08,0,0,0,0-.08h.11l-.06-.05h.08l-.1-.06h.06c.13,0,.18,0,0,0h0a.36.36,0,0,0-.12-.08h0a.37.37,0,0,1,.21.06h0c.08,0,0,0-.13-.09h.09a.17.17,0,0,0,0-.1h0l-.06-.06h.2c.16,0,.06,0,0-.06h.07l-.17-.06h-.16l-.29-.05h-.15v.05h0c-.19-.05-.22-.06-.2,0s-.18,0,0,.12l.12.07v0h0c-.31-.16-.25-.1-.18,0h0l.14.09h0l-.26-.15c.21.14.21.15.2.16h0l.13.11h0l-.16-.09.08.09h0c-.09-.06-.07,0-.08,0s0,0,0,.06h0l-.08.08Zm.56-.89Zm.07,0Z"/><path class="cls-1" d="M110.65,115.72h.1l.06.06c.13.08.08,0,.08-.09v-.07a1.13,1.13,0,0,0,.1-.13c.05,0,.12.06.13.05s-.06-.05-.07-.07.29.06.19-.06-.12-.11-.12-.14h0v-.1h.07c.08,0,0,0,0-.08h.1v0h0c.13,0,.18.06.06,0h0l-.11-.08h0a.83.83,0,0,1,.22.08h0c.08,0,0,0-.13-.11h0c.13,0,.14,0,.09,0h0v-.09h0v-.08h0l.08.07v0a1.85,1.85,0,0,0-.14-.14.22.22,0,0,1,0-.08h0v-.29h0v-.06c-.07,0-.11.06-.15.06H111l-.08.09h0a.17.17,0,0,0,0,.1h0c-.17-.09-.2-.09-.2,0s-.23,0,0,.21l.12.1v.08h0c-.32-.15-.26-.06-.2,0h.06s0,.09,0,0l.14.09h0l-.29-.11c.23.11.22.13.21.14h-.08l.14.09h0a.48.48,0,0,0-.18-.06l.09.09h0v0h-.09s0,0,0,.06h0Zm.78-1.14Z"/><polygon points="205.06 137.02 204.43 134.02 201.59 132.85 204.25 131.31 204.5 128.26 206.78 130.3 209.76 129.58 208.51 132.38 210.11 134.99 207.06 134.68 205.06 137.02"/><path class="cls-1" d="M205.07,137.33H205a.33.33,0,0,1-.23-.24l-.6-2.83-2.68-1.11a.3.3,0,0,1-.2-.26.35.35,0,0,1,.16-.3l2.51-1.45.24-2.9a.29.29,0,0,1,.19-.26.31.31,0,0,1,.33,0l2.15,1.94,2.83-.69a.29.29,0,0,1,.31.11.27.27,0,0,1,0,.32l-1.19,2.66,1.52,2.47a.29.29,0,0,1,0,.33.3.3,0,0,1-.29.14l-2.89-.29-1.84,2.2A.3.3,0,0,1,205.07,137.33Zm-2.76-4.52,2.25.92a.28.28,0,0,1,.18.23l.51,2.37,1.58-1.85a.32.32,0,0,1,.27-.11l2.42.24-1.28-2a.37.37,0,0,1,0-.29l1-2.22-2.37.57a.3.3,0,0,1-.28-.07L204.78,129l-.19,2.43a.31.31,0,0,1-.16.24Z"/><polygon points="114.67 89.93 117.05 89.54 118.07 87.36 119.19 89.51 121.58 89.81 119.89 91.53 120.35 93.9 118.19 92.82 116.08 93.98 116.43 91.59 114.67 89.93"/><path class="cls-1" d="M116.08,94.29a.41.41,0,0,1-.18-.05.31.31,0,0,1-.13-.31l.33-2.22-1.65-1.55a.34.34,0,0,1-.08-.32.33.33,0,0,1,.25-.22l2.21-.36,1-2a.36.36,0,0,1,.27-.18.34.34,0,0,1,.29.17l1,2,2.23.28a.33.33,0,0,1,.26.21.3.3,0,0,1-.08.32l-1.57,1.6.43,2.22a.3.3,0,0,1-.12.3.29.29,0,0,1-.33,0l-2-1-2,1.08A.28.28,0,0,1,116.08,94.29Zm-.74-4.15,1.31,1.22a.3.3,0,0,1,.09.28l-.26,1.76,1.56-.86a.3.3,0,0,1,.29,0l1.59.8-.34-1.75a.32.32,0,0,1,.09-.28L120.92,90l-1.77-.22a.32.32,0,0,1-.24-.17l-.83-1.59-.75,1.61a.31.31,0,0,1-.23.18Z"/><polygon points="186.42 143.77 164.03 160.13 190.42 171.15 186.42 143.77"/><path class="cls-1" d="M190.42,171.46h-.12l-26.39-11a.34.34,0,0,1-.19-.26.32.32,0,0,1,.12-.29l22.39-16.35a.29.29,0,0,1,.31,0,.35.35,0,0,1,.19.25l4,27.37a.3.3,0,0,1-.12.3A.41.41,0,0,1,190.42,171.46Zm-25.76-11.41L190,170.65l-3.85-26.32Z"/><path d="M186.06,160.49a8.71,8.71,0,0,0-4.78-5,8.28,8.28,0,0,0-6.63.29S176.87,163.06,186.06,160.49Z"/><path class="cls-1" d="M182.5,161.35a8.34,8.34,0,0,1-8.15-5.47.31.31,0,0,1,.15-.36,8.47,8.47,0,0,1,6.9-.31,9,9,0,0,1,5,5.18.28.28,0,0,1,0,.25.32.32,0,0,1-.19.15A14.06,14.06,0,0,1,182.5,161.35ZM175,156c.47,1.23,2.94,6.3,10.61,4.33a8.59,8.59,0,0,0-4.49-4.5A8,8,0,0,0,175,156Z"/><circle class="cls-1" cx="180.39" cy="158.06" r="2.26"/><path class="cls-1" d="M258,70.92a4.1,4.1,0,0,1-2.66,4.19,4.1,4.1,0,0,1,4.22,2.67,4.1,4.1,0,0,1,2.65-4.18A4.12,4.12,0,0,1,258,70.92Z"/><path class="cls-1" d="M205.81,102.1a2.63,2.63,0,0,1-1.72,2.69,2.27,2.27,0,0,0,4.43-1h0A2.64,2.64,0,0,1,205.81,102.1Z"/><path class="cls-1" d="M198.24,84a2.63,2.63,0,0,1-1.71,2.69,2.27,2.27,0,0,0,4.43-1A2.66,2.66,0,0,1,198.24,84Z"/><path class="cls-1" d="M149.77,142a4.1,4.1,0,0,1-4.74,1.47,4.09,4.09,0,0,1,1.48,4.77,4.09,4.09,0,0,1,4.73-1.47A4.11,4.11,0,0,1,149.77,142Z"/><circle class="cls-1" cx="181.06" cy="88.03" r="1.68"/><circle class="cls-1" cx="247.12" cy="119.08" r="1.68"/><circle class="cls-1" cx="236.31" cy="101.98" r="1.47"/><circle class="cls-1" cx="262.49" cy="103.76" r="1.47"/><circle class="cls-1" cx="192.25" cy="107.53" r="1.47"/><circle class="cls-1" cx="98.61" cy="81.31" r="1.19"/><circle class="cls-1" cx="162.54" cy="155.08" r="1.19"/><circle class="cls-1" cx="176.97" cy="139.24" r="1.19"/><circle class="cls-1" cx="103.74" cy="104.74" r="1.19"/><path class="cls-1" d="M124.55,279.08h-.18l-.06-.07c-.11-.11-.16,0-.23.08l-.09.09-.61.17s-.09-.12-.12-.12-.05.1-.08.13-.46-.17-.62,0a.86.86,0,0,1-.31.25h-.13l-.53.15h-.12c-.13,0-.21.1-.31.15H121s-.12-.08-.15-.07,0,.07-.07.09h-.07c-.06,0-.1-.09-.17,0a.24.24,0,0,1,0,.12h0a.59.59,0,0,1-.1-.11V280c-.09-.12-.19-.14-.22,0h-.06s-.07.1-.1.16h0c-.07,0-.12,0-.2-.18v.07c-.07-.07-.19,0-.17.21h0c-.1-.11-.15-.1-.19,0a.11.11,0,0,0-.08,0l-.42.18h0a.11.11,0,0,0-.11,0h-.05a.28.28,0,0,0-.23.15h-.09a.09.09,0,0,0,0-.07s-.07.09-.13.08,0,0,0-.06-.07,0-.1-.11v.12c-.08-.16-.24,0-.28.12a.28.28,0,0,0-.18,0c-.11,0-.15,0-.11.2h-.13v.16h0l.07.28h0v.06c.07,0,.13-.1.2-.1a.23.23,0,0,0,.27,0h.09a1.92,1.92,0,0,0,.32-.09.5.5,0,0,1,.18,0h0a1.32,1.32,0,0,0,.29-.15h.07c.14.16.21.18.32.12.27-.12.63,0,.83-.32l.12-.18.45-.12h.08c.1.34.33.19.39.09v-.06c.08,0,.26-.16.34-.07a.61.61,0,0,0,0-.19h.11c.07.09.13.23.19.27,0-.25.07-.29.14-.3h.23c.06,0,.09,0,.07-.19h0c.08,0,.15.14.21.13s.12-.12.18-.17a.13.13,0,0,0,.07-.08l.33-.09c.15.07.24,0,.37,0s.16,0,.19-.12h0l1-.26Zm-6.33,1.7h0Z"/><path class="cls-1" d="M125.31,277.13h-.18l-.06-.07c-.11-.11-.16,0-.23.08l-.1.09-.63.15s-.08-.11-.12-.11,0,.09-.08.12-.47-.17-.64,0a.8.8,0,0,1-.32.25h-.13l-.55.13h-.12c-.14,0-.22.09-.32.14h-.13s-.12-.09-.16-.07,0,.06-.07.09h-.07c-.07,0-.11-.09-.17,0s0,.08,0,.12h0a.59.59,0,0,1-.1-.11V278c-.09-.13-.19-.14-.23,0h-.06l-.1.17h0c-.07,0-.12,0-.2-.18v.07c-.08-.07-.19,0-.18.21h-.06c-.09-.12-.14-.11-.18,0H120l-.43.17h-.11a.3.3,0,0,0-.25.14h-.08v-.06a.22.22,0,0,1-.14.08v-.06s-.07,0-.1-.11v.11c-.08-.16-.24,0-.29.11h-.19c-.11,0-.15,0-.11.21h-.14v.16h0l.07.29h0v.06c.08,0,.13-.1.21-.1a.24.24,0,0,0,.28,0h.09l.33-.09h.18a1.09,1.09,0,0,0,.31-.14h.07c.14.16.2.18.32.13.28-.12.64,0,.86-.31l.12-.18.46-.11h.08c.1.34.34.19.4.09s0,0,0-.06.27-.15.36-.06a.26.26,0,0,1,0-.19h.11c.06.1.13.19.19.28,0-.26.08-.29.15-.3h.23c.06,0,.1,0,.08-.19h0c.08.06.14.15.21.14s.12-.13.19-.17a.13.13,0,0,0,.07-.08L124,278c.15.08.25,0,.38,0s.16,0,.2-.11h0l1-.24Zm-6.51,1.6h0Z"/><path class="cls-1" d="M126.07,275.17h-.18l-.07-.07c-.11-.11-.16,0-.24.08l-.09.09-.65.16a.34.34,0,0,0-.12-.12.14.14,0,0,1-.09.13c-.19.17-.48-.17-.65,0a.75.75,0,0,1-.33.25l-.14.05-.56.13h-.12c-.14,0-.22.09-.33.14h-.13s-.12-.08-.16-.07,0,.07-.07.09h-.08c-.06,0-.1-.09-.17,0s0,.08,0,.12h0l-.1-.11v.08c-.09-.12-.2-.14-.23,0h-.07l-.11.17h0c-.06,0-.12,0-.2-.18v.07c-.08-.07-.2,0-.19.21h-.06c-.09-.11-.15-.11-.19,0h-.09a3.38,3.38,0,0,1-.44.18h-.12a.3.3,0,0,0-.25.14h-.09a.09.09,0,0,0,0-.07s-.08.09-.14.08v-.06c0,.08-.07,0-.1-.11v.11c-.08-.15-.25,0-.3.12a.31.31,0,0,0-.19,0c-.11,0-.15,0-.12.21h-.14v.16h0l.07.29h0v.15a.71.71,0,0,1,.21-.11.23.23,0,0,0,.29,0h.09l.34-.09H120a1.09,1.09,0,0,0,.31-.14h.07c.15.16.21.18.33.12.29-.11.66,0,.88-.31l.13-.18.47-.12h.08c.1.34.35.2.41.1s0,0,0-.07.28-.15.37-.06v-.19h.12c.06.09.12.23.19.27,0-.25.08-.28.15-.29h.25c.06,0,.1,0,.08-.18h0c.08.05.15.14.22.13s.12-.13.19-.17a.15.15,0,0,0,.08-.08l.34-.09c.15.08.25,0,.39,0s.17,0,.2-.11h0l1-.25Zm-6.67,1.65h0Zm-.3,0Z"/><path class="cls-1" d="M126.83,273.22h-.17l-.06-.07c-.1-.11-.15,0-.22.07l-.09.09-.59.14s-.08-.11-.11-.11,0,.09-.08.12-.45-.19-.61,0a.6.6,0,0,1-.3.24h-.12l-.52.12h-.11a.59.59,0,0,0-.3.13h-.13s-.11-.09-.15-.08,0,.07-.06.09h-.07c-.06,0-.1-.1-.16,0a.24.24,0,0,1,0,.12h0l-.1-.11v.08c-.08-.12-.18-.14-.21,0h-.06a1.24,1.24,0,0,0-.1.17h0c-.06,0-.11,0-.19-.19v.07c-.08-.07-.19,0-.18.21h-.06c-.08-.12-.13-.11-.17,0h-.09l-.4.17h-.11a.29.29,0,0,0-.23.14H121a.09.09,0,0,0,0-.07.2.2,0,0,1-.13.08v0c0,.08-.06,0-.09-.12v.11c-.08-.15-.23,0-.27.11h-.18c-.1,0-.14,0-.11.2h-.13v.16h0l.07.29h0v.06c.07,0,.12-.1.19-.1a.2.2,0,0,0,.27,0h.08l.31-.08h.17a1.2,1.2,0,0,0,.28-.13h.07c.13.17.19.19.3.14s.61,0,.81-.29l.12-.18.43-.1h.08c.09.34.31.2.38.1v-.06c.09,0,.25-.15.34-.06v-.18h.11c0,.09.11.18.17.27,0-.26.08-.28.14-.29h.12v.05c0,.05.07,0,.11,0h0c.06,0,.09,0,.07-.18h0c.07.05.14.14.2.14s.12-.13.18-.16a.28.28,0,0,0,.07-.09l.32-.07c.14.07.23,0,.35,0s.16,0,.19-.11h0l.92-.22Zm-6.13,1.46h0Z"/><path class="cls-1" d="M127.59,271.27h-.16v-.07c-.11-.12-.15,0-.22.06l-.09.09-.58.12s-.07-.12-.1-.12,0,.09-.09.12-.42-.2-.58,0a.69.69,0,0,1-.3.23h-.12l-.5.1h-.11c-.12-.05-.2.08-.29.12h-.08s-.1-.09-.14-.07,0,.06-.06.08h-.07c-.06,0-.09-.09-.16,0a.24.24,0,0,1,0,.12h0l-.09-.11V272c-.08-.13-.18-.15-.21,0h-.06a1.74,1.74,0,0,0-.1.16h0c-.07,0-.11,0-.19-.19v.07c-.07-.08-.18,0-.17.2h-.06c-.08-.13-.13-.12-.17-.06h-.08l-.39.15h-.11a.28.28,0,0,0-.23.13H122v-.06c0-.06-.08.08-.13.07v-.06c0,.08-.06,0-.09-.12a.2.2,0,0,1,0,.11c-.07-.16-.22,0-.26.1h-.18c-.1,0-.13,0-.1.2h-.13v.16h0l.06.29h0v.06a.82.82,0,0,1,.19-.09.19.19,0,0,0,.26,0h.08l.3-.06h.17a.7.7,0,0,0,.28-.12h-.14c.13.17.19.19.3.14s.59.06.79-.26l.12-.17.42-.09H124c.08.34.31.21.37.11v-.1c.08,0,.24-.14.32,0a1.33,1.33,0,0,0,0-.19h.11a2.54,2.54,0,0,0,.16.28c0-.25.08-.28.14-.29h.23s.08,0,.07-.18h0c.07.06.13.15.19.14s.11-.11.17-.15a.15.15,0,0,0,.08-.08l.3-.07c.14.09.23,0,.35,0s.15,0,.19-.1h0l.89-.19Zm-6,1.25h0Z"/><path class="cls-1" d="M128.31,268.82h-.15l-.06-.07c-.11-.11-.14,0-.2.08l-.07.09-.55.17s-.08-.11-.11-.12,0,.1-.07.13-.42-.17-.56,0a.65.65,0,0,1-.26.26h-.11l-.47.14h-.11c-.12,0-.19.09-.27.14h-.12s-.11-.08-.14-.06,0,.06,0,.08H125c-.06,0-.1-.09-.15,0s0,.07,0,.11h0l-.11-.1v.08c-.09-.12-.19-.14-.2,0h-.06a.25.25,0,0,1-.08.17h0c-.07,0-.11,0-.2-.18v.07c-.08-.07-.17,0-.15.21h0c-.09-.11-.13-.1-.16,0h-.08l-.36.18h0a.09.09,0,0,0-.1,0h0a.24.24,0,0,0-.21.15h-.07v-.06c0-.06-.07.09-.12.08v-.06c0,.08-.06,0-.1-.11v.11c-.08-.15-.21,0-.24.12h-.17c-.1,0-.13,0-.08.21h-.12v.15h0l.09.28h0v.06c.07,0,.11-.1.18-.1a.2.2,0,0,0,.25,0h.07c.1,0,.19-.07.29-.09a.33.33,0,0,1,.15,0h0a.93.93,0,0,0,.26-.15h.06c.13.16.19.17.29.12s.57,0,.73-.32l.1-.18.4-.12h.06c.12.33.32.19.37.09v-.06c.07,0,.22-.16.31-.07v-.19h.1l.18.27c-.05-.25,0-.28.11-.3h.2s.08,0,0-.19h0c.07.06.14.15.19.13s.1-.12.16-.16a.24.24,0,0,0,.06-.09l.29-.08c.13.07.21,0,.33,0s.14,0,.16-.11h0l.84-.26Zm-5.6,1.69h0Zm-.26,0Z"/><path class="cls-1" d="M129.08,266.87l-.15.05a.09.09,0,0,0,0-.07c-.11-.11-.14,0-.19.08l-.07.09-.52.16s-.08-.11-.11-.11,0,.1-.06.13-.41-.17-.53,0a.53.53,0,0,1-.24.25h-.11l-.44.14h-.11c-.11,0-.17.1-.25.15h-.06s-.11-.08-.14-.07,0,.07,0,.09H126c-.06,0-.1-.09-.15,0a.24.24,0,0,1,0,.12h0l-.1-.11v.09c-.09-.12-.18-.14-.19,0h0a1.65,1.65,0,0,0-.07.16h0c-.06,0-.1,0-.19-.18v.07c-.07-.07-.16,0-.14.2h0c-.09-.11-.13-.11-.16,0h-.07a1.83,1.83,0,0,1-.34.18h-.09a.21.21,0,0,0-.19.14h-.06v-.06s-.06.08-.1.07h0s0,0-.09-.11v.11c-.08-.15-.2,0-.23.12a.22.22,0,0,0-.16,0c-.09,0-.12,0-.07.2h-.11l0,.16h0l.08.29h0v.06c.06,0,.1-.09.16-.1a.18.18,0,0,0,.24,0h.07l.27-.09h.15a.77.77,0,0,0,.25-.14h0c.13.16.19.17.29.12s.54,0,.68-.32l.09-.18.37-.11h.07c.11.34.3.19.35.09v-.06c.07,0,.21-.16.29-.07v-.18h.1a1.51,1.51,0,0,0,.18.26c0-.25,0-.28.09-.29h.2c.06,0,.08,0,.05-.18h0c.07,0,.14.14.19.13s.09-.13.14-.17a.16.16,0,0,0,.06-.08l.27-.09c.14.07.21,0,.32,0s.13,0,.15-.11h0l.8-.25Zm-5.29,1.72h0Z"/><path class="cls-1" d="M130.94,264.59h-.16l-.06-.06c-.11-.11-.15,0-.21.08l-.07.09-.56.18s-.08-.11-.11-.11,0,.09-.07.13-.44-.16-.57,0a.62.62,0,0,1-.27.26h-.12l-.48.15h-.11c-.13,0-.19.1-.27.15h-.13s-.11-.08-.14-.06,0,.06-.06.09h-.06c-.06,0-.1-.09-.16,0s0,.08,0,.12h0l-.1-.1v.08c-.09-.12-.19-.13-.21,0h0a1.11,1.11,0,0,0-.08.16h0c-.06,0-.11,0-.2-.18v.07c-.07-.07-.17,0-.14.22h-.06c-.09-.11-.14-.1-.17,0h-.08l-.37.19h-.1a.23.23,0,0,0-.21.15h-.07v-.06s-.07.09-.12.08a.06.06,0,0,0,0-.06c0,.09,0,0-.09-.1v.11c-.09-.15-.22,0-.25.12a.48.48,0,0,0-.17,0c-.1,0-.13,0-.08.21h-.13l0,.15h0l.09.28h0V267c.06,0,.11-.1.17-.11a.21.21,0,0,0,.26,0h.07a1.61,1.61,0,0,1,.29-.09h.17a1.17,1.17,0,0,0,.27-.15h.06c.14.15.2.17.3.11s.58,0,.75-.33l.09-.18.41-.13h.07c.12.34.32.19.37.09v-.07c.08,0,.23-.16.32-.07v-.19h.1a2.48,2.48,0,0,0,.19.26c0-.25,0-.28.11-.3H129c.06,0,.08,0,0-.19h0c.07,0,.14.14.2.12s.1-.12.16-.17a.16.16,0,0,0,.06-.08l.29-.1c.15.07.23,0,.34,0s.15,0,.17-.12h0l.86-.27Zm-5.73,1.81h0Zm-.26,0Z"/><path class="cls-1" d="M132,262.59h-.15l-.06-.07c-.11-.1-.15,0-.2.09l-.08.09-.54.17c0-.05-.08-.11-.11-.11s0,.09-.07.12-.43-.16-.56,0a.49.49,0,0,1-.26.25h-.11l-.47.15h-.1c-.13,0-.19.1-.27.15H129s-.11-.07-.14-.06,0,.07-.06.09h-.06c-.06,0-.1-.09-.15,0s0,.08,0,.12h0l-.1-.1v.08c-.1-.12-.19-.14-.2,0h-.06l-.08.17h0c-.06,0-.11,0-.2-.17v.07c-.08-.07-.17,0-.15.21h0c-.09-.11-.14-.1-.17,0h-.08l-.36.19h-.1a.25.25,0,0,0-.21.15h-.07v-.06s-.06.08-.11.08a.06.06,0,0,0,0-.06c0,.08,0,0-.09-.11v.11c-.08-.15-.21,0-.24.12h-.17c-.1,0-.13,0-.08.21H126l0,.16h0l.09.28h0V265c.07,0,.11-.1.18-.11a.2.2,0,0,0,.25,0h.07c.1,0,.18-.07.28-.09a.39.39,0,0,1,.16,0h0a.7.7,0,0,0,.25-.15h.06c.14.16.2.17.3.12s.57,0,.73-.33l.09-.18.39-.12h.07c.12.34.32.19.36.09v-.07c.07,0,.22-.15.3-.07a.54.54,0,0,0,0-.18h.1a2.48,2.48,0,0,0,.19.26c0-.25,0-.28.1-.3h.21c.06,0,.08,0,0-.19h0c.07,0,.14.14.2.13s.09-.13.14-.17a.24.24,0,0,0,.06-.09l.29-.09c.14.07.22,0,.33,0s.15,0,.17-.11h0l.84-.26Zm-5.58,1.77h0Z"/><path class="cls-1" d="M132.9,260.59h-.17l-.07-.06c-.12-.1-.16,0-.22.1l-.09.09-.61.2s-.09-.1-.13-.1,0,.1-.07.13c-.18.18-.48-.14-.63.07a.87.87,0,0,1-.3.27h-.13l-.53.18h-.12c-.13,0-.21.11-.3.17h-.08s-.13-.07-.16,0,0,.06-.06.09h-.08c-.06,0-.11-.08-.17,0s0,.07,0,.11h0l-.11-.1v.09c-.1-.12-.21-.13-.23,0h-.06c-.05,0-.06.1-.09.17h0c-.07,0-.12,0-.21-.17v.07c-.08-.07-.19,0-.17.22h-.06c-.1-.11-.15-.1-.19,0h-.09l-.4.21h-.12a.3.3,0,0,0-.24.17h-.08v-.07c0-.07-.08.09-.13.09s0,0,0-.06-.06,0-.1-.1v.11c-.09-.15-.24,0-.27.14h-.19c-.11,0-.15,0-.1.22H126V263h0l.09.28h0v.06c.08,0,.12-.1.2-.11a.24.24,0,0,0,.28,0h.08a2,2,0,0,1,.32-.11c.06,0,.14,0,.18-.06h0a.9.9,0,0,0,.29-.16h.07c.15.16.21.16.33.1s.64,0,.82-.37l.11-.19.45-.14h.07c.13.33.35.17.41.07a.09.09,0,0,0,0-.07c.09,0,.25-.17.35-.09s0-.11,0-.19h.11a2.43,2.43,0,0,0,.2.25c-.05-.25.06-.29.12-.3h.24c.06,0,.09,0,.06-.2h0c.08,0,.16.13.22.12s.11-.13.17-.18a.13.13,0,0,0,.07-.09l.33-.11c.15.06.24,0,.37-.05s.16,0,.19-.13h0l.94-.31Zm-6.3,2.09h0Z"/><path class="cls-1" d="M133.66,258.83h-.16l-.07-.07c-.11-.11-.15,0-.22.08l-.09.09-.6.16s-.08-.11-.12-.12,0,.1-.08.13-.45-.17-.61,0a.62.62,0,0,1-.3.25h-.13l-.52.14h-.11c-.14,0-.21.09-.31.14h-.13s-.11-.08-.15-.07,0,.07-.06.09h-.07c-.06,0-.1-.09-.17,0s0,.08,0,.12h0l-.1-.11v.08c-.09-.12-.2-.14-.22,0h-.06a1.24,1.24,0,0,0-.1.17h0c-.06,0-.11,0-.2-.18v.07c-.08-.07-.19,0-.17.21h0c-.09-.11-.14-.11-.18,0h-.09a2.43,2.43,0,0,1-.4.18h-.11a.28.28,0,0,0-.23.15h-.07v-.06c0-.06-.08.09-.13.08s0-.05,0-.06a.14.14,0,0,1-.09-.11v.11c-.08-.15-.23,0-.27.12a.31.31,0,0,0-.19,0c-.1,0-.14,0-.1.21h-.13v.16h0l.07.28h0v.06c.07,0,.12-.09.19-.1a.22.22,0,0,0,.27,0h.09l.31-.09H128a1.59,1.59,0,0,0,.29-.15h.06c.14.16.2.17.32.12s.62,0,.82-.31l.11-.18.44-.12h.07c.11.34.33.19.39.09v-.06c.08,0,.25-.16.34-.07a.25.25,0,0,1,0-.18H131c.05.09.12.18.18.27,0-.25.07-.29.13-.3h.08c.06,0,.09,0,.07-.19h0c.07.06.14.15.21.14s.11-.13.17-.17a.11.11,0,0,0,.07-.09l.32-.08c.15.07.24,0,.37,0s.16,0,.19-.11h0l.93-.24Zm-6.21,1.65h0Zm-.28,0Z"/><path class="cls-1" d="M133.75,256.87l-.17.05-.06-.07c-.12-.1-.15,0-.22.09l-.08.09-.59.18s-.09-.11-.12-.11,0,.09-.07.13-.46-.16-.61,0a.64.64,0,0,1-.28.26l-.13.05-.5.15h-.12c-.13,0-.2.1-.29.15h-.08s-.12-.08-.15-.06,0,.07-.06.09h-.07c-.06,0-.1-.09-.16,0a.2.2,0,0,1,0,.11h0l-.1-.1V258c-.1-.12-.2-.13-.22,0h-.06a1.81,1.81,0,0,0-.09.17h0c-.06,0-.11,0-.2-.17V258c-.08-.06-.18,0-.16.22h0c-.1-.11-.14-.1-.18,0h-.08l-.4.19h-.11a.25.25,0,0,0-.22.15h-.08v-.06s-.08.08-.13.08a.06.06,0,0,0,0-.06c0,.08-.06,0-.09-.11v.12c-.08-.16-.23,0-.26.12h-.18c-.1,0-.14,0-.09.21h-.13V259h0l.09.28h0v.06c.07,0,.12-.1.19-.11a.22.22,0,0,0,.27,0h.08l.31-.1h.17a1.06,1.06,0,0,0,.28-.15h.06c.14.16.2.17.32.12s.61,0,.79-.34l.1-.18.43-.13h.08c.11.33.33.18.38.08v-.06c.08,0,.24-.16.33-.08v-.18h.11a1.85,1.85,0,0,0,.19.27c0-.25.06-.29.12-.3a.24.24,0,0,1,.12,0h.11c.06,0,.09-.05.06-.19h0c.08.05.15.14.21.13s.11-.13.17-.17l.07-.09.31-.1c.14.07.23,0,.35,0s.16,0,.19-.12h0l.91-.27Zm-6.06,1.82h0Z"/><path class="cls-1" d="M86.69,181.65h-.14v-.09s-.12-.05-.2,0h-.1l-.51-.08c0-.06,0-.14,0-.15s-.07.07-.1.08c-.2.09-.28-.33-.47-.21a.6.6,0,0,1-.32.12h-.11l-.44-.07-.08-.08c-.08-.08-.19,0-.28,0h-.06s-.06-.12-.09-.12h-.13c0-.05,0-.13-.12-.09a.2.2,0,0,1,0,.11h0V181c0-.15-.09-.21-.17-.07h0l-.13.11h0c0-.05-.07-.07-.08-.24v.06c0-.1-.15-.06-.21.12h0c0-.14-.07-.16-.12-.11h-.47s-.05-.06-.08-.06h-.05a.2.2,0,0,0-.23,0h-.05v-.06s-.08.05-.12,0v-.06c0,.07-.06,0,0-.13l-.07.09c0-.18-.17-.09-.24,0a.3.3,0,0,0-.13-.09c-.08,0-.12,0-.15.15H81v.16h0v.29h0v.06h.19c.06,0,.12.13.2.11h.34s.09.07.14,0h.33c0,.21.09.24.19.24s.46.25.73,0l.15-.12.38.06s0,0,0,0c0,.35.18.3.26.23v-.07c.07,0,.24,0,.28.07s.07-.09.1-.15h.09v.32c.07-.25.16-.24.21-.23h.09v.05h.09s.08,0,.12-.15h0a.26.26,0,0,0,.1.2s.13-.08.19-.09a.19.19,0,0,0,.09,0h.27c.09.12.18.1.29.11s.12.06.18,0h0l.8.12Zm-5.27-.84h0Z"/><path class="cls-1" d="M86,179.59h-.16a.14.14,0,0,0,0-.09c-.06-.14-.14,0-.22,0l-.11.05-.56-.08s0-.13-.06-.14-.07.07-.11.09c-.2.09-.32-.33-.52-.21a.63.63,0,0,1-.34.12h-.12l-.49-.07-.08-.07c-.1-.08-.21,0-.31,0H82.8s-.07-.11-.1-.11h-.15s0-.13-.12-.09a.2.2,0,0,1,0,.11h0a.34.34,0,0,0-.05-.14V179c0-.14-.11-.2-.19-.06h0s-.09.07-.14.12h0a.35.35,0,0,1-.1-.24v.06c0-.09-.17,0-.22.13h0c0-.14-.08-.16-.13-.11h-.48s0-.06-.08-.06h-.06a.24.24,0,0,0-.25,0h-.06v-.07c0-.07-.1,0-.14,0s0,0,0-.06-.07,0,0-.13l-.07.09c0-.17-.19-.08-.27,0a.34.34,0,0,0-.14-.09c-.09,0-.13,0-.16.16h-.12V179h0v.29h0v.06h.2a.2.2,0,0,0,.23.11h.37s.1.08.16,0h0a.76.76,0,0,0,.3,0H81c.06.2.11.24.22.23s.52.24.8,0l.16-.13h.41s0,.06.06,0c0,.35.21.3.3.23v-.07c.08,0,.26,0,.3.07a.57.57,0,0,0,.11-.16h.1l.06.32c.06-.25.16-.25.22-.23l.1,0H84s.09,0,.12-.15h0a.23.23,0,0,0,.13.19c.06,0,.14-.07.2-.09a.13.13,0,0,0,.09-.05h.3c.1.12.2.09.32.11a.65.65,0,0,0,.2,0h0l.87.12Zm-5.79-.74h0Z"/><path class="cls-1" d="M84.85,177.59h-.18v-.09c-.07-.14-.16,0-.25,0l-.11.09-.65-.08s0-.13-.07-.15-.08.07-.13.09c-.23.09-.37-.33-.6-.21a.77.77,0,0,1-.4.11h-.15l-.56-.07-.1-.07c-.12-.09-.24,0-.36,0h-.13s-.08-.12-.12-.12a.08.08,0,0,0-.09,0h-.08a.1.1,0,0,0-.15-.08.2.2,0,0,1,0,.11h0l-.06-.13v.07c0-.15-.13-.21-.22-.07h-.06s-.11.07-.16.12h0s-.1-.07-.12-.24V177c0-.1-.19-.06-.25.13h0c0-.14-.09-.16-.16-.11h-.55s-.07-.06-.1-.06,0,0-.07,0a.27.27,0,0,0-.28.05h0l-.07-.05v-.07a.22.22,0,0,1-.16,0v-.06c-.06.06-.08,0,0-.14l-.07.09c0-.17-.23-.08-.31,0a.51.51,0,0,0-.18-.09c-.1,0-.15,0-.18.15h-.14V177h0v.29h0v.06h.23a.23.23,0,0,0,.26.11h.44c.06,0,.12.08.19,0h0a1.93,1.93,0,0,0,.34,0h.07c.07.2.13.24.26.23.3,0,.6.26.92,0l.18-.12.48.06s0,.06.07,0c0,.35.25.3.35.23s0,0,0-.06.31,0,.36.07c0-.07.08-.09.12-.16h.11c0,.11,0,.21.08.32.06-.25.18-.24.25-.23h.24s.11,0,.14-.15h0c.06.07.09.18.16.2s.15-.08.23-.09l.11-.05h.34c.12.12.23.1.37.11s.16.06.23,0h0l1,.13Zm-6.73-.83h0Z"/><path class="cls-1" d="M84,175.59h-.2v-.09c-.08-.14-.17,0-.28,0h-.13l-.73-.09c0-.06,0-.14-.08-.15s-.09.07-.14.08c-.26.09-.42-.33-.67-.22a1.07,1.07,0,0,1-.44.12h-.15l-.63-.08-.11-.08c-.13-.08-.27,0-.39,0h-.15s-.09-.12-.14-.13-.07,0-.1.06h-.08s-.07-.12-.17-.09a.2.2,0,0,1,0,.11h0s-.05-.09-.07-.14l0,.07c0-.15-.15-.2-.24-.07H79c-.06,0-.12.07-.17.11h0a.32.32,0,0,1-.14-.24h0c0-.09-.21,0-.28.13h0c-.06-.14-.11-.15-.18-.11h-.84a.11.11,0,0,0-.11-.06h-.07a.34.34,0,0,0-.31,0h-.08v-.07c0-.07-.12,0-.17,0s0-.06,0-.07-.08,0,0-.13-.06,0-.08.09c0-.18-.26-.09-.35,0a.56.56,0,0,0-.19-.09c-.12,0-.17,0-.2.15h-.16v.17h0v.3h0v.06h.25a.28.28,0,0,0,.29.12h.49c.13,0,.13.08.2,0h.46c.09.2.15.24.3.23.33,0,.67.26,1,0l.2-.12.53.07s0,0,.08,0c0,.35.28.3.39.23v-.06c.1,0,.34,0,.4.07s.09-.09.12-.15h.14a2,2,0,0,0,.09.33c.06-.25.19-.24.26-.23l.14,0h0a.24.24,0,0,0,.12,0h0c.06,0,.12,0,.16-.14h0a.24.24,0,0,0,.17.2c.08,0,.17-.07.25-.08h.51c.12.13.25.1.4.12s.18.06.26,0h0l1.12.14Zm-7.47-.9h0Z"/><path class="cls-1" d="M83,173.59H82.8v-.09c-.06-.14-.14,0-.22,0h-.1l-.57-.07c0-.05,0-.13-.06-.15s-.07.07-.11.09c-.21.09-.32-.33-.52-.2a.7.7,0,0,1-.35.12h-.12l-.49-.06-.08-.07c-.1-.09-.21,0-.31,0H79.8s-.07-.12-.11-.12-.06.05-.08.06h-.06a.1.1,0,0,0-.13-.09v.12h0a.69.69,0,0,1,0-.13l-.05.07c0-.15-.11-.2-.19-.07h0s-.09.07-.14.12h0a.35.35,0,0,1-.1-.24v.06c0-.1-.17,0-.22.13h0c0-.14-.08-.15-.14-.11h-.48s-.06-.06-.09-.06H77.9a.21.21,0,0,0-.24,0H77.6v-.07s-.09,0-.14,0,0-.05,0-.06-.07,0,0-.14l-.07.09c0-.17-.19-.08-.27,0a.25.25,0,0,0-.14-.08c-.09,0-.14,0-.16.15h-.13V173h0v.29h0v.06h.2a.19.19,0,0,0,.23.11h.37c.1,0,.11.08.16,0H78c.06.2.1.24.22.23s.52.25.8,0l.16-.12h.48c0,.35.21.29.29.23v-.07c.08,0,.27-.05.31.06l.11-.15h.1a1.8,1.8,0,0,0,.06.32c.06-.25.16-.24.22-.23H81s.09,0,.12-.15h0c.05.08.07.19.13.2s.14-.08.21-.09h.39c.1.13.2.1.32.11s.13.06.2,0h0l.87.11Zm-5.82-.75h0Zm-.25-.09Z"/><path class="cls-1" d="M82.16,171.59H82a.14.14,0,0,0,0-.09c0-.14-.11,0-.17,0h-.09l-.46-.06v-.14s-.06.07-.09.09-.26-.32-.42-.2a.49.49,0,0,1-.29.13h-.09l-.4-.06-.07-.07c-.07-.08-.17,0-.25,0h0s-.05-.12-.08-.12,0,0-.07.06h0s0-.12-.1-.09a.24.24,0,0,1,0,.12h0v-.06c0-.15-.08-.2-.15-.06h0l-.12.12h0a.38.38,0,0,1-.08-.24V171c0-.09-.13,0-.18.13h0c0-.14-.06-.15-.11-.11H78a.06.06,0,0,0-.06-.06h0a.15.15,0,0,0-.2.05h0v-.07h-.11v-.06c0,.06,0,0,0-.14a.14.14,0,0,1,0,.1c0-.18-.16-.08-.22,0a.2.2,0,0,0-.12-.08c-.07,0-.11,0-.13.16H77v.17h0v.3h0v.06h.16s.11.12.18.11h.3c.07,0,.09.08.14,0h.29c0,.2.08.24.18.23s.41.23.65,0l.13-.13h.33c0,.35.16.3.24.23v-.07c.06,0,.22,0,.25.06s.06-.09.09-.16H80a1.71,1.71,0,0,0,0,.32c0-.25.14-.24.18-.23s0,0,.08,0h.08s.08,0,.11-.15h0a.24.24,0,0,0,.1.2s.12-.08.17-.1l.08-.05h.24c.07.12.16.09.25.1s.11.05.17,0h0l.7.09ZM77.45,171h0Z"/><path class="cls-1" d="M81.19,169.68H81.1v-.09c0-.14-.06,0-.11,0l-.07.06h-.3v-.14a.1.1,0,0,1-.07.09c-.07,0-.14-.31-.26-.18a.48.48,0,0,1-.2.14h-.33v-.07c-.05-.07-.11,0-.17,0h0v-.12a.08.08,0,0,1,0,.07h0c0-.05,0-.12-.07-.08v.11h0v-.06c0-.14,0-.19-.09-.06h0a1.15,1.15,0,0,0-.09.12h0v-.18c0-.09-.08,0-.13.14h0c0-.14,0-.15-.06-.1s0,0,0,0h-.22v-.06h0a.2.2,0,0,0-.14.06h0v-.07s-.06.06-.08,0v-.09c0-.18-.1-.08-.15,0a.11.11,0,0,0-.08-.08s-.07,0-.09.16h-.07v.16h0l0,.29h0v.06s.08,0,.11,0,.07.12.11.1h0a.22.22,0,0,1,.16,0s.05.07.08,0h.16c0,.2,0,.23.1.22s.26.22.43,0l.1-.13h.22c0,.35.09.28.15.21v-.06s.15-.07.16,0,0-.1.07-.16h.06v.31c.06-.25.11-.25.14-.24v.05h0s.05,0,.08-.15h0c0,.07,0,.18,0,.19s.09-.08.12-.1a.17.17,0,0,0,.06-.06h.16c0,.11.1.08.16.09s.07.05.11,0h0l.46.07Zm-3.12-.48Z"/><path class="cls-1" d="M266.79,120.36h0c-.71,0-72-.76-182.74-18.31a.26.26,0,0,1-.2-.27.23.23,0,0,1,.26-.2h0c110.73,17.55,182,18.31,182.67,18.32a.23.23,0,1,1,0,.46Z"/><path d="M168.31,111.9a6.89,6.89,0,0,1,1-7.8,6.86,6.86,0,0,0,1.87,13.59,6.81,6.81,0,0,0,4.16-2.21A6.87,6.87,0,0,1,168.31,111.9Z"/><path class="cls-1" d="M170.25,118.07a7.17,7.17,0,0,1-3.44-13.48,7.46,7.46,0,0,1,2.38-.77.3.3,0,0,1,.32.17.29.29,0,0,1,0,.35,6.54,6.54,0,0,0,5.76,10.86.3.3,0,0,1,.32.17.29.29,0,0,1,0,.35,6.86,6.86,0,0,1-2,1.54A7,7,0,0,1,170.25,118.07Zm-1.79-13.48a6.88,6.88,0,0,0-1.36.54,6.54,6.54,0,0,0,6.13,11.56,6.77,6.77,0,0,0,1.21-.82h0a7.23,7.23,0,0,1-6.41-3.81h0A7.24,7.24,0,0,1,168.46,104.59Z"/><path class="cls-1" d="M265,143.93a3.32,3.32,0,0,1-2.12,3.43,2.86,2.86,0,0,0,5.57-1.3A3.34,3.34,0,0,1,265,143.93Z"/><path class="cls-1" d="M259.43,244.82l-.15,0a.14.14,0,0,0,0-.09c0-.15-.12-.07-.2,0H259l-.53-.17v-.15s-.08.06-.12.07c-.21,0-.25-.38-.46-.29a.68.68,0,0,1-.35.06h-.12l-.45-.14-.07-.09c-.08-.1-.2,0-.3,0h-.06s0-.13-.07-.13h-.15s0-.13-.1-.1v.1h0a.33.33,0,0,0,0-.14l-.05.06c0-.14-.07-.21-.17-.09h0l-.15.09h0a.39.39,0,0,1,0-.26h0c0-.1-.15-.07-.24.09h0c0-.14,0-.16-.11-.13s0,0-.08,0l-.38-.05h0a.08.08,0,0,0-.07-.08h-.05a.23.23,0,0,0-.25,0h0v-.12h-.13s0-.05,0-.06-.06,0,0-.14l-.08.08c0-.17-.16-.12-.25,0l-.12-.12c-.08,0-.11,0-.18.13h-.09l-.07.15h0l-.13.27h0v.06h.22a.19.19,0,0,0,.19.16h.07a.35.35,0,0,1,.28.09c.09.09.09.09.15.06h0a.66.66,0,0,0,.28,0h.06c0,.21,0,.25.16.27s.45.33.77.14l.17-.09.39.12h0c-.1.34.15.33.24.28v-.07c.08,0,.27,0,.29.12l.13-.13h.09a1.71,1.71,0,0,0,0,.32c.1-.24.2-.21.25-.19l.09.07h.09s.09,0,.14-.13h0c0,.08,0,.19.09.22a.19.19,0,0,0,.21-.06.17.17,0,0,0,.1,0l.28.09c.07.13.17.12.28.15s.12.08.2,0h0l.81.25ZM254,243.09h0Z"/><path class="cls-1" d="M258,242.36h-.14v-.09c0-.15-.12-.07-.21,0h-.11l-.53-.16V242s-.09,0-.13.06c-.21.06-.25-.37-.46-.29a.67.67,0,0,1-.35.07H256l-.46-.15-.07-.08c-.07-.1-.2,0-.29,0h-.07s-.05-.13-.08-.14-.06,0-.09,0h0c0-.06,0-.13-.11-.11l-.05.11h0v-.08c0-.15-.07-.21-.17-.09h0a.19.19,0,0,0-.16.09h0a.36.36,0,0,1-.06-.25v0c0-.1-.15-.08-.24.09h0c0-.15,0-.17-.11-.13h-.07a.89.89,0,0,1-.39-.06h0a.12.12,0,0,0-.07-.07h-.06a.2.2,0,0,0-.25,0h0v-.11H253v-.06c-.06,0-.07,0,0-.14s-.06,0-.08.08c0-.18-.17-.12-.26,0a.43.43,0,0,0-.12-.11c-.07,0-.11,0-.17.12h-.1l-.07.15h0l-.13.27h.22a.19.19,0,0,0,.19.15h.08a1.07,1.07,0,0,1,.27.09c.05,0,.09.09.15,0h.29c0,.21.06.25.17.26s.44.33.76.15l.18-.09.38.12s0,.06.05,0c-.09.34.15.33.24.27v-.06c.07,0,.26,0,.28.12l.13-.14h.09a1.82,1.82,0,0,0,0,.33c.11-.24.2-.21.25-.19s.06,0,.09.07H256a.19.19,0,0,0,.15-.12h0c0,.08,0,.19.09.21s.15-.05.21-.05a.17.17,0,0,0,.1,0l.28.09c.07.14.17.13.28.16s.12.08.2,0h0l.82.26Zm-5.41-1.77h0Z"/><path class="cls-1" d="M256.56,239.91l-.15,0v-.09s-.12-.06-.21,0h-.11l-.52-.16v-.16s-.08.06-.13.07c-.21,0-.24-.38-.46-.29a.68.68,0,0,1-.35.06h-.11l-.46-.15-.06-.09c-.08-.1-.21,0-.3,0h-.07s0-.12-.08-.13h-.14s0-.13-.11-.11a.2.2,0,0,1,0,.11h0v-.15l-.06.07c0-.15-.07-.22-.17-.1h0s-.1.06-.16.1h0c0-.05-.07-.08-.06-.26v.06c0-.1-.15-.08-.23.09h0c0-.14,0-.16-.11-.13h-.07a2.54,2.54,0,0,1-.39,0h0a.08.08,0,0,0-.07-.08h-.06a.21.21,0,0,0-.24,0h0v-.07h-.13c-.06,0-.07,0,0-.14a.09.09,0,0,0-.08.07c0-.17-.17-.11-.26,0a.23.23,0,0,0-.11-.11c-.08,0-.12,0-.18.12h-.09l-.08.15h0l-.13.26h0v0h.22a.19.19,0,0,0,.19.15h.08a.76.76,0,0,1,.28.09c.09,0,.08.1.15.06h.35c0,.21.06.26.17.27s.45.33.76.15l.18-.1.38.13s0,.06.06,0c-.1.34.14.33.24.28v-.06c.08,0,.26,0,.28.11a.53.53,0,0,0,.13-.13h.1a1.71,1.71,0,0,0,0,.32c.1-.23.19-.21.25-.18l.08.06a0,0,0,0,1,0,.05h.1s.09,0,.15-.12h0c0,.08,0,.19.08.21a.81.81,0,0,0,.22,0h.09l.28.09c.07.13.17.12.29.16s.11.07.19,0h0l.81.26Zm-5.41-1.73h0Zm-.22-.14Z"/><path class="cls-1" d="M255.12,237.46H255a.14.14,0,0,0,0-.09c0-.15-.12-.07-.2,0h-.11l-.53-.17v-.15s-.08.06-.12.07c-.22,0-.25-.38-.46-.29a.68.68,0,0,1-.35.06h-.12l-.45-.14-.07-.09c-.08-.1-.2,0-.3,0h-.06s0-.13-.08-.13H252s0-.13-.1-.1l-.06.1h0v-.07c0-.15-.07-.22-.17-.1h0a1.1,1.1,0,0,0-.15.09h0c0-.06-.07-.09-.05-.26v.05c0-.1-.14-.07-.23.09h0c0-.14,0-.16-.11-.13h-.07l-.38,0h0a.08.08,0,0,0-.07-.08h-.06a.21.21,0,0,0-.24,0h0V236h-.14v-.06c-.06.06-.06,0,0-.14l-.08.08c0-.17-.17-.12-.25,0a.32.32,0,0,0-.12-.11c-.08-.05-.11-.05-.18.12h-.09l-.07.15h0l-.13.27h0v.06h.22a.21.21,0,0,0,.2.16h.07a.35.35,0,0,1,.28.09c.09.09.08.09.15.06h0a.71.71,0,0,0,.29,0h.06c0,.21.06.25.17.27s.45.33.76.15l.18-.1.38.12s0,.06.06,0c-.1.34.14.33.24.28v-.06c.08,0,.27,0,.29.11l.12-.13h.1a1.71,1.71,0,0,0,0,.32c.1-.24.2-.21.25-.19l.09.07h.09s.08,0,.14-.13h0c0,.08,0,.19.09.22a.19.19,0,0,0,.21-.06h.1l.27.09c.08.13.18.12.29.15s.12.08.2,0h0l.81.25Zm-5.41-1.73h0Z"/><path class="cls-1" d="M253.68,235h-.15a.14.14,0,0,0,0-.09c0-.15-.12-.07-.2,0h-.11l-.53-.17v-.15s-.08,0-.12.06c-.21.06-.25-.37-.46-.29a.58.58,0,0,1-.35.07h-.12l-.45-.15-.07-.08c-.08-.1-.2,0-.3,0h-.06s0-.13-.07-.14-.07,0-.09.05h-.06c0-.06,0-.13-.1-.11v.11h0a.33.33,0,0,0,0-.14l-.05.06c0-.15-.07-.21-.17-.09h0a.15.15,0,0,0-.16.09h0a.36.36,0,0,1,0-.25h0c0-.1-.15-.08-.24.09h0c0-.15,0-.17-.11-.13a.08.08,0,0,0-.07,0l-.39-.06h0a.12.12,0,0,0-.07-.07h-.05a.2.2,0,0,0-.25,0h0v-.06h-.13s0,0,0-.06-.07,0,0-.14l-.09.08c0-.18-.16-.12-.25,0a.34.34,0,0,0-.12-.12c-.08,0-.11,0-.18.12H248l-.07.15h0l-.13.27h0v.06H248a.18.18,0,0,0,.19.15h.07a1.31,1.31,0,0,1,.28.09s.09.09.15,0h.34c0,.21,0,.25.16.26s.45.33.77.15l.17-.09.39.12h0c-.09.34.15.33.24.27v-.06c.08,0,.27,0,.29.12l.13-.14h.09a1.82,1.82,0,0,0,0,.33c.1-.24.2-.21.25-.19l.09.07h.09s.09,0,.14-.13h0c0,.08,0,.19.09.21s.14,0,.21,0h.1l.28.09c.07.14.17.13.28.16s.12.08.2,0h0l.82.26Zm-5.37-1.73h0Z"/><path class="cls-1" d="M252.67,232.59l-.15-.05a.14.14,0,0,0,0-.09c0-.15-.12-.07-.2,0h-.11l-.53-.17v-.15s-.08.06-.12.07c-.22.05-.25-.38-.46-.29a.68.68,0,0,1-.35.06h-.12l-.45-.14-.07-.09c-.08-.1-.2,0-.3,0h-.06s0-.13-.07-.13h-.15c0-.05,0-.13-.1-.1v.1h0v-.14l-.05.06c0-.14-.07-.21-.17-.09h-.05l-.15.09h0a.39.39,0,0,1,0-.26h0c0-.1-.14-.07-.23.09h0c0-.14,0-.16-.11-.13h-.45a.08.08,0,0,0-.07-.08h0a.23.23,0,0,0-.25,0h0V231h-.13s0,0,0-.06-.06,0,0-.14l-.08.08c0-.17-.16-.12-.25,0a.34.34,0,0,0-.12-.12c-.08,0-.11,0-.18.13H247l-.07.15h0l-.13.27h0v.06H247a.21.21,0,0,0,.2.16h.07a.35.35,0,0,1,.28.09c.09.09.09.09.15.06h0a.66.66,0,0,0,.28,0H248c0,.21,0,.25.16.27s.45.33.77.14l.17-.09.38.12s0,.06.06,0c-.1.34.15.33.24.28v-.07c.08,0,.27,0,.29.12l.13-.13h.09a1.71,1.71,0,0,0,0,.32c.1-.24.2-.21.25-.19l.09.07h.09s.09,0,.14-.13h0c0,.08,0,.19.09.22a.19.19,0,0,0,.21-.06h.1l.28.08c.07.14.17.13.28.16s.12.08.2,0h0l.81.25Zm-5.36-1.77h0Z"/><path class="cls-1" d="M251.57,230.09h-.15V230s-.12-.06-.21,0h-.11l-.52-.16v-.16s-.08.06-.12.07c-.22,0-.25-.38-.47-.29a.68.68,0,0,1-.35.06h-.11l-.46-.14-.06-.09c-.08-.1-.21,0-.3,0h-.07s0-.12-.08-.13h-.14c0-.06,0-.13-.11-.11a.2.2,0,0,1,0,.11h0V229l-.05.07c0-.15-.07-.22-.17-.1h0c-.05,0-.1.06-.16.1h0a.38.38,0,0,1-.06-.26v.06c0-.1-.15-.08-.23.09h0c0-.14,0-.16-.11-.13h-.07l-.39-.05h0a.08.08,0,0,0-.07-.08h-.06a.21.21,0,0,0-.24,0h0v-.12h-.13v-.05c-.06.05-.06,0,0-.14a.09.09,0,0,0-.08.07c0-.17-.17-.11-.26,0a.23.23,0,0,0-.11-.11c-.08-.05-.12,0-.18.12h-.09l-.08.15h0l-.46,0h.22a.19.19,0,0,0,.19.15h.08a.35.35,0,0,1,.28.09c.09.09.08.1.15.06h0a1.4,1.4,0,0,0,.29,0h.06c0,.21.06.26.17.27s.45.33.76.15l.18-.1.38.13s0,.06.06,0c-.1.34.14.33.24.28v-.06c.08,0,.27,0,.28.11a.53.53,0,0,0,.13-.13h.1a1.71,1.71,0,0,0,0,.32c.1-.23.19-.21.25-.18l.08.06h.1a.19.19,0,0,0,.15-.12h0c0,.09,0,.2.08.22a.81.81,0,0,0,.22,0h.09l.28.09c.07.13.18.12.29.16s.11.07.19,0h0l.81.26Zm-5.41-1.73h0Zm-.22-.14Z"/><path class="cls-1" d="M250.56,227.59h-.15v-.09s-.12-.07-.21,0h-.11l-.53-.16a.22.22,0,0,0,0-.16.69.69,0,0,1-.13.07c-.21.06-.24-.37-.46-.29a.53.53,0,0,1-.35.06h-.11l-.46-.15-.06-.08c-.08-.1-.21,0-.3,0h-.07s0-.13-.08-.14-.06,0-.09,0h0c0-.06,0-.13-.11-.11v.11h0v-.14l-.06.06c0-.15-.07-.22-.17-.1h0a.16.16,0,0,0-.16.09h0c0-.05-.07-.08-.06-.25h0c0-.1-.15-.08-.23.09h0c0-.15,0-.17-.11-.13h-.07l-.39-.06h0a.07.07,0,0,0-.07-.07h-.06a.21.21,0,0,0-.24,0h0v-.06h-.13v-.06c-.06,0-.07,0,0-.14s-.06,0-.08.08c0-.18-.17-.12-.26,0a.38.38,0,0,0-.11-.11c-.08,0-.12,0-.18.12h-.09l-.08.14h0l-.13.27h0v0h.22a.19.19,0,0,0,.19.15h.08a1.07,1.07,0,0,1,.27.09s.09.09.16,0h.35c0,.21.06.25.17.26s.45.33.76.15L247,227l.38.12s0,.06.06,0c-.1.34.14.33.24.27v-.06c.08,0,.26,0,.28.12l.13-.14h.1a1.82,1.82,0,0,0,0,.33c.11-.24.2-.21.26-.19s.05,0,.08.06a0,0,0,0,1,0,0h.1a.19.19,0,0,0,.15-.12h0c0,.08,0,.19.08.21s.15-.05.21-.05a.17.17,0,0,0,.1,0l.28.09c.07.14.17.13.28.16s.12.08.2,0h0l.81.26Zm-5.41-1.73h0Z"/><path class="cls-1" d="M250.53,225.17l-.15,0a.14.14,0,0,0,0-.09c0-.15-.12-.07-.2,0h-.11l-.53-.17v-.15s-.08,0-.12.06c-.21.06-.25-.37-.46-.28a.68.68,0,0,1-.35.06h-.12l-.45-.14-.07-.09c-.08-.1-.2,0-.3,0h-.06s0-.13-.07-.13h-.15c0-.05,0-.13-.1-.11v.11h0a.33.33,0,0,0,0-.14v.06c0-.15-.07-.21-.17-.09h0a1,1,0,0,0-.16.09h0a.39.39,0,0,1,0-.26h0c0-.1-.15-.08-.24.09h0c0-.15,0-.16-.11-.13h-.46a.12.12,0,0,0-.07-.07H246a.23.23,0,0,0-.25,0h0v-.12h-.13s0,0,0-.06-.07,0,0-.14l-.09.08c0-.17-.16-.12-.25,0a.34.34,0,0,0-.12-.12c-.08,0-.11,0-.18.13h-.09l-.07.15h0l-.13.27h0V224h.22a.19.19,0,0,0,.19.16h.07a1.31,1.31,0,0,1,.28.09c.05,0,.09.09.15,0h0a.66.66,0,0,0,.28,0H246c0,.21,0,.25.16.27s.45.33.77.14l.17-.09.39.12h0c-.09.34.15.33.24.28v-.07c.08,0,.27,0,.29.12a1.59,1.59,0,0,1,.13-.13h.09a1.71,1.71,0,0,0,0,.32c.1-.24.2-.21.25-.19l.09.07h.09s.09,0,.14-.13h0c0,.08,0,.19.09.22a.19.19,0,0,0,.21-.06h.1l.28.08c.07.14.17.13.28.16s.12.08.2,0h0l.82.25Zm-5.41-1.74h0Z"/><path class="cls-1" d="M260.51,247h-.14v-.09s-.11-.06-.19,0h-.11l-.5-.15v-.15s-.08.06-.11.07c-.21.07-.24-.36-.45-.27a.53.53,0,0,1-.33.08h-.11l-.43-.13-.07-.08c-.08-.1-.19,0-.28,0h-.07s0-.12-.07-.13-.06,0-.09.05h0s0-.13-.1-.11v.11h0v-.07c0-.15-.07-.21-.17-.09h0l-.15.1h0c0-.06-.07-.08-.06-.26v.06c0-.1-.14-.07-.22.1h0c0-.15,0-.16-.1-.13h-.44a.07.07,0,0,0-.06-.07h-.06a.19.19,0,0,0-.23,0h0v-.11h-.12s0-.05,0-.06-.06,0,0-.13l-.08.08c0-.18-.16-.11-.24,0a.4.4,0,0,0-.12-.1c-.08,0-.12,0-.17.13h-.12v.16h0l-.08.29h0v.06h.18a.18.18,0,0,0,.19.14h.07a1.07,1.07,0,0,1,.27.07s.08.09.14,0h0a1.31,1.31,0,0,0,.28,0h0c0,.21.06.25.16.26s.43.31.73.11l.17-.1.36.11s0,.06.06,0c-.09.34.14.32.23.27v-.07c.07,0,.25,0,.27.11,0-.06.08-.08.12-.14h.09a1.71,1.71,0,0,0,0,.32c.1-.24.19-.22.24-.2l.09.06h.08s.09,0,.14-.13h0c0,.08,0,.19.08.21s.14-.06.2-.06a.13.13,0,0,0,.09,0l.27.08c.07.13.17.12.27.15s.12.07.19,0h0l.78.22Zm-5.18-1.5h0Z"/><path class="cls-1" d="M287.75,150.79h.15v.08c.08.13.13,0,.19,0l.09-.07.51-.06.08.13a.11.11,0,0,1,.08-.11c.08,0,.36.25.51.08a.66.66,0,0,1,.27-.2h.11l.45,0,.09.06c.11.06.18-.06.27-.1h.06s.09.1.12.09,0-.06.06-.07h.06s.08.11.13.05,0-.07,0-.11h0a.75.75,0,0,1,.07.12v-.08c.06.14.15.17.18,0h0a1.2,1.2,0,0,0,.1-.15h0a.28.28,0,0,1,.14.21v-.06c0,.08.16,0,.16-.18h0c.06.13.11.13.15.07h.07l.35-.11h.14a.19.19,0,0,0,.2-.1h.06v.06s.07-.07.11,0,0,0,0,.06.06,0,.06.12v-.1c0,.16.19,0,.24-.07h.15c.08,0,.12,0,.1-.19h.12v-.17h0v-.29h0c-.07,0-.11.07-.17.07a.12.12,0,0,0,.05-.07h-.49a.63.63,0,0,0-.25.09h-.06c-.1-.18-.15-.21-.25-.17s-.51-.13-.7.17l-.12.16h-.37s0-.05-.06,0c0-.34-.25-.24-.31-.15v.06c-.07,0-.22.11-.29,0v.18h-.1a1.34,1.34,0,0,0-.12-.3c0,.26-.09.27-.14.27h-.19s-.08,0-.08.18h0c-.06-.06-.11-.16-.16-.16s-.11.1-.16.13l-.07.07h-.27c-.12-.09-.2,0-.31,0s-.13,0-.16.08h0l-.79.09Zm5.3-.59h0Zm.24,0Z"/><path class="cls-1" d="M288.45,148.76h.16l.05.08c.08.12.14,0,.21,0l.09-.07h.57s0,.12.08.13.06-.08.09-.11c.19-.13.39.26.56.09a.7.7,0,0,1,.3-.19h.61l.1.06c.11.06.2-.06.3-.09h.06s.09.1.13.09,0-.06.07-.07h.06s.08.11.14.06,0-.08,0-.12h0l.08.13v-.08c.07.13.16.17.2,0h.06l.11-.14h0a.31.31,0,0,1,.15.22v-.06c.06.08.17,0,.19-.18h.05c.06.13.11.13.15.07h.08l.39-.1h0a.14.14,0,0,0,.09,0h0a.21.21,0,0,0,.23-.1h.06a.09.09,0,0,1,0,.07s.08-.07.13,0v.06c0-.08.07,0,.07.12v-.1c0,.17.2,0,.26-.07a.52.52,0,0,0,.16.06c.09,0,.13,0,.12-.19h.12v-.16h0v-.3h0v-.06c-.07,0-.13.07-.19.07a.18.18,0,0,0-.23-.07h-.09a1.4,1.4,0,0,1-.29,0c-.06,0-.12,0-.17,0h0a1.52,1.52,0,0,0-.28.09h-.07c-.1-.19-.15-.21-.26-.18s-.55-.13-.78.16l-.13.15h-.48c0-.35-.27-.25-.33-.17v.07c-.08,0-.25.11-.32,0a.18.18,0,0,1-.07.17h-.1a1.88,1.88,0,0,0-.12-.3c0,.26-.11.27-.17.27h-.21c-.05,0-.09,0-.09.17h0c-.06-.07-.11-.17-.17-.17s-.12.1-.18.13l-.08.07h-.3c-.12-.1-.21-.05-.33,0s-.14,0-.18.08h0l-.88.07Zm5.82-.49Z"/><path class="cls-1" d="M289.53,146.73h.18a.35.35,0,0,1,.05.08c.1.13.16,0,.25,0l.11-.07.65-.06a.19.19,0,0,0,.1.13s.07-.08.11-.11c.21-.13.44.25.64.08a.92.92,0,0,1,.36-.2h.7l.12.06c.13.06.23-.06.34-.1h.13s.11.1.15.09,0-.06.08-.08h.07c.06,0,.09.11.17,0s0-.08,0-.11h0l.09.12v-.08c.07.14.17.17.23,0h.06c.06,0,.09-.09.13-.15h0c.07,0,.12,0,.18.21v-.06c.07.08.2,0,.22-.18h0c.07.12.13.13.18.07h.09l.45-.11h0a.2.2,0,0,0,.11,0h0a.3.3,0,0,0,.27-.11h.07a.09.09,0,0,1,0,.07c.05,0,.1-.07.15-.06s0,.06,0,.06.07,0,.07.13l.06-.11c0,.17.24,0,.3-.07a.6.6,0,0,0,.19,0c.1,0,.15,0,.14-.18h.14v-.16h0v-.29h0v-.06c-.09,0-.15.07-.23.06a.23.23,0,0,0-.27,0h-.44c-.12,0-.13,0-.19,0h0a1.31,1.31,0,0,0-.32.1h-.07c-.11-.19-.17-.21-.3-.18-.3.08-.64-.12-.91.18l-.15.15h-.56c0-.35-.3-.24-.38-.15s0,0,0,.06-.29.11-.37,0c0,.07-.06.11-.08.17h-.12a1.11,1.11,0,0,0-.14-.29c0,.26-.12.27-.19.27H292v0c0-.05-.07,0-.11,0h0c-.06,0-.1,0-.11.18h0c-.07-.07-.12-.17-.19-.17s-.14.11-.21.14a.28.28,0,0,0-.09.07H291c-.14-.09-.24,0-.38,0s-.17,0-.22.08h0l-1,.09Zm6.75-.59h0Z"/><path class="cls-1" d="M290.36,144.7h.21v.08c.11.13.18,0,.28,0l.12-.07.73-.06s.07.12.1.13.08-.09.12-.12c.24-.13.49.24.71.08a.94.94,0,0,1,.4-.2h.16l.62,0,.13,0c.14.06.26-.06.38-.1h.15s.12.1.16.09.06-.05.09-.07h.08c.07,0,.1.11.19,0a.2.2,0,0,1,0-.11h0l.1.12v-.08c.08.13.19.17.26,0h.07c.06,0,.1-.09.14-.15h0a.28.28,0,0,1,.2.21v-.06c.08.08.22,0,.25-.18h.06c.08.13.14.13.2.07h.1l.51-.11h.19a.36.36,0,0,0,.3-.1h.09v.07a.27.27,0,0,1,.16-.06v.06c0,.06.08,0,.08.13a.14.14,0,0,1,.06-.11c.06.17.27,0,.34-.07h.2c.13,0,.17,0,.16-.19h.16v-.16h0v-.3h0v-.07c-.1,0-.17.08-.25.07a.29.29,0,0,0-.31,0h-.69a1.19,1.19,0,0,0-.36.09h-.08c-.13-.18-.19-.2-.34-.17-.32.08-.71-.11-1,.19l-.17.16h-.62c-.05-.35-.34-.24-.43-.15s0,0,0,.07-.33.11-.41,0l-.09.18h-.13a1.08,1.08,0,0,0-.16-.3c0,.26-.14.27-.22.28h-.27q-.09,0-.12.18h0c-.07-.06-.13-.16-.2-.16s-.16.1-.24.13a.35.35,0,0,0-.1.08H292c-.15-.09-.27,0-.42,0s-.18,0-.24.09h0l-1.12.1Zm7.49-.67h0Zm.34,0Z"/><path class="cls-1" d="M291.38,142.67h.16v.08c.08.12.14,0,.21,0l.1-.07h.57s.05.12.08.13.06-.08.09-.11c.19-.13.39.25.56.09a.67.67,0,0,1,.31-.19h.61l.1.06c.11.06.2-.06.29-.09h.07s.09.1.13.09,0-.06.07-.08h.06s.08.11.15.06v-.12h0a.17.17,0,0,0,.07.13v-.08c.06.13.15.17.2,0h.05a1,1,0,0,0,.11-.15h0c.06,0,.1,0,.15.22v-.07c.05.09.17,0,.18-.17h0c.07.13.11.14.16.08a.11.11,0,0,0,.08,0l.39-.1h.14a.22.22,0,0,0,.24-.1h.07v.07s.09-.07.13-.06,0,.06,0,.06.06,0,.06.13v-.11c0,.17.21,0,.26-.06a.37.37,0,0,0,.17.05c.09,0,.13,0,.12-.18h.12V142h0v-.29h0v-.13c-.07,0-.13.07-.19.06a.18.18,0,0,0-.24-.06h-.55a.76.76,0,0,0-.28.09h-.07c-.1-.19-.15-.21-.26-.18s-.56-.13-.79.16l-.13.15h-.48c0-.35-.27-.24-.33-.16v.07c-.08,0-.25.1-.32,0,0,.07-.05.11-.07.17h-.1a1,1,0,0,0-.13-.3c0,.26-.1.27-.16.27h-.21s-.09,0-.09.17h0c-.06-.06-.1-.16-.16-.16s-.12.1-.19.13a.46.46,0,0,0-.07.07h-.31c-.12-.1-.21,0-.33,0s-.14,0-.19.08h0l-.87.07Zm5.85-.49h0Zm.25,0Z"/><path class="cls-1" d="M292.15,140.64h.16v.08c.07.13.12,0,.17,0l.08-.07H293a.61.61,0,0,0,.07.14.9.9,0,0,1,.07-.11s.32.26.45.1a.61.61,0,0,1,.25-.18h.5l.08.06c.09.06.16,0,.24-.08h0s.08.11.1.1,0-.05.06-.07h0s.07.11.12.06v-.11h0a1.11,1.11,0,0,1,.07.13v-.08c.05.13.12.17.16,0h0a1.17,1.17,0,0,0,.09-.14h0s.08,0,.12.22v-.06c0,.08.14,0,.15-.18h0c.05.13.09.14.13.08h.06l.32-.09h.07a.18.18,0,0,0,.19-.1h.06v.07s.06-.07.1,0v.06q0-.1.06.12c.06.22,0-.06,0-.1,0,.17.16,0,.21-.06a.38.38,0,0,0,.13.06c.08,0,.11,0,.1-.18h.1v-.17h0v-.29h0v-.06c-.06,0-.1.07-.16.06s-.13-.1-.19-.07h-.07a1,1,0,0,1-.24,0s-.09,0-.13,0h0a.7.7,0,0,0-.23.08H296c-.08-.19-.12-.21-.21-.19s-.46-.14-.64.15l-.1.15h-.39c0-.35-.22-.25-.27-.17v.07c-.07,0-.2.1-.26,0V140h.17a1.06,1.06,0,0,0-.1-.3c0,.26-.08.27-.13.27H294v-.05s-.05,0-.08,0h0s-.07,0-.07.17h0c0-.07-.09-.17-.14-.17s-.09.1-.14.13a.16.16,0,0,0-.07.07h-.24c-.1-.1-.17-.06-.27-.05s-.11,0-.15.07h0l-.71.05Zm4.72-.37h0Zm.22,0Z"/></svg>