<svg xmlns="http://www.w3.org/2000/svg" viewBox="0 0 322.66 282.73"><defs><style>.cls-1{opacity:0.2;}.cls-2{fill:#fff;}</style></defs><title>social</title><g id="Layer_3" data-name="Layer 3"><path class="cls-2" d="M17.49,202.64l-1.71-1.82c-.08-.16-.19-.33-.31-.53a11.62,11.62,0,0,0-2.34-2.42L12,196.81l-.93-1,.06.08c-1.28-2.16-2.56-4.32-3.71-6.55a5.58,5.58,0,0,0-.32-1.14,13.48,13.48,0,0,0-.84-1.32c-1.49-2.65-1.82-5.29-2.89-7.89a23.37,23.37,0,0,1-1.44-4.8c-.12-.6-.2-1.23-.28-1.85a42.87,42.87,0,0,1-.21-7.6l.19-1.44c.24-1.67.18-3.21.29-4.71L2,157.52c0-.23.08-.46.13-.69.1-.5.32-1.27.38-1.82,0-.39,0-.8,0-1.19s.11-.66.15-1a8.88,8.88,0,0,0,.37-2.13c-.08,0-.12-.18-.17-.27v-.2c.11-.33.21-.7.34-1,0-.17-.05-.34-.08-.5a6.25,6.25,0,0,0,.38-3.07,7.07,7.07,0,0,0,.1-.82,12.47,12.47,0,0,0-.07-2l0-.27a6.53,6.53,0,0,1,.53-2.09L4,140.09a6.25,6.25,0,0,0-.18-3.17v-.07l.06-.71A6,6,0,0,0,4.15,135c0-.36,0-.71.06-1.08s.11-.75.22-1.14a9.39,9.39,0,0,1,2.86-5,4.71,4.71,0,0,1,.41-.35l1.17-.7c.24-.16.46-.28.65-.42a13.9,13.9,0,0,1,1.82-.71l.09,0c.52-.2,1-.4,1.49-.64l.05,0c.32-.09.65-.11,1-.17,0,0,0,.08.06.1l.93-.28a8.55,8.55,0,0,1,1-.13c.09,0,0,.09,0,.1.63-.22,1-.12.86.14.18-.07.61-.12.81-.19a6.16,6.16,0,0,0,1.8.23c.4.06.81.09,1.19.12s.71.1.95.12a20.34,20.34,0,0,1,2.14.93c1.23.65,1.69,1,1.93.77a10.49,10.49,0,0,1,1.44,1.17l.21-.2,0,0a.13.13,0,0,1,0-.06l.37-.35-.1-.1.09-.06a15.86,15.86,0,0,0-2.62-1.81,8.59,8.59,0,0,0-3.47-1.55l-.6-.16-.66-.11a16,16,0,0,0-4.83-.08,10.7,10.7,0,0,0-2.6.51,2,2,0,0,0-.25.14l-1.61.55.07,0a10,10,0,0,0-2.72,1.25,8.24,8.24,0,0,0-.85.55l-.28.13a5.05,5.05,0,0,0-.87.46,4.06,4.06,0,0,0-.74.57,4.21,4.21,0,0,0-.69.75,6.59,6.59,0,0,0-.71,1,13.18,13.18,0,0,0-1.72,6.37c0,2.11-.08,4.15,0,6.11,0,.79.06,1.51.08,2.25-.19,2.14-.42,4.29-.66,6.43a3.13,3.13,0,0,0-.15,1c-.63.11-.91,3.76-.9,5,0,.06.08,0,.11.05a46.61,46.61,0,0,1-.52,4.92c.08.45.1,1,.19,1.35,0,.54-.07,1.08-.1,1.62A6.77,6.77,0,0,0,0,166c.42.44.41,2.05.44,3,0,.42,0,1.07,0,1.69,0,0,0,.08-.07.07a9.52,9.52,0,0,0,.14,1.6l-.05-.08c0,.79.2,1.41.49,1.6l.09.46a10.51,10.51,0,0,0,.16,2.41,8.66,8.66,0,0,0,.45,1.45l.54,1.44c.2.54.35.9.51,1.23q.79,2.25,1.75,4.43a28.58,28.58,0,0,0,2.14,4.67,14.22,14.22,0,0,0,1.54,2.62l0,0c.7,1.29,1.47,2.54,2.21,3.8l0,0,0,0,6.44,6.81Zm-1-78.38,1.1,0,0,0Zm3.84.32h0l.1,0Z"/><path class="cls-2" d="M86.53,195.35q-1.43-1.47-2.79-3c-.15-.25-.33-.52-.54-.83a49.7,49.7,0,0,0-3.5-4.24c-.55-.66-1.08-1.31-1.58-2a47,47,0,0,1-3.75-6.23A25.45,25.45,0,0,1,73,175.73c-.38-1.12-.67-2.33-1-3.51a12,12,0,0,0-.35-1.92,24.71,24.71,0,0,0-1-2.4,63.55,63.55,0,0,1-2.35-6.71c-.64-2.18-1.18-4.35-1.92-6.59-.44-1.35-.83-2.64-1.2-3.95-.19-.67-.39-1.33-.6-2s-.47-1.35-.7-2.07c-.16-.5-.39-1-.58-1.47a15.59,15.59,0,0,0-.62-1.46,35.75,35.75,0,0,0-7.22-10.58,20.4,20.4,0,0,0-1.55-1.53l0,0-.23-.21a22.79,22.79,0,0,0-6.87-4c-.57-.23-1.14-.47-1.73-.66-.37-.15-.75-.27-1.12-.41a17.53,17.53,0,0,0-3-.87,15.26,15.26,0,0,0-2-.12,16.7,16.7,0,0,0-1.69-.11,12.26,12.26,0,0,0-3.67.16c0,.1-.26.19-.39.27l-.32.07c-.59,0-1.21.14-1.77.17-.28.12-.52.25-.77.37a10.47,10.47,0,0,0-4.83,2,11.56,11.56,0,0,0-1.22.68c-.52.35-1,.67-1.39,1l-1.18,1-.36.27c-.55.42-1,.8-1.53,1.13s-.94.73-1.37,1.08c-.13.21-.24.42-.35.63a9.59,9.59,0,0,0-1.52,2.47c-.21.5-.38,1-.51,1.42a4.67,4.67,0,0,0-.13,1l-.05.11c-.16.38-.25.76-.37,1.13a9.08,9.08,0,0,0-.36,1c-.09.33-.16.65-.22,1a8.42,8.42,0,0,0-.12,2,12.15,12.15,0,0,0,0,2.09l0,.65.09.64c.07.42.13.85.19,1.28.15.85.4,1.69.6,2.54l1.67,5,.29.91c.2.76.39,1.51.63,2.29.15.48.3.89.45,1.26.61,2,1.24,4,1.94,5.87l0,.1c.13.53.27,1.06.4,1.6,0,.06-.08,0-.09.09.34,1,.72,2.1,1,3.21,0,.14-.09,0-.1,0,.41,1,.47,1.59.17,1.47.14.27.38,1,.53,1.3-.07.9,1.22,5.06,1.48,6.6a35.07,35.07,0,0,0,.55,4.08c.48,2.4.81,3.36,1.13,3.4.28,1.05.58,2.08.93,3.12l.27-.09,0,.06s0-.05,0-.08l.48-.16-.06-.2h.11a47.83,47.83,0,0,1-1.43-4.82c-.26-1.88-.63-3.86-.9-5.94-.09-.66-.2-1.34-.37-2.07-.53-2.54-1.24-5-1.91-7.5-.36-1.31-.71-2.84-1.17-4.07-.06-.15-.12-.28-.18-.41-.72-2.38-1.48-4.73-2.29-7.09l-.48-1.55-.08-.47a26.68,26.68,0,0,0-.6-2.89c-.26-1-.59-1.93-1-3.3a20.2,20.2,0,0,1-.44-9.81,18.8,18.8,0,0,1,1.67-4.61,18.3,18.3,0,0,1,1.24-2c.23-.32.46-.63.71-.93l.18-.21a1.92,1.92,0,0,1,.2-.19l.43-.42a31.85,31.85,0,0,1,2.76-2.39,24.55,24.55,0,0,1,9.69-4,15.07,15.07,0,0,0,1.69-.19c.17.28,1.71.28,3.43.42a40,40,0,0,1,4.56.68c.09,0,0-.07.09-.09a26.2,26.2,0,0,1,4,1.42,16.07,16.07,0,0,1,3.22,1.89c.65.27,1.37.72,1.92,1,.27.21.55.43.79.65h0c.39.31.79.68,1.18,1,.49.72.72,1.32,1.33,2.17.81.2,2.44,2.25,3.22,3.51.38.55.87,1.48,1.35,2.36,0,.07,0,.12,0,.13.37.79.78,1.49,1.15,2.28a.44.44,0,0,1-.11-.1,6.68,6.68,0,0,0,1.3,2.33,6.86,6.86,0,0,1,.27.71c.15.66.28,1.24.41,1.84s.21,1.21.41,1.93c.38,1.53.94,3.19,1.41,4.76.29.91.49,1.51.71,2.06.73,2.51,1.59,5,2.52,7.41.85,2.76,1.81,5,2.68,8,.23.72.43,1.58.7,2.44.14.43.28.86.42,1.25a8.08,8.08,0,0,0,.51,1.06l0,0a34.4,34.4,0,0,0,2.59,5.1c1,1.64,2.06,3.2,3.19,4.73a88.49,88.49,0,0,0,7.41,8.65ZM22.38,172.54l.49,1.81v.06Zm1.47,6.37h0l0,.16Z"/><path class="cls-2" d="M70,167.65l.62-.33a.65.65,0,0,0,.21.05c.39,0,.56-.24.81-.48l.33-.3,2.19-1.19c.13,0,.29.09.4,0s.18-.26.3-.37c.64-.58,1.62-.33,2.19-1a5.17,5.17,0,0,1,1.1-.94l.45-.28,1.87-1.06.41-.11a3.44,3.44,0,0,0,1.09-.76l.27-.15a.6.6,0,0,1,.19-.06,1.62,1.62,0,0,0,.54-.11c.09-.06.14-.19.22-.26a1.57,1.57,0,0,0,.26-.12c.22,0,.36,0,.58-.2a1.77,1.77,0,0,1,0-.2l0,0c.12,0,.25,0,.37,0s0-.12,0-.18a.6.6,0,0,0,.78-.38.54.54,0,0,0,.2-.1,1.27,1.27,0,0,0,.35-.48l.07,0a.81.81,0,0,1,.71,0l0-.15a.68.68,0,0,0,.61-.69h0l.19,0a.55.55,0,0,0,.64-.21,1.52,1.52,0,0,0,.3-.17c.46-.33.93-.67,1.43-1l.13-.08a1.5,1.5,0,0,0,.39-.14.55.55,0,0,0,.17-.17,2,2,0,0,0,.81-.67h0l.27-.1s0,.07.07.1a1.3,1.3,0,0,1,.44-.37s0,.08.06.09c.09-.2.22-.18.33.06,0-.09.1-.19.11-.28.29.18.81-.39,1-.68a4.59,4.59,0,0,0,.64-.28c.36-.19.49-.31.34-.58l.46-.29-.16-.24h0l0,0-.28-.43,0,0,0-.09a6,6,0,0,1-.68.53,1.62,1.62,0,0,0-.94.44l-.29.19c-.36.23-.72.48-1.1.69-.2.11-.47.18-.61.38l0,.08a9.19,9.19,0,0,0-1,.76l-.24.14h-.1a1.19,1.19,0,0,0-1.11.27c-.91.66-2.18,1-2.87,1.93l-.41.53-1.55.92a.27.27,0,0,0-.27.11c-.36-.49-1.16.14-1.38.43,0,0,0,.06.05.1-.3.2-.91.7-1.21.65,0,.16-.14.29-.18.44l-.39.22c-.21-.08-.43-.25-.64-.24.12.44-.26.66-.49.78s-.28.1-.43.18l-.06-.06a1.19,1.19,0,0,0-.38.21v-.05a.34.34,0,0,0-.26.47l-.11.07c-.26,0-.5-.07-.73,0s-.41.41-.63.58a1.39,1.39,0,0,0-.27.28l-1.15.64a3.73,3.73,0,0,0-1.3.59c-.23.13-.57.24-.69.5h0l-3.38,1.82Zm22.18-12.82.27-.17,0,0Zm1-.51Z"/><path class="cls-2" d="M229.66,92.91A34.33,34.33,0,0,1,237,91a65.52,65.52,0,0,1,7.66-.73c1.09,0,2.31,0,3.71,0,3.47.11,6.83.24,10.19.5a55.45,55.45,0,0,1,10.26,2,44.49,44.49,0,0,1,8.77,3.66,46,46,0,0,1,5.64,3.85,46.77,46.77,0,0,1,4.91,4.74,44.41,44.41,0,0,1,7.26,11.51,41.74,41.74,0,0,1,3.41,13.14,19.82,19.82,0,0,1,0,3.36l-.41,3.43-.81,6.85c-.37,2.34-.76,4.48-1.1,7.16-.23,1.82-.38,3.36-.52,4.88a33.1,33.1,0,0,1-.83,4.66,81.77,81.77,0,0,1-4.43,12.83c-.87,2-1.81,4-2.78,5.94a52.15,52.15,0,0,1-3.15,5.58,64.89,64.89,0,0,1-8.08,9.83,108.2,108.2,0,0,1-9.7,8.69,70.46,70.46,0,0,1-6.36,4.61c-2.19,1.53-4.15,3.13-6.17,4.74s-4,3.25-6,5c-1,.86-2,1.72-3,2.68a5.07,5.07,0,0,0-.79.93c-.09.08-.07.1-.22.24l-.34.35c-.49.46-1,.91-1.53,1.37l-9,7.58c-1.51,1.31-3,2.59-4.45,4.06a29.34,29.34,0,0,0-1.87,2.4l-1.73,2.44-6.82,9.8c-2.28,3.26-4.59,6.5-7,9.67a118.92,118.92,0,0,1-7.54,9.2c-2.08,2.24-4.22,4.4-6.35,6.38l-1.44,1.3-.72.64-.36.31-.34.26a25,25,0,0,1-3.2,1.87,29,29,0,0,1-6.85,2.36c-.59.1-1.17.24-1.76.31l-1.75.19-1.76,0c-.58,0-1.16-.05-1.74-.07l-.87-.06-.85-.14c-.57-.1-1.15-.15-1.71-.3a23,23,0,0,1-3.28-1c-1-.38-2.09-.84-3.13-1.29l-3.14-1.34-4-1.77c-2.88-1.27-7.38-3.32-10.52-4.62-2.25-.94-4.6-1.83-6.84-2.72-2-.83-3.87-1.63-5.72-2.36-1.11-.46-2-.85-3-1.19l-.2-.07-.25.09-4.51,1.67.15,0-2.17.29-1.45.21c-.53.06-1.09.1-1.7.16a12.56,12.56,0,0,1-1.52.32c-.39.05-.8,0-1.21.05-1,0-2.14,0-3.21-.13l-1.6-.13-1.5-.25c-1-.06-2-.28-2.94-.41-.61-.22-1.29-.42-2-.69l-1-.45c-.36-.15-.7-.36-1.05-.54a13.5,13.5,0,0,1-2-1.35,10.27,10.27,0,0,1-.9-.84,4.14,4.14,0,0,1-.39-.46,3.68,3.68,0,0,1-.31-.43l-.26-.43h-.41a13.71,13.71,0,0,0-5,1,39.08,39.08,0,0,0-4.16,1.78c-.9.39-1.79.8-2.75,1.27l.13-.05-2,.48-1.61.38a14.32,14.32,0,0,1-1.55.26l-1.5.23a12.17,12.17,0,0,1-1.45.17l-2.84.14-2.84-.16c-.54-.08-1.07-.21-1.61-.31a22.36,22.36,0,0,1-3.44-1c-.54-.19-1-.47-1.53-.69l-.73-.35c-.24-.11-.45-.27-.68-.4l-1.3-.81-1.16-.92a10.8,10.8,0,0,1-1.06-1,11.26,11.26,0,0,1-1-1l-.91-.85c-.28-.3-.55-.6-.83-.89-.36-.47-.76-1-1.18-1.66-.21-.32-.43-.65-.65-1l-.36-.58c-.13-.21-.26-.37-.39-.56-1-1.49-2.19-3.12-3.33-4.69-2.27-3.14-4.46-6.06-5.48-7.24l-.26-.36L50.38,239c-2.33-3.65-4.47-6.75-6.79-10l-.21-.3H43l-2.37,0c-.61,0-1.21-.07-1.82-.12L37,228.36c-1.24-.18-2.51-.33-3.79-.63a22.31,22.31,0,0,1-4.47-1.4,12.09,12.09,0,0,1-3.85-2.55A10.6,10.6,0,0,1,23.45,222c-.2-.34-.37-.68-.6-1.08l-.3-.52c-.08-.17-.17-.34-.25-.53a29,29,0,0,1-1.45-4.73l0-.17-.13-.14a13.64,13.64,0,0,1-3.58-7.88,11.09,11.09,0,0,1,.55-4.45,14.08,14.08,0,0,1,2.22-4,21,21,0,0,1,2.35-2.57c.54-.48,1.09-1,1.67-1.38s1.15-.89,1.74-1.32l1.84-1.22c.6-.43,1.27-.76,1.91-1.16.8-.49,1.59-.87,2.33-1.25l1.07-.54,1-.45a38.57,38.57,0,0,1,11.33-2.8,37.18,37.18,0,0,1,11.16.68l.36.09c.49.15,1,.27,1.47.43l1.44.51c1,.36,1.95.75,2.93,1.09.18.11-.11.05.18.19,3.83,1.28,8,2.51,12.13,3.84.49.16-.09.06,0,.11,4,1.11,6,1.83,5.2,1.85,1.11.28,3.82,1.09,5.08,1.43.74.32,2.28.86,4.24,1.57,1,.36,2.07.75,3.17,1.22.27.11.54.24.8.37.11.06.26.13.35.19l.16.1s0,0,.07.05h0l.06-.05.07,0,0,0c-.3.25-.08.07-.14.13l0,0,.16.13a2,2,0,0,0,.31.23l.49.28c.31.15.62.31.93.44,2.47,1.1,5,2.06,7.34,2.94s4.36,1.62,5.8,2.14c4.7,1.9,9.39,3.81,14.08,5.77,8.37,3.5,11.73,5.16,12.3,5.08,1.82.87,3.62,1.77,5.38,2.75a26.24,26.24,0,0,1,4.9,3.33l.2-.21.18.17c-.07-.09-.09-.13-.14-.2l.35-.37-.61-.56a.88.88,0,0,1,.2,0,28.93,28.93,0,0,0-4.35-2.85c-1.44-.81-2.87-1.52-4.27-2.21-2.81-1.35-5.54-2.57-8.37-3.81-6.51-3-13.71-5.85-21.15-8.72l-7.2-2.85c-1.11-.45-2.22-.91-3.32-1.38-.55-.24-1.09-.49-1.6-.75l-.37-.21c-.13-.08-.12-.09-.24-.17l-.25-.22-.22-.15a3.79,3.79,0,0,0-.43-.24,30.09,30.09,0,0,0-3.42-1.41c-1.14-.41-2.29-.8-3.44-1.18-4.61-1.51-9.24-2.92-13.85-4.37-2.43-.77-5.05-1.62-7.63-2.49l-3.82-1.32-1.84-.66-1.83-.6-1.67-.39a37.73,37.73,0,0,0-27.4,4.2c-.89.53-1.8,1-2.63,1.61a29.91,29.91,0,0,0-2.5,1.8l-1.46,1.06a21.81,21.81,0,0,0-4.09,4.05,14,14,0,0,0-2.44,4.94c-.95,3.68-.23,8.35,3.61,12.65l-.21-.39.07.33c.29,1.18.61,2.36,1,3.54A12.66,12.66,0,0,0,21.3,221l.9,1.62a11.3,11.3,0,0,0,2.54,3,15.41,15.41,0,0,0,3.31,2,27.67,27.67,0,0,0,7.36,2,60.28,60.28,0,0,0,7.58.57l-.67-.35c4.64,6.6,9.3,13.23,13.87,19.75L63,259.31a24.05,24.05,0,0,0,4.31,4.13l1.2.85c.42.27.86.49,1.28.74a20.31,20.31,0,0,0,2.63,1.24,13.05,13.05,0,0,0,1.76.6l.88.26a4.53,4.53,0,0,0,.88.22,25.31,25.31,0,0,0,3.52.51l1.74.12c.58,0,1.16,0,1.74-.05l1.72-.07c.58,0,1.14-.16,1.71-.23l1.62-.22c.27,0,.54-.06.81-.11l.79-.19,3.18-.74h0l0,0c1.82-.9,3.68-1.74,5.58-2.46,1-.36,1.91-.68,2.88-.95a9.51,9.51,0,0,1,2.9-.42l-.3-.2a10.7,10.7,0,0,0,4.22,3.56,21.46,21.46,0,0,0,2.52,1.08,27,27,0,0,0,2.64.7,39.07,39.07,0,0,0,10.79.56c1-.07,2-.06,3-.22s2-.27,3.11-.44h.08l.38-.16a23.16,23.16,0,0,0,4.23-1.28l-.49,0c1.61.6,3.7,1.49,5.92,2.41l7,2.9,11.81,4.84c.31.09,0-.08.26,0l6.81,2.86c1.31.54,2.63,1.15,4.05,1.69.72.26,1.42.58,2.16.79s1.49.41,2.23.58a25.62,25.62,0,0,0,8.56.35,35,35,0,0,0,5.91-1.31,24,24,0,0,0,7.23-4.24c2.52-2.23,4.89-4.61,7.18-7.07a81.49,81.49,0,0,0,6.7-7c.65-1.17,2.48-3.73,4.5-6.61L220.6,248l6-8.48c.17-.2.29-.32.29-.27,1-1.34,1.91-2.69,2.88-3.85s2.27-2.21,3.52-3.3l-.37.38a94,94,0,0,0,7.57-6.74l2.22-1.86,1.45-1.19.7-.61a3.58,3.58,0,0,0,.71-.79c.1-.12.11-.11.19-.21l.3-.28c.19-.19.42-.38.63-.56.42-.38.87-.74,1.31-1.1l5.89-4.71c2.34-1.85,4.77-3.84,7.28-5.64a89.77,89.77,0,0,0,7.6-5.56c2.79-2.26,4.52-3.9,6.14-5.46a74.05,74.05,0,0,0,9.71-11.06l1-1.55c.33-.52.68-1,1-1.58.59-1.07,1.21-2.14,1.73-3.25,1.11-2.19,2.12-4.42,3.1-6.67a80.92,80.92,0,0,0,5.12-14.77,32.77,32.77,0,0,0,.68-3.86c.15-1.29.31-2.6.46-3.92.32-2.65.64-5.38,1-8.25s.75-6.21,1.14-9.51a21.38,21.38,0,0,0-.11-5,30.76,30.76,0,0,0-.84-4.27l-.06-.2a45.75,45.75,0,0,0-9.62-19,42.33,42.33,0,0,0-17.49-12.13,52.63,52.63,0,0,0-10.4-2.68l-2.67-.35c-.9-.08-1.78-.14-2.68-.19-1.78-.1-3.57-.17-5.35-.19a91.34,91.34,0,0,0-10.72.44,40.58,40.58,0,0,0-10.5,2.33ZM78.44,193.55l6.73,2.13.2.09Zm23,9,0,0,.58.24Z"/><path class="cls-2" d="M185,240.23a31.07,31.07,0,0,0-1.86-3.69c-.1-.28-.23-.59-.38-.94a12.67,12.67,0,0,0-1.58-2.28,18.9,18.9,0,0,0-2.1-2,19.37,19.37,0,0,0-2.09-1.54,19,19,0,0,0-10.09-3.43h0c-1.34-.13-2.68-.28-4-.48a16.14,16.14,0,0,0-1.84-.53c-.94-.17-1.62-.16-2.54-.29-4.89-.79-8.78-2.6-13.3-3.8-2.74-.74-5.14-1.47-7.9-2.48l-2.9-1.1c-3.9-1.53-7.76-3.15-11.67-4.72l-2.18-1a29.64,29.64,0,0,0-3.79-1.34,12.83,12.83,0,0,0-3.88-.57,6.46,6.46,0,0,0-.94.13c-.3.05-.6.09-.89.15s-.77.14-1.16.19a22.83,22.83,0,0,0-3,.62c-.62.2-1.24.49-1.83.74s-1.06.39-1.55.59a12.82,12.82,0,0,0-3.28,1.54c0,.09-.17.26-.25.38l-.28.18-1.55.82c-.21.21-.39.42-.57.62a9.1,9.1,0,0,0-2,1.57,7.66,7.66,0,0,0-.91,1.08,5.59,5.59,0,0,0-.67,1.13c-.14.18-.28.36-.41.56l-.36.63a8.25,8.25,0,0,0-.65,1.63,14,14,0,0,0-.3,1.57l-.09.44c-.31,1.37-.38,2.49-.59,3.56.06.24.1.47.17.69a9.81,9.81,0,0,0,.5,2.81A6.62,6.62,0,0,0,93.36,234l0,.11c.13.39.28.74.42,1.1a10.07,10.07,0,0,0,1.76,3.47,20.68,20.68,0,0,0,1.22,1.67,29.71,29.71,0,0,0,7.93,6.63l.81.5c.65.44,1.31.87,2,1.26.45.24.84.43,1.2.6,1.84,1,3.68,2,5.41,2.86l.08.05c.44.3.88.6,1.31.93,0,.06-.06.05,0,.13a32.57,32.57,0,0,1,2.74,1.87c.11.09-.06.06,0,.09,1,.54,1.34,1,1,1,.29.12.91.53,1.22.68.51.74,4.15,3.16,5.57,3.95,1.07.81,2.15,1.61,3.27,2.37,2,1.34,2.94,1.79,3.2,1.58.47.26.94.53,1.45.75.25.1.49.24.76.33l.81.26.07-.27.07,0a.2.2,0,0,1-.06-.07l.13-.49-.19-.07.07-.09L135,265c-.2-.07-.4-.16-.59-.24a11.35,11.35,0,0,1-1.11-.52,22.21,22.21,0,0,1-2.08-1.17c-1.49-1.15-3.16-2.29-4.89-3.46l-1.66-1.18c-2-1.48-4.11-3-6.15-4.5a30.37,30.37,0,0,0-3.47-2.42l-.42-.2c-2.13-1.25-4.32-2.36-6.5-3.5l-1.4-.79-.36-.3c-.84-.68-1.52-1.22-2.27-1.78s-1.59-1.17-2.69-2a22.92,22.92,0,0,1-6.05-7.7A20.64,20.64,0,0,1,93.12,226a10.53,10.53,0,0,1,.6-3.44,14.27,14.27,0,0,1,2.89-4.23,20.13,20.13,0,0,1,4.06-3.22,15.34,15.34,0,0,0,1.48-.79c.27.18,1.68-.4,3.3-1s3.48-1.16,4.4-1.43c.07-.06,0-.07,0-.13.5-.12,1.15-.27,1.87-.41a10.94,10.94,0,0,1,1.1-.18,4.13,4.13,0,0,1,1.05,0,13.26,13.26,0,0,1,3.51,1c.7.11,1.52.34,2.12.45.82.3,1.64.62,2.46,1a20.86,20.86,0,0,0,2.14,1.43c.81-.15,3.23.84,4.61,1.41l2.51,1.08c.05.05.08.09.07.11.79.37,1.57.65,2.39,1h-.14a5.5,5.5,0,0,0,2.6.7l.71.27a34.18,34.18,0,0,0,3.53,1.64c1.49.53,3.17.93,4.73,1.39.9.27,1.51.43,2.09.55,2.47.76,5,1.45,7.48,2a52.33,52.33,0,0,0,8.23,1.7c1.18.18,2.7.39,3.89.44h.06l1,0h.05a18.68,18.68,0,0,1,10,4.32,23.25,23.25,0,0,1,6.29,9Zm-65.83,15.41,1.5,1.1,0,.06Zm5.2,3.93h0l.13.11Z"/><path class="cls-2" d="M189.28,204.6l-.92.14-.24-.11c-.45-.16-.8.08-1.23.24l-.55.2c-1.1.19-2.19.39-3.27.63a1.12,1.12,0,0,0-.48-.15c-.23,0-.34.21-.54.3-1.05.47-2.18,0-3.16.59a17.48,17.48,0,0,1-1.73.87l-.67.25c-.46.16-.9.35-1.34.55l-1.33.59-.53.16a5.32,5.32,0,0,0-1.52,1l-.35.22-.25.11a2.8,2.8,0,0,0-.69.23c-.12.08-.2.24-.31.34a1.77,1.77,0,0,0-.33.19c-.26.12-.43.09-.72.41a.47.47,0,0,1,0,.22l0,.05a2.34,2.34,0,0,1-.45.07,1,1,0,0,0-.06.22,1.15,1.15,0,0,0-.59.19.93.93,0,0,0-.35.53,2.12,2.12,0,0,0-.24.2,2.26,2.26,0,0,0-.38.67l-.07.07a1.35,1.35,0,0,1-.85.29l0,.19a1.14,1.14,0,0,0-.58,1.08l0,0-.22.16a.85.85,0,0,0-.68.59,3.51,3.51,0,0,0-.29.36c-.4.66-.88,1.28-1.27,2l-.11.19a2.35,2.35,0,0,0-.36.41,1.38,1.38,0,0,0-.12.29,3.26,3.26,0,0,0-.6,1.28v0l-.23.31s-.07,0-.11,0a2.17,2.17,0,0,1-.29.71s-.07,0-.09,0c0,.28-.14.35-.36.19,0,.1,0,.27,0,.37-.36,0-.64,1-.61,1.44a6.44,6.44,0,0,0-.47.8c-.25.49-.32.72,0,.86l-.3.67.27.1v0h.06l.47.19,0,0,.1,0a8.17,8.17,0,0,1,.37-1.06,2.59,2.59,0,0,0,.66-1.19c.06-.13.12-.26.18-.42.25-.51.5-1,.78-1.52a2.44,2.44,0,0,0,.43-.83.41.41,0,0,0,0-.11c.24-.49.52-1,.76-1.47l.19-.31.11-.05a2.19,2.19,0,0,0,1.07-1,13,13,0,0,1,1.42-1.76,7.4,7.4,0,0,0,1.32-1.79l.42-.74.86-.81.93-.73a.44.44,0,0,0,.32-.21c.22.23.55.1.88-.1a3.5,3.5,0,0,0,.81-.66c0-.05,0-.07-.05-.11.19-.13.48-.37.77-.56a1.89,1.89,0,0,1,.78-.31c.09-.18.23-.32.29-.48l.53-.28a3.2,3.2,0,0,0,.74.24c-.05-.46.48-.7.79-.83.14-.06.37-.11.58-.19a.12.12,0,0,1,0,.07,2.06,2.06,0,0,0,.54-.2.15.15,0,0,1,0,.06c.29,0,.47-.21.46-.47l.17-.06a2.53,2.53,0,0,0,.91,0,8.35,8.35,0,0,0,1-.5,2.14,2.14,0,0,0,.44-.25c.55-.18,1.12-.3,1.68-.44a8,8,0,0,0,1.86-.31,2.48,2.48,0,0,0,1.08-.33h0c1.66-.33,3.34-.6,5-.86Zm-28.08,17L161,222h0Zm-.77,1.29h0l0,0Z"/><path class="cls-2" d="M167.35,214l-.12-.25.1-.12c.15-.23-.07-.24-.21-.31l-.17-.09c-.16-.27-.32-.53-.5-.78.06-.08.15-.19.13-.23s-.17,0-.23,0c-.34-.14.06-.75-.32-.84a1,1,0,0,1-.54-.24l-.13-.15-.47-.61v-.19c0-.21-.25-.21-.38-.3l-.07-.09a.25.25,0,0,1,0-.09c0-.07.07-.22,0-.25s-.12,0-.17,0a.23.23,0,0,0,0-.1c0-.11.09-.21,0-.25a.94.94,0,0,1-.17.11h0a1.5,1.5,0,0,1,.11-.22l-.14,0c.14-.21.11-.36-.14-.28a.2.2,0,0,0,0-.08c-.05-.05-.19,0-.3,0l0,0c0-.11,0-.18.17-.42l-.11,0c.07-.16-.13-.24-.41-.07h0V208c.12-.22.09-.28,0-.28a.26.26,0,0,0-.07-.1,6.26,6.26,0,0,1-.49-.41s0,0,0,0,0-.13,0-.17a.12.12,0,0,0-.09,0,.35.35,0,0,0-.35-.2h0l0-.12.09-.08c-.08,0-.17,0-.19-.11s.07-.05.08-.06-.09-.06.12-.22c-.07,0-.13,0-.19,0,.19-.23-.13-.31-.32-.27a.77.77,0,0,0-.07-.27c-.07-.13-.13-.15-.37,0l-.12-.15-.23.18h0l0,0-.4.32h0l-.08.06c.09.08.21.1.26.19a.28.28,0,0,0,.13.38l.08.09a3.37,3.37,0,0,1,.3.36c.05.07,0,.2.16.2h.06a1.56,1.56,0,0,0,.38.28l.06.08,0,.06c-.17.31-.16.41,0,.52.32.26.3.85.92.85l.33,0,.41.5c0,.06,0,.11,0,.1-.46.4-.13.59.06.6l.09-.07c.09.09.37.23.27.41.12,0,.2,0,.31-.07l.1.12a4.17,4.17,0,0,0-.33.45c.38-.24.48-.12.53,0s0,.11,0,.17a.1.1,0,0,1-.06.05c0,.08.06.09.1.13l0,0c0,.1.1.09.32,0l0,0c-.05.13-.16.29-.11.37s.25.06.34.12a.29.29,0,0,0,.16,0l.28.38c-.05.25.09.33.19.48s.07.21.25.18h0a8.27,8.27,0,0,1,.65,1.14Zm-5.57-7.47-.07-.08,0,0Zm-.18-.37h0v0Z"/><path class="cls-2" d="M16.14,139.24A12.6,12.6,0,0,1,5.81,135a.37.37,0,0,0-.63.3c.53,4.37-.75,9.48-.16,13.61.36,2.52,3.31,5.77,6.23,6.6,1.86.52,5.31-.5,5.65-1.9,0,0-1.85-6.44-1.87-8.66A36.78,36.78,0,0,1,16.14,139.24Z"/><path class="cls-2" d="M15.89,139.44a.24.24,0,0,1-.08-.2h0l0,.08,0,.17-.09.33-.16.67a2,2,0,0,0-.17.3A4.87,4.87,0,0,0,15,142.6l-.09.85c-.06.41-.12.82-.15,1.25A7.53,7.53,0,0,0,14.8,146c.11.82.27,1.62.44,2.42a2.41,2.41,0,0,0,0,.66,5.64,5.64,0,0,0,.31.81c.45,1.35.46,2.64.83,3.91v-.28a1.74,1.74,0,0,1-.18.37A3.85,3.85,0,0,1,14,155.12a6.5,6.5,0,0,1-1,.18,4.4,4.4,0,0,1-2-.16,7.61,7.61,0,0,1-1.81-.89c-.2-.18-.4-.34-.58-.51A23.56,23.56,0,0,1,6.89,152a5.07,5.07,0,0,1-.35-.46c-.07-.11-.13-.22-.19-.33s-.25-.64-.37-.89-.22-.35-.31-.53l-.14-.48a7.78,7.78,0,0,0-.09-1.11c-.06,0-.1-.08-.15-.11V148a5,5,0,0,1,.11-.56l-.1-.26a3.1,3.1,0,0,0,0-1.66c0-.14,0-.29,0-.44A6.77,6.77,0,0,0,5.26,144v-.15a2.74,2.74,0,0,1,.35-1.12l-.06-.23a3.14,3.14,0,0,0,0-1.73v0l.06-.38a2.58,2.58,0,0,0,.17-1.27c0-.22,0-.44,0-.68,0-.56,0-1.13,0-1.71,0-.29,0-.58-.08-.87l0-.44c0-.2-.1-.15,0-.15s0,0,0,0,0,0,0,0a.07.07,0,0,1,0,0s0,.06,0,.08a2.68,2.68,0,0,0,.28.3,3,3,0,0,0,.35.3,6.91,6.91,0,0,0,1.68,1.26l0,0a5.2,5.2,0,0,0,.44.35s0,0,0,.08c.32.18.69.33,1,.55,0,0,0,0,0,.06.37.09.52.23.39.36.11,0,.36.09.49.1a4.21,4.21,0,0,0,2.27.68,7.77,7.77,0,0,0,1.37.3c.83.09,1.18.05,1.22-.14a2.44,2.44,0,0,0,.84-.15l.14-.12h0v0l.26-.22h-.08l.07,0a5.83,5.83,0,0,0-1.1,0c-.29,0-.53,0-.8,0-.61-.16-1.25-.25-1.93-.37l-.64-.17a11.1,11.1,0,0,1-2.28-.95c-.38-.22-.78-.54-1.16-.73l-.14-.06a20.49,20.49,0,0,1-1.89-1.51L6,134.82a.74.74,0,0,0-.21-.18.7.7,0,0,0-.89.24.75.75,0,0,0-.14.49v.23c0,.32,0,.65.06,1.13.14,2.16-.36,4.54-.2,6.71,0,.44.06.83.09,1.24a25.06,25.06,0,0,0,0,3.57,1.44,1.44,0,0,0,0,.58c-.21.06-.2.67,0,1.29a5.2,5.2,0,0,0,.83,1.47s0,0,.08,0c.37.64,1.48,1.75,1.77,2.16a6.24,6.24,0,0,0,.69.34,7.74,7.74,0,0,0,.73.55,2.73,2.73,0,0,0,.56.77c.36-.13,1.17.26,1.68.4a4.28,4.28,0,0,0,1,.21s0,0,0,.05a3.15,3.15,0,0,0,.92,0l0,0a1,1,0,0,0,.9-.32l.25-.06a3.71,3.71,0,0,0,1.36-.23,3.71,3.71,0,0,0,1.41-1.14,1.57,1.57,0,0,0,.27-.64l0-.09,0,0-.06-.14c-.23-.83-.46-1.66-.67-2.49a26.07,26.07,0,0,0-.57-2.73,9.48,9.48,0,0,0-.39-1.59v0a11.32,11.32,0,0,1-.18-1.81,14.24,14.24,0,0,1,.26-1.82q.18-.91.39-1.83l.22-.91.11-.46.06-.22,0-.12v0a.36.36,0,0,0,0-.28Zm-6.22-1.13c.19.1.38.2.57.28v0A6.36,6.36,0,0,1,9.67,138.31Zm2.06.88h0l.06,0Z"/><path class="cls-2" d="M19.49,143.56c5,7.56,19.92,3.12,25.82-1.12,0,0,4.31,10.92,5.07,17.65s-3.22,13.39-12.22,14.24-12.9-10.93-12.9-10.93l-6.18-19.69A.23.23,0,0,1,19.49,143.56Z"/><path class="cls-2" d="M19.75,143.39a.55.55,0,0,0-.63-.21.53.53,0,0,0-.35.58v0h0l.6,1.89c0,.19.05.39.09.62a19.25,19.25,0,0,0,1.06,3.31c.19.5.37,1,.55,1.5l2.75,8.79a9.8,9.8,0,0,0,.21,1.2c.17.58.4.95.6,1.51a36.38,36.38,0,0,0,1.67,4.2,14,14,0,0,0,2.44,3.7,14.76,14.76,0,0,0,4.33,3.21,9.41,9.41,0,0,0,1.91.68,10.2,10.2,0,0,0,4.08.11,16.31,16.31,0,0,0,3.92-1c.48-.21,1-.37,1.42-.61a10.59,10.59,0,0,0,3.78-3.29l.66-1c.14-.21.26-.43.4-.64a9.67,9.67,0,0,0,.92-1.75c.12-.41.2-.83.29-1.24s.16-.7.23-1a7.42,7.42,0,0,0,.26-2.29c-.06,0-.09-.17-.13-.26a1.48,1.48,0,0,0,0-.21c0-.36,0-.76.07-1.11,0-.18-.1-.34-.15-.5a8.37,8.37,0,0,0-.53-3.18c-.05-.27-.1-.55-.18-.84a17.2,17.2,0,0,0-.65-1.92l-.08-.27a10.67,10.67,0,0,1-.35-2.17l-.19-.38a9.71,9.71,0,0,0-1.17-3l0-.07-.2-.7a8.89,8.89,0,0,0-.71-2.31c-.13-.38-.27-.78-.43-1.2s-.32-.81-.5-1.24l-.21-.54-.47.34a24.48,24.48,0,0,1-4.36,2.48l-.55.23-1.39.48-.78.31c-1.25.42-2.52.77-3.67,1.13h-.07l-1,.16s0,0-.05-.07a13.42,13.42,0,0,1-2.06.34c-.09,0,0-.06,0-.07-.66.14-1,.11-.91-.07-.18.06-.64.1-.85.15A12.52,12.52,0,0,0,27.4,147c-.85-.05-1.76-.14-2.25-.21a12.29,12.29,0,0,1-2.25-.9c-.32-.16-.57-.34-.79-.46l-.53-.36c-.29-.17-.43-.26-.53-.21a7.75,7.75,0,0,1-1.28-1.46l-.16.11,0,0v.05l-.29.19.08.11h-.07a8.83,8.83,0,0,0,2.38,2.25,8.18,8.18,0,0,0,3.58,1.54c.4.1.83.15,1.31.22a21.79,21.79,0,0,0,4.91,0,15.54,15.54,0,0,0,2.66-.43l.27-.09a28.87,28.87,0,0,0,4.5-1.39c.32-.12.65-.23,1-.36l.3-.07A12.54,12.54,0,0,0,44,143.93c.55-.32,1.09-.69,1.65-1.07l-.79-.23c1.29,3.37,2.38,7,3.57,10.25.28.76.53,1.46.76,2.18.27,1.08.52,2.16.7,3.25a19.25,19.25,0,0,1,.36,3.28,6,6,0,0,0-.05,1c-.22.08-.35,1-.62,2.07a19.23,19.23,0,0,1-.92,2.7c0,.05,0,0,.05.06a10.55,10.55,0,0,1-1.44,2.18,6.69,6.69,0,0,1-1,1,3.31,3.31,0,0,1-.77.57l-.49.49c-.17.15-.36.28-.5.41s-.47.29-.71.42l-.75.34c-.53.13-.95.06-1.58.21-.3.44-1.9.81-2.82.89A8,8,0,0,1,37,174s-.07,0-.06-.05a13.69,13.69,0,0,1-1.55-.2h.09a5,5,0,0,0-1.61-.3,4,4,0,0,1-.43-.19,19,19,0,0,1-1.9-1.41,16.36,16.36,0,0,1-2.25-2c-.39-.43-.64-.73-.88-1a23.13,23.13,0,0,1-2.37-4.2l-.42-1.22c-.12-.41-.24-.82-.37-1.22-.25-.82-.52-1.65-.81-2.56a26.32,26.32,0,0,0-1-3l0,0-4.07-13v0s0,.05,0,0Zm10.74,3.88c-.39,0-.77,0-1.16.06l0,0C29.69,147.3,30.09,147.31,30.49,147.27Zm-4-.16h0l-.1,0Z"/><path class="cls-2" d="M98.39,241.11c-.42-.26-.29-1.27,0-.89,2.77,3.36,11.41-1.37,16-6.56l12.1,7.37s-.15,13.25-13.25,10l-8.2-4.54Z"/><path class="cls-2" d="M98.21,241.37l1.35,1.08c.07.1.16.21.26.33a8.38,8.38,0,0,0,1.83,1.44l.88.61,2.39,1.92,0,0h0l2.72,1.51a3.68,3.68,0,0,0,.63.53,10.92,10.92,0,0,0,1,.43,38,38,0,0,1,3.73,2.27l0,0,.08,0a9,9,0,0,0,1.56.29,18.48,18.48,0,0,0,3.64-.05,9,9,0,0,0,1.34-.25A10.18,10.18,0,0,0,125,247.8a8.72,8.72,0,0,0,1.3-3.1c.07-.25.14-.5.2-.75l.14-.49a7.16,7.16,0,0,0,.33-1.27,8,8,0,0,0,0-.85l0-.31,0-.21-.21-.13-.34-.22a6.68,6.68,0,0,0-1.24-.85s-.15,0-.22,0l-.12-.07c-.17-.16-.37-.33-.53-.5L124,239a4.61,4.61,0,0,0-1.81-1.15,5.66,5.66,0,0,0-.48-.31,9.44,9.44,0,0,0-1.23-.57l-.16-.1a4.34,4.34,0,0,1-1.11-1l-.28-.09a4.88,4.88,0,0,0-2-1l0,0-.4-.29a4.19,4.19,0,0,0-1.33-.92l-.48-.31-.32-.21-.27.3-.19.21a26,26,0,0,1-3.07,2.94,3.92,3.92,0,0,1-.32.25c-.27.17-.55.34-.82.54s-.31.24-.44.35c-.73.49-1.47,1-2.13,1.44l0,0-.62.28s0,0-.06,0a7.22,7.22,0,0,1-1.24.64s0-.06,0-.07c-.38.26-.62.28-.61.09-.1.09-.38.22-.49.31a4.46,4.46,0,0,0-1.25.26c-.54.15-1.12.27-1.44.34a4.58,4.58,0,0,1-1.49-.27c-.78-.34-.95-.66-1.16-.54l0-.06-.11-.1a.34.34,0,0,0-.25-.1A.39.39,0,0,0,98,240a.76.76,0,0,0-.18.54,1.07,1.07,0,0,0,.37.85l.12-.15,0,0v0l.21-.27,0,0,.06-.05a.46.46,0,0,1-.12-.3.37.37,0,0,1,0-.16s0,0-.06,0a.25.25,0,0,1-.13,0s0,0-.06,0l.35.34a4.71,4.71,0,0,0,.45.33,3.59,3.59,0,0,0,2.63.63c.28,0,.58-.06.9-.11a15,15,0,0,0,3.16-1,9.49,9.49,0,0,0,1.63-.8l.15-.13a20.78,20.78,0,0,0,2.63-1.76l.56-.4.18-.09a7.13,7.13,0,0,0,2.26-1.58c.59-.57,1.19-1.15,1.78-1.78l-.68.1a47.38,47.38,0,0,0,5.31,3.09l1.41.67,3.84,2.33a2.15,2.15,0,0,0,.61.4c0,.18.37.53.91.89L126,241c-.05.73-.15,1.7-.19,2.13,0,0,.05,0,.07,0a14.24,14.24,0,0,1-.41,1.72,5.13,5.13,0,0,1-.64,1.41c0,.3-.19.62-.24.88s-.39.61-.61.91-.59.29-.93.54c0,.42-.78,1.13-1.32,1.42a8,8,0,0,1-1,.47s-.06,0-.06,0c-.35.1-.64.24-1,.33l0-.05c-.5.12-.9.21-1,.41a1.55,1.55,0,0,1-.31,0c-.28,0-.53,0-.78-.06a5,5,0,0,0-.82-.08c-.64,0-1.36,0-2-.08-.39,0-.65-.09-.9-.1l-.48-.1.06,0L111,249.48a33.39,33.39,0,0,0-3.07-1.78,12.75,12.75,0,0,0-1.87-1h0l-.81-.44,0,0-6.74-5.4Zm6.63-1.18-.72.27h0Zm-2.6.68h0Z"/><path class="cls-2" d="M283.42,176.06a.65.65,0,0,1-.06-.41c0-.08.07,0,.1,0l-.07,0-.17-.07-.38-.2-.76-.43-1.54-.89a8.58,8.58,0,0,0-.67-.56,11.3,11.3,0,0,0-2-1.27,10.26,10.26,0,0,0-1.18-.49c-.43-.14-.82-.22-1.26-.33-.74-.18-1.48-.32-2.22-.44a24.65,24.65,0,0,0-6.47-.4,37,37,0,0,0-6.38,1,9.56,9.56,0,0,0-1.7.2,17.32,17.32,0,0,0-2.12.84c-2,.78-4,1.43-5.86,2.11S247,176,245.1,176.79a21.24,21.24,0,0,1-3.34,1.08,10.67,10.67,0,0,1-3.5.27,10.16,10.16,0,0,1-2.53-.56,16.53,16.53,0,0,1-8.09-6.7,19.2,19.2,0,0,1-.9-1.82c-1-2.15-2-4.09-2.79-6.06l-.47-1.47a8.12,8.12,0,0,1-.25-1c-.12-.7-.32-1.81-.45-2.57-.11-.54-.32-1.07-.45-1.6s-.1-.95-.17-1.39,0-.89,0-1.33A15.2,15.2,0,0,0,222,152c-.09,0-.15-.23-.22-.34l0-.28c.06-.48.09-1,.18-1.46q-.06-.36-.12-.69c.12-.57.21-1.32.29-2.09a15.4,15.4,0,0,0,0-2.23l.18-1.14c.14-1,.15-1.85.26-2.74l.08-.37a8.86,8.86,0,0,1,1.13-2.75l.07-.59a21.68,21.68,0,0,0,.8-2.21,8.21,8.21,0,0,0,.47-2l.05-.09.44-.89a15,15,0,0,0,1.61-2.87l.87-1.5a40.26,40.26,0,0,1,5.11-7.1c.17-.2.37-.4.56-.59l1.51-1.34c.32-.27.58-.54.83-.77a31.14,31.14,0,0,1,4.41-2.75l.08,0c.44-.17.9-.29,1.34-.44.06,0,0,.08.09.09.41-.19.86-.32,1.32-.48a8.33,8.33,0,0,1,1.41-.36c.12,0,0,.09,0,.1.88-.34,1.38-.32,1.26,0,.24-.11.86-.25,1.14-.36a4.68,4.68,0,0,0,1,0l1.64-.15c.6-.06,1.21-.12,1.77-.15l1.39-.12c1.15.08,2.29.2,3.43.36s1.72.26,2.2.31.74,0,.82-.12l1.34.31,1.32.39.09-.28,0,0,0-.06.15-.49-.18,0,.07-.09a38,38,0,0,0-4.36-.92,19.67,19.67,0,0,0-5.3-.59l-1.82,0a35.62,35.62,0,0,0-6.72.92c-.58.11-1.21.3-1.83.46a13.12,13.12,0,0,0-1.74.66,2.3,2.3,0,0,0-.35.2,18,18,0,0,0-5.51,3.58c-.36.31-.7.64-1.05,1l-.33.25a15.41,15.41,0,0,0-3.93,4.08,53.58,53.58,0,0,0-4.71,7.76,31.52,31.52,0,0,0-2.79,8.47c-.11.56-.18,1.1-.25,1.63s-.14,1-.18,1.58a41.31,41.31,0,0,0-.55,9.29,5.5,5.5,0,0,0,.09,1.5c-.15.08-.22.47-.23,1a18.24,18.24,0,0,0,.18,2.09c.13.78.32,1.59.49,2.32s.41,1.34.55,1.75c.06.06.07,0,.12,0,.11.46.32,1,.53,1.64s.43,1.31.7,1.95.49,1.28.71,1.82a12.64,12.64,0,0,1,.49,1.3c.35.53.74,1.17,1.09,1.59.37.69.69,1.38,1.11,2.06a8.93,8.93,0,0,0,.86,2.18,5.59,5.59,0,0,1,1.55,1.18c.62.55,1.29,1.18,1.82,1.59a18.37,18.37,0,0,0,2,1.45s.07.09,0,.11a10.07,10.07,0,0,0,2.12,1h-.14a3.43,3.43,0,0,0,2.42.39,5.58,5.58,0,0,0,.68.1,9.58,9.58,0,0,0,3.53.21,20.63,20.63,0,0,0,4.2-1.3c.78-.3,1.28-.54,1.75-.77,2.11-.84,4.15-1.8,6.25-2.61,2.38-.72,4.37-1.48,6.94-2.11,1.27-.31,3-.56,4.19-.87h.05a24.56,24.56,0,0,1,9.62.58,12.16,12.16,0,0,1,2.25.77c.72.36,1.43.77,2.13,1.17l2.13,1.24,1.07.62.55.3.3.14.16.07.05,0,.12,0a.64.64,0,0,0,.24,0Zm-37.85-62.41,1.58-.27,0,0Zm5.6-.51h0Z"/><path class="cls-2" d="M252,131.41c3.28-.5,5.9-1.44,8.56.2,3,1.85,4.54,5.53,5.25,8.88,1.91,9.12-3,18-9.16,24.43-1.74,1.84-8.55,7.76-11.15,5.65,2.52-3.26,8.1-13.12,9.38-20.2,1.12-6.15,0-15.66-2.84-18.71"/><path class="cls-2" d="M251.85,131.88a7.82,7.82,0,0,1,1.22,2,5.07,5.07,0,0,1,.14.56c.26,1,.62,2,.95,3.08.12.48.26,1,.36,1.46a37,37,0,0,1,.42,8.61c-.07.37-.21.69-.26,1.11s0,1-.09,1.51c-.43,2.92-1.73,5.16-2.65,7.78a38.18,38.18,0,0,1-1.93,4.56c-.27.55-.56,1.1-.85,1.64a53.35,53.35,0,0,1-3.87,6.21l-.19.26.24.18.17.11a2.58,2.58,0,0,0,1.55.48,5.73,5.73,0,0,0,2.44-.66,18.82,18.82,0,0,0,2-1.18c.31-.19.61-.4.91-.6l.59-.39a14.52,14.52,0,0,0,1.52-1c.3-.25.57-.56.85-.82s.51-.43.74-.65a7.9,7.9,0,0,0,1.56-1.48c0-.06.05-.19.07-.28l.13-.14.78-.68.25-.43a6.59,6.59,0,0,0,1.05-1.06,6,6,0,0,0,.86-1.32c.17-.2.33-.42.49-.65a15.54,15.54,0,0,0,.93-1.7l.14-.23a11.83,11.83,0,0,1,1.26-1.68c0-.14.09-.27.13-.39a7.4,7.4,0,0,0,1.12-2.92l0-.07c.09-.22.19-.42.28-.63a6.36,6.36,0,0,0,.78-2.18c.11-.38.21-.77.3-1.19a21.94,21.94,0,0,0,.32-6.19c0-.19,0-.39-.05-.58,0-.47-.09-.94-.16-1.43a4.83,4.83,0,0,0-.19-.79,13.09,13.09,0,0,0-1.23-3.52l0-.06c-.12-.31-.25-.62-.39-.92,0,0,.05,0,.05-.07-.33-.56-.72-1.15-1.13-1.73-.05-.07.05,0,.05,0-.47-.48-.67-.78-.45-.8-.17-.11-.5-.45-.7-.55a4.39,4.39,0,0,0-1.52-1.29,5.77,5.77,0,0,0-2.29-.71,8.3,8.3,0,0,0-2.53-.12c-1.47.16-2,.32-2.08.52-.64.12-1.26.23-1.89.33l0,.19h0l0,0,.05.34.12,0a.22.22,0,0,1,0,.08c1.12-.19,2-.44,3-.57a14.43,14.43,0,0,1,3.47.07,5,5,0,0,1,1.09.37,8.23,8.23,0,0,1,3.26,2.86c.45.65.83,1.47,1.2,2.13l.14.22a21.21,21.21,0,0,1,1.31,4.14l.16.94v.28c-.05.65-.08,1.16-.07,1.72s0,1.17-.06,2a20.43,20.43,0,0,1-1.25,5.83,54.81,54.81,0,0,1-2.36,5.43c-.32.7-.66,1.31-1,1.93a43.33,43.33,0,0,1-3.89,5,5,5,0,0,0-.71.74c-.2-.07-.9.52-1.7,1.2l-2.12,1.82c0,.05,0,0,0,.09a24.6,24.6,0,0,1-2.08,1.44,7.37,7.37,0,0,1-2,.91,6.5,6.5,0,0,1-1.13.51,2.5,2.5,0,0,1-1.42-.14,1.28,1.28,0,0,1-.27-.31l.06.52a4.37,4.37,0,0,0,.81-.73,10,10,0,0,1,1.33-2.59c.22-.35.56-.88.88-1.4,0,0,.06,0,.07,0a13.74,13.74,0,0,0,.76-1.35.39.39,0,0,1,0,.09,3,3,0,0,0,.59-1.51l.21-.41a16.43,16.43,0,0,0,1.22-2c.41-.86.74-1.84,1.09-2.75.21-.53.31-.89.42-1.23a39.52,39.52,0,0,0,1.48-4.42,17.79,17.79,0,0,0,.9-5,14.13,14.13,0,0,0,0-3v0a37.05,37.05,0,0,0-.72-6.73,21.74,21.74,0,0,0-.92-3.27,9.36,9.36,0,0,0-1.69-3ZM263,133.33a7.78,7.78,0,0,0-.78-.85v0A7.39,7.39,0,0,1,263,133.33Zm-3.16-2.53h0l-.1-.05Z"/><path class="cls-2" d="M279.8,180.86l.1-.24h.15c.26,0,.14-.2.09-.34l-.06-.18a5.26,5.26,0,0,0,.17-.88c.1,0,.23,0,.26-.09s-.13-.11-.16-.17c-.19-.31.52-.56.25-.86a1.18,1.18,0,0,1-.33-.49l0-.18c0-.25-.08-.5-.13-.74l.08-.17c.08-.19-.15-.29-.23-.42l0-.1a.13.13,0,0,1,0-.08c0-.06.14-.18.11-.23s-.11-.05-.15-.07a.2.2,0,0,0,0-.11c0-.09.15-.16,0-.24l-.2.05h0a1.41,1.41,0,0,1,.17-.18h-.14c.19-.16.2-.32-.06-.31a.11.11,0,0,0,0-.08c0-.06-.18-.06-.29-.08v0c0-.1,0-.17.26-.36h-.12c.1-.14-.08-.26-.39-.14h0v-.08c.17-.19.13-.26,0-.28a.16.16,0,0,0-.05-.11l-.45-.45,0,0c0-.07,0-.13,0-.17a.15.15,0,0,0-.1,0,.32.32,0,0,0-.35-.2h0l0-.12.08-.08c-.07,0-.17,0-.19-.1s.07-.06.08-.08-.1,0,.09-.22c-.06,0-.12,0-.18.06.17-.25-.18-.3-.37-.24a.53.53,0,0,0-.12-.25c-.11-.12-.18-.13-.36.11l-.16-.12-.16.23h0l0,0-.29.42h0l-.07.09c.09,0,.2,0,.26.09a.23.23,0,0,0,.15.3l.08.07c.09.09.22.15.29.27s0,.18.14.17l.05,0a1.69,1.69,0,0,0,.34.23l0,.07,0,.06c-.2.29-.2.37-.08.47s.1.74.67.82l.3.07c.08.18.17.35.23.53s-.06.09,0,.1c-.57.23-.33.45-.17.51l.11,0c.05.1.24.3.08.42.12,0,.19,0,.31,0l0,.14a4,4,0,0,0-.5.24c.44,0,.48.08.48.16s0,.1,0,.16h-.07c0,.06,0,.09,0,.14h-.05c-.05.07.05.11.3.1v0c-.12.09-.29.16-.3.23s.17.16.22.25a.29.29,0,0,0,.11.11,2.84,2.84,0,0,1,0,.41c-.19.14-.12.27-.15.43s-.09.17.07.27h0a4.69,4.69,0,0,1-.34,1.12Zm-1.87-8.36-.09-.08,0,0Zm-.23-.35Z"/><path class="cls-2" d="M269.87,98.74l-.71,0-.17-.15c-.32-.24-.63-.06-1,0l-.45.11a24.32,24.32,0,0,0-2.55.2c-.12-.08-.24-.2-.37-.2s-.26.17-.42.23A2.66,2.66,0,0,1,263,99a1.87,1.87,0,0,0-1.21.17,6.26,6.26,0,0,1-1.34.68l-.51.19-1.05.38c-.34.13-.67.29-1,.44l-.43.07c-.51.08-.81.48-1.17.72l-.27.15-.21.05c-.15,0-.43,0-.55.11s-.15.21-.23.29a2.1,2.1,0,0,0-.26.13c-.22,0-.37,0-.59.23a.91.91,0,0,1,0,.21l0,0-.38,0a1.29,1.29,0,0,0,0,.19.64.64,0,0,0-.76.48.9.9,0,0,0-.5.65l-.06,0a.78.78,0,0,1-.71.1l0,.16a.71.71,0,0,0-.5.81h0l-.18.1a.57.57,0,0,0-.58.37,1.52,1.52,0,0,0-.26.25c-.39.43-.74.93-1.12,1.41l-.1.13a1.27,1.27,0,0,0-.34.27.37.37,0,0,0-.1.21,2.17,2.17,0,0,0-.53,1h0l-.22.2-.1-.06a2,2,0,0,1-.28.52s-.07-.05-.09-.05c0,.23-.12.26-.32.09,0,.09,0,.22,0,.31-.33,0-.58.73-.58,1.06a3.79,3.79,0,0,0-.43.56c-.23.37-.29.53,0,.69l-.26.5.26.12h0l.46.23,0,0,.09,0a5.87,5.87,0,0,1,.33-.79,1.58,1.58,0,0,0,.6-.83l.18-.29c.23-.36.44-.74.69-1.09.13-.19.37-.34.41-.58a.25.25,0,0,0,0-.09c.24-.33.44-.7.66-1.07l.17-.2.1,0a1.16,1.16,0,0,0,1-.59,10.57,10.57,0,0,1,1.23-1.18,4.16,4.16,0,0,0,1.11-1.29,4,4,0,0,1,.32-.58c.48-.35.94-.74,1.45-1.06.11,0,.21,0,.26-.13.39.49,1.12-.19,1.35-.45,0,0,0-.06-.05-.1.3-.19.92-.66,1.22-.61.05-.16.16-.27.2-.41l.41-.19c.21.1.4.3.6.32a.67.67,0,0,1,.58-.72c.1,0,.29,0,.45-.1a.18.18,0,0,1,.05.07,1.27,1.27,0,0,0,.41-.15s0,0,0,.06a.34.34,0,0,0,.33-.42l.13,0c.25,0,.47.18.71.12a5.56,5.56,0,0,0,.75-.41,1,1,0,0,0,.32-.21l1.29-.25a4.86,4.86,0,0,0,1.42-.1c.26,0,.61,0,.83-.2h0l1.92-.1,1.91,0Zm-22.52,11.15-.18.28h0Zm-.7.92h0l0,0Z"/><path class="cls-2" d="M262.24,249.24l-.89-.15a1.62,1.62,0,0,0-.19-.18c-.36-.3-.76-.19-1.2-.18h-.57l-3.17-.64c-.12-.12-.21-.28-.37-.33s-.38.06-.59.06c-1.12,0-1.89-.92-3-.9a8.92,8.92,0,0,1-1.86-.14l-.68-.14L247,246l-.49-.23a6,6,0,0,0-1.69-.3l-.39-.09-.24-.11a2.59,2.59,0,0,0-.61-.34,3.23,3.23,0,0,0-.44,0,2.67,2.67,0,0,0-.34-.11c-.25-.14-.33-.29-.74-.31a.59.59,0,0,1-.13.17h-.07c-.11-.1-.22-.19-.32-.3l-.2.08a1,1,0,0,0-1.07-.34A1.23,1.23,0,0,0,240,244a2.27,2.27,0,0,0-.74,0l-.1,0a1.08,1.08,0,0,1-.64-.57l-.17.07a1,1,0,0,0-1.18,0h0l-.23-.12a.84.84,0,0,0-.79-.35,2.43,2.43,0,0,0-.43-.12c-.72-.14-1.46-.28-2.22-.45l-.21-.05a2.06,2.06,0,0,0-.48-.21,1.06,1.06,0,0,0-.3,0,3.57,3.57,0,0,0-1.36-.2h0l-.34-.15s0-.08,0-.12a2.11,2.11,0,0,1-.74-.11s0-.08,0-.1c-.27.06-.37-.05-.26-.29-.08,0-.25,0-.34.09-.12-.33-1.11-.38-1.5-.29a7.21,7.21,0,0,0-.84-.32c-.52-.16-.75-.17-.84.12l-.7-.16-.06.28h0V241l-.11.49,0,0,0,.1a8.54,8.54,0,0,1,1.1.16,2.61,2.61,0,0,0,1.26.44l.44.11c.55.13,1.11.24,1.65.4a2.66,2.66,0,0,0,.9.23l.11,0c.53.12,1.07.22,1.62.29l.35.09.08.09a1.83,1.83,0,0,0,1.29.68c1.44.29,2.91,1.06,4.41.95l.85,0,2.29.57a.43.43,0,0,0,.36.13c-.09.6,1.24.78,1.69.75,0,0,0-.07,0-.1a5.26,5.26,0,0,1,1.74.46c.18-.07.38-.08.53-.16l.58.14c.14.21.21.49.42.65.25-.4.82-.27,1.14-.18.14,0,.36.13.58.2a.11.11,0,0,1,0,.08,1.83,1.83,0,0,0,.56.13l0,0a.46.46,0,0,0,.64-.14l.17,0a2.57,2.57,0,0,0,.76.5,8.17,8.17,0,0,0,1.11,0,2.07,2.07,0,0,0,.5,0l1.68.37a5.93,5.93,0,0,0,1.8.5,2.29,2.29,0,0,0,1.1.12h0c1.63.34,3.28.64,4.93.93Zm-32.42-7.56-.4-.1v0Zm-1.38-.45h0l0,0Z"/><path class="cls-2" d="M296.28,185.5H296l-.06-.14c-.1-.24-.2,0-.34,0l-.17.08a7.42,7.42,0,0,1-.92-.17c0-.1,0-.24-.06-.26s-.13.1-.2.12c-.38.09-.41-.64-.76-.52a1,1,0,0,1-.61.06l-.19-.08a7.33,7.33,0,0,1-.73-.39l-.08-.17c-.09-.19-.32-.12-.48-.18l-.1-.06s0-.05,0-.08,0-.23-.06-.26-.12,0-.17,0a.35.35,0,0,0-.06-.09c0-.11,0-.22-.1-.23l-.15.14h0c0-.08,0-.15.06-.24l-.13.07c.09-.24.05-.38-.19-.26a.11.11,0,0,0-.05-.08c-.06,0-.2,0-.31,0l0,0c0-.11,0-.18.13-.42l-.11,0c.06-.16-.13-.23-.41-.06h0v-.08c.12-.22.08-.27,0-.28a.24.24,0,0,0-.06-.11,2.63,2.63,0,0,1-.43-.45l0,0c0-.06,0-.12,0-.16s0,0-.08-.05a.4.4,0,0,0-.27-.28h0l0-.11.11,0c-.06-.05-.14-.09-.13-.16l.1,0c-.14,0-.06-.08.19-.13a1.16,1.16,0,0,1-.18,0c.29-.1.06-.27-.12-.35,0-.08.1-.15.11-.22s0-.17-.29-.21v-.18l-.29-.05h0l-.51-.08h0l-.11,0c0,.16.09.28.06.4a.36.36,0,0,0-.13.47l0,.16c0,.2.07.4.12.59s0,.24.1.31h.05a1.06,1.06,0,0,0,.33.46l0,.11,0,.06c-.22.3-.22.43-.05.59.33.38.41,1.07,1.09,1.09h.36a5.37,5.37,0,0,0,.57.5c0,.07,0,.12.08.1-.37.49.07.66.28.62l.06-.09c.14.07.48.14.47.36a2.61,2.61,0,0,0,.28-.17l.16.1a2.58,2.58,0,0,0-.1.55c.26-.36.42-.27.51-.22s.09.1.15.14l0,.08c0,.07.1.06.17.08l0,0c.06.09.17,0,.3-.17l.05,0c0,.15,0,.35.12.4s.29-.06.41,0a.35.35,0,0,0,.18-.05c.17.07.35.12.52.18.14.23.33.23.54.28s.24.12.37,0h0a7.24,7.24,0,0,0,1.62.16Zm-7.6-5a.23.23,0,0,1,0-.11h0A.25.25,0,0,0,288.68,180.53Zm0-.4Z"/><path class="cls-2" d="M296.84,184.36a10.9,10.9,0,0,0-3.31,1.18,6.48,6.48,0,0,0-.8.28,12.33,12.33,0,0,0-3.71,2.79c-.51.5-1,1-1.5,1.51-1.47,1.39-2.85,2.86-4.21,4.34s-2.71,3-4.05,4.47a11.13,11.13,0,0,0-1.22,1c-.54.6-.78,1.12-1.26,1.73-2.48,3.26-5.23,5.62-7.19,9.06-1.18,2.07-2.15,3.93-3.22,6.14l-1.1,2.32a77.14,77.14,0,0,0-4.18,9.57c-.24.63-.47,1.26-.66,1.88a14.57,14.57,0,0,0-.64,3.3c-.1,1.09-.11,2.09-.16,3.12,0,.5-.06,1-.07,1.5l-.06,1a14.64,14.64,0,0,0,0,2.57,15,15,0,0,0,.37,1.61,12.15,12.15,0,0,0,.29,1.36,10.81,10.81,0,0,0,.88,2.82c.1,0,.2.15.3.23s.06.16.08.23a1.65,1.65,0,0,1-.11,1.06,1,1,0,0,1-.06.41c-.59.47-2.23,1-3.32,1.63l-1,.27c-1,.26-1.69.54-2.5.82l-.36.08a18.53,18.53,0,0,1-2.91.37l-.51.29a10.66,10.66,0,0,0-3.87,1.86l-.1,0-.89.34a9.49,9.49,0,0,0-2.93,1.22c-.48.23-1,.47-1.5.76-2.42,1.31-4.83,2.78-7.26,4.39l-.66.44a11.29,11.29,0,0,0-1.63,1.18,10,10,0,0,0-.8.77c-1.33,1.13-2.61,2.28-3.75,3.37l-.06,0c-.37.26-.73.51-1.11.74,0,0,0-.07-.1-.06a5.53,5.53,0,0,1-2.19,1.18c-.08,0,0-.09,0-.1-.31.11-.42.06-.55-.07a.15.15,0,0,1,0-.27,5.29,5.29,0,0,1-.9-.51,13,13,0,0,0-1.66-1.86c-.79-.82-1.65-1.69-2.13-2.14L216.53,262c-1.15-1.58-1.62-2.23-1.93-2.15-.24-.35-.48-.71-.71-1.08a7.22,7.22,0,0,1-.55-1.06l-.28.09v0l0,.06-.49.14.07.19h-.12a11.42,11.42,0,0,0,1.18,1.92l1.18,1.64a25,25,0,0,0,3,4l1.11,1.29c.7.79,1.43,1.56,2.21,2.31l.61.54c.22.18.44.35.69.52l.45.23a1.62,1.62,0,0,0,.54.11,2.89,2.89,0,0,0,1-.15,9.16,9.16,0,0,0,3.12-1.85l.27-.27c1.61-1.28,3.08-2.69,4.58-4.06.33-.29.67-.57,1-.84l.34-.18a29.36,29.36,0,0,0,4.59-2.48,70.28,70.28,0,0,1,7.44-3.82c1.29-.58,2.58-1.13,3.85-1.67l1.88-.78c.6-.24,1.22-.46,1.84-.67,1-.34,1.94-.62,2.89-.92a20,20,0,0,0,4.24-1.38,6,6,0,0,0,1-.61,3.55,3.55,0,0,0,.46-.41,2.24,2.24,0,0,0,.35-.55,2.17,2.17,0,0,0,.17-1.27,16.09,16.09,0,0,0-.77-2.46c.23-.24-.12-1.41-.36-2.78s-.43-2.93-.51-3.71c0-.07-.07,0-.11-.05a27.6,27.6,0,0,1,.5-6.51c0-.58.06-1.27.05-1.77.17-.7.36-1.39.58-2.08a20.66,20.66,0,0,0,1.17-1.76c-.23-.68.59-2.67,1.12-3.77.23-.5.64-1.26,1-2,.05,0,.09-.06.11,0,.36-.63.62-1.25.93-1.91a.78.78,0,0,1,0,.13,4,4,0,0,0,.71-2.12l.27-.56c.59-.94,1.14-1.58,1.75-2.65s1.23-2.38,2-3.51c.4-.66.66-1.1.9-1.52q1.83-2.59,3.84-5.07c1.62-1.71,2.88-3.29,4.55-5.17a35,35,0,0,0,2.65-3.1l0,0a87.7,87.7,0,0,1,6.46-6.61,27.87,27.87,0,0,1,3.63-2.8,11.7,11.7,0,0,1,4.12-1.72Zm-73.65,85.27-.25-.13a2.92,2.92,0,0,1-.28-.21,6.06,6.06,0,0,1-.56-.47v-.05a6.33,6.33,0,0,0,.56.49l.28.23ZM219.55,266h0l-.09-.11Z"/><path class="cls-2" d="M296.62,183.83l-.47,1.18a1.7,1.7,0,0,0-.24.23,3.09,3.09,0,0,0-.53,1.62c-.05.26-.1.52-.14.77l-1.37,4.25c-.14.16-.33.28-.41.48a3.5,3.5,0,0,0-.08.8c-.32,1.49-1.39,2.46-1.74,3.82a8.82,8.82,0,0,1-.36,1.2,6.36,6.36,0,0,1-.5,1.15c-.15.27-.29.55-.46.81a17.87,17.87,0,0,1-2.32,2.94c-.19.15-.4.27-.59.4a14,14,0,0,0-1.73,1.6l-.42.36a2,2,0,0,1-.3.2,4.56,4.56,0,0,0-.82.49,5.72,5.72,0,0,0-.37.49c-.14.11-.27.21-.39.32a2.24,2.24,0,0,0-.87.67c.05.07,0,.16.05.23l-.07.08a4.87,4.87,0,0,1-.53.21,2.76,2.76,0,0,0-.08.27,1.73,1.73,0,0,0-1.14,1.07,2.72,2.72,0,0,0-.3.29,3.73,3.73,0,0,0-.5.88l-.09.1a1.84,1.84,0,0,1-1,.53l0,.22c-.38.2-.92,1-.83,1.38l0,0-.27.23a1.55,1.55,0,0,0-.87.81,4.7,4.7,0,0,0-.4.47l-1.87,2.52-.18.24a3.21,3.21,0,0,0-.51.53,1.62,1.62,0,0,0-.2.36,5.35,5.35,0,0,0-1,1.65l0,0c-.11.13-.23.26-.33.39s-.06,0-.11,0a5.5,5.5,0,0,1-.47.94s-.08-.05-.09-.05c-.06.36-.23.48-.43.3,0,.12,0,.35,0,.48-.4.1-.79,1.5-.77,2.05a6,6,0,0,0-.44,1.25c-.18.79-.11,1.15.18,1.19a7.38,7.38,0,0,0,0,1.05l.28,0v0l.05,0,.51-.07v-.06h.11c0-.26-.08-.5-.1-.73a4.15,4.15,0,0,1,0-.7,9.22,9.22,0,0,0,.54-1.66,5.47,5.47,0,0,1,.2-.56,12.78,12.78,0,0,1,1-2,5.93,5.93,0,0,0,.66-1.07l0-.14c.39-.63.79-1.26,1.19-1.89l.29-.39.14-.08a3.32,3.32,0,0,0,1.48-1.31c1.2-1.63,2.9-3.07,3.86-4.82.19-.35.38-.67.57-1q1.1-1.19,2.25-2.31a.83.83,0,0,0,.4-.34c.49.37,1.7-1,2.06-1.44,0,0-.05-.06-.06-.1a8.24,8.24,0,0,1,1.9-1.54,7,7,0,0,0,.33-.68l.62-.55a2.68,2.68,0,0,0,.94-.22.89.89,0,0,1,.16-.75,4.07,4.07,0,0,1,.49-.7c.13-.17.38-.39.56-.66a.11.11,0,0,1,.08,0,3.09,3.09,0,0,0,.45-.68.14.14,0,0,1,0,.07c.28-.31.35-.64.19-.87l.12-.2a3.56,3.56,0,0,0,.85-.92,9,9,0,0,0,.48-1.47,3.25,3.25,0,0,0,.16-.66c.31-.73.61-1.47.87-2.22a10.08,10.08,0,0,0,.94-2.4,4.39,4.39,0,0,0,.36-1.48v0c.7-2.18,1.38-4.37,2.24-6.47Zm-24.95,37.52c-.1.17-.18.35-.27.52h0A5.54,5.54,0,0,1,271.67,221.35Zm-1,1.83h0l0,0Z"/><path class="cls-2" d="M297.28,183.48h0s0,0,0,.09a1.15,1.15,0,0,1,0,.19c0,.1-.09.14,0,.12a.48.48,0,0,1,.26.08l.11,0s0,0,0,0h0l0,0,.11-.11c.15-.16.33-.32.51-.48a2.28,2.28,0,0,0,.36-.13,2,2,0,0,0,.84-.65c.19-.25.36-.53.57-.81s.37-.47.57-.69a25.15,25.15,0,0,1,4.18-3.05,2.15,2.15,0,0,0,.7-.12c.31-.14.44-.38.73-.56a6,6,0,0,1,2.35-.74,11.87,11.87,0,0,0,2.37-.48,15.19,15.19,0,0,1,2.88-.73l1.11-.15c1.51-.17,3-.31,4.55-.52.3,0,.59,0,.88,0a6.39,6.39,0,0,0,1.41-.23l1-.24-.59-.69c-.29-.35-.59-.69-.84-1.06l-.33-.55a2.66,2.66,0,0,1-.16-.39,7.33,7.33,0,0,0-.39-1c-.12-.2-.32-.36-.46-.55a5.25,5.25,0,0,0-.29-.53,2.69,2.69,0,0,0-.66-1.16c-.07,0-.17,0-.25,0l-.08-.09c-.07-.22-.18-.43-.24-.64a2,2,0,0,0-.3-.14,2.32,2.32,0,0,0-1.15-1.41,3.45,3.45,0,0,0-.31-.38,5.4,5.4,0,0,0-.94-.71l-.11-.12a2.32,2.32,0,0,1-.55-1.18l-.24-.11c-.21-.45-1.06-1.19-1.5-1.17l0,0L313,162a2,2,0,0,0-.91-1.07,6.7,6.7,0,0,0-.54-.51c-.91-.75-1.83-1.56-2.8-2.39l-.25-.23a5,5,0,0,0-.59-.63,2.26,2.26,0,0,0-.4-.28,8.15,8.15,0,0,0-1.82-1.33l0,0-.44-.42s.06-.05.05-.1a9.14,9.14,0,0,1-1.05-.66s.05-.07.05-.09c-.4-.13-.53-.3-.33-.49-.14,0-.39-.12-.54-.13a1.84,1.84,0,0,0-1-.69,4.88,4.88,0,0,0-1.42-.32,5.79,5.79,0,0,0-1.53-.46c-.93-.11-1.27-.08-1.34.22h-1l-.12,0-.06,0a.46.46,0,0,0-.27.33.54.54,0,0,0,.09.39,1.21,1.21,0,0,0,.13.12h0l.13.05a1.08,1.08,0,0,0,.19,0l.06-.28h0a.09.09,0,0,1,0,0l.09-.51h-.06l0-.1h0s.06,0,.08,0a.47.47,0,0,1,.19.27.44.44,0,0,1,0,.32.43.43,0,0,1-.24.23h0l-.06,0h0l.21,0,.44,0a8.38,8.38,0,0,1,.87,0,9.43,9.43,0,0,0,1,.27l1,.26a5.23,5.23,0,0,1,.65.24,11.75,11.75,0,0,1,2.31,1.3,8.39,8.39,0,0,0,1.2.88.76.76,0,0,0,.16.06l2.1,1.61.43.39.08.16a4.58,4.58,0,0,0,1.47,1.8c.45.39.9.81,1.36,1.24s.87.86,1.29,1.29a22.5,22.5,0,0,0,2.65,2.45l1.06.82,1.27,1.43c.43.49.86.94,1.23,1.43a1.28,1.28,0,0,0,.33.51c-.22.22,0,.72.28,1.27a9.26,9.26,0,0,0,.95,1.4c.05,0,.06,0,.11,0,.33.56,1.08,1.64,1.42,2.23l.37-.94h-.35c-.22.15-.51.27-.71.41l-.94.14a3.66,3.66,0,0,0-1-.4c-.19.46-1.12.58-1.66.63-.24,0-.63,0-1,0,0,0-.05,0-.05-.07a4.2,4.2,0,0,0-.93.1l0-.06c-.47,0-.83.13-.93.4l-.28,0a5.23,5.23,0,0,0-1.44-.12,14.37,14.37,0,0,0-1.75.5,3.86,3.86,0,0,0-.75.28,20.85,20.85,0,0,0-2.74.8,8.6,8.6,0,0,0-2.84,1.24,4.74,4.74,0,0,0-1.48,1.06l0,0a24.83,24.83,0,0,0-3.21,2.6q-.36.36-.72.75a7.49,7.49,0,0,1-.69.69l-.77.68a3.1,3.1,0,0,0-.39.41,1.11,1.11,0,0,0-.11.16.77.77,0,0,0-.06.15.76.76,0,0,0,0,.15.53.53,0,0,0,.07.2.48.48,0,0,0,.15.14l.13.05.15,0,.19,0Zm6.55-29.27c-.19-.12-.38-.25-.58-.36v0C303.45,153.94,303.64,154.08,303.83,154.21ZM301.71,153h0l0,0Z"/><path class="cls-2" d="M321.16,174.07l-.88.17a1.33,1.33,0,0,0-.24-.1c-.45-.13-.77.16-1.15.36l-.49.28a18.53,18.53,0,0,0-2.86,1.32,1.11,1.11,0,0,0-.48,0c-.19.09-.23.3-.39.44-.78.73-1.94.7-2.58,1.54a11,11,0,0,1-1.2,1.35l-.49.45c-.67.59-1.31,1.2-2,1.81L308,182a5,5,0,0,0-1.09,1.22l-.28.26-.2.14a2.22,2.22,0,0,0-.59.31,2.64,2.64,0,0,0-.2.37,1.39,1.39,0,0,0-.27.21c-.24.11-.4.1-.62.41a.6.6,0,0,1,.07.2l0,0a3,3,0,0,1-.41.08,1.55,1.55,0,0,0,0,.21.85.85,0,0,0-.84.64,1.12,1.12,0,0,0-.22.16,1.82,1.82,0,0,0-.36.61l-.07.06a1,1,0,0,1-.81.15l0,.17a1,1,0,0,0-.67.89h0l-.22.11a.76.76,0,0,0-.72.38,2,2,0,0,0-.34.25c-.52.46-1.06.92-1.63,1.39l-.16.12a2,2,0,0,0-.45.24.93.93,0,0,0-.19.21,3,3,0,0,0-.94.9h0l-.31.16s-.05-.06-.08-.08a2.21,2.21,0,0,1-.52.49s-.05-.07-.07-.08c-.1.24-.25.24-.38,0,0,.09-.11.22-.12.32-.33-.13-.93.61-1.09,1a5.62,5.62,0,0,0-.74.45c-.41.3-.55.46-.37.71l-.52.44.19.22h0l0,0,.33.39,0,0,.06.09a6.63,6.63,0,0,1,.75-.75,2.39,2.39,0,0,0,1.06-.69l.34-.27c.41-.33.82-.68,1.25-1,.23-.17.55-.29.71-.54,0,0,0-.06,0-.09.4-.33.79-.67,1.17-1l.27-.21h.12a1.7,1.7,0,0,0,1.28-.54c1.06-.91,2.52-1.56,3.27-2.79.16-.24.3-.47.44-.69.57-.48,1.14-1,1.69-1.48a.42.42,0,0,0,.29-.23c.47.41,1.3-.58,1.49-1,0,0-.05-.05-.07-.09.3-.32.9-1.08,1.25-1.15,0-.19.11-.35.12-.52l.4-.39a2.44,2.44,0,0,0,.76,0c-.21-.42.19-.8.43-1s.29-.21.46-.35a.18.18,0,0,1,.07.05,1.72,1.72,0,0,0,.4-.36.11.11,0,0,1,0,.06.43.43,0,0,0,.23-.58l.12-.11a2.28,2.28,0,0,0,.82-.28c.25-.21.43-.55.67-.79a2,2,0,0,0,.28-.37c.44-.31.86-.64,1.31-.93a6.47,6.47,0,0,0,1.53-.82c.27-.15.68-.28.85-.57h0a15.27,15.27,0,0,1,4.39-1.43ZM295.62,192.5l-.31.24h0Zm-1.15.78h0l0,0Z"/><path class="cls-2" d="M262.63,249.68l0-.54.15-.12c.24-.22.11-.48.06-.76l-.06-.37c.13-.68.26-1.37.43-2,.11-.07.26-.12.3-.21s-.08-.26-.09-.4c0-.75.82-1.16.75-1.88a3.87,3.87,0,0,1,.07-1.23l.12-.44.55-1.74.21-.29a2.4,2.4,0,0,0,.26-1.1l.09-.24a.6.6,0,0,1,.09-.15c.09-.09.28-.23.32-.35s0-.21,0-.3a1.13,1.13,0,0,0,.12-.21c.13-.14.27-.17.29-.44a.59.59,0,0,1-.17-.13v0l.3-.16-.09-.15a.46.46,0,0,0,.33-.66.56.56,0,0,0,.09-.17,1.17,1.17,0,0,0-.05-.52l0-.06a.72.72,0,0,1,.55-.32l-.06-.12a.53.53,0,0,0,0-.79v0l.11-.13c.3-.1.37-.25.36-.45a1.11,1.11,0,0,0,.12-.27c.15-.45.32-.91.5-1.38l.05-.13a.82.82,0,0,0,.22-.27.43.43,0,0,0,0-.19,1.59,1.59,0,0,0,.27-.85h0l.17-.18s.06,0,.1,0a.92.92,0,0,1,.17-.45s.07.05.09.05c0-.19.09-.22.3-.07,0-.07,0-.18-.06-.25.32,0,.44-.58.44-.85a2.42,2.42,0,0,0,.4-.38c.21-.23.27-.3.06-.53l.28-.31-.18-.21h0l0,0-.33-.39,0,0-.07-.09a6.11,6.11,0,0,1-.49.65,1.19,1.19,0,0,0-.65.67l-.17.26c-.2.33-.36.67-.57,1s-.3.33-.3.55a.24.24,0,0,0,0,.08,6.07,6.07,0,0,0-.39,1l-.1.21-.09,0a1,1,0,0,0-.71.72c-.32.92-1.09,1.76-1,2.81l0,.59c-.19.49-.37,1-.55,1.45a.22.22,0,0,0-.11.23c-.59-.17-.76.71-.72,1,0,0,.07,0,.1.05-.08.3-.18,1-.42,1.1.08.14.09.27.17.39l-.12.37c-.21.07-.48.07-.62.19a.58.58,0,0,1,.2.8c0,.1-.12.23-.18.37h-.08a.77.77,0,0,0-.12.36l0,0c-.11.17-.06.34.16.46l0,.11c-.17.16-.39.25-.46.46s0,.5,0,.74a.92.92,0,0,0,0,.34l-.29,1.09a2.53,2.53,0,0,0-.41,1.17c-.05.21-.19.49-.06.73h0a16.4,16.4,0,0,0-.44,3.34Zm6.69-20.4.14-.23h0Zm.56-.75h0Z"/><path class="cls-2" d="M153.65,240.12c-2.58-14.64-16.61-20.33-16.76-20.39l.4-1c.15.06,14.75,6,17.43,21.21Z"/><path class="cls-2" d="M35.88,173.37a.39.39,0,0,0,.12.78A.39.39,0,0,0,35.88,173.37Z"/><path class="cls-2" d="M104.47,261.48l-1.76-1.05a2.93,2.93,0,0,0-.35-.37,7.4,7.4,0,0,0-2.42-1.34l-1.17-.52c-2.15-1.15-4.36-2.22-6.62-3.16a3.46,3.46,0,0,0-.8-.59,9.78,9.78,0,0,0-1.27-.31c-2.4-.69-4.07-2.11-6.19-3a14.49,14.49,0,0,1-3.53-2c-.4-.31-.79-.64-1.16-1a58.9,58.9,0,0,1-4.11-4.69c-.25-.33-.49-.66-.74-1a9.69,9.69,0,0,0-3.19-2.41l-.81-.44-.5-.32c-.35-.23-.87-.64-1.26-.84s-.6-.22-.89-.34l-.65-.43a5.59,5.59,0,0,0-1.38-1.08c-.07,0-.19,0-.28,0l-.14-.09c-.19-.21-.41-.44-.59-.65a3.59,3.59,0,0,0-.41-.11,4.23,4.23,0,0,0-2.14-1.41,6.39,6.39,0,0,0-.58-.36,8,8,0,0,0-1.53-.57l-.19-.1a4.75,4.75,0,0,1-1.41-1.12l-.35,0a4.26,4.26,0,0,0-2.54-.73l0,0-.53-.24a3.69,3.69,0,0,0-1.8-.73c-.31-.1-.64-.19-1-.28-1.68-.38-3.36-.58-5.11-.81l-.48-.06a10.83,10.83,0,0,0-1.16-.24,5.39,5.39,0,0,0-.67,0,14.85,14.85,0,0,0-3.09-.18h-.05l-.82-.13s0-.08,0-.12a13.7,13.7,0,0,1-1.68,0c-.07,0,0-.09,0-.11-.56.09-.83,0-.72-.27-.13,0-.39.07-.56.11l-.12,1.53.16,0c.39.34,2.58.35,3.4.26.66.11,1.32.23,2,.31,1.19.14,1.69.16,1.78-.14l1.6.16,0-.29h0s0,0,0,0l.05-.51h-.11s0-.07,0-.11c-.94-.06-1.71-.06-2.52-.16a13.38,13.38,0,0,0-3-.43l-1-.09-2.29-.21-.08,1,1.52.1a14.86,14.86,0,0,0,2.08.18l.23,0,3.67.29.8.1.22.09a9.09,9.09,0,0,0,3.08.82,19.43,19.43,0,0,1,2.41.5c.81.23,1.62.49,2.41.77,1.6.56,3.14,1.18,4.65,1.67.61.19,1.16.4,1.72.62,1.54.84,3,1.79,4.47,2.77a2.38,2.38,0,0,0,.69.51c-.06.15,0,.35.28.59a5.23,5.23,0,0,0,1,.76,12.86,12.86,0,0,0,2.19,1c.06,0,0-.07.08-.09.47.23,1.21.56,1.86,1a4.61,4.61,0,0,1,1.37,1.15c.34.13.67.38,1,.51.3.3.6.62.89.94a6.15,6.15,0,0,0,.4,1.29c.56,0,1.39,1,1.86,1.57.22.26.52.7.87,1.09a.09.09,0,0,1,0,.09,6.42,6.42,0,0,0,.93,1,.18.18,0,0,1-.09,0c.45.5.9.78,1.22.7l.3.25a7.28,7.28,0,0,0,1.41,1.42,15.22,15.22,0,0,0,2.25,1.12,7.17,7.17,0,0,0,1,.41c1.17.58,2.37,1.09,3.57,1.57A37.1,37.1,0,0,0,91.86,256a14.41,14.41,0,0,0,2.29.89h0A100.8,100.8,0,0,1,104,262.2ZM38.55,228.72l-.79,0-.07.94h.15l0,0-.17,0,.08-1ZM40.16,230h0l.08,0Z"/><path class="cls-2" d="M27.28,225.65c2.95-.39,9.57-2.24,10.66-11.08l13.7,4.34s6,5.16.13,11.56L42.93,229s-8.72.41-15.74-2.59A.37.37,0,0,1,27.28,225.65Z"/><path class="cls-2" d="M51.9,230.86l-9-1.54c-.66,0-9.09.26-15.87-2.62a.75.75,0,0,1-.44-.78.73.73,0,0,1,.64-.63h0c2.74-.36,9.27-2.12,10.35-10.76l0-.43,14.24,4.54A8,8,0,0,1,52,230.71ZM27.33,226h0c6.87,3,15.51,2.59,15.59,2.58H43l8.65,1.48A8,8,0,0,0,54,224.34a8.18,8.18,0,0,0-2.51-5.11L38.25,215c-1.3,8.77-8,10.58-10.92,11Z"/><path class="cls-2" d="M20.73,217c1.47,4.26,4.75,10.12,10.68,7.47l-3.51,1.75a11.25,11.25,0,0,1-3.34-1.75,22.85,22.85,0,0,1-4.06-7.64C20.47,216.68,20.69,216.84,20.73,217Z"/><path class="cls-2" d="M27.92,226.57l-.14,0a11.43,11.43,0,0,1-3.49-1.85,23.15,23.15,0,0,1-4.14-7.79l-.08-.33.34-.14c.3-.1.6.23.67.43h0c.77,2.24,2.51,6.2,5.46,7.48a5.73,5.73,0,0,0,4.72-.22l.31.65ZM24.68,224l.14.16a10.14,10.14,0,0,0,3.05,1.61l.67-.34a5.78,5.78,0,0,1-2.28-.47A6.88,6.88,0,0,1,24.68,224Z"/><path class="cls-2" d="M292.09,256a7.29,7.29,0,0,1-.62-.56,1.29,1.29,0,0,0-.06-.25c-.13-.45-.52-.58-.89-.82l-.47-.33c-.76-.76-1.51-1.54-2.25-2.32,0-.16,0-.35-.11-.47s-.35-.17-.52-.3c-.88-.67-1-1.84-1.79-2.44l-.22-.17-.06,0,0,0,0,0h0l-.09,0-.48-.43a4.83,4.83,0,0,0-1.42.45c-.23.1-.45.21-.67.33a19.08,19.08,0,0,0-2.41,1.55l-.5.23a5.63,5.63,0,0,0-1.31,1.14l-.32.25a1.67,1.67,0,0,1-.23.12,1.1,1.1,0,0,0-.91.63,2.32,2.32,0,0,0-.31.19c-.26.1-.42.07-.69.37a.6.6,0,0,1,0,.22l-.05.05c-.14,0-.28,0-.43,0a1.66,1.66,0,0,0-.06.21.94.94,0,0,0-.95.57,1.57,1.57,0,0,0-.25.14,2.22,2.22,0,0,0-.46.56l-.08,0a.91.91,0,0,1-.82,0l-.08.16a.94.94,0,0,0-.85.58h0a1.33,1.33,0,0,1-.21,0c-.13-.1-.19-.19-.27-.2l.59.58a1.28,1.28,0,0,0-.22-.49,1.15,1.15,0,0,0-.23-.5,7,7,0,0,0-1.76-1.76l-.17-.14a1.6,1.6,0,0,0-.38-.4,1,1,0,0,0-.28-.14,3.19,3.19,0,0,0-1.25-.65l0,0-.29-.24s.05-.06.05-.1a2.69,2.69,0,0,1-.69-.32s0-.08.05-.09c-.28,0-.35-.15-.19-.36-.09,0-.26,0-.36,0,0-.36-1-.64-1.41-.64a6.25,6.25,0,0,0-.77-.49c-.48-.25-.7-.32-.85-.05l-.67-.28-.11.26h0v.05l-.2.48,0,0-.05.09a8,8,0,0,1,1.05.36,2.72,2.72,0,0,0,1.14.69l.41.2c.49.25,1,.49,1.48.78a2.55,2.55,0,0,0,.79.47H267l1.39.8.28.21,0,.12a2,2,0,0,0,.77,1.13,2.6,2.6,0,0,1,.76,1.31l.08.54.59.12a2.87,2.87,0,0,0,1.69-.19,3.25,3.25,0,0,0,1.15-.76c.22-.23.42-.43.61-.65.68-.42,1.32-.89,2-1.36a.5.5,0,0,0,.33-.2c.42.44,1.4-.49,1.66-.86,0,0-.05-.06-.06-.1.35-.3,1.08-1,1.44-1.06.05-.19.17-.35.21-.52l.47-.35a2.54,2.54,0,0,0,.76.11c-.14-.45.33-.78.61-.95.13-.08.34-.16.54-.26a.12.12,0,0,1,.05.05,2,2,0,0,0,.48-.26v.06a.45.45,0,0,0,.37-.51l.15-.06c.31,0,.55.11.79.09a2.29,2.29,0,0,0,.28-.08l-.56-.4a2.2,2.2,0,0,0,.3.36,3.38,3.38,0,0,1,.27.26,2,2,0,0,0,.39.32c.37.45.76.88,1.14,1.31a5.65,5.65,0,0,0,1.19,1.45c.23.25.5.63.84.73h0l1.76,1.79.89.88c.32.3.58.57,1,.89Zm-25.79-4.78-.37-.2v0Zm-1.26-.78h0l0,0Z"/><path class="cls-2" d="M230.47,236.69l-.1.13-.14,0c-.23-.07-.12.08-.08.19l0,.13-.26.43a.93.93,0,0,0-.24-.07s.09.12.11.17c.09.24-.58,0-.44.29a.59.59,0,0,1,.12.38l0,.09-.2.37h-.14c-.15,0,0,.19,0,.28l0,.05H229s-.2,0-.2,0,.05.08.07.11l-.06,0c-.08,0-.2,0-.16,0a1.26,1.26,0,0,1,.17.11h0l-.22-.06.1.09c-.23-.08-.33-.06-.14.11,0,0,0,0,0,0s.09.13.15.2h0c-.08,0-.12,0-.39-.09l.08.07c-.15,0-.11.1.15.28h-.06c-.23-.08-.26-.05-.2,0a.07.07,0,0,0,0,0,3.4,3.4,0,0,1-.07.34s0,0,0,0-.11,0-.12,0a.13.13,0,0,0,0,.07c-.06,0-.09.1,0,.24h-.08l-.1-.06c0,.05,0,.12,0,.13l-.09-.06c.09.1,0,.07-.21-.08a1.54,1.54,0,0,0,.12.13c-.26-.14-.17.08,0,.22a.4.4,0,0,0-.17,0c-.06,0-.06.08.19.26l-.06.08.23.18h0l.05,0,.41.3h0l.08.06c0-.07,0-.16,0-.19s.23,0,.24-.09l0-.06a1.28,1.28,0,0,1,.14-.23s.15,0,.09-.11l0,0a.48.48,0,0,0,0-.27l0-.05.06,0c.32.11.39.1.41,0s.51-.25.21-.67l-.16-.23.18-.31c.05,0,.09,0,.05,0,.54.29.51,0,.42-.08l-.1-.05c0-.07,0-.27.17-.22-.09-.07-.12-.13-.22-.2l.05-.08c.17.06.4.17.5.19-.37-.24-.33-.32-.3-.35s.07,0,.1,0l.07,0s0,0,0-.07l0,0c.07,0,0-.08-.21-.22l0,0c.12,0,.3.08.33,0s-.08-.17-.09-.24a.23.23,0,0,0-.07-.11l.13-.23c.21,0,.19-.09.24-.18s.11-.06,0-.19h0a4.88,4.88,0,0,1,.37-.58ZM227.92,241l0,.05h0Zm-.21.12h0Z"/><path class="cls-2" d="M233.64,237l-.06.13-.15,0c-.24,0-.1.09-.05.2l.06.12-.23.48a1.19,1.19,0,0,0-.25,0s.1.12.12.16c.1.26-.59.08-.44.35a.57.57,0,0,1,.11.4l0,.11-.21.41-.14,0c-.15,0,0,.2,0,.3l0,.06h-.06c-.06,0-.2,0-.21,0s.06.09.07.12a.1.1,0,0,0,0,0c-.09,0-.21,0-.17.06l.17.1v0a1.89,1.89,0,0,1-.23-.05l.1.09c-.24-.07-.34,0-.14.14a0,0,0,0,0,0,0c0,.05.1.13.16.21h0c-.08,0-.13,0-.41-.06l.09.07c-.16,0-.12.13.16.3h-.07c-.23-.05-.26,0-.2.06a.1.1,0,0,0,0,.07,2.63,2.63,0,0,1-.06.39s0,0,0,0-.11,0-.12.05,0,0,0,.06-.08.14,0,.27h0l-.09,0-.1,0c0,.05.06.12,0,.14s-.08,0-.09,0,0,.07-.23,0a1.54,1.54,0,0,1,.13.12c-.28-.09-.16.15,0,.27a.55.55,0,0,0-.17.1c-.06.08-.05.12.23.24l0,.11.27.1h0l.05,0,.48.18h0l.1,0c0-.07-.06-.15,0-.19.2,0,.22-.06.21-.15l0-.06a.77.77,0,0,1,.1-.25s.14-.05.07-.14l0,0a.56.56,0,0,0,0-.29l0-.05h.06c.34.07.4,0,.42-.06s.49-.31.17-.73l-.16-.23.18-.34c.06,0,.09,0,0,0,.55.27.52,0,.43-.11l-.1-.06c0-.08,0-.28.18-.24-.1-.08-.13-.13-.23-.2l.05-.09a4.75,4.75,0,0,0,.52.16c-.39-.22-.35-.31-.32-.36s.08,0,.11-.06l.07,0c.06,0,0-.05,0-.08l0,0c.08,0,0-.09-.2-.22v0c.13,0,.31.06.34,0s-.09-.18-.09-.25a.25.25,0,0,0-.07-.12l.13-.26c.21,0,.19-.12.24-.22s.12-.09,0-.21h0l.36-.76Zm-2.45,4.93,0,.06h0Zm-.19.19h0Z"/><path class="cls-2" d="M236.66,238.51l-.06.12-.15,0c-.23-.05-.1.08,0,.18l.06.12-.21.42c-.09,0-.21-.07-.24-.05s.1.1.12.15c.11.23-.57,0-.41.29s.17.27.14.36l0,.1-.18.35-.13,0c-.15,0,0,.18,0,.27l0,0h-.06s-.19,0-.2,0,.06.08.08.11a.06.06,0,0,0-.06,0c-.08,0-.2-.05-.15,0l.17.1v0l-.22-.06.11.08c-.24-.07-.34-.05-.14.11,0,0,0,0,0,0s.09.12.16.19v0a.68.68,0,0,1-.39-.1l.08.07c-.15,0-.11.09.16.27h-.06c-.23-.08-.25-.05-.19,0a.06.06,0,0,0-.05.05,1.64,1.64,0,0,1,0,.32l0,0s-.1,0-.11,0a.13.13,0,0,0,0,.07c-.06,0-.08.1,0,.23h-.09l-.09-.06c0,.05,0,.11,0,.12l-.08-.06c.08.1,0,.06-.21-.09a1.54,1.54,0,0,1,.12.13c-.26-.15-.16.06-.05.2a.37.37,0,0,0-.16,0c-.06,0,0,.06.17.26l-.05.07.21.19h0l0,0,.38.35h0l.08.08c0-.07,0-.17.05-.2s.24,0,.24-.08l0-.06c.06-.07.08-.16.15-.22s.14,0,.08-.11,0,0,0,0a.48.48,0,0,0,0-.27l0,0,.06,0c.32.11.39.1.41,0s.49-.25.19-.66l-.17-.22.17-.3c.05,0,.09,0,.05,0,.54.27.51,0,.41-.09l-.1-.05c0-.07,0-.26.16-.22-.09-.07-.13-.12-.23-.19l0-.07a4.75,4.75,0,0,0,.52.16c-.39-.21-.36-.29-.33-.33s.07,0,.1-.05l.07,0c.06,0,0,0,0-.07l0,0c.07,0,0-.08-.22-.2v0c.13,0,.31.06.34,0s-.1-.17-.11-.23a.19.19,0,0,0-.07-.11l.11-.23c.21,0,.18-.1.22-.18s.11-.08,0-.19h0l.32-.63Zm-2.23,4.16,0,.05,0,0Zm-.19.1Z"/><path class="cls-2" d="M239.76,239.28l0,.1-.14,0c-.23-.05-.09.07,0,.16l.07.11-.19.37a.81.81,0,0,0-.24-.06s.1.1.13.14c.11.22-.56,0-.4.25s.17.25.15.34l0,.08-.16.32h-.13c-.14,0,0,.17,0,.25l0,0h-.06s-.19,0-.2,0,.07.07.08.1l-.05,0c-.08,0-.2-.05-.15,0l.17.1v0l-.21-.07.1.09c-.23-.09-.33-.07-.13.09,0,0,0,0,0,0s.1.12.17.19h0c-.08,0-.12,0-.39-.11l.08.07c-.15,0-.1.08.17.26h-.06c-.22-.09-.25-.06-.19,0a0,0,0,0,0,0,.05,1.57,1.57,0,0,1,0,.3s0,0,0,0-.1,0-.11,0a.09.09,0,0,0,0,.06c-.05,0-.07.09,0,.22h-.08l-.09,0s.06.1,0,.11l-.09,0c.09.09,0,0-.21-.09l.13.12c-.27-.14-.16.06,0,.19a.37.37,0,0,0-.16,0c-.05,0,0,.06.2.25l0,.06.23.18h0l0,0,.4.31h0l.08.07c0-.06,0-.15,0-.18s.23,0,.23-.07l0-.05a.67.67,0,0,1,.12-.2s.14,0,.07-.1l0,0a.46.46,0,0,0,0-.24l0,0,.06,0c.32.12.38.11.4,0s.47-.21.15-.6l-.17-.21.15-.27c.06,0,.09,0,.05,0,.54.28.5.06.41-.05l-.1-.06c0-.06,0-.23.14-.18l-.22-.19,0-.07c.17.06.4.16.51.18-.38-.22-.35-.29-.33-.32s.07,0,.1,0l.07,0c.05,0,0,0,0-.06l0,0c.07,0,0-.07-.21-.2v0c.12,0,.3.08.33.05s-.1-.16-.12-.22a.23.23,0,0,0-.07-.11l.1-.19c.2,0,.17-.09.21-.17s.11-.06,0-.17h0l.29-.57Zm-2,3.71,0,0h0Zm-.18.09h0Z"/><path class="cls-2" d="M242.61,240l-.05.11-.14,0c-.23-.06-.09.06,0,.15l.06.12-.21.38a1.6,1.6,0,0,0-.24-.06s.09.11.11.15c.1.23-.56,0-.41.25a.56.56,0,0,1,.12.36l0,.09-.2.33h-.13c-.15,0,0,.17,0,.25l0,.05h-.06c-.06,0-.2,0-.2,0s.05.09.07.12l-.06,0c-.08,0-.2-.06-.16,0l.17.12h0l-.22-.07.1.09c-.22-.09-.32-.08-.14.09,0,0,0,0,0,0s.09.13.15.2h0a.76.76,0,0,1-.39-.11l.09.07c-.15,0-.11.09.15.28h-.07c-.22-.08-.25-.06-.19,0a.07.07,0,0,0,0,0,1.94,1.94,0,0,1-.07.33s0,0,0,0-.1,0-.11,0,0,0,0,.06-.08.1,0,.23h-.08l-.1-.06c0,.05.06.11,0,.12l-.09,0c.08.09,0,.06-.22-.09.06,0,.08.09.13.13-.27-.14-.17.08,0,.22a.24.24,0,0,0-.16,0c-.07,0-.06.08.19.25l-.05.08.24.16h0l0,0,.43.28h0l.09.06c0-.06,0-.14,0-.17s.22,0,.22-.09l0-.05a.67.67,0,0,1,.12-.2s.14,0,.08-.11l0,0a.49.49,0,0,0,0-.25l0,0,.06,0c.32.12.38.11.4,0s.49-.2.19-.61l-.15-.23.17-.28c.06,0,.09,0,0,0,.53.31.5.08.42-.05l-.1-.06c0-.06,0-.25.17-.19-.09-.08-.13-.13-.22-.2l0-.07c.17.06.4.18.5.2-.37-.24-.33-.32-.3-.35s.07,0,.1,0l.07,0c.05,0,0,0,0-.06l0,0c.07,0,0-.07-.2-.21v0c.12,0,.3.09.33,0s-.09-.17-.1-.23,0-.07-.06-.11l.12-.21c.21,0,.18-.09.23-.17s.11-.07,0-.19h0c.12-.21.23-.42.34-.64ZM240.29,244l0,0h0Zm-.19.12Z"/><path class="cls-2" d="M245.31,240.64l-.08.1-.13-.06c-.22-.1-.1,0-.07.15l0,.12-.29.35a1.45,1.45,0,0,0-.22-.11s.07.13.08.18c.06.24-.56-.1-.46.18a.58.58,0,0,1,0,.39l0,.08-.26.32h-.13c-.15,0,0,.18-.07.27l0,0a.06.06,0,0,1-.06,0c-.06,0-.2,0-.21,0s.05.08.06.12l-.06,0c-.08,0-.19-.07-.16,0l.15.12v0l-.21-.08.09.09c-.22-.1-.33-.08-.15.11l0,0s.07.14.13.22h0a.72.72,0,0,1-.39-.11l.08.08c-.15-.05-.12.1.14.29H243c-.22-.08-.25,0-.19,0s0,0,0,.06,0,.24-.05.37l0,0s-.1,0-.11.05,0,0,0,.06-.07.14,0,.26h0l-.08,0-.11,0c0,.06.08.11,0,.14s-.08,0-.1,0,0,.06-.23,0l.15.1c-.3,0-.14.2,0,.28a.33.33,0,0,0-.14.15c0,.1,0,.15.29.17v.13h1s-.1-.08-.08-.12c.19,0,.19-.07.16-.13v-.05c0-.06,0-.13,0-.18s.12,0,0-.11l0,0a.63.63,0,0,0,0-.23l0-.05.06,0c.33.08.38.07.39,0s.44-.17.14-.57l-.15-.23.18-.26c.05,0,.09,0,.06,0,.5.34.48.12.41,0l-.09-.07c0-.06,0-.25.18-.16-.08-.09-.11-.15-.19-.23l.05-.07a5.26,5.26,0,0,0,.47.27c-.34-.29-.29-.36-.26-.39l.1,0,.07,0s0,0,0-.06l0,0c.07,0,0-.08-.16-.24v0c.12,0,.28.13.32.1s-.06-.18-.06-.24a.24.24,0,0,0,0-.13l.16-.18c.2.05.19-.06.25-.13s.13,0,0-.19h0q.22-.27.45-.57Zm-2.74,4s0,0,0,.06h0Zm-.15.22Z"/><path class="cls-2" d="M247.34,241.82l-.07.09-.13-.07c-.22-.1-.1,0-.07.15l0,.12-.27.32c-.08,0-.19-.12-.22-.11s.08.12.09.17c.06.24-.55-.11-.45.16s.1.29.06.37l0,.08-.24.29-.13,0c-.15,0-.05.17-.06.26l0,0h-.06c-.06,0-.19-.07-.2,0s0,.09.06.12l-.06,0c-.08,0-.19-.08-.16,0l.15.13v0l-.21-.09.09.09c-.22-.11-.32-.09-.14.09a.06.06,0,0,0-.05,0s.08.14.14.22h0c-.08,0-.13,0-.39-.13l.08.08c-.15-.05-.12.09.14.28h-.07c-.22-.09-.25-.06-.19,0a.07.07,0,0,0,0,.05c0,.12,0,.23-.07.35a0,0,0,0,1,0,0c-.05,0-.1,0-.11,0s0,0,0,.06-.08.13,0,.25h0l-.08,0-.11,0c0,.05.07.11,0,.13l-.09,0c.1.08,0,.07-.23,0,.06,0,.08.07.14.1-.29-.06-.15.17,0,.27a.27.27,0,0,0-.15.12c-.05.09,0,.14.28.19l0,.11.28,0h.05l.51.05h.11s-.09-.09-.07-.13c.19,0,.2,0,.17-.1V246c0-.05,0-.12.06-.17s.12,0,0-.09l0,0a.43.43,0,0,0,0-.22l0,0h.06c.33.11.38.11.39,0s.44-.13.14-.53l-.14-.23.17-.24c.06,0,.09,0,.06,0,.49.36.47.14.4,0l-.09-.08c0-.05,0-.23.18-.15l-.19-.23.05-.06c.15.1.36.24.46.29-.33-.3-.29-.36-.25-.39l.09,0,.07.05s0,0,0-.06l0,0c.07,0,0-.07-.17-.24h0c.12,0,.27.14.31.11s-.06-.17-.06-.24a.28.28,0,0,0,0-.12l.15-.17c.2.06.19,0,.25-.11s.12,0,0-.19h0l.43-.53Zm-2.65,3.67,0,.06h0Zm-.17.18h0Z"/><path class="cls-2" d="M249.5,242.53v.08l-.14,0c-.23,0-.06.06,0,.11l.1.06a1.53,1.53,0,0,1-.07.36,1.3,1.3,0,0,0-.24,0s.12.08.15.11c.15.19-.54.07-.34.27s.19.23.17.32l0,.08-.15.33h-.13c-.15,0,0,.17,0,.25l0,.05h-.05c-.06,0-.2,0-.21,0s.07.07.08.1l0,0c-.08,0-.2,0-.15,0l.17.1h0l-.22,0,.11.08c-.24-.07-.34,0-.13.11,0,0,0,0,0,0s.1.12.16.19h0c-.08,0-.12,0-.39-.11l.09.06c-.15,0-.08.06.18.25h-.07c-.21-.1-.24-.07-.18,0s0,0,0,0a2.61,2.61,0,0,1-.08.33v0s-.1,0-.12,0a.11.11,0,0,0,0,.06c-.06.05-.09.13,0,.26h0l-.09,0-.1,0c0,.06.06.12,0,.15l-.1,0c.1.09,0,.07-.23,0,.06,0,.08.09.14.12-.29-.06-.17.23,0,.33a.49.49,0,0,0-.14.21c0,.15,0,.21.31.18l0,.16.28-.07h0l.05,0,.5-.13h0l.1,0s-.11,0-.09,0c.19,0,.19,0,.15-.07v0s0-.09,0-.14.12,0,0-.08l0,0a.41.41,0,0,0,0-.22l0,0,.06,0c.32.13.38.13.39,0s.5-.2.22-.67l-.18-.2.14-.28c.06,0,.09,0,.05,0,.55.27.51,0,.41-.07l-.1-.06c0-.06,0-.24.15-.2-.1-.07-.14-.12-.23-.19l0-.07a4.75,4.75,0,0,0,.52.16c-.39-.21-.36-.28-.33-.32s.06,0,.09-.05l.07,0c.06,0,0,0,0-.07l0,0c.07,0,0-.08-.23-.19v0c.13,0,.31,0,.34,0s-.11-.16-.13-.22a.26.26,0,0,0-.08-.11l.09-.23c.2,0,.16-.13.19-.23s.09-.1-.07-.19h0a2.11,2.11,0,0,0,.05-.8Zm-1.66,3.84,0,.07h0Zm-.18.23h0Z"/><path class="cls-2" d="M252.4,243.41l0,.09-.15,0c-.23,0-.07.06,0,.13l.08.09a2.08,2.08,0,0,1-.12.32L252,244s.12.09.14.13c.13.19-.53,0-.35.21s.18.23.16.31l0,.07-.15.29h-.12c-.14,0,0,.15,0,.23l0,0s0,0,0,0-.2,0-.2,0,.06.08.08.1l-.05,0c-.08,0-.2,0-.15,0l.18.1h0l-.22-.06.11.08c-.23-.07-.33,0-.12.1l0,0s.1.11.17.18h0a.81.81,0,0,1-.4-.08l.09.06c-.15,0-.09.1.2.25h-.07c-.23-.06-.25,0-.18,0a.05.05,0,0,0,0,.05c0,.11,0,.21,0,.32v0s-.1,0-.11,0,0,0,0,.05,0,.12.09.21h0l-.08,0-.11,0s.09.09.05.12l-.11,0c.11.05,0,.05-.23,0,.07,0,.1.06.16.08-.29,0-.12.16,0,.23a.26.26,0,0,0-.13.12c0,.08,0,.11.29.14v.09h1s-.1-.08-.08-.12c.19,0,.19-.06.16-.11v-.05s0-.11,0-.16.12,0,0-.09l0,0a.35.35,0,0,0-.06-.2l0,0h.06c.34,0,.39,0,.38,0s.39-.16,0-.5l-.19-.18.12-.24c.06,0,.09,0,.05,0,.55.27.49.07.39,0l-.1-.05c0-.06-.05-.22.13-.17l-.23-.18,0-.06c.17.06.4.16.51.18-.39-.21-.36-.28-.34-.31s.07,0,.09,0l.07,0c.06,0,0,0,0-.07l0,0c.07,0,0-.07-.22-.19v0c.12,0,.29.08.32,0s-.1-.15-.12-.2a.19.19,0,0,0-.08-.1l.09-.2c.2,0,.17-.08.2-.16s.09-.08,0-.17h0a3.94,3.94,0,0,0,.19-.61Zm-1.51,3.6v.05h0Zm-.13.18Z"/><path class="cls-2" d="M255.08,243.79l0,.09h-.15c-.23,0-.06,0,0,.13l.08.08c0,.11-.08.22-.12.34a1.26,1.26,0,0,0-.24,0s.11.09.14.13c.14.19-.54,0-.35.23s.19.23.18.31l0,.08-.14.3-.12,0c-.14,0,0,.15,0,.23l0,0-.06,0c-.05,0-.19,0-.2,0s.08.07.1.1,0,0,0,0-.2,0-.15,0l.18.09h0l-.23,0,.12.07c-.24-.05-.34,0-.11.11,0,0,0,0,0,0s.11.1.19.16h0c-.08,0-.12,0-.41,0l.1.05c-.16,0-.09.11.22.23h0l-.06,0c-.23,0-.25,0-.17.06a.09.09,0,0,0,0,.06,3.26,3.26,0,0,1,.05.33v0s-.09,0-.09,0,0,0,0,.05,0,.14.12.21h0l-.07,0h-.11s.1.08.06.11h-.11c.12,0,0,0-.22,0,.06,0,.1,0,.17,0-.3,0-.09.2.08.24a.33.33,0,0,0-.1.15c0,.09,0,.13.32.08l0,.1.27-.06h0l.5-.11h0l.11,0s-.12,0-.1-.08c.18-.07.17-.09.13-.13v0c0-.05,0-.1,0-.16s.11-.05,0-.08l-.05,0a.5.5,0,0,0-.09-.18v0h.07c.33,0,.38,0,.36-.07s.37-.2,0-.49l-.2-.16.09-.25c.06,0,.09,0,.05,0,.57.22.49,0,.38-.07l-.1,0c0-.06-.07-.21.11-.17l-.24-.17,0-.06.51.15c-.4-.19-.37-.26-.35-.29l.09,0,.07,0s0,0,0-.06l0,0c.07,0,0-.07-.23-.18v0c.12,0,.3.07.32,0s-.11-.14-.13-.2a.22.22,0,0,0-.08-.09l.08-.2c.2,0,.16-.09.19-.17s.1-.07-.05-.16h0a3.63,3.63,0,0,0,.19-.61Zm-1.26,3.8v.06h0Zm-.1.21h0Z"/><path class="cls-2" d="M257.58,244.28v.11h-.15c-.24,0-.06.09,0,.16l.09.08,0,.4a.76.76,0,0,0-.25,0s.13.06.16.09c.18.17-.52.18-.29.35s.24.18.25.27v.08l-.06.34-.12,0c-.14.06,0,.16.06.23v0a.06.06,0,0,1-.05,0c-.05,0-.2,0-.19,0s.08.06.1.08,0,0,0,0-.2,0-.14.06l.2.06h-.22l.12.05c-.24,0-.33,0-.1.12l0,0s.13.09.21.14h0a.75.75,0,0,1-.41,0l.1,0c-.15,0-.07.09.23.2h0l-.06,0c-.23,0-.25,0-.17.06s0,0,0,0a1.54,1.54,0,0,1,0,.3s0,0,0,0-.09,0-.09,0,0,0,0,0-.05.09.07.2h0l-.07,0-.11,0s.08.1,0,.12l-.1,0c.11.08,0,.07-.22,0a1.7,1.7,0,0,1,.14.1c-.29-.07-.15.17,0,.27a.41.41,0,0,0-.15.14c0,.11,0,.17.29.18V249H257l.51,0h.11s-.11-.06-.09-.08c.19,0,.2,0,.16-.09v0s0-.11,0-.16.13,0,.05-.1l-.05,0a.35.35,0,0,0,0-.24l0,0h.07c.33,0,.39,0,.38-.08s.41-.32,0-.62l-.21-.16L258,247c.05,0,.09,0,0,0,.6.12.49-.08.37-.17l-.11,0c0-.06-.11-.22.08-.22l-.27-.12,0-.07a3.4,3.4,0,0,0,.53,0c-.43-.09-.42-.17-.4-.21s.05,0,.07-.06h.08c.05,0,0-.05,0-.08l0,0c.06,0,0-.07-.27-.13v0c.12,0,.31,0,.32-.06s-.14-.11-.17-.17a.26.26,0,0,0-.1-.07l0-.22c.2,0,.14-.13.15-.22s.08-.09-.09-.15h0l.08-.63Zm-.85,4,0,.06h0Zm-.16.18h0Z"/><path class="cls-2" d="M47.74,234.9v-.11l.14,0c.22-.08,0-.09-.07-.13l-.11-.06c0-.12,0-.25,0-.38a2,2,0,0,0,.24-.07s-.14,0-.18-.06c-.21-.12.48-.26.22-.38s-.26-.14-.29-.22V233l.12-.06c.12-.07-.06-.15-.1-.22v-.05l.05,0s.19,0,.19-.07l-.12-.06s0,0,0,0,.21,0,.13-.08l-.2,0h0l.23,0-.13,0c.25,0,.33-.06.08-.13,0,0,0,0,0,0s-.13-.08-.22-.12h0c.07,0,.11-.05.4,0l-.1,0c.16,0,.06-.11-.25-.18h0l.06,0c.23,0,.25,0,.16-.08a0,0,0,0,0,0,0,1.07,1.07,0,0,1-.06-.29s0,0,0,0,.09,0,.1,0,0,0-.05,0,0-.11-.11-.2h0l.08,0,.11,0s-.1-.08-.05-.1.08,0,.1,0,0,0,.23,0l-.16-.08c.29,0,.12-.11,0-.19.06,0,.12-.05.14-.08s0-.09-.27-.17l0-.08-.27-.07h0l-.5-.12h0l-.1,0c0,.06.08.13,0,.17s-.2.07-.17.14v.06a.87.87,0,0,1,0,.22s-.12.06,0,.12l0,0a.37.37,0,0,0,.06.24v0H47c-.34,0-.4,0-.38.13s-.37.37.07.62l.23.14,0,.31c-.06,0-.09,0,0,.05-.61-.05-.48.14-.35.21h.11c0,.07.14.21-.06.24.12,0,.18.06.29.08V233c-.18,0-.44,0-.54,0,.44,0,.44.12.43.16s0,.05-.06.08h-.08s0,.06,0,.08h0c-.06,0,0,.07.28.08v0c-.12,0-.3.07-.31.12s.16.1.2.15l.11.06V234c-.18.09-.11.16-.1.25s0,.12.12.14h0c0,.23,0,.45.09.67Zm.2-4.06v-.05h0Zm.14-.16h0Z"/><path class="cls-2" d="M51.19,240.47v-.21l.15,0c.23-.1.05-.19,0-.3l-.1-.15c0-.27,0-.55.07-.84.09,0,.23,0,.25-.08s-.12-.11-.16-.17c-.16-.31.56-.48.34-.78a1,1,0,0,1-.22-.52v-.19l.1-.74.13-.12c.15-.14,0-.32,0-.47l0-.1a.12.12,0,0,1,.05-.07c.06,0,.21-.09.21-.15s-.08-.09-.1-.13a.18.18,0,0,0,0-.09c.09-.06.22-.07.15-.19s-.13,0-.19-.05v0l.24-.07-.13-.07c.26,0,.35-.16.11-.28a.1.1,0,0,0,0-.08c0-.07-.12-.15-.21-.22v0c.08-.07.12-.13.42-.15l-.1-.05c.16-.06.08-.25-.24-.35h0l.06-.06c.24-.06.26-.13.18-.21a.27.27,0,0,0,0-.12c0-.21,0-.42-.06-.64,0,0,0-.05,0-.07s.1-.09.1-.14a.25.25,0,0,0-.05-.08.33.33,0,0,0-.12-.37h0l.07-.1h.11c0-.07-.1-.14-.06-.21h.11c-.12-.07,0-.1.23-.07-.07,0-.1-.07-.17-.1.3,0,.12-.3,0-.41a.59.59,0,0,0,.13-.23v-.13a.51.51,0,0,0,0-.09.73.73,0,0,0-.08-.26l-.49-.4-.77.2a.64.64,0,0,0-.18.29l0,.07v.09c0,.09,0,.08,0,.11s.12.06.28.08l0,.19.29,0h0l.51,0h.1c0-.1-.08-.23-.06-.27h0V231s0,.06-.19.21l-.48-.07-.1-.16a.23.23,0,0,1,0-.09v0h0l0,0-.05,0a.41.41,0,0,0,0,.09.37.37,0,0,0,0,.18v.12a3.39,3.39,0,0,1,0,.45c0,.08-.12.17,0,.25l0,0a1.42,1.42,0,0,0,.08.45v.09l-.07,0c-.34.1-.39.16-.38.33,0,.38-.4.75,0,1.19l.22.25L51,235c-.06,0-.1.05-.05.1-.61-.08-.52.3-.4.43l.12,0c0,.13.08.41-.12.47.11.06.16.12.27.17l0,.16a2.64,2.64,0,0,0-.55.07c.43.1.41.26.39.34s-.06.1-.08.16h-.08c-.06,0,0,.1,0,.16l0,0c-.07.07,0,.14.26.2v0c-.13.07-.31.1-.34.19s.13.22.16.32a.28.28,0,0,0,.1.14l-.06.46c-.2.15-.15.31-.17.49s-.08.21.08.31h0a8.07,8.07,0,0,0,0,1.4Zm1-8.77v-.11h0Zm.13-.38h0Z"/><path class="cls-2" d="M55.2,245.45l0-.35a.47.47,0,0,0,.14-.08c.23-.17,0-.3-.06-.46l-.11-.21-.07-1.2c.09-.06.22-.12.23-.18s-.14-.12-.18-.2c-.23-.4.45-.79.18-1.16a1.42,1.42,0,0,1-.32-.68l0-.25,0-1,.1-.21c.12-.23-.08-.43-.13-.63v-.15l0-.1c.05-.07.19-.18.18-.25s-.09-.11-.12-.16a.31.31,0,0,0,0-.13c.07-.1.2-.15.11-.3a1.2,1.2,0,0,1-.2,0v0l.22-.15-.13-.06c.24-.11.32-.29.07-.42a.36.36,0,0,0,0-.11c0-.1-.14-.17-.23-.26v0c.06-.11.1-.2.39-.28l-.11-.05c.15-.11.05-.35-.27-.43h0l.06-.09c.23-.11.24-.2.16-.31a.43.43,0,0,0,0-.16,7.71,7.71,0,0,1-.08-.84s0,0,0-.08a.38.38,0,0,0,.09-.18.12.12,0,0,0,0-.11.57.57,0,0,0-.1-.51h0l.07-.12h.12c0-.09-.09-.18,0-.27s.08,0,.1,0,0-.13.24-.08c-.07,0-.1-.1-.16-.13.3,0,.15-.39,0-.53a.87.87,0,0,0,.17-.27c.07-.15.07-.19-.22-.31l.08-.21-.26-.12h0l-.05,0-.46-.21h0l-.1,0a2.18,2.18,0,0,1-.08.48.48.48,0,0,0-.25.5l0,.18c0,.22,0,.44-.08.65s-.14.24,0,.36,0,0,0,0a3.55,3.55,0,0,0,.06.64v.13l-.07,0c-.34.16-.4.27-.37.52.06.56-.34,1.17.13,1.71l.25.31v.89c-.05,0-.08.09,0,.14-.61,0-.46.53-.31.69h.11c0,.17.16.55,0,.67a2.19,2.19,0,0,0,.29.17v.22a2.7,2.7,0,0,0-.53.23c.45,0,.46.26.46.39s0,.14-.06.23h-.07c-.05.07,0,.14,0,.21h-.05c0,.11,0,.19.3.21V241c-.12.12-.3.21-.3.33s.17.27.22.4a.47.47,0,0,0,.12.18l0,.64c-.18.25-.09.45-.08.7s0,.3.13.41h0l.09,1.86ZM55,233.08l0-.15h0Zm.17-.5Z"/><path class="cls-2" d="M58.94,251.85l-.07-.42.13-.12c.21-.22,0-.38-.1-.58s-.09-.18-.13-.27l-.12-1.59c.08-.07.21-.15.22-.23s-.14-.17-.19-.27c-.23-.53.44-1,.16-1.53a2.46,2.46,0,0,1-.33-.9l0-.35,0-1.38.1-.27c.12-.3-.08-.57-.13-.84v-.2a.65.65,0,0,1,0-.13c0-.09.18-.24.18-.34s-.1-.14-.13-.21a.57.57,0,0,0,0-.18c.08-.13.2-.19.12-.39a.59.59,0,0,1-.2,0v0a2.15,2.15,0,0,1,.22-.19l-.13-.09c.24-.15.31-.39.06-.55a.26.26,0,0,0,0-.15c0-.13-.14-.24-.23-.35v-.05a.56.56,0,0,1,.39-.38l-.11-.07c.15-.14.05-.47-.27-.57h0l.05-.12c.23-.15.24-.28.16-.42a.79.79,0,0,0,0-.22c0-.36-.07-.73-.09-1.12v-.1a.56.56,0,0,0,.1-.26.24.24,0,0,0-.05-.14.92.92,0,0,0-.11-.68h0l.08-.17a.41.41,0,0,1,.11,0,.54.54,0,0,1,0-.37s.09,0,.11,0,0-.18.23-.14c-.06,0-.09-.12-.15-.16.3-.06.13-.55,0-.73a1.36,1.36,0,0,0,.18-.39c.06-.25.07-.29-.23-.39l.08-.29-.27-.1h0l-.48-.19v0l-.1-.05a3.85,3.85,0,0,1-.08.64.77.77,0,0,0-.24.66c0,.08,0,.15,0,.24a8.54,8.54,0,0,1-.07.86c0,.15-.12.31,0,.46l.05.06a3.25,3.25,0,0,0,.07.82v.18l-.07.05a.64.64,0,0,0-.37.7c.07.74-.33,1.55.14,2.26l.25.41v1.17a.13.13,0,0,0,0,.19c-.61,0-.46.7-.31.92h.11c0,.23.16.73,0,.9.12.07.18.16.29.23v.29c-.17.1-.43.17-.52.3.44.06.46.35.45.51s0,.2-.05.31h-.08a.57.57,0,0,0,0,.29l0,0c-.05.15,0,.26.3.29V246c-.11.16-.29.28-.29.45s.17.35.22.53a.62.62,0,0,0,.12.23l0,.86a1.55,1.55,0,0,0-.06.93c0,.17,0,.4.14.54h0c.07.83.12,1.65.26,2.51Zm-.42-16.4v-.2h0Zm.16-.7Z"/><path class="cls-2" d="M62,255.86l.07-.51a.75.75,0,0,0,.17-.1c.26-.2.09-.42,0-.67l-.08-.31.12-1.74c.1-.07.23-.13.26-.21s-.13-.2-.16-.32c-.17-.59.54-1.07.32-1.64a2.73,2.73,0,0,1-.25-1V249l.06-1.49.12-.28c.14-.32,0-.63-.07-.92v-.21a.39.39,0,0,1,.05-.14c0-.09.2-.24.19-.35s-.08-.15-.11-.23a.77.77,0,0,0,0-.19c.08-.14.2-.2.13-.41a.85.85,0,0,1-.19-.06v0a2.33,2.33,0,0,1,.23-.19l-.13-.1c.25-.15.34-.4.09-.59a.23.23,0,0,0,0-.16c0-.14-.13-.26-.21-.39v-.05a.59.59,0,0,1,.41-.39l-.1-.08c.16-.15.07-.51-.25-.62h0l.06-.14c.24-.15.25-.28.17-.44a.85.85,0,0,0,0-.23c0-.39,0-.8,0-1.21,0,0,0-.07,0-.11a.6.6,0,0,0,.1-.27.29.29,0,0,0,0-.16,1.1,1.1,0,0,0-.08-.73h0l.08-.19h.11a.56.56,0,0,1,0-.4s.08,0,.1,0,0-.19.24-.15c-.06,0-.09-.13-.15-.17.3-.07.15-.59,0-.79a2,2,0,0,0,.19-.43c.06-.26.07-.34-.23-.43l.08-.34-.27-.08h0l-.49-.15v0l-.1,0a3.27,3.27,0,0,1-.06.65.81.81,0,0,0-.25.7l0,.25c0,.3,0,.61-.09.91s-.14.34-.05.5l0,.06a5.35,5.35,0,0,0,0,.89v.19l-.07.05a.67.67,0,0,0-.39.73c0,.79-.4,1.64,0,2.42l.23.45-.05,1.25c-.06.06-.1.13,0,.2-.61,0-.49.73-.36,1h.11c0,.25.12.8-.08,1,.11.08.17.19.28.26v.32c-.18.09-.44.15-.55.28a.48.48,0,0,1,.42.58c0,.08-.06.2-.08.32h-.07a.44.44,0,0,0,0,.3h-.05c-.06.14,0,.27.27.32v.09c-.13.16-.31.27-.33.45s.14.39.17.59a.72.72,0,0,0,.1.25l0,.92a1.84,1.84,0,0,0-.17,1c0,.17-.09.41.07.59h0a24.07,24.07,0,0,1-.27,2.6Zm1-17.76,0-.22h0Zm.18-.75h0v0Z"/><path class="cls-2" d="M65.85,260.82l0-.55a.61.61,0,0,0,.16-.12c.25-.22.09-.46,0-.73l-.07-.34.16-1.94c.1-.08.24-.14.26-.24s-.11-.22-.14-.35c-.14-.68.6-1.18.4-1.83a3.2,3.2,0,0,1-.19-1.13l0-.42.14-1.67.14-.31c.15-.35,0-.7,0-1l0-.24a.47.47,0,0,1,.06-.15c.06-.11.21-.27.21-.39s-.07-.18-.09-.27a1.6,1.6,0,0,0,0-.21c.09-.15.22-.21.16-.45a1.19,1.19,0,0,1-.2-.08v0l.24-.21L67.1,248a.4.4,0,0,0,.12-.66.37.37,0,0,0,0-.18,1.07,1.07,0,0,0-.19-.44v-.06a.6.6,0,0,1,.43-.42l-.1-.1a.48.48,0,0,0-.21-.71v0l.06-.14c.25-.16.28-.31.2-.49a1.17,1.17,0,0,0,0-.27c0-.44,0-.9,0-1.37V243a.89.89,0,0,0,.11-.31.39.39,0,0,0,0-.18,1.32,1.32,0,0,0-.07-.83h0l.08-.21s.08,0,.12,0a.87.87,0,0,1,0-.45s.09,0,.11,0c-.11-.16,0-.22.24-.17-.07-.05-.1-.15-.16-.2.31-.08.16-.69,0-.92a2.4,2.4,0,0,0,.16-.52c.06-.31,0-.45-.26-.5l0-.43-.28,0h-.05l-.51-.06v0h-.11a3.12,3.12,0,0,1,0,.67,1,1,0,0,0-.21.79l0,.27c0,.34,0,.68-.08,1,0,.18-.14.37-.06.56l0,.06a6.71,6.71,0,0,0,0,1l0,.21-.07.06a.79.79,0,0,0-.41.81c0,.89-.47,1.82-.08,2.72l.21.51-.12,1.41c-.06.07-.1.14-.06.22-.61,0-.53.79-.42,1.07a.5.5,0,0,1,.12,0c0,.28.07.9-.14,1.07.11.1.16.22.26.31l0,.35a2.45,2.45,0,0,0-.56.29.54.54,0,0,1,.39.68c0,.09-.07.23-.1.36h-.08a.78.78,0,0,0,0,.34l0,0c-.08.16,0,.3.25.38v.1c-.14.17-.33.29-.36.49s.12.45.15.67a.77.77,0,0,0,.08.29l-.09,1a2.47,2.47,0,0,0-.21,1.11c0,.2-.1.47,0,.67h0l-.26,3Zm1.72-19.94,0-.24h0Zm.18-.85h0v0Z"/><path class="cls-2" d="M69.27,263.68l.06-.55a.91.91,0,0,0,.16-.11c.26-.22.11-.47.05-.74l-.06-.36.23-1.95c.1-.08.24-.14.26-.23s-.11-.24-.13-.37c-.12-.68.63-1.18.45-1.84a3.51,3.51,0,0,1-.16-1.15l0-.42.19-1.69.14-.31c.16-.35,0-.71,0-1.05l0-.24a.47.47,0,0,1,.06-.15c.06-.11.22-.27.22-.39s-.07-.18-.09-.27a.9.9,0,0,0,.06-.22c.09-.15.22-.21.17-.46a.93.93,0,0,1-.2-.07v-.05a2.31,2.31,0,0,1,.24-.2.74.74,0,0,0-.12-.13.41.41,0,0,0,.14-.67.53.53,0,0,0,0-.18,1.18,1.18,0,0,0-.19-.45v-.06a.66.66,0,0,1,.44-.42l-.1-.1a.49.49,0,0,0-.21-.72v0l.06-.15c.25-.16.28-.32.2-.5a1.1,1.1,0,0,0,0-.27c0-.45,0-.91,0-1.39v-.12a1,1,0,0,0,.11-.31.58.58,0,0,0,0-.19,1.35,1.35,0,0,0-.08-.84h0l.08-.22s.08,0,.11,0a1,1,0,0,1,0-.46s.09,0,.1,0,0-.22.24-.18c-.07-.05-.1-.15-.16-.2.3-.11.14-.71,0-.94a2.83,2.83,0,0,0,.13-.56c0-.33,0-.51-.31-.51l0-.48-.28.05h0l0,0-.5.09v0h-.11a2.55,2.55,0,0,1,.12.6,1,1,0,0,0-.15.79c0,.08,0,.17,0,.27,0,.34,0,.68,0,1,0,.18-.13.38,0,.56l0,.06a6.69,6.69,0,0,0,0,1l0,.22-.07.06a.83.83,0,0,0-.42.82c0,.9-.47,1.84-.08,2.74l.2.51-.14,1.43a.17.17,0,0,0-.06.22c-.61,0-.55.8-.44,1.07,0,0,.07,0,.11,0,0,.29,0,.91-.16,1.08.11.11.15.23.26.32l0,.36a2,2,0,0,0-.57.28.54.54,0,0,1,.37.69c0,.09-.07.23-.1.36a.11.11,0,0,1-.08,0,.7.7,0,0,0,0,.35l0,0c-.07.16,0,.31.25.39l0,.1c-.14.17-.33.28-.36.48s.11.46.12.68a.77.77,0,0,0,.08.3l-.12,1a2.23,2.23,0,0,0-.24,1.11c0,.2-.12.47,0,.68h0l-.36,3Zm2.07-20.17v-.26h0Zm.15-.89h0v0Z"/><path class="cls-2" d="M73.6,266c0-.21.06-.38.08-.56a.91.91,0,0,0,.16-.11c.26-.22.11-.46,0-.72l-.07-.35.2-1.88c.1-.07.24-.14.26-.23s-.11-.22-.14-.35c-.14-.66.61-1.14.41-1.77a3.58,3.58,0,0,1-.18-1.11l0-.4.16-1.63.13-.3c.16-.34,0-.69,0-1l0-.23a.47.47,0,0,1,.06-.15c.06-.1.21-.26.21-.37s-.07-.18-.09-.26a1.6,1.6,0,0,0,0-.21c.09-.15.22-.21.16-.45a.93.93,0,0,1-.2-.07v0a2.31,2.31,0,0,1,.24-.2l-.12-.12c.25-.15.36-.42.12-.64a.39.39,0,0,0,0-.18,1,1,0,0,0-.2-.43v-.06a.63.63,0,0,1,.43-.41l-.1-.09a.45.45,0,0,0-.22-.69v0l.06-.14c.25-.16.27-.31.2-.48a1.15,1.15,0,0,0,0-.26c0-.43,0-.88,0-1.33v-.13a.65.65,0,0,0,.11-.29.27.27,0,0,0,0-.18,1.26,1.26,0,0,0-.07-.81h0l.08-.21h.11a.93.93,0,0,1,0-.44s.09,0,.11,0c-.11-.15,0-.22.24-.17-.07-.05-.1-.15-.16-.2.3-.09.14-.67,0-.89a2.6,2.6,0,0,0,.14-.53,2,2,0,0,0,0-.27v-.13s0-.13-.06-.19a.8.8,0,0,0-.16-.23.74.74,0,0,0-.36-.21.85.85,0,0,0-.57.07.77.77,0,0,0-.26.23l0,0,0,.1a.3.3,0,0,0,0,.1v.09a.2.2,0,0,0,0,.11c0,.1.1.14.25.18l0,.42.28,0h0l.51.06v0l.11,0a3.28,3.28,0,0,0,0-.34v-.2h0l0,.08v0A.41.41,0,0,1,75,245a.46.46,0,0,1-.18-.11l0,0,0-.05a.37.37,0,0,1,0-.11h0v0h0a.89.89,0,0,0-.17.73l0,.27c0,.32,0,.66-.07,1s-.13.37,0,.55l0,.06a7.7,7.7,0,0,0,0,1v.21l-.07.05a.8.8,0,0,0-.42.8c0,.86-.45,1.77-.06,2.64l.21.49L74,253.79a.18.18,0,0,0-.06.22c-.61,0-.54.77-.42,1,0,0,.07,0,.11,0,0,.28.07.88-.13,1a3.88,3.88,0,0,0,.26.31l0,.34c-.19.1-.45.15-.57.28a.53.53,0,0,1,.39.66c0,.09-.07.22-.1.35h-.08a.65.65,0,0,0,0,.34l0,0c-.07.16,0,.3.25.37v.1c-.13.17-.33.28-.36.47s.12.44.14.66a1,1,0,0,0,.09.29l-.1,1a2.15,2.15,0,0,0-.22,1.06c0,.2-.11.46,0,.65h0c-.11,1-.2,2-.34,2.87Zm1.84-19.45,0-.25h0Zm.16-.85h0v0Z"/><path class="cls-2" d="M77.94,267.16l0-.43a.54.54,0,0,0,.15-.09c.25-.17.09-.37,0-.58l-.08-.28.13-1.53c.1-.06.24-.11.26-.18s-.12-.19-.15-.29c-.15-.54.58-.92.37-1.44a2.31,2.31,0,0,1-.21-.9l0-.33.12-1.32.14-.24c.15-.28,0-.57,0-.83v-.19a.39.39,0,0,1,.06-.11c.06-.09.21-.21.21-.31s-.07-.14-.1-.21a.37.37,0,0,0,0-.17c.09-.12.22-.16.16-.36a1.17,1.17,0,0,1-.2-.06v0l.24-.15L79,257c.26-.12.36-.34.13-.52a.35.35,0,0,0,0-.14c0-.13-.12-.24-.2-.36V256a.55.55,0,0,1,.43-.32l-.1-.08c.16-.12.09-.45-.22-.57h0l.06-.11c.25-.12.27-.25.2-.39a.66.66,0,0,0,0-.21q0-.52,0-1.08s0-.07,0-.1a.48.48,0,0,0,.11-.24.22.22,0,0,0,0-.14.9.9,0,0,0-.07-.66h0l.08-.16h.12a.48.48,0,0,1,0-.35s.09,0,.1,0,0-.18.24-.13c-.06,0-.09-.12-.15-.16.31-.05.16-.53,0-.72a1.65,1.65,0,0,0,.17-.39c.06-.25.06-.33-.24-.4l.06-.31-.28-.07h0l-.5-.11v0l-.1,0a2,2,0,0,1,0,.56.68.68,0,0,0-.23.62l0,.22c0,.27,0,.54-.1.81s-.14.29-.06.44l0,.05a3.5,3.5,0,0,0,0,.79l0,.17-.07,0c-.36.19-.42.33-.42.64,0,.7-.46,1.43-.06,2.15l.21.41L78,257.25c-.06.05-.1.11-.05.17-.61,0-.53.62-.41.84,0,0,.07,0,.11,0,0,.22.08.71-.12.84a3.19,3.19,0,0,0,.26.26l0,.27a2.51,2.51,0,0,0-.56.22c.43.12.41.39.39.55s-.07.17-.09.28h-.08c-.06.09,0,.18,0,.28l0,0c-.07.13,0,.24.25.3v.08c-.14.14-.33.23-.35.38s.13.36.15.54a.75.75,0,0,0,.09.24l-.07.81a1.4,1.4,0,0,0-.2.87c0,.16-.1.37.06.53h0l-.21,2.37Zm1.54-15.76,0-.19h0Zm.19-.67Z"/><path class="cls-2" d="M84,267v-.32l.15-.07c.24-.15.06-.3,0-.47l-.09-.23.09-1.27c.09,0,.23-.08.25-.15s-.13-.15-.16-.23c-.17-.45.55-.77.33-1.2a1.65,1.65,0,0,1-.22-.75v-.27l.09-1.1.13-.2c.14-.23,0-.47-.06-.69v-.15a.21.21,0,0,1,.06-.1c0-.07.2-.18.2-.25s-.09-.12-.11-.18a.43.43,0,0,0,0-.14c.09-.1.21-.14.15-.3a1.93,1.93,0,0,1-.2,0v0a1.88,1.88,0,0,1,.24-.14l-.13-.08c.25-.09.34-.28.1-.43a.27.27,0,0,0,0-.12c0-.11-.13-.2-.22-.3v0c.07-.12.11-.21.41-.28l-.1-.07c.16-.1.07-.37-.25-.47h0l.06-.09c.24-.11.26-.21.17-.33a.36.36,0,0,0,0-.18c0-.29-.05-.59-.07-.9a.28.28,0,0,1,0-.09.4.4,0,0,0,.09-.2.18.18,0,0,0,0-.12.63.63,0,0,0-.12-.55h0l.07-.14H85a.48.48,0,0,1-.07-.3s.09,0,.11,0,0-.15.22-.13c-.06,0-.1-.1-.17-.13.3-.07.1-.47-.08-.62a1.27,1.27,0,0,0,.11-.38c0-.23,0-.34-.34-.31l0-.31-.28.05h0l0,0-.5.09h0l-.11,0a1.56,1.56,0,0,1,.13.38.48.48,0,0,0-.12.52v.17c0,.21,0,.43,0,.65s-.1.25,0,.37l0,0a2.41,2.41,0,0,0,.09.64v.14l-.06,0c-.35.17-.4.28-.38.54.06.58-.37,1.18.06,1.77l.23.34-.07.92c-.06.05-.09.09,0,.15-.61,0-.51.51-.38.69l.11,0c0,.18.1.59-.1.7.11.07.17.15.28.21l0,.23A2.22,2.22,0,0,0,83,261c.44.09.42.32.4.45a2.23,2.23,0,0,1-.08.24h-.07c-.06.07,0,.15,0,.22h0c-.07.11,0,.2.26.25v.07c-.13.11-.32.18-.34.31s.13.3.16.45a.47.47,0,0,0,.1.2l0,.67c-.21.24-.16.46-.17.73s-.09.31.07.44h0c0,.67-.11,1.3-.1,2ZM84.8,254v-.17h0Zm.1-.59Z"/><path class="cls-2" d="M88.17,266.29a1,1,0,0,0,0,.21v0h0s0,0,0,.06a.54.54,0,0,0,.25.27.37.37,0,0,0,.18,0,.45.45,0,0,0,.46-.3v-.05l0-.06v-.1a.76.76,0,0,0,.16-.06c.25-.11.08-.26,0-.4l-.09-.19.08-1c.09,0,.23-.06.25-.11s-.13-.13-.17-.19c-.17-.36.54-.61.31-.95a1.19,1.19,0,0,1-.25-.6v-.22l.06-.87.12-.16c.13-.18,0-.37-.08-.54V261a.15.15,0,0,1,0-.07c0-.06.2-.14.19-.2s-.08-.1-.11-.15a.21.21,0,0,0,0-.11c.08-.08.21-.1.14-.23l-.2,0v0l.23-.1-.13-.07c.25-.07.33-.22.09-.34a.16.16,0,0,0,0-.09c0-.09-.14-.16-.22-.24v0c.07-.09.11-.16.4-.22l-.1-.05c.16-.08.07-.3-.25-.37h0l0-.07c.24-.09.26-.17.17-.26a.22.22,0,0,0,0-.14c0-.23-.06-.47-.08-.71,0,0,0-.05,0-.07s.09-.1.09-.16a.14.14,0,0,0,0-.09.45.45,0,0,0-.11-.44h0l.07-.11H90c0-.08-.1-.16-.06-.24s.09,0,.11,0,0-.12.23-.09c-.07,0-.11-.08-.17-.11.3,0,.11-.35,0-.48a.84.84,0,0,0,.13-.27c0-.16,0-.23-.29-.26v-.22h-.33l-.51,0h-.11c0,.13.09.24.06.35a.35.35,0,0,0-.16.41v.15a3.2,3.2,0,0,1,0,.53c0,.09-.11.19,0,.29l0,0a1.93,1.93,0,0,0,.08.52v.11l-.06,0c-.34.13-.4.22-.37.42,0,.46-.36.95.08,1.42l.23.27,0,.73c-.06,0-.09.07,0,.12-.61,0-.49.4-.36.55h.11c0,.14.12.47-.07.55a2.61,2.61,0,0,0,.28.17l0,.19a2.35,2.35,0,0,0-.54.14c.44.07.44.25.42.36a1.13,1.13,0,0,0-.07.18h-.08c-.05.05,0,.11,0,.17h0c-.07.09,0,.16.27.2v.06c-.13.08-.32.14-.33.24s.14.24.17.36a.33.33,0,0,0,.11.15l0,.54c-.2.18-.14.36-.15.57s-.09.24.08.35h0l-.07.78,0,.38s0,.14,0,.12h0a.3.3,0,0,1,.12-.16.37.37,0,0,1,.31-.06.35.35,0,0,1,.26.24v0h0v-.08Zm1.64-10v-.13h0Zm.13-.45h0Z"/><path class="cls-2" d="M94.05,265.43l0-.21.15-.05c.23-.08.06-.18,0-.29l-.1-.14.05-.76c.09,0,.23-.05.25-.08s-.13-.1-.17-.15c-.18-.27.52-.45.29-.72a.73.73,0,0,1-.26-.45v-.16l0-.66.12-.12c.13-.14,0-.28-.09-.41v-.1l0-.06c.06,0,.2-.09.19-.14s-.08-.08-.11-.11a.2.2,0,0,0,0-.08c.08-.06.2-.08.13-.18l-.2,0h0a1.13,1.13,0,0,1,.22-.08l-.13-.05c.25-.05.34-.16.09-.26a.09.09,0,0,0,0-.07c0-.06-.14-.12-.22-.18v0c.07-.07.11-.12.4-.16l-.1,0c.15-.06.06-.22-.26-.29h0l.06-.06c.23-.06.25-.12.16-.19a.14.14,0,0,0,0-.11c0-.17-.06-.35-.08-.54v0c.05,0,.1-.07.1-.11a.1.1,0,0,0,0-.08.27.27,0,0,0-.12-.33h0l.07-.09h.11c0-.06-.1-.12-.06-.18h.11c-.12-.06,0-.08.23-.06-.07,0-.11-.06-.17-.08.3,0,.11-.27,0-.36a.6.6,0,0,0,.13-.21c0-.12,0-.17-.29-.2v-.17l-.29,0h0l-.51,0h-.11c0,.1.1.18.07.27-.19.08-.2.19-.16.3v.11a1.8,1.8,0,0,1,0,.4c0,.07-.11.15,0,.22l0,0a.92.92,0,0,0,.09.39v.09l-.07,0c-.34.09-.39.15-.36.31,0,.35-.36.71.09,1.07l.23.21,0,.56c-.06,0-.09,0,0,.08-.61,0-.49.3-.36.41h.11c0,.12.13.36-.07.42.12.05.17.1.28.14v.14a3.32,3.32,0,0,0-.55.09c.44.07.44.21.43.28s-.06.09-.08.14h-.07c-.06.05,0,.09,0,.14h0c-.06.06,0,.12.27.16v0c-.13.06-.31.1-.33.18s.15.18.19.27a.23.23,0,0,0,.1.12l0,.4c-.19.14-.13.28-.14.44s-.08.18.09.26h0l-.08,1.18Zm.53-7.86v-.1h0Zm.12-.34Z"/><path class="cls-2" d="M44.47,175.69l.9-.36.28,0c.5,0,.79-.33,1.17-.62l.47-.4A11.81,11.81,0,0,0,50,172.13a1.22,1.22,0,0,0,.49-.19c.17-.16.14-.4.25-.6a7.13,7.13,0,0,1,1-1.36,6.7,6.7,0,0,0,.51-.68,2.59,2.59,0,0,0,.3-.79c.11-.71.19-1.31.34-2,.06-.23.1-.48.15-.72a17.43,17.43,0,0,0,.34-3c0-.19.1-.38.13-.56a5.41,5.41,0,0,0-.15-1.82l0-.43a2.45,2.45,0,0,1,0-.27,2.58,2.58,0,0,0,.11-.73,2.35,2.35,0,0,0-.17-.44c0-.13,0-.26,0-.38a1.37,1.37,0,0,0,0-.85c-.09,0-.15,0-.22-.06l0-.07a3.66,3.66,0,0,1,.15-.43,1.29,1.29,0,0,0-.17-.16,1,1,0,0,0-.18-1.18,1.2,1.2,0,0,0-.06-.32,2.1,2.1,0,0,0-.41-.66l0-.1a1.26,1.26,0,0,1,.15-.9l-.15-.12a1.13,1.13,0,0,0-.63-1v0l0-.27a.89.89,0,0,0-.11-.88,2.54,2.54,0,0,0-.13-.45c-.26-.71-.54-1.45-.8-2.21l-.07-.21a2,2,0,0,0-.08-.54,1.46,1.46,0,0,0-.14-.28,3.57,3.57,0,0,0-.56-1.31v0l-.05-.38s.07,0,.1-.05a2.81,2.81,0,0,1-.3-.71s.09,0,.1,0c-.19-.2-.14-.35.12-.39-.09,0-.18-.2-.26-.25.22-.28-.26-1.18-.54-1.48a7.08,7.08,0,0,0-.16-.92c-.14-.54-.23-.75-.53-.68l-.22-.71-.27.09v0l0,0-.49.15v0l-.1,0c.15.41.33.72.42,1.08a3,3,0,0,0,.28,1.38l.15.45c.17.56.37,1.11.52,1.68a3,3,0,0,0,.28.93l.08.08c.18.54.38,1.07.61,1.6l.11.35,0,.13A2,2,0,0,0,49.7,150c.53,1.42.66,3.2,1.54,4.4.17.26.32.5.46.74.2.78.37,1.57.51,2.36a.44.44,0,0,0,0,.39c-.58.17-.27,1.46-.09,1.89h.11a4.52,4.52,0,0,1,.05,1.82c.12.15.18.34.29.48s0,.4,0,.6c-.18.19-.44.31-.56.54.43.18.39.78.34,1.11,0,.15-.1.37-.15.6h-.08a2.13,2.13,0,0,0-.1.56l0,0a.48.48,0,0,0,.15.65l0,.16a2.93,2.93,0,0,0-.53.75c-.13.32-.06.74-.18,1.09a1.59,1.59,0,0,0-.08.48,11.72,11.72,0,0,1-.83,1.52,5.64,5.64,0,0,0-.63.68,9.22,9.22,0,0,1-.6.73c-.22.26-.6.51-.71.84v0a13,13,0,0,1-4.37,2.51Zm4.93-30.92-.13-.41,0,0Zm-.35-1.47h0v0Z"/><path class="cls-2" d="M121.1,254l.72-.35a.78.78,0,0,0,.23.05c.43.05.65-.26,1-.5l.37-.36,1.2-.77,1.1-.92c.15,0,.34,0,.44-.08s.13-.34.23-.5a4.93,4.93,0,0,1,1-1,2.11,2.11,0,0,0,.85-1.1c.14-.58.3-1,.47-1.61l.22-.58c.13-.39.23-.79.34-1.19s.16-.81.23-1.21c.06-.15.11-.3.16-.45a3.57,3.57,0,0,0,0-1.53c0-.11,0-.23,0-.35a1,1,0,0,1,0-.23,1.6,1.6,0,0,0,.14-.61,3.76,3.76,0,0,0-.16-.37,1.69,1.69,0,0,0,0-.32c0-.26.15-.37,0-.74h-.05l-.3-.41-.14.09,0,0c-.05-.12-.12-.24-.16-.36a1.38,1.38,0,0,0-.2,0,.71.71,0,0,0-.78-.56,1.08,1.08,0,0,0-.2-.16,1.73,1.73,0,0,0-.64-.12l-.07,0a.87.87,0,0,1-.34-.68l-.17,0a.78.78,0,0,0-1-.28l0,0-.16-.15a.62.62,0,0,0-.53-.51,2,2,0,0,0-.32-.22l-1.7-.91-.15-.1a1.38,1.38,0,0,0-.34-.3.59.59,0,0,0-.24-.09A2.59,2.59,0,0,0,121,234h0l-.23-.21s0-.07,0-.11a1.43,1.43,0,0,1-.57-.27s0-.07,0-.09c-.24,0-.28-.13-.12-.33-.08,0-.22,0-.31,0,0-.33-.79-.6-1.14-.61a4.52,4.52,0,0,0-.58-.5c-.37-.27-.55-.34-.73-.1l-.51-.32-.16.25h0l0,.05-.27.43,0,0-.06.09a8.39,8.39,0,0,1,.85.43,2,2,0,0,0,.9.72l.33.2c.4.25.83.48,1.23.76.21.14.41.38.67.42a.17.17,0,0,0,.1,0,12.28,12.28,0,0,0,1.25.65l.26.16,0,.1a1.39,1.39,0,0,0,.84.93c1.11.59,2.07,1.65,3.35,1.89l.72.15,1.71,1.06v0l-.17-.23a.29.29,0,0,0,0,.28c-.58.16-.29,1.15-.16,1.51h.12c.05.37.16,1.21,0,1.45.1.13.14.29.25.41l-.05.49c-.19.13-.47.2-.6.37a.69.69,0,0,1,.26.92c0,.12-.13.29-.19.46H128a1.41,1.41,0,0,0-.14.44l0,0a.36.36,0,0,0,.09.55l0,.13a2.15,2.15,0,0,0-.56.52,4.52,4.52,0,0,0-.24.86,2.5,2.5,0,0,0-.11.4c-.28.37-.53.78-.84,1.14-.51.25-.72.65-1.14,1-.22.18-.55.37-.63.67h0a5.66,5.66,0,0,1-.85.6l-.87.56c-.62.33-1.25.61-1.88.92ZM120,233.43l-.3-.18v0Zm-1-.74h0l0,0Z"/><path class="cls-2" d="M53.75,232.05l.6-.54a.62.62,0,0,0,.23,0c.42-.11.54-.48.7-.84.07-.16.15-.31.22-.47a8,8,0,0,0,1.21-2.61c.11-.09.27-.18.32-.32s-.07-.35-.08-.54a4.6,4.6,0,0,1,.23-1.39,2.17,2.17,0,0,0,0-1.38,15.48,15.48,0,0,1-.62-1.54c-.06-.19-.11-.38-.19-.57a16.14,16.14,0,0,0-.93-2.23c0-.16-.07-.31-.11-.46a3.47,3.47,0,0,0-.85-1.22l-.18-.29a1,1,0,0,1-.09-.21,1.88,1.88,0,0,0-.19-.58c-.08-.1-.23-.15-.33-.24l0-.07,0-.07-.24-.12-.22-.09c-.19-.14-.25-.28-.59-.31a.61.61,0,0,1-.14.17h-.06c-.07-.1-.17-.19-.24-.3l-.18.08a.69.69,0,0,0-.88-.35.92.92,0,0,0-.23-.09,1.53,1.53,0,0,0-.64,0l-.08,0a.88.88,0,0,1-.5-.56l-.15.06a.8.8,0,0,0-1,0h0l-.19-.11a.64.64,0,0,0-.64-.36,1.9,1.9,0,0,0-.36-.12c-.6-.14-1.22-.28-1.85-.45l-.17-.05a1.53,1.53,0,0,0-.4-.21.74.74,0,0,0-.25,0,2.64,2.64,0,0,0-1.14-.2h0l-.28-.15a.45.45,0,0,0,0-.11,1.49,1.49,0,0,1-.62-.12s0-.08,0-.1c-.23.06-.31,0-.2-.29-.07.05-.21,0-.3.09-.06-.33-.9-.38-1.24-.31a6.08,6.08,0,0,0-.68-.33c-.42-.16-.61-.19-.72.1l-.57-.18-.09.27h0v.06l-.15.49h0l0,.1a7.25,7.25,0,0,1,.93.19,1.88,1.88,0,0,0,1,.47l.37.11c.45.14.92.25,1.37.42a2,2,0,0,0,.75.24l.09,0a10.15,10.15,0,0,0,1.35.3l.29.09.07.09a1.33,1.33,0,0,0,1,.68c1.21.29,2.4,1.06,3.68,1l.73,0,1.89.59a.35.35,0,0,0,.3.12c-.06.29.16.48.45.6l-.41-.27a2.63,2.63,0,0,0,.61.63s.06,0,.1-.06c.23.3.77.94.73,1.26.17.05.29.16.45.2l.22.43a2.71,2.71,0,0,0-.28.64c.46-.08.66.35.76.61s.06.31.12.48a.1.1,0,0,1-.07,0,1.27,1.27,0,0,0,.15.44h-.05a.36.36,0,0,0,.41.37l0,.14c0,.27-.18.49-.13.74s.28.54.35.82a1.17,1.17,0,0,0,.16.37,8,8,0,0,1,0,1.38,7.93,7.93,0,0,0-.34,1.44,2,2,0,0,0-.18.86h0a8.32,8.32,0,0,1-2.39,3.19ZM42.33,213l-.33-.1v0Zm-1.14-.46h0l0,0Z"/><path class="cls-2" d="M15.49,157.89l-.29,0-.09-.13c-.16-.21-.26,0-.39.09l-.17.12a7.43,7.43,0,0,1-1,.09c0-.09-.1-.22-.15-.23s-.11.14-.18.18c-.36.21-.65-.46-1-.24a1.14,1.14,0,0,1-.6.24h-.23l-.88-.15-.14-.13c-.16-.15-.37,0-.55,0l-.12,0-.07-.07c0-.07-.08-.22-.14-.23s-.12.06-.17.07a.28.28,0,0,0-.09-.07c-.05-.1,0-.23-.18-.21a1.45,1.45,0,0,1-.1.18h0a2.09,2.09,0,0,1,0-.25l-.11.1c0-.26-.08-.38-.29-.2a.11.11,0,0,0-.06-.07c-.08,0-.2.06-.3.1h0c0-.11-.1-.17,0-.46l-.09.07c0-.16-.21-.19-.44,0h0l0-.09c.05-.25,0-.3-.12-.28a.31.31,0,0,0-.11-.08c-.19-.11-.39-.23-.59-.37a.1.1,0,0,1,0-.05c0-.07,0-.14,0-.17s-.06,0-.1,0a.45.45,0,0,0-.38-.23h0v-.13a.5.5,0,0,1,.08-.07c-.08,0-.17-.06-.19-.14l.08-.06c-.14,0-.09-.07.13-.21-.06,0-.12,0-.19,0,.22-.21-.1-.33-.3-.35a.84.84,0,0,0,0-.28c0-.15-.09-.19-.37-.08l-.07-.18L5,154H5l0,0-.49.16h0l-.1,0c.08.16.2.23.24.36a.4.4,0,0,0,.09.5l.09.14c.11.17.24.33.34.5s.06.25.2.27,0,0,.06,0a1.55,1.55,0,0,0,.47.36l.08.1,0,.07c-.12.36-.06.46.14.6s.4.39.62.57a.81.81,0,0,0,.81.25l.37-.07a6.36,6.36,0,0,0,.75.34c0,.07,0,.11.11.08-.11.29,0,.45.1.53a.5.5,0,0,0,.4,0s0-.07,0-.1.54,0,.6.22c.08-.1.16-.13.23-.24l.2,0a2.62,2.62,0,0,0,.09.56c.14-.42.34-.39.45-.37l.2.1v.08c.06.06.13,0,.2,0l0,0c.1.06.19,0,.24-.27h.06c.09.12.15.31.27.33s.27-.14.39-.18a.29.29,0,0,0,.17-.1,3.87,3.87,0,0,0,.59,0c.22.18.41.11.64.1s.28.06.37-.12h0l1.69-.2Zm-9.62-2.84-.07-.11,0,0Zm-.15-.43h0Z"/><path class="cls-2" d="M269,139.83c0,.27.09.53.11.81a2,2,0,0,0-.12.21c-.19.39,0,.71.12,1.11l.11.51c0,1,0,2-.11,3-.1.12-.25.22-.28.37s.11.34.13.54c.07,1-.74,1.8-.67,2.78a5.9,5.9,0,0,1-.07,1.73l-.14.63c-.21.84-.45,1.67-.71,2.49l-.26.43a6,6,0,0,0-.44,1.53l-.14.35a1.37,1.37,0,0,1-.13.2,2.8,2.8,0,0,0-.41.5c0,.13,0,.28-.05.41l-.17.29c-.17.2-.32.24-.41.6a.55.55,0,0,1,.14.17l0,.06c-.12.07-.23.15-.36.21a1.6,1.6,0,0,0,.05.21.83.83,0,0,0-.55.87,1.34,1.34,0,0,0-.16.23,2.26,2.26,0,0,0-.12.68l-.05.07a1,1,0,0,1-.71.39l0,.17a.9.9,0,0,0-.36,1l0,0-.18.16a.7.7,0,0,0-.59.52,2.85,2.85,0,0,0-.27.32l-.61.81c-.22.27-.45.53-.68.8l-.13.14a1.43,1.43,0,0,0-.41.26.69.69,0,0,0-.17.22,3.38,3.38,0,0,0-.85.92h0l-.3.16s0-.07-.07-.08a2,2,0,0,1-.51.45s-.05-.08-.06-.09c-.11.23-.26.22-.37,0,0,.08-.11.21-.13.3-.31-.17-.93.47-1.14.76a5,5,0,0,0-.77.26c-.44.18-.62.27-.52.57l-.6.25.11.27h0l0,0,.19.48,0,0,0,.11a8.25,8.25,0,0,1,1-.51,2.28,2.28,0,0,0,1.22-.45,4.29,4.29,0,0,0,.38-.23c.47-.28.92-.58,1.37-.89.24-.16.58-.28.73-.54a.3.3,0,0,0,0-.1,7.9,7.9,0,0,0,1.13-1.11l.25-.23.12,0a1.74,1.74,0,0,0,1.2-.74c.89-1.11,2.14-2.17,2.47-3.59.06-.29.14-.53.19-.8.38-.64.73-1.3,1.06-2a.37.37,0,0,0,.18-.31c.59.2,1-1,1-1.47,0,0-.07,0-.1-.05.17-.42.37-1.37.66-1.58-.06-.19-.06-.37-.13-.53l.18-.53c.23-.12.51-.16.67-.35-.38-.27-.22-.8-.13-1.1,0-.14.15-.34.22-.54h.08a1.67,1.67,0,0,0,.14-.53l0,0a.44.44,0,0,0-.14-.62l0-.15a2.09,2.09,0,0,0,.49-.73,5.36,5.36,0,0,0,0-1.06,1.71,1.71,0,0,0,0-.47c.09-.53.17-1.07.25-1.61a5,5,0,0,0,.3-1.74,2.07,2.07,0,0,0,0-1.05h0a21.13,21.13,0,0,0-.2-4.76ZM258.28,167.3a3.37,3.37,0,0,1-.31.21l0,0C258.06,167.44,258.17,167.36,258.28,167.3Zm-1.17.62h0Z"/><path class="cls-2" d="M111.09,257.08v-.15l.14-.05c.23-.07,0-.13,0-.21l-.11-.09,0-.57c.09,0,.23,0,.24-.08s-.14-.06-.18-.09c-.2-.19.49-.37.23-.54s-.27-.2-.29-.32l0-.12v-.48l.1-.1c.12-.11-.07-.2-.11-.3v-.07l0,0s.19-.09.18-.12-.09-.05-.12-.07a.13.13,0,0,0,0-.07c.07-.05.2-.07.12-.14h-.21l.22-.07-.14,0c.25-.06.32-.14.07-.2a0,0,0,0,0,0-.05s-.14-.08-.24-.12h0c.07-.06.1-.1.39-.15l-.1,0c.15-.05,0-.17-.29-.19h0l0,0c.23-.06.24-.1.15-.15a.11.11,0,0,0,0-.08,3,3,0,0,1-.13-.39v0s.09-.06.08-.09,0,0,0-.05,0-.16-.15-.23h0l.06-.06h.12s-.11-.08-.08-.13h.11c-.13,0,0-.06.22-.06-.07,0-.11,0-.17,0,.29,0,.09-.2-.09-.26a.42.42,0,0,0,.12-.16c0-.09,0-.13-.31-.13v-.12h-1c0,.07.11.13.09.19-.18.08-.18.16-.13.24v.07a1,1,0,0,1,0,.3s-.1.11,0,.16l0,0a.57.57,0,0,0,.12.28v.06l-.06,0c-.34.09-.38.15-.35.26s-.29.54.19.78l.25.13v.41c-.06,0-.09,0,0,.07-.61,0-.47.25-.32.33h.11c0,.08.15.25,0,.31l.3.07v.11a2.7,2.7,0,0,0-.53.11c.44,0,.45.11.44.17s0,.07-.06.11H110s0,.06,0,.09h0c-.06,0,0,.09.28.1v0c-.12.05-.3.1-.31.15s.17.13.21.19a.24.24,0,0,0,.11.08v.3c-.18.11-.11.21-.11.32s-.06.14.11.19h0l0,.87Zm-.14-5.79v-.07h0Zm.1-.26Z"/><path class="cls-2" d="M114.37,261.2l0-.22.14-.06c.23-.11,0-.19,0-.29l-.11-.13,0-.78c.09,0,.22-.07.24-.11s-.14-.08-.18-.13c-.2-.27.49-.5.24-.75a.86.86,0,0,1-.28-.45v-.86l.11-.13c.13-.14-.06-.29-.1-.42v-.1l0-.06c.05,0,.19-.12.18-.17s-.09-.07-.12-.11a.12.12,0,0,0,0-.09c.08-.06.2-.09.12-.19l-.2,0v0l.22-.1-.13,0c.24-.07.32-.2.07-.28a.08.08,0,0,0,0-.08c0-.07-.14-.12-.24-.17v0c.07-.07.1-.13.39-.2l-.11,0c.15-.08,0-.25-.28-.28h0l0-.06c.23-.09.23-.16.14-.23a.2.2,0,0,0,0-.11,5.15,5.15,0,0,1-.16-.56.13.13,0,0,1,0-.06s.08-.09.07-.14,0,0-.06-.07a.29.29,0,0,0-.18-.32h0l.06-.1.11,0c0-.05-.13-.1-.1-.17l.1,0c-.13,0,0-.09.22-.11l-.19,0c.29-.09.06-.31-.13-.37a.9.9,0,0,0,.08-.25c0-.14,0-.19-.34-.14l0-.17-.28,0h0l-.5.1h0l-.1,0c0,.09.13.16.13.25-.17.13-.15.23-.09.34l0,.1a2.79,2.79,0,0,1,.07.4c0,.07-.09.17,0,.22l0,0a1.5,1.5,0,0,0,.15.38v.09l-.06,0c-.32.14-.37.21-.32.36.11.35-.26.74.22,1.06l.25.2v.57s-.08.06,0,.09c-.61,0-.47.33-.33.44h.11c0,.12.14.37,0,.44a2.52,2.52,0,0,0,.29.12v.15a2.74,2.74,0,0,0-.53.13c.44,0,.44.18.43.27s-.05.09-.06.15h-.08c0,.05,0,.09,0,.14h0c-.06.07,0,.13.29.15v.05c-.12.07-.3.12-.31.2s.16.19.2.28a.31.31,0,0,0,.11.12v.42c-.19.16-.11.3-.11.47s-.06.2.11.27h0c0,.41,0,.83.06,1.24Zm-.22-8.2,0-.11h0Zm0-.38h0Z"/><path class="cls-2" d="M118,263.94v-.24a.39.39,0,0,0,.15-.06c.23-.11,0-.2-.05-.31l-.11-.14,0-.84c.08,0,.22-.07.23-.12s-.14-.08-.18-.14c-.21-.27.47-.54.21-.8a.94.94,0,0,1-.31-.47l0-.17,0-.73.11-.14c.11-.16-.09-.3-.14-.43v-.11a.23.23,0,0,1,.05-.07c0-.05.18-.13.17-.18s-.1-.07-.13-.1a.22.22,0,0,0,0-.1c.07-.07.19-.11.11-.21h-.21v0l.22-.11-.14,0c.24-.09.31-.22,0-.29a.08.08,0,0,0,0-.08c0-.07-.15-.11-.25-.17v0c.06-.08.09-.15.38-.23l-.11,0c.14-.09,0-.25-.3-.27h0l0-.07c.22-.1.23-.17.13-.23a.24.24,0,0,0,0-.12c-.06-.18-.12-.38-.17-.57a.13.13,0,0,1,0-.06c0-.05.08-.1.07-.14s0-.05-.06-.07a.31.31,0,0,0-.18-.34h0l0-.1.12,0c-.06,0-.13-.11-.1-.18h.1c-.13,0,0-.09.21-.12a1.27,1.27,0,0,1-.18-.06c.29-.08.06-.31-.13-.38a.66.66,0,0,0,.08-.25c0-.15,0-.2-.33-.16l0-.18-.29.05h0l-.05,0-.51.09h0l-.1,0c0,.1.13.17.13.26-.17.14-.15.24-.09.35l0,.12a1.93,1.93,0,0,1,.06.42c0,.07-.08.17,0,.23l0,0a1.22,1.22,0,0,0,.15.4v.09l-.06,0c-.32.15-.36.23-.31.39.12.36-.23.8.26,1.13l.27.18,0,.6c-.06,0-.08.07,0,.1-.61.06-.44.39-.3.49h.12c0,.11.17.36,0,.45.12,0,.18.08.3.11v.15a4.55,4.55,0,0,0-.52.17c.44,0,.46.17.45.25s0,.1,0,.16h-.08c0,.05,0,.1,0,.15h0c-.06.08,0,.13.29.14v0c-.12.09-.3.15-.3.24s.16.18.21.27a.22.22,0,0,0,.12.11v.44c-.18.17-.1.31-.1.48s-.06.21.12.28h0l0,1.28Zm-.52-8.59,0-.11h0Zm.05-.39h0Z"/><path class="cls-2" d="M121.44,265.89l0-.18h.15c.25,0,.09-.14,0-.25l-.08-.13c0-.22.09-.44.12-.67a.85.85,0,0,0,.25-.07c0-.05-.13-.1-.17-.15-.18-.24.51-.46.25-.68a.79.79,0,0,1-.31-.37l0-.13,0-.55.11-.11c.11-.13-.08-.23-.13-.33v-.08l0-.05s.19-.1.18-.14-.09-.05-.12-.08a.11.11,0,0,0,0-.07c.07-.06.2-.08.11-.16h-.21l.22-.08-.13,0c.24-.06.32-.16.06-.22,0,0,0,0,0-.06s-.14-.09-.23-.13v0c.06-.06.1-.11.39-.16l-.11,0c.15-.06.05-.19-.28-.22h0l.05-.05c.24-.06.25-.11.15-.17a.13.13,0,0,0,0-.09,3.17,3.17,0,0,1-.12-.44s0,0,0,0,.08-.07.08-.1a.06.06,0,0,0,0-.06c0-.1,0-.19-.15-.27h0l.07-.07h.11s-.1-.1-.07-.15h.11c-.13-.05,0-.07.22-.06-.07,0-.1-.05-.17-.06.3,0,.1-.23-.07-.3a.63.63,0,0,0,.12-.18c0-.1,0-.14-.31-.15v-.14h-1c0,.09.1.16.08.23-.18.08-.18.17-.14.26v.09a1.29,1.29,0,0,1,0,.34c0,.06-.1.13,0,.19l0,0a.82.82,0,0,0,.11.32v.08l-.07,0c-.33.09-.38.15-.34.28.08.29-.3.62.17.9l.25.16v.47c-.05,0-.08.05,0,.07-.61,0-.45.3-.31.38h.11c0,.09.16.29,0,.36l.29.09v.11a3.19,3.19,0,0,0-.53.15c.44,0,.46.12.45.18s0,.08,0,.13h-.08s0,.07,0,.11h0c0,.06,0,.1.3.1v0c-.12.07-.3.12-.3.19s.16.13.21.2a.24.24,0,0,0,.11.08,1.71,1.71,0,0,1,0,.32c-.19.1-.12.19-.14.32s-.08.13.08.21h0c0,.31-.12.63-.19.95Zm.15-6.68v-.08h0Zm.1-.29Z"/><path class="cls-2" d="M124.85,266.75v-.16l.15,0c.23-.06,0-.13,0-.21l-.1-.1v-.55a1.3,1.3,0,0,0,.25-.06s-.14-.07-.18-.1c-.2-.19.5-.35.25-.53s-.27-.2-.29-.32v-.59L125,264c.13-.11-.07-.2-.11-.3v-.06l0,0s.19-.09.18-.12-.09-.05-.12-.07a.09.09,0,0,0,0-.06c.07-.05.2-.08.12-.14h-.21l.22-.08-.14,0c.24-.06.32-.15.06-.2,0,0,0,0,0-.05s-.14-.08-.24-.11v0a.66.66,0,0,1,.39-.15l-.11,0c.15-.06,0-.17-.29-.18h0l0,0c.23-.07.24-.12.14-.16a.08.08,0,0,0,0-.08c-.05-.12-.11-.25-.15-.38s0,0,0,0,.09-.07.08-.1,0,0-.06,0,0-.17-.17-.22h0l.06-.07h.11c-.05,0-.11-.08-.08-.12l.1,0c-.13,0,0-.06.21-.09a1,1,0,0,1-.17,0c.28-.07.06-.22-.12-.25a.38.38,0,0,0,.09-.18c0-.1,0-.13-.32-.08l0-.13-.28.06h0l-.5.1h-.1c0,.07.12.11.11.17-.17.1-.15.17-.1.23l0,.08a1.17,1.17,0,0,1,0,.27c0,.05-.09.12,0,.15h0a.67.67,0,0,0,.14.26v.06l-.06,0c-.33.11-.37.16-.33.26s-.26.52.22.73l.25.12,0,.39c-.06,0-.09,0,0,.07-.61,0-.46.24-.32.31h.11c0,.07.15.24,0,.3l.29.07v.1a4.42,4.42,0,0,0-.54.1c.45,0,.45.12.45.17a.61.61,0,0,1-.07.1h-.07s0,.06,0,.09h0c-.06.05,0,.08.28.1v0c-.12.05-.3.08-.31.14s.15.12.19.18a.25.25,0,0,0,.12.08v.29c-.19.11-.12.2-.12.31s-.07.13.1.19h0l0,.84Zm-.14-5.7,0-.07h0Zm.06-.27h0Z"/><path class="cls-2" d="M127.36,266.43v-.1l.15,0c.23,0,.06-.09,0-.15l-.1-.07v-.38a.81.81,0,0,0,.24,0s-.13-.05-.17-.08c-.2-.13.5-.23.25-.36s-.27-.14-.29-.22v-.4l.11-.07c.13-.07-.06-.13-.11-.2v0l0,0s.18-.06.17-.09l-.12-.05,0,0c.07,0,.19,0,.11-.1h-.21l.22-.05-.13,0c.24,0,.32-.1.06-.13,0,0,0,0,0,0s-.14-.05-.23-.07h0c.06,0,.09-.07.38-.11h-.1c.15-.05,0-.12-.29-.12h0l0,0c.24-.05.24-.08.15-.11s0,0,0,0-.1-.17-.14-.26v0s.08,0,.08-.07l-.06,0c0-.05,0-.11-.15-.14h0l0-.05h.12s-.12-.05-.08-.08h.1c-.12,0,0,0,.22-.07h-.18c.3-.06.08-.16-.09-.18a.27.27,0,0,0,.1-.12c0-.07,0-.09-.32,0V262l-.28.05h0l-.51.08h-.1s.12.07.1.11c-.18.07-.17.12-.12.17v.05a.57.57,0,0,1,0,.18s-.1.08,0,.11h0a.34.34,0,0,0,.13.17v0l-.06,0c-.33.08-.38.12-.33.19s-.29.35.19.48l.25.08V264c-.05,0-.08,0,0,0-.61,0-.46.17-.32.22h.11s.15.16,0,.2l.29.05v.06l-.54.07c.45,0,.45.08.44.12s0,0-.06.07h-.07s0,0,0,.07h0s0,.06.29.07v0c-.12,0-.3.06-.31.09s.15.09.19.13a.33.33,0,0,0,.12,0v.2c-.19.07-.12.13-.12.2s-.07.09.1.13h0l0,.56Zm-.07-3.9v0h0Zm.08-.19Z"/><path class="cls-2" d="M238.26,45.23C233.83,16.24,206-3.55,176.1,1a54.9,54.9,0,0,0-43.88,36.21,54.92,54.92,0,0,0-52.7-21.46C49.62,20.32,29,47.52,33.4,76.51c0,.17.07.32.1.49.6,5.75,9.25,61.06,120.57,103.38v0l0,0h0v0C253,102.63,238.26,45.23,238.26,45.23Z"/><path class="cls-2" d="M154,181.05l-.16-.39C42.65,138.36,33.78,83.19,33.14,77c0-.05,0-.11,0-.18s-.05-.2-.06-.3C28.59,47.43,49.42,20,79.47,15.4A55.13,55.13,0,0,1,132.1,36.46a55.09,55.09,0,0,1,44-35.8c30-4.59,58.1,15.37,62.56,44.5.15.61,3.47,15.11-5,38.61-7.92,22-28.07,56.62-79.13,96.79l0,.39-.25-.12ZM79.58,16.11c-29.66,4.53-50.21,31.6-45.83,60.34,0,.09,0,.17,0,.25l.06.23c.64,6.14,9.45,60.91,120.19,103.06,28.11-22.12,64.56-56.78,78.86-96.39a90.39,90.39,0,0,0,5.74-28.14,42,42,0,0,0-.74-10.14v0c-4.39-28.74-32.09-48.44-61.75-43.91a54.35,54.35,0,0,0-43.59,36l-.23.65-.41-.55A54.35,54.35,0,0,0,79.58,16.11Z"/></g></svg>