<svg id="Layer_1" data-name="Layer 1" xmlns="http://www.w3.org/2000/svg" viewBox="0 0 15.18 24.13"><defs><style>.cls-1{fill:#4f4f4f;}.cls-2{fill:#fff;}</style></defs><title>Artboard 5</title><polygon points="2.95 15.35 11.4 9.86 11.38 18.77 2.96 23.99 2.95 15.35"/><path class="cls-1" d="M.15,13.26l.52-8.2L8.67,0V8s0,.87,1.8,1.58c2,.78,4.71-.28,4.71-.28L6.71,14.54s-2.63,1-4.1.64A3.59,3.59,0,0,1,.19,13.24"/><polygon points="6.67 14.56 6.67 6.58 15.15 1.35 15.14 9.32 6.67 14.56"/><path class="cls-2" d="M3.38,15.44H3.3A3.63,3.63,0,0,1,.91,14.3,7.31,7.31,0,0,1,0,13.21H0V5l.72.08v7.82a3.47,3.47,0,0,0,2.62,1.85A6.18,6.18,0,0,0,6,14.12V6.49l.72.07v8l-.1,0a8.41,8.41,0,0,1-3.21.92"/><rect class="cls-2" x="2.61" y="15.22" width="0.72" height="8.91"/></svg>